<?xml version="1.0" encoding="utf-8" standalone="no"?>
<!DOCTYPE svg PUBLIC "-//W3C//DTD SVG 1.1//EN"
  "http://www.w3.org/Graphics/SVG/1.1/DTD/svg11.dtd">
<!-- Created with matplotlib (https://matplotlib.org/) -->
<svg height="288pt" version="1.1" viewBox="0 0 432 288" width="432pt" xmlns="http://www.w3.org/2000/svg" xmlns:xlink="http://www.w3.org/1999/xlink">
 <metadata>
  <rdf:RDF xmlns:cc="http://creativecommons.org/ns#" xmlns:dc="http://purl.org/dc/elements/1.1/" xmlns:rdf="http://www.w3.org/1999/02/22-rdf-syntax-ns#">
   <cc:Work>
    <dc:type rdf:resource="http://purl.org/dc/dcmitype/StillImage"/>
    <dc:date>2021-01-06T09:36:27.414191</dc:date>
    <dc:format>image/svg+xml</dc:format>
    <dc:creator>
     <cc:Agent>
      <dc:title>Matplotlib v3.3.3, https://matplotlib.org/</dc:title>
     </cc:Agent>
    </dc:creator>
   </cc:Work>
  </rdf:RDF>
 </metadata>
 <defs>
  <style type="text/css">*{stroke-linecap:butt;stroke-linejoin:round;}</style>
 </defs>
 <g id="figure_1">
  <g id="patch_1">
   <path d="M 0 288 
L 432 288 
L 432 0 
L 0 0 
z
" style="fill:none;"/>
  </g>
  <g id="patch_2">
   <path d="M 112.68 252 
L 330.12 252 
L 330.12 34.56 
L 112.68 34.56 
z
" style="fill:#ffffff;"/>
  </g>
  <g id="pane3d_1">
   <g id="patch_3">
    <path d="M 262.807126 157.488125 
L 315.667459 205.126086 
L 318.599194 103.544201 
L 263.919124 64.637324 
" style="fill:#f2f2f2;opacity:0.5;stroke:#f2f2f2;stroke-linejoin:miter;"/>
   </g>
  </g>
  <g id="pane3d_2">
   <g id="patch_4">
    <path d="M 262.807126 157.488125 
L 138.832046 173.721478 
L 136.267472 77.868349 
L 263.919124 64.637324 
" style="fill:#e6e6e6;opacity:0.5;stroke:#e6e6e6;stroke-linejoin:miter;"/>
   </g>
  </g>
  <g id="pane3d_3">
   <g id="patch_5">
    <path d="M 262.807126 157.488125 
L 138.832046 173.721478 
L 180.024048 225.099632 
L 315.667459 205.126086 
" style="fill:#ececec;opacity:0.5;stroke:#ececec;stroke-linejoin:miter;"/>
   </g>
  </g>
  <g id="axis3d_1">
   <g id="line2d_1">
    <path d="M 315.667459 205.126086 
L 180.024048 225.099632 
" style="fill:none;stroke:#000000;stroke-linecap:square;stroke-width:0.8;"/>
   </g>
   <g id="text_1">
    <!-- m -->
    <g transform="translate(255.920138 252.468175)scale(0.1 -0.1)">
     <defs>
      <path d="M 52 44.1875 
Q 55.375 50.25 60.0625 53.125 
Q 64.75 56 71.09375 56 
Q 79.640625 56 84.28125 50.015625 
Q 88.921875 44.046875 88.921875 33.015625 
L 88.921875 0 
L 79.890625 0 
L 79.890625 32.71875 
Q 79.890625 40.578125 77.09375 44.375 
Q 74.3125 48.1875 68.609375 48.1875 
Q 61.625 48.1875 57.5625 43.546875 
Q 53.515625 38.921875 53.515625 30.90625 
L 53.515625 0 
L 44.484375 0 
L 44.484375 32.71875 
Q 44.484375 40.625 41.703125 44.40625 
Q 38.921875 48.1875 33.109375 48.1875 
Q 26.21875 48.1875 22.15625 43.53125 
Q 18.109375 38.875 18.109375 30.90625 
L 18.109375 0 
L 9.078125 0 
L 9.078125 54.6875 
L 18.109375 54.6875 
L 18.109375 46.1875 
Q 21.1875 51.21875 25.484375 53.609375 
Q 29.78125 56 35.6875 56 
Q 41.65625 56 45.828125 52.96875 
Q 50 49.953125 52 44.1875 
z
" id="DejaVuSans-109"/>
     </defs>
     <use xlink:href="#DejaVuSans-109"/>
    </g>
   </g>
   <g id="Line3DCollection_1">
    <path d="M 307.351357 206.350635 
L 255.17842 158.487031 
L 256.071958 65.450678 
" style="fill:none;stroke:#b0b0b0;stroke-width:0.8;"/>
    <path d="M 281.750074 210.120434 
L 231.716305 161.559171 
L 231.931584 67.952815 
" style="fill:none;stroke:#b0b0b0;stroke-width:0.8;"/>
    <path d="M 255.754892 213.948235 
L 207.92868 164.673933 
L 207.446447 70.490687 
" style="fill:none;stroke:#b0b0b0;stroke-width:0.8;"/>
    <path d="M 229.356649 217.835387 
L 183.808722 167.832211 
L 182.609107 73.065064 
" style="fill:none;stroke:#b0b0b0;stroke-width:0.8;"/>
    <path d="M 202.545897 221.783281 
L 159.349418 171.034924 
L 157.411911 75.67674 
" style="fill:none;stroke:#b0b0b0;stroke-width:0.8;"/>
   </g>
   <g id="xtick_1">
    <g id="line2d_2">
     <path d="M 306.889571 205.926992 
L 308.277311 207.200109 
" style="fill:none;stroke:#000000;stroke-linecap:square;stroke-width:0.8;"/>
    </g>
    <g id="text_2">
     <!-- 0 -->
     <g transform="translate(309.817498 229.46636)scale(0.1 -0.1)">
      <defs>
       <path d="M 31.78125 66.40625 
Q 24.171875 66.40625 20.328125 58.90625 
Q 16.5 51.421875 16.5 36.375 
Q 16.5 21.390625 20.328125 13.890625 
Q 24.171875 6.390625 31.78125 6.390625 
Q 39.453125 6.390625 43.28125 13.890625 
Q 47.125 21.390625 47.125 36.375 
Q 47.125 51.421875 43.28125 58.90625 
Q 39.453125 66.40625 31.78125 66.40625 
z
M 31.78125 74.21875 
Q 44.046875 74.21875 50.515625 64.515625 
Q 56.984375 54.828125 56.984375 36.375 
Q 56.984375 17.96875 50.515625 8.265625 
Q 44.046875 -1.421875 31.78125 -1.421875 
Q 19.53125 -1.421875 13.0625 8.265625 
Q 6.59375 17.96875 6.59375 36.375 
Q 6.59375 54.828125 13.0625 64.515625 
Q 19.53125 74.21875 31.78125 74.21875 
z
" id="DejaVuSans-48"/>
      </defs>
      <use xlink:href="#DejaVuSans-48"/>
     </g>
    </g>
   </g>
   <g id="xtick_2">
    <g id="line2d_3">
     <path d="M 281.306897 209.690301 
L 282.638732 210.982939 
" style="fill:none;stroke:#000000;stroke-linecap:square;stroke-width:0.8;"/>
    </g>
    <g id="text_3">
     <!-- 2 -->
     <g transform="translate(284.058616 233.385157)scale(0.1 -0.1)">
      <defs>
       <path d="M 19.1875 8.296875 
L 53.609375 8.296875 
L 53.609375 0 
L 7.328125 0 
L 7.328125 8.296875 
Q 12.9375 14.109375 22.625 23.890625 
Q 32.328125 33.6875 34.8125 36.53125 
Q 39.546875 41.84375 41.421875 45.53125 
Q 43.3125 49.21875 43.3125 52.78125 
Q 43.3125 58.59375 39.234375 62.25 
Q 35.15625 65.921875 28.609375 65.921875 
Q 23.96875 65.921875 18.8125 64.3125 
Q 13.671875 62.703125 7.8125 59.421875 
L 7.8125 69.390625 
Q 13.765625 71.78125 18.9375 73 
Q 24.125 74.21875 28.421875 74.21875 
Q 39.75 74.21875 46.484375 68.546875 
Q 53.21875 62.890625 53.21875 53.421875 
Q 53.21875 48.921875 51.53125 44.890625 
Q 49.859375 40.875 45.40625 35.40625 
Q 44.1875 33.984375 37.640625 27.21875 
Q 31.109375 20.453125 19.1875 8.296875 
z
" id="DejaVuSans-50"/>
      </defs>
      <use xlink:href="#DejaVuSans-50"/>
     </g>
    </g>
   </g>
   <g id="xtick_3">
    <g id="line2d_4">
     <path d="M 255.330953 213.511461 
L 256.60499 214.824073 
" style="fill:none;stroke:#000000;stroke-linecap:square;stroke-width:0.8;"/>
    </g>
    <g id="text_4">
     <!-- 4 -->
     <g transform="translate(257.900273 237.364725)scale(0.1 -0.1)">
      <defs>
       <path d="M 37.796875 64.3125 
L 12.890625 25.390625 
L 37.796875 25.390625 
z
M 35.203125 72.90625 
L 47.609375 72.90625 
L 47.609375 25.390625 
L 58.015625 25.390625 
L 58.015625 17.1875 
L 47.609375 17.1875 
L 47.609375 0 
L 37.796875 0 
L 37.796875 17.1875 
L 4.890625 17.1875 
L 4.890625 26.703125 
z
" id="DejaVuSans-52"/>
      </defs>
      <use xlink:href="#DejaVuSans-52"/>
     </g>
    </g>
   </g>
   <g id="xtick_4">
    <g id="line2d_5">
     <path d="M 228.9526 217.391817 
L 230.166879 218.724869 
" style="fill:none;stroke:#000000;stroke-linecap:square;stroke-width:0.8;"/>
    </g>
    <g id="text_5">
     <!-- 6 -->
     <g transform="translate(231.333105 241.406489)scale(0.1 -0.1)">
      <defs>
       <path d="M 33.015625 40.375 
Q 26.375 40.375 22.484375 35.828125 
Q 18.609375 31.296875 18.609375 23.390625 
Q 18.609375 15.53125 22.484375 10.953125 
Q 26.375 6.390625 33.015625 6.390625 
Q 39.65625 6.390625 43.53125 10.953125 
Q 47.40625 15.53125 47.40625 23.390625 
Q 47.40625 31.296875 43.53125 35.828125 
Q 39.65625 40.375 33.015625 40.375 
z
M 52.59375 71.296875 
L 52.59375 62.3125 
Q 48.875 64.0625 45.09375 64.984375 
Q 41.3125 65.921875 37.59375 65.921875 
Q 27.828125 65.921875 22.671875 59.328125 
Q 17.53125 52.734375 16.796875 39.40625 
Q 19.671875 43.65625 24.015625 45.921875 
Q 28.375 48.1875 33.59375 48.1875 
Q 44.578125 48.1875 50.953125 41.515625 
Q 57.328125 34.859375 57.328125 23.390625 
Q 57.328125 12.15625 50.6875 5.359375 
Q 44.046875 -1.421875 33.015625 -1.421875 
Q 20.359375 -1.421875 13.671875 8.265625 
Q 6.984375 17.96875 6.984375 36.375 
Q 6.984375 53.65625 15.1875 63.9375 
Q 23.390625 74.21875 37.203125 74.21875 
Q 40.921875 74.21875 44.703125 73.484375 
Q 48.484375 72.75 52.59375 71.296875 
z
" id="DejaVuSans-54"/>
      </defs>
      <use xlink:href="#DejaVuSans-54"/>
     </g>
    </g>
   </g>
   <g id="xtick_5">
    <g id="line2d_6">
     <path d="M 202.162415 221.332756 
L 203.314903 222.686729 
" style="fill:none;stroke:#000000;stroke-linecap:square;stroke-width:0.8;"/>
    </g>
    <g id="text_6">
     <!-- 8 -->
     <g transform="translate(204.347452 245.51192)scale(0.1 -0.1)">
      <defs>
       <path d="M 31.78125 34.625 
Q 24.75 34.625 20.71875 30.859375 
Q 16.703125 27.09375 16.703125 20.515625 
Q 16.703125 13.921875 20.71875 10.15625 
Q 24.75 6.390625 31.78125 6.390625 
Q 38.8125 6.390625 42.859375 10.171875 
Q 46.921875 13.96875 46.921875 20.515625 
Q 46.921875 27.09375 42.890625 30.859375 
Q 38.875 34.625 31.78125 34.625 
z
M 21.921875 38.8125 
Q 15.578125 40.375 12.03125 44.71875 
Q 8.5 49.078125 8.5 55.328125 
Q 8.5 64.0625 14.71875 69.140625 
Q 20.953125 74.21875 31.78125 74.21875 
Q 42.671875 74.21875 48.875 69.140625 
Q 55.078125 64.0625 55.078125 55.328125 
Q 55.078125 49.078125 51.53125 44.71875 
Q 48 40.375 41.703125 38.8125 
Q 48.828125 37.15625 52.796875 32.3125 
Q 56.78125 27.484375 56.78125 20.515625 
Q 56.78125 9.90625 50.3125 4.234375 
Q 43.84375 -1.421875 31.78125 -1.421875 
Q 19.734375 -1.421875 13.25 4.234375 
Q 6.78125 9.90625 6.78125 20.515625 
Q 6.78125 27.484375 10.78125 32.3125 
Q 14.796875 37.15625 21.921875 38.8125 
z
M 18.3125 54.390625 
Q 18.3125 48.734375 21.84375 45.5625 
Q 25.390625 42.390625 31.78125 42.390625 
Q 38.140625 42.390625 41.71875 45.5625 
Q 45.3125 48.734375 45.3125 54.390625 
Q 45.3125 60.0625 41.71875 63.234375 
Q 38.140625 66.40625 31.78125 66.40625 
Q 25.390625 66.40625 21.84375 63.234375 
Q 18.3125 60.0625 18.3125 54.390625 
z
" id="DejaVuSans-56"/>
      </defs>
      <use xlink:href="#DejaVuSans-56"/>
     </g>
    </g>
   </g>
  </g>
  <g id="axis3d_2">
   <g id="line2d_7">
    <path d="M 138.832046 173.721478 
L 180.024048 225.099632 
" style="fill:none;stroke:#000000;stroke-linecap:square;stroke-width:0.8;"/>
   </g>
   <g id="text_7">
    <!-- s -->
    <g transform="translate(126.435727 226.437651)scale(0.1 -0.1)">
     <defs>
      <path d="M 44.28125 53.078125 
L 44.28125 44.578125 
Q 40.484375 46.53125 36.375 47.5 
Q 32.28125 48.484375 27.875 48.484375 
Q 21.1875 48.484375 17.84375 46.4375 
Q 14.5 44.390625 14.5 40.28125 
Q 14.5 37.15625 16.890625 35.375 
Q 19.28125 33.59375 26.515625 31.984375 
L 29.59375 31.296875 
Q 39.15625 29.25 43.1875 25.515625 
Q 47.21875 21.78125 47.21875 15.09375 
Q 47.21875 7.46875 41.1875 3.015625 
Q 35.15625 -1.421875 24.609375 -1.421875 
Q 20.21875 -1.421875 15.453125 -0.5625 
Q 10.6875 0.296875 5.421875 2 
L 5.421875 11.28125 
Q 10.40625 8.6875 15.234375 7.390625 
Q 20.0625 6.109375 24.8125 6.109375 
Q 31.15625 6.109375 34.5625 8.28125 
Q 37.984375 10.453125 37.984375 14.40625 
Q 37.984375 18.0625 35.515625 20.015625 
Q 33.0625 21.96875 24.703125 23.78125 
L 21.578125 24.515625 
Q 13.234375 26.265625 9.515625 29.90625 
Q 5.8125 33.546875 5.8125 39.890625 
Q 5.8125 47.609375 11.28125 51.796875 
Q 16.75 56 26.8125 56 
Q 31.78125 56 36.171875 55.265625 
Q 40.578125 54.546875 44.28125 53.078125 
z
" id="DejaVuSans-115"/>
     </defs>
     <use xlink:href="#DejaVuSans-115"/>
    </g>
   </g>
   <g id="Line3DCollection_2">
    <path d="M 267.072484 66.881055 
L 265.864459 160.243406 
L 141.205737 176.682145 
" style="fill:none;stroke:#b0b0b0;stroke-width:0.8;"/>
    <path d="M 276.935518 73.898965 
L 275.420081 168.854975 
L 148.631572 185.944276 
" style="fill:none;stroke:#b0b0b0;stroke-width:0.8;"/>
    <path d="M 287.197141 81.200487 
L 285.350525 177.804333 
L 156.359818 195.583599 
" style="fill:none;stroke:#b0b0b0;stroke-width:0.8;"/>
    <path d="M 297.882014 88.803166 
L 295.678285 187.111755 
L 164.409332 205.623636 
" style="fill:none;stroke:#b0b0b0;stroke-width:0.8;"/>
    <path d="M 309.016873 96.726028 
L 306.427693 196.799169 
L 172.800573 216.089902 
" style="fill:none;stroke:#b0b0b0;stroke-width:0.8;"/>
   </g>
   <g id="xtick_6">
    <g id="line2d_8">
     <path d="M 142.239321 176.545847 
L 139.136745 176.954983 
" style="fill:none;stroke:#000000;stroke-linecap:square;stroke-width:0.8;"/>
    </g>
    <g id="text_8">
     <!-- 0 -->
     <g transform="translate(125.13888 195.521469)scale(0.1 -0.1)">
      <use xlink:href="#DejaVuSans-48"/>
     </g>
    </g>
   </g>
   <g id="xtick_7">
    <g id="line2d_9">
     <path d="M 149.683552 185.802484 
L 146.525719 186.228115 
" style="fill:none;stroke:#000000;stroke-linecap:square;stroke-width:0.8;"/>
    </g>
    <g id="text_9">
     <!-- 2 -->
     <g transform="translate(132.31308 205.015208)scale(0.1 -0.1)">
      <use xlink:href="#DejaVuSans-50"/>
     </g>
    </g>
   </g>
   <g id="xtick_8">
    <g id="line2d_10">
     <path d="M 157.43085 195.435975 
L 154.215788 195.879119 
" style="fill:none;stroke:#000000;stroke-linecap:square;stroke-width:0.8;"/>
    </g>
    <g id="text_10">
     <!-- 4 -->
     <g transform="translate(139.779674 214.895875)scale(0.1 -0.1)">
      <use xlink:href="#DejaVuSans-52"/>
     </g>
    </g>
   </g>
   <g id="xtick_9">
    <g id="line2d_11">
     <path d="M 165.500108 205.469812 
L 162.225737 205.931572 
" style="fill:none;stroke:#000000;stroke-linecap:square;stroke-width:0.8;"/>
    </g>
    <g id="text_11">
     <!-- 6 -->
     <g transform="translate(147.556906 225.187617)scale(0.1 -0.1)">
      <use xlink:href="#DejaVuSans-54"/>
     </g>
    </g>
   </g>
   <g id="xtick_10">
    <g id="line2d_12">
     <path d="M 173.911821 215.929479 
L 170.57595 216.411054 
" style="fill:none;stroke:#000000;stroke-linecap:square;stroke-width:0.8;"/>
    </g>
    <g id="text_12">
     <!-- 8 -->
     <g transform="translate(155.664576 235.916631)scale(0.1 -0.1)">
      <use xlink:href="#DejaVuSans-56"/>
     </g>
    </g>
   </g>
  </g>
  <g id="axis3d_3">
   <g id="line2d_13">
    <path d="M 138.832046 173.721478 
L 136.267472 77.868349 
" style="fill:none;stroke:#000000;stroke-linecap:square;stroke-width:0.8;"/>
   </g>
   <g id="text_13">
    <!-- Reliability -->
    <g transform="translate(97.609267 96.327788)rotate(-271.532597)scale(0.1 -0.1)">
     <defs>
      <path d="M 44.390625 34.1875 
Q 47.5625 33.109375 50.5625 29.59375 
Q 53.5625 26.078125 56.59375 19.921875 
L 66.609375 0 
L 56 0 
L 46.6875 18.703125 
Q 43.0625 26.03125 39.671875 28.421875 
Q 36.28125 30.8125 30.421875 30.8125 
L 19.671875 30.8125 
L 19.671875 0 
L 9.8125 0 
L 9.8125 72.90625 
L 32.078125 72.90625 
Q 44.578125 72.90625 50.734375 67.671875 
Q 56.890625 62.453125 56.890625 51.90625 
Q 56.890625 45.015625 53.6875 40.46875 
Q 50.484375 35.9375 44.390625 34.1875 
z
M 19.671875 64.796875 
L 19.671875 38.921875 
L 32.078125 38.921875 
Q 39.203125 38.921875 42.84375 42.21875 
Q 46.484375 45.515625 46.484375 51.90625 
Q 46.484375 58.296875 42.84375 61.546875 
Q 39.203125 64.796875 32.078125 64.796875 
z
" id="DejaVuSans-82"/>
      <path d="M 56.203125 29.59375 
L 56.203125 25.203125 
L 14.890625 25.203125 
Q 15.484375 15.921875 20.484375 11.0625 
Q 25.484375 6.203125 34.421875 6.203125 
Q 39.59375 6.203125 44.453125 7.46875 
Q 49.3125 8.734375 54.109375 11.28125 
L 54.109375 2.78125 
Q 49.265625 0.734375 44.1875 -0.34375 
Q 39.109375 -1.421875 33.890625 -1.421875 
Q 20.796875 -1.421875 13.15625 6.1875 
Q 5.515625 13.8125 5.515625 26.8125 
Q 5.515625 40.234375 12.765625 48.109375 
Q 20.015625 56 32.328125 56 
Q 43.359375 56 49.78125 48.890625 
Q 56.203125 41.796875 56.203125 29.59375 
z
M 47.21875 32.234375 
Q 47.125 39.59375 43.09375 43.984375 
Q 39.0625 48.390625 32.421875 48.390625 
Q 24.90625 48.390625 20.390625 44.140625 
Q 15.875 39.890625 15.1875 32.171875 
z
" id="DejaVuSans-101"/>
      <path d="M 9.421875 75.984375 
L 18.40625 75.984375 
L 18.40625 0 
L 9.421875 0 
z
" id="DejaVuSans-108"/>
      <path d="M 9.421875 54.6875 
L 18.40625 54.6875 
L 18.40625 0 
L 9.421875 0 
z
M 9.421875 75.984375 
L 18.40625 75.984375 
L 18.40625 64.59375 
L 9.421875 64.59375 
z
" id="DejaVuSans-105"/>
      <path d="M 34.28125 27.484375 
Q 23.390625 27.484375 19.1875 25 
Q 14.984375 22.515625 14.984375 16.5 
Q 14.984375 11.71875 18.140625 8.90625 
Q 21.296875 6.109375 26.703125 6.109375 
Q 34.1875 6.109375 38.703125 11.40625 
Q 43.21875 16.703125 43.21875 25.484375 
L 43.21875 27.484375 
z
M 52.203125 31.203125 
L 52.203125 0 
L 43.21875 0 
L 43.21875 8.296875 
Q 40.140625 3.328125 35.546875 0.953125 
Q 30.953125 -1.421875 24.3125 -1.421875 
Q 15.921875 -1.421875 10.953125 3.296875 
Q 6 8.015625 6 15.921875 
Q 6 25.140625 12.171875 29.828125 
Q 18.359375 34.515625 30.609375 34.515625 
L 43.21875 34.515625 
L 43.21875 35.40625 
Q 43.21875 41.609375 39.140625 45 
Q 35.0625 48.390625 27.6875 48.390625 
Q 23 48.390625 18.546875 47.265625 
Q 14.109375 46.140625 10.015625 43.890625 
L 10.015625 52.203125 
Q 14.9375 54.109375 19.578125 55.046875 
Q 24.21875 56 28.609375 56 
Q 40.484375 56 46.34375 49.84375 
Q 52.203125 43.703125 52.203125 31.203125 
z
" id="DejaVuSans-97"/>
      <path d="M 48.6875 27.296875 
Q 48.6875 37.203125 44.609375 42.84375 
Q 40.53125 48.484375 33.40625 48.484375 
Q 26.265625 48.484375 22.1875 42.84375 
Q 18.109375 37.203125 18.109375 27.296875 
Q 18.109375 17.390625 22.1875 11.75 
Q 26.265625 6.109375 33.40625 6.109375 
Q 40.53125 6.109375 44.609375 11.75 
Q 48.6875 17.390625 48.6875 27.296875 
z
M 18.109375 46.390625 
Q 20.953125 51.265625 25.265625 53.625 
Q 29.59375 56 35.59375 56 
Q 45.5625 56 51.78125 48.09375 
Q 58.015625 40.1875 58.015625 27.296875 
Q 58.015625 14.40625 51.78125 6.484375 
Q 45.5625 -1.421875 35.59375 -1.421875 
Q 29.59375 -1.421875 25.265625 0.953125 
Q 20.953125 3.328125 18.109375 8.203125 
L 18.109375 0 
L 9.078125 0 
L 9.078125 75.984375 
L 18.109375 75.984375 
z
" id="DejaVuSans-98"/>
      <path d="M 18.3125 70.21875 
L 18.3125 54.6875 
L 36.8125 54.6875 
L 36.8125 47.703125 
L 18.3125 47.703125 
L 18.3125 18.015625 
Q 18.3125 11.328125 20.140625 9.421875 
Q 21.96875 7.515625 27.59375 7.515625 
L 36.8125 7.515625 
L 36.8125 0 
L 27.59375 0 
Q 17.1875 0 13.234375 3.875 
Q 9.28125 7.765625 9.28125 18.015625 
L 9.28125 47.703125 
L 2.6875 47.703125 
L 2.6875 54.6875 
L 9.28125 54.6875 
L 9.28125 70.21875 
z
" id="DejaVuSans-116"/>
      <path d="M 32.171875 -5.078125 
Q 28.375 -14.84375 24.75 -17.8125 
Q 21.140625 -20.796875 15.09375 -20.796875 
L 7.90625 -20.796875 
L 7.90625 -13.28125 
L 13.1875 -13.28125 
Q 16.890625 -13.28125 18.9375 -11.515625 
Q 21 -9.765625 23.484375 -3.21875 
L 25.09375 0.875 
L 2.984375 54.6875 
L 12.5 54.6875 
L 29.59375 11.921875 
L 46.6875 54.6875 
L 56.203125 54.6875 
z
" id="DejaVuSans-121"/>
     </defs>
     <use xlink:href="#DejaVuSans-82"/>
     <use x="64.982422" xlink:href="#DejaVuSans-101"/>
     <use x="126.505859" xlink:href="#DejaVuSans-108"/>
     <use x="154.289062" xlink:href="#DejaVuSans-105"/>
     <use x="182.072266" xlink:href="#DejaVuSans-97"/>
     <use x="243.351562" xlink:href="#DejaVuSans-98"/>
     <use x="306.828125" xlink:href="#DejaVuSans-105"/>
     <use x="334.611328" xlink:href="#DejaVuSans-108"/>
     <use x="362.394531" xlink:href="#DejaVuSans-105"/>
     <use x="390.177734" xlink:href="#DejaVuSans-116"/>
     <use x="429.386719" xlink:href="#DejaVuSans-121"/>
    </g>
   </g>
   <g id="Line3DCollection_3">
    <path d="M 138.782219 171.859154 
L 262.828754 155.682266 
L 315.724305 203.156412 
" style="fill:none;stroke:#b0b0b0;stroke-width:0.8;"/>
    <path d="M 138.30091 153.869795 
L 263.03762 138.242146 
L 316.273653 184.122033 
" style="fill:none;stroke:#b0b0b0;stroke-width:0.8;"/>
    <path d="M 137.814154 135.676888 
L 263.248765 120.611719 
L 316.829645 164.857427 
" style="fill:none;stroke:#b0b0b0;stroke-width:0.8;"/>
    <path d="M 137.321859 117.276957 
L 263.462227 102.78785 
L 317.392403 145.358393 
" style="fill:none;stroke:#b0b0b0;stroke-width:0.8;"/>
    <path d="M 136.82393 98.666448 
L 263.678044 84.76734 
L 317.962051 125.620625 
" style="fill:none;stroke:#b0b0b0;stroke-width:0.8;"/>
    <path d="M 136.32027 79.841726 
L 263.896255 66.546916 
L 318.538716 105.639711 
" style="fill:none;stroke:#b0b0b0;stroke-width:0.8;"/>
   </g>
   <g id="xtick_11">
    <g id="line2d_14">
     <path d="M 139.810518 171.725054 
L 136.723818 172.12759 
" style="fill:none;stroke:#000000;stroke-linecap:square;stroke-width:0.8;"/>
    </g>
    <g id="text_14">
     <!-- 0.0 -->
     <g transform="translate(114.117499 176.501393)scale(0.1 -0.1)">
      <defs>
       <path d="M 10.6875 12.40625 
L 21 12.40625 
L 21 0 
L 10.6875 0 
z
" id="DejaVuSans-46"/>
      </defs>
      <use xlink:href="#DejaVuSans-48"/>
      <use x="63.623047" xlink:href="#DejaVuSans-46"/>
      <use x="95.410156" xlink:href="#DejaVuSans-48"/>
     </g>
    </g>
   </g>
   <g id="xtick_12">
    <g id="line2d_15">
     <path d="M 139.335133 153.740223 
L 136.230639 154.12917 
" style="fill:none;stroke:#000000;stroke-linecap:square;stroke-width:0.8;"/>
    </g>
    <g id="text_15">
     <!-- 0.2 -->
     <g transform="translate(113.545891 158.611941)scale(0.1 -0.1)">
      <use xlink:href="#DejaVuSans-48"/>
      <use x="63.623047" xlink:href="#DejaVuSans-46"/>
      <use x="95.410156" xlink:href="#DejaVuSans-50"/>
     </g>
    </g>
   </g>
   <g id="xtick_13">
    <g id="line2d_16">
     <path d="M 138.854371 135.551954 
L 135.731876 135.926977 
" style="fill:none;stroke:#000000;stroke-linecap:square;stroke-width:0.8;"/>
    </g>
    <g id="text_16">
     <!-- 0.4 -->
     <g transform="translate(112.967856 140.521388)scale(0.1 -0.1)">
      <use xlink:href="#DejaVuSans-48"/>
      <use x="63.623047" xlink:href="#DejaVuSans-46"/>
      <use x="95.410156" xlink:href="#DejaVuSans-52"/>
     </g>
    </g>
   </g>
   <g id="xtick_14">
    <g id="line2d_17">
     <path d="M 138.368139 117.156776 
L 135.227434 117.517533 
" style="fill:none;stroke:#000000;stroke-linecap:square;stroke-width:0.8;"/>
    </g>
    <g id="text_17">
     <!-- 0.6 -->
     <g transform="translate(112.383288 122.226323)scale(0.1 -0.1)">
      <use xlink:href="#DejaVuSans-48"/>
      <use x="63.623047" xlink:href="#DejaVuSans-46"/>
      <use x="95.410156" xlink:href="#DejaVuSans-54"/>
     </g>
    </g>
   </g>
   <g id="xtick_15">
    <g id="line2d_18">
     <path d="M 137.876344 98.551138 
L 134.717216 98.897276 
" style="fill:none;stroke:#000000;stroke-linecap:square;stroke-width:0.8;"/>
    </g>
    <g id="text_18">
     <!-- 0.8 -->
     <g transform="translate(111.792073 103.72326)scale(0.1 -0.1)">
      <use xlink:href="#DejaVuSans-48"/>
      <use x="63.623047" xlink:href="#DejaVuSans-46"/>
      <use x="95.410156" xlink:href="#DejaVuSans-56"/>
     </g>
    </g>
   </g>
   <g id="xtick_16">
    <g id="line2d_19">
     <path d="M 137.37889 79.731407 
L 134.201121 80.062565 
" style="fill:none;stroke:#000000;stroke-linecap:square;stroke-width:0.8;"/>
    </g>
    <g id="text_19">
     <!-- 1.0 -->
     <g transform="translate(111.194098 85.00863)scale(0.1 -0.1)">
      <defs>
       <path d="M 12.40625 8.296875 
L 28.515625 8.296875 
L 28.515625 63.921875 
L 10.984375 60.40625 
L 10.984375 69.390625 
L 28.421875 72.90625 
L 38.28125 72.90625 
L 38.28125 8.296875 
L 54.390625 8.296875 
L 54.390625 0 
L 12.40625 0 
z
" id="DejaVuSans-49"/>
      </defs>
      <use xlink:href="#DejaVuSans-49"/>
      <use x="63.623047" xlink:href="#DejaVuSans-46"/>
      <use x="95.410156" xlink:href="#DejaVuSans-48"/>
     </g>
    </g>
   </g>
  </g>
  <g id="axes_1">
   <g id="Poly3DCollection_1">
    <path clip-path="url(#p14b68e81c2)" d="M 258.214508 159.435717 
L 247.07563 70.898005 
L 251.479982 111.381343 
L 262.88723 163.70494 
z
" style="fill:#1a6294;"/>
    <path clip-path="url(#p14b68e81c2)" d="M 262.88723 163.70494 
L 251.479982 111.381343 
L 256.013309 137.269017 
L 267.650093 168.056521 
z
" style="fill:#196193;"/>
    <path clip-path="url(#p14b68e81c2)" d="M 267.650093 168.056521 
L 256.013309 137.269017 
L 260.67256 154.609051 
L 272.50573 172.492864 
z
" style="fill:#196091;"/>
    <path clip-path="url(#p14b68e81c2)" d="M 247.07563 70.898005 
L 234.902847 72.175807 
L 239.442773 90.661707 
L 251.479982 111.381343 
z
" style="fill:#175783;"/>
    <path clip-path="url(#p14b68e81c2)" d="M 251.479982 111.381343 
L 239.442773 90.661707 
L 243.981117 117.642557 
L 256.013309 137.269017 
z
" style="fill:#185a88;"/>
    <path clip-path="url(#p14b68e81c2)" d="M 272.50573 172.492864 
L 260.67256 154.609051 
L 265.453171 166.902698 
L 277.456879 177.016471 
z
" style="fill:#195e8f;"/>
    <path clip-path="url(#p14b68e81c2)" d="M 234.902847 72.175807 
L 222.642941 73.462754 
L 227.141429 83.053103 
L 239.442773 90.661707 
z
" style="fill:#175987;"/>
    <path clip-path="url(#p14b68e81c2)" d="M 256.013309 137.269017 
L 243.981117 117.642557 
L 248.575578 140.677483 
L 260.67256 154.609051 
z
" style="fill:#185b8a;"/>
    <path clip-path="url(#p14b68e81c2)" d="M 222.642941 73.462754 
L 210.294975 74.758945 
L 214.698939 80.78163 
L 227.141429 83.053103 
z
" style="fill:#185b89;"/>
    <path clip-path="url(#p14b68e81c2)" d="M 239.442773 90.661707 
L 227.141429 83.053103 
L 231.68495 105.383086 
L 243.981117 117.642557 
z
" style="fill:#175885;"/>
    <path clip-path="url(#p14b68e81c2)" d="M 260.67256 154.609051 
L 248.575578 140.677483 
L 253.25902 158.18832 
L 265.453171 166.902698 
z
" style="fill:#185c8b;"/>
    <path clip-path="url(#p14b68e81c2)" d="M 277.456879 177.016471 
L 265.453171 166.902698 
L 270.351149 176.212784 
L 282.506386 181.629942 
z
" style="fill:#185d8d;"/>
    <path clip-path="url(#p14b68e81c2)" d="M 210.294975 74.758945 
L 197.857996 76.06448 
L 202.153034 80.669097 
L 214.698939 80.78163 
z
" style="fill:#185b8a;"/>
    <path clip-path="url(#p14b68e81c2)" d="M 243.981117 117.642557 
L 231.68495 105.383086 
L 236.260143 129.917158 
L 248.575578 140.677483 
z
" style="fill:#175986;"/>
    <path clip-path="url(#p14b68e81c2)" d="M 227.141429 83.053103 
L 214.698939 80.78163 
L 219.20222 97.940768 
L 231.68495 105.383086 
z
" style="fill:#175885;"/>
    <path clip-path="url(#p14b68e81c2)" d="M 197.857996 76.06448 
L 185.331038 77.37946 
L 189.513577 81.430634 
L 202.153034 80.669097 
z
" style="fill:#185b8a;"/>
    <path clip-path="url(#p14b68e81c2)" d="M 265.453171 166.902698 
L 253.25902 158.18832 
L 258.046457 171.290602 
L 270.351149 176.212784 
z
" style="fill:#185c8b;"/>
    <path clip-path="url(#p14b68e81c2)" d="M 248.575578 140.677483 
L 236.260143 129.917158 
L 240.889258 150.712728 
L 253.25902 158.18832 
z
" style="fill:#175a88;"/>
    <path clip-path="url(#p14b68e81c2)" d="M 231.68495 105.383086 
L 219.20222 97.940768 
L 223.760288 121.691512 
L 236.260143 129.917158 
z
" style="fill:#175885;"/>
    <path clip-path="url(#p14b68e81c2)" d="M 185.331038 77.37946 
L 172.713121 78.703988 
L 176.781993 82.549158 
L 189.513577 81.430634 
z
" style="fill:#185b8a;"/>
    <path clip-path="url(#p14b68e81c2)" d="M 282.506386 181.629942 
L 270.351149 176.212784 
L 275.363785 183.768069 
L 287.65721 186.335983 
z
" style="fill:#185c8c;"/>
    <path clip-path="url(#p14b68e81c2)" d="M 214.698939 80.78163 
L 202.153034 80.669097 
L 206.577068 93.630002 
L 219.20222 97.940768 
z
" style="fill:#175986;"/>
    <path clip-path="url(#p14b68e81c2)" d="M 253.25902 158.18832 
L 240.889258 150.712728 
L 245.596502 166.830788 
L 258.046457 171.290602 
z
" style="fill:#185a89;"/>
    <path clip-path="url(#p14b68e81c2)" d="M 172.713121 78.703988 
L 160.003251 80.038169 
L 163.957457 83.816985 
L 176.781993 82.549158 
z
" style="fill:#185b8a;"/>
    <path clip-path="url(#p14b68e81c2)" d="M 236.260143 129.917158 
L 223.760288 121.691512 
L 228.356425 144.332196 
L 240.889258 150.712728 
z
" style="fill:#175886;"/>
    <path clip-path="url(#p14b68e81c2)" d="M 202.153034 80.669097 
L 189.513577 81.430634 
L 193.833753 91.348154 
L 206.577068 93.630002 
z
" style="fill:#175a88;"/>
    <path clip-path="url(#p14b68e81c2)" d="M 270.351149 176.212784 
L 258.046457 171.290602 
L 262.943794 181.376488 
L 275.363785 183.768069 
z
" style="fill:#185c8a;"/>
    <path clip-path="url(#p14b68e81c2)" d="M 219.20222 97.940768 
L 206.577068 93.630002 
L 211.101203 115.485717 
L 223.760288 121.691512 
z
" style="fill:#175784;"/>
    <path clip-path="url(#p14b68e81c2)" d="M 160.003251 80.038169 
L 147.200419 81.382108 
L 151.038693 85.1508 
L 163.957457 83.816985 
z
" style="fill:#185b8a;"/>
    <path clip-path="url(#p14b68e81c2)" d="M 189.513577 81.430634 
L 176.781993 82.549158 
L 180.984939 90.378775 
L 193.833753 91.348154 
z
" style="fill:#175a88;"/>
    <path clip-path="url(#p14b68e81c2)" d="M 240.889258 150.712728 
L 228.356425 144.332196 
L 233.005027 162.802701 
L 245.596502 166.830788 
z
" style="fill:#175987;"/>
    <path clip-path="url(#p14b68e81c2)" d="M 287.65721 186.335983 
L 275.363785 183.768069 
L 280.489761 190.305733 
L 292.912433 191.137406 
z
" style="fill:#185c8b;"/>
    <path clip-path="url(#p14b68e81c2)" d="M 223.760288 121.691512 
L 211.101203 115.485717 
L 215.671053 138.918512 
L 228.356425 144.332196 
z
" style="fill:#175885;"/>
    <path clip-path="url(#p14b68e81c2)" d="M 258.046457 171.290602 
L 245.596502 166.830788 
L 250.397786 179.15486 
L 262.943794 181.376488 
z
" style="fill:#185b89;"/>
    <path clip-path="url(#p14b68e81c2)" d="M 206.577068 93.630002 
L 193.833753 91.348154 
L 198.301258 110.885922 
L 211.101203 115.485717 
z
" style="fill:#175885;"/>
    <path clip-path="url(#p14b68e81c2)" d="M 176.781993 82.549158 
L 163.957457 83.816985 
L 168.036686 90.258351 
L 180.984939 90.378775 
z
" style="fill:#185a89;"/>
    <path clip-path="url(#p14b68e81c2)" d="M 275.363785 183.768069 
L 262.943794 181.376488 
L 267.953152 189.53979 
L 280.489761 190.305733 
z
" style="fill:#185b8a;"/>
    <path clip-path="url(#p14b68e81c2)" d="M 228.356425 144.332196 
L 215.671053 138.918512 
L 220.275351 159.177588 
L 233.005027 162.802701 
z
" style="fill:#175886;"/>
    <path clip-path="url(#p14b68e81c2)" d="M 211.101203 115.485717 
L 198.301258 110.885922 
L 202.84192 134.357633 
L 215.671053 138.918512 
z
" style="fill:#175784;"/>
    <path clip-path="url(#p14b68e81c2)" d="M 245.596502 166.830788 
L 233.005027 162.802701 
L 237.726221 177.097028 
L 250.397786 179.15486 
z
" style="fill:#175a88;"/>
    <path clip-path="url(#p14b68e81c2)" d="M 193.833753 91.348154 
L 180.984939 90.378775 
L 185.373631 107.561013 
L 198.301258 110.885922 
z
" style="fill:#175885;"/>
    <path clip-path="url(#p14b68e81c2)" d="M 163.957457 83.816985 
L 151.038693 85.1508 
L 154.991386 90.687848 
L 168.036686 90.258351 
z
" style="fill:#185b89;"/>
    <path clip-path="url(#p14b68e81c2)" d="M 262.943794 181.376488 
L 250.397786 179.15486 
L 255.301947 188.838464 
L 267.953152 189.53979 
z
" style="fill:#185b8a;"/>
    <path clip-path="url(#p14b68e81c2)" d="M 292.912433 191.137406 
L 280.489761 190.305733 
L 285.729008 196.270309 
L 298.27526 196.037143 
z
" style="fill:#185c8b;"/>
    <path clip-path="url(#p14b68e81c2)" d="M 215.671053 138.918512 
L 202.84192 134.357633 
L 207.4104 155.928497 
L 220.275351 159.177588 
z
" style="fill:#175885;"/>
    <path clip-path="url(#p14b68e81c2)" d="M 180.984939 90.378775 
L 168.036686 90.258351 
L 172.327571 105.247056 
L 185.373631 107.561013 
z
" style="fill:#175886;"/>
    <path clip-path="url(#p14b68e81c2)" d="M 233.005027 162.802701 
L 220.275351 159.177588 
L 224.929462 175.19706 
L 237.726221 177.097028 
z
" style="fill:#175987;"/>
    <path clip-path="url(#p14b68e81c2)" d="M 198.301258 110.885922 
L 185.373631 107.561013 
L 189.876276 130.548358 
L 202.84192 134.357633 
z
" style="fill:#175784;"/>
    <path clip-path="url(#p14b68e81c2)" d="M 250.397786 179.15486 
L 237.726221 177.097028 
L 242.535451 188.20067 
L 255.301947 188.838464 
z
" style="fill:#185a89;"/>
    <path clip-path="url(#p14b68e81c2)" d="M 280.489761 190.305733 
L 267.953152 189.53979 
L 273.075534 196.532042 
L 285.729008 196.270309 
z
" style="fill:#185b8a;"/>
    <path clip-path="url(#p14b68e81c2)" d="M 168.036686 90.258351 
L 154.991386 90.687848 
L 159.169392 103.734281 
L 172.327571 105.247056 
z
" style="fill:#175986;"/>
    <path clip-path="url(#p14b68e81c2)" d="M 202.84192 134.357633 
L 189.876276 130.548358 
L 194.412735 153.030194 
L 207.4104 155.928497 
z
" style="fill:#175784;"/>
    <path clip-path="url(#p14b68e81c2)" d="M 220.275351 159.177588 
L 207.4104 155.928497 
L 212.007787 173.449243 
L 224.929462 175.19706 
z
" style="fill:#175986;"/>
    <path clip-path="url(#p14b68e81c2)" d="M 185.373631 107.561013 
L 172.327571 105.247056 
L 176.780055 127.401076 
L 189.876276 130.548358 
z
" style="fill:#175784;"/>
    <path clip-path="url(#p14b68e81c2)" d="M 267.953152 189.53979 
L 255.301947 188.838464 
L 260.313791 196.822251 
L 273.075534 196.532042 
z
" style="fill:#185b8a;"/>
    <path clip-path="url(#p14b68e81c2)" d="M 237.726221 177.097028 
L 224.929462 175.19706 
L 229.652946 187.625349 
L 242.535451 188.20067 
z
" style="fill:#175a88;"/>
    <path clip-path="url(#p14b68e81c2)" d="M 298.27526 196.037143 
L 285.729008 196.270309 
L 291.082493 201.931051 
L 303.749032 201.038243 
z
" style="fill:#185c8a;"/>
    <path clip-path="url(#p14b68e81c2)" d="M 189.876276 130.548358 
L 176.780055 127.401076 
L 181.284572 150.459074 
L 194.412735 153.030194 
z
" style="fill:#175784;"/>
    <path clip-path="url(#p14b68e81c2)" d="M 207.4104 155.928497 
L 194.412735 153.030194 
L 198.961387 171.848071 
L 212.007787 173.449243 
z
" style="fill:#175886;"/>
    <path clip-path="url(#p14b68e81c2)" d="M 172.327571 105.247056 
L 159.169392 103.734281 
L 163.558049 124.836587 
L 176.780055 127.401076 
z
" style="fill:#175784;"/>
    <path clip-path="url(#p14b68e81c2)" d="M 255.301947 188.838464 
L 242.535451 188.20067 
L 247.442712 197.140852 
L 260.313791 196.822251 
z
" style="fill:#185b89;"/>
    <path clip-path="url(#p14b68e81c2)" d="M 224.929462 175.19706 
L 212.007787 173.449243 
L 216.653678 187.11147 
L 229.652946 187.625349 
z
" style="fill:#175a88;"/>
    <path clip-path="url(#p14b68e81c2)" d="M 285.729008 196.270309 
L 273.075534 196.532042 
L 278.311978 202.840821 
L 291.082493 201.931051 
z
" style="fill:#185b8a;"/>
    <path clip-path="url(#p14b68e81c2)" d="M 176.780055 127.401076 
L 163.558049 124.836587 
L 168.027815 148.193078 
L 181.284572 150.459074 
z
" style="fill:#175783;"/>
    <path clip-path="url(#p14b68e81c2)" d="M 194.412735 153.030194 
L 181.284572 150.459074 
L 185.790367 170.388249 
L 198.961387 171.848071 
z
" style="fill:#175885;"/>
    <path clip-path="url(#p14b68e81c2)" d="M 242.535451 188.20067 
L 229.652946 187.625349 
L 234.461208 197.487765 
L 247.442712 197.140852 
z
" style="fill:#185a89;"/>
    <path clip-path="url(#p14b68e81c2)" d="M 212.007787 173.449243 
L 198.961387 171.848071 
L 203.536867 186.658025 
L 216.653678 187.11147 
z
" style="fill:#175987;"/>
    <path clip-path="url(#p14b68e81c2)" d="M 273.075534 196.532042 
L 260.313791 196.822251 
L 265.43632 203.767658 
L 278.311978 202.840821 
z
" style="fill:#185b8a;"/>
    <path clip-path="url(#p14b68e81c2)" d="M 181.284572 150.459074 
L 168.027815 148.193078 
L 172.494753 169.06468 
L 185.790367 170.388249 
z
" style="fill:#175884;"/>
    <path clip-path="url(#p14b68e81c2)" d="M 229.652946 187.625349 
L 216.653678 187.11147 
L 221.368172 197.862915 
L 234.461208 197.487765 
z
" style="fill:#185a88;"/>
    <path clip-path="url(#p14b68e81c2)" d="M 260.313791 196.822251 
L 247.442712 197.140852 
L 252.454337 204.711668 
L 265.43632 203.767658 
z
" style="fill:#185b8a;"/>
    <path clip-path="url(#p14b68e81c2)" d="M 198.961387 171.848071 
L 185.790367 170.388249 
L 190.301703 186.264036 
L 203.536867 186.658025 
z
" style="fill:#175986;"/>
    <path clip-path="url(#p14b68e81c2)" d="M 216.653678 187.11147 
L 203.536867 186.658025 
L 208.162473 198.266233 
L 221.368172 197.862915 
z
" style="fill:#175a88;"/>
    <path clip-path="url(#p14b68e81c2)" d="M 247.442712 197.140852 
L 234.461208 197.487765 
L 239.364828 205.672958 
L 252.454337 204.711668 
z
" style="fill:#185b89;"/>
    <path clip-path="url(#p14b68e81c2)" d="M 185.790367 170.388249 
L 172.494753 169.06468 
L 176.947343 185.928547 
L 190.301703 186.264036 
z
" style="fill:#175986;"/>
    <path clip-path="url(#p14b68e81c2)" d="M 203.536867 186.658025 
L 190.301703 186.264036 
L 194.842962 198.697653 
L 208.162473 198.266233 
z
" style="fill:#175a88;"/>
    <path clip-path="url(#p14b68e81c2)" d="M 234.461208 197.487765 
L 221.368172 197.862915 
L 226.166569 206.651639 
L 239.364828 205.672958 
z
" style="fill:#185b89;"/>
    <path clip-path="url(#p14b68e81c2)" d="M 190.301703 186.264036 
L 176.947343 185.928547 
L 181.408467 199.157114 
L 194.842962 198.697653 
z
" style="fill:#175987;"/>
    <path clip-path="url(#p14b68e81c2)" d="M 221.368172 197.862915 
L 208.162473 198.266233 
L 212.85832 207.647826 
L 226.166569 206.651639 
z
" style="fill:#185a89;"/>
    <path clip-path="url(#p14b68e81c2)" d="M 208.162473 198.266233 
L 194.842962 198.697653 
L 199.438817 208.661634 
L 212.85832 207.647826 
z
" style="fill:#185a89;"/>
    <path clip-path="url(#p14b68e81c2)" d="M 194.842962 198.697653 
L 181.408467 199.157114 
L 185.906777 209.693182 
L 199.438817 208.661634 
z
" style="fill:#175a88;"/>
   </g>
   <g id="Poly3DCollection_2">
    <path clip-path="url(#p14b68e81c2)" d="M 262.88723 163.70494 
L 251.479982 111.381343 
L 256.013309 137.269017 
L 267.650093 168.056521 
z
" style="fill:#d1680b;"/>
    <path clip-path="url(#p14b68e81c2)" d="M 259.162217 69.629252 
L 247.07563 70.898005 
L 251.479982 111.381343 
L 262.88723 163.70494 
z
" style="fill:#ab5509;"/>
    <path clip-path="url(#p14b68e81c2)" d="M 267.650093 168.056521 
L 256.013309 137.269017 
L 260.67256 154.609051 
L 272.50573 172.492864 
z
" style="fill:#cd660b;"/>
    <path clip-path="url(#p14b68e81c2)" d="M 247.07563 70.898005 
L 234.902847 72.175807 
L 239.442773 90.661707 
L 251.479982 111.381343 
z
" style="fill:#ba5c0a;"/>
    <path clip-path="url(#p14b68e81c2)" d="M 251.479982 111.381343 
L 239.442773 90.661707 
L 244.045602 106.966792 
L 256.013309 137.269017 
z
" style="fill:#c8640b;"/>
    <path clip-path="url(#p14b68e81c2)" d="M 272.50573 172.492864 
L 260.67256 154.609051 
L 265.453171 166.902698 
L 277.456879 177.016471 
z
" style="fill:#ca650b;"/>
    <path clip-path="url(#p14b68e81c2)" d="M 234.902847 72.175807 
L 222.642941 73.462754 
L 227.141429 83.053103 
L 239.442773 90.661707 
z
" style="fill:#c05f0b;"/>
    <path clip-path="url(#p14b68e81c2)" d="M 256.013309 137.269017 
L 244.045602 106.966792 
L 248.719765 121.468685 
L 260.67256 154.609051 
z
" style="fill:#cf670b;"/>
    <path clip-path="url(#p14b68e81c2)" d="M 222.642941 73.462754 
L 210.294975 74.758945 
L 214.698939 80.78163 
L 227.141429 83.053103 
z
" style="fill:#c2610b;"/>
    <path clip-path="url(#p14b68e81c2)" d="M 239.442773 90.661707 
L 227.141429 83.053103 
L 231.714139 92.414087 
L 244.045602 106.966792 
z
" style="fill:#c5620b;"/>
    <path clip-path="url(#p14b68e81c2)" d="M 277.456879 177.016471 
L 265.453171 166.902698 
L 270.351149 176.212784 
L 282.506386 181.629942 
z
" style="fill:#c8640b;"/>
    <path clip-path="url(#p14b68e81c2)" d="M 210.294975 74.758945 
L 197.857996 76.06448 
L 202.153034 80.669097 
L 214.698939 80.78163 
z
" style="fill:#c3610b;"/>
    <path clip-path="url(#p14b68e81c2)" d="M 260.67256 154.609051 
L 248.719765 121.468685 
L 253.472533 134.479412 
L 265.453171 166.902698 
z
" style="fill:#d1680b;"/>
    <path clip-path="url(#p14b68e81c2)" d="M 197.857996 76.06448 
L 185.331038 77.37946 
L 189.513577 81.430634 
L 202.153034 80.669097 
z
" style="fill:#c3610b;"/>
    <path clip-path="url(#p14b68e81c2)" d="M 227.141429 83.053103 
L 214.698939 80.78163 
L 219.184815 86.854283 
L 231.714139 92.414087 
z
" style="fill:#c4620b;"/>
    <path clip-path="url(#p14b68e81c2)" d="M 244.045602 106.966792 
L 231.714139 92.414087 
L 236.364465 101.568131 
L 248.719765 121.468685 
z
" style="fill:#ca640b;"/>
    <path clip-path="url(#p14b68e81c2)" d="M 185.331038 77.37946 
L 172.713121 78.703988 
L 176.781993 82.549158 
L 189.513577 81.430634 
z
" style="fill:#c3610b;"/>
    <path clip-path="url(#p14b68e81c2)" d="M 282.506386 181.629942 
L 270.351149 176.212784 
L 275.363785 183.768069 
L 287.65721 186.335983 
z
" style="fill:#c6630b;"/>
    <path clip-path="url(#p14b68e81c2)" d="M 265.453171 166.902698 
L 253.472533 134.479412 
L 258.310286 146.257903 
L 270.351149 176.212784 
z
" style="fill:#d2680c;"/>
    <path clip-path="url(#p14b68e81c2)" d="M 214.698939 80.78163 
L 202.153034 80.669097 
L 206.532198 85.353961 
L 219.184815 86.854283 
z
" style="fill:#c4620b;"/>
    <path clip-path="url(#p14b68e81c2)" d="M 172.713121 78.703988 
L 160.003251 80.038169 
L 163.957457 83.816985 
L 176.781993 82.549158 
z
" style="fill:#c3610b;"/>
    <path clip-path="url(#p14b68e81c2)" d="M 248.719765 121.468685 
L 236.364465 101.568131 
L 241.095837 110.536396 
L 253.472533 134.479412 
z
" style="fill:#cd660b;"/>
    <path clip-path="url(#p14b68e81c2)" d="M 231.714139 92.414087 
L 219.184815 86.854283 
L 223.755178 92.980268 
L 236.364465 101.568131 
z
" style="fill:#c6630b;"/>
    <path clip-path="url(#p14b68e81c2)" d="M 202.153034 80.669097 
L 189.513577 81.430634 
L 193.779906 85.561375 
L 206.532198 85.353961 
z
" style="fill:#c4610b;"/>
    <path clip-path="url(#p14b68e81c2)" d="M 160.003251 80.038169 
L 147.200419 81.382108 
L 151.038693 85.1508 
L 163.957457 83.816985 
z
" style="fill:#c3610b;"/>
    <path clip-path="url(#p14b68e81c2)" d="M 270.351149 176.212784 
L 258.310286 146.257903 
L 263.238723 157.019839 
L 275.363785 183.768069 
z
" style="fill:#d1680b;"/>
    <path clip-path="url(#p14b68e81c2)" d="M 189.513577 81.430634 
L 176.781993 82.549158 
L 180.933288 86.471965 
L 193.779906 85.561375 
z
" style="fill:#c4610b;"/>
    <path clip-path="url(#p14b68e81c2)" d="M 287.65721 186.335983 
L 275.363785 183.768069 
L 280.489761 190.305733 
L 292.912433 191.137406 
z
" style="fill:#c5620b;"/>
    <path clip-path="url(#p14b68e81c2)" d="M 219.184815 86.854283 
L 206.532198 85.353961 
L 210.998025 90.121602 
L 223.755178 92.980268 
z
" style="fill:#c5620b;"/>
    <path clip-path="url(#p14b68e81c2)" d="M 176.781993 82.549158 
L 163.957457 83.816985 
L 167.992296 87.672818 
L 180.933288 86.471965 
z
" style="fill:#c4610b;"/>
    <path clip-path="url(#p14b68e81c2)" d="M 253.472533 134.479412 
L 241.095837 110.536396 
L 245.911727 119.338892 
L 258.310286 146.257903 
z
" style="fill:#cf670b;"/>
    <path clip-path="url(#p14b68e81c2)" d="M 236.364465 101.568131 
L 223.755178 92.980268 
L 228.412697 99.163029 
L 241.095837 110.536396 
z
" style="fill:#c8640b;"/>
    <path clip-path="url(#p14b68e81c2)" d="M 206.532198 85.353961 
L 193.779906 85.561375 
L 198.132575 89.77411 
L 210.998025 90.121602 
z
" style="fill:#c4620b;"/>
    <path clip-path="url(#p14b68e81c2)" d="M 163.957457 83.816985 
L 151.038693 85.1508 
L 154.955619 88.996714 
L 167.992296 87.672818 
z
" style="fill:#c4610b;"/>
    <path clip-path="url(#p14b68e81c2)" d="M 275.363785 183.768069 
L 263.238723 157.019839 
L 268.263036 166.945495 
L 280.489761 190.305733 
z
" style="fill:#d0680b;"/>
    <path clip-path="url(#p14b68e81c2)" d="M 292.912433 191.137406 
L 280.489761 190.305733 
L 285.729008 196.270309 
L 298.27526 196.037143 
z
" style="fill:#c4620b;"/>
    <path clip-path="url(#p14b68e81c2)" d="M 193.779906 85.561375 
L 180.933288 86.471965 
L 185.169537 90.474793 
L 198.132575 89.77411 
z
" style="fill:#c4610b;"/>
    <path clip-path="url(#p14b68e81c2)" d="M 223.755178 92.980268 
L 210.998025 90.121602 
L 215.55316 94.974651 
L 228.412697 99.163029 
z
" style="fill:#c6620b;"/>
    <path clip-path="url(#p14b68e81c2)" d="M 258.310286 146.257903 
L 245.911727 119.338892 
L 250.815662 127.994573 
L 263.238723 157.019839 
z
" style="fill:#d1680b;"/>
    <path clip-path="url(#p14b68e81c2)" d="M 180.933288 86.471965 
L 167.992296 87.672818 
L 172.110261 91.608047 
L 185.169537 90.474793 
z
" style="fill:#c4610b;"/>
    <path clip-path="url(#p14b68e81c2)" d="M 241.095837 110.536396 
L 228.412697 99.163029 
L 233.160147 105.406099 
L 245.911727 119.338892 
z
" style="fill:#ca640b;"/>
    <path clip-path="url(#p14b68e81c2)" d="M 210.998025 90.121602 
L 198.132575 89.77411 
L 202.574239 94.071369 
L 215.55316 94.974651 
z
" style="fill:#c4620b;"/>
    <path clip-path="url(#p14b68e81c2)" d="M 167.992296 87.672818 
L 154.955619 88.996714 
L 158.953642 92.922246 
L 172.110261 91.608047 
z
" style="fill:#c4610b;"/>
    <path clip-path="url(#p14b68e81c2)" d="M 280.489761 190.305733 
L 268.263036 166.945495 
L 273.388042 176.186025 
L 285.729008 196.270309 
z
" style="fill:#cf670b;"/>
    <path clip-path="url(#p14b68e81c2)" d="M 298.27526 196.037143 
L 285.729008 196.270309 
L 291.082493 201.931051 
L 303.749032 201.038243 
z
" style="fill:#c4620b;"/>
    <path clip-path="url(#p14b68e81c2)" d="M 198.132575 89.77411 
L 185.169537 90.474793 
L 189.493376 94.560126 
L 202.574239 94.071369 
z
" style="fill:#c4620b;"/>
    <path clip-path="url(#p14b68e81c2)" d="M 228.412697 99.163029 
L 215.55316 94.974651 
L 220.200351 99.915844 
L 233.160147 105.406099 
z
" style="fill:#c6630b;"/>
    <path clip-path="url(#p14b68e81c2)" d="M 263.238723 157.019839 
L 250.815662 127.994573 
L 255.811235 136.521435 
L 268.263036 166.945495 
z
" style="fill:#d2680c;"/>
    <path clip-path="url(#p14b68e81c2)" d="M 245.911727 119.338892 
L 233.160147 105.406099 
L 238.00041 111.7131 
L 250.815662 127.994573 
z
" style="fill:#cb650b;"/>
    <path clip-path="url(#p14b68e81c2)" d="M 185.169537 90.474793 
L 172.110261 91.608047 
L 176.313947 95.625153 
L 189.493376 94.560126 
z
" style="fill:#c4610b;"/>
    <path clip-path="url(#p14b68e81c2)" d="M 215.55316 94.974651 
L 202.574239 94.071369 
L 207.107663 98.455783 
L 220.200351 99.915844 
z
" style="fill:#c5620b;"/>
    <path clip-path="url(#p14b68e81c2)" d="M 285.729008 196.270309 
L 273.388042 176.186025 
L 278.618294 184.868542 
L 291.082493 201.931051 
z
" style="fill:#ce660b;"/>
    <path clip-path="url(#p14b68e81c2)" d="M 172.110261 91.608047 
L 158.953642 92.922246 
L 163.035305 96.929896 
L 176.313947 95.625153 
z
" style="fill:#c4610b;"/>
    <path clip-path="url(#p14b68e81c2)" d="M 268.263036 166.945495 
L 255.811235 136.521435 
L 260.902112 144.936597 
L 273.388042 176.186025 
z
" style="fill:#d3690c;"/>
    <path clip-path="url(#p14b68e81c2)" d="M 202.574239 94.071369 
L 189.493376 94.560126 
L 193.907552 98.73055 
L 207.107663 98.455783 
z
" style="fill:#c4620b;"/>
    <path clip-path="url(#p14b68e81c2)" d="M 233.160147 105.406099 
L 220.200351 99.915844 
L 224.942461 104.948031 
L 238.00041 111.7131 
z
" style="fill:#c7630b;"/>
    <path clip-path="url(#p14b68e81c2)" d="M 250.815662 127.994573 
L 238.00041 111.7131 
L 242.936486 118.087756 
L 255.811235 136.521435 
z
" style="fill:#cc660b;"/>
    <path clip-path="url(#p14b68e81c2)" d="M 189.493376 94.560126 
L 176.313947 95.625153 
L 180.60606 99.726718 
L 193.907552 98.73055 
z
" style="fill:#c4610b;"/>
    <path clip-path="url(#p14b68e81c2)" d="M 220.200351 99.915844 
L 207.107663 98.455783 
L 211.735727 102.930095 
L 224.942461 104.948031 
z
" style="fill:#c5620b;"/>
    <path clip-path="url(#p14b68e81c2)" d="M 176.313947 95.625153 
L 163.035305 96.929896 
L 167.203262 101.022268 
L 180.60606 99.726718 
z
" style="fill:#c4610b;"/>
    <path clip-path="url(#p14b68e81c2)" d="M 273.388042 176.186025 
L 260.902112 144.936597 
L 266.092045 153.25638 
L 278.618294 184.868542 
z
" style="fill:#d3690c;"/>
    <path clip-path="url(#p14b68e81c2)" d="M 207.107663 98.455783 
L 193.907552 98.73055 
L 198.414926 102.988763 
L 211.735727 102.930095 
z
" style="fill:#c4620b;"/>
    <path clip-path="url(#p14b68e81c2)" d="M 238.00041 111.7131 
L 224.942461 104.948031 
L 229.782473 110.074177 
L 242.936486 118.087756 
z
" style="fill:#c8640b;"/>
    <path clip-path="url(#p14b68e81c2)" d="M 255.811235 136.521435 
L 242.936486 118.087756 
L 247.971494 124.533893 
L 260.902112 144.936597 
z
" style="fill:#ce660b;"/>
    <path clip-path="url(#p14b68e81c2)" d="M 193.907552 98.73055 
L 180.60606 99.726718 
L 184.989419 103.915436 
L 198.414926 102.988763 
z
" style="fill:#c4610b;"/>
    <path clip-path="url(#p14b68e81c2)" d="M 224.942461 104.948031 
L 211.735727 102.930095 
L 216.461434 107.497164 
L 229.782473 110.074177 
z
" style="fill:#c5620b;"/>
    <path clip-path="url(#p14b68e81c2)" d="M 180.60606 99.726718 
L 167.203262 101.022268 
L 171.460277 105.202076 
L 184.989419 103.915436 
z
" style="fill:#c4610b;"/>
    <path clip-path="url(#p14b68e81c2)" d="M 242.936486 118.087756 
L 229.782473 110.074177 
L 234.723495 115.297374 
L 247.971494 124.533893 
z
" style="fill:#c9640b;"/>
    <path clip-path="url(#p14b68e81c2)" d="M 211.735727 102.930095 
L 198.414926 102.988763 
L 203.018482 107.337576 
L 216.461434 107.497164 
z
" style="fill:#c4620b;"/>
    <path clip-path="url(#p14b68e81c2)" d="M 260.902112 144.936597 
L 247.971494 124.533893 
L 253.10868 131.055453 
L 266.092045 153.25638 
z
" style="fill:#cf670b;"/>
    <path clip-path="url(#p14b68e81c2)" d="M 198.414926 102.988763 
L 184.989419 103.915436 
L 189.466966 108.194117 
L 203.018482 107.337576 
z
" style="fill:#c4620b;"/>
    <path clip-path="url(#p14b68e81c2)" d="M 229.782473 110.074177 
L 216.461434 107.497164 
L 221.287914 112.159971 
L 234.723495 115.297374 
z
" style="fill:#c6620b;"/>
    <path clip-path="url(#p14b68e81c2)" d="M 184.989419 103.915436 
L 171.460277 105.202076 
L 175.809237 109.472155 
L 189.466966 108.194117 
z
" style="fill:#c4610b;"/>
    <path clip-path="url(#p14b68e81c2)" d="M 247.971494 124.533893 
L 234.723495 115.297374 
L 239.768767 120.62084 
L 253.10868 131.055453 
z
" style="fill:#c9640b;"/>
    <path clip-path="url(#p14b68e81c2)" d="M 216.461434 107.497164 
L 203.018482 107.337576 
L 207.721335 111.779921 
L 221.287914 112.159971 
z
" style="fill:#c4620b;"/>
    <path clip-path="url(#p14b68e81c2)" d="M 203.018482 107.337576 
L 189.466966 108.194117 
L 194.04177 112.565692 
L 207.721335 111.779921 
z
" style="fill:#c4620b;"/>
    <path clip-path="url(#p14b68e81c2)" d="M 234.723495 115.297374 
L 221.287914 112.159971 
L 226.218434 116.921625 
L 239.768767 120.62084 
z
" style="fill:#c6630b;"/>
    <path clip-path="url(#p14b68e81c2)" d="M 189.466966 108.194117 
L 175.809237 109.472155 
L 180.253152 113.83546 
L 194.04177 112.565692 
z
" style="fill:#c4610b;"/>
    <path clip-path="url(#p14b68e81c2)" d="M 221.287914 112.159971 
L 207.721335 111.779921 
L 212.526732 116.31886 
L 226.218434 116.921625 
z
" style="fill:#c5620b;"/>
    <path clip-path="url(#p14b68e81c2)" d="M 207.721335 111.779921 
L 194.04177 112.565692 
L 198.717033 117.03322 
L 212.526732 116.31886 
z
" style="fill:#c4620b;"/>
    <path clip-path="url(#p14b68e81c2)" d="M 194.04177 112.565692 
L 180.253152 113.83546 
L 184.795167 118.295078 
L 198.717033 117.03322 
z
" style="fill:#c4610b;"/>
   </g>
  </g>
 </g>
 <defs>
  <clipPath id="p14b68e81c2">
   <rect height="217.44" width="217.44" x="112.68" y="34.56"/>
  </clipPath>
 </defs>
</svg>
