<?xml version="1.0" encoding="utf-8" standalone="no"?>
<!DOCTYPE svg PUBLIC "-//W3C//DTD SVG 1.1//EN"
  "http://www.w3.org/Graphics/SVG/1.1/DTD/svg11.dtd">
<!-- Created with matplotlib (https://matplotlib.org/) -->
<svg height="288pt" version="1.1" viewBox="0 0 432 288" width="432pt" xmlns="http://www.w3.org/2000/svg" xmlns:xlink="http://www.w3.org/1999/xlink">
 <defs>
  <style type="text/css">
*{stroke-linecap:butt;stroke-linejoin:round;}
  </style>
 </defs>
 <g id="figure_1">
  <g id="patch_1">
   <path d="M 0 288 
L 432 288 
L 432 0 
L 0 0 
z
" style="fill:#ffffff;"/>
  </g>
  <g id="patch_2">
   <path d="M 54 252 
L 388.8 252 
L 388.8 34.56 
L 54 34.56 
z
" style="fill:#ffffff;"/>
  </g>
  <g id="pane3d_1">
   <g id="patch_3">
    <path d="M 278.059816 168.743047 
L 348.132218 211.189983 
L 352.701168 93.107705 
L 279.837409 59.608013 
" style="fill:#f2f2f2;opacity:0.5;stroke:#f2f2f2;stroke-linejoin:miter;"/>
   </g>
  </g>
  <g id="pane3d_2">
   <g id="patch_4">
    <path d="M 278.059816 168.743047 
L 110.544587 183.329258 
L 106.480427 71.09565 
L 279.837409 59.608013 
" style="fill:#e6e6e6;opacity:0.5;stroke:#e6e6e6;stroke-linejoin:miter;"/>
   </g>
  </g>
  <g id="pane3d_3">
   <g id="patch_5">
    <path d="M 278.059816 168.743047 
L 110.544587 183.329258 
L 166.940302 228.668843 
L 348.132218 211.189983 
" style="fill:#ececec;opacity:0.5;stroke:#ececec;stroke-linejoin:miter;"/>
   </g>
  </g>
  <g id="axis3d_1">
   <g id="line2d_1">
    <path d="M 348.132218 211.189983 
L 166.940302 228.668843 
" style="fill:none;stroke:#000000;stroke-linecap:square;stroke-width:0.8;"/>
   </g>
   <g id="text_1">
    <!-- m -->
    <defs>
     <path d="M 52 44.1875 
Q 55.375 50.25 60.0625 53.125 
Q 64.75 56 71.09375 56 
Q 79.640625 56 84.28125 50.015625 
Q 88.921875 44.046875 88.921875 33.015625 
L 88.921875 0 
L 79.890625 0 
L 79.890625 32.71875 
Q 79.890625 40.578125 77.09375 44.375 
Q 74.3125 48.1875 68.609375 48.1875 
Q 61.625 48.1875 57.5625 43.546875 
Q 53.515625 38.921875 53.515625 30.90625 
L 53.515625 0 
L 44.484375 0 
L 44.484375 32.71875 
Q 44.484375 40.625 41.703125 44.40625 
Q 38.921875 48.1875 33.109375 48.1875 
Q 26.21875 48.1875 22.15625 43.53125 
Q 18.109375 38.875 18.109375 30.90625 
L 18.109375 0 
L 9.078125 0 
L 9.078125 54.6875 
L 18.109375 54.6875 
L 18.109375 46.1875 
Q 21.1875 51.21875 25.484375 53.609375 
Q 29.78125 56 35.6875 56 
Q 41.65625 56 45.828125 52.96875 
Q 50 49.953125 52 44.1875 
z
" id="DejaVuSans-109"/>
    </defs>
    <g transform="translate(266.21489 251.246766)scale(0.1 -0.1)">
     <use xlink:href="#DejaVuSans-109"/>
    </g>
   </g>
   <g id="Line3DCollection_1">
    <path d="M 336.968251 212.266926 
L 267.70963 169.644278 
L 269.137238 60.317068 
" style="fill:none;stroke:#b0b0b0;stroke-width:0.8;"/>
    <path d="M 302.645332 215.577921 
L 235.91245 172.412984 
L 236.255835 62.49598 
" style="fill:none;stroke:#b0b0b0;stroke-width:0.8;"/>
    <path d="M 267.864551 218.933084 
L 203.72772 175.215436 
L 202.959803 64.702368 
" style="fill:none;stroke:#b0b0b0;stroke-width:0.8;"/>
    <path d="M 232.616685 222.333305 
L 171.148312 178.052253 
L 169.24125 66.936754 
" style="fill:none;stroke:#b0b0b0;stroke-width:0.8;"/>
    <path d="M 196.892261 225.779497 
L 138.166921 180.924073 
L 135.092082 69.199676 
" style="fill:none;stroke:#b0b0b0;stroke-width:0.8;"/>
   </g>
   <g id="xtick_1">
    <g id="line2d_2">
     <path d="M 336.362968 211.894427 
L 338.181529 213.013593 
" style="fill:none;stroke:#000000;stroke-linecap:square;stroke-width:0.8;"/>
    </g>
    <g id="text_2">
     <!-- 0 -->
     <defs>
      <path d="M 31.78125 66.40625 
Q 24.171875 66.40625 20.328125 58.90625 
Q 16.5 51.421875 16.5 36.375 
Q 16.5 21.390625 20.328125 13.890625 
Q 24.171875 6.390625 31.78125 6.390625 
Q 39.453125 6.390625 43.28125 13.890625 
Q 47.125 21.390625 47.125 36.375 
Q 47.125 51.421875 43.28125 58.90625 
Q 39.453125 66.40625 31.78125 66.40625 
z
M 31.78125 74.21875 
Q 44.046875 74.21875 50.515625 64.515625 
Q 56.984375 54.828125 56.984375 36.375 
Q 56.984375 17.96875 50.515625 8.265625 
Q 44.046875 -1.421875 31.78125 -1.421875 
Q 19.53125 -1.421875 13.0625 8.265625 
Q 6.59375 17.96875 6.59375 36.375 
Q 6.59375 54.828125 13.0625 64.515625 
Q 19.53125 74.21875 31.78125 74.21875 
z
" id="DejaVuSans-48"/>
     </defs>
     <g transform="translate(339.547316 232.769183)scale(0.1 -0.1)">
      <use xlink:href="#DejaVuSans-48"/>
     </g>
    </g>
   </g>
   <g id="xtick_2">
    <g id="line2d_3">
     <path d="M 302.061796 215.200472 
L 303.815036 216.334523 
" style="fill:none;stroke:#000000;stroke-linecap:square;stroke-width:0.8;"/>
    </g>
    <g id="text_3">
     <!-- 2 -->
     <defs>
      <path d="M 19.1875 8.296875 
L 53.609375 8.296875 
L 53.609375 0 
L 7.328125 0 
L 7.328125 8.296875 
Q 12.9375 14.109375 22.625 23.890625 
Q 32.328125 33.6875 34.8125 36.53125 
Q 39.546875 41.84375 41.421875 45.53125 
Q 43.3125 49.21875 43.3125 52.78125 
Q 43.3125 58.59375 39.234375 62.25 
Q 35.15625 65.921875 28.609375 65.921875 
Q 23.96875 65.921875 18.8125 64.3125 
Q 13.671875 62.703125 7.8125 59.421875 
L 7.8125 69.390625 
Q 13.765625 71.78125 18.9375 73 
Q 24.125 74.21875 28.421875 74.21875 
Q 39.75 74.21875 46.484375 68.546875 
Q 53.21875 62.890625 53.21875 53.421875 
Q 53.21875 48.921875 51.53125 44.890625 
Q 49.859375 40.875 45.40625 35.40625 
Q 44.1875 33.984375 37.640625 27.21875 
Q 31.109375 20.453125 19.1875 8.296875 
z
" id="DejaVuSans-50"/>
     </defs>
     <g transform="translate(305.104172 236.181366)scale(0.1 -0.1)">
      <use xlink:href="#DejaVuSans-50"/>
     </g>
    </g>
   </g>
   <g id="xtick_3">
    <g id="line2d_4">
     <path d="M 267.303398 218.550585 
L 268.989406 219.69982 
" style="fill:none;stroke:#000000;stroke-linecap:square;stroke-width:0.8;"/>
    </g>
    <g id="text_4">
     <!-- 4 -->
     <defs>
      <path d="M 37.796875 64.3125 
L 12.890625 25.390625 
L 37.796875 25.390625 
z
M 35.203125 72.90625 
L 47.609375 72.90625 
L 47.609375 25.390625 
L 58.015625 25.390625 
L 58.015625 17.1875 
L 47.609375 17.1875 
L 47.609375 0 
L 37.796875 0 
L 37.796875 17.1875 
L 4.890625 17.1875 
L 4.890625 26.703125 
z
" id="DejaVuSans-52"/>
     </defs>
     <g transform="translate(270.199425 239.63928)scale(0.1 -0.1)">
      <use xlink:href="#DejaVuSans-52"/>
     </g>
    </g>
   </g>
   <g id="xtick_4">
    <g id="line2d_5">
     <path d="M 232.07857 221.945654 
L 233.695375 223.11038 
" style="fill:none;stroke:#000000;stroke-linecap:square;stroke-width:0.8;"/>
    </g>
    <g id="text_5">
     <!-- 6 -->
     <defs>
      <path d="M 33.015625 40.375 
Q 26.375 40.375 22.484375 35.828125 
Q 18.609375 31.296875 18.609375 23.390625 
Q 18.609375 15.53125 22.484375 10.953125 
Q 26.375 6.390625 33.015625 6.390625 
Q 39.65625 6.390625 43.53125 10.953125 
Q 47.40625 15.53125 47.40625 23.390625 
Q 47.40625 31.296875 43.53125 35.828125 
Q 39.65625 40.375 33.015625 40.375 
z
M 52.59375 71.296875 
L 52.59375 62.3125 
Q 48.875 64.0625 45.09375 64.984375 
Q 41.3125 65.921875 37.59375 65.921875 
Q 27.828125 65.921875 22.671875 59.328125 
Q 17.53125 52.734375 16.796875 39.40625 
Q 19.671875 43.65625 24.015625 45.921875 
Q 28.375 48.1875 33.59375 48.1875 
Q 44.578125 48.1875 50.953125 41.515625 
Q 57.328125 34.859375 57.328125 23.390625 
Q 57.328125 12.15625 50.6875 5.359375 
Q 44.046875 -1.421875 33.015625 -1.421875 
Q 20.359375 -1.421875 13.671875 8.265625 
Q 6.984375 17.96875 6.984375 36.375 
Q 6.984375 53.65625 15.1875 63.9375 
Q 23.390625 74.21875 37.203125 74.21875 
Q 40.921875 74.21875 44.703125 73.484375 
Q 48.484375 72.75 52.59375 71.296875 
z
" id="DejaVuSans-54"/>
     </defs>
     <g transform="translate(234.823733 243.143848)scale(0.1 -0.1)">
      <use xlink:href="#DejaVuSans-54"/>
     </g>
    </g>
   </g>
   <g id="xtick_5">
    <g id="line2d_6">
     <path d="M 196.37786 225.386589 
L 197.92343 226.567123 
" style="fill:none;stroke:#000000;stroke-linecap:square;stroke-width:0.8;"/>
    </g>
    <g id="text_6">
     <!-- 8 -->
     <defs>
      <path d="M 31.78125 34.625 
Q 24.75 34.625 20.71875 30.859375 
Q 16.703125 27.09375 16.703125 20.515625 
Q 16.703125 13.921875 20.71875 10.15625 
Q 24.75 6.390625 31.78125 6.390625 
Q 38.8125 6.390625 42.859375 10.171875 
Q 46.921875 13.96875 46.921875 20.515625 
Q 46.921875 27.09375 42.890625 30.859375 
Q 38.875 34.625 31.78125 34.625 
z
M 21.921875 38.8125 
Q 15.578125 40.375 12.03125 44.71875 
Q 8.5 49.078125 8.5 55.328125 
Q 8.5 64.0625 14.71875 69.140625 
Q 20.953125 74.21875 31.78125 74.21875 
Q 42.671875 74.21875 48.875 69.140625 
Q 55.078125 64.0625 55.078125 55.328125 
Q 55.078125 49.078125 51.53125 44.71875 
Q 48 40.375 41.703125 38.8125 
Q 48.828125 37.15625 52.796875 32.3125 
Q 56.78125 27.484375 56.78125 20.515625 
Q 56.78125 9.90625 50.3125 4.234375 
Q 43.84375 -1.421875 31.78125 -1.421875 
Q 19.734375 -1.421875 13.25 4.234375 
Q 6.78125 9.90625 6.78125 20.515625 
Q 6.78125 27.484375 10.78125 32.3125 
Q 14.796875 37.15625 21.921875 38.8125 
z
M 18.3125 54.390625 
Q 18.3125 48.734375 21.84375 45.5625 
Q 25.390625 42.390625 31.78125 42.390625 
Q 38.140625 42.390625 41.71875 45.5625 
Q 45.3125 48.734375 45.3125 54.390625 
Q 45.3125 60.0625 41.71875 63.234375 
Q 38.140625 66.40625 31.78125 66.40625 
Q 25.390625 66.40625 21.84375 63.234375 
Q 18.3125 60.0625 18.3125 54.390625 
z
" id="DejaVuSans-56"/>
     </defs>
     <g transform="translate(198.9675 246.696022)scale(0.1 -0.1)">
      <use xlink:href="#DejaVuSans-56"/>
     </g>
    </g>
   </g>
  </g>
  <g id="axis3d_2">
   <g id="line2d_7">
    <path d="M 110.544587 183.329258 
L 166.940302 228.668843 
" style="fill:none;stroke:#000000;stroke-linecap:square;stroke-width:0.8;"/>
   </g>
   <g id="text_7">
    <!-- s -->
    <defs>
     <path d="M 44.28125 53.078125 
L 44.28125 44.578125 
Q 40.484375 46.53125 36.375 47.5 
Q 32.28125 48.484375 27.875 48.484375 
Q 21.1875 48.484375 17.84375 46.4375 
Q 14.5 44.390625 14.5 40.28125 
Q 14.5 37.15625 16.890625 35.375 
Q 19.28125 33.59375 26.515625 31.984375 
L 29.59375 31.296875 
Q 39.15625 29.25 43.1875 25.515625 
Q 47.21875 21.78125 47.21875 15.09375 
Q 47.21875 7.46875 41.1875 3.015625 
Q 35.15625 -1.421875 24.609375 -1.421875 
Q 20.21875 -1.421875 15.453125 -0.5625 
Q 10.6875 0.296875 5.421875 2 
L 5.421875 11.28125 
Q 10.40625 8.6875 15.234375 7.390625 
Q 20.0625 6.109375 24.8125 6.109375 
Q 31.15625 6.109375 34.5625 8.28125 
Q 37.984375 10.453125 37.984375 14.40625 
Q 37.984375 18.0625 35.515625 20.015625 
Q 33.0625 21.96875 24.703125 23.78125 
L 21.578125 24.515625 
Q 13.234375 26.265625 9.515625 29.90625 
Q 5.8125 33.546875 5.8125 39.890625 
Q 5.8125 47.609375 11.28125 51.796875 
Q 16.75 56 26.8125 56 
Q 31.78125 56 36.171875 55.265625 
Q 40.578125 54.546875 44.28125 53.078125 
z
" id="DejaVuSans-115"/>
    </defs>
    <g transform="translate(104.125431 230.149811)scale(0.1 -0.1)">
     <use xlink:href="#DejaVuSans-115"/>
    </g>
   </g>
   <g id="Line3DCollection_2">
    <path d="M 284.08985 61.563106 
L 282.161602 171.227738 
L 113.836541 185.97584 
" style="fill:none;stroke:#b0b0b0;stroke-width:0.8;"/>
    <path d="M 297.350335 67.659719 
L 294.942521 178.969885 
L 124.10143 194.228342 
" style="fill:none;stroke:#b0b0b0;stroke-width:0.8;"/>
    <path d="M 311.082327 73.973112 
L 308.162311 186.977882 
L 134.730531 202.773655 
" style="fill:none;stroke:#b0b0b0;stroke-width:0.8;"/>
    <path d="M 325.311429 80.515054 
L 321.843973 195.265662 
L 145.743577 211.627643 
" style="fill:none;stroke:#b0b0b0;stroke-width:0.8;"/>
    <path d="M 340.065133 87.298187 
L 336.012143 203.848147 
L 157.161756 220.807338 
" style="fill:none;stroke:#b0b0b0;stroke-width:0.8;"/>
   </g>
   <g id="xtick_6">
    <g id="line2d_8">
     <path d="M 115.226082 185.854092 
L 111.055314 186.219522 
" style="fill:none;stroke:#000000;stroke-linecap:square;stroke-width:0.8;"/>
    </g>
    <g id="text_8">
     <!-- 0 -->
     <g transform="translate(97.071281 203.500803)scale(0.1 -0.1)">
      <use xlink:href="#DejaVuSans-48"/>
     </g>
    </g>
   </g>
   <g id="xtick_7">
    <g id="line2d_9">
     <path d="M 125.512501 194.102314 
L 121.277072 194.480596 
" style="fill:none;stroke:#000000;stroke-linecap:square;stroke-width:0.8;"/>
    </g>
    <g id="text_9">
     <!-- 2 -->
     <g transform="translate(107.097698 211.924925)scale(0.1 -0.1)">
      <use xlink:href="#DejaVuSans-50"/>
     </g>
    </g>
   </g>
   <g id="xtick_8">
    <g id="line2d_10">
     <path d="M 136.163798 202.643116 
L 131.861705 203.034941 
" style="fill:none;stroke:#000000;stroke-linecap:square;stroke-width:0.8;"/>
    </g>
    <g id="text_10">
     <!-- 4 -->
     <g transform="translate(117.479805 220.647895)scale(0.1 -0.1)">
      <use xlink:href="#DejaVuSans-52"/>
     </g>
    </g>
   </g>
   <g id="xtick_9">
    <g id="line2d_11">
     <path d="M 147.199738 211.492347 
L 142.828886 211.898455 
" style="fill:none;stroke:#000000;stroke-linecap:square;stroke-width:0.8;"/>
    </g>
    <g id="text_11">
     <!-- 6 -->
     <g transform="translate(128.23687 229.685902)scale(0.1 -0.1)">
      <use xlink:href="#DejaVuSans-54"/>
     </g>
    </g>
   </g>
   <g id="xtick_10">
    <g id="line2d_12">
     <path d="M 158.64154 220.66702 
L 154.199734 221.088207 
" style="fill:none;stroke:#000000;stroke-linecap:square;stroke-width:0.8;"/>
    </g>
    <g id="text_12">
     <!-- 8 -->
     <g transform="translate(139.389581 239.056328)scale(0.1 -0.1)">
      <use xlink:href="#DejaVuSans-56"/>
     </g>
    </g>
   </g>
  </g>
  <g id="axis3d_3">
   <g id="line2d_13">
    <path d="M 110.544587 183.329258 
L 106.480427 71.09565 
" style="fill:none;stroke:#000000;stroke-linecap:square;stroke-width:0.8;"/>
   </g>
   <g id="text_13">
    <!-- Reliability -->
    <defs>
     <path d="M 44.390625 34.1875 
Q 47.5625 33.109375 50.5625 29.59375 
Q 53.5625 26.078125 56.59375 19.921875 
L 66.609375 0 
L 56 0 
L 46.6875 18.703125 
Q 43.0625 26.03125 39.671875 28.421875 
Q 36.28125 30.8125 30.421875 30.8125 
L 19.671875 30.8125 
L 19.671875 0 
L 9.8125 0 
L 9.8125 72.90625 
L 32.078125 72.90625 
Q 44.578125 72.90625 50.734375 67.671875 
Q 56.890625 62.453125 56.890625 51.90625 
Q 56.890625 45.015625 53.6875 40.46875 
Q 50.484375 35.9375 44.390625 34.1875 
z
M 19.671875 64.796875 
L 19.671875 38.921875 
L 32.078125 38.921875 
Q 39.203125 38.921875 42.84375 42.21875 
Q 46.484375 45.515625 46.484375 51.90625 
Q 46.484375 58.296875 42.84375 61.546875 
Q 39.203125 64.796875 32.078125 64.796875 
z
" id="DejaVuSans-82"/>
     <path d="M 56.203125 29.59375 
L 56.203125 25.203125 
L 14.890625 25.203125 
Q 15.484375 15.921875 20.484375 11.0625 
Q 25.484375 6.203125 34.421875 6.203125 
Q 39.59375 6.203125 44.453125 7.46875 
Q 49.3125 8.734375 54.109375 11.28125 
L 54.109375 2.78125 
Q 49.265625 0.734375 44.1875 -0.34375 
Q 39.109375 -1.421875 33.890625 -1.421875 
Q 20.796875 -1.421875 13.15625 6.1875 
Q 5.515625 13.8125 5.515625 26.8125 
Q 5.515625 40.234375 12.765625 48.109375 
Q 20.015625 56 32.328125 56 
Q 43.359375 56 49.78125 48.890625 
Q 56.203125 41.796875 56.203125 29.59375 
z
M 47.21875 32.234375 
Q 47.125 39.59375 43.09375 43.984375 
Q 39.0625 48.390625 32.421875 48.390625 
Q 24.90625 48.390625 20.390625 44.140625 
Q 15.875 39.890625 15.1875 32.171875 
z
" id="DejaVuSans-101"/>
     <path d="M 9.421875 75.984375 
L 18.40625 75.984375 
L 18.40625 0 
L 9.421875 0 
z
" id="DejaVuSans-108"/>
     <path d="M 9.421875 54.6875 
L 18.40625 54.6875 
L 18.40625 0 
L 9.421875 0 
z
M 9.421875 75.984375 
L 18.40625 75.984375 
L 18.40625 64.59375 
L 9.421875 64.59375 
z
" id="DejaVuSans-105"/>
     <path d="M 34.28125 27.484375 
Q 23.390625 27.484375 19.1875 25 
Q 14.984375 22.515625 14.984375 16.5 
Q 14.984375 11.71875 18.140625 8.90625 
Q 21.296875 6.109375 26.703125 6.109375 
Q 34.1875 6.109375 38.703125 11.40625 
Q 43.21875 16.703125 43.21875 25.484375 
L 43.21875 27.484375 
z
M 52.203125 31.203125 
L 52.203125 0 
L 43.21875 0 
L 43.21875 8.296875 
Q 40.140625 3.328125 35.546875 0.953125 
Q 30.953125 -1.421875 24.3125 -1.421875 
Q 15.921875 -1.421875 10.953125 3.296875 
Q 6 8.015625 6 15.921875 
Q 6 25.140625 12.171875 29.828125 
Q 18.359375 34.515625 30.609375 34.515625 
L 43.21875 34.515625 
L 43.21875 35.40625 
Q 43.21875 41.609375 39.140625 45 
Q 35.0625 48.390625 27.6875 48.390625 
Q 23 48.390625 18.546875 47.265625 
Q 14.109375 46.140625 10.015625 43.890625 
L 10.015625 52.203125 
Q 14.9375 54.109375 19.578125 55.046875 
Q 24.21875 56 28.609375 56 
Q 40.484375 56 46.34375 49.84375 
Q 52.203125 43.703125 52.203125 31.203125 
z
" id="DejaVuSans-97"/>
     <path d="M 48.6875 27.296875 
Q 48.6875 37.203125 44.609375 42.84375 
Q 40.53125 48.484375 33.40625 48.484375 
Q 26.265625 48.484375 22.1875 42.84375 
Q 18.109375 37.203125 18.109375 27.296875 
Q 18.109375 17.390625 22.1875 11.75 
Q 26.265625 6.109375 33.40625 6.109375 
Q 40.53125 6.109375 44.609375 11.75 
Q 48.6875 17.390625 48.6875 27.296875 
z
M 18.109375 46.390625 
Q 20.953125 51.265625 25.265625 53.625 
Q 29.59375 56 35.59375 56 
Q 45.5625 56 51.78125 48.09375 
Q 58.015625 40.1875 58.015625 27.296875 
Q 58.015625 14.40625 51.78125 6.484375 
Q 45.5625 -1.421875 35.59375 -1.421875 
Q 29.59375 -1.421875 25.265625 0.953125 
Q 20.953125 3.328125 18.109375 8.203125 
L 18.109375 0 
L 9.078125 0 
L 9.078125 75.984375 
L 18.109375 75.984375 
z
" id="DejaVuSans-98"/>
     <path d="M 18.3125 70.21875 
L 18.3125 54.6875 
L 36.8125 54.6875 
L 36.8125 47.703125 
L 18.3125 47.703125 
L 18.3125 18.015625 
Q 18.3125 11.328125 20.140625 9.421875 
Q 21.96875 7.515625 27.59375 7.515625 
L 36.8125 7.515625 
L 36.8125 0 
L 27.59375 0 
Q 17.1875 0 13.234375 3.875 
Q 9.28125 7.765625 9.28125 18.015625 
L 9.28125 47.703125 
L 2.6875 47.703125 
L 2.6875 54.6875 
L 9.28125 54.6875 
L 9.28125 70.21875 
z
" id="DejaVuSans-116"/>
     <path d="M 32.171875 -5.078125 
Q 28.375 -14.84375 24.75 -17.8125 
Q 21.140625 -20.796875 15.09375 -20.796875 
L 7.90625 -20.796875 
L 7.90625 -13.28125 
L 13.1875 -13.28125 
Q 16.890625 -13.28125 18.9375 -11.515625 
Q 21 -9.765625 23.484375 -3.21875 
L 25.09375 0.875 
L 2.984375 54.6875 
L 12.5 54.6875 
L 29.59375 11.921875 
L 46.6875 54.6875 
L 56.203125 54.6875 
z
" id="DejaVuSans-121"/>
    </defs>
    <g transform="translate(65.644896 99.803939)rotate(-272.073866)scale(0.1 -0.1)">
     <use xlink:href="#DejaVuSans-82"/>
     <use x="64.982422" xlink:href="#DejaVuSans-101"/>
     <use x="126.505859" xlink:href="#DejaVuSans-108"/>
     <use x="154.289062" xlink:href="#DejaVuSans-105"/>
     <use x="182.072266" xlink:href="#DejaVuSans-97"/>
     <use x="243.351562" xlink:href="#DejaVuSans-98"/>
     <use x="306.828125" xlink:href="#DejaVuSans-105"/>
     <use x="334.611328" xlink:href="#DejaVuSans-108"/>
     <use x="362.394531" xlink:href="#DejaVuSans-105"/>
     <use x="390.177734" xlink:href="#DejaVuSans-116"/>
     <use x="429.386719" xlink:href="#DejaVuSans-121"/>
    </g>
   </g>
   <g id="Line3DCollection_3">
    <path d="M 110.466016 181.159486 
L 278.094218 166.63092 
L 348.220367 208.911807 
" style="fill:none;stroke:#b0b0b0;stroke-width:0.8;"/>
    <path d="M 109.706254 160.178326 
L 278.426806 146.211776 
L 349.073116 186.872937 
" style="fill:none;stroke:#b0b0b0;stroke-width:0.8;"/>
    <path d="M 108.936427 138.919208 
L 278.763661 125.530613 
L 349.93784 164.524564 
" style="fill:none;stroke:#b0b0b0;stroke-width:0.8;"/>
    <path d="M 108.156334 117.376573 
L 279.104866 104.582357 
L 350.814794 141.860119 
" style="fill:none;stroke:#b0b0b0;stroke-width:0.8;"/>
    <path d="M 107.365767 95.544709 
L 279.450507 83.361799 
L 351.704239 118.872852 
" style="fill:none;stroke:#b0b0b0;stroke-width:0.8;"/>
    <path d="M 106.564514 73.417753 
L 279.80067 61.863596 
L 352.606444 95.555814 
" style="fill:none;stroke:#b0b0b0;stroke-width:0.8;"/>
   </g>
   <g id="xtick_11">
    <g id="line2d_14">
     <path d="M 111.849594 181.039569 
L 107.696733 181.399503 
" style="fill:none;stroke:#000000;stroke-linecap:square;stroke-width:0.8;"/>
    </g>
    <g id="text_14">
     <!-- 0.0 -->
     <defs>
      <path d="M 10.6875 12.40625 
L 21 12.40625 
L 21 0 
L 10.6875 0 
z
" id="DejaVuSans-46"/>
     </defs>
     <g transform="translate(84.645255 186.672108)scale(0.1 -0.1)">
      <use xlink:href="#DejaVuSans-48"/>
      <use x="63.623047" xlink:href="#DejaVuSans-46"/>
      <use x="95.410156" xlink:href="#DejaVuSans-48"/>
     </g>
    </g>
   </g>
   <g id="xtick_12">
    <g id="line2d_15">
     <path d="M 111.09913 160.063025 
L 106.918348 160.409107 
" style="fill:none;stroke:#000000;stroke-linecap:square;stroke-width:0.8;"/>
    </g>
    <g id="text_15">
     <!-- 0.2 -->
     <g transform="translate(83.771837 165.771284)scale(0.1 -0.1)">
      <use xlink:href="#DejaVuSans-48"/>
      <use x="63.623047" xlink:href="#DejaVuSans-46"/>
      <use x="95.410156" xlink:href="#DejaVuSans-50"/>
     </g>
    </g>
   </g>
   <g id="xtick_13">
    <g id="line2d_16">
     <path d="M 110.338727 138.808656 
L 106.129645 139.140486 
" style="fill:none;stroke:#000000;stroke-linecap:square;stroke-width:0.8;"/>
    </g>
    <g id="text_16">
     <!-- 0.4 -->
     <g transform="translate(82.886901 144.594816)scale(0.1 -0.1)">
      <use xlink:href="#DejaVuSans-48"/>
      <use x="63.623047" xlink:href="#DejaVuSans-46"/>
      <use x="95.410156" xlink:href="#DejaVuSans-52"/>
     </g>
    </g>
   </g>
   <g id="xtick_14">
    <g id="line2d_17">
     <path d="M 109.568185 117.270906 
L 105.330418 117.588071 
" style="fill:none;stroke:#000000;stroke-linecap:square;stroke-width:0.8;"/>
    </g>
    <g id="text_17">
     <!-- 0.6 -->
     <g transform="translate(81.990217 123.137214)scale(0.1 -0.1)">
      <use xlink:href="#DejaVuSans-48"/>
      <use x="63.623047" xlink:href="#DejaVuSans-46"/>
      <use x="95.410156" xlink:href="#DejaVuSans-54"/>
     </g>
    </g>
   </g>
   <g id="xtick_15">
    <g id="line2d_18">
     <path d="M 108.787301 95.44407 
L 104.520455 95.746145 
" style="fill:none;stroke:#000000;stroke-linecap:square;stroke-width:0.8;"/>
    </g>
    <g id="text_18">
     <!-- 0.8 -->
     <g transform="translate(81.081549 101.392841)scale(0.1 -0.1)">
      <use xlink:href="#DejaVuSans-48"/>
      <use x="63.623047" xlink:href="#DejaVuSans-46"/>
      <use x="95.410156" xlink:href="#DejaVuSans-56"/>
     </g>
    </g>
   </g>
   <g id="xtick_16">
    <g id="line2d_19">
     <path d="M 107.995865 73.322288 
L 103.699538 73.608835 
" style="fill:none;stroke:#000000;stroke-linecap:square;stroke-width:0.8;"/>
    </g>
    <g id="text_19">
     <!-- 1.0 -->
     <defs>
      <path d="M 12.40625 8.296875 
L 28.515625 8.296875 
L 28.515625 63.921875 
L 10.984375 60.40625 
L 10.984375 69.390625 
L 28.421875 72.90625 
L 38.28125 72.90625 
L 38.28125 8.296875 
L 54.390625 8.296875 
L 54.390625 0 
L 12.40625 0 
z
" id="DejaVuSans-49"/>
     </defs>
     <g transform="translate(80.160655 79.355912)scale(0.1 -0.1)">
      <use xlink:href="#DejaVuSans-49"/>
      <use x="63.623047" xlink:href="#DejaVuSans-46"/>
      <use x="95.410156" xlink:href="#DejaVuSans-48"/>
     </g>
    </g>
   </g>
  </g>
  <g id="axes_1">
   <g id="Poly3DCollection_1">
    <path clip-path="url(#pc715a30ebb)" d="M 271.793552 170.013221 
L 256.847726 65.656024 
L 262.722589 112.18401 
L 278.060476 173.851974 
z
" style="fill:#1a6294;"/>
    <path clip-path="url(#pc715a30ebb)" d="M 278.060476 173.851974 
L 262.722589 112.18401 
L 268.768453 141.364927 
L 284.433468 177.755696 
z
" style="fill:#196193;"/>
    <path clip-path="url(#pc715a30ebb)" d="M 284.433468 177.755696 
L 268.768453 141.364927 
L 274.977806 160.432075 
L 290.915241 181.726052 
z
" style="fill:#196091;"/>
    <path clip-path="url(#pc715a30ebb)" d="M 290.915241 181.726052 
L 274.977806 160.432075 
L 281.341243 173.536815 
L 297.508605 185.764761 
z
" style="fill:#195e8f;"/>
    <path clip-path="url(#pc715a30ebb)" d="M 262.722589 112.18401 
L 246.418154 87.428849 
L 252.511666 117.957684 
L 268.768453 141.364927 
z
" style="fill:#185a88;"/>
    <path clip-path="url(#pc715a30ebb)" d="M 256.847726 65.656024 
L 240.286368 66.76772 
L 246.418154 87.428849 
L 262.722589 112.18401 
z
" style="fill:#175783;"/>
    <path clip-path="url(#pc715a30ebb)" d="M 268.768453 141.364927 
L 252.511666 117.957684 
L 258.65828 143.723599 
L 274.977806 160.432075 
z
" style="fill:#185b8a;"/>
    <path clip-path="url(#pc715a30ebb)" d="M 297.508605 185.764761 
L 281.341243 173.536815 
L 287.8505 183.11092 
L 304.216466 189.873606 
z
" style="fill:#185d8d;"/>
    <path clip-path="url(#pc715a30ebb)" d="M 274.977806 160.432075 
L 258.65828 143.723599 
L 264.908706 162.929454 
L 281.341243 173.536815 
z
" style="fill:#185c8b;"/>
    <path clip-path="url(#pc715a30ebb)" d="M 240.286368 66.76772 
L 223.6204 67.886439 
L 229.727729 78.067457 
L 246.418154 87.428849 
z
" style="fill:#175987;"/>
    <path clip-path="url(#pc715a30ebb)" d="M 246.418154 87.428849 
L 229.727729 78.067457 
L 235.871113 103.156567 
L 252.511666 117.957684 
z
" style="fill:#175885;"/>
    <path clip-path="url(#pc715a30ebb)" d="M 223.6204 67.886439 
L 206.848826 69.012246 
L 212.847869 74.982389 
L 229.727729 78.067457 
z
" style="fill:#185b89;"/>
    <path clip-path="url(#pc715a30ebb)" d="M 252.511666 117.957684 
L 235.871113 103.156567 
L 242.028683 130.704679 
L 258.65828 143.723599 
z
" style="fill:#175986;"/>
    <path clip-path="url(#pc715a30ebb)" d="M 281.341243 173.536815 
L 264.908706 162.929454 
L 271.284922 176.919796 
L 287.8505 183.11092 
z
" style="fill:#185c8b;"/>
    <path clip-path="url(#pc715a30ebb)" d="M 304.216466 189.873606 
L 287.8505 183.11092 
L 294.499445 190.596926 
L 311.041835 194.054428 
z
" style="fill:#185c8c;"/>
    <path clip-path="url(#pc715a30ebb)" d="M 258.65828 143.723599 
L 242.028683 130.704679 
L 248.234969 153.75881 
L 264.908706 162.929454 
z
" style="fill:#175a88;"/>
    <path clip-path="url(#pc715a30ebb)" d="M 206.848826 69.012246 
L 189.970642 70.14521 
L 195.839332 74.435222 
L 212.847869 74.982389 
z
" style="fill:#185b8a;"/>
    <path clip-path="url(#pc715a30ebb)" d="M 229.727729 78.067457 
L 212.847869 74.982389 
L 218.970094 93.996577 
L 235.871113 103.156567 
z
" style="fill:#175885;"/>
    <path clip-path="url(#pc715a30ebb)" d="M 264.908706 162.929454 
L 248.234969 153.75881 
L 254.526982 171.262793 
L 271.284922 176.919796 
z
" style="fill:#185a89;"/>
    <path clip-path="url(#pc715a30ebb)" d="M 189.970642 70.14521 
L 172.984825 71.285398 
L 178.718391 74.913129 
L 195.839332 74.435222 
z
" style="fill:#185b8a;"/>
    <path clip-path="url(#pc715a30ebb)" d="M 235.871113 103.156567 
L 218.970094 93.996577 
L 225.14337 120.640565 
L 242.028683 130.704679 
z
" style="fill:#175885;"/>
    <path clip-path="url(#pc715a30ebb)" d="M 287.8505 183.11092 
L 271.284922 176.919796 
L 277.794398 187.341117 
L 294.499445 190.596926 
z
" style="fill:#185c8a;"/>
    <path clip-path="url(#pc715a30ebb)" d="M 242.028683 130.704679 
L 225.14337 120.640565 
L 231.340435 145.859637 
L 248.234969 153.75881 
z
" style="fill:#175886;"/>
    <path clip-path="url(#pc715a30ebb)" d="M 212.847869 74.982389 
L 195.839332 74.435222 
L 201.879331 88.508178 
L 218.970094 93.996577 
z
" style="fill:#175986;"/>
    <path clip-path="url(#pc715a30ebb)" d="M 172.984825 71.285398 
L 155.890345 72.432881 
L 161.487865 75.807161 
L 178.718391 74.913129 
z
" style="fill:#185b8a;"/>
    <path clip-path="url(#pc715a30ebb)" d="M 311.041835 194.054428 
L 294.499445 190.596926 
L 301.284155 196.857363 
L 317.987825 198.309136 
z
" style="fill:#185c8b;"/>
    <path clip-path="url(#pc715a30ebb)" d="M 271.284922 176.919796 
L 254.526982 171.262793 
L 260.928215 184.279578 
L 277.794398 187.341117 
z
" style="fill:#185b89;"/>
    <path clip-path="url(#pc715a30ebb)" d="M 248.234969 153.75881 
L 231.340435 145.859637 
L 237.583232 166.104635 
L 254.526982 171.262793 
z
" style="fill:#175987;"/>
    <path clip-path="url(#pc715a30ebb)" d="M 218.970094 93.996577 
L 201.879331 88.508178 
L 208.042816 112.934242 
L 225.14337 120.640565 
z
" style="fill:#175784;"/>
    <path clip-path="url(#pc715a30ebb)" d="M 155.890345 72.432881 
L 138.686154 73.587728 
L 144.146993 76.872741 
L 161.487865 75.807161 
z
" style="fill:#185b8a;"/>
    <path clip-path="url(#pc715a30ebb)" d="M 195.839332 74.435222 
L 178.718391 74.913129 
L 184.637986 85.3992 
L 201.879331 88.508178 
z
" style="fill:#175a88;"/>
    <path clip-path="url(#pc715a30ebb)" d="M 294.499445 190.596926 
L 277.794398 187.341117 
L 284.43862 195.478385 
L 301.284155 196.857363 
z
" style="fill:#185b8a;"/>
    <path clip-path="url(#pc715a30ebb)" d="M 225.14337 120.640565 
L 208.042816 112.934242 
L 214.24237 139.083994 
L 231.340435 145.859637 
z
" style="fill:#175885;"/>
    <path clip-path="url(#pc715a30ebb)" d="M 138.686154 73.587728 
L 121.371193 74.75001 
L 126.69431 78.011751 
L 144.146993 76.872741 
z
" style="fill:#185b8a;"/>
    <path clip-path="url(#pc715a30ebb)" d="M 254.526982 171.262793 
L 237.583232 166.104635 
L 243.902278 181.405136 
L 260.928215 184.279578 
z
" style="fill:#175a88;"/>
    <path clip-path="url(#pc715a30ebb)" d="M 178.718391 74.913129 
L 161.487865 75.807161 
L 167.26678 83.828566 
L 184.637986 85.3992 
z
" style="fill:#175a88;"/>
    <path clip-path="url(#pc715a30ebb)" d="M 231.340435 145.859637 
L 214.24237 139.083994 
L 220.459567 161.412133 
L 237.583232 166.104635 
z
" style="fill:#175886;"/>
    <path clip-path="url(#pc715a30ebb)" d="M 201.879331 88.508178 
L 184.637986 85.3992 
L 190.756742 107.10407 
L 208.042816 112.934242 
z
" style="fill:#175885;"/>
    <path clip-path="url(#pc715a30ebb)" d="M 317.987825 198.309136 
L 301.284155 196.857363 
L 308.202653 202.410679 
L 325.057662 202.639705 
z
" style="fill:#185c8b;"/>
    <path clip-path="url(#pc715a30ebb)" d="M 277.794398 187.341117 
L 260.928215 184.279578 
L 267.450826 194.170836 
L 284.43862 195.478385 
z
" style="fill:#185b8a;"/>
    <path clip-path="url(#pc715a30ebb)" d="M 208.042816 112.934242 
L 190.756742 107.10407 
L 196.955282 133.299878 
L 214.24237 139.083994 
z
" style="fill:#175784;"/>
    <path clip-path="url(#pc715a30ebb)" d="M 161.487865 75.807161 
L 144.146993 76.872741 
L 149.775926 83.251583 
L 167.26678 83.828566 
z
" style="fill:#185a89;"/>
    <path clip-path="url(#pc715a30ebb)" d="M 237.583232 166.104635 
L 220.459567 161.412133 
L 226.717832 178.710864 
L 243.902278 181.405136 
z
" style="fill:#175987;"/>
    <path clip-path="url(#pc715a30ebb)" d="M 301.284155 196.857363 
L 284.43862 195.478385 
L 291.217281 202.210672 
L 308.202653 202.410679 
z
" style="fill:#185b8a;"/>
    <path clip-path="url(#pc715a30ebb)" d="M 184.637986 85.3992 
L 167.26678 83.828566 
L 173.306655 102.763658 
L 190.756742 107.10407 
z
" style="fill:#175885;"/>
    <path clip-path="url(#pc715a30ebb)" d="M 214.24237 139.083994 
L 196.955282 133.299878 
L 203.161272 157.154102 
L 220.459567 161.412133 
z
" style="fill:#175885;"/>
    <path clip-path="url(#pc715a30ebb)" d="M 260.928215 184.279578 
L 243.902278 181.405136 
L 250.320345 192.933384 
L 267.450826 194.170836 
z
" style="fill:#185a89;"/>
    <path clip-path="url(#pc715a30ebb)" d="M 144.146993 76.872741 
L 126.69431 78.011751 
L 132.169804 83.316651 
L 149.775926 83.251583 
z
" style="fill:#185b89;"/>
    <path clip-path="url(#pc715a30ebb)" d="M 190.756742 107.10407 
L 173.306655 102.763658 
L 179.491286 128.389839 
L 196.955282 133.299878 
z
" style="fill:#175784;"/>
    <path clip-path="url(#pc715a30ebb)" d="M 284.43862 195.478385 
L 267.450826 194.170836 
L 274.100543 202.039506 
L 291.217281 202.210672 
z
" style="fill:#185b8a;"/>
    <path clip-path="url(#pc715a30ebb)" d="M 220.459567 161.412133 
L 203.161272 157.154102 
L 209.375994 176.190074 
L 226.717832 178.710864 
z
" style="fill:#175986;"/>
    <path clip-path="url(#pc715a30ebb)" d="M 167.26678 83.828566 
L 149.775926 83.251583 
L 155.707842 99.60438 
L 173.306655 102.763658 
z
" style="fill:#175886;"/>
    <path clip-path="url(#pc715a30ebb)" d="M 325.057662 202.639705 
L 308.202653 202.410679 
L 315.254537 207.569738 
L 332.254688 207.048183 
z
" style="fill:#185c8a;"/>
    <path clip-path="url(#pc715a30ebb)" d="M 243.902278 181.405136 
L 226.717832 178.710864 
L 233.046712 191.764721 
L 250.320345 192.933384 
z
" style="fill:#175a88;"/>
    <path clip-path="url(#pc715a30ebb)" d="M 196.955282 133.299878 
L 179.491286 128.389839 
L 185.693059 153.301283 
L 203.161272 157.154102 
z
" style="fill:#175784;"/>
    <path clip-path="url(#pc715a30ebb)" d="M 267.450826 194.170836 
L 250.320345 192.933384 
L 256.851418 201.897007 
L 274.100543 202.039506 
z
" style="fill:#185b89;"/>
    <path clip-path="url(#pc715a30ebb)" d="M 173.306655 102.763658 
L 155.707842 99.60438 
L 161.860414 124.249646 
L 179.491286 128.389839 
z
" style="fill:#175784;"/>
    <path clip-path="url(#pc715a30ebb)" d="M 308.202653 202.410679 
L 291.217281 202.210672 
L 298.130097 208.106253 
L 315.254537 207.569738 
z
" style="fill:#185b8a;"/>
    <path clip-path="url(#pc715a30ebb)" d="M 149.775926 83.251583 
L 132.169804 83.316651 
L 137.970931 97.380563 
L 155.707842 99.60438 
z
" style="fill:#175986;"/>
    <path clip-path="url(#pc715a30ebb)" d="M 203.161272 157.154102 
L 185.693059 153.301283 
L 191.877754 173.836314 
L 209.375994 176.190074 
z
" style="fill:#175886;"/>
    <path clip-path="url(#pc715a30ebb)" d="M 226.717832 178.710864 
L 209.375994 176.190074 
L 215.629426 190.66357 
L 233.046712 191.764721 
z
" style="fill:#175a88;"/>
    <path clip-path="url(#pc715a30ebb)" d="M 179.491286 128.389839 
L 161.860414 124.249646 
L 168.059113 149.826252 
L 185.693059 153.301283 
z
" style="fill:#175784;"/>
    <path clip-path="url(#pc715a30ebb)" d="M 250.320345 192.933384 
L 233.046712 191.764721 
L 239.468866 201.783006 
L 256.851418 201.897007 
z
" style="fill:#185a89;"/>
    <path clip-path="url(#pc715a30ebb)" d="M 291.217281 202.210672 
L 274.100543 202.039506 
L 280.880188 208.657775 
L 298.130097 208.106253 
z
" style="fill:#185b8a;"/>
    <path clip-path="url(#pc715a30ebb)" d="M 155.707842 99.60438 
L 137.970931 97.380563 
L 144.070908 120.786992 
L 161.860414 124.249646 
z
" style="fill:#175784;"/>
    <path clip-path="url(#pc715a30ebb)" d="M 185.693059 153.301283 
L 168.059113 149.826252 
L 174.223978 171.643363 
L 191.877754 173.836314 
z
" style="fill:#175885;"/>
    <path clip-path="url(#pc715a30ebb)" d="M 209.375994 176.190074 
L 191.877754 173.836314 
L 198.067951 189.628683 
L 215.629426 190.66357 
z
" style="fill:#175987;"/>
    <path clip-path="url(#pc715a30ebb)" d="M 161.860414 124.249646 
L 144.070908 120.786992 
L 150.263124 146.70333 
L 168.059113 149.826252 
z
" style="fill:#175783;"/>
    <path clip-path="url(#pc715a30ebb)" d="M 233.046712 191.764721 
L 215.629426 190.66357 
L 221.951826 201.697338 
L 239.468866 201.783006 
z
" style="fill:#185a88;"/>
    <path clip-path="url(#pc715a30ebb)" d="M 274.100543 202.039506 
L 256.851418 201.897007 
L 263.503614 209.224351 
L 280.880188 208.657775 
z
" style="fill:#185b8a;"/>
    <path clip-path="url(#pc715a30ebb)" d="M 191.877754 173.836314 
L 174.223978 171.643363 
L 180.361715 188.658836 
L 198.067951 189.628683 
z
" style="fill:#175986;"/>
    <path clip-path="url(#pc715a30ebb)" d="M 168.059113 149.826252 
L 150.263124 146.70333 
L 156.415414 169.605224 
L 174.223978 171.643363 
z
" style="fill:#175884;"/>
    <path clip-path="url(#pc715a30ebb)" d="M 256.851418 201.897007 
L 239.468866 201.783006 
L 245.999159 209.80603 
L 263.503614 209.224351 
z
" style="fill:#185b89;"/>
    <path clip-path="url(#pc715a30ebb)" d="M 215.629426 190.66357 
L 198.067951 189.628683 
L 204.299219 201.639843 
L 221.951826 201.697338 
z
" style="fill:#175a88;"/>
    <path clip-path="url(#pc715a30ebb)" d="M 174.223978 171.643363 
L 156.415414 169.605224 
L 162.510112 187.752838 
L 180.361715 188.658836 
z
" style="fill:#175986;"/>
    <path clip-path="url(#pc715a30ebb)" d="M 239.468866 201.783006 
L 221.951826 201.697338 
L 228.365592 210.402862 
L 245.999159 209.80603 
z
" style="fill:#185b89;"/>
    <path clip-path="url(#pc715a30ebb)" d="M 198.067951 189.628683 
L 180.361715 188.658836 
L 186.509942 201.610364 
L 204.299219 201.639843 
z
" style="fill:#175a88;"/>
    <path clip-path="url(#pc715a30ebb)" d="M 221.951826 201.697338 
L 204.299219 201.639843 
L 210.601661 211.014899 
L 228.365592 210.402862 
z
" style="fill:#185a89;"/>
    <path clip-path="url(#pc715a30ebb)" d="M 180.361715 188.658836 
L 162.510112 187.752838 
L 168.582875 201.608747 
L 186.509942 201.610364 
z
" style="fill:#175987;"/>
    <path clip-path="url(#pc715a30ebb)" d="M 204.299219 201.639843 
L 186.509942 201.610364 
L 192.706099 211.642196 
L 210.601661 211.014899 
z
" style="fill:#185a89;"/>
    <path clip-path="url(#pc715a30ebb)" d="M 186.509942 201.610364 
L 168.582875 201.608747 
L 174.677618 212.284806 
L 192.706099 211.642196 
z
" style="fill:#175a88;"/>
   </g>
   <g id="Poly3DCollection_2">
    <path clip-path="url(#pc715a30ebb)" d="M 278.060476 173.851974 
L 262.722589 112.18401 
L 268.768453 141.364927 
L 284.433468 177.755696 
z
" style="fill:#d1680b;"/>
    <path clip-path="url(#pc715a30ebb)" d="M 273.305456 64.551284 
L 256.847726 65.656024 
L 262.722589 112.18401 
L 278.060476 173.851974 
z
" style="fill:#ab5509;"/>
    <path clip-path="url(#pc715a30ebb)" d="M 284.433468 177.755696 
L 268.768453 141.364927 
L 274.977806 160.432075 
L 290.915241 181.726052 
z
" style="fill:#cd660b;"/>
    <path clip-path="url(#pc715a30ebb)" d="M 290.915241 181.726052 
L 274.977806 160.432075 
L 281.341243 173.536815 
L 297.508605 185.764761 
z
" style="fill:#ca650b;"/>
    <path clip-path="url(#pc715a30ebb)" d="M 256.847726 65.656024 
L 240.286368 66.76772 
L 246.418154 87.428849 
L 262.722589 112.18401 
z
" style="fill:#ba5c0a;"/>
    <path clip-path="url(#pc715a30ebb)" d="M 262.722589 112.18401 
L 246.418154 87.428849 
L 252.614028 105.438733 
L 268.768453 141.364927 
z
" style="fill:#c8640b;"/>
    <path clip-path="url(#pc715a30ebb)" d="M 268.768453 141.364927 
L 252.614028 105.438733 
L 258.886255 121.257004 
L 274.977806 160.432075 
z
" style="fill:#cf670b;"/>
    <path clip-path="url(#pc715a30ebb)" d="M 297.508605 185.764761 
L 281.341243 173.536815 
L 287.8505 183.11092 
L 304.216466 189.873606 
z
" style="fill:#c8640b;"/>
    <path clip-path="url(#pc715a30ebb)" d="M 240.286368 66.76772 
L 223.6204 67.886439 
L 229.727729 78.067457 
L 246.418154 87.428849 
z
" style="fill:#c05f0b;"/>
    <path clip-path="url(#pc715a30ebb)" d="M 274.977806 160.432075 
L 258.886255 121.257004 
L 265.245078 135.261182 
L 281.341243 173.536815 
z
" style="fill:#d1680b;"/>
    <path clip-path="url(#pc715a30ebb)" d="M 223.6204 67.886439 
L 206.848826 69.012246 
L 212.847869 74.982389 
L 229.727729 78.067457 
z
" style="fill:#c2610b;"/>
    <path clip-path="url(#pc715a30ebb)" d="M 246.418154 87.428849 
L 229.727729 78.067457 
L 235.917479 87.930383 
L 252.614028 105.438733 
z
" style="fill:#c5620b;"/>
    <path clip-path="url(#pc715a30ebb)" d="M 304.216466 189.873606 
L 287.8505 183.11092 
L 294.499445 190.596926 
L 311.041835 194.054428 
z
" style="fill:#c6630b;"/>
    <path clip-path="url(#pc715a30ebb)" d="M 206.848826 69.012246 
L 189.970642 70.14521 
L 195.839332 74.435222 
L 212.847869 74.982389 
z
" style="fill:#c3610b;"/>
    <path clip-path="url(#pc715a30ebb)" d="M 281.341243 173.536815 
L 265.245078 135.261182 
L 271.699176 147.762827 
L 287.8505 183.11092 
z
" style="fill:#d2680c;"/>
    <path clip-path="url(#pc715a30ebb)" d="M 252.614028 105.438733 
L 235.917479 87.930383 
L 242.193773 97.501949 
L 258.886255 121.257004 
z
" style="fill:#ca640b;"/>
    <path clip-path="url(#pc715a30ebb)" d="M 189.970642 70.14521 
L 172.984825 71.285398 
L 178.718391 74.913129 
L 195.839332 74.435222 
z
" style="fill:#c3610b;"/>
    <path clip-path="url(#pc715a30ebb)" d="M 229.727729 78.067457 
L 212.847869 74.982389 
L 218.942448 80.974675 
L 235.917479 87.930383 
z
" style="fill:#c4620b;"/>
    <path clip-path="url(#pc715a30ebb)" d="M 172.984825 71.285398 
L 155.890345 72.432881 
L 161.487865 75.807161 
L 178.718391 74.913129 
z
" style="fill:#c3610b;"/>
    <path clip-path="url(#pc715a30ebb)" d="M 311.041835 194.054428 
L 294.499445 190.596926 
L 301.284155 196.857363 
L 317.987825 198.309136 
z
" style="fill:#c5620b;"/>
    <path clip-path="url(#pc715a30ebb)" d="M 212.847869 74.982389 
L 195.839332 74.435222 
L 201.808088 78.786693 
L 218.942448 80.974675 
z
" style="fill:#c4620b;"/>
    <path clip-path="url(#pc715a30ebb)" d="M 287.8505 183.11092 
L 271.699176 147.762827 
L 278.256025 159.020128 
L 294.499445 190.596926 
z
" style="fill:#d1680b;"/>
    <path clip-path="url(#pc715a30ebb)" d="M 258.886255 121.257004 
L 242.193773 97.501949 
L 248.560707 106.807176 
L 265.245078 135.261182 
z
" style="fill:#cd660b;"/>
    <path clip-path="url(#pc715a30ebb)" d="M 155.890345 72.432881 
L 138.686154 73.587728 
L 144.146993 76.872741 
L 161.487865 75.807161 
z
" style="fill:#c3610b;"/>
    <path clip-path="url(#pc715a30ebb)" d="M 235.917479 87.930383 
L 218.942448 80.974675 
L 225.135282 86.991925 
L 242.193773 97.501949 
z
" style="fill:#c6630b;"/>
    <path clip-path="url(#pc715a30ebb)" d="M 195.839332 74.435222 
L 178.718391 74.913129 
L 184.552545 78.602633 
L 201.808088 78.786693 
z
" style="fill:#c4610b;"/>
    <path clip-path="url(#pc715a30ebb)" d="M 138.686154 73.587728 
L 121.371193 74.75001 
L 126.69431 78.011751 
L 144.146993 76.872741 
z
" style="fill:#c3610b;"/>
    <path clip-path="url(#pc715a30ebb)" d="M 178.718391 74.913129 
L 161.487865 75.807161 
L 167.184884 79.241122 
L 184.552545 78.602633 
z
" style="fill:#c4610b;"/>
    <path clip-path="url(#pc715a30ebb)" d="M 265.245078 135.261182 
L 248.560707 106.807176 
L 255.022364 115.869522 
L 271.699176 147.762827 
z
" style="fill:#cf670b;"/>
    <path clip-path="url(#pc715a30ebb)" d="M 317.987825 198.309136 
L 301.284155 196.857363 
L 308.202653 202.410679 
L 325.057662 202.639705 
z
" style="fill:#c4620b;"/>
    <path clip-path="url(#pc715a30ebb)" d="M 294.499445 190.596926 
L 278.256025 159.020128 
L 284.922176 169.247825 
L 301.284155 196.857363 
z
" style="fill:#d0680b;"/>
    <path clip-path="url(#pc715a30ebb)" d="M 218.942448 80.974675 
L 201.808088 78.786693 
L 207.87956 83.201379 
L 225.135282 86.991925 
z
" style="fill:#c5620b;"/>
    <path clip-path="url(#pc715a30ebb)" d="M 242.193773 97.501949 
L 225.135282 86.991925 
L 231.429181 93.036992 
L 248.560707 106.807176 
z
" style="fill:#c8640b;"/>
    <path clip-path="url(#pc715a30ebb)" d="M 161.487865 75.807161 
L 144.146993 76.872741 
L 149.7056 80.21652 
L 167.184884 79.241122 
z
" style="fill:#c4610b;"/>
    <path clip-path="url(#pc715a30ebb)" d="M 201.808088 78.786693 
L 184.552545 78.602633 
L 190.489969 82.355563 
L 207.87956 83.201379 
z
" style="fill:#c4620b;"/>
    <path clip-path="url(#pc715a30ebb)" d="M 144.146993 76.872741 
L 126.69431 78.011751 
L 132.113189 81.332161 
L 149.7056 80.21652 
z
" style="fill:#c4610b;"/>
    <path clip-path="url(#pc715a30ebb)" d="M 271.699176 147.762827 
L 255.022364 115.869522 
L 261.582823 124.711009 
L 278.256025 159.020128 
z
" style="fill:#d1680b;"/>
    <path clip-path="url(#pc715a30ebb)" d="M 301.284155 196.857363 
L 284.922176 169.247825 
L 291.703478 178.625098 
L 308.202653 202.410679 
z
" style="fill:#cf670b;"/>
    <path clip-path="url(#pc715a30ebb)" d="M 184.552545 78.602633 
L 167.184884 79.241122 
L 172.984082 82.73637 
L 190.489969 82.355563 
z
" style="fill:#c4610b;"/>
    <path clip-path="url(#pc715a30ebb)" d="M 325.057662 202.639705 
L 308.202653 202.410679 
L 315.254537 207.569738 
L 332.254688 207.048183 
z
" style="fill:#c4620b;"/>
    <path clip-path="url(#pc715a30ebb)" d="M 225.135282 86.991925 
L 207.87956 83.201379 
L 214.05649 87.681097 
L 231.429181 93.036992 
z
" style="fill:#c6620b;"/>
    <path clip-path="url(#pc715a30ebb)" d="M 248.560707 106.807176 
L 231.429181 93.036992 
L 237.827045 99.112767 
L 255.022364 115.869522 
z
" style="fill:#ca640b;"/>
    <path clip-path="url(#pc715a30ebb)" d="M 167.184884 79.241122 
L 149.7056 80.21652 
L 155.364623 83.620656 
L 172.984082 82.73637 
z
" style="fill:#c4610b;"/>
    <path clip-path="url(#pc715a30ebb)" d="M 207.87956 83.201379 
L 190.489969 82.355563 
L 196.533441 86.173634 
L 214.05649 87.681097 
z
" style="fill:#c4620b;"/>
    <path clip-path="url(#pc715a30ebb)" d="M 278.256025 159.020128 
L 261.582823 124.711009 
L 268.246178 133.352346 
L 284.922176 169.247825 
z
" style="fill:#d2680c;"/>
    <path clip-path="url(#pc715a30ebb)" d="M 149.7056 80.21652 
L 132.113189 81.332161 
L 137.630437 84.71284 
L 155.364623 83.620656 
z
" style="fill:#c4610b;"/>
    <path clip-path="url(#pc715a30ebb)" d="M 308.202653 202.410679 
L 291.703478 178.625098 
L 298.605252 187.301889 
L 315.254537 207.569738 
z
" style="fill:#ce660b;"/>
    <path clip-path="url(#pc715a30ebb)" d="M 190.489969 82.355563 
L 172.984082 82.73637 
L 178.888234 86.294571 
L 196.533441 86.173634 
z
" style="fill:#c4620b;"/>
    <path clip-path="url(#pc715a30ebb)" d="M 231.429181 93.036992 
L 214.05649 87.681097 
L 220.34172 92.227724 
L 237.827045 99.112767 
z
" style="fill:#c6630b;"/>
    <path clip-path="url(#pc715a30ebb)" d="M 255.022364 115.869522 
L 237.827045 99.112767 
L 244.331868 105.222181 
L 261.582823 124.711009 
z
" style="fill:#cb650b;"/>
    <path clip-path="url(#pc715a30ebb)" d="M 172.984082 82.73637 
L 155.364623 83.620656 
L 161.12681 87.0868 
L 178.888234 86.294571 
z
" style="fill:#c4610b;"/>
    <path clip-path="url(#pc715a30ebb)" d="M 284.922176 169.247825 
L 268.246178 133.352346 
L 275.016544 141.813035 
L 291.703478 178.625098 
z
" style="fill:#d3690c;"/>
    <path clip-path="url(#pc715a30ebb)" d="M 214.05649 87.681097 
L 196.533441 86.173634 
L 202.685839 90.058622 
L 220.34172 92.227724 
z
" style="fill:#c5620b;"/>
    <path clip-path="url(#pc715a30ebb)" d="M 155.364623 83.620656 
L 137.630437 84.71284 
L 143.248759 88.155444 
L 161.12681 87.0868 
z
" style="fill:#c4610b;"/>
    <path clip-path="url(#pc715a30ebb)" d="M 237.827045 99.112767 
L 220.34172 92.227724 
L 226.738191 96.843208 
L 244.331868 105.222181 
z
" style="fill:#c7630b;"/>
    <path clip-path="url(#pc715a30ebb)" d="M 261.582823 124.711009 
L 244.331868 105.222181 
L 250.946747 111.368205 
L 268.246178 133.352346 
z
" style="fill:#cc660b;"/>
    <path clip-path="url(#pc715a30ebb)" d="M 196.533441 86.173634 
L 178.888234 86.294571 
L 184.900217 89.917452 
L 202.685839 90.058622 
z
" style="fill:#c4620b;"/>
    <path clip-path="url(#pc715a30ebb)" d="M 291.703478 178.625098 
L 275.016544 141.813035 
L 281.898072 150.111469 
L 298.605252 187.301889 
z
" style="fill:#d3690c;"/>
    <path clip-path="url(#pc715a30ebb)" d="M 178.888234 86.294571 
L 161.12681 87.0868 
L 166.995007 90.616664 
L 184.900217 89.917452 
z
" style="fill:#c4610b;"/>
    <path clip-path="url(#pc715a30ebb)" d="M 220.34172 92.227724 
L 202.685839 90.058622 
L 208.950147 94.012366 
L 226.738191 96.843208 
z
" style="fill:#c5620b;"/>
    <path clip-path="url(#pc715a30ebb)" d="M 161.12681 87.0868 
L 143.248759 88.155444 
L 148.970956 91.661689 
L 166.995007 90.616664 
z
" style="fill:#c4610b;"/>
    <path clip-path="url(#pc715a30ebb)" d="M 268.246178 133.352346 
L 250.946747 111.368205 
L 257.674884 117.553863 
L 275.016544 141.813035 
z
" style="fill:#ce660b;"/>
    <path clip-path="url(#pc715a30ebb)" d="M 244.331868 105.222181 
L 226.738191 96.843208 
L 233.248954 101.529561 
L 250.946747 111.368205 
z
" style="fill:#c8640b;"/>
    <path clip-path="url(#pc715a30ebb)" d="M 202.685839 90.058622 
L 184.900217 89.917452 
L 191.023014 93.606801 
L 208.950147 94.012366 
z
" style="fill:#c4620b;"/>
    <path clip-path="url(#pc715a30ebb)" d="M 184.900217 89.917452 
L 166.995007 90.616664 
L 172.972167 94.212022 
L 191.023014 93.606801 
z
" style="fill:#c4610b;"/>
    <path clip-path="url(#pc715a30ebb)" d="M 226.738191 96.843208 
L 208.950147 94.012366 
L 215.329456 98.036777 
L 233.248954 101.529561 
z
" style="fill:#c5620b;"/>
    <path clip-path="url(#pc715a30ebb)" d="M 275.016544 141.813035 
L 257.674884 117.553863 
L 264.519589 123.782226 
L 281.898072 150.111469 
z
" style="fill:#cf670b;"/>
    <path clip-path="url(#pc715a30ebb)" d="M 166.995007 90.616664 
L 148.970956 91.661689 
L 154.799937 95.233357 
L 172.972167 94.212022 
z
" style="fill:#c4610b;"/>
    <path clip-path="url(#pc715a30ebb)" d="M 250.946747 111.368205 
L 233.248954 101.529561 
L 239.877169 106.288871 
L 257.674884 117.553863 
z
" style="fill:#c9640b;"/>
    <path clip-path="url(#pc715a30ebb)" d="M 208.950147 94.012366 
L 191.023014 93.606801 
L 197.259719 97.364476 
L 215.329456 98.036777 
z
" style="fill:#c4620b;"/>
    <path clip-path="url(#pc715a30ebb)" d="M 191.023014 93.606801 
L 172.972167 94.212022 
L 179.061354 97.874716 
L 197.259719 97.364476 
z
" style="fill:#c4620b;"/>
    <path clip-path="url(#pc715a30ebb)" d="M 233.248954 101.529561 
L 215.329456 98.036777 
L 221.826975 102.133832 
L 239.877169 106.288871 
z
" style="fill:#c6620b;"/>
    <path clip-path="url(#pc715a30ebb)" d="M 172.972167 94.212022 
L 154.799937 95.233357 
L 160.738719 98.872297 
L 179.061354 97.874716 
z
" style="fill:#c4610b;"/>
    <path clip-path="url(#pc715a30ebb)" d="M 257.674884 117.553863 
L 239.877169 106.288871 
L 246.626112 111.123301 
L 264.519589 123.782226 
z
" style="fill:#c9640b;"/>
    <path clip-path="url(#pc715a30ebb)" d="M 215.329456 98.036777 
L 197.259719 97.364476 
L 203.613543 101.192403 
L 221.826975 102.133832 
z
" style="fill:#c4620b;"/>
    <path clip-path="url(#pc715a30ebb)" d="M 197.259719 97.364476 
L 179.061354 97.874716 
L 185.265748 101.606657 
L 203.613543 101.192403 
z
" style="fill:#c4620b;"/>
    <path clip-path="url(#pc715a30ebb)" d="M 239.877169 106.288871 
L 221.826975 102.133832 
L 228.446033 106.305585 
L 246.626112 111.123301 
z
" style="fill:#c6630b;"/>
    <path clip-path="url(#pc715a30ebb)" d="M 179.061354 97.874716 
L 160.738719 98.872297 
L 166.790434 102.580427 
L 185.265748 101.606657 
z
" style="fill:#c4610b;"/>
    <path clip-path="url(#pc715a30ebb)" d="M 221.826975 102.133832 
L 203.613543 101.192403 
L 210.087818 105.09258 
L 228.446033 106.305585 
z
" style="fill:#c5620b;"/>
    <path clip-path="url(#pc715a30ebb)" d="M 203.613543 101.192403 
L 185.265748 101.606657 
L 191.58865 105.40983 
L 210.087818 105.09258 
z
" style="fill:#c4620b;"/>
    <path clip-path="url(#pc715a30ebb)" d="M 185.265748 101.606657 
L 166.790434 102.580427 
L 172.958334 106.359741 
L 191.58865 105.40983 
z
" style="fill:#c4610b;"/>
   </g>
  </g>
 </g>
 <defs>
  <clipPath id="pc715a30ebb">
   <rect height="217.44" width="334.8" x="54" y="34.56"/>
  </clipPath>
 </defs>
</svg>
