<?xml version="1.0" encoding="utf-8" standalone="no"?>
<!DOCTYPE svg PUBLIC "-//W3C//DTD SVG 1.1//EN"
  "http://www.w3.org/Graphics/SVG/1.1/DTD/svg11.dtd">
<!-- Created with matplotlib (https://matplotlib.org/) -->
<svg height="432pt" version="1.1" viewBox="0 0 432 432" width="432pt" xmlns="http://www.w3.org/2000/svg" xmlns:xlink="http://www.w3.org/1999/xlink">
 <metadata>
  <rdf:RDF xmlns:cc="http://creativecommons.org/ns#" xmlns:dc="http://purl.org/dc/elements/1.1/" xmlns:rdf="http://www.w3.org/1999/02/22-rdf-syntax-ns#">
   <cc:Work>
    <dc:type rdf:resource="http://purl.org/dc/dcmitype/StillImage"/>
    <dc:date>2021-01-15T11:30:00.354326</dc:date>
    <dc:format>image/svg+xml</dc:format>
    <dc:creator>
     <cc:Agent>
      <dc:title>Matplotlib v3.3.3, https://matplotlib.org/</dc:title>
     </cc:Agent>
    </dc:creator>
   </cc:Work>
  </rdf:RDF>
 </metadata>
 <defs>
  <style type="text/css">*{stroke-linecap:butt;stroke-linejoin:round;}</style>
 </defs>
 <g id="figure_1">
  <g id="patch_1">
   <path d="M 0 432 
L 432 432 
L 432 0 
L 0 0 
z
" style="fill:none;"/>
  </g>
  <g id="axes_1">
   <g id="patch_2">
    <path d="M 54 378 
L 388.8 378 
L 388.8 51.84 
L 54 51.84 
z
" style="fill:#ffffff;"/>
   </g>
   <g id="patch_3">
    <path clip-path="url(#pe4d9479c17)" d="M 54 367.8075 
L 61.258537 367.8075 
L 61.258537 366.10875 
L 54 366.10875 
z
" style="fill:#1f77b4;"/>
   </g>
   <g id="patch_4">
    <path clip-path="url(#pe4d9479c17)" d="M 54 327.0375 
L 54 327.0375 
L 54 325.33875 
L 54 325.33875 
z
" style="fill:#1f77b4;"/>
   </g>
   <g id="patch_5">
    <path clip-path="url(#pe4d9479c17)" d="M 54 286.2675 
L 55.555401 286.2675 
L 55.555401 284.56875 
L 54 284.56875 
z
" style="fill:#1f77b4;"/>
   </g>
   <g id="patch_6">
    <path clip-path="url(#pe4d9479c17)" d="M 54 245.4975 
L 372.857143 245.4975 
L 372.857143 243.79875 
L 54 243.79875 
z
" style="fill:#1f77b4;"/>
   </g>
   <g id="patch_7">
    <path clip-path="url(#pe4d9479c17)" d="M 54 204.7275 
L 54 204.7275 
L 54 203.02875 
L 54 203.02875 
z
" style="fill:#1f77b4;"/>
   </g>
   <g id="patch_8">
    <path clip-path="url(#pe4d9479c17)" d="M 54 163.9575 
L 58.147735 163.9575 
L 58.147735 162.25875 
L 54 162.25875 
z
" style="fill:#1f77b4;"/>
   </g>
   <g id="patch_9">
    <path clip-path="url(#pe4d9479c17)" d="M 54 123.1875 
L 60.221603 123.1875 
L 60.221603 121.48875 
L 54 121.48875 
z
" style="fill:#1f77b4;"/>
   </g>
   <g id="patch_10">
    <path clip-path="url(#pe4d9479c17)" d="M 54 82.4175 
L 54.518467 82.4175 
L 54.518467 80.71875 
L 54 80.71875 
z
" style="fill:#1f77b4;"/>
   </g>
   <g id="patch_11">
    <path clip-path="url(#pe4d9479c17)" d="M 54 366.10875 
L 88.737282 366.10875 
L 88.737282 364.41 
L 54 364.41 
z
" style="fill:#ff7f0e;"/>
   </g>
   <g id="patch_12">
    <path clip-path="url(#pe4d9479c17)" d="M 54 325.33875 
L 365.080139 325.33875 
L 365.080139 323.64 
L 54 323.64 
z
" style="fill:#ff7f0e;"/>
   </g>
   <g id="patch_13">
    <path clip-path="url(#pe4d9479c17)" d="M 54 284.56875 
L 54 284.56875 
L 54 282.87 
L 54 282.87 
z
" style="fill:#ff7f0e;"/>
   </g>
   <g id="patch_14">
    <path clip-path="url(#pe4d9479c17)" d="M 54 243.79875 
L 54.518467 243.79875 
L 54.518467 242.1 
L 54 242.1 
z
" style="fill:#ff7f0e;"/>
   </g>
   <g id="patch_15">
    <path clip-path="url(#pe4d9479c17)" d="M 54 203.02875 
L 55.555401 203.02875 
L 55.555401 201.33 
L 54 201.33 
z
" style="fill:#ff7f0e;"/>
   </g>
   <g id="patch_16">
    <path clip-path="url(#pe4d9479c17)" d="M 54 162.25875 
L 59.184669 162.25875 
L 59.184669 160.56 
L 54 160.56 
z
" style="fill:#ff7f0e;"/>
   </g>
   <g id="patch_17">
    <path clip-path="url(#pe4d9479c17)" d="M 54 121.48875 
L 58.147735 121.48875 
L 58.147735 119.79 
L 54 119.79 
z
" style="fill:#ff7f0e;"/>
   </g>
   <g id="patch_18">
    <path clip-path="url(#pe4d9479c17)" d="M 54 80.71875 
L 54 80.71875 
L 54 79.02 
L 54 79.02 
z
" style="fill:#ff7f0e;"/>
   </g>
   <g id="patch_19">
    <path clip-path="url(#pe4d9479c17)" d="M 54 364.41 
L 75.257143 364.41 
L 75.257143 362.71125 
L 54 362.71125 
z
" style="fill:#2ca02c;"/>
   </g>
   <g id="patch_20">
    <path clip-path="url(#pe4d9479c17)" d="M 54 323.64 
L 356.266202 323.64 
L 356.266202 321.94125 
L 54 321.94125 
z
" style="fill:#2ca02c;"/>
   </g>
   <g id="patch_21">
    <path clip-path="url(#pe4d9479c17)" d="M 54 282.87 
L 54 282.87 
L 54 281.17125 
L 54 281.17125 
z
" style="fill:#2ca02c;"/>
   </g>
   <g id="patch_22">
    <path clip-path="url(#pe4d9479c17)" d="M 54 242.1 
L 54 242.1 
L 54 240.40125 
L 54 240.40125 
z
" style="fill:#2ca02c;"/>
   </g>
   <g id="patch_23">
    <path clip-path="url(#pe4d9479c17)" d="M 54 201.33 
L 54.518467 201.33 
L 54.518467 199.63125 
L 54 199.63125 
z
" style="fill:#2ca02c;"/>
   </g>
   <g id="patch_24">
    <path clip-path="url(#pe4d9479c17)" d="M 54 160.56 
L 56.592334 160.56 
L 56.592334 158.86125 
L 54 158.86125 
z
" style="fill:#2ca02c;"/>
   </g>
   <g id="patch_25">
    <path clip-path="url(#pe4d9479c17)" d="M 54 119.79 
L 56.073868 119.79 
L 56.073868 118.09125 
L 54 118.09125 
z
" style="fill:#2ca02c;"/>
   </g>
   <g id="patch_26">
    <path clip-path="url(#pe4d9479c17)" d="M 54 79.02 
L 54 79.02 
L 54 77.32125 
L 54 77.32125 
z
" style="fill:#2ca02c;"/>
   </g>
   <g id="patch_27">
    <path clip-path="url(#pe4d9479c17)" d="M 54 362.71125 
L 58.147735 362.71125 
L 58.147735 361.0125 
L 54 361.0125 
z
" style="fill:#d62728;"/>
   </g>
   <g id="patch_28">
    <path clip-path="url(#pe4d9479c17)" d="M 54 321.94125 
L 54 321.94125 
L 54 320.2425 
L 54 320.2425 
z
" style="fill:#d62728;"/>
   </g>
   <g id="patch_29">
    <path clip-path="url(#pe4d9479c17)" d="M 54 281.17125 
L 221.464808 281.17125 
L 221.464808 279.4725 
L 54 279.4725 
z
" style="fill:#d62728;"/>
   </g>
   <g id="patch_30">
    <path clip-path="url(#pe4d9479c17)" d="M 54 240.40125 
L 54 240.40125 
L 54 238.7025 
L 54 238.7025 
z
" style="fill:#d62728;"/>
   </g>
   <g id="patch_31">
    <path clip-path="url(#pe4d9479c17)" d="M 54 199.63125 
L 54 199.63125 
L 54 197.9325 
L 54 197.9325 
z
" style="fill:#d62728;"/>
   </g>
   <g id="patch_32">
    <path clip-path="url(#pe4d9479c17)" d="M 54 158.86125 
L 56.592334 158.86125 
L 56.592334 157.1625 
L 54 157.1625 
z
" style="fill:#d62728;"/>
   </g>
   <g id="patch_33">
    <path clip-path="url(#pe4d9479c17)" d="M 54 118.09125 
L 61.258537 118.09125 
L 61.258537 116.3925 
L 54 116.3925 
z
" style="fill:#d62728;"/>
   </g>
   <g id="patch_34">
    <path clip-path="url(#pe4d9479c17)" d="M 54 77.32125 
L 54.518467 77.32125 
L 54.518467 75.6225 
L 54 75.6225 
z
" style="fill:#d62728;"/>
   </g>
   <g id="patch_35">
    <path clip-path="url(#pe4d9479c17)" d="M 54 361.0125 
L 204.873868 361.0125 
L 204.873868 359.31375 
L 54 359.31375 
z
" style="fill:#9467bd;"/>
   </g>
   <g id="patch_36">
    <path clip-path="url(#pe4d9479c17)" d="M 54 320.2425 
L 54 320.2425 
L 54 318.54375 
L 54 318.54375 
z
" style="fill:#9467bd;"/>
   </g>
   <g id="patch_37">
    <path clip-path="url(#pe4d9479c17)" d="M 54 279.4725 
L 54 279.4725 
L 54 277.77375 
L 54 277.77375 
z
" style="fill:#9467bd;"/>
   </g>
   <g id="patch_38">
    <path clip-path="url(#pe4d9479c17)" d="M 54 238.7025 
L 54 238.7025 
L 54 237.00375 
L 54 237.00375 
z
" style="fill:#9467bd;"/>
   </g>
   <g id="patch_39">
    <path clip-path="url(#pe4d9479c17)" d="M 54 197.9325 
L 54.518467 197.9325 
L 54.518467 196.23375 
L 54 196.23375 
z
" style="fill:#9467bd;"/>
   </g>
   <g id="patch_40">
    <path clip-path="url(#pe4d9479c17)" d="M 54 157.1625 
L 57.110801 157.1625 
L 57.110801 155.46375 
L 54 155.46375 
z
" style="fill:#9467bd;"/>
   </g>
   <g id="patch_41">
    <path clip-path="url(#pe4d9479c17)" d="M 54 116.3925 
L 55.036934 116.3925 
L 55.036934 114.69375 
L 54 114.69375 
z
" style="fill:#9467bd;"/>
   </g>
   <g id="patch_42">
    <path clip-path="url(#pe4d9479c17)" d="M 54 75.6225 
L 54 75.6225 
L 54 73.92375 
L 54 73.92375 
z
" style="fill:#9467bd;"/>
   </g>
   <g id="patch_43">
    <path clip-path="url(#pe4d9479c17)" d="M 54 359.31375 
L 227.167944 359.31375 
L 227.167944 357.615 
L 54 357.615 
z
" style="fill:#8c564b;"/>
   </g>
   <g id="patch_44">
    <path clip-path="url(#pe4d9479c17)" d="M 54 318.54375 
L 54 318.54375 
L 54 316.845 
L 54 316.845 
z
" style="fill:#8c564b;"/>
   </g>
   <g id="patch_45">
    <path clip-path="url(#pe4d9479c17)" d="M 54 277.77375 
L 54 277.77375 
L 54 276.075 
L 54 276.075 
z
" style="fill:#8c564b;"/>
   </g>
   <g id="patch_46">
    <path clip-path="url(#pe4d9479c17)" d="M 54 237.00375 
L 54 237.00375 
L 54 235.305 
L 54 235.305 
z
" style="fill:#8c564b;"/>
   </g>
   <g id="patch_47">
    <path clip-path="url(#pe4d9479c17)" d="M 54 196.23375 
L 54.518467 196.23375 
L 54.518467 194.535 
L 54 194.535 
z
" style="fill:#8c564b;"/>
   </g>
   <g id="patch_48">
    <path clip-path="url(#pe4d9479c17)" d="M 54 155.46375 
L 56.592334 155.46375 
L 56.592334 153.765 
L 54 153.765 
z
" style="fill:#8c564b;"/>
   </g>
   <g id="patch_49">
    <path clip-path="url(#pe4d9479c17)" d="M 54 114.69375 
L 56.592334 114.69375 
L 56.592334 112.995 
L 54 112.995 
z
" style="fill:#8c564b;"/>
   </g>
   <g id="patch_50">
    <path clip-path="url(#pe4d9479c17)" d="M 54 73.92375 
L 54 73.92375 
L 54 72.225 
L 54 72.225 
z
" style="fill:#8c564b;"/>
   </g>
   <g id="patch_51">
    <path clip-path="url(#pe4d9479c17)" d="M 54 357.615 
L 57.110801 357.615 
L 57.110801 355.91625 
L 54 355.91625 
z
" style="fill:#e377c2;"/>
   </g>
   <g id="patch_52">
    <path clip-path="url(#pe4d9479c17)" d="M 54 316.845 
L 54 316.845 
L 54 315.14625 
L 54 315.14625 
z
" style="fill:#e377c2;"/>
   </g>
   <g id="patch_53">
    <path clip-path="url(#pe4d9479c17)" d="M 54 276.075 
L 55.555401 276.075 
L 55.555401 274.37625 
L 54 274.37625 
z
" style="fill:#e377c2;"/>
   </g>
   <g id="patch_54">
    <path clip-path="url(#pe4d9479c17)" d="M 54 235.305 
L 220.427875 235.305 
L 220.427875 233.60625 
L 54 233.60625 
z
" style="fill:#e377c2;"/>
   </g>
   <g id="patch_55">
    <path clip-path="url(#pe4d9479c17)" d="M 54 194.535 
L 55.036934 194.535 
L 55.036934 192.83625 
L 54 192.83625 
z
" style="fill:#e377c2;"/>
   </g>
   <g id="patch_56">
    <path clip-path="url(#pe4d9479c17)" d="M 54 153.765 
L 55.555401 153.765 
L 55.555401 152.06625 
L 54 152.06625 
z
" style="fill:#e377c2;"/>
   </g>
   <g id="patch_57">
    <path clip-path="url(#pe4d9479c17)" d="M 54 112.995 
L 54 112.995 
L 54 111.29625 
L 54 111.29625 
z
" style="fill:#e377c2;"/>
   </g>
   <g id="patch_58">
    <path clip-path="url(#pe4d9479c17)" d="M 54 72.225 
L 54 72.225 
L 54 70.52625 
L 54 70.52625 
z
" style="fill:#e377c2;"/>
   </g>
   <g id="patch_59">
    <path clip-path="url(#pe4d9479c17)" d="M 54 355.91625 
L 59.184669 355.91625 
L 59.184669 354.2175 
L 54 354.2175 
z
" style="fill:#7f7f7f;"/>
   </g>
   <g id="patch_60">
    <path clip-path="url(#pe4d9479c17)" d="M 54 315.14625 
L 229.760279 315.14625 
L 229.760279 313.4475 
L 54 313.4475 
z
" style="fill:#7f7f7f;"/>
   </g>
   <g id="patch_61">
    <path clip-path="url(#pe4d9479c17)" d="M 54 274.37625 
L 54 274.37625 
L 54 272.6775 
L 54 272.6775 
z
" style="fill:#7f7f7f;"/>
   </g>
   <g id="patch_62">
    <path clip-path="url(#pe4d9479c17)" d="M 54 233.60625 
L 54 233.60625 
L 54 231.9075 
L 54 231.9075 
z
" style="fill:#7f7f7f;"/>
   </g>
   <g id="patch_63">
    <path clip-path="url(#pe4d9479c17)" d="M 54 192.83625 
L 56.592334 192.83625 
L 56.592334 191.1375 
L 54 191.1375 
z
" style="fill:#7f7f7f;"/>
   </g>
   <g id="patch_64">
    <path clip-path="url(#pe4d9479c17)" d="M 54 152.06625 
L 57.110801 152.06625 
L 57.110801 150.3675 
L 54 150.3675 
z
" style="fill:#7f7f7f;"/>
   </g>
   <g id="patch_65">
    <path clip-path="url(#pe4d9479c17)" d="M 54 111.29625 
L 54.518467 111.29625 
L 54.518467 109.5975 
L 54 109.5975 
z
" style="fill:#7f7f7f;"/>
   </g>
   <g id="patch_66">
    <path clip-path="url(#pe4d9479c17)" d="M 54 70.52625 
L 54.518467 70.52625 
L 54.518467 68.8275 
L 54 68.8275 
z
" style="fill:#7f7f7f;"/>
   </g>
   <g id="patch_67">
    <path clip-path="url(#pe4d9479c17)" d="M 54 354.2175 
L 57.110801 354.2175 
L 57.110801 352.51875 
L 54 352.51875 
z
" style="fill:#bcbd22;"/>
   </g>
   <g id="patch_68">
    <path clip-path="url(#pe4d9479c17)" d="M 54 313.4475 
L 199.689199 313.4475 
L 199.689199 311.74875 
L 54 311.74875 
z
" style="fill:#bcbd22;"/>
   </g>
   <g id="patch_69">
    <path clip-path="url(#pe4d9479c17)" d="M 54 272.6775 
L 54 272.6775 
L 54 270.97875 
L 54 270.97875 
z
" style="fill:#bcbd22;"/>
   </g>
   <g id="patch_70">
    <path clip-path="url(#pe4d9479c17)" d="M 54 231.9075 
L 54 231.9075 
L 54 230.20875 
L 54 230.20875 
z
" style="fill:#bcbd22;"/>
   </g>
   <g id="patch_71">
    <path clip-path="url(#pe4d9479c17)" d="M 54 191.1375 
L 56.073868 191.1375 
L 56.073868 189.43875 
L 54 189.43875 
z
" style="fill:#bcbd22;"/>
   </g>
   <g id="patch_72">
    <path clip-path="url(#pe4d9479c17)" d="M 54 150.3675 
L 56.073868 150.3675 
L 56.073868 148.66875 
L 54 148.66875 
z
" style="fill:#bcbd22;"/>
   </g>
   <g id="patch_73">
    <path clip-path="url(#pe4d9479c17)" d="M 54 109.5975 
L 54 109.5975 
L 54 107.89875 
L 54 107.89875 
z
" style="fill:#bcbd22;"/>
   </g>
   <g id="patch_74">
    <path clip-path="url(#pe4d9479c17)" d="M 54 68.8275 
L 54 68.8275 
L 54 67.12875 
L 54 67.12875 
z
" style="fill:#bcbd22;"/>
   </g>
   <g id="patch_75">
    <path clip-path="url(#pe4d9479c17)" d="M 54 352.51875 
L 56.073868 352.51875 
L 56.073868 350.82 
L 54 350.82 
z
" style="fill:#17becf;"/>
   </g>
   <g id="patch_76">
    <path clip-path="url(#pe4d9479c17)" d="M 54 311.74875 
L 54 311.74875 
L 54 310.05 
L 54 310.05 
z
" style="fill:#17becf;"/>
   </g>
   <g id="patch_77">
    <path clip-path="url(#pe4d9479c17)" d="M 54 270.97875 
L 133.843902 270.97875 
L 133.843902 269.28 
L 54 269.28 
z
" style="fill:#17becf;"/>
   </g>
   <g id="patch_78">
    <path clip-path="url(#pe4d9479c17)" d="M 54 230.20875 
L 54 230.20875 
L 54 228.51 
L 54 228.51 
z
" style="fill:#17becf;"/>
   </g>
   <g id="patch_79">
    <path clip-path="url(#pe4d9479c17)" d="M 54 189.43875 
L 54.518467 189.43875 
L 54.518467 187.74 
L 54 187.74 
z
" style="fill:#17becf;"/>
   </g>
   <g id="patch_80">
    <path clip-path="url(#pe4d9479c17)" d="M 54 148.66875 
L 55.036934 148.66875 
L 55.036934 146.97 
L 54 146.97 
z
" style="fill:#17becf;"/>
   </g>
   <g id="patch_81">
    <path clip-path="url(#pe4d9479c17)" d="M 54 107.89875 
L 56.073868 107.89875 
L 56.073868 106.2 
L 54 106.2 
z
" style="fill:#17becf;"/>
   </g>
   <g id="patch_82">
    <path clip-path="url(#pe4d9479c17)" d="M 54 67.12875 
L 54 67.12875 
L 54 65.43 
L 54 65.43 
z
" style="fill:#17becf;"/>
   </g>
   <g id="patch_83">
    <path clip-path="url(#pe4d9479c17)" d="M 54 350.82 
L 118.289895 350.82 
L 118.289895 349.12125 
L 54 349.12125 
z
" style="fill:#1f77b4;"/>
   </g>
   <g id="patch_84">
    <path clip-path="url(#pe4d9479c17)" d="M 54 310.05 
L 54 310.05 
L 54 308.35125 
L 54 308.35125 
z
" style="fill:#1f77b4;"/>
   </g>
   <g id="patch_85">
    <path clip-path="url(#pe4d9479c17)" d="M 54 269.28 
L 54 269.28 
L 54 267.58125 
L 54 267.58125 
z
" style="fill:#1f77b4;"/>
   </g>
   <g id="patch_86">
    <path clip-path="url(#pe4d9479c17)" d="M 54 228.51 
L 54 228.51 
L 54 226.81125 
L 54 226.81125 
z
" style="fill:#1f77b4;"/>
   </g>
   <g id="patch_87">
    <path clip-path="url(#pe4d9479c17)" d="M 54 187.74 
L 56.592334 187.74 
L 56.592334 186.04125 
L 54 186.04125 
z
" style="fill:#1f77b4;"/>
   </g>
   <g id="patch_88">
    <path clip-path="url(#pe4d9479c17)" d="M 54 146.97 
L 55.555401 146.97 
L 55.555401 145.27125 
L 54 145.27125 
z
" style="fill:#1f77b4;"/>
   </g>
   <g id="patch_89">
    <path clip-path="url(#pe4d9479c17)" d="M 54 106.2 
L 55.036934 106.2 
L 55.036934 104.50125 
L 54 104.50125 
z
" style="fill:#1f77b4;"/>
   </g>
   <g id="patch_90">
    <path clip-path="url(#pe4d9479c17)" d="M 54 65.43 
L 54.518467 65.43 
L 54.518467 63.73125 
L 54 63.73125 
z
" style="fill:#1f77b4;"/>
   </g>
   <g id="patch_91">
    <path clip-path="url(#pe4d9479c17)" d="M 54 349.12125 
L 148.879443 349.12125 
L 148.879443 347.4225 
L 54 347.4225 
z
" style="fill:#ff7f0e;"/>
   </g>
   <g id="patch_92">
    <path clip-path="url(#pe4d9479c17)" d="M 54 308.35125 
L 54 308.35125 
L 54 306.6525 
L 54 306.6525 
z
" style="fill:#ff7f0e;"/>
   </g>
   <g id="patch_93">
    <path clip-path="url(#pe4d9479c17)" d="M 54 267.58125 
L 54 267.58125 
L 54 265.8825 
L 54 265.8825 
z
" style="fill:#ff7f0e;"/>
   </g>
   <g id="patch_94">
    <path clip-path="url(#pe4d9479c17)" d="M 54 226.81125 
L 54 226.81125 
L 54 225.1125 
L 54 225.1125 
z
" style="fill:#ff7f0e;"/>
   </g>
   <g id="patch_95">
    <path clip-path="url(#pe4d9479c17)" d="M 54 186.04125 
L 58.147735 186.04125 
L 58.147735 184.3425 
L 54 184.3425 
z
" style="fill:#ff7f0e;"/>
   </g>
   <g id="patch_96">
    <path clip-path="url(#pe4d9479c17)" d="M 54 145.27125 
L 56.592334 145.27125 
L 56.592334 143.5725 
L 54 143.5725 
z
" style="fill:#ff7f0e;"/>
   </g>
   <g id="patch_97">
    <path clip-path="url(#pe4d9479c17)" d="M 54 104.50125 
L 56.073868 104.50125 
L 56.073868 102.8025 
L 54 102.8025 
z
" style="fill:#ff7f0e;"/>
   </g>
   <g id="patch_98">
    <path clip-path="url(#pe4d9479c17)" d="M 54 63.73125 
L 54 63.73125 
L 54 62.0325 
L 54 62.0325 
z
" style="fill:#ff7f0e;"/>
   </g>
   <g id="matplotlib.axis_1">
    <g id="xtick_1">
     <g id="line2d_1">
      <defs>
       <path d="M 0 0 
L 0 3.5 
" id="mc0359e3d03" style="stroke:#000000;stroke-width:0.8;"/>
      </defs>
      <g>
       <use style="stroke:#000000;stroke-width:0.8;" x="54" xlink:href="#mc0359e3d03" y="378"/>
      </g>
     </g>
     <g id="text_1">
      <!-- 0 -->
      <g transform="translate(50.81875 392.598437)scale(0.1 -0.1)">
       <defs>
        <path d="M 31.78125 66.40625 
Q 24.171875 66.40625 20.328125 58.90625 
Q 16.5 51.421875 16.5 36.375 
Q 16.5 21.390625 20.328125 13.890625 
Q 24.171875 6.390625 31.78125 6.390625 
Q 39.453125 6.390625 43.28125 13.890625 
Q 47.125 21.390625 47.125 36.375 
Q 47.125 51.421875 43.28125 58.90625 
Q 39.453125 66.40625 31.78125 66.40625 
z
M 31.78125 74.21875 
Q 44.046875 74.21875 50.515625 64.515625 
Q 56.984375 54.828125 56.984375 36.375 
Q 56.984375 17.96875 50.515625 8.265625 
Q 44.046875 -1.421875 31.78125 -1.421875 
Q 19.53125 -1.421875 13.0625 8.265625 
Q 6.59375 17.96875 6.59375 36.375 
Q 6.59375 54.828125 13.0625 64.515625 
Q 19.53125 74.21875 31.78125 74.21875 
z
" id="DejaVuSans-48"/>
       </defs>
       <use xlink:href="#DejaVuSans-48"/>
      </g>
     </g>
    </g>
    <g id="xtick_2">
     <g id="line2d_2">
      <g>
       <use style="stroke:#000000;stroke-width:0.8;" x="105.84669" xlink:href="#mc0359e3d03" y="378"/>
      </g>
     </g>
     <g id="text_2">
      <!-- 100 -->
      <g transform="translate(96.30294 392.598437)scale(0.1 -0.1)">
       <defs>
        <path d="M 12.40625 8.296875 
L 28.515625 8.296875 
L 28.515625 63.921875 
L 10.984375 60.40625 
L 10.984375 69.390625 
L 28.421875 72.90625 
L 38.28125 72.90625 
L 38.28125 8.296875 
L 54.390625 8.296875 
L 54.390625 0 
L 12.40625 0 
z
" id="DejaVuSans-49"/>
       </defs>
       <use xlink:href="#DejaVuSans-49"/>
       <use x="63.623047" xlink:href="#DejaVuSans-48"/>
       <use x="127.246094" xlink:href="#DejaVuSans-48"/>
      </g>
     </g>
    </g>
    <g id="xtick_3">
     <g id="line2d_3">
      <g>
       <use style="stroke:#000000;stroke-width:0.8;" x="157.69338" xlink:href="#mc0359e3d03" y="378"/>
      </g>
     </g>
     <g id="text_3">
      <!-- 200 -->
      <g transform="translate(148.14963 392.598437)scale(0.1 -0.1)">
       <defs>
        <path d="M 19.1875 8.296875 
L 53.609375 8.296875 
L 53.609375 0 
L 7.328125 0 
L 7.328125 8.296875 
Q 12.9375 14.109375 22.625 23.890625 
Q 32.328125 33.6875 34.8125 36.53125 
Q 39.546875 41.84375 41.421875 45.53125 
Q 43.3125 49.21875 43.3125 52.78125 
Q 43.3125 58.59375 39.234375 62.25 
Q 35.15625 65.921875 28.609375 65.921875 
Q 23.96875 65.921875 18.8125 64.3125 
Q 13.671875 62.703125 7.8125 59.421875 
L 7.8125 69.390625 
Q 13.765625 71.78125 18.9375 73 
Q 24.125 74.21875 28.421875 74.21875 
Q 39.75 74.21875 46.484375 68.546875 
Q 53.21875 62.890625 53.21875 53.421875 
Q 53.21875 48.921875 51.53125 44.890625 
Q 49.859375 40.875 45.40625 35.40625 
Q 44.1875 33.984375 37.640625 27.21875 
Q 31.109375 20.453125 19.1875 8.296875 
z
" id="DejaVuSans-50"/>
       </defs>
       <use xlink:href="#DejaVuSans-50"/>
       <use x="63.623047" xlink:href="#DejaVuSans-48"/>
       <use x="127.246094" xlink:href="#DejaVuSans-48"/>
      </g>
     </g>
    </g>
    <g id="xtick_4">
     <g id="line2d_4">
      <g>
       <use style="stroke:#000000;stroke-width:0.8;" x="209.54007" xlink:href="#mc0359e3d03" y="378"/>
      </g>
     </g>
     <g id="text_4">
      <!-- 300 -->
      <g transform="translate(199.99632 392.598437)scale(0.1 -0.1)">
       <defs>
        <path d="M 40.578125 39.3125 
Q 47.65625 37.796875 51.625 33 
Q 55.609375 28.21875 55.609375 21.1875 
Q 55.609375 10.40625 48.1875 4.484375 
Q 40.765625 -1.421875 27.09375 -1.421875 
Q 22.515625 -1.421875 17.65625 -0.515625 
Q 12.796875 0.390625 7.625 2.203125 
L 7.625 11.71875 
Q 11.71875 9.328125 16.59375 8.109375 
Q 21.484375 6.890625 26.8125 6.890625 
Q 36.078125 6.890625 40.9375 10.546875 
Q 45.796875 14.203125 45.796875 21.1875 
Q 45.796875 27.640625 41.28125 31.265625 
Q 36.765625 34.90625 28.71875 34.90625 
L 20.21875 34.90625 
L 20.21875 43.015625 
L 29.109375 43.015625 
Q 36.375 43.015625 40.234375 45.921875 
Q 44.09375 48.828125 44.09375 54.296875 
Q 44.09375 59.90625 40.109375 62.90625 
Q 36.140625 65.921875 28.71875 65.921875 
Q 24.65625 65.921875 20.015625 65.03125 
Q 15.375 64.15625 9.8125 62.3125 
L 9.8125 71.09375 
Q 15.4375 72.65625 20.34375 73.4375 
Q 25.25 74.21875 29.59375 74.21875 
Q 40.828125 74.21875 47.359375 69.109375 
Q 53.90625 64.015625 53.90625 55.328125 
Q 53.90625 49.265625 50.4375 45.09375 
Q 46.96875 40.921875 40.578125 39.3125 
z
" id="DejaVuSans-51"/>
       </defs>
       <use xlink:href="#DejaVuSans-51"/>
       <use x="63.623047" xlink:href="#DejaVuSans-48"/>
       <use x="127.246094" xlink:href="#DejaVuSans-48"/>
      </g>
     </g>
    </g>
    <g id="xtick_5">
     <g id="line2d_5">
      <g>
       <use style="stroke:#000000;stroke-width:0.8;" x="261.38676" xlink:href="#mc0359e3d03" y="378"/>
      </g>
     </g>
     <g id="text_5">
      <!-- 400 -->
      <g transform="translate(251.84301 392.598437)scale(0.1 -0.1)">
       <defs>
        <path d="M 37.796875 64.3125 
L 12.890625 25.390625 
L 37.796875 25.390625 
z
M 35.203125 72.90625 
L 47.609375 72.90625 
L 47.609375 25.390625 
L 58.015625 25.390625 
L 58.015625 17.1875 
L 47.609375 17.1875 
L 47.609375 0 
L 37.796875 0 
L 37.796875 17.1875 
L 4.890625 17.1875 
L 4.890625 26.703125 
z
" id="DejaVuSans-52"/>
       </defs>
       <use xlink:href="#DejaVuSans-52"/>
       <use x="63.623047" xlink:href="#DejaVuSans-48"/>
       <use x="127.246094" xlink:href="#DejaVuSans-48"/>
      </g>
     </g>
    </g>
    <g id="xtick_6">
     <g id="line2d_6">
      <g>
       <use style="stroke:#000000;stroke-width:0.8;" x="313.233449" xlink:href="#mc0359e3d03" y="378"/>
      </g>
     </g>
     <g id="text_6">
      <!-- 500 -->
      <g transform="translate(303.689699 392.598437)scale(0.1 -0.1)">
       <defs>
        <path d="M 10.796875 72.90625 
L 49.515625 72.90625 
L 49.515625 64.59375 
L 19.828125 64.59375 
L 19.828125 46.734375 
Q 21.96875 47.46875 24.109375 47.828125 
Q 26.265625 48.1875 28.421875 48.1875 
Q 40.625 48.1875 47.75 41.5 
Q 54.890625 34.8125 54.890625 23.390625 
Q 54.890625 11.625 47.5625 5.09375 
Q 40.234375 -1.421875 26.90625 -1.421875 
Q 22.3125 -1.421875 17.546875 -0.640625 
Q 12.796875 0.140625 7.71875 1.703125 
L 7.71875 11.625 
Q 12.109375 9.234375 16.796875 8.0625 
Q 21.484375 6.890625 26.703125 6.890625 
Q 35.15625 6.890625 40.078125 11.328125 
Q 45.015625 15.765625 45.015625 23.390625 
Q 45.015625 31 40.078125 35.4375 
Q 35.15625 39.890625 26.703125 39.890625 
Q 22.75 39.890625 18.8125 39.015625 
Q 14.890625 38.140625 10.796875 36.28125 
z
" id="DejaVuSans-53"/>
       </defs>
       <use xlink:href="#DejaVuSans-53"/>
       <use x="63.623047" xlink:href="#DejaVuSans-48"/>
       <use x="127.246094" xlink:href="#DejaVuSans-48"/>
      </g>
     </g>
    </g>
    <g id="xtick_7">
     <g id="line2d_7">
      <g>
       <use style="stroke:#000000;stroke-width:0.8;" x="365.080139" xlink:href="#mc0359e3d03" y="378"/>
      </g>
     </g>
     <g id="text_7">
      <!-- 600 -->
      <g transform="translate(355.536389 392.598437)scale(0.1 -0.1)">
       <defs>
        <path d="M 33.015625 40.375 
Q 26.375 40.375 22.484375 35.828125 
Q 18.609375 31.296875 18.609375 23.390625 
Q 18.609375 15.53125 22.484375 10.953125 
Q 26.375 6.390625 33.015625 6.390625 
Q 39.65625 6.390625 43.53125 10.953125 
Q 47.40625 15.53125 47.40625 23.390625 
Q 47.40625 31.296875 43.53125 35.828125 
Q 39.65625 40.375 33.015625 40.375 
z
M 52.59375 71.296875 
L 52.59375 62.3125 
Q 48.875 64.0625 45.09375 64.984375 
Q 41.3125 65.921875 37.59375 65.921875 
Q 27.828125 65.921875 22.671875 59.328125 
Q 17.53125 52.734375 16.796875 39.40625 
Q 19.671875 43.65625 24.015625 45.921875 
Q 28.375 48.1875 33.59375 48.1875 
Q 44.578125 48.1875 50.953125 41.515625 
Q 57.328125 34.859375 57.328125 23.390625 
Q 57.328125 12.15625 50.6875 5.359375 
Q 44.046875 -1.421875 33.015625 -1.421875 
Q 20.359375 -1.421875 13.671875 8.265625 
Q 6.984375 17.96875 6.984375 36.375 
Q 6.984375 53.65625 15.1875 63.9375 
Q 23.390625 74.21875 37.203125 74.21875 
Q 40.921875 74.21875 44.703125 73.484375 
Q 48.484375 72.75 52.59375 71.296875 
z
" id="DejaVuSans-54"/>
       </defs>
       <use xlink:href="#DejaVuSans-54"/>
       <use x="63.623047" xlink:href="#DejaVuSans-48"/>
       <use x="127.246094" xlink:href="#DejaVuSans-48"/>
      </g>
     </g>
    </g>
   </g>
   <g id="matplotlib.axis_2">
    <g id="ytick_1">
     <g id="line2d_8">
      <defs>
       <path d="M 0 0 
L -3.5 0 
" id="md412577250" style="stroke:#000000;stroke-width:0.8;"/>
      </defs>
      <g>
       <use style="stroke:#000000;stroke-width:0.8;" x="54" xlink:href="#md412577250" y="357.615"/>
      </g>
     </g>
     <g id="text_8">
      <!-- 0 -->
      <g transform="translate(40.6375 361.414219)scale(0.1 -0.1)">
       <use xlink:href="#DejaVuSans-48"/>
      </g>
     </g>
    </g>
    <g id="ytick_2">
     <g id="line2d_9">
      <g>
       <use style="stroke:#000000;stroke-width:0.8;" x="54" xlink:href="#md412577250" y="316.845"/>
      </g>
     </g>
     <g id="text_9">
      <!-- 1 -->
      <g transform="translate(40.6375 320.644219)scale(0.1 -0.1)">
       <use xlink:href="#DejaVuSans-49"/>
      </g>
     </g>
    </g>
    <g id="ytick_3">
     <g id="line2d_10">
      <g>
       <use style="stroke:#000000;stroke-width:0.8;" x="54" xlink:href="#md412577250" y="276.075"/>
      </g>
     </g>
     <g id="text_10">
      <!-- 2 -->
      <g transform="translate(40.6375 279.874219)scale(0.1 -0.1)">
       <use xlink:href="#DejaVuSans-50"/>
      </g>
     </g>
    </g>
    <g id="ytick_4">
     <g id="line2d_11">
      <g>
       <use style="stroke:#000000;stroke-width:0.8;" x="54" xlink:href="#md412577250" y="235.305"/>
      </g>
     </g>
     <g id="text_11">
      <!-- 3 -->
      <g transform="translate(40.6375 239.104219)scale(0.1 -0.1)">
       <use xlink:href="#DejaVuSans-51"/>
      </g>
     </g>
    </g>
    <g id="ytick_5">
     <g id="line2d_12">
      <g>
       <use style="stroke:#000000;stroke-width:0.8;" x="54" xlink:href="#md412577250" y="194.535"/>
      </g>
     </g>
     <g id="text_12">
      <!-- 4 -->
      <g transform="translate(40.6375 198.334219)scale(0.1 -0.1)">
       <use xlink:href="#DejaVuSans-52"/>
      </g>
     </g>
    </g>
    <g id="ytick_6">
     <g id="line2d_13">
      <g>
       <use style="stroke:#000000;stroke-width:0.8;" x="54" xlink:href="#md412577250" y="153.765"/>
      </g>
     </g>
     <g id="text_13">
      <!-- 5 -->
      <g transform="translate(40.6375 157.564219)scale(0.1 -0.1)">
       <use xlink:href="#DejaVuSans-53"/>
      </g>
     </g>
    </g>
    <g id="ytick_7">
     <g id="line2d_14">
      <g>
       <use style="stroke:#000000;stroke-width:0.8;" x="54" xlink:href="#md412577250" y="112.995"/>
      </g>
     </g>
     <g id="text_14">
      <!-- 6 -->
      <g transform="translate(40.6375 116.794219)scale(0.1 -0.1)">
       <use xlink:href="#DejaVuSans-54"/>
      </g>
     </g>
    </g>
    <g id="ytick_8">
     <g id="line2d_15">
      <g>
       <use style="stroke:#000000;stroke-width:0.8;" x="54" xlink:href="#md412577250" y="72.225"/>
      </g>
     </g>
     <g id="text_15">
      <!-- 7 -->
      <g transform="translate(40.6375 76.024219)scale(0.1 -0.1)">
       <defs>
        <path d="M 8.203125 72.90625 
L 55.078125 72.90625 
L 55.078125 68.703125 
L 28.609375 0 
L 18.3125 0 
L 43.21875 64.59375 
L 8.203125 64.59375 
z
" id="DejaVuSans-55"/>
       </defs>
       <use xlink:href="#DejaVuSans-55"/>
      </g>
     </g>
    </g>
    <g id="text_16">
     <!-- cluster -->
     <g transform="translate(34.557812 231.923906)rotate(-90)scale(0.1 -0.1)">
      <defs>
       <path d="M 48.78125 52.59375 
L 48.78125 44.1875 
Q 44.96875 46.296875 41.140625 47.34375 
Q 37.3125 48.390625 33.40625 48.390625 
Q 24.65625 48.390625 19.8125 42.84375 
Q 14.984375 37.3125 14.984375 27.296875 
Q 14.984375 17.28125 19.8125 11.734375 
Q 24.65625 6.203125 33.40625 6.203125 
Q 37.3125 6.203125 41.140625 7.25 
Q 44.96875 8.296875 48.78125 10.40625 
L 48.78125 2.09375 
Q 45.015625 0.34375 40.984375 -0.53125 
Q 36.96875 -1.421875 32.421875 -1.421875 
Q 20.0625 -1.421875 12.78125 6.34375 
Q 5.515625 14.109375 5.515625 27.296875 
Q 5.515625 40.671875 12.859375 48.328125 
Q 20.21875 56 33.015625 56 
Q 37.15625 56 41.109375 55.140625 
Q 45.0625 54.296875 48.78125 52.59375 
z
" id="DejaVuSans-99"/>
       <path d="M 9.421875 75.984375 
L 18.40625 75.984375 
L 18.40625 0 
L 9.421875 0 
z
" id="DejaVuSans-108"/>
       <path d="M 8.5 21.578125 
L 8.5 54.6875 
L 17.484375 54.6875 
L 17.484375 21.921875 
Q 17.484375 14.15625 20.5 10.265625 
Q 23.53125 6.390625 29.59375 6.390625 
Q 36.859375 6.390625 41.078125 11.03125 
Q 45.3125 15.671875 45.3125 23.6875 
L 45.3125 54.6875 
L 54.296875 54.6875 
L 54.296875 0 
L 45.3125 0 
L 45.3125 8.40625 
Q 42.046875 3.421875 37.71875 1 
Q 33.40625 -1.421875 27.6875 -1.421875 
Q 18.265625 -1.421875 13.375 4.4375 
Q 8.5 10.296875 8.5 21.578125 
z
M 31.109375 56 
z
" id="DejaVuSans-117"/>
       <path d="M 44.28125 53.078125 
L 44.28125 44.578125 
Q 40.484375 46.53125 36.375 47.5 
Q 32.28125 48.484375 27.875 48.484375 
Q 21.1875 48.484375 17.84375 46.4375 
Q 14.5 44.390625 14.5 40.28125 
Q 14.5 37.15625 16.890625 35.375 
Q 19.28125 33.59375 26.515625 31.984375 
L 29.59375 31.296875 
Q 39.15625 29.25 43.1875 25.515625 
Q 47.21875 21.78125 47.21875 15.09375 
Q 47.21875 7.46875 41.1875 3.015625 
Q 35.15625 -1.421875 24.609375 -1.421875 
Q 20.21875 -1.421875 15.453125 -0.5625 
Q 10.6875 0.296875 5.421875 2 
L 5.421875 11.28125 
Q 10.40625 8.6875 15.234375 7.390625 
Q 20.0625 6.109375 24.8125 6.109375 
Q 31.15625 6.109375 34.5625 8.28125 
Q 37.984375 10.453125 37.984375 14.40625 
Q 37.984375 18.0625 35.515625 20.015625 
Q 33.0625 21.96875 24.703125 23.78125 
L 21.578125 24.515625 
Q 13.234375 26.265625 9.515625 29.90625 
Q 5.8125 33.546875 5.8125 39.890625 
Q 5.8125 47.609375 11.28125 51.796875 
Q 16.75 56 26.8125 56 
Q 31.78125 56 36.171875 55.265625 
Q 40.578125 54.546875 44.28125 53.078125 
z
" id="DejaVuSans-115"/>
       <path d="M 18.3125 70.21875 
L 18.3125 54.6875 
L 36.8125 54.6875 
L 36.8125 47.703125 
L 18.3125 47.703125 
L 18.3125 18.015625 
Q 18.3125 11.328125 20.140625 9.421875 
Q 21.96875 7.515625 27.59375 7.515625 
L 36.8125 7.515625 
L 36.8125 0 
L 27.59375 0 
Q 17.1875 0 13.234375 3.875 
Q 9.28125 7.765625 9.28125 18.015625 
L 9.28125 47.703125 
L 2.6875 47.703125 
L 2.6875 54.6875 
L 9.28125 54.6875 
L 9.28125 70.21875 
z
" id="DejaVuSans-116"/>
       <path d="M 56.203125 29.59375 
L 56.203125 25.203125 
L 14.890625 25.203125 
Q 15.484375 15.921875 20.484375 11.0625 
Q 25.484375 6.203125 34.421875 6.203125 
Q 39.59375 6.203125 44.453125 7.46875 
Q 49.3125 8.734375 54.109375 11.28125 
L 54.109375 2.78125 
Q 49.265625 0.734375 44.1875 -0.34375 
Q 39.109375 -1.421875 33.890625 -1.421875 
Q 20.796875 -1.421875 13.15625 6.1875 
Q 5.515625 13.8125 5.515625 26.8125 
Q 5.515625 40.234375 12.765625 48.109375 
Q 20.015625 56 32.328125 56 
Q 43.359375 56 49.78125 48.890625 
Q 56.203125 41.796875 56.203125 29.59375 
z
M 47.21875 32.234375 
Q 47.125 39.59375 43.09375 43.984375 
Q 39.0625 48.390625 32.421875 48.390625 
Q 24.90625 48.390625 20.390625 44.140625 
Q 15.875 39.890625 15.1875 32.171875 
z
" id="DejaVuSans-101"/>
       <path d="M 41.109375 46.296875 
Q 39.59375 47.171875 37.8125 47.578125 
Q 36.03125 48 33.890625 48 
Q 26.265625 48 22.1875 43.046875 
Q 18.109375 38.09375 18.109375 28.8125 
L 18.109375 0 
L 9.078125 0 
L 9.078125 54.6875 
L 18.109375 54.6875 
L 18.109375 46.1875 
Q 20.953125 51.171875 25.484375 53.578125 
Q 30.03125 56 36.53125 56 
Q 37.453125 56 38.578125 55.875 
Q 39.703125 55.765625 41.0625 55.515625 
z
" id="DejaVuSans-114"/>
      </defs>
      <use xlink:href="#DejaVuSans-99"/>
      <use x="54.980469" xlink:href="#DejaVuSans-108"/>
      <use x="82.763672" xlink:href="#DejaVuSans-117"/>
      <use x="146.142578" xlink:href="#DejaVuSans-115"/>
      <use x="198.242188" xlink:href="#DejaVuSans-116"/>
      <use x="237.451172" xlink:href="#DejaVuSans-101"/>
      <use x="298.974609" xlink:href="#DejaVuSans-114"/>
     </g>
    </g>
   </g>
   <g id="patch_99">
    <path d="M 54 378 
L 54 51.84 
" style="fill:none;stroke:#000000;stroke-linecap:square;stroke-linejoin:miter;stroke-width:0.8;"/>
   </g>
   <g id="patch_100">
    <path d="M 388.8 378 
L 388.8 51.84 
" style="fill:none;stroke:#000000;stroke-linecap:square;stroke-linejoin:miter;stroke-width:0.8;"/>
   </g>
   <g id="patch_101">
    <path d="M 54 378 
L 388.8 378 
" style="fill:none;stroke:#000000;stroke-linecap:square;stroke-linejoin:miter;stroke-width:0.8;"/>
   </g>
   <g id="patch_102">
    <path d="M 54 51.84 
L 388.8 51.84 
" style="fill:none;stroke:#000000;stroke-linecap:square;stroke-linejoin:miter;stroke-width:0.8;"/>
   </g>
   <g id="legend_1">
    <g id="patch_103">
     <path d="M 244.6875 250.655625 
L 381.8 250.655625 
Q 383.8 250.655625 383.8 248.655625 
L 383.8 58.84 
Q 383.8 56.84 381.8 56.84 
L 244.6875 56.84 
Q 242.6875 56.84 242.6875 58.84 
L 242.6875 248.655625 
Q 242.6875 250.655625 244.6875 250.655625 
z
" style="fill:#ffffff;opacity:0.8;stroke:#cccccc;stroke-linejoin:miter;"/>
    </g>
    <g id="text_17">
     <!-- requestType -->
     <g transform="translate(282.757031 68.438437)scale(0.1 -0.1)">
      <defs>
       <path d="M 14.796875 27.296875 
Q 14.796875 17.390625 18.875 11.75 
Q 22.953125 6.109375 30.078125 6.109375 
Q 37.203125 6.109375 41.296875 11.75 
Q 45.40625 17.390625 45.40625 27.296875 
Q 45.40625 37.203125 41.296875 42.84375 
Q 37.203125 48.484375 30.078125 48.484375 
Q 22.953125 48.484375 18.875 42.84375 
Q 14.796875 37.203125 14.796875 27.296875 
z
M 45.40625 8.203125 
Q 42.578125 3.328125 38.25 0.953125 
Q 33.9375 -1.421875 27.875 -1.421875 
Q 17.96875 -1.421875 11.734375 6.484375 
Q 5.515625 14.40625 5.515625 27.296875 
Q 5.515625 40.1875 11.734375 48.09375 
Q 17.96875 56 27.875 56 
Q 33.9375 56 38.25 53.625 
Q 42.578125 51.265625 45.40625 46.390625 
L 45.40625 54.6875 
L 54.390625 54.6875 
L 54.390625 -20.796875 
L 45.40625 -20.796875 
z
" id="DejaVuSans-113"/>
       <path d="M -0.296875 72.90625 
L 61.375 72.90625 
L 61.375 64.59375 
L 35.5 64.59375 
L 35.5 0 
L 25.59375 0 
L 25.59375 64.59375 
L -0.296875 64.59375 
z
" id="DejaVuSans-84"/>
       <path d="M 32.171875 -5.078125 
Q 28.375 -14.84375 24.75 -17.8125 
Q 21.140625 -20.796875 15.09375 -20.796875 
L 7.90625 -20.796875 
L 7.90625 -13.28125 
L 13.1875 -13.28125 
Q 16.890625 -13.28125 18.9375 -11.515625 
Q 21 -9.765625 23.484375 -3.21875 
L 25.09375 0.875 
L 2.984375 54.6875 
L 12.5 54.6875 
L 29.59375 11.921875 
L 46.6875 54.6875 
L 56.203125 54.6875 
z
" id="DejaVuSans-121"/>
       <path d="M 18.109375 8.203125 
L 18.109375 -20.796875 
L 9.078125 -20.796875 
L 9.078125 54.6875 
L 18.109375 54.6875 
L 18.109375 46.390625 
Q 20.953125 51.265625 25.265625 53.625 
Q 29.59375 56 35.59375 56 
Q 45.5625 56 51.78125 48.09375 
Q 58.015625 40.1875 58.015625 27.296875 
Q 58.015625 14.40625 51.78125 6.484375 
Q 45.5625 -1.421875 35.59375 -1.421875 
Q 29.59375 -1.421875 25.265625 0.953125 
Q 20.953125 3.328125 18.109375 8.203125 
z
M 48.6875 27.296875 
Q 48.6875 37.203125 44.609375 42.84375 
Q 40.53125 48.484375 33.40625 48.484375 
Q 26.265625 48.484375 22.1875 42.84375 
Q 18.109375 37.203125 18.109375 27.296875 
Q 18.109375 17.390625 22.1875 11.75 
Q 26.265625 6.109375 33.40625 6.109375 
Q 40.53125 6.109375 44.609375 11.75 
Q 48.6875 17.390625 48.6875 27.296875 
z
" id="DejaVuSans-112"/>
      </defs>
      <use xlink:href="#DejaVuSans-114"/>
      <use x="38.863281" xlink:href="#DejaVuSans-101"/>
      <use x="100.386719" xlink:href="#DejaVuSans-113"/>
      <use x="163.863281" xlink:href="#DejaVuSans-117"/>
      <use x="227.242188" xlink:href="#DejaVuSans-101"/>
      <use x="288.765625" xlink:href="#DejaVuSans-115"/>
      <use x="340.865234" xlink:href="#DejaVuSans-116"/>
      <use x="380.074219" xlink:href="#DejaVuSans-84"/>
      <use x="425.533203" xlink:href="#DejaVuSans-121"/>
      <use x="484.712891" xlink:href="#DejaVuSans-112"/>
      <use x="548.189453" xlink:href="#DejaVuSans-101"/>
     </g>
    </g>
    <g id="patch_104">
     <path d="M 246.6875 83.116562 
L 266.6875 83.116562 
L 266.6875 76.116562 
L 246.6875 76.116562 
z
" style="fill:#1f77b4;"/>
    </g>
    <g id="text_18">
     <!-- fast - high - large -->
     <g transform="translate(274.6875 83.116562)scale(0.1 -0.1)">
      <defs>
       <path d="M 37.109375 75.984375 
L 37.109375 68.5 
L 28.515625 68.5 
Q 23.6875 68.5 21.796875 66.546875 
Q 19.921875 64.59375 19.921875 59.515625 
L 19.921875 54.6875 
L 34.71875 54.6875 
L 34.71875 47.703125 
L 19.921875 47.703125 
L 19.921875 0 
L 10.890625 0 
L 10.890625 47.703125 
L 2.296875 47.703125 
L 2.296875 54.6875 
L 10.890625 54.6875 
L 10.890625 58.5 
Q 10.890625 67.625 15.140625 71.796875 
Q 19.390625 75.984375 28.609375 75.984375 
z
" id="DejaVuSans-102"/>
       <path d="M 34.28125 27.484375 
Q 23.390625 27.484375 19.1875 25 
Q 14.984375 22.515625 14.984375 16.5 
Q 14.984375 11.71875 18.140625 8.90625 
Q 21.296875 6.109375 26.703125 6.109375 
Q 34.1875 6.109375 38.703125 11.40625 
Q 43.21875 16.703125 43.21875 25.484375 
L 43.21875 27.484375 
z
M 52.203125 31.203125 
L 52.203125 0 
L 43.21875 0 
L 43.21875 8.296875 
Q 40.140625 3.328125 35.546875 0.953125 
Q 30.953125 -1.421875 24.3125 -1.421875 
Q 15.921875 -1.421875 10.953125 3.296875 
Q 6 8.015625 6 15.921875 
Q 6 25.140625 12.171875 29.828125 
Q 18.359375 34.515625 30.609375 34.515625 
L 43.21875 34.515625 
L 43.21875 35.40625 
Q 43.21875 41.609375 39.140625 45 
Q 35.0625 48.390625 27.6875 48.390625 
Q 23 48.390625 18.546875 47.265625 
Q 14.109375 46.140625 10.015625 43.890625 
L 10.015625 52.203125 
Q 14.9375 54.109375 19.578125 55.046875 
Q 24.21875 56 28.609375 56 
Q 40.484375 56 46.34375 49.84375 
Q 52.203125 43.703125 52.203125 31.203125 
z
" id="DejaVuSans-97"/>
       <path id="DejaVuSans-32"/>
       <path d="M 4.890625 31.390625 
L 31.203125 31.390625 
L 31.203125 23.390625 
L 4.890625 23.390625 
z
" id="DejaVuSans-45"/>
       <path d="M 54.890625 33.015625 
L 54.890625 0 
L 45.90625 0 
L 45.90625 32.71875 
Q 45.90625 40.484375 42.875 44.328125 
Q 39.84375 48.1875 33.796875 48.1875 
Q 26.515625 48.1875 22.3125 43.546875 
Q 18.109375 38.921875 18.109375 30.90625 
L 18.109375 0 
L 9.078125 0 
L 9.078125 75.984375 
L 18.109375 75.984375 
L 18.109375 46.1875 
Q 21.34375 51.125 25.703125 53.5625 
Q 30.078125 56 35.796875 56 
Q 45.21875 56 50.046875 50.171875 
Q 54.890625 44.34375 54.890625 33.015625 
z
" id="DejaVuSans-104"/>
       <path d="M 9.421875 54.6875 
L 18.40625 54.6875 
L 18.40625 0 
L 9.421875 0 
z
M 9.421875 75.984375 
L 18.40625 75.984375 
L 18.40625 64.59375 
L 9.421875 64.59375 
z
" id="DejaVuSans-105"/>
       <path d="M 45.40625 27.984375 
Q 45.40625 37.75 41.375 43.109375 
Q 37.359375 48.484375 30.078125 48.484375 
Q 22.859375 48.484375 18.828125 43.109375 
Q 14.796875 37.75 14.796875 27.984375 
Q 14.796875 18.265625 18.828125 12.890625 
Q 22.859375 7.515625 30.078125 7.515625 
Q 37.359375 7.515625 41.375 12.890625 
Q 45.40625 18.265625 45.40625 27.984375 
z
M 54.390625 6.78125 
Q 54.390625 -7.171875 48.1875 -13.984375 
Q 42 -20.796875 29.203125 -20.796875 
Q 24.46875 -20.796875 20.265625 -20.09375 
Q 16.0625 -19.390625 12.109375 -17.921875 
L 12.109375 -9.1875 
Q 16.0625 -11.328125 19.921875 -12.34375 
Q 23.78125 -13.375 27.78125 -13.375 
Q 36.625 -13.375 41.015625 -8.765625 
Q 45.40625 -4.15625 45.40625 5.171875 
L 45.40625 9.625 
Q 42.625 4.78125 38.28125 2.390625 
Q 33.9375 0 27.875 0 
Q 17.828125 0 11.671875 7.65625 
Q 5.515625 15.328125 5.515625 27.984375 
Q 5.515625 40.671875 11.671875 48.328125 
Q 17.828125 56 27.875 56 
Q 33.9375 56 38.28125 53.609375 
Q 42.625 51.21875 45.40625 46.390625 
L 45.40625 54.6875 
L 54.390625 54.6875 
z
" id="DejaVuSans-103"/>
      </defs>
      <use xlink:href="#DejaVuSans-102"/>
      <use x="35.205078" xlink:href="#DejaVuSans-97"/>
      <use x="96.484375" xlink:href="#DejaVuSans-115"/>
      <use x="148.583984" xlink:href="#DejaVuSans-116"/>
      <use x="187.792969" xlink:href="#DejaVuSans-32"/>
      <use x="219.580078" xlink:href="#DejaVuSans-45"/>
      <use x="255.664062" xlink:href="#DejaVuSans-32"/>
      <use x="287.451172" xlink:href="#DejaVuSans-104"/>
      <use x="350.830078" xlink:href="#DejaVuSans-105"/>
      <use x="378.613281" xlink:href="#DejaVuSans-103"/>
      <use x="442.089844" xlink:href="#DejaVuSans-104"/>
      <use x="505.46875" xlink:href="#DejaVuSans-32"/>
      <use x="537.255859" xlink:href="#DejaVuSans-45"/>
      <use x="573.339844" xlink:href="#DejaVuSans-32"/>
      <use x="605.126953" xlink:href="#DejaVuSans-108"/>
      <use x="632.910156" xlink:href="#DejaVuSans-97"/>
      <use x="694.189453" xlink:href="#DejaVuSans-114"/>
      <use x="733.552734" xlink:href="#DejaVuSans-103"/>
      <use x="797.029297" xlink:href="#DejaVuSans-101"/>
     </g>
    </g>
    <g id="patch_105">
     <path d="M 246.6875 97.794688 
L 266.6875 97.794688 
L 266.6875 90.794688 
L 246.6875 90.794688 
z
" style="fill:#ff7f0e;"/>
    </g>
    <g id="text_19">
     <!-- fast - high - medium -->
     <g transform="translate(274.6875 97.794688)scale(0.1 -0.1)">
      <defs>
       <path d="M 52 44.1875 
Q 55.375 50.25 60.0625 53.125 
Q 64.75 56 71.09375 56 
Q 79.640625 56 84.28125 50.015625 
Q 88.921875 44.046875 88.921875 33.015625 
L 88.921875 0 
L 79.890625 0 
L 79.890625 32.71875 
Q 79.890625 40.578125 77.09375 44.375 
Q 74.3125 48.1875 68.609375 48.1875 
Q 61.625 48.1875 57.5625 43.546875 
Q 53.515625 38.921875 53.515625 30.90625 
L 53.515625 0 
L 44.484375 0 
L 44.484375 32.71875 
Q 44.484375 40.625 41.703125 44.40625 
Q 38.921875 48.1875 33.109375 48.1875 
Q 26.21875 48.1875 22.15625 43.53125 
Q 18.109375 38.875 18.109375 30.90625 
L 18.109375 0 
L 9.078125 0 
L 9.078125 54.6875 
L 18.109375 54.6875 
L 18.109375 46.1875 
Q 21.1875 51.21875 25.484375 53.609375 
Q 29.78125 56 35.6875 56 
Q 41.65625 56 45.828125 52.96875 
Q 50 49.953125 52 44.1875 
z
" id="DejaVuSans-109"/>
       <path d="M 45.40625 46.390625 
L 45.40625 75.984375 
L 54.390625 75.984375 
L 54.390625 0 
L 45.40625 0 
L 45.40625 8.203125 
Q 42.578125 3.328125 38.25 0.953125 
Q 33.9375 -1.421875 27.875 -1.421875 
Q 17.96875 -1.421875 11.734375 6.484375 
Q 5.515625 14.40625 5.515625 27.296875 
Q 5.515625 40.1875 11.734375 48.09375 
Q 17.96875 56 27.875 56 
Q 33.9375 56 38.25 53.625 
Q 42.578125 51.265625 45.40625 46.390625 
z
M 14.796875 27.296875 
Q 14.796875 17.390625 18.875 11.75 
Q 22.953125 6.109375 30.078125 6.109375 
Q 37.203125 6.109375 41.296875 11.75 
Q 45.40625 17.390625 45.40625 27.296875 
Q 45.40625 37.203125 41.296875 42.84375 
Q 37.203125 48.484375 30.078125 48.484375 
Q 22.953125 48.484375 18.875 42.84375 
Q 14.796875 37.203125 14.796875 27.296875 
z
" id="DejaVuSans-100"/>
      </defs>
      <use xlink:href="#DejaVuSans-102"/>
      <use x="35.205078" xlink:href="#DejaVuSans-97"/>
      <use x="96.484375" xlink:href="#DejaVuSans-115"/>
      <use x="148.583984" xlink:href="#DejaVuSans-116"/>
      <use x="187.792969" xlink:href="#DejaVuSans-32"/>
      <use x="219.580078" xlink:href="#DejaVuSans-45"/>
      <use x="255.664062" xlink:href="#DejaVuSans-32"/>
      <use x="287.451172" xlink:href="#DejaVuSans-104"/>
      <use x="350.830078" xlink:href="#DejaVuSans-105"/>
      <use x="378.613281" xlink:href="#DejaVuSans-103"/>
      <use x="442.089844" xlink:href="#DejaVuSans-104"/>
      <use x="505.46875" xlink:href="#DejaVuSans-32"/>
      <use x="537.255859" xlink:href="#DejaVuSans-45"/>
      <use x="573.339844" xlink:href="#DejaVuSans-32"/>
      <use x="605.126953" xlink:href="#DejaVuSans-109"/>
      <use x="702.539062" xlink:href="#DejaVuSans-101"/>
      <use x="764.0625" xlink:href="#DejaVuSans-100"/>
      <use x="827.539062" xlink:href="#DejaVuSans-105"/>
      <use x="855.322266" xlink:href="#DejaVuSans-117"/>
      <use x="918.701172" xlink:href="#DejaVuSans-109"/>
     </g>
    </g>
    <g id="patch_106">
     <path d="M 246.6875 112.472813 
L 266.6875 112.472813 
L 266.6875 105.472813 
L 246.6875 105.472813 
z
" style="fill:#2ca02c;"/>
    </g>
    <g id="text_20">
     <!-- fast - high - small -->
     <g transform="translate(274.6875 112.472813)scale(0.1 -0.1)">
      <use xlink:href="#DejaVuSans-102"/>
      <use x="35.205078" xlink:href="#DejaVuSans-97"/>
      <use x="96.484375" xlink:href="#DejaVuSans-115"/>
      <use x="148.583984" xlink:href="#DejaVuSans-116"/>
      <use x="187.792969" xlink:href="#DejaVuSans-32"/>
      <use x="219.580078" xlink:href="#DejaVuSans-45"/>
      <use x="255.664062" xlink:href="#DejaVuSans-32"/>
      <use x="287.451172" xlink:href="#DejaVuSans-104"/>
      <use x="350.830078" xlink:href="#DejaVuSans-105"/>
      <use x="378.613281" xlink:href="#DejaVuSans-103"/>
      <use x="442.089844" xlink:href="#DejaVuSans-104"/>
      <use x="505.46875" xlink:href="#DejaVuSans-32"/>
      <use x="537.255859" xlink:href="#DejaVuSans-45"/>
      <use x="573.339844" xlink:href="#DejaVuSans-32"/>
      <use x="605.126953" xlink:href="#DejaVuSans-115"/>
      <use x="657.226562" xlink:href="#DejaVuSans-109"/>
      <use x="754.638672" xlink:href="#DejaVuSans-97"/>
      <use x="815.917969" xlink:href="#DejaVuSans-108"/>
      <use x="843.701172" xlink:href="#DejaVuSans-108"/>
     </g>
    </g>
    <g id="patch_107">
     <path d="M 246.6875 127.150937 
L 266.6875 127.150937 
L 266.6875 120.150937 
L 246.6875 120.150937 
z
" style="fill:#d62728;"/>
    </g>
    <g id="text_21">
     <!-- fast - low - large -->
     <g transform="translate(274.6875 127.150937)scale(0.1 -0.1)">
      <defs>
       <path d="M 30.609375 48.390625 
Q 23.390625 48.390625 19.1875 42.75 
Q 14.984375 37.109375 14.984375 27.296875 
Q 14.984375 17.484375 19.15625 11.84375 
Q 23.34375 6.203125 30.609375 6.203125 
Q 37.796875 6.203125 41.984375 11.859375 
Q 46.1875 17.53125 46.1875 27.296875 
Q 46.1875 37.015625 41.984375 42.703125 
Q 37.796875 48.390625 30.609375 48.390625 
z
M 30.609375 56 
Q 42.328125 56 49.015625 48.375 
Q 55.71875 40.765625 55.71875 27.296875 
Q 55.71875 13.875 49.015625 6.21875 
Q 42.328125 -1.421875 30.609375 -1.421875 
Q 18.84375 -1.421875 12.171875 6.21875 
Q 5.515625 13.875 5.515625 27.296875 
Q 5.515625 40.765625 12.171875 48.375 
Q 18.84375 56 30.609375 56 
z
" id="DejaVuSans-111"/>
       <path d="M 4.203125 54.6875 
L 13.1875 54.6875 
L 24.421875 12.015625 
L 35.59375 54.6875 
L 46.1875 54.6875 
L 57.421875 12.015625 
L 68.609375 54.6875 
L 77.59375 54.6875 
L 63.28125 0 
L 52.6875 0 
L 40.921875 44.828125 
L 29.109375 0 
L 18.5 0 
z
" id="DejaVuSans-119"/>
      </defs>
      <use xlink:href="#DejaVuSans-102"/>
      <use x="35.205078" xlink:href="#DejaVuSans-97"/>
      <use x="96.484375" xlink:href="#DejaVuSans-115"/>
      <use x="148.583984" xlink:href="#DejaVuSans-116"/>
      <use x="187.792969" xlink:href="#DejaVuSans-32"/>
      <use x="219.580078" xlink:href="#DejaVuSans-45"/>
      <use x="255.664062" xlink:href="#DejaVuSans-32"/>
      <use x="287.451172" xlink:href="#DejaVuSans-108"/>
      <use x="315.234375" xlink:href="#DejaVuSans-111"/>
      <use x="376.416016" xlink:href="#DejaVuSans-119"/>
      <use x="458.203125" xlink:href="#DejaVuSans-32"/>
      <use x="489.990234" xlink:href="#DejaVuSans-45"/>
      <use x="526.074219" xlink:href="#DejaVuSans-32"/>
      <use x="557.861328" xlink:href="#DejaVuSans-108"/>
      <use x="585.644531" xlink:href="#DejaVuSans-97"/>
      <use x="646.923828" xlink:href="#DejaVuSans-114"/>
      <use x="686.287109" xlink:href="#DejaVuSans-103"/>
      <use x="749.763672" xlink:href="#DejaVuSans-101"/>
     </g>
    </g>
    <g id="patch_108">
     <path d="M 246.6875 141.829063 
L 266.6875 141.829063 
L 266.6875 134.829063 
L 246.6875 134.829063 
z
" style="fill:#9467bd;"/>
    </g>
    <g id="text_22">
     <!-- fast - low - medium -->
     <g transform="translate(274.6875 141.829063)scale(0.1 -0.1)">
      <use xlink:href="#DejaVuSans-102"/>
      <use x="35.205078" xlink:href="#DejaVuSans-97"/>
      <use x="96.484375" xlink:href="#DejaVuSans-115"/>
      <use x="148.583984" xlink:href="#DejaVuSans-116"/>
      <use x="187.792969" xlink:href="#DejaVuSans-32"/>
      <use x="219.580078" xlink:href="#DejaVuSans-45"/>
      <use x="255.664062" xlink:href="#DejaVuSans-32"/>
      <use x="287.451172" xlink:href="#DejaVuSans-108"/>
      <use x="315.234375" xlink:href="#DejaVuSans-111"/>
      <use x="376.416016" xlink:href="#DejaVuSans-119"/>
      <use x="458.203125" xlink:href="#DejaVuSans-32"/>
      <use x="489.990234" xlink:href="#DejaVuSans-45"/>
      <use x="526.074219" xlink:href="#DejaVuSans-32"/>
      <use x="557.861328" xlink:href="#DejaVuSans-109"/>
      <use x="655.273438" xlink:href="#DejaVuSans-101"/>
      <use x="716.796875" xlink:href="#DejaVuSans-100"/>
      <use x="780.273438" xlink:href="#DejaVuSans-105"/>
      <use x="808.056641" xlink:href="#DejaVuSans-117"/>
      <use x="871.435547" xlink:href="#DejaVuSans-109"/>
     </g>
    </g>
    <g id="patch_109">
     <path d="M 246.6875 156.507187 
L 266.6875 156.507187 
L 266.6875 149.507187 
L 246.6875 149.507187 
z
" style="fill:#8c564b;"/>
    </g>
    <g id="text_23">
     <!-- fast - low - small -->
     <g transform="translate(274.6875 156.507187)scale(0.1 -0.1)">
      <use xlink:href="#DejaVuSans-102"/>
      <use x="35.205078" xlink:href="#DejaVuSans-97"/>
      <use x="96.484375" xlink:href="#DejaVuSans-115"/>
      <use x="148.583984" xlink:href="#DejaVuSans-116"/>
      <use x="187.792969" xlink:href="#DejaVuSans-32"/>
      <use x="219.580078" xlink:href="#DejaVuSans-45"/>
      <use x="255.664062" xlink:href="#DejaVuSans-32"/>
      <use x="287.451172" xlink:href="#DejaVuSans-108"/>
      <use x="315.234375" xlink:href="#DejaVuSans-111"/>
      <use x="376.416016" xlink:href="#DejaVuSans-119"/>
      <use x="458.203125" xlink:href="#DejaVuSans-32"/>
      <use x="489.990234" xlink:href="#DejaVuSans-45"/>
      <use x="526.074219" xlink:href="#DejaVuSans-32"/>
      <use x="557.861328" xlink:href="#DejaVuSans-115"/>
      <use x="609.960938" xlink:href="#DejaVuSans-109"/>
      <use x="707.373047" xlink:href="#DejaVuSans-97"/>
      <use x="768.652344" xlink:href="#DejaVuSans-108"/>
      <use x="796.435547" xlink:href="#DejaVuSans-108"/>
     </g>
    </g>
    <g id="patch_110">
     <path d="M 246.6875 171.185313 
L 266.6875 171.185313 
L 266.6875 164.185313 
L 246.6875 164.185313 
z
" style="fill:#e377c2;"/>
    </g>
    <g id="text_24">
     <!-- slow - high - large -->
     <g transform="translate(274.6875 171.185313)scale(0.1 -0.1)">
      <use xlink:href="#DejaVuSans-115"/>
      <use x="52.099609" xlink:href="#DejaVuSans-108"/>
      <use x="79.882812" xlink:href="#DejaVuSans-111"/>
      <use x="141.064453" xlink:href="#DejaVuSans-119"/>
      <use x="222.851562" xlink:href="#DejaVuSans-32"/>
      <use x="254.638672" xlink:href="#DejaVuSans-45"/>
      <use x="290.722656" xlink:href="#DejaVuSans-32"/>
      <use x="322.509766" xlink:href="#DejaVuSans-104"/>
      <use x="385.888672" xlink:href="#DejaVuSans-105"/>
      <use x="413.671875" xlink:href="#DejaVuSans-103"/>
      <use x="477.148438" xlink:href="#DejaVuSans-104"/>
      <use x="540.527344" xlink:href="#DejaVuSans-32"/>
      <use x="572.314453" xlink:href="#DejaVuSans-45"/>
      <use x="608.398438" xlink:href="#DejaVuSans-32"/>
      <use x="640.185547" xlink:href="#DejaVuSans-108"/>
      <use x="667.96875" xlink:href="#DejaVuSans-97"/>
      <use x="729.248047" xlink:href="#DejaVuSans-114"/>
      <use x="768.611328" xlink:href="#DejaVuSans-103"/>
      <use x="832.087891" xlink:href="#DejaVuSans-101"/>
     </g>
    </g>
    <g id="patch_111">
     <path d="M 246.6875 185.863437 
L 266.6875 185.863437 
L 266.6875 178.863437 
L 246.6875 178.863437 
z
" style="fill:#7f7f7f;"/>
    </g>
    <g id="text_25">
     <!-- slow - high - medium -->
     <g transform="translate(274.6875 185.863437)scale(0.1 -0.1)">
      <use xlink:href="#DejaVuSans-115"/>
      <use x="52.099609" xlink:href="#DejaVuSans-108"/>
      <use x="79.882812" xlink:href="#DejaVuSans-111"/>
      <use x="141.064453" xlink:href="#DejaVuSans-119"/>
      <use x="222.851562" xlink:href="#DejaVuSans-32"/>
      <use x="254.638672" xlink:href="#DejaVuSans-45"/>
      <use x="290.722656" xlink:href="#DejaVuSans-32"/>
      <use x="322.509766" xlink:href="#DejaVuSans-104"/>
      <use x="385.888672" xlink:href="#DejaVuSans-105"/>
      <use x="413.671875" xlink:href="#DejaVuSans-103"/>
      <use x="477.148438" xlink:href="#DejaVuSans-104"/>
      <use x="540.527344" xlink:href="#DejaVuSans-32"/>
      <use x="572.314453" xlink:href="#DejaVuSans-45"/>
      <use x="608.398438" xlink:href="#DejaVuSans-32"/>
      <use x="640.185547" xlink:href="#DejaVuSans-109"/>
      <use x="737.597656" xlink:href="#DejaVuSans-101"/>
      <use x="799.121094" xlink:href="#DejaVuSans-100"/>
      <use x="862.597656" xlink:href="#DejaVuSans-105"/>
      <use x="890.380859" xlink:href="#DejaVuSans-117"/>
      <use x="953.759766" xlink:href="#DejaVuSans-109"/>
     </g>
    </g>
    <g id="patch_112">
     <path d="M 246.6875 200.541562 
L 266.6875 200.541562 
L 266.6875 193.541562 
L 246.6875 193.541562 
z
" style="fill:#bcbd22;"/>
    </g>
    <g id="text_26">
     <!-- slow - high - small -->
     <g transform="translate(274.6875 200.541562)scale(0.1 -0.1)">
      <use xlink:href="#DejaVuSans-115"/>
      <use x="52.099609" xlink:href="#DejaVuSans-108"/>
      <use x="79.882812" xlink:href="#DejaVuSans-111"/>
      <use x="141.064453" xlink:href="#DejaVuSans-119"/>
      <use x="222.851562" xlink:href="#DejaVuSans-32"/>
      <use x="254.638672" xlink:href="#DejaVuSans-45"/>
      <use x="290.722656" xlink:href="#DejaVuSans-32"/>
      <use x="322.509766" xlink:href="#DejaVuSans-104"/>
      <use x="385.888672" xlink:href="#DejaVuSans-105"/>
      <use x="413.671875" xlink:href="#DejaVuSans-103"/>
      <use x="477.148438" xlink:href="#DejaVuSans-104"/>
      <use x="540.527344" xlink:href="#DejaVuSans-32"/>
      <use x="572.314453" xlink:href="#DejaVuSans-45"/>
      <use x="608.398438" xlink:href="#DejaVuSans-32"/>
      <use x="640.185547" xlink:href="#DejaVuSans-115"/>
      <use x="692.285156" xlink:href="#DejaVuSans-109"/>
      <use x="789.697266" xlink:href="#DejaVuSans-97"/>
      <use x="850.976562" xlink:href="#DejaVuSans-108"/>
      <use x="878.759766" xlink:href="#DejaVuSans-108"/>
     </g>
    </g>
    <g id="patch_113">
     <path d="M 246.6875 215.219687 
L 266.6875 215.219687 
L 266.6875 208.219687 
L 246.6875 208.219687 
z
" style="fill:#17becf;"/>
    </g>
    <g id="text_27">
     <!-- slow - low - large -->
     <g transform="translate(274.6875 215.219687)scale(0.1 -0.1)">
      <use xlink:href="#DejaVuSans-115"/>
      <use x="52.099609" xlink:href="#DejaVuSans-108"/>
      <use x="79.882812" xlink:href="#DejaVuSans-111"/>
      <use x="141.064453" xlink:href="#DejaVuSans-119"/>
      <use x="222.851562" xlink:href="#DejaVuSans-32"/>
      <use x="254.638672" xlink:href="#DejaVuSans-45"/>
      <use x="290.722656" xlink:href="#DejaVuSans-32"/>
      <use x="322.509766" xlink:href="#DejaVuSans-108"/>
      <use x="350.292969" xlink:href="#DejaVuSans-111"/>
      <use x="411.474609" xlink:href="#DejaVuSans-119"/>
      <use x="493.261719" xlink:href="#DejaVuSans-32"/>
      <use x="525.048828" xlink:href="#DejaVuSans-45"/>
      <use x="561.132812" xlink:href="#DejaVuSans-32"/>
      <use x="592.919922" xlink:href="#DejaVuSans-108"/>
      <use x="620.703125" xlink:href="#DejaVuSans-97"/>
      <use x="681.982422" xlink:href="#DejaVuSans-114"/>
      <use x="721.345703" xlink:href="#DejaVuSans-103"/>
      <use x="784.822266" xlink:href="#DejaVuSans-101"/>
     </g>
    </g>
    <g id="patch_114">
     <path d="M 246.6875 229.897812 
L 266.6875 229.897812 
L 266.6875 222.897812 
L 246.6875 222.897812 
z
" style="fill:#1f77b4;"/>
    </g>
    <g id="text_28">
     <!-- slow - low - medium -->
     <g transform="translate(274.6875 229.897812)scale(0.1 -0.1)">
      <use xlink:href="#DejaVuSans-115"/>
      <use x="52.099609" xlink:href="#DejaVuSans-108"/>
      <use x="79.882812" xlink:href="#DejaVuSans-111"/>
      <use x="141.064453" xlink:href="#DejaVuSans-119"/>
      <use x="222.851562" xlink:href="#DejaVuSans-32"/>
      <use x="254.638672" xlink:href="#DejaVuSans-45"/>
      <use x="290.722656" xlink:href="#DejaVuSans-32"/>
      <use x="322.509766" xlink:href="#DejaVuSans-108"/>
      <use x="350.292969" xlink:href="#DejaVuSans-111"/>
      <use x="411.474609" xlink:href="#DejaVuSans-119"/>
      <use x="493.261719" xlink:href="#DejaVuSans-32"/>
      <use x="525.048828" xlink:href="#DejaVuSans-45"/>
      <use x="561.132812" xlink:href="#DejaVuSans-32"/>
      <use x="592.919922" xlink:href="#DejaVuSans-109"/>
      <use x="690.332031" xlink:href="#DejaVuSans-101"/>
      <use x="751.855469" xlink:href="#DejaVuSans-100"/>
      <use x="815.332031" xlink:href="#DejaVuSans-105"/>
      <use x="843.115234" xlink:href="#DejaVuSans-117"/>
      <use x="906.494141" xlink:href="#DejaVuSans-109"/>
     </g>
    </g>
    <g id="patch_115">
     <path d="M 246.6875 244.575937 
L 266.6875 244.575937 
L 266.6875 237.575937 
L 246.6875 237.575937 
z
" style="fill:#ff7f0e;"/>
    </g>
    <g id="text_29">
     <!-- slow - low - small -->
     <g transform="translate(274.6875 244.575937)scale(0.1 -0.1)">
      <use xlink:href="#DejaVuSans-115"/>
      <use x="52.099609" xlink:href="#DejaVuSans-108"/>
      <use x="79.882812" xlink:href="#DejaVuSans-111"/>
      <use x="141.064453" xlink:href="#DejaVuSans-119"/>
      <use x="222.851562" xlink:href="#DejaVuSans-32"/>
      <use x="254.638672" xlink:href="#DejaVuSans-45"/>
      <use x="290.722656" xlink:href="#DejaVuSans-32"/>
      <use x="322.509766" xlink:href="#DejaVuSans-108"/>
      <use x="350.292969" xlink:href="#DejaVuSans-111"/>
      <use x="411.474609" xlink:href="#DejaVuSans-119"/>
      <use x="493.261719" xlink:href="#DejaVuSans-32"/>
      <use x="525.048828" xlink:href="#DejaVuSans-45"/>
      <use x="561.132812" xlink:href="#DejaVuSans-32"/>
      <use x="592.919922" xlink:href="#DejaVuSans-115"/>
      <use x="645.019531" xlink:href="#DejaVuSans-109"/>
      <use x="742.431641" xlink:href="#DejaVuSans-97"/>
      <use x="803.710938" xlink:href="#DejaVuSans-108"/>
      <use x="831.494141" xlink:href="#DejaVuSans-108"/>
     </g>
    </g>
   </g>
  </g>
 </g>
 <defs>
  <clipPath id="pe4d9479c17">
   <rect height="326.16" width="334.8" x="54" y="51.84"/>
  </clipPath>
 </defs>
</svg>
