<?xml version="1.0" encoding="utf-8" standalone="no"?>
<!DOCTYPE svg PUBLIC "-//W3C//DTD SVG 1.1//EN"
  "http://www.w3.org/Graphics/SVG/1.1/DTD/svg11.dtd">
<!-- Created with matplotlib (https://matplotlib.org/) -->
<svg height="360pt" version="1.1" viewBox="0 0 504 360" width="504pt" xmlns="http://www.w3.org/2000/svg" xmlns:xlink="http://www.w3.org/1999/xlink">
 <metadata>
  <rdf:RDF xmlns:cc="http://creativecommons.org/ns#" xmlns:dc="http://purl.org/dc/elements/1.1/" xmlns:rdf="http://www.w3.org/1999/02/22-rdf-syntax-ns#">
   <cc:Work>
    <dc:type rdf:resource="http://purl.org/dc/dcmitype/StillImage"/>
    <dc:date>2021-01-15T11:34:44.359417</dc:date>
    <dc:format>image/svg+xml</dc:format>
    <dc:creator>
     <cc:Agent>
      <dc:title>Matplotlib v3.3.3, https://matplotlib.org/</dc:title>
     </cc:Agent>
    </dc:creator>
   </cc:Work>
  </rdf:RDF>
 </metadata>
 <defs>
  <style type="text/css">*{stroke-linecap:butt;stroke-linejoin:round;}</style>
 </defs>
 <g id="figure_1">
  <g id="patch_1">
   <path d="M 0 360 
L 504 360 
L 504 0 
L 0 0 
z
" style="fill:none;"/>
  </g>
  <g id="axes_1">
   <g id="patch_2">
    <path d="M 63 315 
L 453.6 315 
L 453.6 43.2 
L 63 43.2 
z
" style="fill:#ffffff;"/>
   </g>
   <g id="matplotlib.axis_1">
    <g id="xtick_1">
     <g id="line2d_1">
      <path clip-path="url(#pde1ad3930e)" d="M 73.507792 315 
L 73.507792 43.2 
" style="fill:none;stroke:#000000;stroke-linecap:square;stroke-width:0.1;"/>
     </g>
     <g id="line2d_2">
      <defs>
       <path d="M 0 0 
L 0 3.5 
" id="m6c6c8d8bc4" style="stroke:#000000;stroke-width:0.8;"/>
      </defs>
      <g>
       <use style="stroke:#000000;stroke-width:0.8;" x="73.507792" xlink:href="#m6c6c8d8bc4" y="315"/>
      </g>
     </g>
     <g id="text_1">
      <!-- 0 -->
      <g transform="translate(70.326542 329.598437)scale(0.1 -0.1)">
       <defs>
        <path d="M 31.78125 66.40625 
Q 24.171875 66.40625 20.328125 58.90625 
Q 16.5 51.421875 16.5 36.375 
Q 16.5 21.390625 20.328125 13.890625 
Q 24.171875 6.390625 31.78125 6.390625 
Q 39.453125 6.390625 43.28125 13.890625 
Q 47.125 21.390625 47.125 36.375 
Q 47.125 51.421875 43.28125 58.90625 
Q 39.453125 66.40625 31.78125 66.40625 
z
M 31.78125 74.21875 
Q 44.046875 74.21875 50.515625 64.515625 
Q 56.984375 54.828125 56.984375 36.375 
Q 56.984375 17.96875 50.515625 8.265625 
Q 44.046875 -1.421875 31.78125 -1.421875 
Q 19.53125 -1.421875 13.0625 8.265625 
Q 6.59375 17.96875 6.59375 36.375 
Q 6.59375 54.828125 13.0625 64.515625 
Q 19.53125 74.21875 31.78125 74.21875 
z
" id="DejaVuSans-48"/>
       </defs>
       <use xlink:href="#DejaVuSans-48"/>
      </g>
     </g>
    </g>
    <g id="xtick_2">
     <g id="line2d_3">
      <path clip-path="url(#pde1ad3930e)" d="M 88.001299 315 
L 88.001299 43.2 
" style="fill:none;stroke:#000000;stroke-linecap:square;stroke-width:0.1;"/>
     </g>
     <g id="line2d_4">
      <g>
       <use style="stroke:#000000;stroke-width:0.8;" x="88.001299" xlink:href="#m6c6c8d8bc4" y="315"/>
      </g>
     </g>
     <g id="text_2">
      <!-- 2 -->
      <g transform="translate(84.820049 329.598437)scale(0.1 -0.1)">
       <defs>
        <path d="M 19.1875 8.296875 
L 53.609375 8.296875 
L 53.609375 0 
L 7.328125 0 
L 7.328125 8.296875 
Q 12.9375 14.109375 22.625 23.890625 
Q 32.328125 33.6875 34.8125 36.53125 
Q 39.546875 41.84375 41.421875 45.53125 
Q 43.3125 49.21875 43.3125 52.78125 
Q 43.3125 58.59375 39.234375 62.25 
Q 35.15625 65.921875 28.609375 65.921875 
Q 23.96875 65.921875 18.8125 64.3125 
Q 13.671875 62.703125 7.8125 59.421875 
L 7.8125 69.390625 
Q 13.765625 71.78125 18.9375 73 
Q 24.125 74.21875 28.421875 74.21875 
Q 39.75 74.21875 46.484375 68.546875 
Q 53.21875 62.890625 53.21875 53.421875 
Q 53.21875 48.921875 51.53125 44.890625 
Q 49.859375 40.875 45.40625 35.40625 
Q 44.1875 33.984375 37.640625 27.21875 
Q 31.109375 20.453125 19.1875 8.296875 
z
" id="DejaVuSans-50"/>
       </defs>
       <use xlink:href="#DejaVuSans-50"/>
      </g>
     </g>
    </g>
    <g id="xtick_3">
     <g id="line2d_5">
      <path clip-path="url(#pde1ad3930e)" d="M 102.494805 315 
L 102.494805 43.2 
" style="fill:none;stroke:#000000;stroke-linecap:square;stroke-width:0.1;"/>
     </g>
     <g id="line2d_6">
      <g>
       <use style="stroke:#000000;stroke-width:0.8;" x="102.494805" xlink:href="#m6c6c8d8bc4" y="315"/>
      </g>
     </g>
     <g id="text_3">
      <!-- 4 -->
      <g transform="translate(99.313555 329.598437)scale(0.1 -0.1)">
       <defs>
        <path d="M 37.796875 64.3125 
L 12.890625 25.390625 
L 37.796875 25.390625 
z
M 35.203125 72.90625 
L 47.609375 72.90625 
L 47.609375 25.390625 
L 58.015625 25.390625 
L 58.015625 17.1875 
L 47.609375 17.1875 
L 47.609375 0 
L 37.796875 0 
L 37.796875 17.1875 
L 4.890625 17.1875 
L 4.890625 26.703125 
z
" id="DejaVuSans-52"/>
       </defs>
       <use xlink:href="#DejaVuSans-52"/>
      </g>
     </g>
    </g>
    <g id="xtick_4">
     <g id="line2d_7">
      <path clip-path="url(#pde1ad3930e)" d="M 116.988312 315 
L 116.988312 43.2 
" style="fill:none;stroke:#000000;stroke-linecap:square;stroke-width:0.1;"/>
     </g>
     <g id="line2d_8">
      <g>
       <use style="stroke:#000000;stroke-width:0.8;" x="116.988312" xlink:href="#m6c6c8d8bc4" y="315"/>
      </g>
     </g>
     <g id="text_4">
      <!-- 6 -->
      <g transform="translate(113.807062 329.598437)scale(0.1 -0.1)">
       <defs>
        <path d="M 33.015625 40.375 
Q 26.375 40.375 22.484375 35.828125 
Q 18.609375 31.296875 18.609375 23.390625 
Q 18.609375 15.53125 22.484375 10.953125 
Q 26.375 6.390625 33.015625 6.390625 
Q 39.65625 6.390625 43.53125 10.953125 
Q 47.40625 15.53125 47.40625 23.390625 
Q 47.40625 31.296875 43.53125 35.828125 
Q 39.65625 40.375 33.015625 40.375 
z
M 52.59375 71.296875 
L 52.59375 62.3125 
Q 48.875 64.0625 45.09375 64.984375 
Q 41.3125 65.921875 37.59375 65.921875 
Q 27.828125 65.921875 22.671875 59.328125 
Q 17.53125 52.734375 16.796875 39.40625 
Q 19.671875 43.65625 24.015625 45.921875 
Q 28.375 48.1875 33.59375 48.1875 
Q 44.578125 48.1875 50.953125 41.515625 
Q 57.328125 34.859375 57.328125 23.390625 
Q 57.328125 12.15625 50.6875 5.359375 
Q 44.046875 -1.421875 33.015625 -1.421875 
Q 20.359375 -1.421875 13.671875 8.265625 
Q 6.984375 17.96875 6.984375 36.375 
Q 6.984375 53.65625 15.1875 63.9375 
Q 23.390625 74.21875 37.203125 74.21875 
Q 40.921875 74.21875 44.703125 73.484375 
Q 48.484375 72.75 52.59375 71.296875 
z
" id="DejaVuSans-54"/>
       </defs>
       <use xlink:href="#DejaVuSans-54"/>
      </g>
     </g>
    </g>
    <g id="xtick_5">
     <g id="line2d_9">
      <path clip-path="url(#pde1ad3930e)" d="M 131.481818 315 
L 131.481818 43.2 
" style="fill:none;stroke:#000000;stroke-linecap:square;stroke-width:0.1;"/>
     </g>
     <g id="line2d_10">
      <g>
       <use style="stroke:#000000;stroke-width:0.8;" x="131.481818" xlink:href="#m6c6c8d8bc4" y="315"/>
      </g>
     </g>
     <g id="text_5">
      <!-- 8 -->
      <g transform="translate(128.300568 329.598437)scale(0.1 -0.1)">
       <defs>
        <path d="M 31.78125 34.625 
Q 24.75 34.625 20.71875 30.859375 
Q 16.703125 27.09375 16.703125 20.515625 
Q 16.703125 13.921875 20.71875 10.15625 
Q 24.75 6.390625 31.78125 6.390625 
Q 38.8125 6.390625 42.859375 10.171875 
Q 46.921875 13.96875 46.921875 20.515625 
Q 46.921875 27.09375 42.890625 30.859375 
Q 38.875 34.625 31.78125 34.625 
z
M 21.921875 38.8125 
Q 15.578125 40.375 12.03125 44.71875 
Q 8.5 49.078125 8.5 55.328125 
Q 8.5 64.0625 14.71875 69.140625 
Q 20.953125 74.21875 31.78125 74.21875 
Q 42.671875 74.21875 48.875 69.140625 
Q 55.078125 64.0625 55.078125 55.328125 
Q 55.078125 49.078125 51.53125 44.71875 
Q 48 40.375 41.703125 38.8125 
Q 48.828125 37.15625 52.796875 32.3125 
Q 56.78125 27.484375 56.78125 20.515625 
Q 56.78125 9.90625 50.3125 4.234375 
Q 43.84375 -1.421875 31.78125 -1.421875 
Q 19.734375 -1.421875 13.25 4.234375 
Q 6.78125 9.90625 6.78125 20.515625 
Q 6.78125 27.484375 10.78125 32.3125 
Q 14.796875 37.15625 21.921875 38.8125 
z
M 18.3125 54.390625 
Q 18.3125 48.734375 21.84375 45.5625 
Q 25.390625 42.390625 31.78125 42.390625 
Q 38.140625 42.390625 41.71875 45.5625 
Q 45.3125 48.734375 45.3125 54.390625 
Q 45.3125 60.0625 41.71875 63.234375 
Q 38.140625 66.40625 31.78125 66.40625 
Q 25.390625 66.40625 21.84375 63.234375 
Q 18.3125 60.0625 18.3125 54.390625 
z
" id="DejaVuSans-56"/>
       </defs>
       <use xlink:href="#DejaVuSans-56"/>
      </g>
     </g>
    </g>
    <g id="xtick_6">
     <g id="line2d_11">
      <path clip-path="url(#pde1ad3930e)" d="M 145.975325 315 
L 145.975325 43.2 
" style="fill:none;stroke:#000000;stroke-linecap:square;stroke-width:0.1;"/>
     </g>
     <g id="line2d_12">
      <g>
       <use style="stroke:#000000;stroke-width:0.8;" x="145.975325" xlink:href="#m6c6c8d8bc4" y="315"/>
      </g>
     </g>
     <g id="text_6">
      <!-- 10 -->
      <g transform="translate(139.612825 329.598437)scale(0.1 -0.1)">
       <defs>
        <path d="M 12.40625 8.296875 
L 28.515625 8.296875 
L 28.515625 63.921875 
L 10.984375 60.40625 
L 10.984375 69.390625 
L 28.421875 72.90625 
L 38.28125 72.90625 
L 38.28125 8.296875 
L 54.390625 8.296875 
L 54.390625 0 
L 12.40625 0 
z
" id="DejaVuSans-49"/>
       </defs>
       <use xlink:href="#DejaVuSans-49"/>
       <use x="63.623047" xlink:href="#DejaVuSans-48"/>
      </g>
     </g>
    </g>
    <g id="xtick_7">
     <g id="line2d_13">
      <path clip-path="url(#pde1ad3930e)" d="M 160.468831 315 
L 160.468831 43.2 
" style="fill:none;stroke:#000000;stroke-linecap:square;stroke-width:0.1;"/>
     </g>
     <g id="line2d_14">
      <g>
       <use style="stroke:#000000;stroke-width:0.8;" x="160.468831" xlink:href="#m6c6c8d8bc4" y="315"/>
      </g>
     </g>
     <g id="text_7">
      <!-- 12 -->
      <g transform="translate(154.106331 329.598437)scale(0.1 -0.1)">
       <use xlink:href="#DejaVuSans-49"/>
       <use x="63.623047" xlink:href="#DejaVuSans-50"/>
      </g>
     </g>
    </g>
    <g id="xtick_8">
     <g id="line2d_15">
      <path clip-path="url(#pde1ad3930e)" d="M 174.962338 315 
L 174.962338 43.2 
" style="fill:none;stroke:#000000;stroke-linecap:square;stroke-width:0.1;"/>
     </g>
     <g id="line2d_16">
      <g>
       <use style="stroke:#000000;stroke-width:0.8;" x="174.962338" xlink:href="#m6c6c8d8bc4" y="315"/>
      </g>
     </g>
     <g id="text_8">
      <!-- 14 -->
      <g transform="translate(168.599838 329.598437)scale(0.1 -0.1)">
       <use xlink:href="#DejaVuSans-49"/>
       <use x="63.623047" xlink:href="#DejaVuSans-52"/>
      </g>
     </g>
    </g>
    <g id="xtick_9">
     <g id="line2d_17">
      <path clip-path="url(#pde1ad3930e)" d="M 189.455844 315 
L 189.455844 43.2 
" style="fill:none;stroke:#000000;stroke-linecap:square;stroke-width:0.1;"/>
     </g>
     <g id="line2d_18">
      <g>
       <use style="stroke:#000000;stroke-width:0.8;" x="189.455844" xlink:href="#m6c6c8d8bc4" y="315"/>
      </g>
     </g>
     <g id="text_9">
      <!-- 16 -->
      <g transform="translate(183.093344 329.598437)scale(0.1 -0.1)">
       <use xlink:href="#DejaVuSans-49"/>
       <use x="63.623047" xlink:href="#DejaVuSans-54"/>
      </g>
     </g>
    </g>
    <g id="xtick_10">
     <g id="line2d_19">
      <path clip-path="url(#pde1ad3930e)" d="M 203.949351 315 
L 203.949351 43.2 
" style="fill:none;stroke:#000000;stroke-linecap:square;stroke-width:0.1;"/>
     </g>
     <g id="line2d_20">
      <g>
       <use style="stroke:#000000;stroke-width:0.8;" x="203.949351" xlink:href="#m6c6c8d8bc4" y="315"/>
      </g>
     </g>
     <g id="text_10">
      <!-- 18 -->
      <g transform="translate(197.586851 329.598437)scale(0.1 -0.1)">
       <use xlink:href="#DejaVuSans-49"/>
       <use x="63.623047" xlink:href="#DejaVuSans-56"/>
      </g>
     </g>
    </g>
    <g id="xtick_11">
     <g id="line2d_21">
      <path clip-path="url(#pde1ad3930e)" d="M 218.442857 315 
L 218.442857 43.2 
" style="fill:none;stroke:#000000;stroke-linecap:square;stroke-width:0.1;"/>
     </g>
     <g id="line2d_22">
      <g>
       <use style="stroke:#000000;stroke-width:0.8;" x="218.442857" xlink:href="#m6c6c8d8bc4" y="315"/>
      </g>
     </g>
     <g id="text_11">
      <!-- 20 -->
      <g transform="translate(212.080357 329.598437)scale(0.1 -0.1)">
       <use xlink:href="#DejaVuSans-50"/>
       <use x="63.623047" xlink:href="#DejaVuSans-48"/>
      </g>
     </g>
    </g>
    <g id="xtick_12">
     <g id="line2d_23">
      <path clip-path="url(#pde1ad3930e)" d="M 232.936364 315 
L 232.936364 43.2 
" style="fill:none;stroke:#000000;stroke-linecap:square;stroke-width:0.1;"/>
     </g>
     <g id="line2d_24">
      <g>
       <use style="stroke:#000000;stroke-width:0.8;" x="232.936364" xlink:href="#m6c6c8d8bc4" y="315"/>
      </g>
     </g>
     <g id="text_12">
      <!-- 22 -->
      <g transform="translate(226.573864 329.598437)scale(0.1 -0.1)">
       <use xlink:href="#DejaVuSans-50"/>
       <use x="63.623047" xlink:href="#DejaVuSans-50"/>
      </g>
     </g>
    </g>
    <g id="xtick_13">
     <g id="line2d_25">
      <path clip-path="url(#pde1ad3930e)" d="M 247.42987 315 
L 247.42987 43.2 
" style="fill:none;stroke:#000000;stroke-linecap:square;stroke-width:0.1;"/>
     </g>
     <g id="line2d_26">
      <g>
       <use style="stroke:#000000;stroke-width:0.8;" x="247.42987" xlink:href="#m6c6c8d8bc4" y="315"/>
      </g>
     </g>
     <g id="text_13">
      <!-- 24 -->
      <g transform="translate(241.06737 329.598437)scale(0.1 -0.1)">
       <use xlink:href="#DejaVuSans-50"/>
       <use x="63.623047" xlink:href="#DejaVuSans-52"/>
      </g>
     </g>
    </g>
    <g id="xtick_14">
     <g id="line2d_27">
      <path clip-path="url(#pde1ad3930e)" d="M 261.923377 315 
L 261.923377 43.2 
" style="fill:none;stroke:#000000;stroke-linecap:square;stroke-width:0.1;"/>
     </g>
     <g id="line2d_28">
      <g>
       <use style="stroke:#000000;stroke-width:0.8;" x="261.923377" xlink:href="#m6c6c8d8bc4" y="315"/>
      </g>
     </g>
     <g id="text_14">
      <!-- 26 -->
      <g transform="translate(255.560877 329.598437)scale(0.1 -0.1)">
       <use xlink:href="#DejaVuSans-50"/>
       <use x="63.623047" xlink:href="#DejaVuSans-54"/>
      </g>
     </g>
    </g>
    <g id="xtick_15">
     <g id="line2d_29">
      <path clip-path="url(#pde1ad3930e)" d="M 276.416883 315 
L 276.416883 43.2 
" style="fill:none;stroke:#000000;stroke-linecap:square;stroke-width:0.1;"/>
     </g>
     <g id="line2d_30">
      <g>
       <use style="stroke:#000000;stroke-width:0.8;" x="276.416883" xlink:href="#m6c6c8d8bc4" y="315"/>
      </g>
     </g>
     <g id="text_15">
      <!-- 28 -->
      <g transform="translate(270.054383 329.598437)scale(0.1 -0.1)">
       <use xlink:href="#DejaVuSans-50"/>
       <use x="63.623047" xlink:href="#DejaVuSans-56"/>
      </g>
     </g>
    </g>
    <g id="xtick_16">
     <g id="line2d_31">
      <path clip-path="url(#pde1ad3930e)" d="M 290.91039 315 
L 290.91039 43.2 
" style="fill:none;stroke:#000000;stroke-linecap:square;stroke-width:0.1;"/>
     </g>
     <g id="line2d_32">
      <g>
       <use style="stroke:#000000;stroke-width:0.8;" x="290.91039" xlink:href="#m6c6c8d8bc4" y="315"/>
      </g>
     </g>
     <g id="text_16">
      <!-- 30 -->
      <g transform="translate(284.54789 329.598437)scale(0.1 -0.1)">
       <defs>
        <path d="M 40.578125 39.3125 
Q 47.65625 37.796875 51.625 33 
Q 55.609375 28.21875 55.609375 21.1875 
Q 55.609375 10.40625 48.1875 4.484375 
Q 40.765625 -1.421875 27.09375 -1.421875 
Q 22.515625 -1.421875 17.65625 -0.515625 
Q 12.796875 0.390625 7.625 2.203125 
L 7.625 11.71875 
Q 11.71875 9.328125 16.59375 8.109375 
Q 21.484375 6.890625 26.8125 6.890625 
Q 36.078125 6.890625 40.9375 10.546875 
Q 45.796875 14.203125 45.796875 21.1875 
Q 45.796875 27.640625 41.28125 31.265625 
Q 36.765625 34.90625 28.71875 34.90625 
L 20.21875 34.90625 
L 20.21875 43.015625 
L 29.109375 43.015625 
Q 36.375 43.015625 40.234375 45.921875 
Q 44.09375 48.828125 44.09375 54.296875 
Q 44.09375 59.90625 40.109375 62.90625 
Q 36.140625 65.921875 28.71875 65.921875 
Q 24.65625 65.921875 20.015625 65.03125 
Q 15.375 64.15625 9.8125 62.3125 
L 9.8125 71.09375 
Q 15.4375 72.65625 20.34375 73.4375 
Q 25.25 74.21875 29.59375 74.21875 
Q 40.828125 74.21875 47.359375 69.109375 
Q 53.90625 64.015625 53.90625 55.328125 
Q 53.90625 49.265625 50.4375 45.09375 
Q 46.96875 40.921875 40.578125 39.3125 
z
" id="DejaVuSans-51"/>
       </defs>
       <use xlink:href="#DejaVuSans-51"/>
       <use x="63.623047" xlink:href="#DejaVuSans-48"/>
      </g>
     </g>
    </g>
    <g id="xtick_17">
     <g id="line2d_33">
      <path clip-path="url(#pde1ad3930e)" d="M 305.403896 315 
L 305.403896 43.2 
" style="fill:none;stroke:#000000;stroke-linecap:square;stroke-width:0.1;"/>
     </g>
     <g id="line2d_34">
      <g>
       <use style="stroke:#000000;stroke-width:0.8;" x="305.403896" xlink:href="#m6c6c8d8bc4" y="315"/>
      </g>
     </g>
     <g id="text_17">
      <!-- 32 -->
      <g transform="translate(299.041396 329.598437)scale(0.1 -0.1)">
       <use xlink:href="#DejaVuSans-51"/>
       <use x="63.623047" xlink:href="#DejaVuSans-50"/>
      </g>
     </g>
    </g>
    <g id="xtick_18">
     <g id="line2d_35">
      <path clip-path="url(#pde1ad3930e)" d="M 319.897403 315 
L 319.897403 43.2 
" style="fill:none;stroke:#000000;stroke-linecap:square;stroke-width:0.1;"/>
     </g>
     <g id="line2d_36">
      <g>
       <use style="stroke:#000000;stroke-width:0.8;" x="319.897403" xlink:href="#m6c6c8d8bc4" y="315"/>
      </g>
     </g>
     <g id="text_18">
      <!-- 34 -->
      <g transform="translate(313.534903 329.598437)scale(0.1 -0.1)">
       <use xlink:href="#DejaVuSans-51"/>
       <use x="63.623047" xlink:href="#DejaVuSans-52"/>
      </g>
     </g>
    </g>
    <g id="xtick_19">
     <g id="line2d_37">
      <path clip-path="url(#pde1ad3930e)" d="M 334.390909 315 
L 334.390909 43.2 
" style="fill:none;stroke:#000000;stroke-linecap:square;stroke-width:0.1;"/>
     </g>
     <g id="line2d_38">
      <g>
       <use style="stroke:#000000;stroke-width:0.8;" x="334.390909" xlink:href="#m6c6c8d8bc4" y="315"/>
      </g>
     </g>
     <g id="text_19">
      <!-- 36 -->
      <g transform="translate(328.028409 329.598437)scale(0.1 -0.1)">
       <use xlink:href="#DejaVuSans-51"/>
       <use x="63.623047" xlink:href="#DejaVuSans-54"/>
      </g>
     </g>
    </g>
    <g id="xtick_20">
     <g id="line2d_39">
      <path clip-path="url(#pde1ad3930e)" d="M 348.884416 315 
L 348.884416 43.2 
" style="fill:none;stroke:#000000;stroke-linecap:square;stroke-width:0.1;"/>
     </g>
     <g id="line2d_40">
      <g>
       <use style="stroke:#000000;stroke-width:0.8;" x="348.884416" xlink:href="#m6c6c8d8bc4" y="315"/>
      </g>
     </g>
     <g id="text_20">
      <!-- 38 -->
      <g transform="translate(342.521916 329.598437)scale(0.1 -0.1)">
       <use xlink:href="#DejaVuSans-51"/>
       <use x="63.623047" xlink:href="#DejaVuSans-56"/>
      </g>
     </g>
    </g>
    <g id="xtick_21">
     <g id="line2d_41">
      <path clip-path="url(#pde1ad3930e)" d="M 363.377922 315 
L 363.377922 43.2 
" style="fill:none;stroke:#000000;stroke-linecap:square;stroke-width:0.1;"/>
     </g>
     <g id="line2d_42">
      <g>
       <use style="stroke:#000000;stroke-width:0.8;" x="363.377922" xlink:href="#m6c6c8d8bc4" y="315"/>
      </g>
     </g>
     <g id="text_21">
      <!-- 40 -->
      <g transform="translate(357.015422 329.598437)scale(0.1 -0.1)">
       <use xlink:href="#DejaVuSans-52"/>
       <use x="63.623047" xlink:href="#DejaVuSans-48"/>
      </g>
     </g>
    </g>
    <g id="xtick_22">
     <g id="line2d_43">
      <path clip-path="url(#pde1ad3930e)" d="M 377.871429 315 
L 377.871429 43.2 
" style="fill:none;stroke:#000000;stroke-linecap:square;stroke-width:0.1;"/>
     </g>
     <g id="line2d_44">
      <g>
       <use style="stroke:#000000;stroke-width:0.8;" x="377.871429" xlink:href="#m6c6c8d8bc4" y="315"/>
      </g>
     </g>
     <g id="text_22">
      <!-- 42 -->
      <g transform="translate(371.508929 329.598437)scale(0.1 -0.1)">
       <use xlink:href="#DejaVuSans-52"/>
       <use x="63.623047" xlink:href="#DejaVuSans-50"/>
      </g>
     </g>
    </g>
    <g id="xtick_23">
     <g id="line2d_45">
      <path clip-path="url(#pde1ad3930e)" d="M 392.364935 315 
L 392.364935 43.2 
" style="fill:none;stroke:#000000;stroke-linecap:square;stroke-width:0.1;"/>
     </g>
     <g id="line2d_46">
      <g>
       <use style="stroke:#000000;stroke-width:0.8;" x="392.364935" xlink:href="#m6c6c8d8bc4" y="315"/>
      </g>
     </g>
     <g id="text_23">
      <!-- 44 -->
      <g transform="translate(386.002435 329.598437)scale(0.1 -0.1)">
       <use xlink:href="#DejaVuSans-52"/>
       <use x="63.623047" xlink:href="#DejaVuSans-52"/>
      </g>
     </g>
    </g>
    <g id="xtick_24">
     <g id="line2d_47">
      <path clip-path="url(#pde1ad3930e)" d="M 406.858442 315 
L 406.858442 43.2 
" style="fill:none;stroke:#000000;stroke-linecap:square;stroke-width:0.1;"/>
     </g>
     <g id="line2d_48">
      <g>
       <use style="stroke:#000000;stroke-width:0.8;" x="406.858442" xlink:href="#m6c6c8d8bc4" y="315"/>
      </g>
     </g>
     <g id="text_24">
      <!-- 46 -->
      <g transform="translate(400.495942 329.598437)scale(0.1 -0.1)">
       <use xlink:href="#DejaVuSans-52"/>
       <use x="63.623047" xlink:href="#DejaVuSans-54"/>
      </g>
     </g>
    </g>
    <g id="xtick_25">
     <g id="line2d_49">
      <path clip-path="url(#pde1ad3930e)" d="M 421.351948 315 
L 421.351948 43.2 
" style="fill:none;stroke:#000000;stroke-linecap:square;stroke-width:0.1;"/>
     </g>
     <g id="line2d_50">
      <g>
       <use style="stroke:#000000;stroke-width:0.8;" x="421.351948" xlink:href="#m6c6c8d8bc4" y="315"/>
      </g>
     </g>
     <g id="text_25">
      <!-- 48 -->
      <g transform="translate(414.989448 329.598437)scale(0.1 -0.1)">
       <use xlink:href="#DejaVuSans-52"/>
       <use x="63.623047" xlink:href="#DejaVuSans-56"/>
      </g>
     </g>
    </g>
    <g id="xtick_26">
     <g id="line2d_51">
      <path clip-path="url(#pde1ad3930e)" d="M 435.845455 315 
L 435.845455 43.2 
" style="fill:none;stroke:#000000;stroke-linecap:square;stroke-width:0.1;"/>
     </g>
     <g id="line2d_52">
      <g>
       <use style="stroke:#000000;stroke-width:0.8;" x="435.845455" xlink:href="#m6c6c8d8bc4" y="315"/>
      </g>
     </g>
     <g id="text_26">
      <!-- 50 -->
      <g transform="translate(429.482955 329.598437)scale(0.1 -0.1)">
       <defs>
        <path d="M 10.796875 72.90625 
L 49.515625 72.90625 
L 49.515625 64.59375 
L 19.828125 64.59375 
L 19.828125 46.734375 
Q 21.96875 47.46875 24.109375 47.828125 
Q 26.265625 48.1875 28.421875 48.1875 
Q 40.625 48.1875 47.75 41.5 
Q 54.890625 34.8125 54.890625 23.390625 
Q 54.890625 11.625 47.5625 5.09375 
Q 40.234375 -1.421875 26.90625 -1.421875 
Q 22.3125 -1.421875 17.546875 -0.640625 
Q 12.796875 0.140625 7.71875 1.703125 
L 7.71875 11.625 
Q 12.109375 9.234375 16.796875 8.0625 
Q 21.484375 6.890625 26.703125 6.890625 
Q 35.15625 6.890625 40.078125 11.328125 
Q 45.015625 15.765625 45.015625 23.390625 
Q 45.015625 31 40.078125 35.4375 
Q 35.15625 39.890625 26.703125 39.890625 
Q 22.75 39.890625 18.8125 39.015625 
Q 14.890625 38.140625 10.796875 36.28125 
z
" id="DejaVuSans-53"/>
       </defs>
       <use xlink:href="#DejaVuSans-53"/>
       <use x="63.623047" xlink:href="#DejaVuSans-48"/>
      </g>
     </g>
    </g>
    <g id="text_27">
     <!-- Number of clusters -->
     <g transform="translate(210.607813 343.276563)scale(0.1 -0.1)">
      <defs>
       <path d="M 9.8125 72.90625 
L 23.09375 72.90625 
L 55.421875 11.921875 
L 55.421875 72.90625 
L 64.984375 72.90625 
L 64.984375 0 
L 51.703125 0 
L 19.390625 60.984375 
L 19.390625 0 
L 9.8125 0 
z
" id="DejaVuSans-78"/>
       <path d="M 8.5 21.578125 
L 8.5 54.6875 
L 17.484375 54.6875 
L 17.484375 21.921875 
Q 17.484375 14.15625 20.5 10.265625 
Q 23.53125 6.390625 29.59375 6.390625 
Q 36.859375 6.390625 41.078125 11.03125 
Q 45.3125 15.671875 45.3125 23.6875 
L 45.3125 54.6875 
L 54.296875 54.6875 
L 54.296875 0 
L 45.3125 0 
L 45.3125 8.40625 
Q 42.046875 3.421875 37.71875 1 
Q 33.40625 -1.421875 27.6875 -1.421875 
Q 18.265625 -1.421875 13.375 4.4375 
Q 8.5 10.296875 8.5 21.578125 
z
M 31.109375 56 
z
" id="DejaVuSans-117"/>
       <path d="M 52 44.1875 
Q 55.375 50.25 60.0625 53.125 
Q 64.75 56 71.09375 56 
Q 79.640625 56 84.28125 50.015625 
Q 88.921875 44.046875 88.921875 33.015625 
L 88.921875 0 
L 79.890625 0 
L 79.890625 32.71875 
Q 79.890625 40.578125 77.09375 44.375 
Q 74.3125 48.1875 68.609375 48.1875 
Q 61.625 48.1875 57.5625 43.546875 
Q 53.515625 38.921875 53.515625 30.90625 
L 53.515625 0 
L 44.484375 0 
L 44.484375 32.71875 
Q 44.484375 40.625 41.703125 44.40625 
Q 38.921875 48.1875 33.109375 48.1875 
Q 26.21875 48.1875 22.15625 43.53125 
Q 18.109375 38.875 18.109375 30.90625 
L 18.109375 0 
L 9.078125 0 
L 9.078125 54.6875 
L 18.109375 54.6875 
L 18.109375 46.1875 
Q 21.1875 51.21875 25.484375 53.609375 
Q 29.78125 56 35.6875 56 
Q 41.65625 56 45.828125 52.96875 
Q 50 49.953125 52 44.1875 
z
" id="DejaVuSans-109"/>
       <path d="M 48.6875 27.296875 
Q 48.6875 37.203125 44.609375 42.84375 
Q 40.53125 48.484375 33.40625 48.484375 
Q 26.265625 48.484375 22.1875 42.84375 
Q 18.109375 37.203125 18.109375 27.296875 
Q 18.109375 17.390625 22.1875 11.75 
Q 26.265625 6.109375 33.40625 6.109375 
Q 40.53125 6.109375 44.609375 11.75 
Q 48.6875 17.390625 48.6875 27.296875 
z
M 18.109375 46.390625 
Q 20.953125 51.265625 25.265625 53.625 
Q 29.59375 56 35.59375 56 
Q 45.5625 56 51.78125 48.09375 
Q 58.015625 40.1875 58.015625 27.296875 
Q 58.015625 14.40625 51.78125 6.484375 
Q 45.5625 -1.421875 35.59375 -1.421875 
Q 29.59375 -1.421875 25.265625 0.953125 
Q 20.953125 3.328125 18.109375 8.203125 
L 18.109375 0 
L 9.078125 0 
L 9.078125 75.984375 
L 18.109375 75.984375 
z
" id="DejaVuSans-98"/>
       <path d="M 56.203125 29.59375 
L 56.203125 25.203125 
L 14.890625 25.203125 
Q 15.484375 15.921875 20.484375 11.0625 
Q 25.484375 6.203125 34.421875 6.203125 
Q 39.59375 6.203125 44.453125 7.46875 
Q 49.3125 8.734375 54.109375 11.28125 
L 54.109375 2.78125 
Q 49.265625 0.734375 44.1875 -0.34375 
Q 39.109375 -1.421875 33.890625 -1.421875 
Q 20.796875 -1.421875 13.15625 6.1875 
Q 5.515625 13.8125 5.515625 26.8125 
Q 5.515625 40.234375 12.765625 48.109375 
Q 20.015625 56 32.328125 56 
Q 43.359375 56 49.78125 48.890625 
Q 56.203125 41.796875 56.203125 29.59375 
z
M 47.21875 32.234375 
Q 47.125 39.59375 43.09375 43.984375 
Q 39.0625 48.390625 32.421875 48.390625 
Q 24.90625 48.390625 20.390625 44.140625 
Q 15.875 39.890625 15.1875 32.171875 
z
" id="DejaVuSans-101"/>
       <path d="M 41.109375 46.296875 
Q 39.59375 47.171875 37.8125 47.578125 
Q 36.03125 48 33.890625 48 
Q 26.265625 48 22.1875 43.046875 
Q 18.109375 38.09375 18.109375 28.8125 
L 18.109375 0 
L 9.078125 0 
L 9.078125 54.6875 
L 18.109375 54.6875 
L 18.109375 46.1875 
Q 20.953125 51.171875 25.484375 53.578125 
Q 30.03125 56 36.53125 56 
Q 37.453125 56 38.578125 55.875 
Q 39.703125 55.765625 41.0625 55.515625 
z
" id="DejaVuSans-114"/>
       <path id="DejaVuSans-32"/>
       <path d="M 30.609375 48.390625 
Q 23.390625 48.390625 19.1875 42.75 
Q 14.984375 37.109375 14.984375 27.296875 
Q 14.984375 17.484375 19.15625 11.84375 
Q 23.34375 6.203125 30.609375 6.203125 
Q 37.796875 6.203125 41.984375 11.859375 
Q 46.1875 17.53125 46.1875 27.296875 
Q 46.1875 37.015625 41.984375 42.703125 
Q 37.796875 48.390625 30.609375 48.390625 
z
M 30.609375 56 
Q 42.328125 56 49.015625 48.375 
Q 55.71875 40.765625 55.71875 27.296875 
Q 55.71875 13.875 49.015625 6.21875 
Q 42.328125 -1.421875 30.609375 -1.421875 
Q 18.84375 -1.421875 12.171875 6.21875 
Q 5.515625 13.875 5.515625 27.296875 
Q 5.515625 40.765625 12.171875 48.375 
Q 18.84375 56 30.609375 56 
z
" id="DejaVuSans-111"/>
       <path d="M 37.109375 75.984375 
L 37.109375 68.5 
L 28.515625 68.5 
Q 23.6875 68.5 21.796875 66.546875 
Q 19.921875 64.59375 19.921875 59.515625 
L 19.921875 54.6875 
L 34.71875 54.6875 
L 34.71875 47.703125 
L 19.921875 47.703125 
L 19.921875 0 
L 10.890625 0 
L 10.890625 47.703125 
L 2.296875 47.703125 
L 2.296875 54.6875 
L 10.890625 54.6875 
L 10.890625 58.5 
Q 10.890625 67.625 15.140625 71.796875 
Q 19.390625 75.984375 28.609375 75.984375 
z
" id="DejaVuSans-102"/>
       <path d="M 48.78125 52.59375 
L 48.78125 44.1875 
Q 44.96875 46.296875 41.140625 47.34375 
Q 37.3125 48.390625 33.40625 48.390625 
Q 24.65625 48.390625 19.8125 42.84375 
Q 14.984375 37.3125 14.984375 27.296875 
Q 14.984375 17.28125 19.8125 11.734375 
Q 24.65625 6.203125 33.40625 6.203125 
Q 37.3125 6.203125 41.140625 7.25 
Q 44.96875 8.296875 48.78125 10.40625 
L 48.78125 2.09375 
Q 45.015625 0.34375 40.984375 -0.53125 
Q 36.96875 -1.421875 32.421875 -1.421875 
Q 20.0625 -1.421875 12.78125 6.34375 
Q 5.515625 14.109375 5.515625 27.296875 
Q 5.515625 40.671875 12.859375 48.328125 
Q 20.21875 56 33.015625 56 
Q 37.15625 56 41.109375 55.140625 
Q 45.0625 54.296875 48.78125 52.59375 
z
" id="DejaVuSans-99"/>
       <path d="M 9.421875 75.984375 
L 18.40625 75.984375 
L 18.40625 0 
L 9.421875 0 
z
" id="DejaVuSans-108"/>
       <path d="M 44.28125 53.078125 
L 44.28125 44.578125 
Q 40.484375 46.53125 36.375 47.5 
Q 32.28125 48.484375 27.875 48.484375 
Q 21.1875 48.484375 17.84375 46.4375 
Q 14.5 44.390625 14.5 40.28125 
Q 14.5 37.15625 16.890625 35.375 
Q 19.28125 33.59375 26.515625 31.984375 
L 29.59375 31.296875 
Q 39.15625 29.25 43.1875 25.515625 
Q 47.21875 21.78125 47.21875 15.09375 
Q 47.21875 7.46875 41.1875 3.015625 
Q 35.15625 -1.421875 24.609375 -1.421875 
Q 20.21875 -1.421875 15.453125 -0.5625 
Q 10.6875 0.296875 5.421875 2 
L 5.421875 11.28125 
Q 10.40625 8.6875 15.234375 7.390625 
Q 20.0625 6.109375 24.8125 6.109375 
Q 31.15625 6.109375 34.5625 8.28125 
Q 37.984375 10.453125 37.984375 14.40625 
Q 37.984375 18.0625 35.515625 20.015625 
Q 33.0625 21.96875 24.703125 23.78125 
L 21.578125 24.515625 
Q 13.234375 26.265625 9.515625 29.90625 
Q 5.8125 33.546875 5.8125 39.890625 
Q 5.8125 47.609375 11.28125 51.796875 
Q 16.75 56 26.8125 56 
Q 31.78125 56 36.171875 55.265625 
Q 40.578125 54.546875 44.28125 53.078125 
z
" id="DejaVuSans-115"/>
       <path d="M 18.3125 70.21875 
L 18.3125 54.6875 
L 36.8125 54.6875 
L 36.8125 47.703125 
L 18.3125 47.703125 
L 18.3125 18.015625 
Q 18.3125 11.328125 20.140625 9.421875 
Q 21.96875 7.515625 27.59375 7.515625 
L 36.8125 7.515625 
L 36.8125 0 
L 27.59375 0 
Q 17.1875 0 13.234375 3.875 
Q 9.28125 7.765625 9.28125 18.015625 
L 9.28125 47.703125 
L 2.6875 47.703125 
L 2.6875 54.6875 
L 9.28125 54.6875 
L 9.28125 70.21875 
z
" id="DejaVuSans-116"/>
      </defs>
      <use xlink:href="#DejaVuSans-78"/>
      <use x="74.804688" xlink:href="#DejaVuSans-117"/>
      <use x="138.183594" xlink:href="#DejaVuSans-109"/>
      <use x="235.595703" xlink:href="#DejaVuSans-98"/>
      <use x="299.072266" xlink:href="#DejaVuSans-101"/>
      <use x="360.595703" xlink:href="#DejaVuSans-114"/>
      <use x="401.708984" xlink:href="#DejaVuSans-32"/>
      <use x="433.496094" xlink:href="#DejaVuSans-111"/>
      <use x="494.677734" xlink:href="#DejaVuSans-102"/>
      <use x="529.882812" xlink:href="#DejaVuSans-32"/>
      <use x="561.669922" xlink:href="#DejaVuSans-99"/>
      <use x="616.650391" xlink:href="#DejaVuSans-108"/>
      <use x="644.433594" xlink:href="#DejaVuSans-117"/>
      <use x="707.8125" xlink:href="#DejaVuSans-115"/>
      <use x="759.912109" xlink:href="#DejaVuSans-116"/>
      <use x="799.121094" xlink:href="#DejaVuSans-101"/>
      <use x="860.644531" xlink:href="#DejaVuSans-114"/>
      <use x="901.757812" xlink:href="#DejaVuSans-115"/>
     </g>
    </g>
   </g>
   <g id="matplotlib.axis_2">
    <g id="ytick_1">
     <g id="line2d_53">
      <path clip-path="url(#pde1ad3930e)" d="M 63 315 
L 453.6 315 
" style="fill:none;stroke:#000000;stroke-linecap:square;stroke-width:0.1;"/>
     </g>
     <g id="line2d_54">
      <defs>
       <path d="M 0 0 
L -3.5 0 
" id="m462a70ab45" style="stroke:#000000;stroke-width:0.8;"/>
      </defs>
      <g>
       <use style="stroke:#000000;stroke-width:0.8;" x="63" xlink:href="#m462a70ab45" y="315"/>
      </g>
     </g>
     <g id="text_28">
      <!-- 0.000 -->
      <g transform="translate(27.371875 318.799219)scale(0.1 -0.1)">
       <defs>
        <path d="M 10.6875 12.40625 
L 21 12.40625 
L 21 0 
L 10.6875 0 
z
" id="DejaVuSans-46"/>
       </defs>
       <use xlink:href="#DejaVuSans-48"/>
       <use x="63.623047" xlink:href="#DejaVuSans-46"/>
       <use x="95.410156" xlink:href="#DejaVuSans-48"/>
       <use x="159.033203" xlink:href="#DejaVuSans-48"/>
       <use x="222.65625" xlink:href="#DejaVuSans-48"/>
      </g>
     </g>
    </g>
    <g id="ytick_2">
     <g id="line2d_55">
      <path clip-path="url(#pde1ad3930e)" d="M 63 301.342584 
L 453.6 301.342584 
" style="fill:none;stroke:#000000;stroke-linecap:square;stroke-width:0.1;"/>
     </g>
     <g id="line2d_56">
      <g>
       <use style="stroke:#000000;stroke-width:0.8;" x="63" xlink:href="#m462a70ab45" y="301.342584"/>
      </g>
     </g>
     <g id="text_29">
      <!-- 0.053 -->
      <g transform="translate(27.371875 305.141803)scale(0.1 -0.1)">
       <use xlink:href="#DejaVuSans-48"/>
       <use x="63.623047" xlink:href="#DejaVuSans-46"/>
       <use x="95.410156" xlink:href="#DejaVuSans-48"/>
       <use x="159.033203" xlink:href="#DejaVuSans-53"/>
       <use x="222.65625" xlink:href="#DejaVuSans-51"/>
      </g>
     </g>
    </g>
    <g id="ytick_3">
     <g id="line2d_57">
      <path clip-path="url(#pde1ad3930e)" d="M 63 287.685168 
L 453.6 287.685168 
" style="fill:none;stroke:#000000;stroke-linecap:square;stroke-width:0.1;"/>
     </g>
     <g id="line2d_58">
      <g>
       <use style="stroke:#000000;stroke-width:0.8;" x="63" xlink:href="#m462a70ab45" y="287.685168"/>
      </g>
     </g>
     <g id="text_30">
      <!-- 0.105 -->
      <g transform="translate(27.371875 291.484387)scale(0.1 -0.1)">
       <use xlink:href="#DejaVuSans-48"/>
       <use x="63.623047" xlink:href="#DejaVuSans-46"/>
       <use x="95.410156" xlink:href="#DejaVuSans-49"/>
       <use x="159.033203" xlink:href="#DejaVuSans-48"/>
       <use x="222.65625" xlink:href="#DejaVuSans-53"/>
      </g>
     </g>
    </g>
    <g id="ytick_4">
     <g id="line2d_59">
      <path clip-path="url(#pde1ad3930e)" d="M 63 274.027753 
L 453.6 274.027753 
" style="fill:none;stroke:#000000;stroke-linecap:square;stroke-width:0.1;"/>
     </g>
     <g id="line2d_60">
      <g>
       <use style="stroke:#000000;stroke-width:0.8;" x="63" xlink:href="#m462a70ab45" y="274.027753"/>
      </g>
     </g>
     <g id="text_31">
      <!-- 0.158 -->
      <g transform="translate(27.371875 277.826971)scale(0.1 -0.1)">
       <use xlink:href="#DejaVuSans-48"/>
       <use x="63.623047" xlink:href="#DejaVuSans-46"/>
       <use x="95.410156" xlink:href="#DejaVuSans-49"/>
       <use x="159.033203" xlink:href="#DejaVuSans-53"/>
       <use x="222.65625" xlink:href="#DejaVuSans-56"/>
      </g>
     </g>
    </g>
    <g id="ytick_5">
     <g id="line2d_61">
      <path clip-path="url(#pde1ad3930e)" d="M 63 260.370337 
L 453.6 260.370337 
" style="fill:none;stroke:#000000;stroke-linecap:square;stroke-width:0.1;"/>
     </g>
     <g id="line2d_62">
      <g>
       <use style="stroke:#000000;stroke-width:0.8;" x="63" xlink:href="#m462a70ab45" y="260.370337"/>
      </g>
     </g>
     <g id="text_32">
      <!-- 0.211 -->
      <g transform="translate(27.371875 264.169556)scale(0.1 -0.1)">
       <use xlink:href="#DejaVuSans-48"/>
       <use x="63.623047" xlink:href="#DejaVuSans-46"/>
       <use x="95.410156" xlink:href="#DejaVuSans-50"/>
       <use x="159.033203" xlink:href="#DejaVuSans-49"/>
       <use x="222.65625" xlink:href="#DejaVuSans-49"/>
      </g>
     </g>
    </g>
    <g id="ytick_6">
     <g id="line2d_63">
      <path clip-path="url(#pde1ad3930e)" d="M 63 246.712921 
L 453.6 246.712921 
" style="fill:none;stroke:#000000;stroke-linecap:square;stroke-width:0.1;"/>
     </g>
     <g id="line2d_64">
      <g>
       <use style="stroke:#000000;stroke-width:0.8;" x="63" xlink:href="#m462a70ab45" y="246.712921"/>
      </g>
     </g>
     <g id="text_33">
      <!-- 0.263 -->
      <g transform="translate(27.371875 250.51214)scale(0.1 -0.1)">
       <use xlink:href="#DejaVuSans-48"/>
       <use x="63.623047" xlink:href="#DejaVuSans-46"/>
       <use x="95.410156" xlink:href="#DejaVuSans-50"/>
       <use x="159.033203" xlink:href="#DejaVuSans-54"/>
       <use x="222.65625" xlink:href="#DejaVuSans-51"/>
      </g>
     </g>
    </g>
    <g id="ytick_7">
     <g id="line2d_65">
      <path clip-path="url(#pde1ad3930e)" d="M 63 233.055505 
L 453.6 233.055505 
" style="fill:none;stroke:#000000;stroke-linecap:square;stroke-width:0.1;"/>
     </g>
     <g id="line2d_66">
      <g>
       <use style="stroke:#000000;stroke-width:0.8;" x="63" xlink:href="#m462a70ab45" y="233.055505"/>
      </g>
     </g>
     <g id="text_34">
      <!-- 0.316 -->
      <g transform="translate(27.371875 236.854724)scale(0.1 -0.1)">
       <use xlink:href="#DejaVuSans-48"/>
       <use x="63.623047" xlink:href="#DejaVuSans-46"/>
       <use x="95.410156" xlink:href="#DejaVuSans-51"/>
       <use x="159.033203" xlink:href="#DejaVuSans-49"/>
       <use x="222.65625" xlink:href="#DejaVuSans-54"/>
      </g>
     </g>
    </g>
    <g id="ytick_8">
     <g id="line2d_67">
      <path clip-path="url(#pde1ad3930e)" d="M 63 219.398089 
L 453.6 219.398089 
" style="fill:none;stroke:#000000;stroke-linecap:square;stroke-width:0.1;"/>
     </g>
     <g id="line2d_68">
      <g>
       <use style="stroke:#000000;stroke-width:0.8;" x="63" xlink:href="#m462a70ab45" y="219.398089"/>
      </g>
     </g>
     <g id="text_35">
      <!-- 0.368 -->
      <g transform="translate(27.371875 223.197308)scale(0.1 -0.1)">
       <use xlink:href="#DejaVuSans-48"/>
       <use x="63.623047" xlink:href="#DejaVuSans-46"/>
       <use x="95.410156" xlink:href="#DejaVuSans-51"/>
       <use x="159.033203" xlink:href="#DejaVuSans-54"/>
       <use x="222.65625" xlink:href="#DejaVuSans-56"/>
      </g>
     </g>
    </g>
    <g id="ytick_9">
     <g id="line2d_69">
      <path clip-path="url(#pde1ad3930e)" d="M 63 205.740674 
L 453.6 205.740674 
" style="fill:none;stroke:#000000;stroke-linecap:square;stroke-width:0.1;"/>
     </g>
     <g id="line2d_70">
      <g>
       <use style="stroke:#000000;stroke-width:0.8;" x="63" xlink:href="#m462a70ab45" y="205.740674"/>
      </g>
     </g>
     <g id="text_36">
      <!-- 0.421 -->
      <g transform="translate(27.371875 209.539892)scale(0.1 -0.1)">
       <use xlink:href="#DejaVuSans-48"/>
       <use x="63.623047" xlink:href="#DejaVuSans-46"/>
       <use x="95.410156" xlink:href="#DejaVuSans-52"/>
       <use x="159.033203" xlink:href="#DejaVuSans-50"/>
       <use x="222.65625" xlink:href="#DejaVuSans-49"/>
      </g>
     </g>
    </g>
    <g id="ytick_10">
     <g id="line2d_71">
      <path clip-path="url(#pde1ad3930e)" d="M 63 192.083258 
L 453.6 192.083258 
" style="fill:none;stroke:#000000;stroke-linecap:square;stroke-width:0.1;"/>
     </g>
     <g id="line2d_72">
      <g>
       <use style="stroke:#000000;stroke-width:0.8;" x="63" xlink:href="#m462a70ab45" y="192.083258"/>
      </g>
     </g>
     <g id="text_37">
      <!-- 0.474 -->
      <g transform="translate(27.371875 195.882477)scale(0.1 -0.1)">
       <defs>
        <path d="M 8.203125 72.90625 
L 55.078125 72.90625 
L 55.078125 68.703125 
L 28.609375 0 
L 18.3125 0 
L 43.21875 64.59375 
L 8.203125 64.59375 
z
" id="DejaVuSans-55"/>
       </defs>
       <use xlink:href="#DejaVuSans-48"/>
       <use x="63.623047" xlink:href="#DejaVuSans-46"/>
       <use x="95.410156" xlink:href="#DejaVuSans-52"/>
       <use x="159.033203" xlink:href="#DejaVuSans-55"/>
       <use x="222.65625" xlink:href="#DejaVuSans-52"/>
      </g>
     </g>
    </g>
    <g id="ytick_11">
     <g id="line2d_73">
      <path clip-path="url(#pde1ad3930e)" d="M 63 178.425842 
L 453.6 178.425842 
" style="fill:none;stroke:#000000;stroke-linecap:square;stroke-width:0.1;"/>
     </g>
     <g id="line2d_74">
      <g>
       <use style="stroke:#000000;stroke-width:0.8;" x="63" xlink:href="#m462a70ab45" y="178.425842"/>
      </g>
     </g>
     <g id="text_38">
      <!-- 0.526 -->
      <g transform="translate(27.371875 182.225061)scale(0.1 -0.1)">
       <use xlink:href="#DejaVuSans-48"/>
       <use x="63.623047" xlink:href="#DejaVuSans-46"/>
       <use x="95.410156" xlink:href="#DejaVuSans-53"/>
       <use x="159.033203" xlink:href="#DejaVuSans-50"/>
       <use x="222.65625" xlink:href="#DejaVuSans-54"/>
      </g>
     </g>
    </g>
    <g id="ytick_12">
     <g id="line2d_75">
      <path clip-path="url(#pde1ad3930e)" d="M 63 164.768426 
L 453.6 164.768426 
" style="fill:none;stroke:#000000;stroke-linecap:square;stroke-width:0.1;"/>
     </g>
     <g id="line2d_76">
      <g>
       <use style="stroke:#000000;stroke-width:0.8;" x="63" xlink:href="#m462a70ab45" y="164.768426"/>
      </g>
     </g>
     <g id="text_39">
      <!-- 0.579 -->
      <g transform="translate(27.371875 168.567645)scale(0.1 -0.1)">
       <defs>
        <path d="M 10.984375 1.515625 
L 10.984375 10.5 
Q 14.703125 8.734375 18.5 7.8125 
Q 22.3125 6.890625 25.984375 6.890625 
Q 35.75 6.890625 40.890625 13.453125 
Q 46.046875 20.015625 46.78125 33.40625 
Q 43.953125 29.203125 39.59375 26.953125 
Q 35.25 24.703125 29.984375 24.703125 
Q 19.046875 24.703125 12.671875 31.3125 
Q 6.296875 37.9375 6.296875 49.421875 
Q 6.296875 60.640625 12.9375 67.421875 
Q 19.578125 74.21875 30.609375 74.21875 
Q 43.265625 74.21875 49.921875 64.515625 
Q 56.59375 54.828125 56.59375 36.375 
Q 56.59375 19.140625 48.40625 8.859375 
Q 40.234375 -1.421875 26.421875 -1.421875 
Q 22.703125 -1.421875 18.890625 -0.6875 
Q 15.09375 0.046875 10.984375 1.515625 
z
M 30.609375 32.421875 
Q 37.25 32.421875 41.125 36.953125 
Q 45.015625 41.5 45.015625 49.421875 
Q 45.015625 57.28125 41.125 61.84375 
Q 37.25 66.40625 30.609375 66.40625 
Q 23.96875 66.40625 20.09375 61.84375 
Q 16.21875 57.28125 16.21875 49.421875 
Q 16.21875 41.5 20.09375 36.953125 
Q 23.96875 32.421875 30.609375 32.421875 
z
" id="DejaVuSans-57"/>
       </defs>
       <use xlink:href="#DejaVuSans-48"/>
       <use x="63.623047" xlink:href="#DejaVuSans-46"/>
       <use x="95.410156" xlink:href="#DejaVuSans-53"/>
       <use x="159.033203" xlink:href="#DejaVuSans-55"/>
       <use x="222.65625" xlink:href="#DejaVuSans-57"/>
      </g>
     </g>
    </g>
    <g id="ytick_13">
     <g id="line2d_77">
      <path clip-path="url(#pde1ad3930e)" d="M 63 151.11101 
L 453.6 151.11101 
" style="fill:none;stroke:#000000;stroke-linecap:square;stroke-width:0.1;"/>
     </g>
     <g id="line2d_78">
      <g>
       <use style="stroke:#000000;stroke-width:0.8;" x="63" xlink:href="#m462a70ab45" y="151.11101"/>
      </g>
     </g>
     <g id="text_40">
      <!-- 0.632 -->
      <g transform="translate(27.371875 154.910229)scale(0.1 -0.1)">
       <use xlink:href="#DejaVuSans-48"/>
       <use x="63.623047" xlink:href="#DejaVuSans-46"/>
       <use x="95.410156" xlink:href="#DejaVuSans-54"/>
       <use x="159.033203" xlink:href="#DejaVuSans-51"/>
       <use x="222.65625" xlink:href="#DejaVuSans-50"/>
      </g>
     </g>
    </g>
    <g id="ytick_14">
     <g id="line2d_79">
      <path clip-path="url(#pde1ad3930e)" d="M 63 137.453595 
L 453.6 137.453595 
" style="fill:none;stroke:#000000;stroke-linecap:square;stroke-width:0.1;"/>
     </g>
     <g id="line2d_80">
      <g>
       <use style="stroke:#000000;stroke-width:0.8;" x="63" xlink:href="#m462a70ab45" y="137.453595"/>
      </g>
     </g>
     <g id="text_41">
      <!-- 0.684 -->
      <g transform="translate(27.371875 141.252813)scale(0.1 -0.1)">
       <use xlink:href="#DejaVuSans-48"/>
       <use x="63.623047" xlink:href="#DejaVuSans-46"/>
       <use x="95.410156" xlink:href="#DejaVuSans-54"/>
       <use x="159.033203" xlink:href="#DejaVuSans-56"/>
       <use x="222.65625" xlink:href="#DejaVuSans-52"/>
      </g>
     </g>
    </g>
    <g id="ytick_15">
     <g id="line2d_81">
      <path clip-path="url(#pde1ad3930e)" d="M 63 123.796179 
L 453.6 123.796179 
" style="fill:none;stroke:#000000;stroke-linecap:square;stroke-width:0.1;"/>
     </g>
     <g id="line2d_82">
      <g>
       <use style="stroke:#000000;stroke-width:0.8;" x="63" xlink:href="#m462a70ab45" y="123.796179"/>
      </g>
     </g>
     <g id="text_42">
      <!-- 0.737 -->
      <g transform="translate(27.371875 127.595397)scale(0.1 -0.1)">
       <use xlink:href="#DejaVuSans-48"/>
       <use x="63.623047" xlink:href="#DejaVuSans-46"/>
       <use x="95.410156" xlink:href="#DejaVuSans-55"/>
       <use x="159.033203" xlink:href="#DejaVuSans-51"/>
       <use x="222.65625" xlink:href="#DejaVuSans-55"/>
      </g>
     </g>
    </g>
    <g id="ytick_16">
     <g id="line2d_83">
      <path clip-path="url(#pde1ad3930e)" d="M 63 110.138763 
L 453.6 110.138763 
" style="fill:none;stroke:#000000;stroke-linecap:square;stroke-width:0.1;"/>
     </g>
     <g id="line2d_84">
      <g>
       <use style="stroke:#000000;stroke-width:0.8;" x="63" xlink:href="#m462a70ab45" y="110.138763"/>
      </g>
     </g>
     <g id="text_43">
      <!-- 0.789 -->
      <g transform="translate(27.371875 113.937982)scale(0.1 -0.1)">
       <use xlink:href="#DejaVuSans-48"/>
       <use x="63.623047" xlink:href="#DejaVuSans-46"/>
       <use x="95.410156" xlink:href="#DejaVuSans-55"/>
       <use x="159.033203" xlink:href="#DejaVuSans-56"/>
       <use x="222.65625" xlink:href="#DejaVuSans-57"/>
      </g>
     </g>
    </g>
    <g id="ytick_17">
     <g id="line2d_85">
      <path clip-path="url(#pde1ad3930e)" d="M 63 96.481347 
L 453.6 96.481347 
" style="fill:none;stroke:#000000;stroke-linecap:square;stroke-width:0.1;"/>
     </g>
     <g id="line2d_86">
      <g>
       <use style="stroke:#000000;stroke-width:0.8;" x="63" xlink:href="#m462a70ab45" y="96.481347"/>
      </g>
     </g>
     <g id="text_44">
      <!-- 0.842 -->
      <g transform="translate(27.371875 100.280566)scale(0.1 -0.1)">
       <use xlink:href="#DejaVuSans-48"/>
       <use x="63.623047" xlink:href="#DejaVuSans-46"/>
       <use x="95.410156" xlink:href="#DejaVuSans-56"/>
       <use x="159.033203" xlink:href="#DejaVuSans-52"/>
       <use x="222.65625" xlink:href="#DejaVuSans-50"/>
      </g>
     </g>
    </g>
    <g id="ytick_18">
     <g id="line2d_87">
      <path clip-path="url(#pde1ad3930e)" d="M 63 82.823931 
L 453.6 82.823931 
" style="fill:none;stroke:#000000;stroke-linecap:square;stroke-width:0.1;"/>
     </g>
     <g id="line2d_88">
      <g>
       <use style="stroke:#000000;stroke-width:0.8;" x="63" xlink:href="#m462a70ab45" y="82.823931"/>
      </g>
     </g>
     <g id="text_45">
      <!-- 0.895 -->
      <g transform="translate(27.371875 86.62315)scale(0.1 -0.1)">
       <use xlink:href="#DejaVuSans-48"/>
       <use x="63.623047" xlink:href="#DejaVuSans-46"/>
       <use x="95.410156" xlink:href="#DejaVuSans-56"/>
       <use x="159.033203" xlink:href="#DejaVuSans-57"/>
       <use x="222.65625" xlink:href="#DejaVuSans-53"/>
      </g>
     </g>
    </g>
    <g id="ytick_19">
     <g id="line2d_89">
      <path clip-path="url(#pde1ad3930e)" d="M 63 69.166516 
L 453.6 69.166516 
" style="fill:none;stroke:#000000;stroke-linecap:square;stroke-width:0.1;"/>
     </g>
     <g id="line2d_90">
      <g>
       <use style="stroke:#000000;stroke-width:0.8;" x="63" xlink:href="#m462a70ab45" y="69.166516"/>
      </g>
     </g>
     <g id="text_46">
      <!-- 0.947 -->
      <g transform="translate(27.371875 72.965734)scale(0.1 -0.1)">
       <use xlink:href="#DejaVuSans-48"/>
       <use x="63.623047" xlink:href="#DejaVuSans-46"/>
       <use x="95.410156" xlink:href="#DejaVuSans-57"/>
       <use x="159.033203" xlink:href="#DejaVuSans-52"/>
       <use x="222.65625" xlink:href="#DejaVuSans-55"/>
      </g>
     </g>
    </g>
    <g id="ytick_20">
     <g id="line2d_91">
      <path clip-path="url(#pde1ad3930e)" d="M 63 55.5091 
L 453.6 55.5091 
" style="fill:none;stroke:#000000;stroke-linecap:square;stroke-width:0.1;"/>
     </g>
     <g id="line2d_92">
      <g>
       <use style="stroke:#000000;stroke-width:0.8;" x="63" xlink:href="#m462a70ab45" y="55.5091"/>
      </g>
     </g>
     <g id="text_47">
      <!-- 1.000 -->
      <g transform="translate(27.371875 59.308318)scale(0.1 -0.1)">
       <use xlink:href="#DejaVuSans-49"/>
       <use x="63.623047" xlink:href="#DejaVuSans-46"/>
       <use x="95.410156" xlink:href="#DejaVuSans-48"/>
       <use x="159.033203" xlink:href="#DejaVuSans-48"/>
       <use x="222.65625" xlink:href="#DejaVuSans-48"/>
      </g>
     </g>
    </g>
    <g id="text_48">
     <!-- Deviance lost ratio -->
     <g transform="translate(21.292187 226.153125)rotate(-90)scale(0.1 -0.1)">
      <defs>
       <path d="M 19.671875 64.796875 
L 19.671875 8.109375 
L 31.59375 8.109375 
Q 46.6875 8.109375 53.6875 14.9375 
Q 60.6875 21.78125 60.6875 36.53125 
Q 60.6875 51.171875 53.6875 57.984375 
Q 46.6875 64.796875 31.59375 64.796875 
z
M 9.8125 72.90625 
L 30.078125 72.90625 
Q 51.265625 72.90625 61.171875 64.09375 
Q 71.09375 55.28125 71.09375 36.53125 
Q 71.09375 17.671875 61.125 8.828125 
Q 51.171875 0 30.078125 0 
L 9.8125 0 
z
" id="DejaVuSans-68"/>
       <path d="M 2.984375 54.6875 
L 12.5 54.6875 
L 29.59375 8.796875 
L 46.6875 54.6875 
L 56.203125 54.6875 
L 35.6875 0 
L 23.484375 0 
z
" id="DejaVuSans-118"/>
       <path d="M 9.421875 54.6875 
L 18.40625 54.6875 
L 18.40625 0 
L 9.421875 0 
z
M 9.421875 75.984375 
L 18.40625 75.984375 
L 18.40625 64.59375 
L 9.421875 64.59375 
z
" id="DejaVuSans-105"/>
       <path d="M 34.28125 27.484375 
Q 23.390625 27.484375 19.1875 25 
Q 14.984375 22.515625 14.984375 16.5 
Q 14.984375 11.71875 18.140625 8.90625 
Q 21.296875 6.109375 26.703125 6.109375 
Q 34.1875 6.109375 38.703125 11.40625 
Q 43.21875 16.703125 43.21875 25.484375 
L 43.21875 27.484375 
z
M 52.203125 31.203125 
L 52.203125 0 
L 43.21875 0 
L 43.21875 8.296875 
Q 40.140625 3.328125 35.546875 0.953125 
Q 30.953125 -1.421875 24.3125 -1.421875 
Q 15.921875 -1.421875 10.953125 3.296875 
Q 6 8.015625 6 15.921875 
Q 6 25.140625 12.171875 29.828125 
Q 18.359375 34.515625 30.609375 34.515625 
L 43.21875 34.515625 
L 43.21875 35.40625 
Q 43.21875 41.609375 39.140625 45 
Q 35.0625 48.390625 27.6875 48.390625 
Q 23 48.390625 18.546875 47.265625 
Q 14.109375 46.140625 10.015625 43.890625 
L 10.015625 52.203125 
Q 14.9375 54.109375 19.578125 55.046875 
Q 24.21875 56 28.609375 56 
Q 40.484375 56 46.34375 49.84375 
Q 52.203125 43.703125 52.203125 31.203125 
z
" id="DejaVuSans-97"/>
       <path d="M 54.890625 33.015625 
L 54.890625 0 
L 45.90625 0 
L 45.90625 32.71875 
Q 45.90625 40.484375 42.875 44.328125 
Q 39.84375 48.1875 33.796875 48.1875 
Q 26.515625 48.1875 22.3125 43.546875 
Q 18.109375 38.921875 18.109375 30.90625 
L 18.109375 0 
L 9.078125 0 
L 9.078125 54.6875 
L 18.109375 54.6875 
L 18.109375 46.1875 
Q 21.34375 51.125 25.703125 53.5625 
Q 30.078125 56 35.796875 56 
Q 45.21875 56 50.046875 50.171875 
Q 54.890625 44.34375 54.890625 33.015625 
z
" id="DejaVuSans-110"/>
      </defs>
      <use xlink:href="#DejaVuSans-68"/>
      <use x="77.001953" xlink:href="#DejaVuSans-101"/>
      <use x="138.525391" xlink:href="#DejaVuSans-118"/>
      <use x="197.705078" xlink:href="#DejaVuSans-105"/>
      <use x="225.488281" xlink:href="#DejaVuSans-97"/>
      <use x="286.767578" xlink:href="#DejaVuSans-110"/>
      <use x="350.146484" xlink:href="#DejaVuSans-99"/>
      <use x="405.126953" xlink:href="#DejaVuSans-101"/>
      <use x="466.650391" xlink:href="#DejaVuSans-32"/>
      <use x="498.4375" xlink:href="#DejaVuSans-108"/>
      <use x="526.220703" xlink:href="#DejaVuSans-111"/>
      <use x="587.402344" xlink:href="#DejaVuSans-115"/>
      <use x="639.501953" xlink:href="#DejaVuSans-116"/>
      <use x="678.710938" xlink:href="#DejaVuSans-32"/>
      <use x="710.498047" xlink:href="#DejaVuSans-114"/>
      <use x="751.611328" xlink:href="#DejaVuSans-97"/>
      <use x="812.890625" xlink:href="#DejaVuSans-116"/>
      <use x="852.099609" xlink:href="#DejaVuSans-105"/>
      <use x="879.882812" xlink:href="#DejaVuSans-111"/>
     </g>
    </g>
   </g>
   <g id="line2d_93">
    <path clip-path="url(#pde1ad3930e)" d="M 80.754545 55.5091 
L 88.001299 146.739357 
L 95.248052 186.342686 
L 102.494805 204.787603 
L 109.741558 221.378703 
L 116.988312 232.233394 
L 124.235065 239.9497 
L 131.481818 245.59731 
L 138.728571 250.543804 
L 145.975325 252.502917 
L 153.222078 254.447523 
L 160.468831 256.045867 
L 167.715584 257.436418 
L 174.962338 258.45647 
L 182.209091 259.184764 
L 189.455844 259.819297 
L 196.702597 260.445352 
L 203.949351 261.062462 
L 211.196104 261.502505 
L 218.442857 261.940564 
L 225.68961 262.330656 
L 232.936364 262.683416 
L 240.183117 262.994912 
L 247.42987 263.279727 
L 254.676623 263.508175 
L 261.923377 263.706784 
L 269.17013 263.904705 
L 276.416883 264.099005 
L 283.663636 264.287307 
L 290.91039 264.470384 
L 298.157143 264.649122 
L 305.403896 264.823848 
L 312.650649 264.979782 
L 319.897403 265.090226 
L 327.144156 265.200158 
L 334.390909 265.301684 
L 341.637662 265.39689 
L 348.884416 265.491651 
L 356.131169 265.577665 
L 363.377922 265.658489 
L 370.624675 265.735864 
L 377.871429 265.812122 
L 385.118182 265.885258 
L 392.364935 265.957169 
L 399.611688 266.024995 
L 406.858442 266.091182 
L 414.105195 266.155508 
L 421.351948 266.219756 
L 428.598701 266.283618 
L 435.845455 266.344498 
" style="fill:none;stroke:#1f77b4;stroke-linecap:square;stroke-width:1.5;"/>
   </g>
   <g id="line2d_94">
    <path clip-path="url(#pde1ad3930e)" d="M 80.754545 55.5091 
L 88.001299 147.037794 
L 95.248052 182.87817 
L 102.494805 206.184191 
L 109.741558 224.165004 
L 116.988312 236.287434 
L 124.235065 247.817898 
L 131.481818 255.061531 
L 138.728571 258.236743 
L 145.975325 260.880808 
L 153.222078 262.959604 
L 160.468831 264.79334 
L 167.715584 266.596048 
L 174.962338 268.026633 
L 182.209091 269.293007 
L 189.455844 270.286401 
L 196.702597 271.271549 
L 203.949351 271.966786 
L 211.196104 272.575798 
L 218.442857 273.16072 
L 225.68961 273.611544 
L 232.936364 274.021828 
L 240.183117 274.392462 
L 247.42987 274.75971 
L 254.676623 275.125215 
L 261.923377 275.417041 
L 269.17013 275.652697 
L 276.416883 275.879899 
L 283.663636 276.087357 
L 290.91039 276.290176 
L 298.157143 276.4891 
L 305.403896 276.685238 
L 312.650649 276.876354 
L 319.897403 277.064138 
L 327.144156 277.241751 
L 334.390909 277.406855 
L 341.637662 277.544396 
L 348.884416 277.681364 
L 356.131169 277.811289 
L 363.377922 277.939471 
L 370.624675 278.063916 
L 377.871429 278.170368 
L 385.118182 278.27653 
L 392.364935 278.382445 
L 399.611688 278.476321 
L 406.858442 278.563084 
L 414.105195 278.645966 
L 421.351948 278.728442 
L 428.598701 278.808285 
L 435.845455 278.888059 
" style="fill:none;stroke:#ff7f0e;stroke-linecap:square;stroke-width:1.5;"/>
   </g>
   <g id="line2d_95">
    <path clip-path="url(#pde1ad3930e)" d="M 80.754545 55.5091 
L 88.001299 147.039427 
L 95.248052 182.884138 
L 102.494805 205.043316 
L 109.741558 223.756351 
L 116.988312 236.369208 
L 124.235065 248.393094 
L 131.481818 255.499879 
L 138.728571 260.584176 
L 145.975325 265.378248 
L 153.222078 267.823054 
L 160.468831 270.030685 
L 167.715584 272.126218 
L 174.962338 274.014479 
L 182.209091 275.604206 
L 189.455844 277.038683 
L 196.702597 278.37024 
L 203.949351 279.471187 
L 211.196104 280.557076 
L 218.442857 281.555982 
L 225.68961 282.549835 
L 232.936364 283.541837 
L 240.183117 284.487579 
L 247.42987 285.079682 
L 254.676623 285.556017 
L 261.923377 285.985451 
L 269.17013 286.356858 
L 276.416883 286.728117 
L 283.663636 287.056355 
L 290.91039 287.35161 
L 298.157143 287.63414 
L 305.403896 287.887899 
L 312.650649 288.132525 
L 319.897403 288.365668 
L 327.144156 288.598115 
L 334.390909 288.826975 
L 341.637662 289.046057 
L 348.884416 289.255049 
L 356.131169 289.451472 
L 363.377922 289.634272 
L 370.624675 289.799742 
L 377.871429 289.944843 
L 385.118182 290.077048 
L 392.364935 290.205983 
L 399.611688 290.333124 
L 406.858442 290.458548 
L 414.105195 290.572906 
L 421.351948 290.684765 
L 428.598701 290.793124 
L 435.845455 290.900726 
" style="fill:none;stroke:#2ca02c;stroke-linecap:square;stroke-width:1.5;"/>
   </g>
   <g id="line2d_96">
    <path clip-path="url(#pde1ad3930e)" d="M 80.754545 55.5091 
L 88.001299 147.086731 
L 95.248052 181.767666 
L 102.494805 201.283435 
L 109.741558 220.305608 
L 116.988312 233.130127 
L 124.235065 244.067327 
L 131.481818 251.838285 
L 138.728571 257.993065 
L 145.975325 263.788475 
L 153.222078 268.291898 
L 160.468831 272.345328 
L 167.715584 274.642383 
L 174.962338 276.745686 
L 182.209091 278.814578 
L 189.455844 280.558765 
L 196.702597 282.157243 
L 203.949351 283.742718 
L 211.196104 285.115634 
L 218.442857 286.264718 
L 225.68961 287.362353 
L 232.936364 288.378429 
L 240.183117 289.329248 
L 247.42987 290.006108 
L 254.676623 290.643226 
L 261.923377 291.168411 
L 269.17013 291.648442 
L 276.416883 292.080839 
L 283.663636 292.489871 
L 290.91039 292.878403 
L 298.157143 293.228779 
L 305.403896 293.567534 
L 312.650649 293.87436 
L 319.897403 294.180769 
L 327.144156 294.44661 
L 334.390909 294.708757 
L 341.637662 294.957908 
L 348.884416 295.20595 
L 356.131169 295.452572 
L 363.377922 295.657998 
L 370.624675 295.850252 
L 377.871429 296.040814 
L 385.118182 296.224777 
L 392.364935 296.395904 
L 399.611688 296.562691 
L 406.858442 296.724048 
L 414.105195 296.875104 
L 421.351948 297.009465 
L 428.598701 297.141608 
L 435.845455 297.271379 
" style="fill:none;stroke:#d62728;stroke-linecap:square;stroke-width:1.5;"/>
   </g>
   <g id="line2d_97">
    <path clip-path="url(#pde1ad3930e)" d="M 80.754545 55.5091 
L 88.001299 147.111504 
L 95.248052 182.540483 
L 102.494805 204.105737 
L 109.741558 223.062984 
L 116.988312 235.658802 
L 124.235065 247.541487 
L 131.481818 255.935857 
L 138.728571 263.190667 
L 145.975325 269.766566 
L 153.222078 272.489866 
L 160.468831 275.018992 
L 167.715584 277.372748 
L 174.962338 279.519172 
L 182.209091 281.634463 
L 189.455844 283.388778 
L 196.702597 285.095365 
L 203.949351 286.689642 
L 211.196104 288.179171 
L 218.442857 289.446686 
L 225.68961 290.620367 
L 232.936364 291.77509 
L 240.183117 292.912214 
L 247.42987 293.866087 
L 254.676623 294.688821 
L 261.923377 295.180989 
L 269.17013 295.651817 
L 276.416883 296.101948 
L 283.663636 296.544975 
L 290.91039 296.92299 
L 298.157143 297.276339 
L 305.403896 297.626593 
L 312.650649 297.934543 
L 319.897403 298.221814 
L 327.144156 298.49473 
L 334.390909 298.762322 
L 341.637662 299.026642 
L 348.884416 299.287598 
L 356.131169 299.545197 
L 363.377922 299.788542 
L 370.624675 300.013422 
L 377.871429 300.234581 
L 385.118182 300.444452 
L 392.364935 300.653147 
L 399.611688 300.840353 
L 406.858442 301.014134 
L 414.105195 301.187398 
L 421.351948 301.360524 
L 428.598701 301.527636 
L 435.845455 301.691094 
" style="fill:none;stroke:#9467bd;stroke-linecap:square;stroke-width:1.5;"/>
   </g>
   <g id="patch_3">
    <path d="M 63 315 
L 63 43.2 
" style="fill:none;stroke:#000000;stroke-linecap:square;stroke-linejoin:miter;stroke-width:0.8;"/>
   </g>
   <g id="patch_4">
    <path d="M 453.6 315 
L 453.6 43.2 
" style="fill:none;stroke:#000000;stroke-linecap:square;stroke-linejoin:miter;stroke-width:0.8;"/>
   </g>
   <g id="patch_5">
    <path d="M 63 315 
L 453.6 315 
" style="fill:none;stroke:#000000;stroke-linecap:square;stroke-linejoin:miter;stroke-width:0.8;"/>
   </g>
   <g id="patch_6">
    <path d="M 63 43.2 
L 453.6 43.2 
" style="fill:none;stroke:#000000;stroke-linecap:square;stroke-linejoin:miter;stroke-width:0.8;"/>
   </g>
   <g id="text_49">
    <!-- Deviance lost -->
    <g transform="translate(217.576875 37.2)scale(0.12 -0.12)">
     <use xlink:href="#DejaVuSans-68"/>
     <use x="77.001953" xlink:href="#DejaVuSans-101"/>
     <use x="138.525391" xlink:href="#DejaVuSans-118"/>
     <use x="197.705078" xlink:href="#DejaVuSans-105"/>
     <use x="225.488281" xlink:href="#DejaVuSans-97"/>
     <use x="286.767578" xlink:href="#DejaVuSans-110"/>
     <use x="350.146484" xlink:href="#DejaVuSans-99"/>
     <use x="405.126953" xlink:href="#DejaVuSans-101"/>
     <use x="466.650391" xlink:href="#DejaVuSans-32"/>
     <use x="498.4375" xlink:href="#DejaVuSans-108"/>
     <use x="526.220703" xlink:href="#DejaVuSans-111"/>
     <use x="587.402344" xlink:href="#DejaVuSans-115"/>
     <use x="639.501953" xlink:href="#DejaVuSans-116"/>
    </g>
   </g>
   <g id="legend_1">
    <g id="patch_7">
     <path d="M 377.353125 124.590625 
L 446.6 124.590625 
Q 448.6 124.590625 448.6 122.590625 
L 448.6 50.2 
Q 448.6 48.2 446.6 48.2 
L 377.353125 48.2 
Q 375.353125 48.2 375.353125 50.2 
L 375.353125 122.590625 
Q 375.353125 124.590625 377.353125 124.590625 
z
" style="fill:#ffffff;opacity:0.8;stroke:#cccccc;stroke-linejoin:miter;"/>
    </g>
    <g id="line2d_98">
     <path d="M 379.353125 56.298437 
L 399.353125 56.298437 
" style="fill:none;stroke:#1f77b4;stroke-linecap:square;stroke-width:1.5;"/>
    </g>
    <g id="line2d_99"/>
    <g id="text_50">
     <!-- 4 comp -->
     <g transform="translate(407.353125 59.798437)scale(0.1 -0.1)">
      <defs>
       <path d="M 18.109375 8.203125 
L 18.109375 -20.796875 
L 9.078125 -20.796875 
L 9.078125 54.6875 
L 18.109375 54.6875 
L 18.109375 46.390625 
Q 20.953125 51.265625 25.265625 53.625 
Q 29.59375 56 35.59375 56 
Q 45.5625 56 51.78125 48.09375 
Q 58.015625 40.1875 58.015625 27.296875 
Q 58.015625 14.40625 51.78125 6.484375 
Q 45.5625 -1.421875 35.59375 -1.421875 
Q 29.59375 -1.421875 25.265625 0.953125 
Q 20.953125 3.328125 18.109375 8.203125 
z
M 48.6875 27.296875 
Q 48.6875 37.203125 44.609375 42.84375 
Q 40.53125 48.484375 33.40625 48.484375 
Q 26.265625 48.484375 22.1875 42.84375 
Q 18.109375 37.203125 18.109375 27.296875 
Q 18.109375 17.390625 22.1875 11.75 
Q 26.265625 6.109375 33.40625 6.109375 
Q 40.53125 6.109375 44.609375 11.75 
Q 48.6875 17.390625 48.6875 27.296875 
z
" id="DejaVuSans-112"/>
      </defs>
      <use xlink:href="#DejaVuSans-52"/>
      <use x="63.623047" xlink:href="#DejaVuSans-32"/>
      <use x="95.410156" xlink:href="#DejaVuSans-99"/>
      <use x="150.390625" xlink:href="#DejaVuSans-111"/>
      <use x="211.572266" xlink:href="#DejaVuSans-109"/>
      <use x="308.984375" xlink:href="#DejaVuSans-112"/>
     </g>
    </g>
    <g id="line2d_100">
     <path d="M 379.353125 70.976562 
L 399.353125 70.976562 
" style="fill:none;stroke:#ff7f0e;stroke-linecap:square;stroke-width:1.5;"/>
    </g>
    <g id="line2d_101"/>
    <g id="text_51">
     <!-- 5 comp -->
     <g transform="translate(407.353125 74.476562)scale(0.1 -0.1)">
      <use xlink:href="#DejaVuSans-53"/>
      <use x="63.623047" xlink:href="#DejaVuSans-32"/>
      <use x="95.410156" xlink:href="#DejaVuSans-99"/>
      <use x="150.390625" xlink:href="#DejaVuSans-111"/>
      <use x="211.572266" xlink:href="#DejaVuSans-109"/>
      <use x="308.984375" xlink:href="#DejaVuSans-112"/>
     </g>
    </g>
    <g id="line2d_102">
     <path d="M 379.353125 85.654687 
L 399.353125 85.654687 
" style="fill:none;stroke:#2ca02c;stroke-linecap:square;stroke-width:1.5;"/>
    </g>
    <g id="line2d_103"/>
    <g id="text_52">
     <!-- 6 comp -->
     <g transform="translate(407.353125 89.154687)scale(0.1 -0.1)">
      <use xlink:href="#DejaVuSans-54"/>
      <use x="63.623047" xlink:href="#DejaVuSans-32"/>
      <use x="95.410156" xlink:href="#DejaVuSans-99"/>
      <use x="150.390625" xlink:href="#DejaVuSans-111"/>
      <use x="211.572266" xlink:href="#DejaVuSans-109"/>
      <use x="308.984375" xlink:href="#DejaVuSans-112"/>
     </g>
    </g>
    <g id="line2d_104">
     <path d="M 379.353125 100.332812 
L 399.353125 100.332812 
" style="fill:none;stroke:#d62728;stroke-linecap:square;stroke-width:1.5;"/>
    </g>
    <g id="line2d_105"/>
    <g id="text_53">
     <!-- 7 comp -->
     <g transform="translate(407.353125 103.832812)scale(0.1 -0.1)">
      <use xlink:href="#DejaVuSans-55"/>
      <use x="63.623047" xlink:href="#DejaVuSans-32"/>
      <use x="95.410156" xlink:href="#DejaVuSans-99"/>
      <use x="150.390625" xlink:href="#DejaVuSans-111"/>
      <use x="211.572266" xlink:href="#DejaVuSans-109"/>
      <use x="308.984375" xlink:href="#DejaVuSans-112"/>
     </g>
    </g>
    <g id="line2d_106">
     <path d="M 379.353125 115.010937 
L 399.353125 115.010937 
" style="fill:none;stroke:#9467bd;stroke-linecap:square;stroke-width:1.5;"/>
    </g>
    <g id="line2d_107"/>
    <g id="text_54">
     <!-- 8 comp -->
     <g transform="translate(407.353125 118.510937)scale(0.1 -0.1)">
      <use xlink:href="#DejaVuSans-56"/>
      <use x="63.623047" xlink:href="#DejaVuSans-32"/>
      <use x="95.410156" xlink:href="#DejaVuSans-99"/>
      <use x="150.390625" xlink:href="#DejaVuSans-111"/>
      <use x="211.572266" xlink:href="#DejaVuSans-109"/>
      <use x="308.984375" xlink:href="#DejaVuSans-112"/>
     </g>
    </g>
   </g>
  </g>
 </g>
 <defs>
  <clipPath id="pde1ad3930e">
   <rect height="271.8" width="390.6" x="63" y="43.2"/>
  </clipPath>
 </defs>
</svg>
