<?xml version="1.0" encoding="utf-8" standalone="no"?>
<!DOCTYPE svg PUBLIC "-//W3C//DTD SVG 1.1//EN"
  "http://www.w3.org/Graphics/SVG/1.1/DTD/svg11.dtd">
<!-- Created with matplotlib (https://matplotlib.org/) -->
<svg height="864pt" version="1.1" viewBox="0 0 432 864" width="432pt" xmlns="http://www.w3.org/2000/svg" xmlns:xlink="http://www.w3.org/1999/xlink">
 <metadata>
  <rdf:RDF xmlns:cc="http://creativecommons.org/ns#" xmlns:dc="http://purl.org/dc/elements/1.1/" xmlns:rdf="http://www.w3.org/1999/02/22-rdf-syntax-ns#">
   <cc:Work>
    <dc:type rdf:resource="http://purl.org/dc/dcmitype/StillImage"/>
    <dc:date>2020-12-26T17:58:31.707694</dc:date>
    <dc:format>image/svg+xml</dc:format>
    <dc:creator>
     <cc:Agent>
      <dc:title>Matplotlib v3.3.3, https://matplotlib.org/</dc:title>
     </cc:Agent>
    </dc:creator>
   </cc:Work>
  </rdf:RDF>
 </metadata>
 <defs>
  <style type="text/css">*{stroke-linecap:butt;stroke-linejoin:round;}</style>
 </defs>
 <g id="figure_1">
  <g id="patch_1">
   <path d="M 0 864 
L 432 864 
L 432 0 
L 0 0 
z
" style="fill:none;"/>
  </g>
  <g id="axes_1">
   <g id="patch_2">
    <path d="M 54 756 
L 388.8 756 
L 388.8 103.68 
L 54 103.68 
z
" style="fill:#ffffff;"/>
   </g>
   <g id="patch_3">
    <path clip-path="url(#p66c78bd586)" d="M 54 745.8075 
L 91.534466 745.8075 
L 91.534466 744.4485 
L 54 744.4485 
z
" style="fill:#1f77b4;"/>
   </g>
   <g id="patch_4">
    <path clip-path="url(#p66c78bd586)" d="M 54 705.0375 
L 92.091908 705.0375 
L 92.091908 703.6785 
L 54 703.6785 
z
" style="fill:#1f77b4;"/>
   </g>
   <g id="patch_5">
    <path clip-path="url(#p66c78bd586)" d="M 54 664.2675 
L 344.427572 664.2675 
L 344.427572 662.9085 
L 54 662.9085 
z
" style="fill:#1f77b4;"/>
   </g>
   <g id="patch_6">
    <path clip-path="url(#p66c78bd586)" d="M 54 623.4975 
L 90.977023 623.4975 
L 90.977023 622.1385 
L 54 622.1385 
z
" style="fill:#1f77b4;"/>
   </g>
   <g id="patch_7">
    <path clip-path="url(#p66c78bd586)" d="M 54 582.7275 
L 87.260739 582.7275 
L 87.260739 581.3685 
L 54 581.3685 
z
" style="fill:#1f77b4;"/>
   </g>
   <g id="patch_8">
    <path clip-path="url(#p66c78bd586)" d="M 54 541.9575 
L 112.15984 541.9575 
L 112.15984 540.5985 
L 54 540.5985 
z
" style="fill:#1f77b4;"/>
   </g>
   <g id="patch_9">
    <path clip-path="url(#p66c78bd586)" d="M 54 501.1875 
L 100.453546 501.1875 
L 100.453546 499.8285 
L 54 499.8285 
z
" style="fill:#1f77b4;"/>
   </g>
   <g id="patch_10">
    <path clip-path="url(#p66c78bd586)" d="M 54 460.4175 
L 99.71029 460.4175 
L 99.71029 459.0585 
L 54 459.0585 
z
" style="fill:#1f77b4;"/>
   </g>
   <g id="patch_11">
    <path clip-path="url(#p66c78bd586)" d="M 54 419.6475 
L 100.081918 419.6475 
L 100.081918 418.2885 
L 54 418.2885 
z
" style="fill:#1f77b4;"/>
   </g>
   <g id="patch_12">
    <path clip-path="url(#p66c78bd586)" d="M 54 378.8775 
L 103.798202 378.8775 
L 103.798202 377.5185 
L 54 377.5185 
z
" style="fill:#1f77b4;"/>
   </g>
   <g id="patch_13">
    <path clip-path="url(#p66c78bd586)" d="M 54 338.1075 
L 101.196803 338.1075 
L 101.196803 336.7485 
L 54 336.7485 
z
" style="fill:#1f77b4;"/>
   </g>
   <g id="patch_14">
    <path clip-path="url(#p66c78bd586)" d="M 54 297.3375 
L 100.267732 297.3375 
L 100.267732 295.9785 
L 54 295.9785 
z
" style="fill:#1f77b4;"/>
   </g>
   <g id="patch_15">
    <path clip-path="url(#p66c78bd586)" d="M 54 256.5675 
L 200.979021 256.5675 
L 200.979021 255.2085 
L 54 255.2085 
z
" style="fill:#1f77b4;"/>
   </g>
   <g id="patch_16">
    <path clip-path="url(#p66c78bd586)" d="M 54 215.7975 
L 101.010989 215.7975 
L 101.010989 214.4385 
L 54 214.4385 
z
" style="fill:#1f77b4;"/>
   </g>
   <g id="patch_17">
    <path clip-path="url(#p66c78bd586)" d="M 54 175.0275 
L 83.172827 175.0275 
L 83.172827 173.6685 
L 54 173.6685 
z
" style="fill:#1f77b4;"/>
   </g>
   <g id="patch_18">
    <path clip-path="url(#p66c78bd586)" d="M 54 134.2575 
L 83.358641 134.2575 
L 83.358641 132.8985 
L 54 132.8985 
z
" style="fill:#1f77b4;"/>
   </g>
   <g id="patch_19">
    <path clip-path="url(#p66c78bd586)" d="M 54 744.4485 
L 54 744.4485 
L 54 743.0895 
L 54 743.0895 
z
" style="fill:#aec7e8;"/>
   </g>
   <g id="patch_20">
    <path clip-path="url(#p66c78bd586)" d="M 54 703.6785 
L 54 703.6785 
L 54 702.3195 
L 54 702.3195 
z
" style="fill:#aec7e8;"/>
   </g>
   <g id="patch_21">
    <path clip-path="url(#p66c78bd586)" d="M 54 662.9085 
L 54 662.9085 
L 54 661.5495 
L 54 661.5495 
z
" style="fill:#aec7e8;"/>
   </g>
   <g id="patch_22">
    <path clip-path="url(#p66c78bd586)" d="M 54 622.1385 
L 54 622.1385 
L 54 620.7795 
L 54 620.7795 
z
" style="fill:#aec7e8;"/>
   </g>
   <g id="patch_23">
    <path clip-path="url(#p66c78bd586)" d="M 54 581.3685 
L 54 581.3685 
L 54 580.0095 
L 54 580.0095 
z
" style="fill:#aec7e8;"/>
   </g>
   <g id="patch_24">
    <path clip-path="url(#p66c78bd586)" d="M 54 540.5985 
L 77.784216 540.5985 
L 77.784216 539.2395 
L 54 539.2395 
z
" style="fill:#aec7e8;"/>
   </g>
   <g id="patch_25">
    <path clip-path="url(#p66c78bd586)" d="M 54 499.8285 
L 65.892108 499.8285 
L 65.892108 498.4695 
L 54 498.4695 
z
" style="fill:#aec7e8;"/>
   </g>
   <g id="patch_26">
    <path clip-path="url(#p66c78bd586)" d="M 54 459.0585 
L 65.892108 459.0585 
L 65.892108 457.6995 
L 54 457.6995 
z
" style="fill:#aec7e8;"/>
   </g>
   <g id="patch_27">
    <path clip-path="url(#p66c78bd586)" d="M 54 418.2885 
L 65.892108 418.2885 
L 65.892108 416.9295 
L 54 416.9295 
z
" style="fill:#aec7e8;"/>
   </g>
   <g id="patch_28">
    <path clip-path="url(#p66c78bd586)" d="M 54 377.5185 
L 65.892108 377.5185 
L 65.892108 376.1595 
L 54 376.1595 
z
" style="fill:#aec7e8;"/>
   </g>
   <g id="patch_29">
    <path clip-path="url(#p66c78bd586)" d="M 54 336.7485 
L 65.892108 336.7485 
L 65.892108 335.3895 
L 54 335.3895 
z
" style="fill:#aec7e8;"/>
   </g>
   <g id="patch_30">
    <path clip-path="url(#p66c78bd586)" d="M 54 295.9785 
L 65.892108 295.9785 
L 65.892108 294.6195 
L 54 294.6195 
z
" style="fill:#aec7e8;"/>
   </g>
   <g id="patch_31">
    <path clip-path="url(#p66c78bd586)" d="M 54 255.2085 
L 89.676324 255.2085 
L 89.676324 253.8495 
L 54 253.8495 
z
" style="fill:#aec7e8;"/>
   </g>
   <g id="patch_32">
    <path clip-path="url(#p66c78bd586)" d="M 54 214.4385 
L 65.892108 214.4385 
L 65.892108 213.0795 
L 54 213.0795 
z
" style="fill:#aec7e8;"/>
   </g>
   <g id="patch_33">
    <path clip-path="url(#p66c78bd586)" d="M 54 173.6685 
L 54 173.6685 
L 54 172.3095 
L 54 172.3095 
z
" style="fill:#aec7e8;"/>
   </g>
   <g id="patch_34">
    <path clip-path="url(#p66c78bd586)" d="M 54 132.8985 
L 54 132.8985 
L 54 131.5395 
L 54 131.5395 
z
" style="fill:#aec7e8;"/>
   </g>
   <g id="patch_35">
    <path clip-path="url(#p66c78bd586)" d="M 54 743.0895 
L 54 743.0895 
L 54 741.7305 
L 54 741.7305 
z
" style="fill:#ff7f0e;"/>
   </g>
   <g id="patch_36">
    <path clip-path="url(#p66c78bd586)" d="M 54 702.3195 
L 54 702.3195 
L 54 700.9605 
L 54 700.9605 
z
" style="fill:#ff7f0e;"/>
   </g>
   <g id="patch_37">
    <path clip-path="url(#p66c78bd586)" d="M 54 661.5495 
L 54 661.5495 
L 54 660.1905 
L 54 660.1905 
z
" style="fill:#ff7f0e;"/>
   </g>
   <g id="patch_38">
    <path clip-path="url(#p66c78bd586)" d="M 54 620.7795 
L 54 620.7795 
L 54 619.4205 
L 54 619.4205 
z
" style="fill:#ff7f0e;"/>
   </g>
   <g id="patch_39">
    <path clip-path="url(#p66c78bd586)" d="M 54 580.0095 
L 54 580.0095 
L 54 578.6505 
L 54 578.6505 
z
" style="fill:#ff7f0e;"/>
   </g>
   <g id="patch_40">
    <path clip-path="url(#p66c78bd586)" d="M 54 539.2395 
L 77.784216 539.2395 
L 77.784216 537.8805 
L 54 537.8805 
z
" style="fill:#ff7f0e;"/>
   </g>
   <g id="patch_41">
    <path clip-path="url(#p66c78bd586)" d="M 54 498.4695 
L 65.892108 498.4695 
L 65.892108 497.1105 
L 54 497.1105 
z
" style="fill:#ff7f0e;"/>
   </g>
   <g id="patch_42">
    <path clip-path="url(#p66c78bd586)" d="M 54 457.6995 
L 65.892108 457.6995 
L 65.892108 456.3405 
L 54 456.3405 
z
" style="fill:#ff7f0e;"/>
   </g>
   <g id="patch_43">
    <path clip-path="url(#p66c78bd586)" d="M 54 416.9295 
L 65.892108 416.9295 
L 65.892108 415.5705 
L 54 415.5705 
z
" style="fill:#ff7f0e;"/>
   </g>
   <g id="patch_44">
    <path clip-path="url(#p66c78bd586)" d="M 54 376.1595 
L 65.892108 376.1595 
L 65.892108 374.8005 
L 54 374.8005 
z
" style="fill:#ff7f0e;"/>
   </g>
   <g id="patch_45">
    <path clip-path="url(#p66c78bd586)" d="M 54 335.3895 
L 65.892108 335.3895 
L 65.892108 334.0305 
L 54 334.0305 
z
" style="fill:#ff7f0e;"/>
   </g>
   <g id="patch_46">
    <path clip-path="url(#p66c78bd586)" d="M 54 294.6195 
L 65.892108 294.6195 
L 65.892108 293.2605 
L 54 293.2605 
z
" style="fill:#ff7f0e;"/>
   </g>
   <g id="patch_47">
    <path clip-path="url(#p66c78bd586)" d="M 54 253.8495 
L 235.354645 253.8495 
L 235.354645 252.4905 
L 54 252.4905 
z
" style="fill:#ff7f0e;"/>
   </g>
   <g id="patch_48">
    <path clip-path="url(#p66c78bd586)" d="M 54 213.0795 
L 65.892108 213.0795 
L 65.892108 211.7205 
L 54 211.7205 
z
" style="fill:#ff7f0e;"/>
   </g>
   <g id="patch_49">
    <path clip-path="url(#p66c78bd586)" d="M 54 172.3095 
L 54 172.3095 
L 54 170.9505 
L 54 170.9505 
z
" style="fill:#ff7f0e;"/>
   </g>
   <g id="patch_50">
    <path clip-path="url(#p66c78bd586)" d="M 54 131.5395 
L 54 131.5395 
L 54 130.1805 
L 54 130.1805 
z
" style="fill:#ff7f0e;"/>
   </g>
   <g id="patch_51">
    <path clip-path="url(#p66c78bd586)" d="M 54 741.7305 
L 54 741.7305 
L 54 740.3715 
L 54 740.3715 
z
" style="fill:#2ca02c;"/>
   </g>
   <g id="patch_52">
    <path clip-path="url(#p66c78bd586)" d="M 54 700.9605 
L 54 700.9605 
L 54 699.6015 
L 54 699.6015 
z
" style="fill:#2ca02c;"/>
   </g>
   <g id="patch_53">
    <path clip-path="url(#p66c78bd586)" d="M 54 660.1905 
L 54 660.1905 
L 54 658.8315 
L 54 658.8315 
z
" style="fill:#2ca02c;"/>
   </g>
   <g id="patch_54">
    <path clip-path="url(#p66c78bd586)" d="M 54 619.4205 
L 58.45954 619.4205 
L 58.45954 618.0615 
L 54 618.0615 
z
" style="fill:#2ca02c;"/>
   </g>
   <g id="patch_55">
    <path clip-path="url(#p66c78bd586)" d="M 54 578.6505 
L 54 578.6505 
L 54 577.2915 
L 54 577.2915 
z
" style="fill:#2ca02c;"/>
   </g>
   <g id="patch_56">
    <path clip-path="url(#p66c78bd586)" d="M 54 537.8805 
L 77.784216 537.8805 
L 77.784216 536.5215 
L 54 536.5215 
z
" style="fill:#2ca02c;"/>
   </g>
   <g id="patch_57">
    <path clip-path="url(#p66c78bd586)" d="M 54 497.1105 
L 65.892108 497.1105 
L 65.892108 495.7515 
L 54 495.7515 
z
" style="fill:#2ca02c;"/>
   </g>
   <g id="patch_58">
    <path clip-path="url(#p66c78bd586)" d="M 54 456.3405 
L 65.892108 456.3405 
L 65.892108 454.9815 
L 54 454.9815 
z
" style="fill:#2ca02c;"/>
   </g>
   <g id="patch_59">
    <path clip-path="url(#p66c78bd586)" d="M 54 415.5705 
L 65.892108 415.5705 
L 65.892108 414.2115 
L 54 414.2115 
z
" style="fill:#2ca02c;"/>
   </g>
   <g id="patch_60">
    <path clip-path="url(#p66c78bd586)" d="M 54 374.8005 
L 65.892108 374.8005 
L 65.892108 373.4415 
L 54 373.4415 
z
" style="fill:#2ca02c;"/>
   </g>
   <g id="patch_61">
    <path clip-path="url(#p66c78bd586)" d="M 54 334.0305 
L 65.892108 334.0305 
L 65.892108 332.6715 
L 54 332.6715 
z
" style="fill:#2ca02c;"/>
   </g>
   <g id="patch_62">
    <path clip-path="url(#p66c78bd586)" d="M 54 293.2605 
L 65.892108 293.2605 
L 65.892108 291.9015 
L 54 291.9015 
z
" style="fill:#2ca02c;"/>
   </g>
   <g id="patch_63">
    <path clip-path="url(#p66c78bd586)" d="M 54 252.4905 
L 89.676324 252.4905 
L 89.676324 251.1315 
L 54 251.1315 
z
" style="fill:#2ca02c;"/>
   </g>
   <g id="patch_64">
    <path clip-path="url(#p66c78bd586)" d="M 54 211.7205 
L 65.892108 211.7205 
L 65.892108 210.3615 
L 54 210.3615 
z
" style="fill:#2ca02c;"/>
   </g>
   <g id="patch_65">
    <path clip-path="url(#p66c78bd586)" d="M 54 170.9505 
L 54 170.9505 
L 54 169.5915 
L 54 169.5915 
z
" style="fill:#2ca02c;"/>
   </g>
   <g id="patch_66">
    <path clip-path="url(#p66c78bd586)" d="M 54 130.1805 
L 54 130.1805 
L 54 128.8215 
L 54 128.8215 
z
" style="fill:#2ca02c;"/>
   </g>
   <g id="patch_67">
    <path clip-path="url(#p66c78bd586)" d="M 54 740.3715 
L 92.463536 740.3715 
L 92.463536 739.0125 
L 54 739.0125 
z
" style="fill:#98df8a;"/>
   </g>
   <g id="patch_68">
    <path clip-path="url(#p66c78bd586)" d="M 54 699.6015 
L 92.091908 699.6015 
L 92.091908 698.2425 
L 54 698.2425 
z
" style="fill:#98df8a;"/>
   </g>
   <g id="patch_69">
    <path clip-path="url(#p66c78bd586)" d="M 54 658.8315 
L 90.977023 658.8315 
L 90.977023 657.4725 
L 54 657.4725 
z
" style="fill:#98df8a;"/>
   </g>
   <g id="patch_70">
    <path clip-path="url(#p66c78bd586)" d="M 54 618.0615 
L 90.977023 618.0615 
L 90.977023 616.7025 
L 54 616.7025 
z
" style="fill:#98df8a;"/>
   </g>
   <g id="patch_71">
    <path clip-path="url(#p66c78bd586)" d="M 54 577.2915 
L 85.96004 577.2915 
L 85.96004 575.9325 
L 54 575.9325 
z
" style="fill:#98df8a;"/>
   </g>
   <g id="patch_72">
    <path clip-path="url(#p66c78bd586)" d="M 54 536.5215 
L 111.788212 536.5215 
L 111.788212 535.1625 
L 54 535.1625 
z
" style="fill:#98df8a;"/>
   </g>
   <g id="patch_73">
    <path clip-path="url(#p66c78bd586)" d="M 54 495.7515 
L 101.196803 495.7515 
L 101.196803 494.3925 
L 54 494.3925 
z
" style="fill:#98df8a;"/>
   </g>
   <g id="patch_74">
    <path clip-path="url(#p66c78bd586)" d="M 54 454.9815 
L 100.267732 454.9815 
L 100.267732 453.6225 
L 54 453.6225 
z
" style="fill:#98df8a;"/>
   </g>
   <g id="patch_75">
    <path clip-path="url(#p66c78bd586)" d="M 54 414.2115 
L 100.639361 414.2115 
L 100.639361 412.8525 
L 54 412.8525 
z
" style="fill:#98df8a;"/>
   </g>
   <g id="patch_76">
    <path clip-path="url(#p66c78bd586)" d="M 54 373.4415 
L 100.453546 373.4415 
L 100.453546 372.0825 
L 54 372.0825 
z
" style="fill:#98df8a;"/>
   </g>
   <g id="patch_77">
    <path clip-path="url(#p66c78bd586)" d="M 54 332.6715 
L 149.694306 332.6715 
L 149.694306 331.3125 
L 54 331.3125 
z
" style="fill:#98df8a;"/>
   </g>
   <g id="patch_78">
    <path clip-path="url(#p66c78bd586)" d="M 54 291.9015 
L 100.639361 291.9015 
L 100.639361 290.5425 
L 54 290.5425 
z
" style="fill:#98df8a;"/>
   </g>
   <g id="patch_79">
    <path clip-path="url(#p66c78bd586)" d="M 54 251.1315 
L 137.988012 251.1315 
L 137.988012 249.7725 
L 54 249.7725 
z
" style="fill:#98df8a;"/>
   </g>
   <g id="patch_80">
    <path clip-path="url(#p66c78bd586)" d="M 54 210.3615 
L 100.825175 210.3615 
L 100.825175 209.0025 
L 54 209.0025 
z
" style="fill:#98df8a;"/>
   </g>
   <g id="patch_81">
    <path clip-path="url(#p66c78bd586)" d="M 54 169.5915 
L 372.857143 169.5915 
L 372.857143 168.2325 
L 54 168.2325 
z
" style="fill:#98df8a;"/>
   </g>
   <g id="patch_82">
    <path clip-path="url(#p66c78bd586)" d="M 54 128.8215 
L 83.73027 128.8215 
L 83.73027 127.4625 
L 54 127.4625 
z
" style="fill:#98df8a;"/>
   </g>
   <g id="patch_83">
    <path clip-path="url(#p66c78bd586)" d="M 54 739.0125 
L 54 739.0125 
L 54 737.6535 
L 54 737.6535 
z
" style="fill:#ff9896;"/>
   </g>
   <g id="patch_84">
    <path clip-path="url(#p66c78bd586)" d="M 54 698.2425 
L 54 698.2425 
L 54 696.8835 
L 54 696.8835 
z
" style="fill:#ff9896;"/>
   </g>
   <g id="patch_85">
    <path clip-path="url(#p66c78bd586)" d="M 54 657.4725 
L 54 657.4725 
L 54 656.1135 
L 54 656.1135 
z
" style="fill:#ff9896;"/>
   </g>
   <g id="patch_86">
    <path clip-path="url(#p66c78bd586)" d="M 54 616.7025 
L 54 616.7025 
L 54 615.3435 
L 54 615.3435 
z
" style="fill:#ff9896;"/>
   </g>
   <g id="patch_87">
    <path clip-path="url(#p66c78bd586)" d="M 54 575.9325 
L 54 575.9325 
L 54 574.5735 
L 54 574.5735 
z
" style="fill:#ff9896;"/>
   </g>
   <g id="patch_88">
    <path clip-path="url(#p66c78bd586)" d="M 54 535.1625 
L 77.784216 535.1625 
L 77.784216 533.8035 
L 54 533.8035 
z
" style="fill:#ff9896;"/>
   </g>
   <g id="patch_89">
    <path clip-path="url(#p66c78bd586)" d="M 54 494.3925 
L 65.892108 494.3925 
L 65.892108 493.0335 
L 54 493.0335 
z
" style="fill:#ff9896;"/>
   </g>
   <g id="patch_90">
    <path clip-path="url(#p66c78bd586)" d="M 54 453.6225 
L 65.892108 453.6225 
L 65.892108 452.2635 
L 54 452.2635 
z
" style="fill:#ff9896;"/>
   </g>
   <g id="patch_91">
    <path clip-path="url(#p66c78bd586)" d="M 54 412.8525 
L 65.892108 412.8525 
L 65.892108 411.4935 
L 54 411.4935 
z
" style="fill:#ff9896;"/>
   </g>
   <g id="patch_92">
    <path clip-path="url(#p66c78bd586)" d="M 54 372.0825 
L 65.892108 372.0825 
L 65.892108 370.7235 
L 54 370.7235 
z
" style="fill:#ff9896;"/>
   </g>
   <g id="patch_93">
    <path clip-path="url(#p66c78bd586)" d="M 54 331.3125 
L 65.892108 331.3125 
L 65.892108 329.9535 
L 54 329.9535 
z
" style="fill:#ff9896;"/>
   </g>
   <g id="patch_94">
    <path clip-path="url(#p66c78bd586)" d="M 54 290.5425 
L 65.892108 290.5425 
L 65.892108 289.1835 
L 54 289.1835 
z
" style="fill:#ff9896;"/>
   </g>
   <g id="patch_95">
    <path clip-path="url(#p66c78bd586)" d="M 54 249.7725 
L 89.676324 249.7725 
L 89.676324 248.4135 
L 54 248.4135 
z
" style="fill:#ff9896;"/>
   </g>
   <g id="patch_96">
    <path clip-path="url(#p66c78bd586)" d="M 54 209.0025 
L 88.18981 209.0025 
L 88.18981 207.6435 
L 54 207.6435 
z
" style="fill:#ff9896;"/>
   </g>
   <g id="patch_97">
    <path clip-path="url(#p66c78bd586)" d="M 54 168.2325 
L 54 168.2325 
L 54 166.8735 
L 54 166.8735 
z
" style="fill:#ff9896;"/>
   </g>
   <g id="patch_98">
    <path clip-path="url(#p66c78bd586)" d="M 54 127.4625 
L 54 127.4625 
L 54 126.1035 
L 54 126.1035 
z
" style="fill:#ff9896;"/>
   </g>
   <g id="patch_99">
    <path clip-path="url(#p66c78bd586)" d="M 54 737.6535 
L 54 737.6535 
L 54 736.2945 
L 54 736.2945 
z
" style="fill:#9467bd;"/>
   </g>
   <g id="patch_100">
    <path clip-path="url(#p66c78bd586)" d="M 54 696.8835 
L 54 696.8835 
L 54 695.5245 
L 54 695.5245 
z
" style="fill:#9467bd;"/>
   </g>
   <g id="patch_101">
    <path clip-path="url(#p66c78bd586)" d="M 54 656.1135 
L 54 656.1135 
L 54 654.7545 
L 54 654.7545 
z
" style="fill:#9467bd;"/>
   </g>
   <g id="patch_102">
    <path clip-path="url(#p66c78bd586)" d="M 54 615.3435 
L 54 615.3435 
L 54 613.9845 
L 54 613.9845 
z
" style="fill:#9467bd;"/>
   </g>
   <g id="patch_103">
    <path clip-path="url(#p66c78bd586)" d="M 54 574.5735 
L 54 574.5735 
L 54 573.2145 
L 54 573.2145 
z
" style="fill:#9467bd;"/>
   </g>
   <g id="patch_104">
    <path clip-path="url(#p66c78bd586)" d="M 54 533.8035 
L 77.784216 533.8035 
L 77.784216 532.4445 
L 54 532.4445 
z
" style="fill:#9467bd;"/>
   </g>
   <g id="patch_105">
    <path clip-path="url(#p66c78bd586)" d="M 54 493.0335 
L 65.892108 493.0335 
L 65.892108 491.6745 
L 54 491.6745 
z
" style="fill:#9467bd;"/>
   </g>
   <g id="patch_106">
    <path clip-path="url(#p66c78bd586)" d="M 54 452.2635 
L 65.892108 452.2635 
L 65.892108 450.9045 
L 54 450.9045 
z
" style="fill:#9467bd;"/>
   </g>
   <g id="patch_107">
    <path clip-path="url(#p66c78bd586)" d="M 54 411.4935 
L 65.892108 411.4935 
L 65.892108 410.1345 
L 54 410.1345 
z
" style="fill:#9467bd;"/>
   </g>
   <g id="patch_108">
    <path clip-path="url(#p66c78bd586)" d="M 54 370.7235 
L 65.892108 370.7235 
L 65.892108 369.3645 
L 54 369.3645 
z
" style="fill:#9467bd;"/>
   </g>
   <g id="patch_109">
    <path clip-path="url(#p66c78bd586)" d="M 54 329.9535 
L 65.892108 329.9535 
L 65.892108 328.5945 
L 54 328.5945 
z
" style="fill:#9467bd;"/>
   </g>
   <g id="patch_110">
    <path clip-path="url(#p66c78bd586)" d="M 54 289.1835 
L 65.892108 289.1835 
L 65.892108 287.8245 
L 54 287.8245 
z
" style="fill:#9467bd;"/>
   </g>
   <g id="patch_111">
    <path clip-path="url(#p66c78bd586)" d="M 54 248.4135 
L 98.223776 248.4135 
L 98.223776 247.0545 
L 54 247.0545 
z
" style="fill:#9467bd;"/>
   </g>
   <g id="patch_112">
    <path clip-path="url(#p66c78bd586)" d="M 54 207.6435 
L 65.892108 207.6435 
L 65.892108 206.2845 
L 54 206.2845 
z
" style="fill:#9467bd;"/>
   </g>
   <g id="patch_113">
    <path clip-path="url(#p66c78bd586)" d="M 54 166.8735 
L 54 166.8735 
L 54 165.5145 
L 54 165.5145 
z
" style="fill:#9467bd;"/>
   </g>
   <g id="patch_114">
    <path clip-path="url(#p66c78bd586)" d="M 54 126.1035 
L 54 126.1035 
L 54 124.7445 
L 54 124.7445 
z
" style="fill:#9467bd;"/>
   </g>
   <g id="patch_115">
    <path clip-path="url(#p66c78bd586)" d="M 54 736.2945 
L 126.467532 736.2945 
L 126.467532 734.9355 
L 54 734.9355 
z
" style="fill:#8c564b;"/>
   </g>
   <g id="patch_116">
    <path clip-path="url(#p66c78bd586)" d="M 54 695.5245 
L 54 695.5245 
L 54 694.1655 
L 54 694.1655 
z
" style="fill:#8c564b;"/>
   </g>
   <g id="patch_117">
    <path clip-path="url(#p66c78bd586)" d="M 54 654.7545 
L 54 654.7545 
L 54 653.3955 
L 54 653.3955 
z
" style="fill:#8c564b;"/>
   </g>
   <g id="patch_118">
    <path clip-path="url(#p66c78bd586)" d="M 54 613.9845 
L 54 613.9845 
L 54 612.6255 
L 54 612.6255 
z
" style="fill:#8c564b;"/>
   </g>
   <g id="patch_119">
    <path clip-path="url(#p66c78bd586)" d="M 54 573.2145 
L 54 573.2145 
L 54 571.8555 
L 54 571.8555 
z
" style="fill:#8c564b;"/>
   </g>
   <g id="patch_120">
    <path clip-path="url(#p66c78bd586)" d="M 54 532.4445 
L 77.784216 532.4445 
L 77.784216 531.0855 
L 54 531.0855 
z
" style="fill:#8c564b;"/>
   </g>
   <g id="patch_121">
    <path clip-path="url(#p66c78bd586)" d="M 54 491.6745 
L 65.892108 491.6745 
L 65.892108 490.3155 
L 54 490.3155 
z
" style="fill:#8c564b;"/>
   </g>
   <g id="patch_122">
    <path clip-path="url(#p66c78bd586)" d="M 54 450.9045 
L 65.892108 450.9045 
L 65.892108 449.5455 
L 54 449.5455 
z
" style="fill:#8c564b;"/>
   </g>
   <g id="patch_123">
    <path clip-path="url(#p66c78bd586)" d="M 54 410.1345 
L 65.892108 410.1345 
L 65.892108 408.7755 
L 54 408.7755 
z
" style="fill:#8c564b;"/>
   </g>
   <g id="patch_124">
    <path clip-path="url(#p66c78bd586)" d="M 54 369.3645 
L 65.892108 369.3645 
L 65.892108 368.0055 
L 54 368.0055 
z
" style="fill:#8c564b;"/>
   </g>
   <g id="patch_125">
    <path clip-path="url(#p66c78bd586)" d="M 54 328.5945 
L 65.892108 328.5945 
L 65.892108 327.2355 
L 54 327.2355 
z
" style="fill:#8c564b;"/>
   </g>
   <g id="patch_126">
    <path clip-path="url(#p66c78bd586)" d="M 54 287.8245 
L 65.892108 287.8245 
L 65.892108 286.4655 
L 54 286.4655 
z
" style="fill:#8c564b;"/>
   </g>
   <g id="patch_127">
    <path clip-path="url(#p66c78bd586)" d="M 54 247.0545 
L 89.676324 247.0545 
L 89.676324 245.6955 
L 54 245.6955 
z
" style="fill:#8c564b;"/>
   </g>
   <g id="patch_128">
    <path clip-path="url(#p66c78bd586)" d="M 54 206.2845 
L 65.892108 206.2845 
L 65.892108 204.9255 
L 54 204.9255 
z
" style="fill:#8c564b;"/>
   </g>
   <g id="patch_129">
    <path clip-path="url(#p66c78bd586)" d="M 54 165.5145 
L 54 165.5145 
L 54 164.1555 
L 54 164.1555 
z
" style="fill:#8c564b;"/>
   </g>
   <g id="patch_130">
    <path clip-path="url(#p66c78bd586)" d="M 54 124.7445 
L 54 124.7445 
L 54 123.3855 
L 54 123.3855 
z
" style="fill:#8c564b;"/>
   </g>
   <g id="patch_131">
    <path clip-path="url(#p66c78bd586)" d="M 54 734.9355 
L 91.906094 734.9355 
L 91.906094 733.5765 
L 54 733.5765 
z
" style="fill:#c49c94;"/>
   </g>
   <g id="patch_132">
    <path clip-path="url(#p66c78bd586)" d="M 54 694.1655 
L 92.091908 694.1655 
L 92.091908 692.8065 
L 54 692.8065 
z
" style="fill:#c49c94;"/>
   </g>
   <g id="patch_133">
    <path clip-path="url(#p66c78bd586)" d="M 54 653.3955 
L 90.605395 653.3955 
L 90.605395 652.0365 
L 54 652.0365 
z
" style="fill:#c49c94;"/>
   </g>
   <g id="patch_134">
    <path clip-path="url(#p66c78bd586)" d="M 54 612.6255 
L 90.605395 612.6255 
L 90.605395 611.2665 
L 54 611.2665 
z
" style="fill:#c49c94;"/>
   </g>
   <g id="patch_135">
    <path clip-path="url(#p66c78bd586)" d="M 54 571.8555 
L 86.145854 571.8555 
L 86.145854 570.4965 
L 54 570.4965 
z
" style="fill:#c49c94;"/>
   </g>
   <g id="patch_136">
    <path clip-path="url(#p66c78bd586)" d="M 54 531.0855 
L 110.673327 531.0855 
L 110.673327 529.7265 
L 54 529.7265 
z
" style="fill:#c49c94;"/>
   </g>
   <g id="patch_137">
    <path clip-path="url(#p66c78bd586)" d="M 54 490.3155 
L 101.196803 490.3155 
L 101.196803 488.9565 
L 54 488.9565 
z
" style="fill:#c49c94;"/>
   </g>
   <g id="patch_138">
    <path clip-path="url(#p66c78bd586)" d="M 54 449.5455 
L 99.338661 449.5455 
L 99.338661 448.1865 
L 54 448.1865 
z
" style="fill:#c49c94;"/>
   </g>
   <g id="patch_139">
    <path clip-path="url(#p66c78bd586)" d="M 54 408.7755 
L 98.967033 408.7755 
L 98.967033 407.4165 
L 54 407.4165 
z
" style="fill:#c49c94;"/>
   </g>
   <g id="patch_140">
    <path clip-path="url(#p66c78bd586)" d="M 54 368.0055 
L 99.71029 368.0055 
L 99.71029 366.6465 
L 54 366.6465 
z
" style="fill:#c49c94;"/>
   </g>
   <g id="patch_141">
    <path clip-path="url(#p66c78bd586)" d="M 54 327.2355 
L 101.382617 327.2355 
L 101.382617 325.8765 
L 54 325.8765 
z
" style="fill:#c49c94;"/>
   </g>
   <g id="patch_142">
    <path clip-path="url(#p66c78bd586)" d="M 54 286.4655 
L 99.338661 286.4655 
L 99.338661 285.1065 
L 54 285.1065 
z
" style="fill:#c49c94;"/>
   </g>
   <g id="patch_143">
    <path clip-path="url(#p66c78bd586)" d="M 54 245.6955 
L 138.35964 245.6955 
L 138.35964 244.3365 
L 54 244.3365 
z
" style="fill:#c49c94;"/>
   </g>
   <g id="patch_144">
    <path clip-path="url(#p66c78bd586)" d="M 54 204.9255 
L 100.639361 204.9255 
L 100.639361 203.5665 
L 54 203.5665 
z
" style="fill:#c49c94;"/>
   </g>
   <g id="patch_145">
    <path clip-path="url(#p66c78bd586)" d="M 54 164.1555 
L 82.243756 164.1555 
L 82.243756 162.7965 
L 54 162.7965 
z
" style="fill:#c49c94;"/>
   </g>
   <g id="patch_146">
    <path clip-path="url(#p66c78bd586)" d="M 54 123.3855 
L 82.987013 123.3855 
L 82.987013 122.0265 
L 54 122.0265 
z
" style="fill:#c49c94;"/>
   </g>
   <g id="patch_147">
    <path clip-path="url(#p66c78bd586)" d="M 54 733.5765 
L 54 733.5765 
L 54 732.2175 
L 54 732.2175 
z
" style="fill:#e377c2;"/>
   </g>
   <g id="patch_148">
    <path clip-path="url(#p66c78bd586)" d="M 54 692.8065 
L 54 692.8065 
L 54 691.4475 
L 54 691.4475 
z
" style="fill:#e377c2;"/>
   </g>
   <g id="patch_149">
    <path clip-path="url(#p66c78bd586)" d="M 54 652.0365 
L 54 652.0365 
L 54 650.6775 
L 54 650.6775 
z
" style="fill:#e377c2;"/>
   </g>
   <g id="patch_150">
    <path clip-path="url(#p66c78bd586)" d="M 54 611.2665 
L 54 611.2665 
L 54 609.9075 
L 54 609.9075 
z
" style="fill:#e377c2;"/>
   </g>
   <g id="patch_151">
    <path clip-path="url(#p66c78bd586)" d="M 54 570.4965 
L 54 570.4965 
L 54 569.1375 
L 54 569.1375 
z
" style="fill:#e377c2;"/>
   </g>
   <g id="patch_152">
    <path clip-path="url(#p66c78bd586)" d="M 54 529.7265 
L 77.784216 529.7265 
L 77.784216 528.3675 
L 54 528.3675 
z
" style="fill:#e377c2;"/>
   </g>
   <g id="patch_153">
    <path clip-path="url(#p66c78bd586)" d="M 54 488.9565 
L 65.892108 488.9565 
L 65.892108 487.5975 
L 54 487.5975 
z
" style="fill:#e377c2;"/>
   </g>
   <g id="patch_154">
    <path clip-path="url(#p66c78bd586)" d="M 54 448.1865 
L 65.892108 448.1865 
L 65.892108 446.8275 
L 54 446.8275 
z
" style="fill:#e377c2;"/>
   </g>
   <g id="patch_155">
    <path clip-path="url(#p66c78bd586)" d="M 54 407.4165 
L 65.892108 407.4165 
L 65.892108 406.0575 
L 54 406.0575 
z
" style="fill:#e377c2;"/>
   </g>
   <g id="patch_156">
    <path clip-path="url(#p66c78bd586)" d="M 54 366.6465 
L 65.892108 366.6465 
L 65.892108 365.2875 
L 54 365.2875 
z
" style="fill:#e377c2;"/>
   </g>
   <g id="patch_157">
    <path clip-path="url(#p66c78bd586)" d="M 54 325.8765 
L 65.892108 325.8765 
L 65.892108 324.5175 
L 54 324.5175 
z
" style="fill:#e377c2;"/>
   </g>
   <g id="patch_158">
    <path clip-path="url(#p66c78bd586)" d="M 54 285.1065 
L 65.892108 285.1065 
L 65.892108 283.7475 
L 54 283.7475 
z
" style="fill:#e377c2;"/>
   </g>
   <g id="patch_159">
    <path clip-path="url(#p66c78bd586)" d="M 54 244.3365 
L 89.676324 244.3365 
L 89.676324 242.9775 
L 54 242.9775 
z
" style="fill:#e377c2;"/>
   </g>
   <g id="patch_160">
    <path clip-path="url(#p66c78bd586)" d="M 54 203.5665 
L 65.892108 203.5665 
L 65.892108 202.2075 
L 54 202.2075 
z
" style="fill:#e377c2;"/>
   </g>
   <g id="patch_161">
    <path clip-path="url(#p66c78bd586)" d="M 54 162.7965 
L 54 162.7965 
L 54 161.4375 
L 54 161.4375 
z
" style="fill:#e377c2;"/>
   </g>
   <g id="patch_162">
    <path clip-path="url(#p66c78bd586)" d="M 54 122.0265 
L 54 122.0265 
L 54 120.6675 
L 54 120.6675 
z
" style="fill:#e377c2;"/>
   </g>
   <g id="patch_163">
    <path clip-path="url(#p66c78bd586)" d="M 54 732.2175 
L 54 732.2175 
L 54 730.8585 
L 54 730.8585 
z
" style="fill:#7f7f7f;"/>
   </g>
   <g id="patch_164">
    <path clip-path="url(#p66c78bd586)" d="M 54 691.4475 
L 54 691.4475 
L 54 690.0885 
L 54 690.0885 
z
" style="fill:#7f7f7f;"/>
   </g>
   <g id="patch_165">
    <path clip-path="url(#p66c78bd586)" d="M 54 650.6775 
L 54 650.6775 
L 54 649.3185 
L 54 649.3185 
z
" style="fill:#7f7f7f;"/>
   </g>
   <g id="patch_166">
    <path clip-path="url(#p66c78bd586)" d="M 54 609.9075 
L 54 609.9075 
L 54 608.5485 
L 54 608.5485 
z
" style="fill:#7f7f7f;"/>
   </g>
   <g id="patch_167">
    <path clip-path="url(#p66c78bd586)" d="M 54 569.1375 
L 54 569.1375 
L 54 567.7785 
L 54 567.7785 
z
" style="fill:#7f7f7f;"/>
   </g>
   <g id="patch_168">
    <path clip-path="url(#p66c78bd586)" d="M 54 528.3675 
L 77.784216 528.3675 
L 77.784216 527.0085 
L 54 527.0085 
z
" style="fill:#7f7f7f;"/>
   </g>
   <g id="patch_169">
    <path clip-path="url(#p66c78bd586)" d="M 54 487.5975 
L 65.892108 487.5975 
L 65.892108 486.2385 
L 54 486.2385 
z
" style="fill:#7f7f7f;"/>
   </g>
   <g id="patch_170">
    <path clip-path="url(#p66c78bd586)" d="M 54 446.8275 
L 65.892108 446.8275 
L 65.892108 445.4685 
L 54 445.4685 
z
" style="fill:#7f7f7f;"/>
   </g>
   <g id="patch_171">
    <path clip-path="url(#p66c78bd586)" d="M 54 406.0575 
L 65.892108 406.0575 
L 65.892108 404.6985 
L 54 404.6985 
z
" style="fill:#7f7f7f;"/>
   </g>
   <g id="patch_172">
    <path clip-path="url(#p66c78bd586)" d="M 54 365.2875 
L 65.892108 365.2875 
L 65.892108 363.9285 
L 54 363.9285 
z
" style="fill:#7f7f7f;"/>
   </g>
   <g id="patch_173">
    <path clip-path="url(#p66c78bd586)" d="M 54 324.5175 
L 65.892108 324.5175 
L 65.892108 323.1585 
L 54 323.1585 
z
" style="fill:#7f7f7f;"/>
   </g>
   <g id="patch_174">
    <path clip-path="url(#p66c78bd586)" d="M 54 283.7475 
L 65.892108 283.7475 
L 65.892108 282.3885 
L 54 282.3885 
z
" style="fill:#7f7f7f;"/>
   </g>
   <g id="patch_175">
    <path clip-path="url(#p66c78bd586)" d="M 54 242.9775 
L 89.676324 242.9775 
L 89.676324 241.6185 
L 54 241.6185 
z
" style="fill:#7f7f7f;"/>
   </g>
   <g id="patch_176">
    <path clip-path="url(#p66c78bd586)" d="M 54 202.2075 
L 65.892108 202.2075 
L 65.892108 200.8485 
L 54 200.8485 
z
" style="fill:#7f7f7f;"/>
   </g>
   <g id="patch_177">
    <path clip-path="url(#p66c78bd586)" d="M 54 161.4375 
L 54 161.4375 
L 54 160.0785 
L 54 160.0785 
z
" style="fill:#7f7f7f;"/>
   </g>
   <g id="patch_178">
    <path clip-path="url(#p66c78bd586)" d="M 54 120.6675 
L 54 120.6675 
L 54 119.3085 
L 54 119.3085 
z
" style="fill:#7f7f7f;"/>
   </g>
   <g id="patch_179">
    <path clip-path="url(#p66c78bd586)" d="M 54 730.8585 
L 91.534466 730.8585 
L 91.534466 729.4995 
L 54 729.4995 
z
" style="fill:#c7c7c7;"/>
   </g>
   <g id="patch_180">
    <path clip-path="url(#p66c78bd586)" d="M 54 690.0885 
L 91.534466 690.0885 
L 91.534466 688.7295 
L 54 688.7295 
z
" style="fill:#c7c7c7;"/>
   </g>
   <g id="patch_181">
    <path clip-path="url(#p66c78bd586)" d="M 54 649.3185 
L 90.977023 649.3185 
L 90.977023 647.9595 
L 54 647.9595 
z
" style="fill:#c7c7c7;"/>
   </g>
   <g id="patch_182">
    <path clip-path="url(#p66c78bd586)" d="M 54 608.5485 
L 90.977023 608.5485 
L 90.977023 607.1895 
L 54 607.1895 
z
" style="fill:#c7c7c7;"/>
   </g>
   <g id="patch_183">
    <path clip-path="url(#p66c78bd586)" d="M 54 567.7785 
L 86.703297 567.7785 
L 86.703297 566.4195 
L 54 566.4195 
z
" style="fill:#c7c7c7;"/>
   </g>
   <g id="patch_184">
    <path clip-path="url(#p66c78bd586)" d="M 54 527.0085 
L 113.460539 527.0085 
L 113.460539 525.6495 
L 54 525.6495 
z
" style="fill:#c7c7c7;"/>
   </g>
   <g id="patch_185">
    <path clip-path="url(#p66c78bd586)" d="M 54 486.2385 
L 100.267732 486.2385 
L 100.267732 484.8795 
L 54 484.8795 
z
" style="fill:#c7c7c7;"/>
   </g>
   <g id="patch_186">
    <path clip-path="url(#p66c78bd586)" d="M 54 445.4685 
L 99.524476 445.4685 
L 99.524476 444.1095 
L 54 444.1095 
z
" style="fill:#c7c7c7;"/>
   </g>
   <g id="patch_187">
    <path clip-path="url(#p66c78bd586)" d="M 54 404.6985 
L 108.257742 404.6985 
L 108.257742 403.3395 
L 54 403.3395 
z
" style="fill:#c7c7c7;"/>
   </g>
   <g id="patch_188">
    <path clip-path="url(#p66c78bd586)" d="M 54 363.9285 
L 100.081918 363.9285 
L 100.081918 362.5695 
L 54 362.5695 
z
" style="fill:#c7c7c7;"/>
   </g>
   <g id="patch_189">
    <path clip-path="url(#p66c78bd586)" d="M 54 323.1585 
L 102.497502 323.1585 
L 102.497502 321.7995 
L 54 321.7995 
z
" style="fill:#c7c7c7;"/>
   </g>
   <g id="patch_190">
    <path clip-path="url(#p66c78bd586)" d="M 54 282.3885 
L 100.825175 282.3885 
L 100.825175 281.0295 
L 54 281.0295 
z
" style="fill:#c7c7c7;"/>
   </g>
   <g id="patch_191">
    <path clip-path="url(#p66c78bd586)" d="M 54 241.6185 
L 139.474525 241.6185 
L 139.474525 240.2595 
L 54 240.2595 
z
" style="fill:#c7c7c7;"/>
   </g>
   <g id="patch_192">
    <path clip-path="url(#p66c78bd586)" d="M 54 200.8485 
L 101.382617 200.8485 
L 101.382617 199.4895 
L 54 199.4895 
z
" style="fill:#c7c7c7;"/>
   </g>
   <g id="patch_193">
    <path clip-path="url(#p66c78bd586)" d="M 54 160.0785 
L 82.987013 160.0785 
L 82.987013 158.7195 
L 54 158.7195 
z
" style="fill:#c7c7c7;"/>
   </g>
   <g id="patch_194">
    <path clip-path="url(#p66c78bd586)" d="M 54 119.3085 
L 83.73027 119.3085 
L 83.73027 117.9495 
L 54 117.9495 
z
" style="fill:#c7c7c7;"/>
   </g>
   <g id="patch_195">
    <path clip-path="url(#p66c78bd586)" d="M 54 729.4995 
L 54 729.4995 
L 54 728.1405 
L 54 728.1405 
z
" style="fill:#dbdb8d;"/>
   </g>
   <g id="patch_196">
    <path clip-path="url(#p66c78bd586)" d="M 54 688.7295 
L 54 688.7295 
L 54 687.3705 
L 54 687.3705 
z
" style="fill:#dbdb8d;"/>
   </g>
   <g id="patch_197">
    <path clip-path="url(#p66c78bd586)" d="M 54 647.9595 
L 54 647.9595 
L 54 646.6005 
L 54 646.6005 
z
" style="fill:#dbdb8d;"/>
   </g>
   <g id="patch_198">
    <path clip-path="url(#p66c78bd586)" d="M 54 607.1895 
L 54 607.1895 
L 54 605.8305 
L 54 605.8305 
z
" style="fill:#dbdb8d;"/>
   </g>
   <g id="patch_199">
    <path clip-path="url(#p66c78bd586)" d="M 54 566.4195 
L 54 566.4195 
L 54 565.0605 
L 54 565.0605 
z
" style="fill:#dbdb8d;"/>
   </g>
   <g id="patch_200">
    <path clip-path="url(#p66c78bd586)" d="M 54 525.6495 
L 77.784216 525.6495 
L 77.784216 524.2905 
L 54 524.2905 
z
" style="fill:#dbdb8d;"/>
   </g>
   <g id="patch_201">
    <path clip-path="url(#p66c78bd586)" d="M 54 484.8795 
L 65.892108 484.8795 
L 65.892108 483.5205 
L 54 483.5205 
z
" style="fill:#dbdb8d;"/>
   </g>
   <g id="patch_202">
    <path clip-path="url(#p66c78bd586)" d="M 54 444.1095 
L 65.892108 444.1095 
L 65.892108 442.7505 
L 54 442.7505 
z
" style="fill:#dbdb8d;"/>
   </g>
   <g id="patch_203">
    <path clip-path="url(#p66c78bd586)" d="M 54 403.3395 
L 65.892108 403.3395 
L 65.892108 401.9805 
L 54 401.9805 
z
" style="fill:#dbdb8d;"/>
   </g>
   <g id="patch_204">
    <path clip-path="url(#p66c78bd586)" d="M 54 362.5695 
L 65.892108 362.5695 
L 65.892108 361.2105 
L 54 361.2105 
z
" style="fill:#dbdb8d;"/>
   </g>
   <g id="patch_205">
    <path clip-path="url(#p66c78bd586)" d="M 54 321.7995 
L 65.892108 321.7995 
L 65.892108 320.4405 
L 54 320.4405 
z
" style="fill:#dbdb8d;"/>
   </g>
   <g id="patch_206">
    <path clip-path="url(#p66c78bd586)" d="M 54 281.0295 
L 65.892108 281.0295 
L 65.892108 279.6705 
L 54 279.6705 
z
" style="fill:#dbdb8d;"/>
   </g>
   <g id="patch_207">
    <path clip-path="url(#p66c78bd586)" d="M 54 240.2595 
L 89.676324 240.2595 
L 89.676324 238.9005 
L 54 238.9005 
z
" style="fill:#dbdb8d;"/>
   </g>
   <g id="patch_208">
    <path clip-path="url(#p66c78bd586)" d="M 54 199.4895 
L 65.892108 199.4895 
L 65.892108 198.1305 
L 54 198.1305 
z
" style="fill:#dbdb8d;"/>
   </g>
   <g id="patch_209">
    <path clip-path="url(#p66c78bd586)" d="M 54 158.7195 
L 54 158.7195 
L 54 157.3605 
L 54 157.3605 
z
" style="fill:#dbdb8d;"/>
   </g>
   <g id="patch_210">
    <path clip-path="url(#p66c78bd586)" d="M 54 117.9495 
L 54 117.9495 
L 54 116.5905 
L 54 116.5905 
z
" style="fill:#dbdb8d;"/>
   </g>
   <g id="patch_211">
    <path clip-path="url(#p66c78bd586)" d="M 54 728.1405 
L 54 728.1405 
L 54 726.7815 
L 54 726.7815 
z
" style="fill:#17becf;"/>
   </g>
   <g id="patch_212">
    <path clip-path="url(#p66c78bd586)" d="M 54 687.3705 
L 54 687.3705 
L 54 686.0115 
L 54 686.0115 
z
" style="fill:#17becf;"/>
   </g>
   <g id="patch_213">
    <path clip-path="url(#p66c78bd586)" d="M 54 646.6005 
L 54 646.6005 
L 54 645.2415 
L 54 645.2415 
z
" style="fill:#17becf;"/>
   </g>
   <g id="patch_214">
    <path clip-path="url(#p66c78bd586)" d="M 54 605.8305 
L 54 605.8305 
L 54 604.4715 
L 54 604.4715 
z
" style="fill:#17becf;"/>
   </g>
   <g id="patch_215">
    <path clip-path="url(#p66c78bd586)" d="M 54 565.0605 
L 54 565.0605 
L 54 563.7015 
L 54 563.7015 
z
" style="fill:#17becf;"/>
   </g>
   <g id="patch_216">
    <path clip-path="url(#p66c78bd586)" d="M 54 524.2905 
L 77.784216 524.2905 
L 77.784216 522.9315 
L 54 522.9315 
z
" style="fill:#17becf;"/>
   </g>
   <g id="patch_217">
    <path clip-path="url(#p66c78bd586)" d="M 54 483.5205 
L 65.892108 483.5205 
L 65.892108 482.1615 
L 54 482.1615 
z
" style="fill:#17becf;"/>
   </g>
   <g id="patch_218">
    <path clip-path="url(#p66c78bd586)" d="M 54 442.7505 
L 65.892108 442.7505 
L 65.892108 441.3915 
L 54 441.3915 
z
" style="fill:#17becf;"/>
   </g>
   <g id="patch_219">
    <path clip-path="url(#p66c78bd586)" d="M 54 401.9805 
L 65.892108 401.9805 
L 65.892108 400.6215 
L 54 400.6215 
z
" style="fill:#17becf;"/>
   </g>
   <g id="patch_220">
    <path clip-path="url(#p66c78bd586)" d="M 54 361.2105 
L 65.892108 361.2105 
L 65.892108 359.8515 
L 54 359.8515 
z
" style="fill:#17becf;"/>
   </g>
   <g id="patch_221">
    <path clip-path="url(#p66c78bd586)" d="M 54 320.4405 
L 65.892108 320.4405 
L 65.892108 319.0815 
L 54 319.0815 
z
" style="fill:#17becf;"/>
   </g>
   <g id="patch_222">
    <path clip-path="url(#p66c78bd586)" d="M 54 279.6705 
L 65.892108 279.6705 
L 65.892108 278.3115 
L 54 278.3115 
z
" style="fill:#17becf;"/>
   </g>
   <g id="patch_223">
    <path clip-path="url(#p66c78bd586)" d="M 54 238.9005 
L 90.047952 238.9005 
L 90.047952 237.5415 
L 54 237.5415 
z
" style="fill:#17becf;"/>
   </g>
   <g id="patch_224">
    <path clip-path="url(#p66c78bd586)" d="M 54 198.1305 
L 65.892108 198.1305 
L 65.892108 196.7715 
L 54 196.7715 
z
" style="fill:#17becf;"/>
   </g>
   <g id="patch_225">
    <path clip-path="url(#p66c78bd586)" d="M 54 157.3605 
L 54 157.3605 
L 54 156.0015 
L 54 156.0015 
z
" style="fill:#17becf;"/>
   </g>
   <g id="patch_226">
    <path clip-path="url(#p66c78bd586)" d="M 54 116.5905 
L 54 116.5905 
L 54 115.2315 
L 54 115.2315 
z
" style="fill:#17becf;"/>
   </g>
   <g id="patch_227">
    <path clip-path="url(#p66c78bd586)" d="M 54 726.7815 
L 54 726.7815 
L 54 725.4225 
L 54 725.4225 
z
" style="fill:#9edae5;"/>
   </g>
   <g id="patch_228">
    <path clip-path="url(#p66c78bd586)" d="M 54 686.0115 
L 232.381618 686.0115 
L 232.381618 684.6525 
L 54 684.6525 
z
" style="fill:#9edae5;"/>
   </g>
   <g id="patch_229">
    <path clip-path="url(#p66c78bd586)" d="M 54 645.2415 
L 54 645.2415 
L 54 643.8825 
L 54 643.8825 
z
" style="fill:#9edae5;"/>
   </g>
   <g id="patch_230">
    <path clip-path="url(#p66c78bd586)" d="M 54 604.4715 
L 54 604.4715 
L 54 603.1125 
L 54 603.1125 
z
" style="fill:#9edae5;"/>
   </g>
   <g id="patch_231">
    <path clip-path="url(#p66c78bd586)" d="M 54 563.7015 
L 54 563.7015 
L 54 562.3425 
L 54 562.3425 
z
" style="fill:#9edae5;"/>
   </g>
   <g id="patch_232">
    <path clip-path="url(#p66c78bd586)" d="M 54 522.9315 
L 77.784216 522.9315 
L 77.784216 521.5725 
L 54 521.5725 
z
" style="fill:#9edae5;"/>
   </g>
   <g id="patch_233">
    <path clip-path="url(#p66c78bd586)" d="M 54 482.1615 
L 65.892108 482.1615 
L 65.892108 480.8025 
L 54 480.8025 
z
" style="fill:#9edae5;"/>
   </g>
   <g id="patch_234">
    <path clip-path="url(#p66c78bd586)" d="M 54 441.3915 
L 65.892108 441.3915 
L 65.892108 440.0325 
L 54 440.0325 
z
" style="fill:#9edae5;"/>
   </g>
   <g id="patch_235">
    <path clip-path="url(#p66c78bd586)" d="M 54 400.6215 
L 65.892108 400.6215 
L 65.892108 399.2625 
L 54 399.2625 
z
" style="fill:#9edae5;"/>
   </g>
   <g id="patch_236">
    <path clip-path="url(#p66c78bd586)" d="M 54 359.8515 
L 65.892108 359.8515 
L 65.892108 358.4925 
L 54 358.4925 
z
" style="fill:#9edae5;"/>
   </g>
   <g id="patch_237">
    <path clip-path="url(#p66c78bd586)" d="M 54 319.0815 
L 65.892108 319.0815 
L 65.892108 317.7225 
L 54 317.7225 
z
" style="fill:#9edae5;"/>
   </g>
   <g id="patch_238">
    <path clip-path="url(#p66c78bd586)" d="M 54 278.3115 
L 65.892108 278.3115 
L 65.892108 276.9525 
L 54 276.9525 
z
" style="fill:#9edae5;"/>
   </g>
   <g id="patch_239">
    <path clip-path="url(#p66c78bd586)" d="M 54 237.5415 
L 89.676324 237.5415 
L 89.676324 236.1825 
L 54 236.1825 
z
" style="fill:#9edae5;"/>
   </g>
   <g id="patch_240">
    <path clip-path="url(#p66c78bd586)" d="M 54 196.7715 
L 65.892108 196.7715 
L 65.892108 195.4125 
L 54 195.4125 
z
" style="fill:#9edae5;"/>
   </g>
   <g id="patch_241">
    <path clip-path="url(#p66c78bd586)" d="M 54 156.0015 
L 54 156.0015 
L 54 154.6425 
L 54 154.6425 
z
" style="fill:#9edae5;"/>
   </g>
   <g id="patch_242">
    <path clip-path="url(#p66c78bd586)" d="M 54 115.2315 
L 54 115.2315 
L 54 113.8725 
L 54 113.8725 
z
" style="fill:#9edae5;"/>
   </g>
   <g id="matplotlib.axis_1">
    <g id="xtick_1">
     <g id="line2d_1">
      <defs>
       <path d="M 0 0 
L 0 3.5 
" id="m40ddfa55e5" style="stroke:#000000;stroke-width:0.8;"/>
      </defs>
      <g>
       <use style="stroke:#000000;stroke-width:0.8;" x="54" xlink:href="#m40ddfa55e5" y="756"/>
      </g>
     </g>
     <g id="text_1">
      <!-- 0 -->
      <g transform="translate(50.81875 770.598438)scale(0.1 -0.1)">
       <defs>
        <path d="M 31.78125 66.40625 
Q 24.171875 66.40625 20.328125 58.90625 
Q 16.5 51.421875 16.5 36.375 
Q 16.5 21.390625 20.328125 13.890625 
Q 24.171875 6.390625 31.78125 6.390625 
Q 39.453125 6.390625 43.28125 13.890625 
Q 47.125 21.390625 47.125 36.375 
Q 47.125 51.421875 43.28125 58.90625 
Q 39.453125 66.40625 31.78125 66.40625 
z
M 31.78125 74.21875 
Q 44.046875 74.21875 50.515625 64.515625 
Q 56.984375 54.828125 56.984375 36.375 
Q 56.984375 17.96875 50.515625 8.265625 
Q 44.046875 -1.421875 31.78125 -1.421875 
Q 19.53125 -1.421875 13.0625 8.265625 
Q 6.59375 17.96875 6.59375 36.375 
Q 6.59375 54.828125 13.0625 64.515625 
Q 19.53125 74.21875 31.78125 74.21875 
z
" id="DejaVuSans-48"/>
       </defs>
       <use xlink:href="#DejaVuSans-48"/>
      </g>
     </g>
    </g>
    <g id="xtick_2">
     <g id="line2d_2">
      <g>
       <use style="stroke:#000000;stroke-width:0.8;" x="100.453546" xlink:href="#m40ddfa55e5" y="756"/>
      </g>
     </g>
     <g id="text_2">
      <!-- 250 -->
      <g transform="translate(90.909796 770.598438)scale(0.1 -0.1)">
       <defs>
        <path d="M 19.1875 8.296875 
L 53.609375 8.296875 
L 53.609375 0 
L 7.328125 0 
L 7.328125 8.296875 
Q 12.9375 14.109375 22.625 23.890625 
Q 32.328125 33.6875 34.8125 36.53125 
Q 39.546875 41.84375 41.421875 45.53125 
Q 43.3125 49.21875 43.3125 52.78125 
Q 43.3125 58.59375 39.234375 62.25 
Q 35.15625 65.921875 28.609375 65.921875 
Q 23.96875 65.921875 18.8125 64.3125 
Q 13.671875 62.703125 7.8125 59.421875 
L 7.8125 69.390625 
Q 13.765625 71.78125 18.9375 73 
Q 24.125 74.21875 28.421875 74.21875 
Q 39.75 74.21875 46.484375 68.546875 
Q 53.21875 62.890625 53.21875 53.421875 
Q 53.21875 48.921875 51.53125 44.890625 
Q 49.859375 40.875 45.40625 35.40625 
Q 44.1875 33.984375 37.640625 27.21875 
Q 31.109375 20.453125 19.1875 8.296875 
z
" id="DejaVuSans-50"/>
        <path d="M 10.796875 72.90625 
L 49.515625 72.90625 
L 49.515625 64.59375 
L 19.828125 64.59375 
L 19.828125 46.734375 
Q 21.96875 47.46875 24.109375 47.828125 
Q 26.265625 48.1875 28.421875 48.1875 
Q 40.625 48.1875 47.75 41.5 
Q 54.890625 34.8125 54.890625 23.390625 
Q 54.890625 11.625 47.5625 5.09375 
Q 40.234375 -1.421875 26.90625 -1.421875 
Q 22.3125 -1.421875 17.546875 -0.640625 
Q 12.796875 0.140625 7.71875 1.703125 
L 7.71875 11.625 
Q 12.109375 9.234375 16.796875 8.0625 
Q 21.484375 6.890625 26.703125 6.890625 
Q 35.15625 6.890625 40.078125 11.328125 
Q 45.015625 15.765625 45.015625 23.390625 
Q 45.015625 31 40.078125 35.4375 
Q 35.15625 39.890625 26.703125 39.890625 
Q 22.75 39.890625 18.8125 39.015625 
Q 14.890625 38.140625 10.796875 36.28125 
z
" id="DejaVuSans-53"/>
       </defs>
       <use xlink:href="#DejaVuSans-50"/>
       <use x="63.623047" xlink:href="#DejaVuSans-53"/>
       <use x="127.246094" xlink:href="#DejaVuSans-48"/>
      </g>
     </g>
    </g>
    <g id="xtick_3">
     <g id="line2d_3">
      <g>
       <use style="stroke:#000000;stroke-width:0.8;" x="146.907093" xlink:href="#m40ddfa55e5" y="756"/>
      </g>
     </g>
     <g id="text_3">
      <!-- 500 -->
      <g transform="translate(137.363343 770.598438)scale(0.1 -0.1)">
       <use xlink:href="#DejaVuSans-53"/>
       <use x="63.623047" xlink:href="#DejaVuSans-48"/>
       <use x="127.246094" xlink:href="#DejaVuSans-48"/>
      </g>
     </g>
    </g>
    <g id="xtick_4">
     <g id="line2d_4">
      <g>
       <use style="stroke:#000000;stroke-width:0.8;" x="193.360639" xlink:href="#m40ddfa55e5" y="756"/>
      </g>
     </g>
     <g id="text_4">
      <!-- 750 -->
      <g transform="translate(183.816889 770.598438)scale(0.1 -0.1)">
       <defs>
        <path d="M 8.203125 72.90625 
L 55.078125 72.90625 
L 55.078125 68.703125 
L 28.609375 0 
L 18.3125 0 
L 43.21875 64.59375 
L 8.203125 64.59375 
z
" id="DejaVuSans-55"/>
       </defs>
       <use xlink:href="#DejaVuSans-55"/>
       <use x="63.623047" xlink:href="#DejaVuSans-53"/>
       <use x="127.246094" xlink:href="#DejaVuSans-48"/>
      </g>
     </g>
    </g>
    <g id="xtick_5">
     <g id="line2d_5">
      <g>
       <use style="stroke:#000000;stroke-width:0.8;" x="239.814186" xlink:href="#m40ddfa55e5" y="756"/>
      </g>
     </g>
     <g id="text_5">
      <!-- 1000 -->
      <g transform="translate(227.089186 770.598438)scale(0.1 -0.1)">
       <defs>
        <path d="M 12.40625 8.296875 
L 28.515625 8.296875 
L 28.515625 63.921875 
L 10.984375 60.40625 
L 10.984375 69.390625 
L 28.421875 72.90625 
L 38.28125 72.90625 
L 38.28125 8.296875 
L 54.390625 8.296875 
L 54.390625 0 
L 12.40625 0 
z
" id="DejaVuSans-49"/>
       </defs>
       <use xlink:href="#DejaVuSans-49"/>
       <use x="63.623047" xlink:href="#DejaVuSans-48"/>
       <use x="127.246094" xlink:href="#DejaVuSans-48"/>
       <use x="190.869141" xlink:href="#DejaVuSans-48"/>
      </g>
     </g>
    </g>
    <g id="xtick_6">
     <g id="line2d_6">
      <g>
       <use style="stroke:#000000;stroke-width:0.8;" x="286.267732" xlink:href="#m40ddfa55e5" y="756"/>
      </g>
     </g>
     <g id="text_6">
      <!-- 1250 -->
      <g transform="translate(273.542732 770.598438)scale(0.1 -0.1)">
       <use xlink:href="#DejaVuSans-49"/>
       <use x="63.623047" xlink:href="#DejaVuSans-50"/>
       <use x="127.246094" xlink:href="#DejaVuSans-53"/>
       <use x="190.869141" xlink:href="#DejaVuSans-48"/>
      </g>
     </g>
    </g>
    <g id="xtick_7">
     <g id="line2d_7">
      <g>
       <use style="stroke:#000000;stroke-width:0.8;" x="332.721279" xlink:href="#m40ddfa55e5" y="756"/>
      </g>
     </g>
     <g id="text_7">
      <!-- 1500 -->
      <g transform="translate(319.996279 770.598438)scale(0.1 -0.1)">
       <use xlink:href="#DejaVuSans-49"/>
       <use x="63.623047" xlink:href="#DejaVuSans-53"/>
       <use x="127.246094" xlink:href="#DejaVuSans-48"/>
       <use x="190.869141" xlink:href="#DejaVuSans-48"/>
      </g>
     </g>
    </g>
    <g id="xtick_8">
     <g id="line2d_8">
      <g>
       <use style="stroke:#000000;stroke-width:0.8;" x="379.174825" xlink:href="#m40ddfa55e5" y="756"/>
      </g>
     </g>
     <g id="text_8">
      <!-- 1750 -->
      <g transform="translate(366.449825 770.598438)scale(0.1 -0.1)">
       <use xlink:href="#DejaVuSans-49"/>
       <use x="63.623047" xlink:href="#DejaVuSans-55"/>
       <use x="127.246094" xlink:href="#DejaVuSans-53"/>
       <use x="190.869141" xlink:href="#DejaVuSans-48"/>
      </g>
     </g>
    </g>
   </g>
   <g id="matplotlib.axis_2">
    <g id="ytick_1">
     <g id="line2d_9">
      <defs>
       <path d="M 0 0 
L -3.5 0 
" id="mc66a921d9a" style="stroke:#000000;stroke-width:0.8;"/>
      </defs>
      <g>
       <use style="stroke:#000000;stroke-width:0.8;" x="54" xlink:href="#mc66a921d9a" y="735.615"/>
      </g>
     </g>
     <g id="text_9">
      <!-- (R03, M0) -->
      <g transform="translate(-1.823438 739.414219)scale(0.1 -0.1)">
       <defs>
        <path d="M 31 75.875 
Q 24.46875 64.65625 21.28125 53.65625 
Q 18.109375 42.671875 18.109375 31.390625 
Q 18.109375 20.125 21.3125 9.0625 
Q 24.515625 -2 31 -13.1875 
L 23.1875 -13.1875 
Q 15.875 -1.703125 12.234375 9.375 
Q 8.59375 20.453125 8.59375 31.390625 
Q 8.59375 42.28125 12.203125 53.3125 
Q 15.828125 64.359375 23.1875 75.875 
z
" id="DejaVuSans-40"/>
        <path d="M 44.390625 34.1875 
Q 47.5625 33.109375 50.5625 29.59375 
Q 53.5625 26.078125 56.59375 19.921875 
L 66.609375 0 
L 56 0 
L 46.6875 18.703125 
Q 43.0625 26.03125 39.671875 28.421875 
Q 36.28125 30.8125 30.421875 30.8125 
L 19.671875 30.8125 
L 19.671875 0 
L 9.8125 0 
L 9.8125 72.90625 
L 32.078125 72.90625 
Q 44.578125 72.90625 50.734375 67.671875 
Q 56.890625 62.453125 56.890625 51.90625 
Q 56.890625 45.015625 53.6875 40.46875 
Q 50.484375 35.9375 44.390625 34.1875 
z
M 19.671875 64.796875 
L 19.671875 38.921875 
L 32.078125 38.921875 
Q 39.203125 38.921875 42.84375 42.21875 
Q 46.484375 45.515625 46.484375 51.90625 
Q 46.484375 58.296875 42.84375 61.546875 
Q 39.203125 64.796875 32.078125 64.796875 
z
" id="DejaVuSans-82"/>
        <path d="M 40.578125 39.3125 
Q 47.65625 37.796875 51.625 33 
Q 55.609375 28.21875 55.609375 21.1875 
Q 55.609375 10.40625 48.1875 4.484375 
Q 40.765625 -1.421875 27.09375 -1.421875 
Q 22.515625 -1.421875 17.65625 -0.515625 
Q 12.796875 0.390625 7.625 2.203125 
L 7.625 11.71875 
Q 11.71875 9.328125 16.59375 8.109375 
Q 21.484375 6.890625 26.8125 6.890625 
Q 36.078125 6.890625 40.9375 10.546875 
Q 45.796875 14.203125 45.796875 21.1875 
Q 45.796875 27.640625 41.28125 31.265625 
Q 36.765625 34.90625 28.71875 34.90625 
L 20.21875 34.90625 
L 20.21875 43.015625 
L 29.109375 43.015625 
Q 36.375 43.015625 40.234375 45.921875 
Q 44.09375 48.828125 44.09375 54.296875 
Q 44.09375 59.90625 40.109375 62.90625 
Q 36.140625 65.921875 28.71875 65.921875 
Q 24.65625 65.921875 20.015625 65.03125 
Q 15.375 64.15625 9.8125 62.3125 
L 9.8125 71.09375 
Q 15.4375 72.65625 20.34375 73.4375 
Q 25.25 74.21875 29.59375 74.21875 
Q 40.828125 74.21875 47.359375 69.109375 
Q 53.90625 64.015625 53.90625 55.328125 
Q 53.90625 49.265625 50.4375 45.09375 
Q 46.96875 40.921875 40.578125 39.3125 
z
" id="DejaVuSans-51"/>
        <path d="M 11.71875 12.40625 
L 22.015625 12.40625 
L 22.015625 4 
L 14.015625 -11.625 
L 7.71875 -11.625 
L 11.71875 4 
z
" id="DejaVuSans-44"/>
        <path id="DejaVuSans-32"/>
        <path d="M 9.8125 72.90625 
L 24.515625 72.90625 
L 43.109375 23.296875 
L 61.8125 72.90625 
L 76.515625 72.90625 
L 76.515625 0 
L 66.890625 0 
L 66.890625 64.015625 
L 48.09375 14.015625 
L 38.1875 14.015625 
L 19.390625 64.015625 
L 19.390625 0 
L 9.8125 0 
z
" id="DejaVuSans-77"/>
        <path d="M 8.015625 75.875 
L 15.828125 75.875 
Q 23.140625 64.359375 26.78125 53.3125 
Q 30.421875 42.28125 30.421875 31.390625 
Q 30.421875 20.453125 26.78125 9.375 
Q 23.140625 -1.703125 15.828125 -13.1875 
L 8.015625 -13.1875 
Q 14.5 -2 17.703125 9.0625 
Q 20.90625 20.125 20.90625 31.390625 
Q 20.90625 42.671875 17.703125 53.65625 
Q 14.5 64.65625 8.015625 75.875 
z
" id="DejaVuSans-41"/>
       </defs>
       <use xlink:href="#DejaVuSans-40"/>
       <use x="39.013672" xlink:href="#DejaVuSans-82"/>
       <use x="108.496094" xlink:href="#DejaVuSans-48"/>
       <use x="172.119141" xlink:href="#DejaVuSans-51"/>
       <use x="235.742188" xlink:href="#DejaVuSans-44"/>
       <use x="267.529297" xlink:href="#DejaVuSans-32"/>
       <use x="299.316406" xlink:href="#DejaVuSans-77"/>
       <use x="385.595703" xlink:href="#DejaVuSans-48"/>
       <use x="449.21875" xlink:href="#DejaVuSans-41"/>
      </g>
     </g>
    </g>
    <g id="ytick_2">
     <g id="line2d_10">
      <g>
       <use style="stroke:#000000;stroke-width:0.8;" x="54" xlink:href="#mc66a921d9a" y="694.845"/>
      </g>
     </g>
     <g id="text_10">
      <!-- (R03, M1) -->
      <g transform="translate(-1.823438 698.644219)scale(0.1 -0.1)">
       <use xlink:href="#DejaVuSans-40"/>
       <use x="39.013672" xlink:href="#DejaVuSans-82"/>
       <use x="108.496094" xlink:href="#DejaVuSans-48"/>
       <use x="172.119141" xlink:href="#DejaVuSans-51"/>
       <use x="235.742188" xlink:href="#DejaVuSans-44"/>
       <use x="267.529297" xlink:href="#DejaVuSans-32"/>
       <use x="299.316406" xlink:href="#DejaVuSans-77"/>
       <use x="385.595703" xlink:href="#DejaVuSans-49"/>
       <use x="449.21875" xlink:href="#DejaVuSans-41"/>
      </g>
     </g>
    </g>
    <g id="ytick_3">
     <g id="line2d_11">
      <g>
       <use style="stroke:#000000;stroke-width:0.8;" x="54" xlink:href="#mc66a921d9a" y="654.075"/>
      </g>
     </g>
     <g id="text_11">
      <!-- (R12, M0) -->
      <g transform="translate(-1.823438 657.874219)scale(0.1 -0.1)">
       <use xlink:href="#DejaVuSans-40"/>
       <use x="39.013672" xlink:href="#DejaVuSans-82"/>
       <use x="108.496094" xlink:href="#DejaVuSans-49"/>
       <use x="172.119141" xlink:href="#DejaVuSans-50"/>
       <use x="235.742188" xlink:href="#DejaVuSans-44"/>
       <use x="267.529297" xlink:href="#DejaVuSans-32"/>
       <use x="299.316406" xlink:href="#DejaVuSans-77"/>
       <use x="385.595703" xlink:href="#DejaVuSans-48"/>
       <use x="449.21875" xlink:href="#DejaVuSans-41"/>
      </g>
     </g>
    </g>
    <g id="ytick_4">
     <g id="line2d_12">
      <g>
       <use style="stroke:#000000;stroke-width:0.8;" x="54" xlink:href="#mc66a921d9a" y="613.305"/>
      </g>
     </g>
     <g id="text_12">
      <!-- (R12, M1) -->
      <g transform="translate(-1.823438 617.104219)scale(0.1 -0.1)">
       <use xlink:href="#DejaVuSans-40"/>
       <use x="39.013672" xlink:href="#DejaVuSans-82"/>
       <use x="108.496094" xlink:href="#DejaVuSans-49"/>
       <use x="172.119141" xlink:href="#DejaVuSans-50"/>
       <use x="235.742188" xlink:href="#DejaVuSans-44"/>
       <use x="267.529297" xlink:href="#DejaVuSans-32"/>
       <use x="299.316406" xlink:href="#DejaVuSans-77"/>
       <use x="385.595703" xlink:href="#DejaVuSans-49"/>
       <use x="449.21875" xlink:href="#DejaVuSans-41"/>
      </g>
     </g>
    </g>
    <g id="ytick_5">
     <g id="line2d_13">
      <g>
       <use style="stroke:#000000;stroke-width:0.8;" x="54" xlink:href="#mc66a921d9a" y="572.535"/>
      </g>
     </g>
     <g id="text_13">
      <!-- (R46, M0) -->
      <g transform="translate(-1.823438 576.334219)scale(0.1 -0.1)">
       <defs>
        <path d="M 37.796875 64.3125 
L 12.890625 25.390625 
L 37.796875 25.390625 
z
M 35.203125 72.90625 
L 47.609375 72.90625 
L 47.609375 25.390625 
L 58.015625 25.390625 
L 58.015625 17.1875 
L 47.609375 17.1875 
L 47.609375 0 
L 37.796875 0 
L 37.796875 17.1875 
L 4.890625 17.1875 
L 4.890625 26.703125 
z
" id="DejaVuSans-52"/>
        <path d="M 33.015625 40.375 
Q 26.375 40.375 22.484375 35.828125 
Q 18.609375 31.296875 18.609375 23.390625 
Q 18.609375 15.53125 22.484375 10.953125 
Q 26.375 6.390625 33.015625 6.390625 
Q 39.65625 6.390625 43.53125 10.953125 
Q 47.40625 15.53125 47.40625 23.390625 
Q 47.40625 31.296875 43.53125 35.828125 
Q 39.65625 40.375 33.015625 40.375 
z
M 52.59375 71.296875 
L 52.59375 62.3125 
Q 48.875 64.0625 45.09375 64.984375 
Q 41.3125 65.921875 37.59375 65.921875 
Q 27.828125 65.921875 22.671875 59.328125 
Q 17.53125 52.734375 16.796875 39.40625 
Q 19.671875 43.65625 24.015625 45.921875 
Q 28.375 48.1875 33.59375 48.1875 
Q 44.578125 48.1875 50.953125 41.515625 
Q 57.328125 34.859375 57.328125 23.390625 
Q 57.328125 12.15625 50.6875 5.359375 
Q 44.046875 -1.421875 33.015625 -1.421875 
Q 20.359375 -1.421875 13.671875 8.265625 
Q 6.984375 17.96875 6.984375 36.375 
Q 6.984375 53.65625 15.1875 63.9375 
Q 23.390625 74.21875 37.203125 74.21875 
Q 40.921875 74.21875 44.703125 73.484375 
Q 48.484375 72.75 52.59375 71.296875 
z
" id="DejaVuSans-54"/>
       </defs>
       <use xlink:href="#DejaVuSans-40"/>
       <use x="39.013672" xlink:href="#DejaVuSans-82"/>
       <use x="108.496094" xlink:href="#DejaVuSans-52"/>
       <use x="172.119141" xlink:href="#DejaVuSans-54"/>
       <use x="235.742188" xlink:href="#DejaVuSans-44"/>
       <use x="267.529297" xlink:href="#DejaVuSans-32"/>
       <use x="299.316406" xlink:href="#DejaVuSans-77"/>
       <use x="385.595703" xlink:href="#DejaVuSans-48"/>
       <use x="449.21875" xlink:href="#DejaVuSans-41"/>
      </g>
     </g>
    </g>
    <g id="ytick_6">
     <g id="line2d_14">
      <g>
       <use style="stroke:#000000;stroke-width:0.8;" x="54" xlink:href="#mc66a921d9a" y="531.765"/>
      </g>
     </g>
     <g id="text_14">
      <!-- (R46, M1) -->
      <g transform="translate(-1.823438 535.564219)scale(0.1 -0.1)">
       <use xlink:href="#DejaVuSans-40"/>
       <use x="39.013672" xlink:href="#DejaVuSans-82"/>
       <use x="108.496094" xlink:href="#DejaVuSans-52"/>
       <use x="172.119141" xlink:href="#DejaVuSans-54"/>
       <use x="235.742188" xlink:href="#DejaVuSans-44"/>
       <use x="267.529297" xlink:href="#DejaVuSans-32"/>
       <use x="299.316406" xlink:href="#DejaVuSans-77"/>
       <use x="385.595703" xlink:href="#DejaVuSans-49"/>
       <use x="449.21875" xlink:href="#DejaVuSans-41"/>
      </g>
     </g>
    </g>
    <g id="ytick_7">
     <g id="line2d_15">
      <g>
       <use style="stroke:#000000;stroke-width:0.8;" x="54" xlink:href="#mc66a921d9a" y="490.995"/>
      </g>
     </g>
     <g id="text_15">
      <!-- (R56, M0) -->
      <g transform="translate(-1.823438 494.794219)scale(0.1 -0.1)">
       <use xlink:href="#DejaVuSans-40"/>
       <use x="39.013672" xlink:href="#DejaVuSans-82"/>
       <use x="108.496094" xlink:href="#DejaVuSans-53"/>
       <use x="172.119141" xlink:href="#DejaVuSans-54"/>
       <use x="235.742188" xlink:href="#DejaVuSans-44"/>
       <use x="267.529297" xlink:href="#DejaVuSans-32"/>
       <use x="299.316406" xlink:href="#DejaVuSans-77"/>
       <use x="385.595703" xlink:href="#DejaVuSans-48"/>
       <use x="449.21875" xlink:href="#DejaVuSans-41"/>
      </g>
     </g>
    </g>
    <g id="ytick_8">
     <g id="line2d_16">
      <g>
       <use style="stroke:#000000;stroke-width:0.8;" x="54" xlink:href="#mc66a921d9a" y="450.225"/>
      </g>
     </g>
     <g id="text_16">
      <!-- (R56, M1) -->
      <g transform="translate(-1.823438 454.024219)scale(0.1 -0.1)">
       <use xlink:href="#DejaVuSans-40"/>
       <use x="39.013672" xlink:href="#DejaVuSans-82"/>
       <use x="108.496094" xlink:href="#DejaVuSans-53"/>
       <use x="172.119141" xlink:href="#DejaVuSans-54"/>
       <use x="235.742188" xlink:href="#DejaVuSans-44"/>
       <use x="267.529297" xlink:href="#DejaVuSans-32"/>
       <use x="299.316406" xlink:href="#DejaVuSans-77"/>
       <use x="385.595703" xlink:href="#DejaVuSans-49"/>
       <use x="449.21875" xlink:href="#DejaVuSans-41"/>
      </g>
     </g>
    </g>
    <g id="ytick_9">
     <g id="line2d_17">
      <g>
       <use style="stroke:#000000;stroke-width:0.8;" x="54" xlink:href="#mc66a921d9a" y="409.455"/>
      </g>
     </g>
     <g id="text_17">
      <!-- (R57, M0) -->
      <g transform="translate(-1.823438 413.254219)scale(0.1 -0.1)">
       <use xlink:href="#DejaVuSans-40"/>
       <use x="39.013672" xlink:href="#DejaVuSans-82"/>
       <use x="108.496094" xlink:href="#DejaVuSans-53"/>
       <use x="172.119141" xlink:href="#DejaVuSans-55"/>
       <use x="235.742188" xlink:href="#DejaVuSans-44"/>
       <use x="267.529297" xlink:href="#DejaVuSans-32"/>
       <use x="299.316406" xlink:href="#DejaVuSans-77"/>
       <use x="385.595703" xlink:href="#DejaVuSans-48"/>
       <use x="449.21875" xlink:href="#DejaVuSans-41"/>
      </g>
     </g>
    </g>
    <g id="ytick_10">
     <g id="line2d_18">
      <g>
       <use style="stroke:#000000;stroke-width:0.8;" x="54" xlink:href="#mc66a921d9a" y="368.685"/>
      </g>
     </g>
     <g id="text_18">
      <!-- (R57, M1) -->
      <g transform="translate(-1.823438 372.484219)scale(0.1 -0.1)">
       <use xlink:href="#DejaVuSans-40"/>
       <use x="39.013672" xlink:href="#DejaVuSans-82"/>
       <use x="108.496094" xlink:href="#DejaVuSans-53"/>
       <use x="172.119141" xlink:href="#DejaVuSans-55"/>
       <use x="235.742188" xlink:href="#DejaVuSans-44"/>
       <use x="267.529297" xlink:href="#DejaVuSans-32"/>
       <use x="299.316406" xlink:href="#DejaVuSans-77"/>
       <use x="385.595703" xlink:href="#DejaVuSans-49"/>
       <use x="449.21875" xlink:href="#DejaVuSans-41"/>
      </g>
     </g>
    </g>
    <g id="ytick_11">
     <g id="line2d_19">
      <g>
       <use style="stroke:#000000;stroke-width:0.8;" x="54" xlink:href="#mc66a921d9a" y="327.915"/>
      </g>
     </g>
     <g id="text_19">
      <!-- (R62, M0) -->
      <g transform="translate(-1.823438 331.714219)scale(0.1 -0.1)">
       <use xlink:href="#DejaVuSans-40"/>
       <use x="39.013672" xlink:href="#DejaVuSans-82"/>
       <use x="108.496094" xlink:href="#DejaVuSans-54"/>
       <use x="172.119141" xlink:href="#DejaVuSans-50"/>
       <use x="235.742188" xlink:href="#DejaVuSans-44"/>
       <use x="267.529297" xlink:href="#DejaVuSans-32"/>
       <use x="299.316406" xlink:href="#DejaVuSans-77"/>
       <use x="385.595703" xlink:href="#DejaVuSans-48"/>
       <use x="449.21875" xlink:href="#DejaVuSans-41"/>
      </g>
     </g>
    </g>
    <g id="ytick_12">
     <g id="line2d_20">
      <g>
       <use style="stroke:#000000;stroke-width:0.8;" x="54" xlink:href="#mc66a921d9a" y="287.145"/>
      </g>
     </g>
     <g id="text_20">
      <!-- (R62, M1) -->
      <g transform="translate(-1.823438 290.944219)scale(0.1 -0.1)">
       <use xlink:href="#DejaVuSans-40"/>
       <use x="39.013672" xlink:href="#DejaVuSans-82"/>
       <use x="108.496094" xlink:href="#DejaVuSans-54"/>
       <use x="172.119141" xlink:href="#DejaVuSans-50"/>
       <use x="235.742188" xlink:href="#DejaVuSans-44"/>
       <use x="267.529297" xlink:href="#DejaVuSans-32"/>
       <use x="299.316406" xlink:href="#DejaVuSans-77"/>
       <use x="385.595703" xlink:href="#DejaVuSans-49"/>
       <use x="449.21875" xlink:href="#DejaVuSans-41"/>
      </g>
     </g>
    </g>
    <g id="ytick_13">
     <g id="line2d_21">
      <g>
       <use style="stroke:#000000;stroke-width:0.8;" x="54" xlink:href="#mc66a921d9a" y="246.375"/>
      </g>
     </g>
     <g id="text_21">
      <!-- (R63, M0) -->
      <g transform="translate(-1.823438 250.174219)scale(0.1 -0.1)">
       <use xlink:href="#DejaVuSans-40"/>
       <use x="39.013672" xlink:href="#DejaVuSans-82"/>
       <use x="108.496094" xlink:href="#DejaVuSans-54"/>
       <use x="172.119141" xlink:href="#DejaVuSans-51"/>
       <use x="235.742188" xlink:href="#DejaVuSans-44"/>
       <use x="267.529297" xlink:href="#DejaVuSans-32"/>
       <use x="299.316406" xlink:href="#DejaVuSans-77"/>
       <use x="385.595703" xlink:href="#DejaVuSans-48"/>
       <use x="449.21875" xlink:href="#DejaVuSans-41"/>
      </g>
     </g>
    </g>
    <g id="ytick_14">
     <g id="line2d_22">
      <g>
       <use style="stroke:#000000;stroke-width:0.8;" x="54" xlink:href="#mc66a921d9a" y="205.605"/>
      </g>
     </g>
     <g id="text_22">
      <!-- (R63, M1) -->
      <g transform="translate(-1.823438 209.404219)scale(0.1 -0.1)">
       <use xlink:href="#DejaVuSans-40"/>
       <use x="39.013672" xlink:href="#DejaVuSans-82"/>
       <use x="108.496094" xlink:href="#DejaVuSans-54"/>
       <use x="172.119141" xlink:href="#DejaVuSans-51"/>
       <use x="235.742188" xlink:href="#DejaVuSans-44"/>
       <use x="267.529297" xlink:href="#DejaVuSans-32"/>
       <use x="299.316406" xlink:href="#DejaVuSans-77"/>
       <use x="385.595703" xlink:href="#DejaVuSans-49"/>
       <use x="449.21875" xlink:href="#DejaVuSans-41"/>
      </g>
     </g>
    </g>
    <g id="ytick_15">
     <g id="line2d_23">
      <g>
       <use style="stroke:#000000;stroke-width:0.8;" x="54" xlink:href="#mc66a921d9a" y="164.835"/>
      </g>
     </g>
     <g id="text_23">
      <!-- (R71, M0) -->
      <g transform="translate(-1.823438 168.634219)scale(0.1 -0.1)">
       <use xlink:href="#DejaVuSans-40"/>
       <use x="39.013672" xlink:href="#DejaVuSans-82"/>
       <use x="108.496094" xlink:href="#DejaVuSans-55"/>
       <use x="172.119141" xlink:href="#DejaVuSans-49"/>
       <use x="235.742188" xlink:href="#DejaVuSans-44"/>
       <use x="267.529297" xlink:href="#DejaVuSans-32"/>
       <use x="299.316406" xlink:href="#DejaVuSans-77"/>
       <use x="385.595703" xlink:href="#DejaVuSans-48"/>
       <use x="449.21875" xlink:href="#DejaVuSans-41"/>
      </g>
     </g>
    </g>
    <g id="ytick_16">
     <g id="line2d_24">
      <g>
       <use style="stroke:#000000;stroke-width:0.8;" x="54" xlink:href="#mc66a921d9a" y="124.065"/>
      </g>
     </g>
     <g id="text_24">
      <!-- (R71, M1) -->
      <g transform="translate(-1.823438 127.864219)scale(0.1 -0.1)">
       <use xlink:href="#DejaVuSans-40"/>
       <use x="39.013672" xlink:href="#DejaVuSans-82"/>
       <use x="108.496094" xlink:href="#DejaVuSans-55"/>
       <use x="172.119141" xlink:href="#DejaVuSans-49"/>
       <use x="235.742188" xlink:href="#DejaVuSans-44"/>
       <use x="267.529297" xlink:href="#DejaVuSans-32"/>
       <use x="299.316406" xlink:href="#DejaVuSans-77"/>
       <use x="385.595703" xlink:href="#DejaVuSans-49"/>
       <use x="449.21875" xlink:href="#DejaVuSans-41"/>
      </g>
     </g>
    </g>
    <g id="text_25">
     <!-- Rack,Midplane -->
     <g transform="translate(-7.903125 466.249375)rotate(-90)scale(0.1 -0.1)">
      <defs>
       <path d="M 34.28125 27.484375 
Q 23.390625 27.484375 19.1875 25 
Q 14.984375 22.515625 14.984375 16.5 
Q 14.984375 11.71875 18.140625 8.90625 
Q 21.296875 6.109375 26.703125 6.109375 
Q 34.1875 6.109375 38.703125 11.40625 
Q 43.21875 16.703125 43.21875 25.484375 
L 43.21875 27.484375 
z
M 52.203125 31.203125 
L 52.203125 0 
L 43.21875 0 
L 43.21875 8.296875 
Q 40.140625 3.328125 35.546875 0.953125 
Q 30.953125 -1.421875 24.3125 -1.421875 
Q 15.921875 -1.421875 10.953125 3.296875 
Q 6 8.015625 6 15.921875 
Q 6 25.140625 12.171875 29.828125 
Q 18.359375 34.515625 30.609375 34.515625 
L 43.21875 34.515625 
L 43.21875 35.40625 
Q 43.21875 41.609375 39.140625 45 
Q 35.0625 48.390625 27.6875 48.390625 
Q 23 48.390625 18.546875 47.265625 
Q 14.109375 46.140625 10.015625 43.890625 
L 10.015625 52.203125 
Q 14.9375 54.109375 19.578125 55.046875 
Q 24.21875 56 28.609375 56 
Q 40.484375 56 46.34375 49.84375 
Q 52.203125 43.703125 52.203125 31.203125 
z
" id="DejaVuSans-97"/>
       <path d="M 48.78125 52.59375 
L 48.78125 44.1875 
Q 44.96875 46.296875 41.140625 47.34375 
Q 37.3125 48.390625 33.40625 48.390625 
Q 24.65625 48.390625 19.8125 42.84375 
Q 14.984375 37.3125 14.984375 27.296875 
Q 14.984375 17.28125 19.8125 11.734375 
Q 24.65625 6.203125 33.40625 6.203125 
Q 37.3125 6.203125 41.140625 7.25 
Q 44.96875 8.296875 48.78125 10.40625 
L 48.78125 2.09375 
Q 45.015625 0.34375 40.984375 -0.53125 
Q 36.96875 -1.421875 32.421875 -1.421875 
Q 20.0625 -1.421875 12.78125 6.34375 
Q 5.515625 14.109375 5.515625 27.296875 
Q 5.515625 40.671875 12.859375 48.328125 
Q 20.21875 56 33.015625 56 
Q 37.15625 56 41.109375 55.140625 
Q 45.0625 54.296875 48.78125 52.59375 
z
" id="DejaVuSans-99"/>
       <path d="M 9.078125 75.984375 
L 18.109375 75.984375 
L 18.109375 31.109375 
L 44.921875 54.6875 
L 56.390625 54.6875 
L 27.390625 29.109375 
L 57.625 0 
L 45.90625 0 
L 18.109375 26.703125 
L 18.109375 0 
L 9.078125 0 
z
" id="DejaVuSans-107"/>
       <path d="M 9.421875 54.6875 
L 18.40625 54.6875 
L 18.40625 0 
L 9.421875 0 
z
M 9.421875 75.984375 
L 18.40625 75.984375 
L 18.40625 64.59375 
L 9.421875 64.59375 
z
" id="DejaVuSans-105"/>
       <path d="M 45.40625 46.390625 
L 45.40625 75.984375 
L 54.390625 75.984375 
L 54.390625 0 
L 45.40625 0 
L 45.40625 8.203125 
Q 42.578125 3.328125 38.25 0.953125 
Q 33.9375 -1.421875 27.875 -1.421875 
Q 17.96875 -1.421875 11.734375 6.484375 
Q 5.515625 14.40625 5.515625 27.296875 
Q 5.515625 40.1875 11.734375 48.09375 
Q 17.96875 56 27.875 56 
Q 33.9375 56 38.25 53.625 
Q 42.578125 51.265625 45.40625 46.390625 
z
M 14.796875 27.296875 
Q 14.796875 17.390625 18.875 11.75 
Q 22.953125 6.109375 30.078125 6.109375 
Q 37.203125 6.109375 41.296875 11.75 
Q 45.40625 17.390625 45.40625 27.296875 
Q 45.40625 37.203125 41.296875 42.84375 
Q 37.203125 48.484375 30.078125 48.484375 
Q 22.953125 48.484375 18.875 42.84375 
Q 14.796875 37.203125 14.796875 27.296875 
z
" id="DejaVuSans-100"/>
       <path d="M 18.109375 8.203125 
L 18.109375 -20.796875 
L 9.078125 -20.796875 
L 9.078125 54.6875 
L 18.109375 54.6875 
L 18.109375 46.390625 
Q 20.953125 51.265625 25.265625 53.625 
Q 29.59375 56 35.59375 56 
Q 45.5625 56 51.78125 48.09375 
Q 58.015625 40.1875 58.015625 27.296875 
Q 58.015625 14.40625 51.78125 6.484375 
Q 45.5625 -1.421875 35.59375 -1.421875 
Q 29.59375 -1.421875 25.265625 0.953125 
Q 20.953125 3.328125 18.109375 8.203125 
z
M 48.6875 27.296875 
Q 48.6875 37.203125 44.609375 42.84375 
Q 40.53125 48.484375 33.40625 48.484375 
Q 26.265625 48.484375 22.1875 42.84375 
Q 18.109375 37.203125 18.109375 27.296875 
Q 18.109375 17.390625 22.1875 11.75 
Q 26.265625 6.109375 33.40625 6.109375 
Q 40.53125 6.109375 44.609375 11.75 
Q 48.6875 17.390625 48.6875 27.296875 
z
" id="DejaVuSans-112"/>
       <path d="M 9.421875 75.984375 
L 18.40625 75.984375 
L 18.40625 0 
L 9.421875 0 
z
" id="DejaVuSans-108"/>
       <path d="M 54.890625 33.015625 
L 54.890625 0 
L 45.90625 0 
L 45.90625 32.71875 
Q 45.90625 40.484375 42.875 44.328125 
Q 39.84375 48.1875 33.796875 48.1875 
Q 26.515625 48.1875 22.3125 43.546875 
Q 18.109375 38.921875 18.109375 30.90625 
L 18.109375 0 
L 9.078125 0 
L 9.078125 54.6875 
L 18.109375 54.6875 
L 18.109375 46.1875 
Q 21.34375 51.125 25.703125 53.5625 
Q 30.078125 56 35.796875 56 
Q 45.21875 56 50.046875 50.171875 
Q 54.890625 44.34375 54.890625 33.015625 
z
" id="DejaVuSans-110"/>
       <path d="M 56.203125 29.59375 
L 56.203125 25.203125 
L 14.890625 25.203125 
Q 15.484375 15.921875 20.484375 11.0625 
Q 25.484375 6.203125 34.421875 6.203125 
Q 39.59375 6.203125 44.453125 7.46875 
Q 49.3125 8.734375 54.109375 11.28125 
L 54.109375 2.78125 
Q 49.265625 0.734375 44.1875 -0.34375 
Q 39.109375 -1.421875 33.890625 -1.421875 
Q 20.796875 -1.421875 13.15625 6.1875 
Q 5.515625 13.8125 5.515625 26.8125 
Q 5.515625 40.234375 12.765625 48.109375 
Q 20.015625 56 32.328125 56 
Q 43.359375 56 49.78125 48.890625 
Q 56.203125 41.796875 56.203125 29.59375 
z
M 47.21875 32.234375 
Q 47.125 39.59375 43.09375 43.984375 
Q 39.0625 48.390625 32.421875 48.390625 
Q 24.90625 48.390625 20.390625 44.140625 
Q 15.875 39.890625 15.1875 32.171875 
z
" id="DejaVuSans-101"/>
      </defs>
      <use xlink:href="#DejaVuSans-82"/>
      <use x="67.232422" xlink:href="#DejaVuSans-97"/>
      <use x="128.511719" xlink:href="#DejaVuSans-99"/>
      <use x="183.492188" xlink:href="#DejaVuSans-107"/>
      <use x="241.402344" xlink:href="#DejaVuSans-44"/>
      <use x="273.189453" xlink:href="#DejaVuSans-77"/>
      <use x="359.46875" xlink:href="#DejaVuSans-105"/>
      <use x="387.251953" xlink:href="#DejaVuSans-100"/>
      <use x="450.728516" xlink:href="#DejaVuSans-112"/>
      <use x="514.205078" xlink:href="#DejaVuSans-108"/>
      <use x="541.988281" xlink:href="#DejaVuSans-97"/>
      <use x="603.267578" xlink:href="#DejaVuSans-110"/>
      <use x="666.646484" xlink:href="#DejaVuSans-101"/>
     </g>
    </g>
   </g>
   <g id="patch_243">
    <path d="M 54 756 
L 54 103.68 
" style="fill:none;stroke:#000000;stroke-linecap:square;stroke-linejoin:miter;stroke-width:0.8;"/>
   </g>
   <g id="patch_244">
    <path d="M 388.8 756 
L 388.8 103.68 
" style="fill:none;stroke:#000000;stroke-linecap:square;stroke-linejoin:miter;stroke-width:0.8;"/>
   </g>
   <g id="patch_245">
    <path d="M 54 756 
L 388.8 756 
" style="fill:none;stroke:#000000;stroke-linecap:square;stroke-linejoin:miter;stroke-width:0.8;"/>
   </g>
   <g id="patch_246">
    <path d="M 54 103.68 
L 388.8 103.68 
" style="fill:none;stroke:#000000;stroke-linecap:square;stroke-linejoin:miter;stroke-width:0.8;"/>
   </g>
   <g id="legend_1">
    <g id="patch_247">
     <path d="M 334.61875 548.765 
L 381.8 548.765 
Q 383.8 548.765 383.8 546.765 
L 383.8 312.915 
Q 383.8 310.915 381.8 310.915 
L 334.61875 310.915 
Q 332.61875 310.915 332.61875 312.915 
L 332.61875 546.765 
Q 332.61875 548.765 334.61875 548.765 
z
" style="fill:#ffffff;opacity:0.8;stroke:#cccccc;stroke-linejoin:miter;"/>
    </g>
    <g id="text_26">
     <!-- Node -->
     <g transform="translate(345.158594 322.513438)scale(0.1 -0.1)">
      <defs>
       <path d="M 9.8125 72.90625 
L 23.09375 72.90625 
L 55.421875 11.921875 
L 55.421875 72.90625 
L 64.984375 72.90625 
L 64.984375 0 
L 51.703125 0 
L 19.390625 60.984375 
L 19.390625 0 
L 9.8125 0 
z
" id="DejaVuSans-78"/>
       <path d="M 30.609375 48.390625 
Q 23.390625 48.390625 19.1875 42.75 
Q 14.984375 37.109375 14.984375 27.296875 
Q 14.984375 17.484375 19.15625 11.84375 
Q 23.34375 6.203125 30.609375 6.203125 
Q 37.796875 6.203125 41.984375 11.859375 
Q 46.1875 17.53125 46.1875 27.296875 
Q 46.1875 37.015625 41.984375 42.703125 
Q 37.796875 48.390625 30.609375 48.390625 
z
M 30.609375 56 
Q 42.328125 56 49.015625 48.375 
Q 55.71875 40.765625 55.71875 27.296875 
Q 55.71875 13.875 49.015625 6.21875 
Q 42.328125 -1.421875 30.609375 -1.421875 
Q 18.84375 -1.421875 12.171875 6.21875 
Q 5.515625 13.875 5.515625 27.296875 
Q 5.515625 40.765625 12.171875 48.375 
Q 18.84375 56 30.609375 56 
z
" id="DejaVuSans-111"/>
      </defs>
      <use xlink:href="#DejaVuSans-78"/>
      <use x="74.804688" xlink:href="#DejaVuSans-111"/>
      <use x="135.986328" xlink:href="#DejaVuSans-100"/>
      <use x="199.462891" xlink:href="#DejaVuSans-101"/>
     </g>
    </g>
    <g id="patch_248">
     <path d="M 336.61875 337.191563 
L 356.61875 337.191563 
L 356.61875 330.191563 
L 336.61875 330.191563 
z
" style="fill:#1f77b4;"/>
    </g>
    <g id="text_27">
     <!-- N0 -->
     <g transform="translate(364.61875 337.191563)scale(0.1 -0.1)">
      <use xlink:href="#DejaVuSans-78"/>
      <use x="74.804688" xlink:href="#DejaVuSans-48"/>
     </g>
    </g>
    <g id="patch_249">
     <path d="M 336.61875 351.869688 
L 356.61875 351.869688 
L 356.61875 344.869688 
L 336.61875 344.869688 
z
" style="fill:#aec7e8;"/>
    </g>
    <g id="text_28">
     <!-- N1 -->
     <g transform="translate(364.61875 351.869688)scale(0.1 -0.1)">
      <use xlink:href="#DejaVuSans-78"/>
      <use x="74.804688" xlink:href="#DejaVuSans-49"/>
     </g>
    </g>
    <g id="patch_250">
     <path d="M 336.61875 366.547813 
L 356.61875 366.547813 
L 356.61875 359.547813 
L 336.61875 359.547813 
z
" style="fill:#ff7f0e;"/>
    </g>
    <g id="text_29">
     <!-- N2 -->
     <g transform="translate(364.61875 366.547813)scale(0.1 -0.1)">
      <use xlink:href="#DejaVuSans-78"/>
      <use x="74.804688" xlink:href="#DejaVuSans-50"/>
     </g>
    </g>
    <g id="patch_251">
     <path d="M 336.61875 381.225938 
L 356.61875 381.225938 
L 356.61875 374.225938 
L 336.61875 374.225938 
z
" style="fill:#2ca02c;"/>
    </g>
    <g id="text_30">
     <!-- N3 -->
     <g transform="translate(364.61875 381.225938)scale(0.1 -0.1)">
      <use xlink:href="#DejaVuSans-78"/>
      <use x="74.804688" xlink:href="#DejaVuSans-51"/>
     </g>
    </g>
    <g id="patch_252">
     <path d="M 336.61875 395.904063 
L 356.61875 395.904063 
L 356.61875 388.904063 
L 336.61875 388.904063 
z
" style="fill:#98df8a;"/>
    </g>
    <g id="text_31">
     <!-- N4 -->
     <g transform="translate(364.61875 395.904063)scale(0.1 -0.1)">
      <use xlink:href="#DejaVuSans-78"/>
      <use x="74.804688" xlink:href="#DejaVuSans-52"/>
     </g>
    </g>
    <g id="patch_253">
     <path d="M 336.61875 410.582188 
L 356.61875 410.582188 
L 356.61875 403.582188 
L 336.61875 403.582188 
z
" style="fill:#ff9896;"/>
    </g>
    <g id="text_32">
     <!-- N5 -->
     <g transform="translate(364.61875 410.582188)scale(0.1 -0.1)">
      <use xlink:href="#DejaVuSans-78"/>
      <use x="74.804688" xlink:href="#DejaVuSans-53"/>
     </g>
    </g>
    <g id="patch_254">
     <path d="M 336.61875 425.260313 
L 356.61875 425.260313 
L 356.61875 418.260313 
L 336.61875 418.260313 
z
" style="fill:#9467bd;"/>
    </g>
    <g id="text_33">
     <!-- N6 -->
     <g transform="translate(364.61875 425.260313)scale(0.1 -0.1)">
      <use xlink:href="#DejaVuSans-78"/>
      <use x="74.804688" xlink:href="#DejaVuSans-54"/>
     </g>
    </g>
    <g id="patch_255">
     <path d="M 336.61875 439.938438 
L 356.61875 439.938438 
L 356.61875 432.938438 
L 336.61875 432.938438 
z
" style="fill:#8c564b;"/>
    </g>
    <g id="text_34">
     <!-- N7 -->
     <g transform="translate(364.61875 439.938438)scale(0.1 -0.1)">
      <use xlink:href="#DejaVuSans-78"/>
      <use x="74.804688" xlink:href="#DejaVuSans-55"/>
     </g>
    </g>
    <g id="patch_256">
     <path d="M 336.61875 454.616563 
L 356.61875 454.616563 
L 356.61875 447.616563 
L 336.61875 447.616563 
z
" style="fill:#c49c94;"/>
    </g>
    <g id="text_35">
     <!-- N8 -->
     <g transform="translate(364.61875 454.616563)scale(0.1 -0.1)">
      <defs>
       <path d="M 31.78125 34.625 
Q 24.75 34.625 20.71875 30.859375 
Q 16.703125 27.09375 16.703125 20.515625 
Q 16.703125 13.921875 20.71875 10.15625 
Q 24.75 6.390625 31.78125 6.390625 
Q 38.8125 6.390625 42.859375 10.171875 
Q 46.921875 13.96875 46.921875 20.515625 
Q 46.921875 27.09375 42.890625 30.859375 
Q 38.875 34.625 31.78125 34.625 
z
M 21.921875 38.8125 
Q 15.578125 40.375 12.03125 44.71875 
Q 8.5 49.078125 8.5 55.328125 
Q 8.5 64.0625 14.71875 69.140625 
Q 20.953125 74.21875 31.78125 74.21875 
Q 42.671875 74.21875 48.875 69.140625 
Q 55.078125 64.0625 55.078125 55.328125 
Q 55.078125 49.078125 51.53125 44.71875 
Q 48 40.375 41.703125 38.8125 
Q 48.828125 37.15625 52.796875 32.3125 
Q 56.78125 27.484375 56.78125 20.515625 
Q 56.78125 9.90625 50.3125 4.234375 
Q 43.84375 -1.421875 31.78125 -1.421875 
Q 19.734375 -1.421875 13.25 4.234375 
Q 6.78125 9.90625 6.78125 20.515625 
Q 6.78125 27.484375 10.78125 32.3125 
Q 14.796875 37.15625 21.921875 38.8125 
z
M 18.3125 54.390625 
Q 18.3125 48.734375 21.84375 45.5625 
Q 25.390625 42.390625 31.78125 42.390625 
Q 38.140625 42.390625 41.71875 45.5625 
Q 45.3125 48.734375 45.3125 54.390625 
Q 45.3125 60.0625 41.71875 63.234375 
Q 38.140625 66.40625 31.78125 66.40625 
Q 25.390625 66.40625 21.84375 63.234375 
Q 18.3125 60.0625 18.3125 54.390625 
z
" id="DejaVuSans-56"/>
      </defs>
      <use xlink:href="#DejaVuSans-78"/>
      <use x="74.804688" xlink:href="#DejaVuSans-56"/>
     </g>
    </g>
    <g id="patch_257">
     <path d="M 336.61875 469.294688 
L 356.61875 469.294688 
L 356.61875 462.294688 
L 336.61875 462.294688 
z
" style="fill:#e377c2;"/>
    </g>
    <g id="text_36">
     <!-- N9 -->
     <g transform="translate(364.61875 469.294688)scale(0.1 -0.1)">
      <defs>
       <path d="M 10.984375 1.515625 
L 10.984375 10.5 
Q 14.703125 8.734375 18.5 7.8125 
Q 22.3125 6.890625 25.984375 6.890625 
Q 35.75 6.890625 40.890625 13.453125 
Q 46.046875 20.015625 46.78125 33.40625 
Q 43.953125 29.203125 39.59375 26.953125 
Q 35.25 24.703125 29.984375 24.703125 
Q 19.046875 24.703125 12.671875 31.3125 
Q 6.296875 37.9375 6.296875 49.421875 
Q 6.296875 60.640625 12.9375 67.421875 
Q 19.578125 74.21875 30.609375 74.21875 
Q 43.265625 74.21875 49.921875 64.515625 
Q 56.59375 54.828125 56.59375 36.375 
Q 56.59375 19.140625 48.40625 8.859375 
Q 40.234375 -1.421875 26.421875 -1.421875 
Q 22.703125 -1.421875 18.890625 -0.6875 
Q 15.09375 0.046875 10.984375 1.515625 
z
M 30.609375 32.421875 
Q 37.25 32.421875 41.125 36.953125 
Q 45.015625 41.5 45.015625 49.421875 
Q 45.015625 57.28125 41.125 61.84375 
Q 37.25 66.40625 30.609375 66.40625 
Q 23.96875 66.40625 20.09375 61.84375 
Q 16.21875 57.28125 16.21875 49.421875 
Q 16.21875 41.5 20.09375 36.953125 
Q 23.96875 32.421875 30.609375 32.421875 
z
" id="DejaVuSans-57"/>
      </defs>
      <use xlink:href="#DejaVuSans-78"/>
      <use x="74.804688" xlink:href="#DejaVuSans-57"/>
     </g>
    </g>
    <g id="patch_258">
     <path d="M 336.61875 483.972813 
L 356.61875 483.972813 
L 356.61875 476.972813 
L 336.61875 476.972813 
z
" style="fill:#7f7f7f;"/>
    </g>
    <g id="text_37">
     <!-- NB -->
     <g transform="translate(364.61875 483.972813)scale(0.1 -0.1)">
      <defs>
       <path d="M 19.671875 34.8125 
L 19.671875 8.109375 
L 35.5 8.109375 
Q 43.453125 8.109375 47.28125 11.40625 
Q 51.125 14.703125 51.125 21.484375 
Q 51.125 28.328125 47.28125 31.5625 
Q 43.453125 34.8125 35.5 34.8125 
z
M 19.671875 64.796875 
L 19.671875 42.828125 
L 34.28125 42.828125 
Q 41.5 42.828125 45.03125 45.53125 
Q 48.578125 48.25 48.578125 53.8125 
Q 48.578125 59.328125 45.03125 62.0625 
Q 41.5 64.796875 34.28125 64.796875 
z
M 9.8125 72.90625 
L 35.015625 72.90625 
Q 46.296875 72.90625 52.390625 68.21875 
Q 58.5 63.53125 58.5 54.890625 
Q 58.5 48.1875 55.375 44.234375 
Q 52.25 40.28125 46.1875 39.3125 
Q 53.46875 37.75 57.5 32.78125 
Q 61.53125 27.828125 61.53125 20.40625 
Q 61.53125 10.640625 54.890625 5.3125 
Q 48.25 0 35.984375 0 
L 9.8125 0 
z
" id="DejaVuSans-66"/>
      </defs>
      <use xlink:href="#DejaVuSans-78"/>
      <use x="74.804688" xlink:href="#DejaVuSans-66"/>
     </g>
    </g>
    <g id="patch_259">
     <path d="M 336.61875 498.650937 
L 356.61875 498.650937 
L 356.61875 491.650937 
L 336.61875 491.650937 
z
" style="fill:#c7c7c7;"/>
    </g>
    <g id="text_38">
     <!-- NC -->
     <g transform="translate(364.61875 498.650937)scale(0.1 -0.1)">
      <defs>
       <path d="M 64.40625 67.28125 
L 64.40625 56.890625 
Q 59.421875 61.53125 53.78125 63.8125 
Q 48.140625 66.109375 41.796875 66.109375 
Q 29.296875 66.109375 22.65625 58.46875 
Q 16.015625 50.828125 16.015625 36.375 
Q 16.015625 21.96875 22.65625 14.328125 
Q 29.296875 6.6875 41.796875 6.6875 
Q 48.140625 6.6875 53.78125 8.984375 
Q 59.421875 11.28125 64.40625 15.921875 
L 64.40625 5.609375 
Q 59.234375 2.09375 53.4375 0.328125 
Q 47.65625 -1.421875 41.21875 -1.421875 
Q 24.65625 -1.421875 15.125 8.703125 
Q 5.609375 18.84375 5.609375 36.375 
Q 5.609375 53.953125 15.125 64.078125 
Q 24.65625 74.21875 41.21875 74.21875 
Q 47.75 74.21875 53.53125 72.484375 
Q 59.328125 70.75 64.40625 67.28125 
z
" id="DejaVuSans-67"/>
      </defs>
      <use xlink:href="#DejaVuSans-78"/>
      <use x="74.804688" xlink:href="#DejaVuSans-67"/>
     </g>
    </g>
    <g id="patch_260">
     <path d="M 336.61875 513.329062 
L 356.61875 513.329062 
L 356.61875 506.329062 
L 336.61875 506.329062 
z
" style="fill:#dbdb8d;"/>
    </g>
    <g id="text_39">
     <!-- ND -->
     <g transform="translate(364.61875 513.329062)scale(0.1 -0.1)">
      <defs>
       <path d="M 19.671875 64.796875 
L 19.671875 8.109375 
L 31.59375 8.109375 
Q 46.6875 8.109375 53.6875 14.9375 
Q 60.6875 21.78125 60.6875 36.53125 
Q 60.6875 51.171875 53.6875 57.984375 
Q 46.6875 64.796875 31.59375 64.796875 
z
M 9.8125 72.90625 
L 30.078125 72.90625 
Q 51.265625 72.90625 61.171875 64.09375 
Q 71.09375 55.28125 71.09375 36.53125 
Q 71.09375 17.671875 61.125 8.828125 
Q 51.171875 0 30.078125 0 
L 9.8125 0 
z
" id="DejaVuSans-68"/>
      </defs>
      <use xlink:href="#DejaVuSans-78"/>
      <use x="74.804688" xlink:href="#DejaVuSans-68"/>
     </g>
    </g>
    <g id="patch_261">
     <path d="M 336.61875 528.007187 
L 356.61875 528.007187 
L 356.61875 521.007187 
L 336.61875 521.007187 
z
" style="fill:#17becf;"/>
    </g>
    <g id="text_40">
     <!-- NE -->
     <g transform="translate(364.61875 528.007187)scale(0.1 -0.1)">
      <defs>
       <path d="M 9.8125 72.90625 
L 55.90625 72.90625 
L 55.90625 64.59375 
L 19.671875 64.59375 
L 19.671875 43.015625 
L 54.390625 43.015625 
L 54.390625 34.71875 
L 19.671875 34.71875 
L 19.671875 8.296875 
L 56.78125 8.296875 
L 56.78125 0 
L 9.8125 0 
z
" id="DejaVuSans-69"/>
      </defs>
      <use xlink:href="#DejaVuSans-78"/>
      <use x="74.804688" xlink:href="#DejaVuSans-69"/>
     </g>
    </g>
    <g id="patch_262">
     <path d="M 336.61875 542.685313 
L 356.61875 542.685313 
L 356.61875 535.685313 
L 336.61875 535.685313 
z
" style="fill:#9edae5;"/>
    </g>
    <g id="text_41">
     <!-- NF -->
     <g transform="translate(364.61875 542.685313)scale(0.1 -0.1)">
      <defs>
       <path d="M 9.8125 72.90625 
L 51.703125 72.90625 
L 51.703125 64.59375 
L 19.671875 64.59375 
L 19.671875 43.109375 
L 48.578125 43.109375 
L 48.578125 34.8125 
L 19.671875 34.8125 
L 19.671875 0 
L 9.8125 0 
z
" id="DejaVuSans-70"/>
      </defs>
      <use xlink:href="#DejaVuSans-78"/>
      <use x="74.804688" xlink:href="#DejaVuSans-70"/>
     </g>
    </g>
   </g>
  </g>
 </g>
 <defs>
  <clipPath id="p66c78bd586">
   <rect height="652.32" width="334.8" x="54" y="103.68"/>
  </clipPath>
 </defs>
</svg>
