<?xml version="1.0" encoding="utf-8" standalone="no"?>
<!DOCTYPE svg PUBLIC "-//W3C//DTD SVG 1.1//EN"
  "http://www.w3.org/Graphics/SVG/1.1/DTD/svg11.dtd">
<!-- Created with matplotlib (https://matplotlib.org/) -->
<svg height="864pt" version="1.1" viewBox="0 0 432 864" width="432pt" xmlns="http://www.w3.org/2000/svg" xmlns:xlink="http://www.w3.org/1999/xlink">
 <metadata>
  <rdf:RDF xmlns:cc="http://creativecommons.org/ns#" xmlns:dc="http://purl.org/dc/elements/1.1/" xmlns:rdf="http://www.w3.org/1999/02/22-rdf-syntax-ns#">
   <cc:Work>
    <dc:type rdf:resource="http://purl.org/dc/dcmitype/StillImage"/>
    <dc:date>2020-12-27T10:59:38.543706</dc:date>
    <dc:format>image/svg+xml</dc:format>
    <dc:creator>
     <cc:Agent>
      <dc:title>Matplotlib v3.3.3, https://matplotlib.org/</dc:title>
     </cc:Agent>
    </dc:creator>
   </cc:Work>
  </rdf:RDF>
 </metadata>
 <defs>
  <style type="text/css">*{stroke-linecap:butt;stroke-linejoin:round;}</style>
 </defs>
 <g id="figure_1">
  <g id="patch_1">
   <path d="M 0 864 
L 432 864 
L 432 0 
L 0 0 
z
" style="fill:none;"/>
  </g>
  <g id="axes_1">
   <g id="patch_2">
    <path d="M 54 756 
L 388.8 756 
L 388.8 103.68 
L 54 103.68 
z
" style="fill:#ffffff;"/>
   </g>
   <g id="patch_3">
    <path clip-path="url(#pc1ccbb5665)" d="M 54 751.203529 
L 56.739158 751.203529 
L 56.739158 741.610588 
L 54 741.610588 
z
" style="fill:#1f77b4;"/>
   </g>
   <g id="patch_4">
    <path clip-path="url(#pc1ccbb5665)" d="M 54 732.017647 
L 56.83471 732.017647 
L 56.83471 722.424706 
L 54 722.424706 
z
" style="fill:#1f77b4;"/>
   </g>
   <g id="patch_5">
    <path clip-path="url(#pc1ccbb5665)" d="M 54 712.831765 
L 56.83471 712.831765 
L 56.83471 703.238824 
L 54 703.238824 
z
" style="fill:#1f77b4;"/>
   </g>
   <g id="patch_6">
    <path clip-path="url(#pc1ccbb5665)" d="M 54 693.645882 
L 56.860191 693.645882 
L 56.860191 684.052941 
L 54 684.052941 
z
" style="fill:#1f77b4;"/>
   </g>
   <g id="patch_7">
    <path clip-path="url(#pc1ccbb5665)" d="M 54 674.46 
L 56.892042 674.46 
L 56.892042 664.867059 
L 54 664.867059 
z
" style="fill:#1f77b4;"/>
   </g>
   <g id="patch_8">
    <path clip-path="url(#pc1ccbb5665)" d="M 54 655.274118 
L 56.904782 655.274118 
L 56.904782 645.681176 
L 54 645.681176 
z
" style="fill:#1f77b4;"/>
   </g>
   <g id="patch_9">
    <path clip-path="url(#pc1ccbb5665)" d="M 54 636.088235 
L 57.337951 636.088235 
L 57.337951 626.495294 
L 54 626.495294 
z
" style="fill:#1f77b4;"/>
   </g>
   <g id="patch_10">
    <path clip-path="url(#pc1ccbb5665)" d="M 54 616.902353 
L 57.529055 616.902353 
L 57.529055 607.309412 
L 54 607.309412 
z
" style="fill:#1f77b4;"/>
   </g>
   <g id="patch_11">
    <path clip-path="url(#pc1ccbb5665)" d="M 54 597.716471 
L 57.567276 597.716471 
L 57.567276 588.123529 
L 54 588.123529 
z
" style="fill:#1f77b4;"/>
   </g>
   <g id="patch_12">
    <path clip-path="url(#pc1ccbb5665)" d="M 54 578.530588 
L 57.586386 578.530588 
L 57.586386 568.937647 
L 54 568.937647 
z
" style="fill:#1f77b4;"/>
   </g>
   <g id="patch_13">
    <path clip-path="url(#pc1ccbb5665)" d="M 54 559.344706 
L 57.77749 559.344706 
L 57.77749 549.751765 
L 54 549.751765 
z
" style="fill:#1f77b4;"/>
   </g>
   <g id="patch_14">
    <path clip-path="url(#pc1ccbb5665)" d="M 54 540.158824 
L 57.796601 540.158824 
L 57.796601 530.565882 
L 54 530.565882 
z
" style="fill:#1f77b4;"/>
   </g>
   <g id="patch_15">
    <path clip-path="url(#pc1ccbb5665)" d="M 54 520.972941 
L 57.834822 520.972941 
L 57.834822 511.38 
L 54 511.38 
z
" style="fill:#1f77b4;"/>
   </g>
   <g id="patch_16">
    <path clip-path="url(#pc1ccbb5665)" d="M 54 501.787059 
L 58.032296 501.787059 
L 58.032296 492.194118 
L 54 492.194118 
z
" style="fill:#1f77b4;"/>
   </g>
   <g id="patch_17">
    <path clip-path="url(#pc1ccbb5665)" d="M 54 482.601176 
L 58.121478 482.601176 
L 58.121478 473.008235 
L 54 473.008235 
z
" style="fill:#1f77b4;"/>
   </g>
   <g id="patch_18">
    <path clip-path="url(#pc1ccbb5665)" d="M 54 463.415294 
L 58.172439 463.415294 
L 58.172439 453.822353 
L 54 453.822353 
z
" style="fill:#1f77b4;"/>
   </g>
   <g id="patch_19">
    <path clip-path="url(#pc1ccbb5665)" d="M 54 444.229412 
L 58.267991 444.229412 
L 58.267991 434.636471 
L 54 434.636471 
z
" style="fill:#1f77b4;"/>
   </g>
   <g id="patch_20">
    <path clip-path="url(#pc1ccbb5665)" d="M 54 425.043529 
L 58.459095 425.043529 
L 58.459095 415.450588 
L 54 415.450588 
z
" style="fill:#1f77b4;"/>
   </g>
   <g id="patch_21">
    <path clip-path="url(#pc1ccbb5665)" d="M 54 405.857647 
L 58.465465 405.857647 
L 58.465465 396.264706 
L 54 396.264706 
z
" style="fill:#1f77b4;"/>
   </g>
   <g id="patch_22">
    <path clip-path="url(#pc1ccbb5665)" d="M 54 386.671765 
L 58.720271 386.671765 
L 58.720271 377.078824 
L 54 377.078824 
z
" style="fill:#1f77b4;"/>
   </g>
   <g id="patch_23">
    <path clip-path="url(#pc1ccbb5665)" d="M 54 367.485882 
L 58.752121 367.485882 
L 58.752121 357.892941 
L 54 357.892941 
z
" style="fill:#1f77b4;"/>
   </g>
   <g id="patch_24">
    <path clip-path="url(#pc1ccbb5665)" d="M 54 348.3 
L 58.796712 348.3 
L 58.796712 338.707059 
L 54 338.707059 
z
" style="fill:#1f77b4;"/>
   </g>
   <g id="patch_25">
    <path clip-path="url(#pc1ccbb5665)" d="M 54 329.114118 
L 59.14707 329.114118 
L 59.14707 319.521176 
L 54 319.521176 
z
" style="fill:#1f77b4;"/>
   </g>
   <g id="patch_26">
    <path clip-path="url(#pc1ccbb5665)" d="M 54 309.928235 
L 59.248992 309.928235 
L 59.248992 300.335294 
L 54 300.335294 
z
" style="fill:#1f77b4;"/>
   </g>
   <g id="patch_27">
    <path clip-path="url(#pc1ccbb5665)" d="M 54 290.742353 
L 59.656681 290.742353 
L 59.656681 281.149412 
L 54 281.149412 
z
" style="fill:#1f77b4;"/>
   </g>
   <g id="patch_28">
    <path clip-path="url(#pc1ccbb5665)" d="M 54 271.556471 
L 60.11533 271.556471 
L 60.11533 261.963529 
L 54 261.963529 
z
" style="fill:#1f77b4;"/>
   </g>
   <g id="patch_29">
    <path clip-path="url(#pc1ccbb5665)" d="M 54 252.370588 
L 60.198142 252.370588 
L 60.198142 242.777647 
L 54 242.777647 
z
" style="fill:#1f77b4;"/>
   </g>
   <g id="patch_30">
    <path clip-path="url(#pc1ccbb5665)" d="M 54 233.184706 
L 60.497538 233.184706 
L 60.497538 223.591765 
L 54 223.591765 
z
" style="fill:#1f77b4;"/>
   </g>
   <g id="patch_31">
    <path clip-path="url(#pc1ccbb5665)" d="M 54 213.998824 
L 62.491391 213.998824 
L 62.491391 204.405882 
L 54 204.405882 
z
" style="fill:#1f77b4;"/>
   </g>
   <g id="patch_32">
    <path clip-path="url(#pc1ccbb5665)" d="M 54 194.812941 
L 65.338842 194.812941 
L 65.338842 185.22 
L 54 185.22 
z
" style="fill:#1f77b4;"/>
   </g>
   <g id="patch_33">
    <path clip-path="url(#pc1ccbb5665)" d="M 54 175.627059 
L 65.956745 175.627059 
L 65.956745 166.034118 
L 54 166.034118 
z
" style="fill:#1f77b4;"/>
   </g>
   <g id="patch_34">
    <path clip-path="url(#pc1ccbb5665)" d="M 54 156.441176 
L 68.377396 156.441176 
L 68.377396 146.848235 
L 54 146.848235 
z
" style="fill:#1f77b4;"/>
   </g>
   <g id="patch_35">
    <path clip-path="url(#pc1ccbb5665)" d="M 54 137.255294 
L 372.073616 137.255294 
L 372.073616 127.662353 
L 54 127.662353 
z
" style="fill:#1f77b4;"/>
   </g>
   <g id="patch_36">
    <path clip-path="url(#pc1ccbb5665)" d="M 54 118.069412 
L 372.857143 118.069412 
L 372.857143 108.476471 
L 54 108.476471 
z
" style="fill:#1f77b4;"/>
   </g>
   <g id="matplotlib.axis_1">
    <g id="xtick_1">
     <g id="line2d_1">
      <defs>
       <path d="M 0 0 
L 0 3.5 
" id="medea3345cd" style="stroke:#000000;stroke-width:0.8;"/>
      </defs>
      <g>
       <use style="stroke:#000000;stroke-width:0.8;" x="54" xlink:href="#medea3345cd" y="756"/>
      </g>
     </g>
     <g id="text_1">
      <!-- 0 -->
      <g transform="translate(50.81875 770.598438)scale(0.1 -0.1)">
       <defs>
        <path d="M 31.78125 66.40625 
Q 24.171875 66.40625 20.328125 58.90625 
Q 16.5 51.421875 16.5 36.375 
Q 16.5 21.390625 20.328125 13.890625 
Q 24.171875 6.390625 31.78125 6.390625 
Q 39.453125 6.390625 43.28125 13.890625 
Q 47.125 21.390625 47.125 36.375 
Q 47.125 51.421875 43.28125 58.90625 
Q 39.453125 66.40625 31.78125 66.40625 
z
M 31.78125 74.21875 
Q 44.046875 74.21875 50.515625 64.515625 
Q 56.984375 54.828125 56.984375 36.375 
Q 56.984375 17.96875 50.515625 8.265625 
Q 44.046875 -1.421875 31.78125 -1.421875 
Q 19.53125 -1.421875 13.0625 8.265625 
Q 6.59375 17.96875 6.59375 36.375 
Q 6.59375 54.828125 13.0625 64.515625 
Q 19.53125 74.21875 31.78125 74.21875 
z
" id="DejaVuSans-48"/>
       </defs>
       <use xlink:href="#DejaVuSans-48"/>
      </g>
     </g>
    </g>
    <g id="xtick_2">
     <g id="line2d_2">
      <g>
       <use style="stroke:#000000;stroke-width:0.8;" x="117.701357" xlink:href="#medea3345cd" y="756"/>
      </g>
     </g>
     <g id="text_2">
      <!-- 10000 -->
      <g transform="translate(101.795107 770.598438)scale(0.1 -0.1)">
       <defs>
        <path d="M 12.40625 8.296875 
L 28.515625 8.296875 
L 28.515625 63.921875 
L 10.984375 60.40625 
L 10.984375 69.390625 
L 28.421875 72.90625 
L 38.28125 72.90625 
L 38.28125 8.296875 
L 54.390625 8.296875 
L 54.390625 0 
L 12.40625 0 
z
" id="DejaVuSans-49"/>
       </defs>
       <use xlink:href="#DejaVuSans-49"/>
       <use x="63.623047" xlink:href="#DejaVuSans-48"/>
       <use x="127.246094" xlink:href="#DejaVuSans-48"/>
       <use x="190.869141" xlink:href="#DejaVuSans-48"/>
       <use x="254.492188" xlink:href="#DejaVuSans-48"/>
      </g>
     </g>
    </g>
    <g id="xtick_3">
     <g id="line2d_3">
      <g>
       <use style="stroke:#000000;stroke-width:0.8;" x="181.402714" xlink:href="#medea3345cd" y="756"/>
      </g>
     </g>
     <g id="text_3">
      <!-- 20000 -->
      <g transform="translate(165.496464 770.598438)scale(0.1 -0.1)">
       <defs>
        <path d="M 19.1875 8.296875 
L 53.609375 8.296875 
L 53.609375 0 
L 7.328125 0 
L 7.328125 8.296875 
Q 12.9375 14.109375 22.625 23.890625 
Q 32.328125 33.6875 34.8125 36.53125 
Q 39.546875 41.84375 41.421875 45.53125 
Q 43.3125 49.21875 43.3125 52.78125 
Q 43.3125 58.59375 39.234375 62.25 
Q 35.15625 65.921875 28.609375 65.921875 
Q 23.96875 65.921875 18.8125 64.3125 
Q 13.671875 62.703125 7.8125 59.421875 
L 7.8125 69.390625 
Q 13.765625 71.78125 18.9375 73 
Q 24.125 74.21875 28.421875 74.21875 
Q 39.75 74.21875 46.484375 68.546875 
Q 53.21875 62.890625 53.21875 53.421875 
Q 53.21875 48.921875 51.53125 44.890625 
Q 49.859375 40.875 45.40625 35.40625 
Q 44.1875 33.984375 37.640625 27.21875 
Q 31.109375 20.453125 19.1875 8.296875 
z
" id="DejaVuSans-50"/>
       </defs>
       <use xlink:href="#DejaVuSans-50"/>
       <use x="63.623047" xlink:href="#DejaVuSans-48"/>
       <use x="127.246094" xlink:href="#DejaVuSans-48"/>
       <use x="190.869141" xlink:href="#DejaVuSans-48"/>
       <use x="254.492188" xlink:href="#DejaVuSans-48"/>
      </g>
     </g>
    </g>
    <g id="xtick_4">
     <g id="line2d_4">
      <g>
       <use style="stroke:#000000;stroke-width:0.8;" x="245.104071" xlink:href="#medea3345cd" y="756"/>
      </g>
     </g>
     <g id="text_4">
      <!-- 30000 -->
      <g transform="translate(229.197821 770.598438)scale(0.1 -0.1)">
       <defs>
        <path d="M 40.578125 39.3125 
Q 47.65625 37.796875 51.625 33 
Q 55.609375 28.21875 55.609375 21.1875 
Q 55.609375 10.40625 48.1875 4.484375 
Q 40.765625 -1.421875 27.09375 -1.421875 
Q 22.515625 -1.421875 17.65625 -0.515625 
Q 12.796875 0.390625 7.625 2.203125 
L 7.625 11.71875 
Q 11.71875 9.328125 16.59375 8.109375 
Q 21.484375 6.890625 26.8125 6.890625 
Q 36.078125 6.890625 40.9375 10.546875 
Q 45.796875 14.203125 45.796875 21.1875 
Q 45.796875 27.640625 41.28125 31.265625 
Q 36.765625 34.90625 28.71875 34.90625 
L 20.21875 34.90625 
L 20.21875 43.015625 
L 29.109375 43.015625 
Q 36.375 43.015625 40.234375 45.921875 
Q 44.09375 48.828125 44.09375 54.296875 
Q 44.09375 59.90625 40.109375 62.90625 
Q 36.140625 65.921875 28.71875 65.921875 
Q 24.65625 65.921875 20.015625 65.03125 
Q 15.375 64.15625 9.8125 62.3125 
L 9.8125 71.09375 
Q 15.4375 72.65625 20.34375 73.4375 
Q 25.25 74.21875 29.59375 74.21875 
Q 40.828125 74.21875 47.359375 69.109375 
Q 53.90625 64.015625 53.90625 55.328125 
Q 53.90625 49.265625 50.4375 45.09375 
Q 46.96875 40.921875 40.578125 39.3125 
z
" id="DejaVuSans-51"/>
       </defs>
       <use xlink:href="#DejaVuSans-51"/>
       <use x="63.623047" xlink:href="#DejaVuSans-48"/>
       <use x="127.246094" xlink:href="#DejaVuSans-48"/>
       <use x="190.869141" xlink:href="#DejaVuSans-48"/>
       <use x="254.492188" xlink:href="#DejaVuSans-48"/>
      </g>
     </g>
    </g>
    <g id="xtick_5">
     <g id="line2d_5">
      <g>
       <use style="stroke:#000000;stroke-width:0.8;" x="308.805428" xlink:href="#medea3345cd" y="756"/>
      </g>
     </g>
     <g id="text_5">
      <!-- 40000 -->
      <g transform="translate(292.899178 770.598438)scale(0.1 -0.1)">
       <defs>
        <path d="M 37.796875 64.3125 
L 12.890625 25.390625 
L 37.796875 25.390625 
z
M 35.203125 72.90625 
L 47.609375 72.90625 
L 47.609375 25.390625 
L 58.015625 25.390625 
L 58.015625 17.1875 
L 47.609375 17.1875 
L 47.609375 0 
L 37.796875 0 
L 37.796875 17.1875 
L 4.890625 17.1875 
L 4.890625 26.703125 
z
" id="DejaVuSans-52"/>
       </defs>
       <use xlink:href="#DejaVuSans-52"/>
       <use x="63.623047" xlink:href="#DejaVuSans-48"/>
       <use x="127.246094" xlink:href="#DejaVuSans-48"/>
       <use x="190.869141" xlink:href="#DejaVuSans-48"/>
       <use x="254.492188" xlink:href="#DejaVuSans-48"/>
      </g>
     </g>
    </g>
    <g id="xtick_6">
     <g id="line2d_6">
      <g>
       <use style="stroke:#000000;stroke-width:0.8;" x="372.506785" xlink:href="#medea3345cd" y="756"/>
      </g>
     </g>
     <g id="text_6">
      <!-- 50000 -->
      <g transform="translate(356.600535 770.598438)scale(0.1 -0.1)">
       <defs>
        <path d="M 10.796875 72.90625 
L 49.515625 72.90625 
L 49.515625 64.59375 
L 19.828125 64.59375 
L 19.828125 46.734375 
Q 21.96875 47.46875 24.109375 47.828125 
Q 26.265625 48.1875 28.421875 48.1875 
Q 40.625 48.1875 47.75 41.5 
Q 54.890625 34.8125 54.890625 23.390625 
Q 54.890625 11.625 47.5625 5.09375 
Q 40.234375 -1.421875 26.90625 -1.421875 
Q 22.3125 -1.421875 17.546875 -0.640625 
Q 12.796875 0.140625 7.71875 1.703125 
L 7.71875 11.625 
Q 12.109375 9.234375 16.796875 8.0625 
Q 21.484375 6.890625 26.703125 6.890625 
Q 35.15625 6.890625 40.078125 11.328125 
Q 45.015625 15.765625 45.015625 23.390625 
Q 45.015625 31 40.078125 35.4375 
Q 35.15625 39.890625 26.703125 39.890625 
Q 22.75 39.890625 18.8125 39.015625 
Q 14.890625 38.140625 10.796875 36.28125 
z
" id="DejaVuSans-53"/>
       </defs>
       <use xlink:href="#DejaVuSans-53"/>
       <use x="63.623047" xlink:href="#DejaVuSans-48"/>
       <use x="127.246094" xlink:href="#DejaVuSans-48"/>
       <use x="190.869141" xlink:href="#DejaVuSans-48"/>
       <use x="254.492188" xlink:href="#DejaVuSans-48"/>
      </g>
     </g>
    </g>
   </g>
   <g id="matplotlib.axis_2">
    <g id="ytick_1">
     <g id="line2d_7">
      <defs>
       <path d="M 0 0 
L -3.5 0 
" id="mb45a8cafa0" style="stroke:#000000;stroke-width:0.8;"/>
      </defs>
      <g>
       <use style="stroke:#000000;stroke-width:0.8;" x="54" xlink:href="#mb45a8cafa0" y="746.407059"/>
      </g>
     </g>
     <g id="text_7">
      <!-- J06-U01 -->
      <g transform="translate(7.673437 750.206278)scale(0.1 -0.1)">
       <defs>
        <path d="M 9.8125 72.90625 
L 19.671875 72.90625 
L 19.671875 5.078125 
Q 19.671875 -8.109375 14.671875 -14.0625 
Q 9.671875 -20.015625 -1.421875 -20.015625 
L -5.171875 -20.015625 
L -5.171875 -11.71875 
L -2.09375 -11.71875 
Q 4.4375 -11.71875 7.125 -8.046875 
Q 9.8125 -4.390625 9.8125 5.078125 
z
" id="DejaVuSans-74"/>
        <path d="M 33.015625 40.375 
Q 26.375 40.375 22.484375 35.828125 
Q 18.609375 31.296875 18.609375 23.390625 
Q 18.609375 15.53125 22.484375 10.953125 
Q 26.375 6.390625 33.015625 6.390625 
Q 39.65625 6.390625 43.53125 10.953125 
Q 47.40625 15.53125 47.40625 23.390625 
Q 47.40625 31.296875 43.53125 35.828125 
Q 39.65625 40.375 33.015625 40.375 
z
M 52.59375 71.296875 
L 52.59375 62.3125 
Q 48.875 64.0625 45.09375 64.984375 
Q 41.3125 65.921875 37.59375 65.921875 
Q 27.828125 65.921875 22.671875 59.328125 
Q 17.53125 52.734375 16.796875 39.40625 
Q 19.671875 43.65625 24.015625 45.921875 
Q 28.375 48.1875 33.59375 48.1875 
Q 44.578125 48.1875 50.953125 41.515625 
Q 57.328125 34.859375 57.328125 23.390625 
Q 57.328125 12.15625 50.6875 5.359375 
Q 44.046875 -1.421875 33.015625 -1.421875 
Q 20.359375 -1.421875 13.671875 8.265625 
Q 6.984375 17.96875 6.984375 36.375 
Q 6.984375 53.65625 15.1875 63.9375 
Q 23.390625 74.21875 37.203125 74.21875 
Q 40.921875 74.21875 44.703125 73.484375 
Q 48.484375 72.75 52.59375 71.296875 
z
" id="DejaVuSans-54"/>
        <path d="M 4.890625 31.390625 
L 31.203125 31.390625 
L 31.203125 23.390625 
L 4.890625 23.390625 
z
" id="DejaVuSans-45"/>
        <path d="M 8.6875 72.90625 
L 18.609375 72.90625 
L 18.609375 28.609375 
Q 18.609375 16.890625 22.84375 11.734375 
Q 27.09375 6.59375 36.625 6.59375 
Q 46.09375 6.59375 50.34375 11.734375 
Q 54.59375 16.890625 54.59375 28.609375 
L 54.59375 72.90625 
L 64.5 72.90625 
L 64.5 27.390625 
Q 64.5 13.140625 57.4375 5.859375 
Q 50.390625 -1.421875 36.625 -1.421875 
Q 22.796875 -1.421875 15.734375 5.859375 
Q 8.6875 13.140625 8.6875 27.390625 
z
" id="DejaVuSans-85"/>
       </defs>
       <use xlink:href="#DejaVuSans-74"/>
       <use x="29.492188" xlink:href="#DejaVuSans-48"/>
       <use x="93.115234" xlink:href="#DejaVuSans-54"/>
       <use x="156.738281" xlink:href="#DejaVuSans-45"/>
       <use x="192.822266" xlink:href="#DejaVuSans-85"/>
       <use x="266.015625" xlink:href="#DejaVuSans-48"/>
       <use x="329.638672" xlink:href="#DejaVuSans-49"/>
      </g>
     </g>
    </g>
    <g id="ytick_2">
     <g id="line2d_8">
      <g>
       <use style="stroke:#000000;stroke-width:0.8;" x="54" xlink:href="#mb45a8cafa0" y="727.221176"/>
      </g>
     </g>
     <g id="text_8">
      <!-- J14-U11 -->
      <g transform="translate(7.673437 731.020395)scale(0.1 -0.1)">
       <use xlink:href="#DejaVuSans-74"/>
       <use x="29.492188" xlink:href="#DejaVuSans-49"/>
       <use x="93.115234" xlink:href="#DejaVuSans-52"/>
       <use x="156.738281" xlink:href="#DejaVuSans-45"/>
       <use x="192.822266" xlink:href="#DejaVuSans-85"/>
       <use x="266.015625" xlink:href="#DejaVuSans-49"/>
       <use x="329.638672" xlink:href="#DejaVuSans-49"/>
      </g>
     </g>
    </g>
    <g id="ytick_3">
     <g id="line2d_9">
      <g>
       <use style="stroke:#000000;stroke-width:0.8;" x="54" xlink:href="#mb45a8cafa0" y="708.035294"/>
      </g>
     </g>
     <g id="text_9">
      <!-- J07-U11 -->
      <g transform="translate(7.673437 711.834513)scale(0.1 -0.1)">
       <defs>
        <path d="M 8.203125 72.90625 
L 55.078125 72.90625 
L 55.078125 68.703125 
L 28.609375 0 
L 18.3125 0 
L 43.21875 64.59375 
L 8.203125 64.59375 
z
" id="DejaVuSans-55"/>
       </defs>
       <use xlink:href="#DejaVuSans-74"/>
       <use x="29.492188" xlink:href="#DejaVuSans-48"/>
       <use x="93.115234" xlink:href="#DejaVuSans-55"/>
       <use x="156.738281" xlink:href="#DejaVuSans-45"/>
       <use x="192.822266" xlink:href="#DejaVuSans-85"/>
       <use x="266.015625" xlink:href="#DejaVuSans-49"/>
       <use x="329.638672" xlink:href="#DejaVuSans-49"/>
      </g>
     </g>
    </g>
    <g id="ytick_4">
     <g id="line2d_10">
      <g>
       <use style="stroke:#000000;stroke-width:0.8;" x="54" xlink:href="#mb45a8cafa0" y="688.849412"/>
      </g>
     </g>
     <g id="text_10">
      <!-- J02-U11 -->
      <g transform="translate(7.673437 692.648631)scale(0.1 -0.1)">
       <use xlink:href="#DejaVuSans-74"/>
       <use x="29.492188" xlink:href="#DejaVuSans-48"/>
       <use x="93.115234" xlink:href="#DejaVuSans-50"/>
       <use x="156.738281" xlink:href="#DejaVuSans-45"/>
       <use x="192.822266" xlink:href="#DejaVuSans-85"/>
       <use x="266.015625" xlink:href="#DejaVuSans-49"/>
       <use x="329.638672" xlink:href="#DejaVuSans-49"/>
      </g>
     </g>
    </g>
    <g id="ytick_5">
     <g id="line2d_11">
      <g>
       <use style="stroke:#000000;stroke-width:0.8;" x="54" xlink:href="#mb45a8cafa0" y="669.663529"/>
      </g>
     </g>
     <g id="text_11">
      <!-- J15-U11 -->
      <g transform="translate(7.673437 673.462748)scale(0.1 -0.1)">
       <use xlink:href="#DejaVuSans-74"/>
       <use x="29.492188" xlink:href="#DejaVuSans-49"/>
       <use x="93.115234" xlink:href="#DejaVuSans-53"/>
       <use x="156.738281" xlink:href="#DejaVuSans-45"/>
       <use x="192.822266" xlink:href="#DejaVuSans-85"/>
       <use x="266.015625" xlink:href="#DejaVuSans-49"/>
       <use x="329.638672" xlink:href="#DejaVuSans-49"/>
      </g>
     </g>
    </g>
    <g id="ytick_6">
     <g id="line2d_12">
      <g>
       <use style="stroke:#000000;stroke-width:0.8;" x="54" xlink:href="#mb45a8cafa0" y="650.477647"/>
      </g>
     </g>
     <g id="text_12">
      <!-- J05-U01 -->
      <g transform="translate(7.673437 654.276866)scale(0.1 -0.1)">
       <use xlink:href="#DejaVuSans-74"/>
       <use x="29.492188" xlink:href="#DejaVuSans-48"/>
       <use x="93.115234" xlink:href="#DejaVuSans-53"/>
       <use x="156.738281" xlink:href="#DejaVuSans-45"/>
       <use x="192.822266" xlink:href="#DejaVuSans-85"/>
       <use x="266.015625" xlink:href="#DejaVuSans-48"/>
       <use x="329.638672" xlink:href="#DejaVuSans-49"/>
      </g>
     </g>
    </g>
    <g id="ytick_7">
     <g id="line2d_13">
      <g>
       <use style="stroke:#000000;stroke-width:0.8;" x="54" xlink:href="#mb45a8cafa0" y="631.291765"/>
      </g>
     </g>
     <g id="text_13">
      <!-- J02-U01 -->
      <g transform="translate(7.673437 635.090983)scale(0.1 -0.1)">
       <use xlink:href="#DejaVuSans-74"/>
       <use x="29.492188" xlink:href="#DejaVuSans-48"/>
       <use x="93.115234" xlink:href="#DejaVuSans-50"/>
       <use x="156.738281" xlink:href="#DejaVuSans-45"/>
       <use x="192.822266" xlink:href="#DejaVuSans-85"/>
       <use x="266.015625" xlink:href="#DejaVuSans-48"/>
       <use x="329.638672" xlink:href="#DejaVuSans-49"/>
      </g>
     </g>
    </g>
    <g id="ytick_8">
     <g id="line2d_14">
      <g>
       <use style="stroke:#000000;stroke-width:0.8;" x="54" xlink:href="#mb45a8cafa0" y="612.105882"/>
      </g>
     </g>
     <g id="text_14">
      <!-- J10-U01 -->
      <g transform="translate(7.673437 615.905101)scale(0.1 -0.1)">
       <use xlink:href="#DejaVuSans-74"/>
       <use x="29.492188" xlink:href="#DejaVuSans-49"/>
       <use x="93.115234" xlink:href="#DejaVuSans-48"/>
       <use x="156.738281" xlink:href="#DejaVuSans-45"/>
       <use x="192.822266" xlink:href="#DejaVuSans-85"/>
       <use x="266.015625" xlink:href="#DejaVuSans-48"/>
       <use x="329.638672" xlink:href="#DejaVuSans-49"/>
      </g>
     </g>
    </g>
    <g id="ytick_9">
     <g id="line2d_15">
      <g>
       <use style="stroke:#000000;stroke-width:0.8;" x="54" xlink:href="#mb45a8cafa0" y="592.92"/>
      </g>
     </g>
     <g id="text_15">
      <!-- J08-U11 -->
      <g transform="translate(7.673437 596.719219)scale(0.1 -0.1)">
       <defs>
        <path d="M 31.78125 34.625 
Q 24.75 34.625 20.71875 30.859375 
Q 16.703125 27.09375 16.703125 20.515625 
Q 16.703125 13.921875 20.71875 10.15625 
Q 24.75 6.390625 31.78125 6.390625 
Q 38.8125 6.390625 42.859375 10.171875 
Q 46.921875 13.96875 46.921875 20.515625 
Q 46.921875 27.09375 42.890625 30.859375 
Q 38.875 34.625 31.78125 34.625 
z
M 21.921875 38.8125 
Q 15.578125 40.375 12.03125 44.71875 
Q 8.5 49.078125 8.5 55.328125 
Q 8.5 64.0625 14.71875 69.140625 
Q 20.953125 74.21875 31.78125 74.21875 
Q 42.671875 74.21875 48.875 69.140625 
Q 55.078125 64.0625 55.078125 55.328125 
Q 55.078125 49.078125 51.53125 44.71875 
Q 48 40.375 41.703125 38.8125 
Q 48.828125 37.15625 52.796875 32.3125 
Q 56.78125 27.484375 56.78125 20.515625 
Q 56.78125 9.90625 50.3125 4.234375 
Q 43.84375 -1.421875 31.78125 -1.421875 
Q 19.734375 -1.421875 13.25 4.234375 
Q 6.78125 9.90625 6.78125 20.515625 
Q 6.78125 27.484375 10.78125 32.3125 
Q 14.796875 37.15625 21.921875 38.8125 
z
M 18.3125 54.390625 
Q 18.3125 48.734375 21.84375 45.5625 
Q 25.390625 42.390625 31.78125 42.390625 
Q 38.140625 42.390625 41.71875 45.5625 
Q 45.3125 48.734375 45.3125 54.390625 
Q 45.3125 60.0625 41.71875 63.234375 
Q 38.140625 66.40625 31.78125 66.40625 
Q 25.390625 66.40625 21.84375 63.234375 
Q 18.3125 60.0625 18.3125 54.390625 
z
" id="DejaVuSans-56"/>
       </defs>
       <use xlink:href="#DejaVuSans-74"/>
       <use x="29.492188" xlink:href="#DejaVuSans-48"/>
       <use x="93.115234" xlink:href="#DejaVuSans-56"/>
       <use x="156.738281" xlink:href="#DejaVuSans-45"/>
       <use x="192.822266" xlink:href="#DejaVuSans-85"/>
       <use x="266.015625" xlink:href="#DejaVuSans-49"/>
       <use x="329.638672" xlink:href="#DejaVuSans-49"/>
      </g>
     </g>
    </g>
    <g id="ytick_10">
     <g id="line2d_16">
      <g>
       <use style="stroke:#000000;stroke-width:0.8;" x="54" xlink:href="#mb45a8cafa0" y="573.734118"/>
      </g>
     </g>
     <g id="text_16">
      <!-- J13-U11 -->
      <g transform="translate(7.673437 577.533336)scale(0.1 -0.1)">
       <use xlink:href="#DejaVuSans-74"/>
       <use x="29.492188" xlink:href="#DejaVuSans-49"/>
       <use x="93.115234" xlink:href="#DejaVuSans-51"/>
       <use x="156.738281" xlink:href="#DejaVuSans-45"/>
       <use x="192.822266" xlink:href="#DejaVuSans-85"/>
       <use x="266.015625" xlink:href="#DejaVuSans-49"/>
       <use x="329.638672" xlink:href="#DejaVuSans-49"/>
      </g>
     </g>
    </g>
    <g id="ytick_11">
     <g id="line2d_17">
      <g>
       <use style="stroke:#000000;stroke-width:0.8;" x="54" xlink:href="#mb45a8cafa0" y="554.548235"/>
      </g>
     </g>
     <g id="text_17">
      <!-- J04-U11 -->
      <g transform="translate(7.673437 558.347454)scale(0.1 -0.1)">
       <use xlink:href="#DejaVuSans-74"/>
       <use x="29.492188" xlink:href="#DejaVuSans-48"/>
       <use x="93.115234" xlink:href="#DejaVuSans-52"/>
       <use x="156.738281" xlink:href="#DejaVuSans-45"/>
       <use x="192.822266" xlink:href="#DejaVuSans-85"/>
       <use x="266.015625" xlink:href="#DejaVuSans-49"/>
       <use x="329.638672" xlink:href="#DejaVuSans-49"/>
      </g>
     </g>
    </g>
    <g id="ytick_12">
     <g id="line2d_18">
      <g>
       <use style="stroke:#000000;stroke-width:0.8;" x="54" xlink:href="#mb45a8cafa0" y="535.362353"/>
      </g>
     </g>
     <g id="text_18">
      <!-- J12-U11 -->
      <g transform="translate(7.673437 539.161572)scale(0.1 -0.1)">
       <use xlink:href="#DejaVuSans-74"/>
       <use x="29.492188" xlink:href="#DejaVuSans-49"/>
       <use x="93.115234" xlink:href="#DejaVuSans-50"/>
       <use x="156.738281" xlink:href="#DejaVuSans-45"/>
       <use x="192.822266" xlink:href="#DejaVuSans-85"/>
       <use x="266.015625" xlink:href="#DejaVuSans-49"/>
       <use x="329.638672" xlink:href="#DejaVuSans-49"/>
      </g>
     </g>
    </g>
    <g id="ytick_13">
     <g id="line2d_19">
      <g>
       <use style="stroke:#000000;stroke-width:0.8;" x="54" xlink:href="#mb45a8cafa0" y="516.176471"/>
      </g>
     </g>
     <g id="text_19">
      <!-- J17-U01 -->
      <g transform="translate(7.673437 519.975689)scale(0.1 -0.1)">
       <use xlink:href="#DejaVuSans-74"/>
       <use x="29.492188" xlink:href="#DejaVuSans-49"/>
       <use x="93.115234" xlink:href="#DejaVuSans-55"/>
       <use x="156.738281" xlink:href="#DejaVuSans-45"/>
       <use x="192.822266" xlink:href="#DejaVuSans-85"/>
       <use x="266.015625" xlink:href="#DejaVuSans-48"/>
       <use x="329.638672" xlink:href="#DejaVuSans-49"/>
      </g>
     </g>
    </g>
    <g id="ytick_14">
     <g id="line2d_20">
      <g>
       <use style="stroke:#000000;stroke-width:0.8;" x="54" xlink:href="#mb45a8cafa0" y="496.990588"/>
      </g>
     </g>
     <g id="text_20">
      <!-- J15-U01 -->
      <g transform="translate(7.673437 500.789807)scale(0.1 -0.1)">
       <use xlink:href="#DejaVuSans-74"/>
       <use x="29.492188" xlink:href="#DejaVuSans-49"/>
       <use x="93.115234" xlink:href="#DejaVuSans-53"/>
       <use x="156.738281" xlink:href="#DejaVuSans-45"/>
       <use x="192.822266" xlink:href="#DejaVuSans-85"/>
       <use x="266.015625" xlink:href="#DejaVuSans-48"/>
       <use x="329.638672" xlink:href="#DejaVuSans-49"/>
      </g>
     </g>
    </g>
    <g id="ytick_15">
     <g id="line2d_21">
      <g>
       <use style="stroke:#000000;stroke-width:0.8;" x="54" xlink:href="#mb45a8cafa0" y="477.804706"/>
      </g>
     </g>
     <g id="text_21">
      <!-- J13-U01 -->
      <g transform="translate(7.673437 481.603925)scale(0.1 -0.1)">
       <use xlink:href="#DejaVuSans-74"/>
       <use x="29.492188" xlink:href="#DejaVuSans-49"/>
       <use x="93.115234" xlink:href="#DejaVuSans-51"/>
       <use x="156.738281" xlink:href="#DejaVuSans-45"/>
       <use x="192.822266" xlink:href="#DejaVuSans-85"/>
       <use x="266.015625" xlink:href="#DejaVuSans-48"/>
       <use x="329.638672" xlink:href="#DejaVuSans-49"/>
      </g>
     </g>
    </g>
    <g id="ytick_16">
     <g id="line2d_22">
      <g>
       <use style="stroke:#000000;stroke-width:0.8;" x="54" xlink:href="#mb45a8cafa0" y="458.618824"/>
      </g>
     </g>
     <g id="text_22">
      <!-- J04-U01 -->
      <g transform="translate(7.673437 462.418042)scale(0.1 -0.1)">
       <use xlink:href="#DejaVuSans-74"/>
       <use x="29.492188" xlink:href="#DejaVuSans-48"/>
       <use x="93.115234" xlink:href="#DejaVuSans-52"/>
       <use x="156.738281" xlink:href="#DejaVuSans-45"/>
       <use x="192.822266" xlink:href="#DejaVuSans-85"/>
       <use x="266.015625" xlink:href="#DejaVuSans-48"/>
       <use x="329.638672" xlink:href="#DejaVuSans-49"/>
      </g>
     </g>
    </g>
    <g id="ytick_17">
     <g id="line2d_23">
      <g>
       <use style="stroke:#000000;stroke-width:0.8;" x="54" xlink:href="#mb45a8cafa0" y="439.432941"/>
      </g>
     </g>
     <g id="text_23">
      <!-- J05-U11 -->
      <g transform="translate(7.673437 443.23216)scale(0.1 -0.1)">
       <use xlink:href="#DejaVuSans-74"/>
       <use x="29.492188" xlink:href="#DejaVuSans-48"/>
       <use x="93.115234" xlink:href="#DejaVuSans-53"/>
       <use x="156.738281" xlink:href="#DejaVuSans-45"/>
       <use x="192.822266" xlink:href="#DejaVuSans-85"/>
       <use x="266.015625" xlink:href="#DejaVuSans-49"/>
       <use x="329.638672" xlink:href="#DejaVuSans-49"/>
      </g>
     </g>
    </g>
    <g id="ytick_18">
     <g id="line2d_24">
      <g>
       <use style="stroke:#000000;stroke-width:0.8;" x="54" xlink:href="#mb45a8cafa0" y="420.247059"/>
      </g>
     </g>
     <g id="text_24">
      <!-- J11-U01 -->
      <g transform="translate(7.673437 424.046278)scale(0.1 -0.1)">
       <use xlink:href="#DejaVuSans-74"/>
       <use x="29.492188" xlink:href="#DejaVuSans-49"/>
       <use x="93.115234" xlink:href="#DejaVuSans-49"/>
       <use x="156.738281" xlink:href="#DejaVuSans-45"/>
       <use x="192.822266" xlink:href="#DejaVuSans-85"/>
       <use x="266.015625" xlink:href="#DejaVuSans-48"/>
       <use x="329.638672" xlink:href="#DejaVuSans-49"/>
      </g>
     </g>
    </g>
    <g id="ytick_19">
     <g id="line2d_25">
      <g>
       <use style="stroke:#000000;stroke-width:0.8;" x="54" xlink:href="#mb45a8cafa0" y="401.061176"/>
      </g>
     </g>
     <g id="text_25">
      <!-- J03-U01 -->
      <g transform="translate(7.673437 404.860395)scale(0.1 -0.1)">
       <use xlink:href="#DejaVuSans-74"/>
       <use x="29.492188" xlink:href="#DejaVuSans-48"/>
       <use x="93.115234" xlink:href="#DejaVuSans-51"/>
       <use x="156.738281" xlink:href="#DejaVuSans-45"/>
       <use x="192.822266" xlink:href="#DejaVuSans-85"/>
       <use x="266.015625" xlink:href="#DejaVuSans-48"/>
       <use x="329.638672" xlink:href="#DejaVuSans-49"/>
      </g>
     </g>
    </g>
    <g id="ytick_20">
     <g id="line2d_26">
      <g>
       <use style="stroke:#000000;stroke-width:0.8;" x="54" xlink:href="#mb45a8cafa0" y="381.875294"/>
      </g>
     </g>
     <g id="text_26">
      <!-- J08-U01 -->
      <g transform="translate(7.673437 385.674513)scale(0.1 -0.1)">
       <use xlink:href="#DejaVuSans-74"/>
       <use x="29.492188" xlink:href="#DejaVuSans-48"/>
       <use x="93.115234" xlink:href="#DejaVuSans-56"/>
       <use x="156.738281" xlink:href="#DejaVuSans-45"/>
       <use x="192.822266" xlink:href="#DejaVuSans-85"/>
       <use x="266.015625" xlink:href="#DejaVuSans-48"/>
       <use x="329.638672" xlink:href="#DejaVuSans-49"/>
      </g>
     </g>
    </g>
    <g id="ytick_21">
     <g id="line2d_27">
      <g>
       <use style="stroke:#000000;stroke-width:0.8;" x="54" xlink:href="#mb45a8cafa0" y="362.689412"/>
      </g>
     </g>
     <g id="text_27">
      <!-- J09-U11 -->
      <g transform="translate(7.673437 366.488631)scale(0.1 -0.1)">
       <defs>
        <path d="M 10.984375 1.515625 
L 10.984375 10.5 
Q 14.703125 8.734375 18.5 7.8125 
Q 22.3125 6.890625 25.984375 6.890625 
Q 35.75 6.890625 40.890625 13.453125 
Q 46.046875 20.015625 46.78125 33.40625 
Q 43.953125 29.203125 39.59375 26.953125 
Q 35.25 24.703125 29.984375 24.703125 
Q 19.046875 24.703125 12.671875 31.3125 
Q 6.296875 37.9375 6.296875 49.421875 
Q 6.296875 60.640625 12.9375 67.421875 
Q 19.578125 74.21875 30.609375 74.21875 
Q 43.265625 74.21875 49.921875 64.515625 
Q 56.59375 54.828125 56.59375 36.375 
Q 56.59375 19.140625 48.40625 8.859375 
Q 40.234375 -1.421875 26.421875 -1.421875 
Q 22.703125 -1.421875 18.890625 -0.6875 
Q 15.09375 0.046875 10.984375 1.515625 
z
M 30.609375 32.421875 
Q 37.25 32.421875 41.125 36.953125 
Q 45.015625 41.5 45.015625 49.421875 
Q 45.015625 57.28125 41.125 61.84375 
Q 37.25 66.40625 30.609375 66.40625 
Q 23.96875 66.40625 20.09375 61.84375 
Q 16.21875 57.28125 16.21875 49.421875 
Q 16.21875 41.5 20.09375 36.953125 
Q 23.96875 32.421875 30.609375 32.421875 
z
" id="DejaVuSans-57"/>
       </defs>
       <use xlink:href="#DejaVuSans-74"/>
       <use x="29.492188" xlink:href="#DejaVuSans-48"/>
       <use x="93.115234" xlink:href="#DejaVuSans-57"/>
       <use x="156.738281" xlink:href="#DejaVuSans-45"/>
       <use x="192.822266" xlink:href="#DejaVuSans-85"/>
       <use x="266.015625" xlink:href="#DejaVuSans-49"/>
       <use x="329.638672" xlink:href="#DejaVuSans-49"/>
      </g>
     </g>
    </g>
    <g id="ytick_22">
     <g id="line2d_28">
      <g>
       <use style="stroke:#000000;stroke-width:0.8;" x="54" xlink:href="#mb45a8cafa0" y="343.503529"/>
      </g>
     </g>
     <g id="text_28">
      <!-- J16-U01 -->
      <g transform="translate(7.673437 347.302748)scale(0.1 -0.1)">
       <use xlink:href="#DejaVuSans-74"/>
       <use x="29.492188" xlink:href="#DejaVuSans-49"/>
       <use x="93.115234" xlink:href="#DejaVuSans-54"/>
       <use x="156.738281" xlink:href="#DejaVuSans-45"/>
       <use x="192.822266" xlink:href="#DejaVuSans-85"/>
       <use x="266.015625" xlink:href="#DejaVuSans-48"/>
       <use x="329.638672" xlink:href="#DejaVuSans-49"/>
      </g>
     </g>
    </g>
    <g id="ytick_23">
     <g id="line2d_29">
      <g>
       <use style="stroke:#000000;stroke-width:0.8;" x="54" xlink:href="#mb45a8cafa0" y="324.317647"/>
      </g>
     </g>
     <g id="text_29">
      <!-- J09-U01 -->
      <g transform="translate(7.673437 328.116866)scale(0.1 -0.1)">
       <use xlink:href="#DejaVuSans-74"/>
       <use x="29.492188" xlink:href="#DejaVuSans-48"/>
       <use x="93.115234" xlink:href="#DejaVuSans-57"/>
       <use x="156.738281" xlink:href="#DejaVuSans-45"/>
       <use x="192.822266" xlink:href="#DejaVuSans-85"/>
       <use x="266.015625" xlink:href="#DejaVuSans-48"/>
       <use x="329.638672" xlink:href="#DejaVuSans-49"/>
      </g>
     </g>
    </g>
    <g id="ytick_24">
     <g id="line2d_30">
      <g>
       <use style="stroke:#000000;stroke-width:0.8;" x="54" xlink:href="#mb45a8cafa0" y="305.131765"/>
      </g>
     </g>
     <g id="text_30">
      <!-- J17-U11 -->
      <g transform="translate(7.673437 308.930983)scale(0.1 -0.1)">
       <use xlink:href="#DejaVuSans-74"/>
       <use x="29.492188" xlink:href="#DejaVuSans-49"/>
       <use x="93.115234" xlink:href="#DejaVuSans-55"/>
       <use x="156.738281" xlink:href="#DejaVuSans-45"/>
       <use x="192.822266" xlink:href="#DejaVuSans-85"/>
       <use x="266.015625" xlink:href="#DejaVuSans-49"/>
       <use x="329.638672" xlink:href="#DejaVuSans-49"/>
      </g>
     </g>
    </g>
    <g id="ytick_25">
     <g id="line2d_31">
      <g>
       <use style="stroke:#000000;stroke-width:0.8;" x="54" xlink:href="#mb45a8cafa0" y="285.945882"/>
      </g>
     </g>
     <g id="text_31">
      <!-- J11-U11 -->
      <g transform="translate(7.673437 289.745101)scale(0.1 -0.1)">
       <use xlink:href="#DejaVuSans-74"/>
       <use x="29.492188" xlink:href="#DejaVuSans-49"/>
       <use x="93.115234" xlink:href="#DejaVuSans-49"/>
       <use x="156.738281" xlink:href="#DejaVuSans-45"/>
       <use x="192.822266" xlink:href="#DejaVuSans-85"/>
       <use x="266.015625" xlink:href="#DejaVuSans-49"/>
       <use x="329.638672" xlink:href="#DejaVuSans-49"/>
      </g>
     </g>
    </g>
    <g id="ytick_26">
     <g id="line2d_32">
      <g>
       <use style="stroke:#000000;stroke-width:0.8;" x="54" xlink:href="#mb45a8cafa0" y="266.76"/>
      </g>
     </g>
     <g id="text_32">
      <!-- J06-U11 -->
      <g transform="translate(7.673437 270.559219)scale(0.1 -0.1)">
       <use xlink:href="#DejaVuSans-74"/>
       <use x="29.492188" xlink:href="#DejaVuSans-48"/>
       <use x="93.115234" xlink:href="#DejaVuSans-54"/>
       <use x="156.738281" xlink:href="#DejaVuSans-45"/>
       <use x="192.822266" xlink:href="#DejaVuSans-85"/>
       <use x="266.015625" xlink:href="#DejaVuSans-49"/>
       <use x="329.638672" xlink:href="#DejaVuSans-49"/>
      </g>
     </g>
    </g>
    <g id="ytick_27">
     <g id="line2d_33">
      <g>
       <use style="stroke:#000000;stroke-width:0.8;" x="54" xlink:href="#mb45a8cafa0" y="247.574118"/>
      </g>
     </g>
     <g id="text_33">
      <!-- J16-U11 -->
      <g transform="translate(7.673437 251.373336)scale(0.1 -0.1)">
       <use xlink:href="#DejaVuSans-74"/>
       <use x="29.492188" xlink:href="#DejaVuSans-49"/>
       <use x="93.115234" xlink:href="#DejaVuSans-54"/>
       <use x="156.738281" xlink:href="#DejaVuSans-45"/>
       <use x="192.822266" xlink:href="#DejaVuSans-85"/>
       <use x="266.015625" xlink:href="#DejaVuSans-49"/>
       <use x="329.638672" xlink:href="#DejaVuSans-49"/>
      </g>
     </g>
    </g>
    <g id="ytick_28">
     <g id="line2d_34">
      <g>
       <use style="stroke:#000000;stroke-width:0.8;" x="54" xlink:href="#mb45a8cafa0" y="228.388235"/>
      </g>
     </g>
     <g id="text_34">
      <!-- J03-U11 -->
      <g transform="translate(7.673437 232.187454)scale(0.1 -0.1)">
       <use xlink:href="#DejaVuSans-74"/>
       <use x="29.492188" xlink:href="#DejaVuSans-48"/>
       <use x="93.115234" xlink:href="#DejaVuSans-51"/>
       <use x="156.738281" xlink:href="#DejaVuSans-45"/>
       <use x="192.822266" xlink:href="#DejaVuSans-85"/>
       <use x="266.015625" xlink:href="#DejaVuSans-49"/>
       <use x="329.638672" xlink:href="#DejaVuSans-49"/>
      </g>
     </g>
    </g>
    <g id="ytick_29">
     <g id="line2d_35">
      <g>
       <use style="stroke:#000000;stroke-width:0.8;" x="54" xlink:href="#mb45a8cafa0" y="209.202353"/>
      </g>
     </g>
     <g id="text_35">
      <!-- J10-U11 -->
      <g transform="translate(7.673437 213.001572)scale(0.1 -0.1)">
       <use xlink:href="#DejaVuSans-74"/>
       <use x="29.492188" xlink:href="#DejaVuSans-49"/>
       <use x="93.115234" xlink:href="#DejaVuSans-48"/>
       <use x="156.738281" xlink:href="#DejaVuSans-45"/>
       <use x="192.822266" xlink:href="#DejaVuSans-85"/>
       <use x="266.015625" xlink:href="#DejaVuSans-49"/>
       <use x="329.638672" xlink:href="#DejaVuSans-49"/>
      </g>
     </g>
    </g>
    <g id="ytick_30">
     <g id="line2d_36">
      <g>
       <use style="stroke:#000000;stroke-width:0.8;" x="54" xlink:href="#mb45a8cafa0" y="190.016471"/>
      </g>
     </g>
     <g id="text_36">
      <!-- J07-U01 -->
      <g transform="translate(7.673437 193.815689)scale(0.1 -0.1)">
       <use xlink:href="#DejaVuSans-74"/>
       <use x="29.492188" xlink:href="#DejaVuSans-48"/>
       <use x="93.115234" xlink:href="#DejaVuSans-55"/>
       <use x="156.738281" xlink:href="#DejaVuSans-45"/>
       <use x="192.822266" xlink:href="#DejaVuSans-85"/>
       <use x="266.015625" xlink:href="#DejaVuSans-48"/>
       <use x="329.638672" xlink:href="#DejaVuSans-49"/>
      </g>
     </g>
    </g>
    <g id="ytick_31">
     <g id="line2d_37">
      <g>
       <use style="stroke:#000000;stroke-width:0.8;" x="54" xlink:href="#mb45a8cafa0" y="170.830588"/>
      </g>
     </g>
     <g id="text_37">
      <!-- J12-U01 -->
      <g transform="translate(7.673437 174.629807)scale(0.1 -0.1)">
       <use xlink:href="#DejaVuSans-74"/>
       <use x="29.492188" xlink:href="#DejaVuSans-49"/>
       <use x="93.115234" xlink:href="#DejaVuSans-50"/>
       <use x="156.738281" xlink:href="#DejaVuSans-45"/>
       <use x="192.822266" xlink:href="#DejaVuSans-85"/>
       <use x="266.015625" xlink:href="#DejaVuSans-48"/>
       <use x="329.638672" xlink:href="#DejaVuSans-49"/>
      </g>
     </g>
    </g>
    <g id="ytick_32">
     <g id="line2d_38">
      <g>
       <use style="stroke:#000000;stroke-width:0.8;" x="54" xlink:href="#mb45a8cafa0" y="151.644706"/>
      </g>
     </g>
     <g id="text_38">
      <!-- J14-U01 -->
      <g transform="translate(7.673437 155.443925)scale(0.1 -0.1)">
       <use xlink:href="#DejaVuSans-74"/>
       <use x="29.492188" xlink:href="#DejaVuSans-49"/>
       <use x="93.115234" xlink:href="#DejaVuSans-52"/>
       <use x="156.738281" xlink:href="#DejaVuSans-45"/>
       <use x="192.822266" xlink:href="#DejaVuSans-85"/>
       <use x="266.015625" xlink:href="#DejaVuSans-48"/>
       <use x="329.638672" xlink:href="#DejaVuSans-49"/>
      </g>
     </g>
    </g>
    <g id="ytick_33">
     <g id="line2d_39">
      <g>
       <use style="stroke:#000000;stroke-width:0.8;" x="54" xlink:href="#mb45a8cafa0" y="132.458824"/>
      </g>
     </g>
     <g id="text_39">
      <!-- J18-U01 -->
      <g transform="translate(7.673437 136.258042)scale(0.1 -0.1)">
       <use xlink:href="#DejaVuSans-74"/>
       <use x="29.492188" xlink:href="#DejaVuSans-49"/>
       <use x="93.115234" xlink:href="#DejaVuSans-56"/>
       <use x="156.738281" xlink:href="#DejaVuSans-45"/>
       <use x="192.822266" xlink:href="#DejaVuSans-85"/>
       <use x="266.015625" xlink:href="#DejaVuSans-48"/>
       <use x="329.638672" xlink:href="#DejaVuSans-49"/>
      </g>
     </g>
    </g>
    <g id="ytick_34">
     <g id="line2d_40">
      <g>
       <use style="stroke:#000000;stroke-width:0.8;" x="54" xlink:href="#mb45a8cafa0" y="113.272941"/>
      </g>
     </g>
     <g id="text_40">
      <!-- J18-U11 -->
      <g transform="translate(7.673437 117.07216)scale(0.1 -0.1)">
       <use xlink:href="#DejaVuSans-74"/>
       <use x="29.492188" xlink:href="#DejaVuSans-49"/>
       <use x="93.115234" xlink:href="#DejaVuSans-56"/>
       <use x="156.738281" xlink:href="#DejaVuSans-45"/>
       <use x="192.822266" xlink:href="#DejaVuSans-85"/>
       <use x="266.015625" xlink:href="#DejaVuSans-49"/>
       <use x="329.638672" xlink:href="#DejaVuSans-49"/>
      </g>
     </g>
    </g>
    <g id="text_41">
     <!-- Card -->
     <g transform="translate(1.59375 441.537656)rotate(-90)scale(0.1 -0.1)">
      <defs>
       <path d="M 64.40625 67.28125 
L 64.40625 56.890625 
Q 59.421875 61.53125 53.78125 63.8125 
Q 48.140625 66.109375 41.796875 66.109375 
Q 29.296875 66.109375 22.65625 58.46875 
Q 16.015625 50.828125 16.015625 36.375 
Q 16.015625 21.96875 22.65625 14.328125 
Q 29.296875 6.6875 41.796875 6.6875 
Q 48.140625 6.6875 53.78125 8.984375 
Q 59.421875 11.28125 64.40625 15.921875 
L 64.40625 5.609375 
Q 59.234375 2.09375 53.4375 0.328125 
Q 47.65625 -1.421875 41.21875 -1.421875 
Q 24.65625 -1.421875 15.125 8.703125 
Q 5.609375 18.84375 5.609375 36.375 
Q 5.609375 53.953125 15.125 64.078125 
Q 24.65625 74.21875 41.21875 74.21875 
Q 47.75 74.21875 53.53125 72.484375 
Q 59.328125 70.75 64.40625 67.28125 
z
" id="DejaVuSans-67"/>
       <path d="M 34.28125 27.484375 
Q 23.390625 27.484375 19.1875 25 
Q 14.984375 22.515625 14.984375 16.5 
Q 14.984375 11.71875 18.140625 8.90625 
Q 21.296875 6.109375 26.703125 6.109375 
Q 34.1875 6.109375 38.703125 11.40625 
Q 43.21875 16.703125 43.21875 25.484375 
L 43.21875 27.484375 
z
M 52.203125 31.203125 
L 52.203125 0 
L 43.21875 0 
L 43.21875 8.296875 
Q 40.140625 3.328125 35.546875 0.953125 
Q 30.953125 -1.421875 24.3125 -1.421875 
Q 15.921875 -1.421875 10.953125 3.296875 
Q 6 8.015625 6 15.921875 
Q 6 25.140625 12.171875 29.828125 
Q 18.359375 34.515625 30.609375 34.515625 
L 43.21875 34.515625 
L 43.21875 35.40625 
Q 43.21875 41.609375 39.140625 45 
Q 35.0625 48.390625 27.6875 48.390625 
Q 23 48.390625 18.546875 47.265625 
Q 14.109375 46.140625 10.015625 43.890625 
L 10.015625 52.203125 
Q 14.9375 54.109375 19.578125 55.046875 
Q 24.21875 56 28.609375 56 
Q 40.484375 56 46.34375 49.84375 
Q 52.203125 43.703125 52.203125 31.203125 
z
" id="DejaVuSans-97"/>
       <path d="M 41.109375 46.296875 
Q 39.59375 47.171875 37.8125 47.578125 
Q 36.03125 48 33.890625 48 
Q 26.265625 48 22.1875 43.046875 
Q 18.109375 38.09375 18.109375 28.8125 
L 18.109375 0 
L 9.078125 0 
L 9.078125 54.6875 
L 18.109375 54.6875 
L 18.109375 46.1875 
Q 20.953125 51.171875 25.484375 53.578125 
Q 30.03125 56 36.53125 56 
Q 37.453125 56 38.578125 55.875 
Q 39.703125 55.765625 41.0625 55.515625 
z
" id="DejaVuSans-114"/>
       <path d="M 45.40625 46.390625 
L 45.40625 75.984375 
L 54.390625 75.984375 
L 54.390625 0 
L 45.40625 0 
L 45.40625 8.203125 
Q 42.578125 3.328125 38.25 0.953125 
Q 33.9375 -1.421875 27.875 -1.421875 
Q 17.96875 -1.421875 11.734375 6.484375 
Q 5.515625 14.40625 5.515625 27.296875 
Q 5.515625 40.1875 11.734375 48.09375 
Q 17.96875 56 27.875 56 
Q 33.9375 56 38.25 53.625 
Q 42.578125 51.265625 45.40625 46.390625 
z
M 14.796875 27.296875 
Q 14.796875 17.390625 18.875 11.75 
Q 22.953125 6.109375 30.078125 6.109375 
Q 37.203125 6.109375 41.296875 11.75 
Q 45.40625 17.390625 45.40625 27.296875 
Q 45.40625 37.203125 41.296875 42.84375 
Q 37.203125 48.484375 30.078125 48.484375 
Q 22.953125 48.484375 18.875 42.84375 
Q 14.796875 37.203125 14.796875 27.296875 
z
" id="DejaVuSans-100"/>
      </defs>
      <use xlink:href="#DejaVuSans-67"/>
      <use x="69.824219" xlink:href="#DejaVuSans-97"/>
      <use x="131.103516" xlink:href="#DejaVuSans-114"/>
      <use x="170.466797" xlink:href="#DejaVuSans-100"/>
     </g>
    </g>
   </g>
   <g id="patch_37">
    <path d="M 54 756 
L 54 103.68 
" style="fill:none;stroke:#000000;stroke-linecap:square;stroke-linejoin:miter;stroke-width:0.8;"/>
   </g>
   <g id="patch_38">
    <path d="M 388.8 756 
L 388.8 103.68 
" style="fill:none;stroke:#000000;stroke-linecap:square;stroke-linejoin:miter;stroke-width:0.8;"/>
   </g>
   <g id="patch_39">
    <path d="M 54 756 
L 388.8 756 
" style="fill:none;stroke:#000000;stroke-linecap:square;stroke-linejoin:miter;stroke-width:0.8;"/>
   </g>
   <g id="patch_40">
    <path d="M 54 103.68 
L 388.8 103.68 
" style="fill:none;stroke:#000000;stroke-linecap:square;stroke-linejoin:miter;stroke-width:0.8;"/>
   </g>
  </g>
 </g>
 <defs>
  <clipPath id="pc1ccbb5665">
   <rect height="652.32" width="334.8" x="54" y="103.68"/>
  </clipPath>
 </defs>
</svg>
