<?xml version="1.0" encoding="utf-8" standalone="no"?>
<!DOCTYPE svg PUBLIC "-//W3C//DTD SVG 1.1//EN"
  "http://www.w3.org/Graphics/SVG/1.1/DTD/svg11.dtd">
<!-- Created with matplotlib (https://matplotlib.org/) -->
<svg height="432pt" version="1.1" viewBox="0 0 864 432" width="864pt" xmlns="http://www.w3.org/2000/svg" xmlns:xlink="http://www.w3.org/1999/xlink">
 <metadata>
  <rdf:RDF xmlns:cc="http://creativecommons.org/ns#" xmlns:dc="http://purl.org/dc/elements/1.1/" xmlns:rdf="http://www.w3.org/1999/02/22-rdf-syntax-ns#">
   <cc:Work>
    <dc:type rdf:resource="http://purl.org/dc/dcmitype/StillImage"/>
    <dc:date>2021-01-06T17:19:41.665525</dc:date>
    <dc:format>image/svg+xml</dc:format>
    <dc:creator>
     <cc:Agent>
      <dc:title>Matplotlib v3.3.3, https://matplotlib.org/</dc:title>
     </cc:Agent>
    </dc:creator>
   </cc:Work>
  </rdf:RDF>
 </metadata>
 <defs>
  <style type="text/css">*{stroke-linecap:butt;stroke-linejoin:round;}</style>
 </defs>
 <g id="figure_1">
  <g id="patch_1">
   <path d="M 0 432 
L 864 432 
L 864 0 
L 0 0 
z
" style="fill:none;"/>
  </g>
  <g id="axes_1">
   <g id="patch_2">
    <path d="M 108 378 
L 777.6 378 
L 777.6 51.84 
L 108 51.84 
z
" style="fill:#ffffff;"/>
   </g>
   <g id="matplotlib.axis_1">
    <g id="xtick_1">
     <g id="line2d_1">
      <path clip-path="url(#pe52435e408)" d="M 136.788339 378 
L 136.788339 51.84 
" style="fill:none;stroke:#b0b0b0;stroke-linecap:square;stroke-width:0.8;"/>
     </g>
     <g id="line2d_2">
      <defs>
       <path d="M 0 0 
L 0 3.5 
" id="mee51fbb9ed" style="stroke:#000000;stroke-width:0.8;"/>
      </defs>
      <g>
       <use style="stroke:#000000;stroke-width:0.8;" x="136.788339" xlink:href="#mee51fbb9ed" y="378"/>
      </g>
     </g>
     <g id="text_1">
      <!-- 0 -->
      <g transform="translate(133.607089 392.598437)scale(0.1 -0.1)">
       <defs>
        <path d="M 31.78125 66.40625 
Q 24.171875 66.40625 20.328125 58.90625 
Q 16.5 51.421875 16.5 36.375 
Q 16.5 21.390625 20.328125 13.890625 
Q 24.171875 6.390625 31.78125 6.390625 
Q 39.453125 6.390625 43.28125 13.890625 
Q 47.125 21.390625 47.125 36.375 
Q 47.125 51.421875 43.28125 58.90625 
Q 39.453125 66.40625 31.78125 66.40625 
z
M 31.78125 74.21875 
Q 44.046875 74.21875 50.515625 64.515625 
Q 56.984375 54.828125 56.984375 36.375 
Q 56.984375 17.96875 50.515625 8.265625 
Q 44.046875 -1.421875 31.78125 -1.421875 
Q 19.53125 -1.421875 13.0625 8.265625 
Q 6.59375 17.96875 6.59375 36.375 
Q 6.59375 54.828125 13.0625 64.515625 
Q 19.53125 74.21875 31.78125 74.21875 
z
" id="DejaVuSans-48"/>
       </defs>
       <use xlink:href="#DejaVuSans-48"/>
      </g>
     </g>
    </g>
    <g id="xtick_2">
     <g id="line2d_3">
      <path clip-path="url(#pe52435e408)" d="M 218.698119 378 
L 218.698119 51.84 
" style="fill:none;stroke:#b0b0b0;stroke-linecap:square;stroke-width:0.8;"/>
     </g>
     <g id="line2d_4">
      <g>
       <use style="stroke:#000000;stroke-width:0.8;" x="218.698119" xlink:href="#mee51fbb9ed" y="378"/>
      </g>
     </g>
     <g id="text_2">
      <!-- 25000 -->
      <g transform="translate(202.791869 392.598437)scale(0.1 -0.1)">
       <defs>
        <path d="M 19.1875 8.296875 
L 53.609375 8.296875 
L 53.609375 0 
L 7.328125 0 
L 7.328125 8.296875 
Q 12.9375 14.109375 22.625 23.890625 
Q 32.328125 33.6875 34.8125 36.53125 
Q 39.546875 41.84375 41.421875 45.53125 
Q 43.3125 49.21875 43.3125 52.78125 
Q 43.3125 58.59375 39.234375 62.25 
Q 35.15625 65.921875 28.609375 65.921875 
Q 23.96875 65.921875 18.8125 64.3125 
Q 13.671875 62.703125 7.8125 59.421875 
L 7.8125 69.390625 
Q 13.765625 71.78125 18.9375 73 
Q 24.125 74.21875 28.421875 74.21875 
Q 39.75 74.21875 46.484375 68.546875 
Q 53.21875 62.890625 53.21875 53.421875 
Q 53.21875 48.921875 51.53125 44.890625 
Q 49.859375 40.875 45.40625 35.40625 
Q 44.1875 33.984375 37.640625 27.21875 
Q 31.109375 20.453125 19.1875 8.296875 
z
" id="DejaVuSans-50"/>
        <path d="M 10.796875 72.90625 
L 49.515625 72.90625 
L 49.515625 64.59375 
L 19.828125 64.59375 
L 19.828125 46.734375 
Q 21.96875 47.46875 24.109375 47.828125 
Q 26.265625 48.1875 28.421875 48.1875 
Q 40.625 48.1875 47.75 41.5 
Q 54.890625 34.8125 54.890625 23.390625 
Q 54.890625 11.625 47.5625 5.09375 
Q 40.234375 -1.421875 26.90625 -1.421875 
Q 22.3125 -1.421875 17.546875 -0.640625 
Q 12.796875 0.140625 7.71875 1.703125 
L 7.71875 11.625 
Q 12.109375 9.234375 16.796875 8.0625 
Q 21.484375 6.890625 26.703125 6.890625 
Q 35.15625 6.890625 40.078125 11.328125 
Q 45.015625 15.765625 45.015625 23.390625 
Q 45.015625 31 40.078125 35.4375 
Q 35.15625 39.890625 26.703125 39.890625 
Q 22.75 39.890625 18.8125 39.015625 
Q 14.890625 38.140625 10.796875 36.28125 
z
" id="DejaVuSans-53"/>
       </defs>
       <use xlink:href="#DejaVuSans-50"/>
       <use x="63.623047" xlink:href="#DejaVuSans-53"/>
       <use x="127.246094" xlink:href="#DejaVuSans-48"/>
       <use x="190.869141" xlink:href="#DejaVuSans-48"/>
       <use x="254.492188" xlink:href="#DejaVuSans-48"/>
      </g>
     </g>
    </g>
    <g id="xtick_3">
     <g id="line2d_5">
      <path clip-path="url(#pe52435e408)" d="M 300.607899 378 
L 300.607899 51.84 
" style="fill:none;stroke:#b0b0b0;stroke-linecap:square;stroke-width:0.8;"/>
     </g>
     <g id="line2d_6">
      <g>
       <use style="stroke:#000000;stroke-width:0.8;" x="300.607899" xlink:href="#mee51fbb9ed" y="378"/>
      </g>
     </g>
     <g id="text_3">
      <!-- 50000 -->
      <g transform="translate(284.701649 392.598437)scale(0.1 -0.1)">
       <use xlink:href="#DejaVuSans-53"/>
       <use x="63.623047" xlink:href="#DejaVuSans-48"/>
       <use x="127.246094" xlink:href="#DejaVuSans-48"/>
       <use x="190.869141" xlink:href="#DejaVuSans-48"/>
       <use x="254.492188" xlink:href="#DejaVuSans-48"/>
      </g>
     </g>
    </g>
    <g id="xtick_4">
     <g id="line2d_7">
      <path clip-path="url(#pe52435e408)" d="M 382.517678 378 
L 382.517678 51.84 
" style="fill:none;stroke:#b0b0b0;stroke-linecap:square;stroke-width:0.8;"/>
     </g>
     <g id="line2d_8">
      <g>
       <use style="stroke:#000000;stroke-width:0.8;" x="382.517678" xlink:href="#mee51fbb9ed" y="378"/>
      </g>
     </g>
     <g id="text_4">
      <!-- 75000 -->
      <g transform="translate(366.611428 392.598437)scale(0.1 -0.1)">
       <defs>
        <path d="M 8.203125 72.90625 
L 55.078125 72.90625 
L 55.078125 68.703125 
L 28.609375 0 
L 18.3125 0 
L 43.21875 64.59375 
L 8.203125 64.59375 
z
" id="DejaVuSans-55"/>
       </defs>
       <use xlink:href="#DejaVuSans-55"/>
       <use x="63.623047" xlink:href="#DejaVuSans-53"/>
       <use x="127.246094" xlink:href="#DejaVuSans-48"/>
       <use x="190.869141" xlink:href="#DejaVuSans-48"/>
       <use x="254.492188" xlink:href="#DejaVuSans-48"/>
      </g>
     </g>
    </g>
    <g id="xtick_5">
     <g id="line2d_9">
      <path clip-path="url(#pe52435e408)" d="M 464.427458 378 
L 464.427458 51.84 
" style="fill:none;stroke:#b0b0b0;stroke-linecap:square;stroke-width:0.8;"/>
     </g>
     <g id="line2d_10">
      <g>
       <use style="stroke:#000000;stroke-width:0.8;" x="464.427458" xlink:href="#mee51fbb9ed" y="378"/>
      </g>
     </g>
     <g id="text_5">
      <!-- 100000 -->
      <g transform="translate(445.339958 392.598437)scale(0.1 -0.1)">
       <defs>
        <path d="M 12.40625 8.296875 
L 28.515625 8.296875 
L 28.515625 63.921875 
L 10.984375 60.40625 
L 10.984375 69.390625 
L 28.421875 72.90625 
L 38.28125 72.90625 
L 38.28125 8.296875 
L 54.390625 8.296875 
L 54.390625 0 
L 12.40625 0 
z
" id="DejaVuSans-49"/>
       </defs>
       <use xlink:href="#DejaVuSans-49"/>
       <use x="63.623047" xlink:href="#DejaVuSans-48"/>
       <use x="127.246094" xlink:href="#DejaVuSans-48"/>
       <use x="190.869141" xlink:href="#DejaVuSans-48"/>
       <use x="254.492188" xlink:href="#DejaVuSans-48"/>
       <use x="318.115234" xlink:href="#DejaVuSans-48"/>
      </g>
     </g>
    </g>
    <g id="xtick_6">
     <g id="line2d_11">
      <path clip-path="url(#pe52435e408)" d="M 546.337238 378 
L 546.337238 51.84 
" style="fill:none;stroke:#b0b0b0;stroke-linecap:square;stroke-width:0.8;"/>
     </g>
     <g id="line2d_12">
      <g>
       <use style="stroke:#000000;stroke-width:0.8;" x="546.337238" xlink:href="#mee51fbb9ed" y="378"/>
      </g>
     </g>
     <g id="text_6">
      <!-- 125000 -->
      <g transform="translate(527.249738 392.598437)scale(0.1 -0.1)">
       <use xlink:href="#DejaVuSans-49"/>
       <use x="63.623047" xlink:href="#DejaVuSans-50"/>
       <use x="127.246094" xlink:href="#DejaVuSans-53"/>
       <use x="190.869141" xlink:href="#DejaVuSans-48"/>
       <use x="254.492188" xlink:href="#DejaVuSans-48"/>
       <use x="318.115234" xlink:href="#DejaVuSans-48"/>
      </g>
     </g>
    </g>
    <g id="xtick_7">
     <g id="line2d_13">
      <path clip-path="url(#pe52435e408)" d="M 628.247018 378 
L 628.247018 51.84 
" style="fill:none;stroke:#b0b0b0;stroke-linecap:square;stroke-width:0.8;"/>
     </g>
     <g id="line2d_14">
      <g>
       <use style="stroke:#000000;stroke-width:0.8;" x="628.247018" xlink:href="#mee51fbb9ed" y="378"/>
      </g>
     </g>
     <g id="text_7">
      <!-- 150000 -->
      <g transform="translate(609.159518 392.598437)scale(0.1 -0.1)">
       <use xlink:href="#DejaVuSans-49"/>
       <use x="63.623047" xlink:href="#DejaVuSans-53"/>
       <use x="127.246094" xlink:href="#DejaVuSans-48"/>
       <use x="190.869141" xlink:href="#DejaVuSans-48"/>
       <use x="254.492188" xlink:href="#DejaVuSans-48"/>
       <use x="318.115234" xlink:href="#DejaVuSans-48"/>
      </g>
     </g>
    </g>
    <g id="xtick_8">
     <g id="line2d_15">
      <path clip-path="url(#pe52435e408)" d="M 710.156798 378 
L 710.156798 51.84 
" style="fill:none;stroke:#b0b0b0;stroke-linecap:square;stroke-width:0.8;"/>
     </g>
     <g id="line2d_16">
      <g>
       <use style="stroke:#000000;stroke-width:0.8;" x="710.156798" xlink:href="#mee51fbb9ed" y="378"/>
      </g>
     </g>
     <g id="text_8">
      <!-- 175000 -->
      <g transform="translate(691.069298 392.598437)scale(0.1 -0.1)">
       <use xlink:href="#DejaVuSans-49"/>
       <use x="63.623047" xlink:href="#DejaVuSans-55"/>
       <use x="127.246094" xlink:href="#DejaVuSans-53"/>
       <use x="190.869141" xlink:href="#DejaVuSans-48"/>
       <use x="254.492188" xlink:href="#DejaVuSans-48"/>
       <use x="318.115234" xlink:href="#DejaVuSans-48"/>
      </g>
     </g>
    </g>
    <g id="text_9">
     <!-- Time (s) -->
     <g transform="translate(422.471094 406.276563)scale(0.1 -0.1)">
      <defs>
       <path d="M -0.296875 72.90625 
L 61.375 72.90625 
L 61.375 64.59375 
L 35.5 64.59375 
L 35.5 0 
L 25.59375 0 
L 25.59375 64.59375 
L -0.296875 64.59375 
z
" id="DejaVuSans-84"/>
       <path d="M 9.421875 54.6875 
L 18.40625 54.6875 
L 18.40625 0 
L 9.421875 0 
z
M 9.421875 75.984375 
L 18.40625 75.984375 
L 18.40625 64.59375 
L 9.421875 64.59375 
z
" id="DejaVuSans-105"/>
       <path d="M 52 44.1875 
Q 55.375 50.25 60.0625 53.125 
Q 64.75 56 71.09375 56 
Q 79.640625 56 84.28125 50.015625 
Q 88.921875 44.046875 88.921875 33.015625 
L 88.921875 0 
L 79.890625 0 
L 79.890625 32.71875 
Q 79.890625 40.578125 77.09375 44.375 
Q 74.3125 48.1875 68.609375 48.1875 
Q 61.625 48.1875 57.5625 43.546875 
Q 53.515625 38.921875 53.515625 30.90625 
L 53.515625 0 
L 44.484375 0 
L 44.484375 32.71875 
Q 44.484375 40.625 41.703125 44.40625 
Q 38.921875 48.1875 33.109375 48.1875 
Q 26.21875 48.1875 22.15625 43.53125 
Q 18.109375 38.875 18.109375 30.90625 
L 18.109375 0 
L 9.078125 0 
L 9.078125 54.6875 
L 18.109375 54.6875 
L 18.109375 46.1875 
Q 21.1875 51.21875 25.484375 53.609375 
Q 29.78125 56 35.6875 56 
Q 41.65625 56 45.828125 52.96875 
Q 50 49.953125 52 44.1875 
z
" id="DejaVuSans-109"/>
       <path d="M 56.203125 29.59375 
L 56.203125 25.203125 
L 14.890625 25.203125 
Q 15.484375 15.921875 20.484375 11.0625 
Q 25.484375 6.203125 34.421875 6.203125 
Q 39.59375 6.203125 44.453125 7.46875 
Q 49.3125 8.734375 54.109375 11.28125 
L 54.109375 2.78125 
Q 49.265625 0.734375 44.1875 -0.34375 
Q 39.109375 -1.421875 33.890625 -1.421875 
Q 20.796875 -1.421875 13.15625 6.1875 
Q 5.515625 13.8125 5.515625 26.8125 
Q 5.515625 40.234375 12.765625 48.109375 
Q 20.015625 56 32.328125 56 
Q 43.359375 56 49.78125 48.890625 
Q 56.203125 41.796875 56.203125 29.59375 
z
M 47.21875 32.234375 
Q 47.125 39.59375 43.09375 43.984375 
Q 39.0625 48.390625 32.421875 48.390625 
Q 24.90625 48.390625 20.390625 44.140625 
Q 15.875 39.890625 15.1875 32.171875 
z
" id="DejaVuSans-101"/>
       <path id="DejaVuSans-32"/>
       <path d="M 31 75.875 
Q 24.46875 64.65625 21.28125 53.65625 
Q 18.109375 42.671875 18.109375 31.390625 
Q 18.109375 20.125 21.3125 9.0625 
Q 24.515625 -2 31 -13.1875 
L 23.1875 -13.1875 
Q 15.875 -1.703125 12.234375 9.375 
Q 8.59375 20.453125 8.59375 31.390625 
Q 8.59375 42.28125 12.203125 53.3125 
Q 15.828125 64.359375 23.1875 75.875 
z
" id="DejaVuSans-40"/>
       <path d="M 44.28125 53.078125 
L 44.28125 44.578125 
Q 40.484375 46.53125 36.375 47.5 
Q 32.28125 48.484375 27.875 48.484375 
Q 21.1875 48.484375 17.84375 46.4375 
Q 14.5 44.390625 14.5 40.28125 
Q 14.5 37.15625 16.890625 35.375 
Q 19.28125 33.59375 26.515625 31.984375 
L 29.59375 31.296875 
Q 39.15625 29.25 43.1875 25.515625 
Q 47.21875 21.78125 47.21875 15.09375 
Q 47.21875 7.46875 41.1875 3.015625 
Q 35.15625 -1.421875 24.609375 -1.421875 
Q 20.21875 -1.421875 15.453125 -0.5625 
Q 10.6875 0.296875 5.421875 2 
L 5.421875 11.28125 
Q 10.40625 8.6875 15.234375 7.390625 
Q 20.0625 6.109375 24.8125 6.109375 
Q 31.15625 6.109375 34.5625 8.28125 
Q 37.984375 10.453125 37.984375 14.40625 
Q 37.984375 18.0625 35.515625 20.015625 
Q 33.0625 21.96875 24.703125 23.78125 
L 21.578125 24.515625 
Q 13.234375 26.265625 9.515625 29.90625 
Q 5.8125 33.546875 5.8125 39.890625 
Q 5.8125 47.609375 11.28125 51.796875 
Q 16.75 56 26.8125 56 
Q 31.78125 56 36.171875 55.265625 
Q 40.578125 54.546875 44.28125 53.078125 
z
" id="DejaVuSans-115"/>
       <path d="M 8.015625 75.875 
L 15.828125 75.875 
Q 23.140625 64.359375 26.78125 53.3125 
Q 30.421875 42.28125 30.421875 31.390625 
Q 30.421875 20.453125 26.78125 9.375 
Q 23.140625 -1.703125 15.828125 -13.1875 
L 8.015625 -13.1875 
Q 14.5 -2 17.703125 9.0625 
Q 20.90625 20.125 20.90625 31.390625 
Q 20.90625 42.671875 17.703125 53.65625 
Q 14.5 64.65625 8.015625 75.875 
z
" id="DejaVuSans-41"/>
      </defs>
      <use xlink:href="#DejaVuSans-84"/>
      <use x="57.958984" xlink:href="#DejaVuSans-105"/>
      <use x="85.742188" xlink:href="#DejaVuSans-109"/>
      <use x="183.154297" xlink:href="#DejaVuSans-101"/>
      <use x="244.677734" xlink:href="#DejaVuSans-32"/>
      <use x="276.464844" xlink:href="#DejaVuSans-40"/>
      <use x="315.478516" xlink:href="#DejaVuSans-115"/>
      <use x="367.578125" xlink:href="#DejaVuSans-41"/>
     </g>
    </g>
   </g>
   <g id="matplotlib.axis_2">
    <g id="ytick_1">
     <g id="line2d_17">
      <path clip-path="url(#pe52435e408)" d="M 108 363.174545 
L 777.6 363.174545 
" style="fill:none;stroke:#b0b0b0;stroke-linecap:square;stroke-width:0.8;"/>
     </g>
     <g id="line2d_18">
      <defs>
       <path d="M 0 0 
L -3.5 0 
" id="m102947ed0b" style="stroke:#000000;stroke-width:0.8;"/>
      </defs>
      <g>
       <use style="stroke:#000000;stroke-width:0.8;" x="108" xlink:href="#m102947ed0b" y="363.174545"/>
      </g>
     </g>
     <g id="text_10">
      <!-- 0.0 -->
      <g transform="translate(85.096875 366.973764)scale(0.1 -0.1)">
       <defs>
        <path d="M 10.6875 12.40625 
L 21 12.40625 
L 21 0 
L 10.6875 0 
z
" id="DejaVuSans-46"/>
       </defs>
       <use xlink:href="#DejaVuSans-48"/>
       <use x="63.623047" xlink:href="#DejaVuSans-46"/>
       <use x="95.410156" xlink:href="#DejaVuSans-48"/>
      </g>
     </g>
    </g>
    <g id="ytick_2">
     <g id="line2d_19">
      <path clip-path="url(#pe52435e408)" d="M 108 303.872727 
L 777.6 303.872727 
" style="fill:none;stroke:#b0b0b0;stroke-linecap:square;stroke-width:0.8;"/>
     </g>
     <g id="line2d_20">
      <g>
       <use style="stroke:#000000;stroke-width:0.8;" x="108" xlink:href="#m102947ed0b" y="303.872727"/>
      </g>
     </g>
     <g id="text_11">
      <!-- 0.2 -->
      <g transform="translate(85.096875 307.671946)scale(0.1 -0.1)">
       <use xlink:href="#DejaVuSans-48"/>
       <use x="63.623047" xlink:href="#DejaVuSans-46"/>
       <use x="95.410156" xlink:href="#DejaVuSans-50"/>
      </g>
     </g>
    </g>
    <g id="ytick_3">
     <g id="line2d_21">
      <path clip-path="url(#pe52435e408)" d="M 108 244.570909 
L 777.6 244.570909 
" style="fill:none;stroke:#b0b0b0;stroke-linecap:square;stroke-width:0.8;"/>
     </g>
     <g id="line2d_22">
      <g>
       <use style="stroke:#000000;stroke-width:0.8;" x="108" xlink:href="#m102947ed0b" y="244.570909"/>
      </g>
     </g>
     <g id="text_12">
      <!-- 0.4 -->
      <g transform="translate(85.096875 248.370128)scale(0.1 -0.1)">
       <defs>
        <path d="M 37.796875 64.3125 
L 12.890625 25.390625 
L 37.796875 25.390625 
z
M 35.203125 72.90625 
L 47.609375 72.90625 
L 47.609375 25.390625 
L 58.015625 25.390625 
L 58.015625 17.1875 
L 47.609375 17.1875 
L 47.609375 0 
L 37.796875 0 
L 37.796875 17.1875 
L 4.890625 17.1875 
L 4.890625 26.703125 
z
" id="DejaVuSans-52"/>
       </defs>
       <use xlink:href="#DejaVuSans-48"/>
       <use x="63.623047" xlink:href="#DejaVuSans-46"/>
       <use x="95.410156" xlink:href="#DejaVuSans-52"/>
      </g>
     </g>
    </g>
    <g id="ytick_4">
     <g id="line2d_23">
      <path clip-path="url(#pe52435e408)" d="M 108 185.269091 
L 777.6 185.269091 
" style="fill:none;stroke:#b0b0b0;stroke-linecap:square;stroke-width:0.8;"/>
     </g>
     <g id="line2d_24">
      <g>
       <use style="stroke:#000000;stroke-width:0.8;" x="108" xlink:href="#m102947ed0b" y="185.269091"/>
      </g>
     </g>
     <g id="text_13">
      <!-- 0.6 -->
      <g transform="translate(85.096875 189.06831)scale(0.1 -0.1)">
       <defs>
        <path d="M 33.015625 40.375 
Q 26.375 40.375 22.484375 35.828125 
Q 18.609375 31.296875 18.609375 23.390625 
Q 18.609375 15.53125 22.484375 10.953125 
Q 26.375 6.390625 33.015625 6.390625 
Q 39.65625 6.390625 43.53125 10.953125 
Q 47.40625 15.53125 47.40625 23.390625 
Q 47.40625 31.296875 43.53125 35.828125 
Q 39.65625 40.375 33.015625 40.375 
z
M 52.59375 71.296875 
L 52.59375 62.3125 
Q 48.875 64.0625 45.09375 64.984375 
Q 41.3125 65.921875 37.59375 65.921875 
Q 27.828125 65.921875 22.671875 59.328125 
Q 17.53125 52.734375 16.796875 39.40625 
Q 19.671875 43.65625 24.015625 45.921875 
Q 28.375 48.1875 33.59375 48.1875 
Q 44.578125 48.1875 50.953125 41.515625 
Q 57.328125 34.859375 57.328125 23.390625 
Q 57.328125 12.15625 50.6875 5.359375 
Q 44.046875 -1.421875 33.015625 -1.421875 
Q 20.359375 -1.421875 13.671875 8.265625 
Q 6.984375 17.96875 6.984375 36.375 
Q 6.984375 53.65625 15.1875 63.9375 
Q 23.390625 74.21875 37.203125 74.21875 
Q 40.921875 74.21875 44.703125 73.484375 
Q 48.484375 72.75 52.59375 71.296875 
z
" id="DejaVuSans-54"/>
       </defs>
       <use xlink:href="#DejaVuSans-48"/>
       <use x="63.623047" xlink:href="#DejaVuSans-46"/>
       <use x="95.410156" xlink:href="#DejaVuSans-54"/>
      </g>
     </g>
    </g>
    <g id="ytick_5">
     <g id="line2d_25">
      <path clip-path="url(#pe52435e408)" d="M 108 125.967273 
L 777.6 125.967273 
" style="fill:none;stroke:#b0b0b0;stroke-linecap:square;stroke-width:0.8;"/>
     </g>
     <g id="line2d_26">
      <g>
       <use style="stroke:#000000;stroke-width:0.8;" x="108" xlink:href="#m102947ed0b" y="125.967273"/>
      </g>
     </g>
     <g id="text_14">
      <!-- 0.8 -->
      <g transform="translate(85.096875 129.766491)scale(0.1 -0.1)">
       <defs>
        <path d="M 31.78125 34.625 
Q 24.75 34.625 20.71875 30.859375 
Q 16.703125 27.09375 16.703125 20.515625 
Q 16.703125 13.921875 20.71875 10.15625 
Q 24.75 6.390625 31.78125 6.390625 
Q 38.8125 6.390625 42.859375 10.171875 
Q 46.921875 13.96875 46.921875 20.515625 
Q 46.921875 27.09375 42.890625 30.859375 
Q 38.875 34.625 31.78125 34.625 
z
M 21.921875 38.8125 
Q 15.578125 40.375 12.03125 44.71875 
Q 8.5 49.078125 8.5 55.328125 
Q 8.5 64.0625 14.71875 69.140625 
Q 20.953125 74.21875 31.78125 74.21875 
Q 42.671875 74.21875 48.875 69.140625 
Q 55.078125 64.0625 55.078125 55.328125 
Q 55.078125 49.078125 51.53125 44.71875 
Q 48 40.375 41.703125 38.8125 
Q 48.828125 37.15625 52.796875 32.3125 
Q 56.78125 27.484375 56.78125 20.515625 
Q 56.78125 9.90625 50.3125 4.234375 
Q 43.84375 -1.421875 31.78125 -1.421875 
Q 19.734375 -1.421875 13.25 4.234375 
Q 6.78125 9.90625 6.78125 20.515625 
Q 6.78125 27.484375 10.78125 32.3125 
Q 14.796875 37.15625 21.921875 38.8125 
z
M 18.3125 54.390625 
Q 18.3125 48.734375 21.84375 45.5625 
Q 25.390625 42.390625 31.78125 42.390625 
Q 38.140625 42.390625 41.71875 45.5625 
Q 45.3125 48.734375 45.3125 54.390625 
Q 45.3125 60.0625 41.71875 63.234375 
Q 38.140625 66.40625 31.78125 66.40625 
Q 25.390625 66.40625 21.84375 63.234375 
Q 18.3125 60.0625 18.3125 54.390625 
z
" id="DejaVuSans-56"/>
       </defs>
       <use xlink:href="#DejaVuSans-48"/>
       <use x="63.623047" xlink:href="#DejaVuSans-46"/>
       <use x="95.410156" xlink:href="#DejaVuSans-56"/>
      </g>
     </g>
    </g>
    <g id="ytick_6">
     <g id="line2d_27">
      <path clip-path="url(#pe52435e408)" d="M 108 66.665455 
L 777.6 66.665455 
" style="fill:none;stroke:#b0b0b0;stroke-linecap:square;stroke-width:0.8;"/>
     </g>
     <g id="line2d_28">
      <g>
       <use style="stroke:#000000;stroke-width:0.8;" x="108" xlink:href="#m102947ed0b" y="66.665455"/>
      </g>
     </g>
     <g id="text_15">
      <!-- 1.0 -->
      <g transform="translate(85.096875 70.464673)scale(0.1 -0.1)">
       <use xlink:href="#DejaVuSans-49"/>
       <use x="63.623047" xlink:href="#DejaVuSans-46"/>
       <use x="95.410156" xlink:href="#DejaVuSans-48"/>
      </g>
     </g>
    </g>
    <g id="text_16">
     <!-- Probability -->
     <g transform="translate(79.017187 241.348906)rotate(-90)scale(0.1 -0.1)">
      <defs>
       <path d="M 19.671875 64.796875 
L 19.671875 37.40625 
L 32.078125 37.40625 
Q 38.96875 37.40625 42.71875 40.96875 
Q 46.484375 44.53125 46.484375 51.125 
Q 46.484375 57.671875 42.71875 61.234375 
Q 38.96875 64.796875 32.078125 64.796875 
z
M 9.8125 72.90625 
L 32.078125 72.90625 
Q 44.34375 72.90625 50.609375 67.359375 
Q 56.890625 61.8125 56.890625 51.125 
Q 56.890625 40.328125 50.609375 34.8125 
Q 44.34375 29.296875 32.078125 29.296875 
L 19.671875 29.296875 
L 19.671875 0 
L 9.8125 0 
z
" id="DejaVuSans-80"/>
       <path d="M 41.109375 46.296875 
Q 39.59375 47.171875 37.8125 47.578125 
Q 36.03125 48 33.890625 48 
Q 26.265625 48 22.1875 43.046875 
Q 18.109375 38.09375 18.109375 28.8125 
L 18.109375 0 
L 9.078125 0 
L 9.078125 54.6875 
L 18.109375 54.6875 
L 18.109375 46.1875 
Q 20.953125 51.171875 25.484375 53.578125 
Q 30.03125 56 36.53125 56 
Q 37.453125 56 38.578125 55.875 
Q 39.703125 55.765625 41.0625 55.515625 
z
" id="DejaVuSans-114"/>
       <path d="M 30.609375 48.390625 
Q 23.390625 48.390625 19.1875 42.75 
Q 14.984375 37.109375 14.984375 27.296875 
Q 14.984375 17.484375 19.15625 11.84375 
Q 23.34375 6.203125 30.609375 6.203125 
Q 37.796875 6.203125 41.984375 11.859375 
Q 46.1875 17.53125 46.1875 27.296875 
Q 46.1875 37.015625 41.984375 42.703125 
Q 37.796875 48.390625 30.609375 48.390625 
z
M 30.609375 56 
Q 42.328125 56 49.015625 48.375 
Q 55.71875 40.765625 55.71875 27.296875 
Q 55.71875 13.875 49.015625 6.21875 
Q 42.328125 -1.421875 30.609375 -1.421875 
Q 18.84375 -1.421875 12.171875 6.21875 
Q 5.515625 13.875 5.515625 27.296875 
Q 5.515625 40.765625 12.171875 48.375 
Q 18.84375 56 30.609375 56 
z
" id="DejaVuSans-111"/>
       <path d="M 48.6875 27.296875 
Q 48.6875 37.203125 44.609375 42.84375 
Q 40.53125 48.484375 33.40625 48.484375 
Q 26.265625 48.484375 22.1875 42.84375 
Q 18.109375 37.203125 18.109375 27.296875 
Q 18.109375 17.390625 22.1875 11.75 
Q 26.265625 6.109375 33.40625 6.109375 
Q 40.53125 6.109375 44.609375 11.75 
Q 48.6875 17.390625 48.6875 27.296875 
z
M 18.109375 46.390625 
Q 20.953125 51.265625 25.265625 53.625 
Q 29.59375 56 35.59375 56 
Q 45.5625 56 51.78125 48.09375 
Q 58.015625 40.1875 58.015625 27.296875 
Q 58.015625 14.40625 51.78125 6.484375 
Q 45.5625 -1.421875 35.59375 -1.421875 
Q 29.59375 -1.421875 25.265625 0.953125 
Q 20.953125 3.328125 18.109375 8.203125 
L 18.109375 0 
L 9.078125 0 
L 9.078125 75.984375 
L 18.109375 75.984375 
z
" id="DejaVuSans-98"/>
       <path d="M 34.28125 27.484375 
Q 23.390625 27.484375 19.1875 25 
Q 14.984375 22.515625 14.984375 16.5 
Q 14.984375 11.71875 18.140625 8.90625 
Q 21.296875 6.109375 26.703125 6.109375 
Q 34.1875 6.109375 38.703125 11.40625 
Q 43.21875 16.703125 43.21875 25.484375 
L 43.21875 27.484375 
z
M 52.203125 31.203125 
L 52.203125 0 
L 43.21875 0 
L 43.21875 8.296875 
Q 40.140625 3.328125 35.546875 0.953125 
Q 30.953125 -1.421875 24.3125 -1.421875 
Q 15.921875 -1.421875 10.953125 3.296875 
Q 6 8.015625 6 15.921875 
Q 6 25.140625 12.171875 29.828125 
Q 18.359375 34.515625 30.609375 34.515625 
L 43.21875 34.515625 
L 43.21875 35.40625 
Q 43.21875 41.609375 39.140625 45 
Q 35.0625 48.390625 27.6875 48.390625 
Q 23 48.390625 18.546875 47.265625 
Q 14.109375 46.140625 10.015625 43.890625 
L 10.015625 52.203125 
Q 14.9375 54.109375 19.578125 55.046875 
Q 24.21875 56 28.609375 56 
Q 40.484375 56 46.34375 49.84375 
Q 52.203125 43.703125 52.203125 31.203125 
z
" id="DejaVuSans-97"/>
       <path d="M 9.421875 75.984375 
L 18.40625 75.984375 
L 18.40625 0 
L 9.421875 0 
z
" id="DejaVuSans-108"/>
       <path d="M 18.3125 70.21875 
L 18.3125 54.6875 
L 36.8125 54.6875 
L 36.8125 47.703125 
L 18.3125 47.703125 
L 18.3125 18.015625 
Q 18.3125 11.328125 20.140625 9.421875 
Q 21.96875 7.515625 27.59375 7.515625 
L 36.8125 7.515625 
L 36.8125 0 
L 27.59375 0 
Q 17.1875 0 13.234375 3.875 
Q 9.28125 7.765625 9.28125 18.015625 
L 9.28125 47.703125 
L 2.6875 47.703125 
L 2.6875 54.6875 
L 9.28125 54.6875 
L 9.28125 70.21875 
z
" id="DejaVuSans-116"/>
       <path d="M 32.171875 -5.078125 
Q 28.375 -14.84375 24.75 -17.8125 
Q 21.140625 -20.796875 15.09375 -20.796875 
L 7.90625 -20.796875 
L 7.90625 -13.28125 
L 13.1875 -13.28125 
Q 16.890625 -13.28125 18.9375 -11.515625 
Q 21 -9.765625 23.484375 -3.21875 
L 25.09375 0.875 
L 2.984375 54.6875 
L 12.5 54.6875 
L 29.59375 11.921875 
L 46.6875 54.6875 
L 56.203125 54.6875 
z
" id="DejaVuSans-121"/>
      </defs>
      <use xlink:href="#DejaVuSans-80"/>
      <use x="58.552734" xlink:href="#DejaVuSans-114"/>
      <use x="97.416016" xlink:href="#DejaVuSans-111"/>
      <use x="158.597656" xlink:href="#DejaVuSans-98"/>
      <use x="222.074219" xlink:href="#DejaVuSans-97"/>
      <use x="283.353516" xlink:href="#DejaVuSans-98"/>
      <use x="346.830078" xlink:href="#DejaVuSans-105"/>
      <use x="374.613281" xlink:href="#DejaVuSans-108"/>
      <use x="402.396484" xlink:href="#DejaVuSans-105"/>
      <use x="430.179688" xlink:href="#DejaVuSans-116"/>
      <use x="469.388672" xlink:href="#DejaVuSans-121"/>
     </g>
    </g>
   </g>
   <g id="line2d_29">
    <path clip-path="url(#pe52435e408)" d="M 138.436364 67.500691 
L 138.534655 69.171165 
L 138.626394 70.841639 
L 138.986797 77.523534 
L 139.108024 79.194008 
L 139.265291 80.029245 
L 139.370135 84.205429 
L 139.501191 85.040666 
L 139.622417 88.381613 
L 140.21872 95.063508 
L 140.562742 100.910166 
L 140.969014 102.58064 
L 141.011607 103.415877 
L 141.355628 104.251114 
L 141.601358 109.262535 
L 141.630845 110.097772 
L 142.5253 113.43872 
L 142.784135 117.614904 
L 143.190407 120.120615 
L 144.15039 126.80251 
L 144.612361 128.472983 
L 145.120202 130.978694 
L 145.270916 132.649168 
L 145.818073 138.495826 
L 146.21124 139.331063 
L 146.276768 141.001536 
L 146.450416 141.836773 
L 146.551985 143.507247 
L 146.896006 144.342484 
L 147.069654 145.177721 
L 147.210539 147.683431 
L 147.538178 148.518668 
L 147.777355 151.024379 
L 147.957556 152.694853 
L 148.770101 153.53009 
L 149.150163 155.200563 
L 149.350023 157.706274 
L 149.730084 158.541511 
L 149.792336 160.211985 
L 150.221543 161.882458 
L 150.424679 164.388169 
L 150.434508 165.223406 
L 150.68679 166.058643 
L 150.958731 167.729117 
L 151.099616 168.564353 
L 152.033387 170.234827 
L 152.249629 171.070064 
L 152.420001 172.740538 
L 152.632967 173.575775 
L 153.452064 174.411012 
L 153.724005 177.751959 
L 154.041815 178.587196 
L 154.074579 179.422433 
L 154.264609 180.25767 
L 154.81832 181.092907 
L 155.096813 181.928143 
L 155.552231 182.76338 
L 156.16164 183.598617 
L 156.423751 185.269091 
L 157.347694 186.104328 
L 157.557383 187.774802 
L 157.577041 188.610038 
L 157.921062 189.445275 
L 157.924338 190.280512 
L 158.25853 192.786223 
L 159.323357 194.456697 
L 159.555981 196.962407 
L 159.88362 197.797644 
L 159.949148 198.632881 
L 160.361974 199.468118 
L 160.597874 200.303355 
L 161.420248 201.138592 
L 161.728229 201.973828 
L 162.150883 204.479539 
L 162.688211 205.314776 
L 163.002745 207.820487 
L 163.402465 208.655723 
L 163.526967 209.49096 
L 164.162587 210.326197 
L 165.047213 211.161434 
L 165.361746 213.667145 
L 166.108764 214.502382 
L 166.524865 216.172855 
L 167.167038 217.008092 
L 167.334134 218.678566 
L 168.346539 219.513803 
L 168.824892 220.34904 
L 168.828168 221.184277 
L 169.142702 222.019513 
L 169.20823 223.689987 
L 171.691734 224.525224 
L 171.855554 225.360461 
L 173.264402 227.030935 
L 174.997613 227.866172 
L 177.13382 229.536645 
L 177.281258 230.371882 
L 178.165883 231.207119 
L 178.703211 232.042356 
L 180.875459 233.71283 
L 181.278455 234.548067 
L 181.380023 235.383303 
L 181.80923 236.21854 
L 183.971648 237.053777 
L 184.512253 237.889014 
L 184.728495 238.724251 
L 185.390326 240.394725 
L 186.415836 241.229962 
L 186.753305 242.065198 
L 187.549468 242.900435 
L 187.877107 244.570909 
L 189.557895 245.406146 
L 189.603765 246.241383 
L 190.354058 247.07662 
L 190.648934 247.911857 
L 191.707208 248.747093 
L 191.753078 250.417567 
L 192.215049 252.088041 
L 192.726166 252.923278 
L 192.745824 253.758515 
L 193.217624 254.593752 
L 193.325745 255.428988 
L 194.521628 256.264225 
L 195.094997 257.099462 
L 195.229329 257.934699 
L 196.68077 258.769936 
L 196.792167 259.605173 
L 200.828681 260.44041 
L 201.359457 261.275647 
L 201.497065 262.110883 
L 202.034393 262.94612 
L 202.47343 264.616594 
L 202.866596 265.451831 
L 202.905913 267.122305 
L 203.131984 267.957542 
L 205.79569 268.792778 
L 206.788437 269.628015 
L 207.355252 270.463252 
L 207.679615 271.298489 
L 208.61011 272.968963 
L 208.859116 273.8042 
L 210.513694 274.639437 
L 211.011705 276.30991 
L 211.771828 277.145147 
L 212.794062 277.980384 
L 213.305179 278.815621 
L 215.952503 279.650858 
L 219.110944 280.486095 
L 219.690865 281.321332 
L 220.054545 282.156569 
L 221.401141 282.991805 
L 222.236621 284.662279 
L 224.045189 285.497516 
L 225.136227 286.332753 
L 229.778874 287.16799 
L 230.565208 288.003227 
L 230.627459 288.838464 
L 232.979908 289.6737 
L 233.346864 290.508937 
L 235.653443 291.344174 
L 237.006593 292.179411 
L 237.226111 293.014648 
L 239.237815 293.849885 
L 239.516308 294.685122 
L 241.069318 295.520359 
L 241.249519 296.355595 
L 242.527312 297.190832 
L 244.575056 298.026069 
L 247.723668 298.861306 
L 248.247891 299.696543 
L 248.316695 301.367017 
L 250.256319 302.202254 
L 250.623275 303.03749 
L 252.235259 303.872727 
L 252.326998 304.707964 
L 252.831562 305.543201 
L 259.538335 306.378438 
L 260.157573 307.213675 
L 261.124108 308.048912 
L 261.183083 308.884149 
L 262.72954 309.719385 
L 263.263592 310.554622 
L 267.352528 311.389859 
L 267.562217 312.225096 
L 268.427184 313.060333 
L 268.584451 313.89557 
L 270.9369 314.730807 
L 275.789235 315.566044 
L 276.703348 316.40128 
L 277.168596 317.236517 
L 281.103542 318.071754 
L 283.115246 318.906991 
L 283.655851 319.742228 
L 284.356998 320.577465 
L 286.483376 322.247939 
L 287.508887 323.918412 
L 288.714599 324.753649 
L 291.266907 325.588886 
L 292.410368 326.424123 
L 294.199277 327.25936 
L 296.722099 328.094597 
L 297.528091 328.929834 
L 298.006444 329.76507 
L 303.225735 330.600307 
L 305.823913 331.435544 
L 309.152727 332.270781 
L 309.650738 333.106018 
L 311.41016 333.941255 
L 321.983075 334.776492 
L 325.816452 335.611729 
L 336.661307 336.446965 
L 337.241229 337.282202 
L 345.566539 338.117439 
L 347.266986 338.952676 
L 350.566311 339.787913 
L 354.665077 340.62315 
L 355.552979 341.458387 
L 361.486523 343.12886 
L 362.548074 343.964097 
L 378.851397 344.799334 
L 388.461052 346.469808 
L 404.059951 347.305045 
L 405.462246 348.140282 
L 419.662125 348.975519 
L 423.305472 349.810755 
L 443.645309 351.481229 
L 443.792747 352.316466 
L 454.018363 353.151703 
L 475.858787 353.98694 
L 486.775723 354.822177 
L 523.317314 355.657414 
L 541.330912 356.49265 
L 563.453106 358.163124 
L 594.251183 358.998361 
L 637.771487 359.833598 
L 642.751602 360.668835 
L 664.77878 361.504072 
L 712.253688 362.339309 
L 747.163636 363.174545 
L 747.163636 363.174545 
" style="fill:none;stroke:#1f77b4;stroke-linecap:square;stroke-width:1.5;"/>
   </g>
   <g id="line2d_30">
    <path clip-path="url(#pe52435e408)" d="M 138.436364 362.339309 
L 138.534655 360.668835 
L 138.626394 358.998361 
L 138.986797 352.316466 
L 139.108024 350.645992 
L 139.265291 349.810755 
L 139.370135 345.634571 
L 139.501191 344.799334 
L 139.622417 341.458387 
L 140.21872 334.776492 
L 140.562742 328.929834 
L 140.969014 327.25936 
L 141.011607 326.424123 
L 141.355628 325.588886 
L 141.601358 320.577465 
L 141.630845 319.742228 
L 142.5253 316.40128 
L 142.784135 312.225096 
L 143.190407 309.719385 
L 144.15039 303.03749 
L 144.612361 301.367017 
L 145.120202 298.861306 
L 145.270916 297.190832 
L 145.818073 291.344174 
L 146.21124 290.508937 
L 146.276768 288.838464 
L 146.450416 288.003227 
L 146.551985 286.332753 
L 146.896006 285.497516 
L 147.069654 284.662279 
L 147.210539 282.156569 
L 147.538178 281.321332 
L 147.777355 278.815621 
L 147.957556 277.145147 
L 148.770101 276.30991 
L 149.150163 274.639437 
L 149.350023 272.133726 
L 149.730084 271.298489 
L 149.792336 269.628015 
L 150.221543 267.957542 
L 150.424679 265.451831 
L 150.434508 264.616594 
L 150.68679 263.781357 
L 150.958731 262.110883 
L 151.099616 261.275647 
L 152.033387 259.605173 
L 152.249629 258.769936 
L 152.420001 257.099462 
L 152.632967 256.264225 
L 153.452064 255.428988 
L 153.724005 252.088041 
L 154.041815 251.252804 
L 154.074579 250.417567 
L 154.264609 249.58233 
L 154.81832 248.747093 
L 155.096813 247.911857 
L 155.552231 247.07662 
L 156.16164 246.241383 
L 156.423751 244.570909 
L 157.347694 243.735672 
L 157.557383 242.065198 
L 157.577041 241.229962 
L 157.921062 240.394725 
L 157.924338 239.559488 
L 158.25853 237.053777 
L 159.323357 235.383303 
L 159.555981 232.877593 
L 159.88362 232.042356 
L 159.949148 231.207119 
L 160.361974 230.371882 
L 160.597874 229.536645 
L 161.420248 228.701408 
L 161.728229 227.866172 
L 162.150883 225.360461 
L 162.688211 224.525224 
L 163.002745 222.019513 
L 163.402465 221.184277 
L 163.526967 220.34904 
L 164.162587 219.513803 
L 165.047213 218.678566 
L 165.361746 216.172855 
L 166.108764 215.337618 
L 166.524865 213.667145 
L 167.167038 212.831908 
L 167.334134 211.161434 
L 168.346539 210.326197 
L 168.824892 209.49096 
L 168.828168 208.655723 
L 169.142702 207.820487 
L 169.20823 206.150013 
L 171.691734 205.314776 
L 171.855554 204.479539 
L 173.264402 202.809065 
L 174.997613 201.973828 
L 177.13382 200.303355 
L 177.281258 199.468118 
L 178.165883 198.632881 
L 178.703211 197.797644 
L 180.875459 196.12717 
L 181.278455 195.291933 
L 181.380023 194.456697 
L 181.80923 193.62146 
L 183.971648 192.786223 
L 184.512253 191.950986 
L 184.728495 191.115749 
L 185.390326 189.445275 
L 186.415836 188.610038 
L 186.753305 187.774802 
L 187.549468 186.939565 
L 187.877107 185.269091 
L 189.557895 184.433854 
L 189.603765 183.598617 
L 190.354058 182.76338 
L 190.648934 181.928143 
L 191.707208 181.092907 
L 191.753078 179.422433 
L 192.215049 177.751959 
L 192.726166 176.916722 
L 192.745824 176.081485 
L 193.217624 175.246248 
L 193.325745 174.411012 
L 194.521628 173.575775 
L 195.094997 172.740538 
L 195.229329 171.905301 
L 196.68077 171.070064 
L 196.792167 170.234827 
L 200.828681 169.39959 
L 201.359457 168.564353 
L 201.497065 167.729117 
L 202.034393 166.89388 
L 202.47343 165.223406 
L 202.866596 164.388169 
L 202.905913 162.717695 
L 203.131984 161.882458 
L 205.79569 161.047222 
L 206.788437 160.211985 
L 207.355252 159.376748 
L 207.679615 158.541511 
L 208.61011 156.871037 
L 208.859116 156.0358 
L 210.513694 155.200563 
L 211.011705 153.53009 
L 211.771828 152.694853 
L 212.794062 151.859616 
L 213.305179 151.024379 
L 215.952503 150.189142 
L 219.110944 149.353905 
L 219.690865 148.518668 
L 220.054545 147.683431 
L 221.401141 146.848195 
L 222.236621 145.177721 
L 224.045189 144.342484 
L 225.136227 143.507247 
L 229.778874 142.67201 
L 230.565208 141.836773 
L 230.627459 141.001536 
L 232.979908 140.1663 
L 233.346864 139.331063 
L 235.653443 138.495826 
L 237.006593 137.660589 
L 237.226111 136.825352 
L 239.237815 135.990115 
L 239.516308 135.154878 
L 241.069318 134.319641 
L 241.249519 133.484405 
L 242.527312 132.649168 
L 244.575056 131.813931 
L 247.723668 130.978694 
L 248.247891 130.143457 
L 248.316695 128.472983 
L 250.256319 127.637746 
L 250.623275 126.80251 
L 252.235259 125.967273 
L 252.326998 125.132036 
L 252.831562 124.296799 
L 259.538335 123.461562 
L 260.157573 122.626325 
L 261.124108 121.791088 
L 261.183083 120.955851 
L 262.72954 120.120615 
L 263.263592 119.285378 
L 267.352528 118.450141 
L 267.562217 117.614904 
L 268.427184 116.779667 
L 268.584451 115.94443 
L 270.9369 115.109193 
L 275.789235 114.273956 
L 276.703348 113.43872 
L 277.168596 112.603483 
L 281.103542 111.768246 
L 283.115246 110.933009 
L 283.655851 110.097772 
L 284.356998 109.262535 
L 286.483376 107.592061 
L 287.508887 105.921588 
L 288.714599 105.086351 
L 291.266907 104.251114 
L 292.410368 103.415877 
L 294.199277 102.58064 
L 296.722099 101.745403 
L 297.528091 100.910166 
L 298.006444 100.07493 
L 303.225735 99.239693 
L 305.823913 98.404456 
L 309.152727 97.569219 
L 309.650738 96.733982 
L 311.41016 95.898745 
L 321.983075 95.063508 
L 325.816452 94.228271 
L 336.661307 93.393035 
L 337.241229 92.557798 
L 345.566539 91.722561 
L 347.266986 90.887324 
L 350.566311 90.052087 
L 354.665077 89.21685 
L 355.552979 88.381613 
L 361.486523 86.71114 
L 362.548074 85.875903 
L 378.851397 85.040666 
L 388.461052 83.370192 
L 404.059951 82.534955 
L 405.462246 81.699718 
L 419.662125 80.864481 
L 423.305472 80.029245 
L 443.645309 78.358771 
L 443.792747 77.523534 
L 454.018363 76.688297 
L 475.858787 75.85306 
L 486.775723 75.017823 
L 523.317314 74.182586 
L 541.330912 73.34735 
L 563.453106 71.676876 
L 594.251183 70.841639 
L 637.771487 70.006402 
L 642.751602 69.171165 
L 664.77878 68.335928 
L 712.253688 67.500691 
L 747.163636 66.665455 
L 747.163636 66.665455 
" style="fill:none;stroke:#ff7f0e;stroke-linecap:square;stroke-width:1.5;"/>
   </g>
   <g id="patch_3">
    <path d="M 108 378 
L 108 51.84 
" style="fill:none;stroke:#000000;stroke-linecap:square;stroke-linejoin:miter;stroke-width:0.8;"/>
   </g>
   <g id="patch_4">
    <path d="M 777.6 378 
L 777.6 51.84 
" style="fill:none;stroke:#000000;stroke-linecap:square;stroke-linejoin:miter;stroke-width:0.8;"/>
   </g>
   <g id="patch_5">
    <path d="M 108 378 
L 777.6 378 
" style="fill:none;stroke:#000000;stroke-linecap:square;stroke-linejoin:miter;stroke-width:0.8;"/>
   </g>
   <g id="patch_6">
    <path d="M 108 51.84 
L 777.6 51.84 
" style="fill:none;stroke:#000000;stroke-linecap:square;stroke-linejoin:miter;stroke-width:0.8;"/>
   </g>
   <g id="legend_1">
    <g id="patch_7">
     <path d="M 640.084375 231.098125 
L 770.6 231.098125 
Q 772.6 231.098125 772.6 229.098125 
L 772.6 200.741875 
Q 772.6 198.741875 770.6 198.741875 
L 640.084375 198.741875 
Q 638.084375 198.741875 638.084375 200.741875 
L 638.084375 229.098125 
Q 638.084375 231.098125 640.084375 231.098125 
z
" style="fill:#ffffff;opacity:0.8;stroke:#cccccc;stroke-linejoin:miter;"/>
    </g>
    <g id="line2d_31">
     <path d="M 642.084375 206.840312 
L 662.084375 206.840312 
" style="fill:none;stroke:#1f77b4;stroke-linecap:square;stroke-width:1.5;"/>
    </g>
    <g id="line2d_32"/>
    <g id="text_17">
     <!-- Empirical Reliability -->
     <g transform="translate(670.084375 210.340312)scale(0.1 -0.1)">
      <defs>
       <path d="M 9.8125 72.90625 
L 55.90625 72.90625 
L 55.90625 64.59375 
L 19.671875 64.59375 
L 19.671875 43.015625 
L 54.390625 43.015625 
L 54.390625 34.71875 
L 19.671875 34.71875 
L 19.671875 8.296875 
L 56.78125 8.296875 
L 56.78125 0 
L 9.8125 0 
z
" id="DejaVuSans-69"/>
       <path d="M 18.109375 8.203125 
L 18.109375 -20.796875 
L 9.078125 -20.796875 
L 9.078125 54.6875 
L 18.109375 54.6875 
L 18.109375 46.390625 
Q 20.953125 51.265625 25.265625 53.625 
Q 29.59375 56 35.59375 56 
Q 45.5625 56 51.78125 48.09375 
Q 58.015625 40.1875 58.015625 27.296875 
Q 58.015625 14.40625 51.78125 6.484375 
Q 45.5625 -1.421875 35.59375 -1.421875 
Q 29.59375 -1.421875 25.265625 0.953125 
Q 20.953125 3.328125 18.109375 8.203125 
z
M 48.6875 27.296875 
Q 48.6875 37.203125 44.609375 42.84375 
Q 40.53125 48.484375 33.40625 48.484375 
Q 26.265625 48.484375 22.1875 42.84375 
Q 18.109375 37.203125 18.109375 27.296875 
Q 18.109375 17.390625 22.1875 11.75 
Q 26.265625 6.109375 33.40625 6.109375 
Q 40.53125 6.109375 44.609375 11.75 
Q 48.6875 17.390625 48.6875 27.296875 
z
" id="DejaVuSans-112"/>
       <path d="M 48.78125 52.59375 
L 48.78125 44.1875 
Q 44.96875 46.296875 41.140625 47.34375 
Q 37.3125 48.390625 33.40625 48.390625 
Q 24.65625 48.390625 19.8125 42.84375 
Q 14.984375 37.3125 14.984375 27.296875 
Q 14.984375 17.28125 19.8125 11.734375 
Q 24.65625 6.203125 33.40625 6.203125 
Q 37.3125 6.203125 41.140625 7.25 
Q 44.96875 8.296875 48.78125 10.40625 
L 48.78125 2.09375 
Q 45.015625 0.34375 40.984375 -0.53125 
Q 36.96875 -1.421875 32.421875 -1.421875 
Q 20.0625 -1.421875 12.78125 6.34375 
Q 5.515625 14.109375 5.515625 27.296875 
Q 5.515625 40.671875 12.859375 48.328125 
Q 20.21875 56 33.015625 56 
Q 37.15625 56 41.109375 55.140625 
Q 45.0625 54.296875 48.78125 52.59375 
z
" id="DejaVuSans-99"/>
       <path d="M 44.390625 34.1875 
Q 47.5625 33.109375 50.5625 29.59375 
Q 53.5625 26.078125 56.59375 19.921875 
L 66.609375 0 
L 56 0 
L 46.6875 18.703125 
Q 43.0625 26.03125 39.671875 28.421875 
Q 36.28125 30.8125 30.421875 30.8125 
L 19.671875 30.8125 
L 19.671875 0 
L 9.8125 0 
L 9.8125 72.90625 
L 32.078125 72.90625 
Q 44.578125 72.90625 50.734375 67.671875 
Q 56.890625 62.453125 56.890625 51.90625 
Q 56.890625 45.015625 53.6875 40.46875 
Q 50.484375 35.9375 44.390625 34.1875 
z
M 19.671875 64.796875 
L 19.671875 38.921875 
L 32.078125 38.921875 
Q 39.203125 38.921875 42.84375 42.21875 
Q 46.484375 45.515625 46.484375 51.90625 
Q 46.484375 58.296875 42.84375 61.546875 
Q 39.203125 64.796875 32.078125 64.796875 
z
" id="DejaVuSans-82"/>
      </defs>
      <use xlink:href="#DejaVuSans-69"/>
      <use x="63.183594" xlink:href="#DejaVuSans-109"/>
      <use x="160.595703" xlink:href="#DejaVuSans-112"/>
      <use x="224.072266" xlink:href="#DejaVuSans-105"/>
      <use x="251.855469" xlink:href="#DejaVuSans-114"/>
      <use x="292.96875" xlink:href="#DejaVuSans-105"/>
      <use x="320.751953" xlink:href="#DejaVuSans-99"/>
      <use x="375.732422" xlink:href="#DejaVuSans-97"/>
      <use x="437.011719" xlink:href="#DejaVuSans-108"/>
      <use x="464.794922" xlink:href="#DejaVuSans-32"/>
      <use x="496.582031" xlink:href="#DejaVuSans-82"/>
      <use x="561.564453" xlink:href="#DejaVuSans-101"/>
      <use x="623.087891" xlink:href="#DejaVuSans-108"/>
      <use x="650.871094" xlink:href="#DejaVuSans-105"/>
      <use x="678.654297" xlink:href="#DejaVuSans-97"/>
      <use x="739.933594" xlink:href="#DejaVuSans-98"/>
      <use x="803.410156" xlink:href="#DejaVuSans-105"/>
      <use x="831.193359" xlink:href="#DejaVuSans-108"/>
      <use x="858.976562" xlink:href="#DejaVuSans-105"/>
      <use x="886.759766" xlink:href="#DejaVuSans-116"/>
      <use x="925.96875" xlink:href="#DejaVuSans-121"/>
     </g>
    </g>
    <g id="line2d_33">
     <path d="M 642.084375 221.518437 
L 662.084375 221.518437 
" style="fill:none;stroke:#ff7f0e;stroke-linecap:square;stroke-width:1.5;"/>
    </g>
    <g id="line2d_34"/>
    <g id="text_18">
     <!-- Empirical CDF -->
     <g transform="translate(670.084375 225.018437)scale(0.1 -0.1)">
      <defs>
       <path d="M 64.40625 67.28125 
L 64.40625 56.890625 
Q 59.421875 61.53125 53.78125 63.8125 
Q 48.140625 66.109375 41.796875 66.109375 
Q 29.296875 66.109375 22.65625 58.46875 
Q 16.015625 50.828125 16.015625 36.375 
Q 16.015625 21.96875 22.65625 14.328125 
Q 29.296875 6.6875 41.796875 6.6875 
Q 48.140625 6.6875 53.78125 8.984375 
Q 59.421875 11.28125 64.40625 15.921875 
L 64.40625 5.609375 
Q 59.234375 2.09375 53.4375 0.328125 
Q 47.65625 -1.421875 41.21875 -1.421875 
Q 24.65625 -1.421875 15.125 8.703125 
Q 5.609375 18.84375 5.609375 36.375 
Q 5.609375 53.953125 15.125 64.078125 
Q 24.65625 74.21875 41.21875 74.21875 
Q 47.75 74.21875 53.53125 72.484375 
Q 59.328125 70.75 64.40625 67.28125 
z
" id="DejaVuSans-67"/>
       <path d="M 19.671875 64.796875 
L 19.671875 8.109375 
L 31.59375 8.109375 
Q 46.6875 8.109375 53.6875 14.9375 
Q 60.6875 21.78125 60.6875 36.53125 
Q 60.6875 51.171875 53.6875 57.984375 
Q 46.6875 64.796875 31.59375 64.796875 
z
M 9.8125 72.90625 
L 30.078125 72.90625 
Q 51.265625 72.90625 61.171875 64.09375 
Q 71.09375 55.28125 71.09375 36.53125 
Q 71.09375 17.671875 61.125 8.828125 
Q 51.171875 0 30.078125 0 
L 9.8125 0 
z
" id="DejaVuSans-68"/>
       <path d="M 9.8125 72.90625 
L 51.703125 72.90625 
L 51.703125 64.59375 
L 19.671875 64.59375 
L 19.671875 43.109375 
L 48.578125 43.109375 
L 48.578125 34.8125 
L 19.671875 34.8125 
L 19.671875 0 
L 9.8125 0 
z
" id="DejaVuSans-70"/>
      </defs>
      <use xlink:href="#DejaVuSans-69"/>
      <use x="63.183594" xlink:href="#DejaVuSans-109"/>
      <use x="160.595703" xlink:href="#DejaVuSans-112"/>
      <use x="224.072266" xlink:href="#DejaVuSans-105"/>
      <use x="251.855469" xlink:href="#DejaVuSans-114"/>
      <use x="292.96875" xlink:href="#DejaVuSans-105"/>
      <use x="320.751953" xlink:href="#DejaVuSans-99"/>
      <use x="375.732422" xlink:href="#DejaVuSans-97"/>
      <use x="437.011719" xlink:href="#DejaVuSans-108"/>
      <use x="464.794922" xlink:href="#DejaVuSans-32"/>
      <use x="496.582031" xlink:href="#DejaVuSans-67"/>
      <use x="566.40625" xlink:href="#DejaVuSans-68"/>
      <use x="643.408203" xlink:href="#DejaVuSans-70"/>
     </g>
    </g>
   </g>
  </g>
 </g>
 <defs>
  <clipPath id="pe52435e408">
   <rect height="326.16" width="669.6" x="108" y="51.84"/>
  </clipPath>
 </defs>
</svg>
