<?xml version="1.0" encoding="utf-8" standalone="no"?>
<!DOCTYPE svg PUBLIC "-//W3C//DTD SVG 1.1//EN"
  "http://www.w3.org/Graphics/SVG/1.1/DTD/svg11.dtd">
<!-- Created with matplotlib (https://matplotlib.org/) -->
<svg height="432pt" version="1.1" viewBox="0 0 864 432" width="864pt" xmlns="http://www.w3.org/2000/svg" xmlns:xlink="http://www.w3.org/1999/xlink">
 <metadata>
  <rdf:RDF xmlns:cc="http://creativecommons.org/ns#" xmlns:dc="http://purl.org/dc/elements/1.1/" xmlns:rdf="http://www.w3.org/1999/02/22-rdf-syntax-ns#">
   <cc:Work>
    <dc:type rdf:resource="http://purl.org/dc/dcmitype/StillImage"/>
    <dc:date>2020-12-27T10:59:37.497559</dc:date>
    <dc:format>image/svg+xml</dc:format>
    <dc:creator>
     <cc:Agent>
      <dc:title>Matplotlib v3.3.3, https://matplotlib.org/</dc:title>
     </cc:Agent>
    </dc:creator>
   </cc:Work>
  </rdf:RDF>
 </metadata>
 <defs>
  <style type="text/css">*{stroke-linecap:butt;stroke-linejoin:round;}</style>
 </defs>
 <g id="figure_1">
  <g id="patch_1">
   <path d="M 0 432 
L 864 432 
L 864 0 
L 0 0 
z
" style="fill:none;"/>
  </g>
  <g id="axes_1">
   <g id="patch_2">
    <path d="M 108 378 
L 777.6 378 
L 777.6 51.84 
L 108 51.84 
z
" style="fill:#ffffff;"/>
   </g>
   <g id="matplotlib.axis_1">
    <g id="xtick_1">
     <g id="line2d_1">
      <path clip-path="url(#p8a1cfb7da4)" d="M 138.371095 378 
L 138.371095 51.84 
" style="fill:none;stroke:#b0b0b0;stroke-linecap:square;stroke-width:0.8;"/>
     </g>
     <g id="line2d_2">
      <defs>
       <path d="M 0 0 
L 0 3.5 
" id="m70c27d7a7e" style="stroke:#000000;stroke-width:0.8;"/>
      </defs>
      <g>
       <use style="stroke:#000000;stroke-width:0.8;" x="138.371095" xlink:href="#m70c27d7a7e" y="378"/>
      </g>
     </g>
     <g id="text_1">
      <!-- 0 -->
      <g transform="translate(135.189845 392.598437)scale(0.1 -0.1)">
       <defs>
        <path d="M 31.78125 66.40625 
Q 24.171875 66.40625 20.328125 58.90625 
Q 16.5 51.421875 16.5 36.375 
Q 16.5 21.390625 20.328125 13.890625 
Q 24.171875 6.390625 31.78125 6.390625 
Q 39.453125 6.390625 43.28125 13.890625 
Q 47.125 21.390625 47.125 36.375 
Q 47.125 51.421875 43.28125 58.90625 
Q 39.453125 66.40625 31.78125 66.40625 
z
M 31.78125 74.21875 
Q 44.046875 74.21875 50.515625 64.515625 
Q 56.984375 54.828125 56.984375 36.375 
Q 56.984375 17.96875 50.515625 8.265625 
Q 44.046875 -1.421875 31.78125 -1.421875 
Q 19.53125 -1.421875 13.0625 8.265625 
Q 6.59375 17.96875 6.59375 36.375 
Q 6.59375 54.828125 13.0625 64.515625 
Q 19.53125 74.21875 31.78125 74.21875 
z
" id="DejaVuSans-48"/>
       </defs>
       <use xlink:href="#DejaVuSans-48"/>
      </g>
     </g>
    </g>
    <g id="xtick_2">
     <g id="line2d_3">
      <path clip-path="url(#p8a1cfb7da4)" d="M 225.395911 378 
L 225.395911 51.84 
" style="fill:none;stroke:#b0b0b0;stroke-linecap:square;stroke-width:0.8;"/>
     </g>
     <g id="line2d_4">
      <g>
       <use style="stroke:#000000;stroke-width:0.8;" x="225.395911" xlink:href="#m70c27d7a7e" y="378"/>
      </g>
     </g>
     <g id="text_2">
      <!-- 100000 -->
      <g transform="translate(206.308411 392.598437)scale(0.1 -0.1)">
       <defs>
        <path d="M 12.40625 8.296875 
L 28.515625 8.296875 
L 28.515625 63.921875 
L 10.984375 60.40625 
L 10.984375 69.390625 
L 28.421875 72.90625 
L 38.28125 72.90625 
L 38.28125 8.296875 
L 54.390625 8.296875 
L 54.390625 0 
L 12.40625 0 
z
" id="DejaVuSans-49"/>
       </defs>
       <use xlink:href="#DejaVuSans-49"/>
       <use x="63.623047" xlink:href="#DejaVuSans-48"/>
       <use x="127.246094" xlink:href="#DejaVuSans-48"/>
       <use x="190.869141" xlink:href="#DejaVuSans-48"/>
       <use x="254.492188" xlink:href="#DejaVuSans-48"/>
       <use x="318.115234" xlink:href="#DejaVuSans-48"/>
      </g>
     </g>
    </g>
    <g id="xtick_3">
     <g id="line2d_5">
      <path clip-path="url(#p8a1cfb7da4)" d="M 312.420726 378 
L 312.420726 51.84 
" style="fill:none;stroke:#b0b0b0;stroke-linecap:square;stroke-width:0.8;"/>
     </g>
     <g id="line2d_6">
      <g>
       <use style="stroke:#000000;stroke-width:0.8;" x="312.420726" xlink:href="#m70c27d7a7e" y="378"/>
      </g>
     </g>
     <g id="text_3">
      <!-- 200000 -->
      <g transform="translate(293.333226 392.598437)scale(0.1 -0.1)">
       <defs>
        <path d="M 19.1875 8.296875 
L 53.609375 8.296875 
L 53.609375 0 
L 7.328125 0 
L 7.328125 8.296875 
Q 12.9375 14.109375 22.625 23.890625 
Q 32.328125 33.6875 34.8125 36.53125 
Q 39.546875 41.84375 41.421875 45.53125 
Q 43.3125 49.21875 43.3125 52.78125 
Q 43.3125 58.59375 39.234375 62.25 
Q 35.15625 65.921875 28.609375 65.921875 
Q 23.96875 65.921875 18.8125 64.3125 
Q 13.671875 62.703125 7.8125 59.421875 
L 7.8125 69.390625 
Q 13.765625 71.78125 18.9375 73 
Q 24.125 74.21875 28.421875 74.21875 
Q 39.75 74.21875 46.484375 68.546875 
Q 53.21875 62.890625 53.21875 53.421875 
Q 53.21875 48.921875 51.53125 44.890625 
Q 49.859375 40.875 45.40625 35.40625 
Q 44.1875 33.984375 37.640625 27.21875 
Q 31.109375 20.453125 19.1875 8.296875 
z
" id="DejaVuSans-50"/>
       </defs>
       <use xlink:href="#DejaVuSans-50"/>
       <use x="63.623047" xlink:href="#DejaVuSans-48"/>
       <use x="127.246094" xlink:href="#DejaVuSans-48"/>
       <use x="190.869141" xlink:href="#DejaVuSans-48"/>
       <use x="254.492188" xlink:href="#DejaVuSans-48"/>
       <use x="318.115234" xlink:href="#DejaVuSans-48"/>
      </g>
     </g>
    </g>
    <g id="xtick_4">
     <g id="line2d_7">
      <path clip-path="url(#p8a1cfb7da4)" d="M 399.445542 378 
L 399.445542 51.84 
" style="fill:none;stroke:#b0b0b0;stroke-linecap:square;stroke-width:0.8;"/>
     </g>
     <g id="line2d_8">
      <g>
       <use style="stroke:#000000;stroke-width:0.8;" x="399.445542" xlink:href="#m70c27d7a7e" y="378"/>
      </g>
     </g>
     <g id="text_4">
      <!-- 300000 -->
      <g transform="translate(380.358042 392.598437)scale(0.1 -0.1)">
       <defs>
        <path d="M 40.578125 39.3125 
Q 47.65625 37.796875 51.625 33 
Q 55.609375 28.21875 55.609375 21.1875 
Q 55.609375 10.40625 48.1875 4.484375 
Q 40.765625 -1.421875 27.09375 -1.421875 
Q 22.515625 -1.421875 17.65625 -0.515625 
Q 12.796875 0.390625 7.625 2.203125 
L 7.625 11.71875 
Q 11.71875 9.328125 16.59375 8.109375 
Q 21.484375 6.890625 26.8125 6.890625 
Q 36.078125 6.890625 40.9375 10.546875 
Q 45.796875 14.203125 45.796875 21.1875 
Q 45.796875 27.640625 41.28125 31.265625 
Q 36.765625 34.90625 28.71875 34.90625 
L 20.21875 34.90625 
L 20.21875 43.015625 
L 29.109375 43.015625 
Q 36.375 43.015625 40.234375 45.921875 
Q 44.09375 48.828125 44.09375 54.296875 
Q 44.09375 59.90625 40.109375 62.90625 
Q 36.140625 65.921875 28.71875 65.921875 
Q 24.65625 65.921875 20.015625 65.03125 
Q 15.375 64.15625 9.8125 62.3125 
L 9.8125 71.09375 
Q 15.4375 72.65625 20.34375 73.4375 
Q 25.25 74.21875 29.59375 74.21875 
Q 40.828125 74.21875 47.359375 69.109375 
Q 53.90625 64.015625 53.90625 55.328125 
Q 53.90625 49.265625 50.4375 45.09375 
Q 46.96875 40.921875 40.578125 39.3125 
z
" id="DejaVuSans-51"/>
       </defs>
       <use xlink:href="#DejaVuSans-51"/>
       <use x="63.623047" xlink:href="#DejaVuSans-48"/>
       <use x="127.246094" xlink:href="#DejaVuSans-48"/>
       <use x="190.869141" xlink:href="#DejaVuSans-48"/>
       <use x="254.492188" xlink:href="#DejaVuSans-48"/>
       <use x="318.115234" xlink:href="#DejaVuSans-48"/>
      </g>
     </g>
    </g>
    <g id="xtick_5">
     <g id="line2d_9">
      <path clip-path="url(#p8a1cfb7da4)" d="M 486.470358 378 
L 486.470358 51.84 
" style="fill:none;stroke:#b0b0b0;stroke-linecap:square;stroke-width:0.8;"/>
     </g>
     <g id="line2d_10">
      <g>
       <use style="stroke:#000000;stroke-width:0.8;" x="486.470358" xlink:href="#m70c27d7a7e" y="378"/>
      </g>
     </g>
     <g id="text_5">
      <!-- 400000 -->
      <g transform="translate(467.382858 392.598437)scale(0.1 -0.1)">
       <defs>
        <path d="M 37.796875 64.3125 
L 12.890625 25.390625 
L 37.796875 25.390625 
z
M 35.203125 72.90625 
L 47.609375 72.90625 
L 47.609375 25.390625 
L 58.015625 25.390625 
L 58.015625 17.1875 
L 47.609375 17.1875 
L 47.609375 0 
L 37.796875 0 
L 37.796875 17.1875 
L 4.890625 17.1875 
L 4.890625 26.703125 
z
" id="DejaVuSans-52"/>
       </defs>
       <use xlink:href="#DejaVuSans-52"/>
       <use x="63.623047" xlink:href="#DejaVuSans-48"/>
       <use x="127.246094" xlink:href="#DejaVuSans-48"/>
       <use x="190.869141" xlink:href="#DejaVuSans-48"/>
       <use x="254.492188" xlink:href="#DejaVuSans-48"/>
       <use x="318.115234" xlink:href="#DejaVuSans-48"/>
      </g>
     </g>
    </g>
    <g id="xtick_6">
     <g id="line2d_11">
      <path clip-path="url(#p8a1cfb7da4)" d="M 573.495174 378 
L 573.495174 51.84 
" style="fill:none;stroke:#b0b0b0;stroke-linecap:square;stroke-width:0.8;"/>
     </g>
     <g id="line2d_12">
      <g>
       <use style="stroke:#000000;stroke-width:0.8;" x="573.495174" xlink:href="#m70c27d7a7e" y="378"/>
      </g>
     </g>
     <g id="text_6">
      <!-- 500000 -->
      <g transform="translate(554.407674 392.598437)scale(0.1 -0.1)">
       <defs>
        <path d="M 10.796875 72.90625 
L 49.515625 72.90625 
L 49.515625 64.59375 
L 19.828125 64.59375 
L 19.828125 46.734375 
Q 21.96875 47.46875 24.109375 47.828125 
Q 26.265625 48.1875 28.421875 48.1875 
Q 40.625 48.1875 47.75 41.5 
Q 54.890625 34.8125 54.890625 23.390625 
Q 54.890625 11.625 47.5625 5.09375 
Q 40.234375 -1.421875 26.90625 -1.421875 
Q 22.3125 -1.421875 17.546875 -0.640625 
Q 12.796875 0.140625 7.71875 1.703125 
L 7.71875 11.625 
Q 12.109375 9.234375 16.796875 8.0625 
Q 21.484375 6.890625 26.703125 6.890625 
Q 35.15625 6.890625 40.078125 11.328125 
Q 45.015625 15.765625 45.015625 23.390625 
Q 45.015625 31 40.078125 35.4375 
Q 35.15625 39.890625 26.703125 39.890625 
Q 22.75 39.890625 18.8125 39.015625 
Q 14.890625 38.140625 10.796875 36.28125 
z
" id="DejaVuSans-53"/>
       </defs>
       <use xlink:href="#DejaVuSans-53"/>
       <use x="63.623047" xlink:href="#DejaVuSans-48"/>
       <use x="127.246094" xlink:href="#DejaVuSans-48"/>
       <use x="190.869141" xlink:href="#DejaVuSans-48"/>
       <use x="254.492188" xlink:href="#DejaVuSans-48"/>
       <use x="318.115234" xlink:href="#DejaVuSans-48"/>
      </g>
     </g>
    </g>
    <g id="xtick_7">
     <g id="line2d_13">
      <path clip-path="url(#p8a1cfb7da4)" d="M 660.519989 378 
L 660.519989 51.84 
" style="fill:none;stroke:#b0b0b0;stroke-linecap:square;stroke-width:0.8;"/>
     </g>
     <g id="line2d_14">
      <g>
       <use style="stroke:#000000;stroke-width:0.8;" x="660.519989" xlink:href="#m70c27d7a7e" y="378"/>
      </g>
     </g>
     <g id="text_7">
      <!-- 600000 -->
      <g transform="translate(641.432489 392.598437)scale(0.1 -0.1)">
       <defs>
        <path d="M 33.015625 40.375 
Q 26.375 40.375 22.484375 35.828125 
Q 18.609375 31.296875 18.609375 23.390625 
Q 18.609375 15.53125 22.484375 10.953125 
Q 26.375 6.390625 33.015625 6.390625 
Q 39.65625 6.390625 43.53125 10.953125 
Q 47.40625 15.53125 47.40625 23.390625 
Q 47.40625 31.296875 43.53125 35.828125 
Q 39.65625 40.375 33.015625 40.375 
z
M 52.59375 71.296875 
L 52.59375 62.3125 
Q 48.875 64.0625 45.09375 64.984375 
Q 41.3125 65.921875 37.59375 65.921875 
Q 27.828125 65.921875 22.671875 59.328125 
Q 17.53125 52.734375 16.796875 39.40625 
Q 19.671875 43.65625 24.015625 45.921875 
Q 28.375 48.1875 33.59375 48.1875 
Q 44.578125 48.1875 50.953125 41.515625 
Q 57.328125 34.859375 57.328125 23.390625 
Q 57.328125 12.15625 50.6875 5.359375 
Q 44.046875 -1.421875 33.015625 -1.421875 
Q 20.359375 -1.421875 13.671875 8.265625 
Q 6.984375 17.96875 6.984375 36.375 
Q 6.984375 53.65625 15.1875 63.9375 
Q 23.390625 74.21875 37.203125 74.21875 
Q 40.921875 74.21875 44.703125 73.484375 
Q 48.484375 72.75 52.59375 71.296875 
z
" id="DejaVuSans-54"/>
       </defs>
       <use xlink:href="#DejaVuSans-54"/>
       <use x="63.623047" xlink:href="#DejaVuSans-48"/>
       <use x="127.246094" xlink:href="#DejaVuSans-48"/>
       <use x="190.869141" xlink:href="#DejaVuSans-48"/>
       <use x="254.492188" xlink:href="#DejaVuSans-48"/>
       <use x="318.115234" xlink:href="#DejaVuSans-48"/>
      </g>
     </g>
    </g>
    <g id="xtick_8">
     <g id="line2d_15">
      <path clip-path="url(#p8a1cfb7da4)" d="M 747.544805 378 
L 747.544805 51.84 
" style="fill:none;stroke:#b0b0b0;stroke-linecap:square;stroke-width:0.8;"/>
     </g>
     <g id="line2d_16">
      <g>
       <use style="stroke:#000000;stroke-width:0.8;" x="747.544805" xlink:href="#m70c27d7a7e" y="378"/>
      </g>
     </g>
     <g id="text_8">
      <!-- 700000 -->
      <g transform="translate(728.457305 392.598437)scale(0.1 -0.1)">
       <defs>
        <path d="M 8.203125 72.90625 
L 55.078125 72.90625 
L 55.078125 68.703125 
L 28.609375 0 
L 18.3125 0 
L 43.21875 64.59375 
L 8.203125 64.59375 
z
" id="DejaVuSans-55"/>
       </defs>
       <use xlink:href="#DejaVuSans-55"/>
       <use x="63.623047" xlink:href="#DejaVuSans-48"/>
       <use x="127.246094" xlink:href="#DejaVuSans-48"/>
       <use x="190.869141" xlink:href="#DejaVuSans-48"/>
       <use x="254.492188" xlink:href="#DejaVuSans-48"/>
       <use x="318.115234" xlink:href="#DejaVuSans-48"/>
      </g>
     </g>
    </g>
    <g id="text_9">
     <!-- Time (s) -->
     <g transform="translate(422.471094 406.276563)scale(0.1 -0.1)">
      <defs>
       <path d="M -0.296875 72.90625 
L 61.375 72.90625 
L 61.375 64.59375 
L 35.5 64.59375 
L 35.5 0 
L 25.59375 0 
L 25.59375 64.59375 
L -0.296875 64.59375 
z
" id="DejaVuSans-84"/>
       <path d="M 9.421875 54.6875 
L 18.40625 54.6875 
L 18.40625 0 
L 9.421875 0 
z
M 9.421875 75.984375 
L 18.40625 75.984375 
L 18.40625 64.59375 
L 9.421875 64.59375 
z
" id="DejaVuSans-105"/>
       <path d="M 52 44.1875 
Q 55.375 50.25 60.0625 53.125 
Q 64.75 56 71.09375 56 
Q 79.640625 56 84.28125 50.015625 
Q 88.921875 44.046875 88.921875 33.015625 
L 88.921875 0 
L 79.890625 0 
L 79.890625 32.71875 
Q 79.890625 40.578125 77.09375 44.375 
Q 74.3125 48.1875 68.609375 48.1875 
Q 61.625 48.1875 57.5625 43.546875 
Q 53.515625 38.921875 53.515625 30.90625 
L 53.515625 0 
L 44.484375 0 
L 44.484375 32.71875 
Q 44.484375 40.625 41.703125 44.40625 
Q 38.921875 48.1875 33.109375 48.1875 
Q 26.21875 48.1875 22.15625 43.53125 
Q 18.109375 38.875 18.109375 30.90625 
L 18.109375 0 
L 9.078125 0 
L 9.078125 54.6875 
L 18.109375 54.6875 
L 18.109375 46.1875 
Q 21.1875 51.21875 25.484375 53.609375 
Q 29.78125 56 35.6875 56 
Q 41.65625 56 45.828125 52.96875 
Q 50 49.953125 52 44.1875 
z
" id="DejaVuSans-109"/>
       <path d="M 56.203125 29.59375 
L 56.203125 25.203125 
L 14.890625 25.203125 
Q 15.484375 15.921875 20.484375 11.0625 
Q 25.484375 6.203125 34.421875 6.203125 
Q 39.59375 6.203125 44.453125 7.46875 
Q 49.3125 8.734375 54.109375 11.28125 
L 54.109375 2.78125 
Q 49.265625 0.734375 44.1875 -0.34375 
Q 39.109375 -1.421875 33.890625 -1.421875 
Q 20.796875 -1.421875 13.15625 6.1875 
Q 5.515625 13.8125 5.515625 26.8125 
Q 5.515625 40.234375 12.765625 48.109375 
Q 20.015625 56 32.328125 56 
Q 43.359375 56 49.78125 48.890625 
Q 56.203125 41.796875 56.203125 29.59375 
z
M 47.21875 32.234375 
Q 47.125 39.59375 43.09375 43.984375 
Q 39.0625 48.390625 32.421875 48.390625 
Q 24.90625 48.390625 20.390625 44.140625 
Q 15.875 39.890625 15.1875 32.171875 
z
" id="DejaVuSans-101"/>
       <path id="DejaVuSans-32"/>
       <path d="M 31 75.875 
Q 24.46875 64.65625 21.28125 53.65625 
Q 18.109375 42.671875 18.109375 31.390625 
Q 18.109375 20.125 21.3125 9.0625 
Q 24.515625 -2 31 -13.1875 
L 23.1875 -13.1875 
Q 15.875 -1.703125 12.234375 9.375 
Q 8.59375 20.453125 8.59375 31.390625 
Q 8.59375 42.28125 12.203125 53.3125 
Q 15.828125 64.359375 23.1875 75.875 
z
" id="DejaVuSans-40"/>
       <path d="M 44.28125 53.078125 
L 44.28125 44.578125 
Q 40.484375 46.53125 36.375 47.5 
Q 32.28125 48.484375 27.875 48.484375 
Q 21.1875 48.484375 17.84375 46.4375 
Q 14.5 44.390625 14.5 40.28125 
Q 14.5 37.15625 16.890625 35.375 
Q 19.28125 33.59375 26.515625 31.984375 
L 29.59375 31.296875 
Q 39.15625 29.25 43.1875 25.515625 
Q 47.21875 21.78125 47.21875 15.09375 
Q 47.21875 7.46875 41.1875 3.015625 
Q 35.15625 -1.421875 24.609375 -1.421875 
Q 20.21875 -1.421875 15.453125 -0.5625 
Q 10.6875 0.296875 5.421875 2 
L 5.421875 11.28125 
Q 10.40625 8.6875 15.234375 7.390625 
Q 20.0625 6.109375 24.8125 6.109375 
Q 31.15625 6.109375 34.5625 8.28125 
Q 37.984375 10.453125 37.984375 14.40625 
Q 37.984375 18.0625 35.515625 20.015625 
Q 33.0625 21.96875 24.703125 23.78125 
L 21.578125 24.515625 
Q 13.234375 26.265625 9.515625 29.90625 
Q 5.8125 33.546875 5.8125 39.890625 
Q 5.8125 47.609375 11.28125 51.796875 
Q 16.75 56 26.8125 56 
Q 31.78125 56 36.171875 55.265625 
Q 40.578125 54.546875 44.28125 53.078125 
z
" id="DejaVuSans-115"/>
       <path d="M 8.015625 75.875 
L 15.828125 75.875 
Q 23.140625 64.359375 26.78125 53.3125 
Q 30.421875 42.28125 30.421875 31.390625 
Q 30.421875 20.453125 26.78125 9.375 
Q 23.140625 -1.703125 15.828125 -13.1875 
L 8.015625 -13.1875 
Q 14.5 -2 17.703125 9.0625 
Q 20.90625 20.125 20.90625 31.390625 
Q 20.90625 42.671875 17.703125 53.65625 
Q 14.5 64.65625 8.015625 75.875 
z
" id="DejaVuSans-41"/>
      </defs>
      <use xlink:href="#DejaVuSans-84"/>
      <use x="57.958984" xlink:href="#DejaVuSans-105"/>
      <use x="85.742188" xlink:href="#DejaVuSans-109"/>
      <use x="183.154297" xlink:href="#DejaVuSans-101"/>
      <use x="244.677734" xlink:href="#DejaVuSans-32"/>
      <use x="276.464844" xlink:href="#DejaVuSans-40"/>
      <use x="315.478516" xlink:href="#DejaVuSans-115"/>
      <use x="367.578125" xlink:href="#DejaVuSans-41"/>
     </g>
    </g>
   </g>
   <g id="matplotlib.axis_2">
    <g id="ytick_1">
     <g id="line2d_17">
      <path clip-path="url(#p8a1cfb7da4)" d="M 108 363.174545 
L 777.6 363.174545 
" style="fill:none;stroke:#b0b0b0;stroke-linecap:square;stroke-width:0.8;"/>
     </g>
     <g id="line2d_18">
      <defs>
       <path d="M 0 0 
L -3.5 0 
" id="m5eadcd7429" style="stroke:#000000;stroke-width:0.8;"/>
      </defs>
      <g>
       <use style="stroke:#000000;stroke-width:0.8;" x="108" xlink:href="#m5eadcd7429" y="363.174545"/>
      </g>
     </g>
     <g id="text_10">
      <!-- 0.0 -->
      <g transform="translate(85.096875 366.973764)scale(0.1 -0.1)">
       <defs>
        <path d="M 10.6875 12.40625 
L 21 12.40625 
L 21 0 
L 10.6875 0 
z
" id="DejaVuSans-46"/>
       </defs>
       <use xlink:href="#DejaVuSans-48"/>
       <use x="63.623047" xlink:href="#DejaVuSans-46"/>
       <use x="95.410156" xlink:href="#DejaVuSans-48"/>
      </g>
     </g>
    </g>
    <g id="ytick_2">
     <g id="line2d_19">
      <path clip-path="url(#p8a1cfb7da4)" d="M 108 303.48 
L 777.6 303.48 
" style="fill:none;stroke:#b0b0b0;stroke-linecap:square;stroke-width:0.8;"/>
     </g>
     <g id="line2d_20">
      <g>
       <use style="stroke:#000000;stroke-width:0.8;" x="108" xlink:href="#m5eadcd7429" y="303.48"/>
      </g>
     </g>
     <g id="text_11">
      <!-- 0.2 -->
      <g transform="translate(85.096875 307.279219)scale(0.1 -0.1)">
       <use xlink:href="#DejaVuSans-48"/>
       <use x="63.623047" xlink:href="#DejaVuSans-46"/>
       <use x="95.410156" xlink:href="#DejaVuSans-50"/>
      </g>
     </g>
    </g>
    <g id="ytick_3">
     <g id="line2d_21">
      <path clip-path="url(#p8a1cfb7da4)" d="M 108 243.785455 
L 777.6 243.785455 
" style="fill:none;stroke:#b0b0b0;stroke-linecap:square;stroke-width:0.8;"/>
     </g>
     <g id="line2d_22">
      <g>
       <use style="stroke:#000000;stroke-width:0.8;" x="108" xlink:href="#m5eadcd7429" y="243.785455"/>
      </g>
     </g>
     <g id="text_12">
      <!-- 0.4 -->
      <g transform="translate(85.096875 247.584673)scale(0.1 -0.1)">
       <use xlink:href="#DejaVuSans-48"/>
       <use x="63.623047" xlink:href="#DejaVuSans-46"/>
       <use x="95.410156" xlink:href="#DejaVuSans-52"/>
      </g>
     </g>
    </g>
    <g id="ytick_4">
     <g id="line2d_23">
      <path clip-path="url(#p8a1cfb7da4)" d="M 108 184.090909 
L 777.6 184.090909 
" style="fill:none;stroke:#b0b0b0;stroke-linecap:square;stroke-width:0.8;"/>
     </g>
     <g id="line2d_24">
      <g>
       <use style="stroke:#000000;stroke-width:0.8;" x="108" xlink:href="#m5eadcd7429" y="184.090909"/>
      </g>
     </g>
     <g id="text_13">
      <!-- 0.6 -->
      <g transform="translate(85.096875 187.890128)scale(0.1 -0.1)">
       <use xlink:href="#DejaVuSans-48"/>
       <use x="63.623047" xlink:href="#DejaVuSans-46"/>
       <use x="95.410156" xlink:href="#DejaVuSans-54"/>
      </g>
     </g>
    </g>
    <g id="ytick_5">
     <g id="line2d_25">
      <path clip-path="url(#p8a1cfb7da4)" d="M 108 124.396364 
L 777.6 124.396364 
" style="fill:none;stroke:#b0b0b0;stroke-linecap:square;stroke-width:0.8;"/>
     </g>
     <g id="line2d_26">
      <g>
       <use style="stroke:#000000;stroke-width:0.8;" x="108" xlink:href="#m5eadcd7429" y="124.396364"/>
      </g>
     </g>
     <g id="text_14">
      <!-- 0.8 -->
      <g transform="translate(85.096875 128.195582)scale(0.1 -0.1)">
       <defs>
        <path d="M 31.78125 34.625 
Q 24.75 34.625 20.71875 30.859375 
Q 16.703125 27.09375 16.703125 20.515625 
Q 16.703125 13.921875 20.71875 10.15625 
Q 24.75 6.390625 31.78125 6.390625 
Q 38.8125 6.390625 42.859375 10.171875 
Q 46.921875 13.96875 46.921875 20.515625 
Q 46.921875 27.09375 42.890625 30.859375 
Q 38.875 34.625 31.78125 34.625 
z
M 21.921875 38.8125 
Q 15.578125 40.375 12.03125 44.71875 
Q 8.5 49.078125 8.5 55.328125 
Q 8.5 64.0625 14.71875 69.140625 
Q 20.953125 74.21875 31.78125 74.21875 
Q 42.671875 74.21875 48.875 69.140625 
Q 55.078125 64.0625 55.078125 55.328125 
Q 55.078125 49.078125 51.53125 44.71875 
Q 48 40.375 41.703125 38.8125 
Q 48.828125 37.15625 52.796875 32.3125 
Q 56.78125 27.484375 56.78125 20.515625 
Q 56.78125 9.90625 50.3125 4.234375 
Q 43.84375 -1.421875 31.78125 -1.421875 
Q 19.734375 -1.421875 13.25 4.234375 
Q 6.78125 9.90625 6.78125 20.515625 
Q 6.78125 27.484375 10.78125 32.3125 
Q 14.796875 37.15625 21.921875 38.8125 
z
M 18.3125 54.390625 
Q 18.3125 48.734375 21.84375 45.5625 
Q 25.390625 42.390625 31.78125 42.390625 
Q 38.140625 42.390625 41.71875 45.5625 
Q 45.3125 48.734375 45.3125 54.390625 
Q 45.3125 60.0625 41.71875 63.234375 
Q 38.140625 66.40625 31.78125 66.40625 
Q 25.390625 66.40625 21.84375 63.234375 
Q 18.3125 60.0625 18.3125 54.390625 
z
" id="DejaVuSans-56"/>
       </defs>
       <use xlink:href="#DejaVuSans-48"/>
       <use x="63.623047" xlink:href="#DejaVuSans-46"/>
       <use x="95.410156" xlink:href="#DejaVuSans-56"/>
      </g>
     </g>
    </g>
    <g id="ytick_6">
     <g id="line2d_27">
      <path clip-path="url(#p8a1cfb7da4)" d="M 108 64.701818 
L 777.6 64.701818 
" style="fill:none;stroke:#b0b0b0;stroke-linecap:square;stroke-width:0.8;"/>
     </g>
     <g id="line2d_28">
      <g>
       <use style="stroke:#000000;stroke-width:0.8;" x="108" xlink:href="#m5eadcd7429" y="64.701818"/>
      </g>
     </g>
     <g id="text_15">
      <!-- 1.0 -->
      <g transform="translate(85.096875 68.501037)scale(0.1 -0.1)">
       <use xlink:href="#DejaVuSans-49"/>
       <use x="63.623047" xlink:href="#DejaVuSans-46"/>
       <use x="95.410156" xlink:href="#DejaVuSans-48"/>
      </g>
     </g>
    </g>
    <g id="text_16">
     <!-- Probability -->
     <g transform="translate(79.017187 241.348906)rotate(-90)scale(0.1 -0.1)">
      <defs>
       <path d="M 19.671875 64.796875 
L 19.671875 37.40625 
L 32.078125 37.40625 
Q 38.96875 37.40625 42.71875 40.96875 
Q 46.484375 44.53125 46.484375 51.125 
Q 46.484375 57.671875 42.71875 61.234375 
Q 38.96875 64.796875 32.078125 64.796875 
z
M 9.8125 72.90625 
L 32.078125 72.90625 
Q 44.34375 72.90625 50.609375 67.359375 
Q 56.890625 61.8125 56.890625 51.125 
Q 56.890625 40.328125 50.609375 34.8125 
Q 44.34375 29.296875 32.078125 29.296875 
L 19.671875 29.296875 
L 19.671875 0 
L 9.8125 0 
z
" id="DejaVuSans-80"/>
       <path d="M 41.109375 46.296875 
Q 39.59375 47.171875 37.8125 47.578125 
Q 36.03125 48 33.890625 48 
Q 26.265625 48 22.1875 43.046875 
Q 18.109375 38.09375 18.109375 28.8125 
L 18.109375 0 
L 9.078125 0 
L 9.078125 54.6875 
L 18.109375 54.6875 
L 18.109375 46.1875 
Q 20.953125 51.171875 25.484375 53.578125 
Q 30.03125 56 36.53125 56 
Q 37.453125 56 38.578125 55.875 
Q 39.703125 55.765625 41.0625 55.515625 
z
" id="DejaVuSans-114"/>
       <path d="M 30.609375 48.390625 
Q 23.390625 48.390625 19.1875 42.75 
Q 14.984375 37.109375 14.984375 27.296875 
Q 14.984375 17.484375 19.15625 11.84375 
Q 23.34375 6.203125 30.609375 6.203125 
Q 37.796875 6.203125 41.984375 11.859375 
Q 46.1875 17.53125 46.1875 27.296875 
Q 46.1875 37.015625 41.984375 42.703125 
Q 37.796875 48.390625 30.609375 48.390625 
z
M 30.609375 56 
Q 42.328125 56 49.015625 48.375 
Q 55.71875 40.765625 55.71875 27.296875 
Q 55.71875 13.875 49.015625 6.21875 
Q 42.328125 -1.421875 30.609375 -1.421875 
Q 18.84375 -1.421875 12.171875 6.21875 
Q 5.515625 13.875 5.515625 27.296875 
Q 5.515625 40.765625 12.171875 48.375 
Q 18.84375 56 30.609375 56 
z
" id="DejaVuSans-111"/>
       <path d="M 48.6875 27.296875 
Q 48.6875 37.203125 44.609375 42.84375 
Q 40.53125 48.484375 33.40625 48.484375 
Q 26.265625 48.484375 22.1875 42.84375 
Q 18.109375 37.203125 18.109375 27.296875 
Q 18.109375 17.390625 22.1875 11.75 
Q 26.265625 6.109375 33.40625 6.109375 
Q 40.53125 6.109375 44.609375 11.75 
Q 48.6875 17.390625 48.6875 27.296875 
z
M 18.109375 46.390625 
Q 20.953125 51.265625 25.265625 53.625 
Q 29.59375 56 35.59375 56 
Q 45.5625 56 51.78125 48.09375 
Q 58.015625 40.1875 58.015625 27.296875 
Q 58.015625 14.40625 51.78125 6.484375 
Q 45.5625 -1.421875 35.59375 -1.421875 
Q 29.59375 -1.421875 25.265625 0.953125 
Q 20.953125 3.328125 18.109375 8.203125 
L 18.109375 0 
L 9.078125 0 
L 9.078125 75.984375 
L 18.109375 75.984375 
z
" id="DejaVuSans-98"/>
       <path d="M 34.28125 27.484375 
Q 23.390625 27.484375 19.1875 25 
Q 14.984375 22.515625 14.984375 16.5 
Q 14.984375 11.71875 18.140625 8.90625 
Q 21.296875 6.109375 26.703125 6.109375 
Q 34.1875 6.109375 38.703125 11.40625 
Q 43.21875 16.703125 43.21875 25.484375 
L 43.21875 27.484375 
z
M 52.203125 31.203125 
L 52.203125 0 
L 43.21875 0 
L 43.21875 8.296875 
Q 40.140625 3.328125 35.546875 0.953125 
Q 30.953125 -1.421875 24.3125 -1.421875 
Q 15.921875 -1.421875 10.953125 3.296875 
Q 6 8.015625 6 15.921875 
Q 6 25.140625 12.171875 29.828125 
Q 18.359375 34.515625 30.609375 34.515625 
L 43.21875 34.515625 
L 43.21875 35.40625 
Q 43.21875 41.609375 39.140625 45 
Q 35.0625 48.390625 27.6875 48.390625 
Q 23 48.390625 18.546875 47.265625 
Q 14.109375 46.140625 10.015625 43.890625 
L 10.015625 52.203125 
Q 14.9375 54.109375 19.578125 55.046875 
Q 24.21875 56 28.609375 56 
Q 40.484375 56 46.34375 49.84375 
Q 52.203125 43.703125 52.203125 31.203125 
z
" id="DejaVuSans-97"/>
       <path d="M 9.421875 75.984375 
L 18.40625 75.984375 
L 18.40625 0 
L 9.421875 0 
z
" id="DejaVuSans-108"/>
       <path d="M 18.3125 70.21875 
L 18.3125 54.6875 
L 36.8125 54.6875 
L 36.8125 47.703125 
L 18.3125 47.703125 
L 18.3125 18.015625 
Q 18.3125 11.328125 20.140625 9.421875 
Q 21.96875 7.515625 27.59375 7.515625 
L 36.8125 7.515625 
L 36.8125 0 
L 27.59375 0 
Q 17.1875 0 13.234375 3.875 
Q 9.28125 7.765625 9.28125 18.015625 
L 9.28125 47.703125 
L 2.6875 47.703125 
L 2.6875 54.6875 
L 9.28125 54.6875 
L 9.28125 70.21875 
z
" id="DejaVuSans-116"/>
       <path d="M 32.171875 -5.078125 
Q 28.375 -14.84375 24.75 -17.8125 
Q 21.140625 -20.796875 15.09375 -20.796875 
L 7.90625 -20.796875 
L 7.90625 -13.28125 
L 13.1875 -13.28125 
Q 16.890625 -13.28125 18.9375 -11.515625 
Q 21 -9.765625 23.484375 -3.21875 
L 25.09375 0.875 
L 2.984375 54.6875 
L 12.5 54.6875 
L 29.59375 11.921875 
L 46.6875 54.6875 
L 56.203125 54.6875 
z
" id="DejaVuSans-121"/>
      </defs>
      <use xlink:href="#DejaVuSans-80"/>
      <use x="58.552734" xlink:href="#DejaVuSans-114"/>
      <use x="97.416016" xlink:href="#DejaVuSans-111"/>
      <use x="158.597656" xlink:href="#DejaVuSans-98"/>
      <use x="222.074219" xlink:href="#DejaVuSans-97"/>
      <use x="283.353516" xlink:href="#DejaVuSans-98"/>
      <use x="346.830078" xlink:href="#DejaVuSans-105"/>
      <use x="374.613281" xlink:href="#DejaVuSans-108"/>
      <use x="402.396484" xlink:href="#DejaVuSans-105"/>
      <use x="430.179688" xlink:href="#DejaVuSans-116"/>
      <use x="469.388672" xlink:href="#DejaVuSans-121"/>
     </g>
    </g>
   </g>
   <g id="line2d_29">
    <path clip-path="url(#p8a1cfb7da4)" d="M 138.436364 66.665455 
L 138.561679 115.756364 
L 138.901076 141.283636 
L 139.027262 145.210909 
L 139.291818 147.174545 
L 139.388415 151.101818 
L 139.871403 153.065455 
L 140.238648 155.029091 
L 140.365704 158.956364 
L 141.101934 164.847273 
L 141.139354 168.774545 
L 141.337771 170.738182 
L 141.371711 172.701818 
L 141.664984 176.629091 
L 141.822499 184.483636 
L 142.662289 186.447273 
L 142.867667 188.410909 
L 144.077312 190.374545 
L 144.730869 192.338182 
L 144.960614 198.229091 
L 145.695104 200.192727 
L 145.946605 202.156364 
L 146.060608 204.12 
L 146.812502 206.083636 
L 146.864717 208.047273 
L 147.392958 210.010909 
L 149.361459 211.974545 
L 149.923639 213.938182 
L 151.542301 215.901818 
L 152.314211 219.829091 
L 153.985087 223.756364 
L 154.949322 225.72 
L 155.374874 227.683636 
L 155.933573 229.647273 
L 156.093699 233.574545 
L 158.185775 235.538182 
L 160.984493 237.501818 
L 163.212329 239.465455 
L 163.375935 241.429091 
L 165.642062 243.392727 
L 168.369419 245.356364 
L 169.531201 247.32 
L 171.657217 249.283636 
L 171.858244 251.247273 
L 173.108791 253.210909 
L 173.346368 255.174545 
L 173.446447 257.138182 
L 175.218272 259.101818 
L 177.601882 261.065455 
L 177.802039 263.029091 
L 178.290248 264.992727 
L 178.43819 266.956364 
L 178.465168 268.92 
L 179.527741 270.883636 
L 180.731294 272.847273 
L 180.916657 274.810909 
L 181.410088 276.774545 
L 182.654543 278.738182 
L 187.856886 280.701818 
L 189.603474 282.665455 
L 193.174973 284.629091 
L 196.078121 286.592727 
L 196.513245 288.556364 
L 199.452943 290.52 
L 201.498026 292.483636 
L 204.006952 294.447273 
L 205.281865 296.410909 
L 205.33582 298.374545 
L 206.752584 300.338182 
L 207.217297 302.301818 
L 208.324253 304.265455 
L 209.060483 308.192727 
L 211.841796 310.156364 
L 214.114884 314.083636 
L 217.196433 316.047273 
L 219.942936 318.010909 
L 220.074343 319.974545 
L 225.298443 321.938182 
L 233.667619 323.901818 
L 259.185906 325.865455 
L 276.235808 329.792727 
L 281.237124 331.756364 
L 284.592801 333.72 
L 293.457149 335.683636 
L 300.397378 337.647273 
L 304.217767 339.610909 
L 305.6998 341.574545 
L 308.175656 343.538182 
L 309.126837 345.501818 
L 314.961851 347.465455 
L 327.939862 349.429091 
L 349.575101 351.392727 
L 353.435522 353.356364 
L 421.665588 355.32 
L 423.010122 357.283636 
L 425.030838 359.247273 
L 456.164836 361.210909 
L 467.782649 363.174545 
L 467.782649 363.174545 
" style="fill:none;stroke:#1f77b4;stroke-linecap:square;stroke-width:1.5;"/>
   </g>
   <g id="line2d_30">
    <path clip-path="url(#p8a1cfb7da4)" d="M 138.438104 66.880451 
L 138.505113 106.095846 
L 138.569512 112.631745 
L 138.66872 123.52491 
L 138.858434 134.418076 
L 139.015949 136.596709 
L 139.052499 138.775342 
L 139.217846 140.953975 
L 139.243084 143.132608 
L 139.516342 145.311241 
L 139.590313 147.489874 
L 140.207319 149.668507 
L 140.390071 154.025773 
L 141.182867 156.204406 
L 141.337771 158.383039 
L 141.367359 160.561672 
L 141.697183 162.740305 
L 141.726772 164.918938 
L 142.151453 169.276204 
L 142.950341 173.63347 
L 144.093847 175.812104 
L 144.722166 177.990737 
L 144.73522 180.16937 
L 144.950171 182.348003 
L 145.333951 184.526636 
L 145.679439 188.883902 
L 146.10499 193.241168 
L 146.907359 195.419801 
L 147.36685 197.598434 
L 154.938009 204.134333 
L 155.99188 206.312966 
L 156.092828 208.491599 
L 157.426049 210.670232 
L 158.1675 212.848865 
L 160.390984 217.206131 
L 160.876583 219.384764 
L 161.067167 223.742031 
L 163.189702 225.920664 
L 165.650764 228.099297 
L 168.410321 230.27793 
L 169.532071 232.456563 
L 170.974942 234.635196 
L 171.639812 236.813829 
L 171.664179 238.992462 
L 171.901757 241.171095 
L 173.366384 243.349728 
L 173.967726 245.528361 
L 175.178241 247.706994 
L 177.599271 249.885627 
L 178.311134 252.06426 
L 178.451244 254.242893 
L 178.473871 256.421526 
L 180.50416 260.778792 
L 180.835724 265.136058 
L 182.603198 267.314691 
L 187.373899 269.493324 
L 189.55213 271.671958 
L 196.49584 273.850591 
L 198.071859 276.029224 
L 198.480876 278.207857 
L 199.448592 280.38649 
L 201.343992 282.565123 
L 201.498026 284.743756 
L 203.999119 289.101022 
L 205.272292 291.279655 
L 205.323637 293.458288 
L 207.196411 295.636921 
L 208.279 297.815554 
L 209.031764 299.994187 
L 210.821865 302.17282 
L 212.959194 306.530086 
L 215.307124 308.708719 
L 217.181638 310.887352 
L 219.925531 313.065985 
L 220.076954 315.244618 
L 220.87062 317.423251 
L 225.231434 319.601885 
L 233.647604 321.780518 
L 245.822375 323.959151 
L 270.305067 326.137784 
L 273.883527 328.316417 
L 276.254954 330.49505 
L 280.002242 332.673683 
L 281.197093 334.852316 
L 284.773813 337.030949 
L 305.606683 339.209582 
L 307.703111 341.388215 
L 308.159991 343.566848 
L 308.794402 345.745481 
L 314.939225 347.924114 
L 345.574571 350.102747 
L 349.352318 352.28138 
L 421.675161 354.460013 
L 422.970961 356.638646 
L 425.015174 358.817279 
L 456.187463 360.995912 
L 609.00565 363.174545 
L 609.00565 363.174545 
" style="fill:none;stroke:#ff7f0e;stroke-linecap:square;stroke-width:1.5;"/>
   </g>
   <g id="line2d_31">
    <path clip-path="url(#p8a1cfb7da4)" d="M 138.437234 67.415207 
L 138.440715 70.128595 
L 138.443326 72.841983 
L 138.443326 75.555372 
L 138.443326 78.26876 
L 138.444196 80.982149 
L 138.444196 83.695537 
L 138.445066 86.408926 
L 138.445066 89.122314 
L 138.45812 91.835702 
L 138.463341 94.549091 
L 138.463341 97.262479 
L 138.473784 99.975868 
L 138.479876 102.689256 
L 138.482487 105.402645 
L 138.560809 108.116033 
L 138.63565 110.829421 
L 138.673941 113.54281 
L 138.680903 116.256198 
L 138.689606 118.969587 
L 138.762707 121.682975 
L 138.771409 124.396364 
L 138.77489 127.109752 
L 139.005506 129.82314 
L 139.056851 132.536529 
L 139.906213 135.249917 
L 140.279549 137.963306 
L 140.373536 140.676694 
L 140.567601 143.390083 
L 140.728597 146.103471 
L 140.908739 148.81686 
L 141.172424 151.530248 
L 141.354306 154.243636 
L 141.710237 156.957025 
L 141.717199 159.670413 
L 144.719555 162.383802 
L 144.758716 165.09719 
L 144.957133 167.810579 
L 145.951827 170.523967 
L 146.044073 173.237355 
L 146.540985 175.950744 
L 146.882122 178.664132 
L 147.362499 181.377521 
L 147.8568 184.090909 
L 149.894921 186.804298 
L 150.850454 189.517686 
L 152.3116 192.231074 
L 153.066105 194.944463 
L 154.55336 197.657851 
L 155.987528 200.37124 
L 158.176203 203.084628 
L 159.441543 205.798017 
L 160.941851 208.511405 
L 163.174038 211.224793 
L 165.650764 213.938182 
L 168.088329 216.65157 
L 168.319815 219.364959 
L 171.63198 222.078347 
L 171.837358 224.791736 
L 174.882356 227.505124 
L 175.220883 230.218512 
L 175.967556 232.931901 
L 177.587958 235.645289 
L 178.106626 238.358678 
L 178.113588 241.072066 
L 178.305042 243.785455 
L 178.443412 246.498843 
L 178.468649 249.212231 
L 179.500763 251.92562 
L 179.90804 254.639008 
L 180.495457 257.352397 
L 180.89316 260.065785 
L 183.986893 262.779174 
L 198.061416 265.492562 
L 198.091005 268.20595 
L 198.473044 270.919339 
L 199.44163 273.632727 
L 203.960828 276.346116 
L 205.307973 279.059504 
L 207.19119 281.772893 
L 208.31642 284.486281 
L 209.024802 287.199669 
L 211.935782 289.913058 
L 212.55975 292.626446 
L 215.584733 295.339835 
L 219.917699 298.053223 
L 220.070862 300.766612 
L 221.958431 303.48 
L 225.281908 306.193388 
L 232.271741 308.906777 
L 258.514945 311.620165 
L 270.251982 314.333554 
L 270.775001 317.046942 
L 278.615937 319.760331 
L 281.114419 322.473719 
L 301.453859 325.187107 
L 305.646715 327.900496 
L 307.703111 330.613884 
L 308.150419 333.327273 
L 314.931392 336.040661 
L 349.546383 338.75405 
L 350.874382 341.467438 
L 355.518896 344.180826 
L 382.769847 346.894215 
L 422.997938 349.607603 
L 422.998809 352.320992 
L 425.00386 355.03438 
L 453.286925 357.747769 
L 456.192684 360.461157 
L 704.898294 363.174545 
" style="fill:none;stroke:#2ca02c;stroke-linecap:square;stroke-width:1.5;"/>
   </g>
   <g id="line2d_32">
    <path clip-path="url(#p8a1cfb7da4)" d="M 138.436364 67.34317 
L 138.437234 69.984521 
L 138.438974 72.625873 
L 138.439845 75.267224 
L 138.442455 77.908576 
L 138.442455 80.549928 
L 138.445936 83.191279 
L 138.446807 85.832631 
L 138.448547 88.473982 
L 138.455509 91.115334 
L 138.455509 93.756685 
L 138.466822 96.398037 
L 138.471174 99.039389 
L 138.479876 101.68074 
L 138.489449 104.322092 
L 138.508594 106.963443 
L 138.546015 109.604795 
L 138.548626 112.246146 
L 138.566031 114.887498 
L 138.67046 117.52885 
L 138.680903 120.170201 
L 138.691346 122.811553 
L 138.743561 125.452904 
L 138.747042 128.094256 
L 138.787944 130.735607 
L 138.941978 133.376959 
L 138.989841 136.018311 
L 139.619031 138.659662 
L 139.913175 141.301014 
L 140.280419 143.942365 
L 140.373536 146.583717 
L 140.573693 149.225068 
L 140.720765 151.86642 
L 141.136744 154.507772 
L 141.366489 157.149123 
L 141.71981 159.790475 
L 141.744177 162.431826 
L 142.896385 165.073178 
L 144.642973 167.714529 
L 144.764808 170.355881 
L 144.948431 172.997233 
L 145.937903 175.638584 
L 146.075402 178.279936 
L 146.445257 180.921287 
L 146.568833 183.562639 
L 146.881252 186.20399 
L 147.017881 188.845342 
L 147.387736 191.486693 
L 147.861151 194.128045 
L 149.899272 196.769397 
L 150.798239 199.410748 
L 151.764214 202.0521 
L 153.091343 204.693451 
L 154.606445 207.334803 
L 155.968383 209.976154 
L 158.16837 212.617506 
L 159.46591 215.258858 
L 160.97318 217.900209 
L 163.188832 220.541561 
L 165.628138 223.182912 
L 168.118788 225.824264 
L 168.376381 228.465615 
L 171.411807 231.106967 
L 171.665919 233.748319 
L 171.859114 236.38967 
L 172.469158 239.031022 
L 174.888448 241.672373 
L 175.181722 244.313725 
L 177.593179 246.955076 
L 178.103145 249.596428 
L 178.303302 252.23778 
L 178.428618 254.879131 
L 179.412868 257.520483 
L 180.481533 260.161834 
L 180.840075 262.803186 
L 183.980801 265.444537 
L 198.115372 268.085889 
L 198.121463 270.727241 
L 198.473044 273.368592 
L 199.436408 276.009944 
L 203.93124 278.651295 
L 205.310583 281.292647 
L 207.061523 283.933998 
L 207.207724 286.57535 
L 209.056131 289.216702 
L 211.840055 291.858053 
L 212.554529 294.499405 
L 215.654353 297.140756 
L 219.932493 299.782108 
L 220.069992 302.423459 
L 220.812314 305.064811 
L 221.970614 307.706163 
L 225.241007 310.347514 
L 232.270871 312.988866 
L 261.610418 315.630217 
L 270.776741 318.271569 
L 278.616807 320.91292 
L 281.030875 323.554272 
L 305.62844 326.195623 
L 307.62827 328.836975 
L 308.163472 331.478327 
L 314.954889 334.119678 
L 349.371463 336.76103 
L 350.858717 339.402381 
L 355.511934 342.043733 
L 382.777679 344.685084 
L 421.662107 347.326436 
L 422.989236 349.967788 
L 422.990976 352.609139 
L 425.014303 355.250491 
L 453.252986 357.891842 
L 456.182241 360.533194 
L 704.944417 363.174545 
" style="fill:none;stroke:#d62728;stroke-linecap:square;stroke-width:1.5;"/>
   </g>
   <g id="line2d_33">
    <path clip-path="url(#p8a1cfb7da4)" d="M 138.436364 67.366753 
L 138.438104 70.031688 
L 138.438974 72.696623 
L 138.444196 75.361558 
L 138.448547 78.026494 
L 138.462471 80.691429 
L 138.465082 83.356364 
L 138.470303 86.021299 
L 138.486838 88.686234 
L 138.49293 91.351169 
L 138.538183 94.016104 
L 138.543404 96.681039 
L 138.573863 99.345974 
L 138.680903 102.010909 
L 138.680903 104.675844 
L 138.693087 107.340779 
L 138.760096 110.005714 
L 138.803608 112.670649 
L 138.834937 115.335584 
L 138.989841 118.000519 
L 138.998544 120.665455 
L 139.282245 123.33039 
L 139.623382 125.995325 
L 139.639047 128.66026 
L 139.904472 131.325195 
L 140.174249 133.99013 
L 140.28303 136.655065 
L 140.378758 139.32 
L 140.504073 141.984935 
L 140.564991 144.64987 
L 140.725987 147.314805 
L 141.136744 149.97974 
L 141.346473 152.644675 
L 141.680649 155.30961 
L 141.717199 157.974545 
L 141.89647 160.639481 
L 142.52566 163.304416 
L 142.918142 165.969351 
L 144.70128 168.634286 
L 144.743922 171.299221 
L 144.956263 173.964156 
L 145.950956 176.629091 
L 146.484419 179.294026 
L 146.529671 181.958961 
L 147.357277 184.623896 
L 149.873165 187.288831 
L 150.834789 189.953766 
L 152.383831 192.618701 
L 153.055662 195.283636 
L 153.884139 197.948571 
L 154.541176 200.613506 
L 156.050186 203.278442 
L 158.153576 205.943377 
L 159.4311 208.608312 
L 160.954905 211.273247 
L 163.152282 213.938182 
L 165.63684 216.603117 
L 167.455659 219.268052 
L 168.077016 221.932987 
L 169.28492 224.597922 
L 171.644163 227.262857 
L 171.820823 229.927792 
L 174.882356 232.592727 
L 175.21044 235.257662 
L 177.592309 237.922597 
L 178.029174 240.587532 
L 178.097923 243.252468 
L 178.287637 245.917403 
L 178.432099 248.582338 
L 178.463428 251.247273 
L 179.444197 253.912208 
L 180.234383 256.577143 
L 180.484144 259.242078 
L 180.630346 261.907013 
L 183.986893 264.571948 
L 186.897003 267.236883 
L 198.048362 269.901818 
L 198.086653 272.566753 
L 199.434668 275.231688 
L 203.951256 277.896623 
L 205.286216 280.561558 
L 207.197281 283.226494 
L 209.013489 285.891429 
L 211.916637 288.556364 
L 212.565842 291.221299 
L 215.582993 293.886234 
L 219.92379 296.551169 
L 220.06129 299.216104 
L 221.958431 301.881039 
L 225.237526 304.545974 
L 227.794315 307.210909 
L 232.285665 309.875844 
L 270.252852 312.540779 
L 270.768039 315.205714 
L 278.642914 317.870649 
L 281.032616 320.535584 
L 290.114526 323.200519 
L 307.690928 325.865455 
L 308.135625 328.53039 
L 314.918339 331.195325 
L 349.330562 333.86026 
L 350.862198 336.525195 
L 355.510194 339.19013 
L 375.095999 341.855065 
L 382.823802 344.52 
L 421.645573 347.184935 
L 422.96922 349.84987 
L 423.009252 352.514805 
L 424.987326 355.17974 
L 453.278223 357.844675 
L 456.192684 360.50961 
L 468.165558 363.174545 
" style="fill:none;stroke:#9467bd;stroke-linecap:square;stroke-width:1.5;"/>
   </g>
   <g id="line2d_34">
    <path clip-path="url(#p8a1cfb7da4)" d="M 138.436364 67.209992 
L 138.439845 69.718167 
L 138.444196 72.226341 
L 138.445066 74.734515 
L 138.448547 77.242689 
L 138.448547 79.750863 
L 138.452898 82.259037 
L 138.452898 84.767212 
L 138.453769 87.275386 
L 138.454639 89.78356 
L 138.454639 92.291734 
L 138.45725 94.799908 
L 138.45812 97.308083 
L 138.45812 99.816257 
L 138.45986 102.324431 
L 138.45986 104.832605 
L 138.461601 107.340779 
L 138.463341 109.848953 
L 138.463341 112.357128 
L 138.465082 114.865302 
L 138.466822 117.373476 
L 138.467693 119.88165 
L 138.467693 122.389824 
L 138.468563 124.897998 
L 138.470303 127.406173 
L 138.476395 129.914347 
L 138.479006 132.422521 
L 138.484227 134.930695 
L 138.484227 137.438869 
L 138.486838 139.947044 
L 138.489449 142.455218 
L 138.49206 144.963392 
L 138.497281 147.471566 
L 138.569512 149.97974 
L 138.579955 152.487914 
L 138.581695 154.996089 
L 138.585176 157.504263 
L 138.59997 160.012437 
L 138.806219 162.520611 
L 139.032484 165.028785 
L 139.046408 167.53696 
L 140.225594 170.045134 
L 140.685085 172.553308 
L 141.134133 175.061482 
L 141.19418 177.569656 
L 141.363878 180.07783 
L 141.671946 182.586005 
L 141.705886 185.094179 
L 141.977403 187.602353 
L 142.229775 190.110527 
L 142.543065 192.618701 
L 143.549942 195.126875 
L 144.389731 197.63505 
L 144.753495 200.143224 
L 144.789175 202.651398 
L 144.963225 205.159572 
L 144.997164 207.667746 
L 145.483633 210.175921 
L 145.960529 212.684095 
L 149.102125 215.192269 
L 149.937563 217.700443 
L 151.64586 220.208617 
L 152.314211 222.716791 
L 153.2915 225.224966 
L 155.786501 227.73314 
L 155.999712 230.241314 
L 160.934889 232.749488 
L 161.544063 235.257662 
L 163.093105 237.765837 
L 165.716033 240.274011 
L 169.195285 242.782185 
L 171.654606 245.290359 
L 175.397543 247.798533 
L 175.535043 250.306707 
L 177.527911 252.814882 
L 177.597531 255.323056 
L 178.338112 257.83123 
L 178.451244 260.339404 
L 178.497367 262.847578 
L 179.464213 265.355752 
L 179.531222 267.863927 
L 180.530267 270.372101 
L 180.627735 272.880275 
L 180.867923 275.388449 
L 181.482318 277.896623 
L 191.752987 280.404798 
L 192.276877 282.912972 
L 196.152962 285.421146 
L 196.889192 287.92932 
L 198.18151 290.437494 
L 198.35382 292.945668 
L 203.996509 295.453843 
L 205.354966 297.962017 
L 209.029154 300.470191 
L 210.452009 302.978365 
L 211.860071 305.486539 
L 215.734416 307.994714 
L 219.929012 310.502888 
L 220.101321 313.011062 
L 227.365282 315.519236 
L 276.03217 318.02741 
L 281.018692 320.535584 
L 281.060464 323.043759 
L 290.460014 325.551933 
L 298.216536 328.060107 
L 305.607554 330.568281 
L 308.177396 333.076455 
L 309.150334 335.584629 
L 332.73841 338.092804 
L 342.437326 340.600978 
L 350.906581 343.109152 
L 360.192999 345.617326 
L 376.04718 348.1255 
L 421.677772 350.633675 
L 421.690826 353.141849 
L 425.012563 355.650023 
L 608.138012 358.158197 
L 694.71465 360.666371 
L 747.163636 363.174545 
" style="fill:none;stroke:#8c564b;stroke-linecap:square;stroke-width:1.5;"/>
   </g>
   <g id="line2d_35">
    <path clip-path="url(#p8a1cfb7da4)" d="M 138.438104 67.231248 
L 138.438104 69.760678 
L 138.438104 72.290108 
L 138.438974 74.819538 
L 138.438974 77.348968 
L 138.439845 79.878398 
L 138.439845 82.407827 
L 138.441585 84.937257 
L 138.446807 87.466687 
L 138.446807 89.996117 
L 138.446807 92.525547 
L 138.448547 95.054977 
L 138.448547 97.584407 
L 138.448547 100.113837 
L 138.451158 102.643267 
L 138.451158 105.172696 
L 138.452898 107.702126 
L 138.452898 110.231556 
L 138.453769 112.760986 
L 138.455509 115.290416 
L 138.45986 117.819846 
L 138.462471 120.349276 
L 138.463341 122.878706 
L 138.472914 125.408136 
L 138.474655 127.937565 
L 138.478136 130.466995 
L 138.482487 132.996425 
L 138.483357 135.525855 
L 138.49293 138.055285 
L 138.4938 140.584715 
L 138.541664 143.114145 
L 138.542534 145.643575 
L 138.566031 148.173005 
L 138.568641 150.702435 
L 138.578214 153.231864 
L 138.583436 155.761294 
L 138.5991 158.290724 
L 138.603451 160.820154 
L 138.604322 163.349584 
L 138.795776 165.879014 
L 138.961994 168.408444 
L 139.01943 170.937874 
L 139.045537 173.467304 
L 140.752964 175.996733 
L 141.182867 178.526163 
L 141.183737 181.055593 
L 141.356916 183.585023 
L 141.664984 186.114453 
L 141.726772 188.643883 
L 141.972182 191.173313 
L 142.217592 193.702743 
L 142.535232 196.232173 
L 143.536888 198.761602 
L 144.468054 201.291032 
L 144.70041 203.820462 
L 144.740441 206.349892 
L 144.956263 208.879322 
L 145.048509 211.408752 
L 145.959659 213.938182 
L 149.171745 216.467612 
L 149.916677 218.997042 
L 151.720702 221.526471 
L 152.395144 224.055901 
L 153.281057 226.585331 
L 156.011025 229.114761 
L 160.956645 231.644191 
L 161.531009 234.173621 
L 163.080051 236.703051 
L 163.203626 239.232481 
L 165.681223 241.761911 
L 169.176139 244.291341 
L 171.641552 246.82077 
L 175.38623 249.3502 
L 177.504414 251.87963 
L 177.590569 254.40906 
L 177.66454 256.93849 
L 178.329409 259.46792 
L 178.449504 261.99735 
L 179.45203 264.52678 
L 179.478137 267.05621 
L 180.533748 269.585639 
L 180.826151 272.115069 
L 181.595451 274.644499 
L 191.752117 277.173929 
L 192.273396 279.703359 
L 196.138168 282.232789 
L 198.036179 284.762219 
L 198.380797 287.291649 
L 203.989547 289.821079 
L 205.336691 292.350508 
L 209.01784 294.879938 
L 210.443307 297.409368 
L 211.852239 299.938798 
L 215.590825 302.468228 
L 219.935104 304.997658 
L 220.09871 307.527088 
L 220.76358 310.056518 
L 227.306105 312.585948 
L 239.153664 315.115378 
L 276.037392 317.644807 
L 280.991714 320.174237 
L 281.063945 322.703667 
L 290.460014 325.233097 
L 305.607554 327.762527 
L 308.163472 330.291957 
L 309.13728 332.821387 
L 324.168206 335.350817 
L 332.792366 337.880247 
L 333.645209 340.409676 
L 349.340134 342.939106 
L 350.887436 345.468536 
L 356.738984 347.997966 
L 376.032386 350.527396 
L 421.675161 353.056826 
L 421.683864 355.586256 
L 608.100592 358.115686 
L 694.696375 360.645116 
L 747.147972 363.174545 
" style="fill:none;stroke:#e377c2;stroke-linecap:square;stroke-width:1.5;"/>
   </g>
   <g id="line2d_36">
    <path clip-path="url(#p8a1cfb7da4)" d="M 138.436364 67.465455 
L 138.437234 70.229091 
L 138.437234 72.992727 
L 138.439845 75.756364 
L 138.440715 78.52 
L 138.440715 81.283636 
L 138.440715 84.047273 
L 138.440715 86.810909 
L 138.441585 89.574545 
L 138.447677 92.338182 
L 138.448547 95.101818 
L 138.451158 97.865455 
L 138.452028 100.629091 
L 138.456379 103.392727 
L 138.45986 106.156364 
L 138.461601 108.92 
L 138.463341 111.683636 
L 138.465082 114.447273 
L 138.465952 117.210909 
L 138.473784 119.974545 
L 138.477265 122.738182 
L 138.483357 125.501818 
L 138.483357 128.265455 
L 138.484227 131.029091 
L 138.485968 133.792727 
L 138.486838 136.556364 
L 138.487708 139.32 
L 138.489449 142.083636 
L 138.559069 144.847273 
L 138.573863 147.610909 
L 138.593879 150.374545 
L 138.802738 153.138182 
L 139.014208 155.901818 
L 139.737385 158.665455 
L 140.300435 161.429091 
L 140.398773 164.192727 
L 140.718154 166.956364 
L 141.141965 169.72 
L 141.353435 172.483636 
L 141.678038 175.247273 
L 141.728512 178.010909 
L 141.89647 180.774545 
L 142.52566 183.538182 
L 142.533492 186.301818 
L 142.84243 189.065455 
L 144.703021 191.829091 
L 144.73435 194.592727 
L 144.951041 197.356364 
L 145.946605 200.12 
L 147.374682 202.883636 
L 149.907975 205.647273 
L 150.931387 208.410909 
L 152.349021 211.174545 
L 154.708264 213.938182 
L 155.649002 216.701818 
L 156.005804 219.465455 
L 158.190127 222.229091 
L 158.539096 224.992727 
L 160.941851 227.756364 
L 163.184481 230.52 
L 165.669039 233.283636 
L 167.594898 236.047273 
L 171.636331 238.810909 
L 171.825175 241.574545 
L 177.591439 244.338182 
L 178.320707 247.101818 
L 178.443412 249.865455 
L 179.469434 252.629091 
L 180.518084 255.392727 
L 180.863572 258.156364 
L 190.011621 260.92 
L 196.119022 263.683636 
L 198.148441 266.447273 
L 199.461645 269.210909 
L 199.924617 271.974545 
L 203.982585 274.738182 
L 205.327118 277.501818 
L 207.194671 280.265455 
L 208.342528 283.029091 
L 209.019581 285.792727 
L 211.96189 288.556364 
L 215.603878 291.32 
L 219.917699 294.083636 
L 220.089137 296.847273 
L 220.741824 299.610909 
L 220.899339 302.374545 
L 221.984538 305.138182 
L 225.240136 307.901818 
L 233.626718 310.665455 
L 242.536318 313.429091 
L 268.224304 316.192727 
L 270.817643 318.956364 
L 281.057853 321.72 
L 305.607554 324.483636 
L 307.669172 327.247273 
L 308.157381 330.010909 
L 314.929652 332.774545 
L 348.101771 335.538182 
L 349.544643 338.301818 
L 350.891787 341.065455 
L 382.769847 343.829091 
L 421.664718 346.592727 
L 423.010992 349.356364 
L 425.011693 352.12 
L 426.696493 354.883636 
L 456.188333 357.647273 
L 695.498744 360.410909 
L 731.740228 363.174545 
" style="fill:none;stroke:#7f7f7f;stroke-linecap:square;stroke-width:1.5;"/>
   </g>
   <g id="patch_3">
    <path d="M 108 378 
L 108 51.84 
" style="fill:none;stroke:#000000;stroke-linecap:square;stroke-linejoin:miter;stroke-width:0.8;"/>
   </g>
   <g id="patch_4">
    <path d="M 777.6 378 
L 777.6 51.84 
" style="fill:none;stroke:#000000;stroke-linecap:square;stroke-linejoin:miter;stroke-width:0.8;"/>
   </g>
   <g id="patch_5">
    <path d="M 108 378 
L 777.6 378 
" style="fill:none;stroke:#000000;stroke-linecap:square;stroke-linejoin:miter;stroke-width:0.8;"/>
   </g>
   <g id="patch_6">
    <path d="M 108 51.84 
L 777.6 51.84 
" style="fill:none;stroke:#000000;stroke-linecap:square;stroke-linejoin:miter;stroke-width:0.8;"/>
   </g>
   <g id="legend_1">
    <g id="patch_7">
     <path d="M 617.232813 177.265 
L 770.6 177.265 
Q 772.6 177.265 772.6 175.265 
L 772.6 58.84 
Q 772.6 56.84 770.6 56.84 
L 617.232813 56.84 
Q 615.232813 56.84 615.232813 58.84 
L 615.232813 175.265 
Q 615.232813 177.265 617.232813 177.265 
z
" style="fill:#ffffff;opacity:0.8;stroke:#cccccc;stroke-linejoin:miter;"/>
    </g>
    <g id="line2d_37">
     <path d="M 619.232813 64.938437 
L 639.232813 64.938437 
" style="fill:none;stroke:#1f77b4;stroke-linecap:square;stroke-width:1.5;"/>
    </g>
    <g id="line2d_38"/>
    <g id="text_17">
     <!-- Empirical Reliability R63 -->
     <g transform="translate(647.232813 68.438437)scale(0.1 -0.1)">
      <defs>
       <path d="M 9.8125 72.90625 
L 55.90625 72.90625 
L 55.90625 64.59375 
L 19.671875 64.59375 
L 19.671875 43.015625 
L 54.390625 43.015625 
L 54.390625 34.71875 
L 19.671875 34.71875 
L 19.671875 8.296875 
L 56.78125 8.296875 
L 56.78125 0 
L 9.8125 0 
z
" id="DejaVuSans-69"/>
       <path d="M 18.109375 8.203125 
L 18.109375 -20.796875 
L 9.078125 -20.796875 
L 9.078125 54.6875 
L 18.109375 54.6875 
L 18.109375 46.390625 
Q 20.953125 51.265625 25.265625 53.625 
Q 29.59375 56 35.59375 56 
Q 45.5625 56 51.78125 48.09375 
Q 58.015625 40.1875 58.015625 27.296875 
Q 58.015625 14.40625 51.78125 6.484375 
Q 45.5625 -1.421875 35.59375 -1.421875 
Q 29.59375 -1.421875 25.265625 0.953125 
Q 20.953125 3.328125 18.109375 8.203125 
z
M 48.6875 27.296875 
Q 48.6875 37.203125 44.609375 42.84375 
Q 40.53125 48.484375 33.40625 48.484375 
Q 26.265625 48.484375 22.1875 42.84375 
Q 18.109375 37.203125 18.109375 27.296875 
Q 18.109375 17.390625 22.1875 11.75 
Q 26.265625 6.109375 33.40625 6.109375 
Q 40.53125 6.109375 44.609375 11.75 
Q 48.6875 17.390625 48.6875 27.296875 
z
" id="DejaVuSans-112"/>
       <path d="M 48.78125 52.59375 
L 48.78125 44.1875 
Q 44.96875 46.296875 41.140625 47.34375 
Q 37.3125 48.390625 33.40625 48.390625 
Q 24.65625 48.390625 19.8125 42.84375 
Q 14.984375 37.3125 14.984375 27.296875 
Q 14.984375 17.28125 19.8125 11.734375 
Q 24.65625 6.203125 33.40625 6.203125 
Q 37.3125 6.203125 41.140625 7.25 
Q 44.96875 8.296875 48.78125 10.40625 
L 48.78125 2.09375 
Q 45.015625 0.34375 40.984375 -0.53125 
Q 36.96875 -1.421875 32.421875 -1.421875 
Q 20.0625 -1.421875 12.78125 6.34375 
Q 5.515625 14.109375 5.515625 27.296875 
Q 5.515625 40.671875 12.859375 48.328125 
Q 20.21875 56 33.015625 56 
Q 37.15625 56 41.109375 55.140625 
Q 45.0625 54.296875 48.78125 52.59375 
z
" id="DejaVuSans-99"/>
       <path d="M 44.390625 34.1875 
Q 47.5625 33.109375 50.5625 29.59375 
Q 53.5625 26.078125 56.59375 19.921875 
L 66.609375 0 
L 56 0 
L 46.6875 18.703125 
Q 43.0625 26.03125 39.671875 28.421875 
Q 36.28125 30.8125 30.421875 30.8125 
L 19.671875 30.8125 
L 19.671875 0 
L 9.8125 0 
L 9.8125 72.90625 
L 32.078125 72.90625 
Q 44.578125 72.90625 50.734375 67.671875 
Q 56.890625 62.453125 56.890625 51.90625 
Q 56.890625 45.015625 53.6875 40.46875 
Q 50.484375 35.9375 44.390625 34.1875 
z
M 19.671875 64.796875 
L 19.671875 38.921875 
L 32.078125 38.921875 
Q 39.203125 38.921875 42.84375 42.21875 
Q 46.484375 45.515625 46.484375 51.90625 
Q 46.484375 58.296875 42.84375 61.546875 
Q 39.203125 64.796875 32.078125 64.796875 
z
" id="DejaVuSans-82"/>
      </defs>
      <use xlink:href="#DejaVuSans-69"/>
      <use x="63.183594" xlink:href="#DejaVuSans-109"/>
      <use x="160.595703" xlink:href="#DejaVuSans-112"/>
      <use x="224.072266" xlink:href="#DejaVuSans-105"/>
      <use x="251.855469" xlink:href="#DejaVuSans-114"/>
      <use x="292.96875" xlink:href="#DejaVuSans-105"/>
      <use x="320.751953" xlink:href="#DejaVuSans-99"/>
      <use x="375.732422" xlink:href="#DejaVuSans-97"/>
      <use x="437.011719" xlink:href="#DejaVuSans-108"/>
      <use x="464.794922" xlink:href="#DejaVuSans-32"/>
      <use x="496.582031" xlink:href="#DejaVuSans-82"/>
      <use x="561.564453" xlink:href="#DejaVuSans-101"/>
      <use x="623.087891" xlink:href="#DejaVuSans-108"/>
      <use x="650.871094" xlink:href="#DejaVuSans-105"/>
      <use x="678.654297" xlink:href="#DejaVuSans-97"/>
      <use x="739.933594" xlink:href="#DejaVuSans-98"/>
      <use x="803.410156" xlink:href="#DejaVuSans-105"/>
      <use x="831.193359" xlink:href="#DejaVuSans-108"/>
      <use x="858.976562" xlink:href="#DejaVuSans-105"/>
      <use x="886.759766" xlink:href="#DejaVuSans-116"/>
      <use x="925.96875" xlink:href="#DejaVuSans-121"/>
      <use x="985.148438" xlink:href="#DejaVuSans-32"/>
      <use x="1016.935547" xlink:href="#DejaVuSans-82"/>
      <use x="1086.417969" xlink:href="#DejaVuSans-54"/>
      <use x="1150.041016" xlink:href="#DejaVuSans-51"/>
     </g>
    </g>
    <g id="line2d_39">
     <path d="M 619.232813 79.616562 
L 639.232813 79.616562 
" style="fill:none;stroke:#ff7f0e;stroke-linecap:square;stroke-width:1.5;"/>
    </g>
    <g id="line2d_40"/>
    <g id="text_18">
     <!-- Empirical Reliability R62 -->
     <g transform="translate(647.232813 83.116562)scale(0.1 -0.1)">
      <use xlink:href="#DejaVuSans-69"/>
      <use x="63.183594" xlink:href="#DejaVuSans-109"/>
      <use x="160.595703" xlink:href="#DejaVuSans-112"/>
      <use x="224.072266" xlink:href="#DejaVuSans-105"/>
      <use x="251.855469" xlink:href="#DejaVuSans-114"/>
      <use x="292.96875" xlink:href="#DejaVuSans-105"/>
      <use x="320.751953" xlink:href="#DejaVuSans-99"/>
      <use x="375.732422" xlink:href="#DejaVuSans-97"/>
      <use x="437.011719" xlink:href="#DejaVuSans-108"/>
      <use x="464.794922" xlink:href="#DejaVuSans-32"/>
      <use x="496.582031" xlink:href="#DejaVuSans-82"/>
      <use x="561.564453" xlink:href="#DejaVuSans-101"/>
      <use x="623.087891" xlink:href="#DejaVuSans-108"/>
      <use x="650.871094" xlink:href="#DejaVuSans-105"/>
      <use x="678.654297" xlink:href="#DejaVuSans-97"/>
      <use x="739.933594" xlink:href="#DejaVuSans-98"/>
      <use x="803.410156" xlink:href="#DejaVuSans-105"/>
      <use x="831.193359" xlink:href="#DejaVuSans-108"/>
      <use x="858.976562" xlink:href="#DejaVuSans-105"/>
      <use x="886.759766" xlink:href="#DejaVuSans-116"/>
      <use x="925.96875" xlink:href="#DejaVuSans-121"/>
      <use x="985.148438" xlink:href="#DejaVuSans-32"/>
      <use x="1016.935547" xlink:href="#DejaVuSans-82"/>
      <use x="1086.417969" xlink:href="#DejaVuSans-54"/>
      <use x="1150.041016" xlink:href="#DejaVuSans-50"/>
     </g>
    </g>
    <g id="line2d_41">
     <path d="M 619.232813 94.294687 
L 639.232813 94.294687 
" style="fill:none;stroke:#2ca02c;stroke-linecap:square;stroke-width:1.5;"/>
    </g>
    <g id="line2d_42"/>
    <g id="text_19">
     <!-- Empirical Reliability R57 -->
     <g transform="translate(647.232813 97.794687)scale(0.1 -0.1)">
      <use xlink:href="#DejaVuSans-69"/>
      <use x="63.183594" xlink:href="#DejaVuSans-109"/>
      <use x="160.595703" xlink:href="#DejaVuSans-112"/>
      <use x="224.072266" xlink:href="#DejaVuSans-105"/>
      <use x="251.855469" xlink:href="#DejaVuSans-114"/>
      <use x="292.96875" xlink:href="#DejaVuSans-105"/>
      <use x="320.751953" xlink:href="#DejaVuSans-99"/>
      <use x="375.732422" xlink:href="#DejaVuSans-97"/>
      <use x="437.011719" xlink:href="#DejaVuSans-108"/>
      <use x="464.794922" xlink:href="#DejaVuSans-32"/>
      <use x="496.582031" xlink:href="#DejaVuSans-82"/>
      <use x="561.564453" xlink:href="#DejaVuSans-101"/>
      <use x="623.087891" xlink:href="#DejaVuSans-108"/>
      <use x="650.871094" xlink:href="#DejaVuSans-105"/>
      <use x="678.654297" xlink:href="#DejaVuSans-97"/>
      <use x="739.933594" xlink:href="#DejaVuSans-98"/>
      <use x="803.410156" xlink:href="#DejaVuSans-105"/>
      <use x="831.193359" xlink:href="#DejaVuSans-108"/>
      <use x="858.976562" xlink:href="#DejaVuSans-105"/>
      <use x="886.759766" xlink:href="#DejaVuSans-116"/>
      <use x="925.96875" xlink:href="#DejaVuSans-121"/>
      <use x="985.148438" xlink:href="#DejaVuSans-32"/>
      <use x="1016.935547" xlink:href="#DejaVuSans-82"/>
      <use x="1086.417969" xlink:href="#DejaVuSans-53"/>
      <use x="1150.041016" xlink:href="#DejaVuSans-55"/>
     </g>
    </g>
    <g id="line2d_43">
     <path d="M 619.232813 108.972812 
L 639.232813 108.972812 
" style="fill:none;stroke:#d62728;stroke-linecap:square;stroke-width:1.5;"/>
    </g>
    <g id="line2d_44"/>
    <g id="text_20">
     <!-- Empirical Reliability R56 -->
     <g transform="translate(647.232813 112.472812)scale(0.1 -0.1)">
      <use xlink:href="#DejaVuSans-69"/>
      <use x="63.183594" xlink:href="#DejaVuSans-109"/>
      <use x="160.595703" xlink:href="#DejaVuSans-112"/>
      <use x="224.072266" xlink:href="#DejaVuSans-105"/>
      <use x="251.855469" xlink:href="#DejaVuSans-114"/>
      <use x="292.96875" xlink:href="#DejaVuSans-105"/>
      <use x="320.751953" xlink:href="#DejaVuSans-99"/>
      <use x="375.732422" xlink:href="#DejaVuSans-97"/>
      <use x="437.011719" xlink:href="#DejaVuSans-108"/>
      <use x="464.794922" xlink:href="#DejaVuSans-32"/>
      <use x="496.582031" xlink:href="#DejaVuSans-82"/>
      <use x="561.564453" xlink:href="#DejaVuSans-101"/>
      <use x="623.087891" xlink:href="#DejaVuSans-108"/>
      <use x="650.871094" xlink:href="#DejaVuSans-105"/>
      <use x="678.654297" xlink:href="#DejaVuSans-97"/>
      <use x="739.933594" xlink:href="#DejaVuSans-98"/>
      <use x="803.410156" xlink:href="#DejaVuSans-105"/>
      <use x="831.193359" xlink:href="#DejaVuSans-108"/>
      <use x="858.976562" xlink:href="#DejaVuSans-105"/>
      <use x="886.759766" xlink:href="#DejaVuSans-116"/>
      <use x="925.96875" xlink:href="#DejaVuSans-121"/>
      <use x="985.148438" xlink:href="#DejaVuSans-32"/>
      <use x="1016.935547" xlink:href="#DejaVuSans-82"/>
      <use x="1086.417969" xlink:href="#DejaVuSans-53"/>
      <use x="1150.041016" xlink:href="#DejaVuSans-54"/>
     </g>
    </g>
    <g id="line2d_45">
     <path d="M 619.232813 123.650937 
L 639.232813 123.650937 
" style="fill:none;stroke:#9467bd;stroke-linecap:square;stroke-width:1.5;"/>
    </g>
    <g id="line2d_46"/>
    <g id="text_21">
     <!-- Empirical Reliability R46 -->
     <g transform="translate(647.232813 127.150937)scale(0.1 -0.1)">
      <use xlink:href="#DejaVuSans-69"/>
      <use x="63.183594" xlink:href="#DejaVuSans-109"/>
      <use x="160.595703" xlink:href="#DejaVuSans-112"/>
      <use x="224.072266" xlink:href="#DejaVuSans-105"/>
      <use x="251.855469" xlink:href="#DejaVuSans-114"/>
      <use x="292.96875" xlink:href="#DejaVuSans-105"/>
      <use x="320.751953" xlink:href="#DejaVuSans-99"/>
      <use x="375.732422" xlink:href="#DejaVuSans-97"/>
      <use x="437.011719" xlink:href="#DejaVuSans-108"/>
      <use x="464.794922" xlink:href="#DejaVuSans-32"/>
      <use x="496.582031" xlink:href="#DejaVuSans-82"/>
      <use x="561.564453" xlink:href="#DejaVuSans-101"/>
      <use x="623.087891" xlink:href="#DejaVuSans-108"/>
      <use x="650.871094" xlink:href="#DejaVuSans-105"/>
      <use x="678.654297" xlink:href="#DejaVuSans-97"/>
      <use x="739.933594" xlink:href="#DejaVuSans-98"/>
      <use x="803.410156" xlink:href="#DejaVuSans-105"/>
      <use x="831.193359" xlink:href="#DejaVuSans-108"/>
      <use x="858.976562" xlink:href="#DejaVuSans-105"/>
      <use x="886.759766" xlink:href="#DejaVuSans-116"/>
      <use x="925.96875" xlink:href="#DejaVuSans-121"/>
      <use x="985.148438" xlink:href="#DejaVuSans-32"/>
      <use x="1016.935547" xlink:href="#DejaVuSans-82"/>
      <use x="1086.417969" xlink:href="#DejaVuSans-52"/>
      <use x="1150.041016" xlink:href="#DejaVuSans-54"/>
     </g>
    </g>
    <g id="line2d_47">
     <path d="M 619.232813 138.329062 
L 639.232813 138.329062 
" style="fill:none;stroke:#8c564b;stroke-linecap:square;stroke-width:1.5;"/>
    </g>
    <g id="line2d_48"/>
    <g id="text_22">
     <!-- Empirical Reliability R03 -->
     <g transform="translate(647.232813 141.829062)scale(0.1 -0.1)">
      <use xlink:href="#DejaVuSans-69"/>
      <use x="63.183594" xlink:href="#DejaVuSans-109"/>
      <use x="160.595703" xlink:href="#DejaVuSans-112"/>
      <use x="224.072266" xlink:href="#DejaVuSans-105"/>
      <use x="251.855469" xlink:href="#DejaVuSans-114"/>
      <use x="292.96875" xlink:href="#DejaVuSans-105"/>
      <use x="320.751953" xlink:href="#DejaVuSans-99"/>
      <use x="375.732422" xlink:href="#DejaVuSans-97"/>
      <use x="437.011719" xlink:href="#DejaVuSans-108"/>
      <use x="464.794922" xlink:href="#DejaVuSans-32"/>
      <use x="496.582031" xlink:href="#DejaVuSans-82"/>
      <use x="561.564453" xlink:href="#DejaVuSans-101"/>
      <use x="623.087891" xlink:href="#DejaVuSans-108"/>
      <use x="650.871094" xlink:href="#DejaVuSans-105"/>
      <use x="678.654297" xlink:href="#DejaVuSans-97"/>
      <use x="739.933594" xlink:href="#DejaVuSans-98"/>
      <use x="803.410156" xlink:href="#DejaVuSans-105"/>
      <use x="831.193359" xlink:href="#DejaVuSans-108"/>
      <use x="858.976562" xlink:href="#DejaVuSans-105"/>
      <use x="886.759766" xlink:href="#DejaVuSans-116"/>
      <use x="925.96875" xlink:href="#DejaVuSans-121"/>
      <use x="985.148438" xlink:href="#DejaVuSans-32"/>
      <use x="1016.935547" xlink:href="#DejaVuSans-82"/>
      <use x="1086.417969" xlink:href="#DejaVuSans-48"/>
      <use x="1150.041016" xlink:href="#DejaVuSans-51"/>
     </g>
    </g>
    <g id="line2d_49">
     <path d="M 619.232813 153.007187 
L 639.232813 153.007187 
" style="fill:none;stroke:#e377c2;stroke-linecap:square;stroke-width:1.5;"/>
    </g>
    <g id="line2d_50"/>
    <g id="text_23">
     <!-- Empirical Reliability R12 -->
     <g transform="translate(647.232813 156.507187)scale(0.1 -0.1)">
      <use xlink:href="#DejaVuSans-69"/>
      <use x="63.183594" xlink:href="#DejaVuSans-109"/>
      <use x="160.595703" xlink:href="#DejaVuSans-112"/>
      <use x="224.072266" xlink:href="#DejaVuSans-105"/>
      <use x="251.855469" xlink:href="#DejaVuSans-114"/>
      <use x="292.96875" xlink:href="#DejaVuSans-105"/>
      <use x="320.751953" xlink:href="#DejaVuSans-99"/>
      <use x="375.732422" xlink:href="#DejaVuSans-97"/>
      <use x="437.011719" xlink:href="#DejaVuSans-108"/>
      <use x="464.794922" xlink:href="#DejaVuSans-32"/>
      <use x="496.582031" xlink:href="#DejaVuSans-82"/>
      <use x="561.564453" xlink:href="#DejaVuSans-101"/>
      <use x="623.087891" xlink:href="#DejaVuSans-108"/>
      <use x="650.871094" xlink:href="#DejaVuSans-105"/>
      <use x="678.654297" xlink:href="#DejaVuSans-97"/>
      <use x="739.933594" xlink:href="#DejaVuSans-98"/>
      <use x="803.410156" xlink:href="#DejaVuSans-105"/>
      <use x="831.193359" xlink:href="#DejaVuSans-108"/>
      <use x="858.976562" xlink:href="#DejaVuSans-105"/>
      <use x="886.759766" xlink:href="#DejaVuSans-116"/>
      <use x="925.96875" xlink:href="#DejaVuSans-121"/>
      <use x="985.148438" xlink:href="#DejaVuSans-32"/>
      <use x="1016.935547" xlink:href="#DejaVuSans-82"/>
      <use x="1086.417969" xlink:href="#DejaVuSans-49"/>
      <use x="1150.041016" xlink:href="#DejaVuSans-50"/>
     </g>
    </g>
    <g id="line2d_51">
     <path d="M 619.232813 167.685312 
L 639.232813 167.685312 
" style="fill:none;stroke:#7f7f7f;stroke-linecap:square;stroke-width:1.5;"/>
    </g>
    <g id="line2d_52"/>
    <g id="text_24">
     <!-- Empirical Reliability R71 -->
     <g transform="translate(647.232813 171.185312)scale(0.1 -0.1)">
      <use xlink:href="#DejaVuSans-69"/>
      <use x="63.183594" xlink:href="#DejaVuSans-109"/>
      <use x="160.595703" xlink:href="#DejaVuSans-112"/>
      <use x="224.072266" xlink:href="#DejaVuSans-105"/>
      <use x="251.855469" xlink:href="#DejaVuSans-114"/>
      <use x="292.96875" xlink:href="#DejaVuSans-105"/>
      <use x="320.751953" xlink:href="#DejaVuSans-99"/>
      <use x="375.732422" xlink:href="#DejaVuSans-97"/>
      <use x="437.011719" xlink:href="#DejaVuSans-108"/>
      <use x="464.794922" xlink:href="#DejaVuSans-32"/>
      <use x="496.582031" xlink:href="#DejaVuSans-82"/>
      <use x="561.564453" xlink:href="#DejaVuSans-101"/>
      <use x="623.087891" xlink:href="#DejaVuSans-108"/>
      <use x="650.871094" xlink:href="#DejaVuSans-105"/>
      <use x="678.654297" xlink:href="#DejaVuSans-97"/>
      <use x="739.933594" xlink:href="#DejaVuSans-98"/>
      <use x="803.410156" xlink:href="#DejaVuSans-105"/>
      <use x="831.193359" xlink:href="#DejaVuSans-108"/>
      <use x="858.976562" xlink:href="#DejaVuSans-105"/>
      <use x="886.759766" xlink:href="#DejaVuSans-116"/>
      <use x="925.96875" xlink:href="#DejaVuSans-121"/>
      <use x="985.148438" xlink:href="#DejaVuSans-32"/>
      <use x="1016.935547" xlink:href="#DejaVuSans-82"/>
      <use x="1086.417969" xlink:href="#DejaVuSans-55"/>
      <use x="1150.041016" xlink:href="#DejaVuSans-49"/>
     </g>
    </g>
   </g>
  </g>
 </g>
 <defs>
  <clipPath id="p8a1cfb7da4">
   <rect height="326.16" width="669.6" x="108" y="51.84"/>
  </clipPath>
 </defs>
</svg>
