<?xml version="1.0" encoding="utf-8" standalone="no"?>
<!DOCTYPE svg PUBLIC "-//W3C//DTD SVG 1.1//EN"
  "http://www.w3.org/Graphics/SVG/1.1/DTD/svg11.dtd">
<!-- Created with matplotlib (https://matplotlib.org/) -->
<svg height="1080pt" version="1.1" viewBox="0 0 432 1080" width="432pt" xmlns="http://www.w3.org/2000/svg" xmlns:xlink="http://www.w3.org/1999/xlink">
 <metadata>
  <rdf:RDF xmlns:cc="http://creativecommons.org/ns#" xmlns:dc="http://purl.org/dc/elements/1.1/" xmlns:rdf="http://www.w3.org/1999/02/22-rdf-syntax-ns#">
   <cc:Work>
    <dc:type rdf:resource="http://purl.org/dc/dcmitype/StillImage"/>
    <dc:date>2020-12-26T17:59:02.601359</dc:date>
    <dc:format>image/svg+xml</dc:format>
    <dc:creator>
     <cc:Agent>
      <dc:title>Matplotlib v3.3.3, https://matplotlib.org/</dc:title>
     </cc:Agent>
    </dc:creator>
   </cc:Work>
  </rdf:RDF>
 </metadata>
 <defs>
  <style type="text/css">*{stroke-linecap:butt;stroke-linejoin:round;}</style>
 </defs>
 <g id="figure_1">
  <g id="patch_1">
   <path d="M 0 1080 
L 432 1080 
L 432 0 
L 0 0 
z
" style="fill:none;"/>
  </g>
  <g id="axes_1">
   <g id="patch_2">
    <path d="M 54 945 
L 388.8 945 
L 388.8 129.6 
L 54 129.6 
z
" style="fill:#ffffff;"/>
   </g>
   <g id="patch_3">
    <path clip-path="url(#pd24a3e7fe2)" d="M 54 941.814844 
L 153.221049 941.814844 
L 153.221049 938.629688 
L 54 938.629688 
z
" style="fill:#1f77b4;"/>
   </g>
   <g id="patch_4">
    <path clip-path="url(#pd24a3e7fe2)" d="M 54 929.074219 
L 151.622619 929.074219 
L 151.622619 925.889063 
L 54 925.889063 
z
" style="fill:#1f77b4;"/>
   </g>
   <g id="patch_5">
    <path clip-path="url(#pd24a3e7fe2)" d="M 54 916.333594 
L 155.9443 916.333594 
L 155.9443 913.148438 
L 54 913.148438 
z
" style="fill:#1f77b4;"/>
   </g>
   <g id="patch_6">
    <path clip-path="url(#pd24a3e7fe2)" d="M 54 903.592969 
L 150.616201 903.592969 
L 150.616201 900.407812 
L 54 900.407812 
z
" style="fill:#1f77b4;"/>
   </g>
   <g id="patch_7">
    <path clip-path="url(#pd24a3e7fe2)" d="M 54 890.852344 
L 151.326614 890.852344 
L 151.326614 887.667188 
L 54 887.667188 
z
" style="fill:#1f77b4;"/>
   </g>
   <g id="patch_8">
    <path clip-path="url(#pd24a3e7fe2)" d="M 54 878.111719 
L 149.49138 878.111719 
L 149.49138 874.926563 
L 54 874.926563 
z
" style="fill:#1f77b4;"/>
   </g>
   <g id="patch_9">
    <path clip-path="url(#pd24a3e7fe2)" d="M 54 865.371094 
L 149.076972 865.371094 
L 149.076972 862.185938 
L 54 862.185938 
z
" style="fill:#1f77b4;"/>
   </g>
   <g id="patch_10">
    <path clip-path="url(#pd24a3e7fe2)" d="M 54 852.630469 
L 149.964989 852.630469 
L 149.964989 849.445312 
L 54 849.445312 
z
" style="fill:#1f77b4;"/>
   </g>
   <g id="patch_11">
    <path clip-path="url(#pd24a3e7fe2)" d="M 54 839.889844 
L 149.609782 839.889844 
L 149.609782 836.704687 
L 54 836.704687 
z
" style="fill:#1f77b4;"/>
   </g>
   <g id="patch_12">
    <path clip-path="url(#pd24a3e7fe2)" d="M 54 827.149219 
L 148.544162 827.149219 
L 148.544162 823.964063 
L 54 823.964063 
z
" style="fill:#1f77b4;"/>
   </g>
   <g id="patch_13">
    <path clip-path="url(#pd24a3e7fe2)" d="M 54 814.408594 
L 147.952151 814.408594 
L 147.952151 811.223438 
L 54 811.223438 
z
" style="fill:#1f77b4;"/>
   </g>
   <g id="patch_14">
    <path clip-path="url(#pd24a3e7fe2)" d="M 54 801.667969 
L 147.419341 801.667969 
L 147.419341 798.482813 
L 54 798.482813 
z
" style="fill:#1f77b4;"/>
   </g>
   <g id="patch_15">
    <path clip-path="url(#pd24a3e7fe2)" d="M 54 788.927344 
L 148.188955 788.927344 
L 148.188955 785.742188 
L 54 785.742188 
z
" style="fill:#1f77b4;"/>
   </g>
   <g id="patch_16">
    <path clip-path="url(#pd24a3e7fe2)" d="M 54 776.186719 
L 148.307358 776.186719 
L 148.307358 773.001562 
L 54 773.001562 
z
" style="fill:#1f77b4;"/>
   </g>
   <g id="patch_17">
    <path clip-path="url(#pd24a3e7fe2)" d="M 54 763.446094 
L 148.42576 763.446094 
L 148.42576 760.260938 
L 54 760.260938 
z
" style="fill:#1f77b4;"/>
   </g>
   <g id="patch_18">
    <path clip-path="url(#pd24a3e7fe2)" d="M 54 750.705469 
L 148.188955 750.705469 
L 148.188955 747.520313 
L 54 747.520313 
z
" style="fill:#1f77b4;"/>
   </g>
   <g id="patch_19">
    <path clip-path="url(#pd24a3e7fe2)" d="M 54 737.964844 
L 151.208212 737.964844 
L 151.208212 734.779688 
L 54 734.779688 
z
" style="fill:#1f77b4;"/>
   </g>
   <g id="patch_20">
    <path clip-path="url(#pd24a3e7fe2)" d="M 54 725.224219 
L 150.912206 725.224219 
L 150.912206 722.039062 
L 54 722.039062 
z
" style="fill:#1f77b4;"/>
   </g>
   <g id="patch_21">
    <path clip-path="url(#pd24a3e7fe2)" d="M 54 712.483594 
L 151.326614 712.483594 
L 151.326614 709.298437 
L 54 709.298437 
z
" style="fill:#1f77b4;"/>
   </g>
   <g id="patch_22">
    <path clip-path="url(#pd24a3e7fe2)" d="M 54 699.742969 
L 150.971407 699.742969 
L 150.971407 696.557813 
L 54 696.557813 
z
" style="fill:#1f77b4;"/>
   </g>
   <g id="patch_23">
    <path clip-path="url(#pd24a3e7fe2)" d="M 54 687.002344 
L 151.859424 687.002344 
L 151.859424 683.817188 
L 54 683.817188 
z
" style="fill:#1f77b4;"/>
   </g>
   <g id="patch_24">
    <path clip-path="url(#pd24a3e7fe2)" d="M 54 674.261719 
L 151.800223 674.261719 
L 151.800223 671.076563 
L 54 671.076563 
z
" style="fill:#1f77b4;"/>
   </g>
   <g id="patch_25">
    <path clip-path="url(#pd24a3e7fe2)" d="M 54 661.521094 
L 150.912206 661.521094 
L 150.912206 658.335938 
L 54 658.335938 
z
" style="fill:#1f77b4;"/>
   </g>
   <g id="patch_26">
    <path clip-path="url(#pd24a3e7fe2)" d="M 54 648.780469 
L 151.504217 648.780469 
L 151.504217 645.595312 
L 54 645.595312 
z
" style="fill:#1f77b4;"/>
   </g>
   <g id="patch_27">
    <path clip-path="url(#pd24a3e7fe2)" d="M 54 636.039844 
L 149.964989 636.039844 
L 149.964989 632.854688 
L 54 632.854688 
z
" style="fill:#1f77b4;"/>
   </g>
   <g id="patch_28">
    <path clip-path="url(#pd24a3e7fe2)" d="M 54 623.299219 
L 150.083391 623.299219 
L 150.083391 620.114063 
L 54 620.114063 
z
" style="fill:#1f77b4;"/>
   </g>
   <g id="patch_29">
    <path clip-path="url(#pd24a3e7fe2)" d="M 54 610.558594 
L 148.662564 610.558594 
L 148.662564 607.373438 
L 54 607.373438 
z
" style="fill:#1f77b4;"/>
   </g>
   <g id="patch_30">
    <path clip-path="url(#pd24a3e7fe2)" d="M 54 597.817969 
L 150.438597 597.817969 
L 150.438597 594.632812 
L 54 594.632812 
z
" style="fill:#1f77b4;"/>
   </g>
   <g id="patch_31">
    <path clip-path="url(#pd24a3e7fe2)" d="M 54 585.077344 
L 151.385815 585.077344 
L 151.385815 581.892187 
L 54 581.892187 
z
" style="fill:#1f77b4;"/>
   </g>
   <g id="patch_32">
    <path clip-path="url(#pd24a3e7fe2)" d="M 54 572.336719 
L 150.971407 572.336719 
L 150.971407 569.151563 
L 54 569.151563 
z
" style="fill:#1f77b4;"/>
   </g>
   <g id="patch_33">
    <path clip-path="url(#pd24a3e7fe2)" d="M 54 559.596094 
L 150.675402 559.596094 
L 150.675402 556.410938 
L 54 556.410938 
z
" style="fill:#1f77b4;"/>
   </g>
   <g id="patch_34">
    <path clip-path="url(#pd24a3e7fe2)" d="M 54 546.855469 
L 150.083391 546.855469 
L 150.083391 543.670313 
L 54 543.670313 
z
" style="fill:#1f77b4;"/>
   </g>
   <g id="patch_35">
    <path clip-path="url(#pd24a3e7fe2)" d="M 54 534.114844 
L 137.059148 534.114844 
L 137.059148 530.929688 
L 54 530.929688 
z
" style="fill:#1f77b4;"/>
   </g>
   <g id="patch_36">
    <path clip-path="url(#pd24a3e7fe2)" d="M 54 521.374219 
L 137.236751 521.374219 
L 137.236751 518.189062 
L 54 518.189062 
z
" style="fill:#1f77b4;"/>
   </g>
   <g id="patch_37">
    <path clip-path="url(#pd24a3e7fe2)" d="M 54 508.633594 
L 136.703941 508.633594 
L 136.703941 505.448438 
L 54 505.448438 
z
" style="fill:#1f77b4;"/>
   </g>
   <g id="patch_38">
    <path clip-path="url(#pd24a3e7fe2)" d="M 54 495.892969 
L 136.289534 495.892969 
L 136.289534 492.707813 
L 54 492.707813 
z
" style="fill:#1f77b4;"/>
   </g>
   <g id="patch_39">
    <path clip-path="url(#pd24a3e7fe2)" d="M 54 483.152344 
L 137.887964 483.152344 
L 137.887964 479.967188 
L 54 479.967188 
z
" style="fill:#1f77b4;"/>
   </g>
   <g id="patch_40">
    <path clip-path="url(#pd24a3e7fe2)" d="M 54 470.411719 
L 136.881545 470.411719 
L 136.881545 467.226562 
L 54 467.226562 
z
" style="fill:#1f77b4;"/>
   </g>
   <g id="patch_41">
    <path clip-path="url(#pd24a3e7fe2)" d="M 54 457.671094 
L 139.071986 457.671094 
L 139.071986 454.485937 
L 54 454.485937 
z
" style="fill:#1f77b4;"/>
   </g>
   <g id="patch_42">
    <path clip-path="url(#pd24a3e7fe2)" d="M 54 444.930469 
L 140.137605 444.930469 
L 140.137605 441.745313 
L 54 441.745313 
z
" style="fill:#1f77b4;"/>
   </g>
   <g id="patch_43">
    <path clip-path="url(#pd24a3e7fe2)" d="M 54 432.189844 
L 143.334465 432.189844 
L 143.334465 429.004688 
L 54 429.004688 
z
" style="fill:#1f77b4;"/>
   </g>
   <g id="patch_44">
    <path clip-path="url(#pd24a3e7fe2)" d="M 54 419.449219 
L 142.150443 419.449219 
L 142.150443 416.264063 
L 54 416.264063 
z
" style="fill:#1f77b4;"/>
   </g>
   <g id="patch_45">
    <path clip-path="url(#pd24a3e7fe2)" d="M 54 406.708594 
L 136.171132 406.708594 
L 136.171132 403.523438 
L 54 403.523438 
z
" style="fill:#1f77b4;"/>
   </g>
   <g id="patch_46">
    <path clip-path="url(#pd24a3e7fe2)" d="M 54 393.967969 
L 138.479975 393.967969 
L 138.479975 390.782812 
L 54 390.782812 
z
" style="fill:#1f77b4;"/>
   </g>
   <g id="patch_47">
    <path clip-path="url(#pd24a3e7fe2)" d="M 54 381.227344 
L 142.564851 381.227344 
L 142.564851 378.042188 
L 54 378.042188 
z
" style="fill:#1f77b4;"/>
   </g>
   <g id="patch_48">
    <path clip-path="url(#pd24a3e7fe2)" d="M 54 368.486719 
L 143.216063 368.486719 
L 143.216063 365.301562 
L 54 365.301562 
z
" style="fill:#1f77b4;"/>
   </g>
   <g id="patch_49">
    <path clip-path="url(#pd24a3e7fe2)" d="M 54 355.746094 
L 141.558432 355.746094 
L 141.558432 352.560938 
L 54 352.560938 
z
" style="fill:#1f77b4;"/>
   </g>
   <g id="patch_50">
    <path clip-path="url(#pd24a3e7fe2)" d="M 54 343.005469 
L 141.144024 343.005469 
L 141.144024 339.820313 
L 54 339.820313 
z
" style="fill:#1f77b4;"/>
   </g>
   <g id="patch_51">
    <path clip-path="url(#pd24a3e7fe2)" d="M 54 330.264844 
L 175.717469 330.264844 
L 175.717469 327.079687 
L 54 327.079687 
z
" style="fill:#1f77b4;"/>
   </g>
   <g id="patch_52">
    <path clip-path="url(#pd24a3e7fe2)" d="M 54 317.524219 
L 175.77667 317.524219 
L 175.77667 314.339063 
L 54 314.339063 
z
" style="fill:#1f77b4;"/>
   </g>
   <g id="patch_53">
    <path clip-path="url(#pd24a3e7fe2)" d="M 54 304.783594 
L 143.393666 304.783594 
L 143.393666 301.598437 
L 54 301.598437 
z
" style="fill:#1f77b4;"/>
   </g>
   <g id="patch_54">
    <path clip-path="url(#pd24a3e7fe2)" d="M 54 292.042969 
L 160.917193 292.042969 
L 160.917193 288.857813 
L 54 288.857813 
z
" style="fill:#1f77b4;"/>
   </g>
   <g id="patch_55">
    <path clip-path="url(#pd24a3e7fe2)" d="M 54 279.302344 
L 176.487083 279.302344 
L 176.487083 276.117188 
L 54 276.117188 
z
" style="fill:#1f77b4;"/>
   </g>
   <g id="patch_56">
    <path clip-path="url(#pd24a3e7fe2)" d="M 54 266.561719 
L 176.368681 266.561719 
L 176.368681 263.376562 
L 54 263.376562 
z
" style="fill:#1f77b4;"/>
   </g>
   <g id="patch_57">
    <path clip-path="url(#pd24a3e7fe2)" d="M 54 253.821094 
L 146.235319 253.821094 
L 146.235319 250.635938 
L 54 250.635938 
z
" style="fill:#1f77b4;"/>
   </g>
   <g id="patch_58">
    <path clip-path="url(#pd24a3e7fe2)" d="M 54 241.080469 
L 146.708928 241.080469 
L 146.708928 237.895312 
L 54 237.895312 
z
" style="fill:#1f77b4;"/>
   </g>
   <g id="patch_59">
    <path clip-path="url(#pd24a3e7fe2)" d="M 54 228.339844 
L 131.435043 228.339844 
L 131.435043 225.154687 
L 54 225.154687 
z
" style="fill:#1f77b4;"/>
   </g>
   <g id="patch_60">
    <path clip-path="url(#pd24a3e7fe2)" d="M 54 215.599219 
L 128.178983 215.599219 
L 128.178983 212.414063 
L 54 212.414063 
z
" style="fill:#1f77b4;"/>
   </g>
   <g id="patch_61">
    <path clip-path="url(#pd24a3e7fe2)" d="M 54 202.858594 
L 127.942178 202.858594 
L 127.942178 199.673437 
L 54 199.673437 
z
" style="fill:#1f77b4;"/>
   </g>
   <g id="patch_62">
    <path clip-path="url(#pd24a3e7fe2)" d="M 54 190.117969 
L 127.350167 190.117969 
L 127.350167 186.932813 
L 54 186.932813 
z
" style="fill:#1f77b4;"/>
   </g>
   <g id="patch_63">
    <path clip-path="url(#pd24a3e7fe2)" d="M 54 177.377344 
L 129.481407 177.377344 
L 129.481407 174.192187 
L 54 174.192187 
z
" style="fill:#1f77b4;"/>
   </g>
   <g id="patch_64">
    <path clip-path="url(#pd24a3e7fe2)" d="M 54 164.636719 
L 128.06058 164.636719 
L 128.06058 161.451562 
L 54 161.451562 
z
" style="fill:#1f77b4;"/>
   </g>
   <g id="patch_65">
    <path clip-path="url(#pd24a3e7fe2)" d="M 54 151.896094 
L 128.652591 151.896094 
L 128.652591 148.710938 
L 54 148.710938 
z
" style="fill:#1f77b4;"/>
   </g>
   <g id="patch_66">
    <path clip-path="url(#pd24a3e7fe2)" d="M 54 139.155469 
L 132.086255 139.155469 
L 132.086255 135.970312 
L 54 135.970312 
z
" style="fill:#1f77b4;"/>
   </g>
   <g id="patch_67">
    <path clip-path="url(#pd24a3e7fe2)" d="M 54 938.629688 
L 56.723251 938.629688 
L 56.723251 935.444531 
L 54 935.444531 
z
" style="fill:#ff7f0e;"/>
   </g>
   <g id="patch_68">
    <path clip-path="url(#pd24a3e7fe2)" d="M 54 925.889063 
L 62.110551 925.889063 
L 62.110551 922.703906 
L 54 922.703906 
z
" style="fill:#ff7f0e;"/>
   </g>
   <g id="patch_69">
    <path clip-path="url(#pd24a3e7fe2)" d="M 54 913.148438 
L 69.392287 913.148438 
L 69.392287 909.963281 
L 54 909.963281 
z
" style="fill:#ff7f0e;"/>
   </g>
   <g id="patch_70">
    <path clip-path="url(#pd24a3e7fe2)" d="M 54 900.407812 
L 133.92149 900.407812 
L 133.92149 897.222656 
L 54 897.222656 
z
" style="fill:#ff7f0e;"/>
   </g>
   <g id="patch_71">
    <path clip-path="url(#pd24a3e7fe2)" d="M 54 887.667187 
L 54 887.667187 
L 54 884.482031 
L 54 884.482031 
z
" style="fill:#ff7f0e;"/>
   </g>
   <g id="patch_72">
    <path clip-path="url(#pd24a3e7fe2)" d="M 54 874.926563 
L 78.035648 874.926563 
L 78.035648 871.741406 
L 54 871.741406 
z
" style="fill:#ff7f0e;"/>
   </g>
   <g id="patch_73">
    <path clip-path="url(#pd24a3e7fe2)" d="M 54 862.185938 
L 57.256061 862.185938 
L 57.256061 859.000781 
L 54 859.000781 
z
" style="fill:#ff7f0e;"/>
   </g>
   <g id="patch_74">
    <path clip-path="url(#pd24a3e7fe2)" d="M 54 849.445312 
L 57.670468 849.445312 
L 57.670468 846.260156 
L 54 846.260156 
z
" style="fill:#ff7f0e;"/>
   </g>
   <g id="patch_75">
    <path clip-path="url(#pd24a3e7fe2)" d="M 54 836.704687 
L 62.643361 836.704687 
L 62.643361 833.519531 
L 54 833.519531 
z
" style="fill:#ff7f0e;"/>
   </g>
   <g id="patch_76">
    <path clip-path="url(#pd24a3e7fe2)" d="M 54 823.964062 
L 54 823.964062 
L 54 820.778906 
L 54 820.778906 
z
" style="fill:#ff7f0e;"/>
   </g>
   <g id="patch_77">
    <path clip-path="url(#pd24a3e7fe2)" d="M 54 811.223438 
L 136.230333 811.223438 
L 136.230333 808.038281 
L 54 808.038281 
z
" style="fill:#ff7f0e;"/>
   </g>
   <g id="patch_78">
    <path clip-path="url(#pd24a3e7fe2)" d="M 54 798.482813 
L 54 798.482813 
L 54 795.297656 
L 54 795.297656 
z
" style="fill:#ff7f0e;"/>
   </g>
   <g id="patch_79">
    <path clip-path="url(#pd24a3e7fe2)" d="M 54 785.742188 
L 54 785.742188 
L 54 782.557031 
L 54 782.557031 
z
" style="fill:#ff7f0e;"/>
   </g>
   <g id="patch_80">
    <path clip-path="url(#pd24a3e7fe2)" d="M 54 773.001562 
L 62.939367 773.001562 
L 62.939367 769.816406 
L 54 769.816406 
z
" style="fill:#ff7f0e;"/>
   </g>
   <g id="patch_81">
    <path clip-path="url(#pd24a3e7fe2)" d="M 54 760.260937 
L 56.723251 760.260937 
L 56.723251 757.075781 
L 54 757.075781 
z
" style="fill:#ff7f0e;"/>
   </g>
   <g id="patch_82">
    <path clip-path="url(#pd24a3e7fe2)" d="M 54 747.520313 
L 58.144077 747.520313 
L 58.144077 744.335156 
L 54 744.335156 
z
" style="fill:#ff7f0e;"/>
   </g>
   <g id="patch_83">
    <path clip-path="url(#pd24a3e7fe2)" d="M 54 734.779688 
L 56.723251 734.779688 
L 56.723251 731.594531 
L 54 731.594531 
z
" style="fill:#ff7f0e;"/>
   </g>
   <g id="patch_84">
    <path clip-path="url(#pd24a3e7fe2)" d="M 54 722.039062 
L 81.824519 722.039062 
L 81.824519 718.853906 
L 54 718.853906 
z
" style="fill:#ff7f0e;"/>
   </g>
   <g id="patch_85">
    <path clip-path="url(#pd24a3e7fe2)" d="M 54 709.298437 
L 55.124821 709.298437 
L 55.124821 706.113281 
L 54 706.113281 
z
" style="fill:#ff7f0e;"/>
   </g>
   <g id="patch_86">
    <path clip-path="url(#pd24a3e7fe2)" d="M 54 696.557812 
L 65.840221 696.557812 
L 65.840221 693.372656 
L 54 693.372656 
z
" style="fill:#ff7f0e;"/>
   </g>
   <g id="patch_87">
    <path clip-path="url(#pd24a3e7fe2)" d="M 54 683.817188 
L 54 683.817188 
L 54 680.632031 
L 54 680.632031 
z
" style="fill:#ff7f0e;"/>
   </g>
   <g id="patch_88">
    <path clip-path="url(#pd24a3e7fe2)" d="M 54 671.076563 
L 60.808127 671.076563 
L 60.808127 667.891406 
L 54 667.891406 
z
" style="fill:#ff7f0e;"/>
   </g>
   <g id="patch_89">
    <path clip-path="url(#pd24a3e7fe2)" d="M 54 658.335938 
L 63.827383 658.335938 
L 63.827383 655.150781 
L 54 655.150781 
z
" style="fill:#ff7f0e;"/>
   </g>
   <g id="patch_90">
    <path clip-path="url(#pd24a3e7fe2)" d="M 54 645.595312 
L 62.169752 645.595312 
L 62.169752 642.410156 
L 54 642.410156 
z
" style="fill:#ff7f0e;"/>
   </g>
   <g id="patch_91">
    <path clip-path="url(#pd24a3e7fe2)" d="M 54 632.854687 
L 81.114105 632.854687 
L 81.114105 629.669531 
L 54 629.669531 
z
" style="fill:#ff7f0e;"/>
   </g>
   <g id="patch_92">
    <path clip-path="url(#pd24a3e7fe2)" d="M 54 620.114063 
L 56.960055 620.114063 
L 56.960055 616.928906 
L 54 616.928906 
z
" style="fill:#ff7f0e;"/>
   </g>
   <g id="patch_93">
    <path clip-path="url(#pd24a3e7fe2)" d="M 54 607.373438 
L 54 607.373438 
L 54 604.188281 
L 54 604.188281 
z
" style="fill:#ff7f0e;"/>
   </g>
   <g id="patch_94">
    <path clip-path="url(#pd24a3e7fe2)" d="M 54 594.632812 
L 58.025675 594.632812 
L 58.025675 591.447656 
L 54 591.447656 
z
" style="fill:#ff7f0e;"/>
   </g>
   <g id="patch_95">
    <path clip-path="url(#pd24a3e7fe2)" d="M 54 581.892187 
L 54 581.892187 
L 54 578.707031 
L 54 578.707031 
z
" style="fill:#ff7f0e;"/>
   </g>
   <g id="patch_96">
    <path clip-path="url(#pd24a3e7fe2)" d="M 54 569.151562 
L 64.656199 569.151562 
L 64.656199 565.966406 
L 54 565.966406 
z
" style="fill:#ff7f0e;"/>
   </g>
   <g id="patch_97">
    <path clip-path="url(#pd24a3e7fe2)" d="M 54 556.410938 
L 89.343059 556.410938 
L 89.343059 553.225781 
L 54 553.225781 
z
" style="fill:#ff7f0e;"/>
   </g>
   <g id="patch_98">
    <path clip-path="url(#pd24a3e7fe2)" d="M 54 543.670313 
L 55.124821 543.670313 
L 55.124821 540.485156 
L 54 540.485156 
z
" style="fill:#ff7f0e;"/>
   </g>
   <g id="patch_99">
    <path clip-path="url(#pd24a3e7fe2)" d="M 54 530.929688 
L 56.723251 530.929688 
L 56.723251 527.744531 
L 54 527.744531 
z
" style="fill:#ff7f0e;"/>
   </g>
   <g id="patch_100">
    <path clip-path="url(#pd24a3e7fe2)" d="M 54 518.189062 
L 63.827383 518.189062 
L 63.827383 515.003906 
L 54 515.003906 
z
" style="fill:#ff7f0e;"/>
   </g>
   <g id="patch_101">
    <path clip-path="url(#pd24a3e7fe2)" d="M 54 505.448437 
L 64.419394 505.448437 
L 64.419394 502.263281 
L 54 502.263281 
z
" style="fill:#ff7f0e;"/>
   </g>
   <g id="patch_102">
    <path clip-path="url(#pd24a3e7fe2)" d="M 54 492.707813 
L 56.723251 492.707813 
L 56.723251 489.522656 
L 54 489.522656 
z
" style="fill:#ff7f0e;"/>
   </g>
   <g id="patch_103">
    <path clip-path="url(#pd24a3e7fe2)" d="M 54 479.967188 
L 62.643361 479.967188 
L 62.643361 476.782031 
L 54 476.782031 
z
" style="fill:#ff7f0e;"/>
   </g>
   <g id="patch_104">
    <path clip-path="url(#pd24a3e7fe2)" d="M 54 467.226562 
L 56.723251 467.226562 
L 56.723251 464.041406 
L 54 464.041406 
z
" style="fill:#ff7f0e;"/>
   </g>
   <g id="patch_105">
    <path clip-path="url(#pd24a3e7fe2)" d="M 54 454.485937 
L 175.24386 454.485937 
L 175.24386 451.300781 
L 54 451.300781 
z
" style="fill:#ff7f0e;"/>
   </g>
   <g id="patch_106">
    <path clip-path="url(#pd24a3e7fe2)" d="M 54 441.745312 
L 58.380882 441.745312 
L 58.380882 438.560156 
L 54 438.560156 
z
" style="fill:#ff7f0e;"/>
   </g>
   <g id="patch_107">
    <path clip-path="url(#pd24a3e7fe2)" d="M 54 429.004688 
L 54 429.004688 
L 54 425.819531 
L 54 425.819531 
z
" style="fill:#ff7f0e;"/>
   </g>
   <g id="patch_108">
    <path clip-path="url(#pd24a3e7fe2)" d="M 54 416.264062 
L 65.189009 416.264062 
L 65.189009 413.078906 
L 54 413.078906 
z
" style="fill:#ff7f0e;"/>
   </g>
   <g id="patch_109">
    <path clip-path="url(#pd24a3e7fe2)" d="M 54 403.523438 
L 72.056337 403.523438 
L 72.056337 400.338281 
L 54 400.338281 
z
" style="fill:#ff7f0e;"/>
   </g>
   <g id="patch_110">
    <path clip-path="url(#pd24a3e7fe2)" d="M 54 390.782813 
L 61.104132 390.782813 
L 61.104132 387.597656 
L 54 387.597656 
z
" style="fill:#ff7f0e;"/>
   </g>
   <g id="patch_111">
    <path clip-path="url(#pd24a3e7fe2)" d="M 54 378.042187 
L 62.05135 378.042187 
L 62.05135 374.857031 
L 54 374.857031 
z
" style="fill:#ff7f0e;"/>
   </g>
   <g id="patch_112">
    <path clip-path="url(#pd24a3e7fe2)" d="M 54 365.301563 
L 80.995703 365.301563 
L 80.995703 362.116406 
L 54 362.116406 
z
" style="fill:#ff7f0e;"/>
   </g>
   <g id="patch_113">
    <path clip-path="url(#pd24a3e7fe2)" d="M 54 352.560937 
L 175.24386 352.560937 
L 175.24386 349.375781 
L 54 349.375781 
z
" style="fill:#ff7f0e;"/>
   </g>
   <g id="patch_114">
    <path clip-path="url(#pd24a3e7fe2)" d="M 54 339.820312 
L 178.855127 339.820312 
L 178.855127 336.635156 
L 54 336.635156 
z
" style="fill:#ff7f0e;"/>
   </g>
   <g id="patch_115">
    <path clip-path="url(#pd24a3e7fe2)" d="M 54 327.079688 
L 63.827383 327.079688 
L 63.827383 323.894531 
L 54 323.894531 
z
" style="fill:#ff7f0e;"/>
   </g>
   <g id="patch_116">
    <path clip-path="url(#pd24a3e7fe2)" d="M 54 314.339062 
L 72.293141 314.339062 
L 72.293141 311.153906 
L 54 311.153906 
z
" style="fill:#ff7f0e;"/>
   </g>
   <g id="patch_117">
    <path clip-path="url(#pd24a3e7fe2)" d="M 54 301.598438 
L 204.78521 301.598438 
L 204.78521 298.413281 
L 54 298.413281 
z
" style="fill:#ff7f0e;"/>
   </g>
   <g id="patch_118">
    <path clip-path="url(#pd24a3e7fe2)" d="M 54 288.857812 
L 372.857143 288.857812 
L 372.857143 285.672656 
L 54 285.672656 
z
" style="fill:#ff7f0e;"/>
   </g>
   <g id="patch_119">
    <path clip-path="url(#pd24a3e7fe2)" d="M 54 276.117188 
L 54 276.117188 
L 54 272.932031 
L 54 272.932031 
z
" style="fill:#ff7f0e;"/>
   </g>
   <g id="patch_120">
    <path clip-path="url(#pd24a3e7fe2)" d="M 54 263.376563 
L 56.723251 263.376563 
L 56.723251 260.191406 
L 54 260.191406 
z
" style="fill:#ff7f0e;"/>
   </g>
   <g id="patch_121">
    <path clip-path="url(#pd24a3e7fe2)" d="M 54 250.635937 
L 56.249642 250.635937 
L 56.249642 247.450781 
L 54 247.450781 
z
" style="fill:#ff7f0e;"/>
   </g>
   <g id="patch_122">
    <path clip-path="url(#pd24a3e7fe2)" d="M 54 237.895313 
L 72.76675 237.895313 
L 72.76675 234.710156 
L 54 234.710156 
z
" style="fill:#ff7f0e;"/>
   </g>
   <g id="patch_123">
    <path clip-path="url(#pd24a3e7fe2)" d="M 54 225.154687 
L 56.782452 225.154687 
L 56.782452 221.969531 
L 54 221.969531 
z
" style="fill:#ff7f0e;"/>
   </g>
   <g id="patch_124">
    <path clip-path="url(#pd24a3e7fe2)" d="M 54 212.414062 
L 146.472123 212.414062 
L 146.472123 209.228906 
L 54 209.228906 
z
" style="fill:#ff7f0e;"/>
   </g>
   <g id="patch_125">
    <path clip-path="url(#pd24a3e7fe2)" d="M 54 199.673438 
L 68.385868 199.673438 
L 68.385868 196.488281 
L 54 196.488281 
z
" style="fill:#ff7f0e;"/>
   </g>
   <g id="patch_126">
    <path clip-path="url(#pd24a3e7fe2)" d="M 54 186.932812 
L 54.118402 186.932812 
L 54.118402 183.747656 
L 54 183.747656 
z
" style="fill:#ff7f0e;"/>
   </g>
   <g id="patch_127">
    <path clip-path="url(#pd24a3e7fe2)" d="M 54 174.192188 
L 54 174.192188 
L 54 171.007031 
L 54 171.007031 
z
" style="fill:#ff7f0e;"/>
   </g>
   <g id="patch_128">
    <path clip-path="url(#pd24a3e7fe2)" d="M 54 161.451562 
L 57.72967 161.451562 
L 57.72967 158.266406 
L 54 158.266406 
z
" style="fill:#ff7f0e;"/>
   </g>
   <g id="patch_129">
    <path clip-path="url(#pd24a3e7fe2)" d="M 54 148.710938 
L 59.446502 148.710938 
L 59.446502 145.525781 
L 54 145.525781 
z
" style="fill:#ff7f0e;"/>
   </g>
   <g id="patch_130">
    <path clip-path="url(#pd24a3e7fe2)" d="M 54 135.970313 
L 57.788871 135.970313 
L 57.788871 132.785156 
L 54 132.785156 
z
" style="fill:#ff7f0e;"/>
   </g>
   <g id="matplotlib.axis_1">
    <g id="xtick_1">
     <g id="line2d_1">
      <defs>
       <path d="M 0 0 
L 0 3.5 
" id="mc45512a0df" style="stroke:#000000;stroke-width:0.8;"/>
      </defs>
      <g>
       <use style="stroke:#000000;stroke-width:0.8;" x="54" xlink:href="#mc45512a0df" y="945"/>
      </g>
     </g>
     <g id="text_1">
      <!-- 0 -->
      <g transform="translate(50.81875 959.598438)scale(0.1 -0.1)">
       <defs>
        <path d="M 31.78125 66.40625 
Q 24.171875 66.40625 20.328125 58.90625 
Q 16.5 51.421875 16.5 36.375 
Q 16.5 21.390625 20.328125 13.890625 
Q 24.171875 6.390625 31.78125 6.390625 
Q 39.453125 6.390625 43.28125 13.890625 
Q 47.125 21.390625 47.125 36.375 
Q 47.125 51.421875 43.28125 58.90625 
Q 39.453125 66.40625 31.78125 66.40625 
z
M 31.78125 74.21875 
Q 44.046875 74.21875 50.515625 64.515625 
Q 56.984375 54.828125 56.984375 36.375 
Q 56.984375 17.96875 50.515625 8.265625 
Q 44.046875 -1.421875 31.78125 -1.421875 
Q 19.53125 -1.421875 13.0625 8.265625 
Q 6.59375 17.96875 6.59375 36.375 
Q 6.59375 54.828125 13.0625 64.515625 
Q 19.53125 74.21875 31.78125 74.21875 
z
" id="DejaVuSans-48"/>
       </defs>
       <use xlink:href="#DejaVuSans-48"/>
      </g>
     </g>
    </g>
    <g id="xtick_2">
     <g id="line2d_2">
      <g>
       <use style="stroke:#000000;stroke-width:0.8;" x="113.201103" xlink:href="#mc45512a0df" y="945"/>
      </g>
     </g>
     <g id="text_2">
      <!-- 1000 -->
      <g transform="translate(100.476103 959.598438)scale(0.1 -0.1)">
       <defs>
        <path d="M 12.40625 8.296875 
L 28.515625 8.296875 
L 28.515625 63.921875 
L 10.984375 60.40625 
L 10.984375 69.390625 
L 28.421875 72.90625 
L 38.28125 72.90625 
L 38.28125 8.296875 
L 54.390625 8.296875 
L 54.390625 0 
L 12.40625 0 
z
" id="DejaVuSans-49"/>
       </defs>
       <use xlink:href="#DejaVuSans-49"/>
       <use x="63.623047" xlink:href="#DejaVuSans-48"/>
       <use x="127.246094" xlink:href="#DejaVuSans-48"/>
       <use x="190.869141" xlink:href="#DejaVuSans-48"/>
      </g>
     </g>
    </g>
    <g id="xtick_3">
     <g id="line2d_3">
      <g>
       <use style="stroke:#000000;stroke-width:0.8;" x="172.402207" xlink:href="#mc45512a0df" y="945"/>
      </g>
     </g>
     <g id="text_3">
      <!-- 2000 -->
      <g transform="translate(159.677207 959.598438)scale(0.1 -0.1)">
       <defs>
        <path d="M 19.1875 8.296875 
L 53.609375 8.296875 
L 53.609375 0 
L 7.328125 0 
L 7.328125 8.296875 
Q 12.9375 14.109375 22.625 23.890625 
Q 32.328125 33.6875 34.8125 36.53125 
Q 39.546875 41.84375 41.421875 45.53125 
Q 43.3125 49.21875 43.3125 52.78125 
Q 43.3125 58.59375 39.234375 62.25 
Q 35.15625 65.921875 28.609375 65.921875 
Q 23.96875 65.921875 18.8125 64.3125 
Q 13.671875 62.703125 7.8125 59.421875 
L 7.8125 69.390625 
Q 13.765625 71.78125 18.9375 73 
Q 24.125 74.21875 28.421875 74.21875 
Q 39.75 74.21875 46.484375 68.546875 
Q 53.21875 62.890625 53.21875 53.421875 
Q 53.21875 48.921875 51.53125 44.890625 
Q 49.859375 40.875 45.40625 35.40625 
Q 44.1875 33.984375 37.640625 27.21875 
Q 31.109375 20.453125 19.1875 8.296875 
z
" id="DejaVuSans-50"/>
       </defs>
       <use xlink:href="#DejaVuSans-50"/>
       <use x="63.623047" xlink:href="#DejaVuSans-48"/>
       <use x="127.246094" xlink:href="#DejaVuSans-48"/>
       <use x="190.869141" xlink:href="#DejaVuSans-48"/>
      </g>
     </g>
    </g>
    <g id="xtick_4">
     <g id="line2d_4">
      <g>
       <use style="stroke:#000000;stroke-width:0.8;" x="231.60331" xlink:href="#mc45512a0df" y="945"/>
      </g>
     </g>
     <g id="text_4">
      <!-- 3000 -->
      <g transform="translate(218.87831 959.598438)scale(0.1 -0.1)">
       <defs>
        <path d="M 40.578125 39.3125 
Q 47.65625 37.796875 51.625 33 
Q 55.609375 28.21875 55.609375 21.1875 
Q 55.609375 10.40625 48.1875 4.484375 
Q 40.765625 -1.421875 27.09375 -1.421875 
Q 22.515625 -1.421875 17.65625 -0.515625 
Q 12.796875 0.390625 7.625 2.203125 
L 7.625 11.71875 
Q 11.71875 9.328125 16.59375 8.109375 
Q 21.484375 6.890625 26.8125 6.890625 
Q 36.078125 6.890625 40.9375 10.546875 
Q 45.796875 14.203125 45.796875 21.1875 
Q 45.796875 27.640625 41.28125 31.265625 
Q 36.765625 34.90625 28.71875 34.90625 
L 20.21875 34.90625 
L 20.21875 43.015625 
L 29.109375 43.015625 
Q 36.375 43.015625 40.234375 45.921875 
Q 44.09375 48.828125 44.09375 54.296875 
Q 44.09375 59.90625 40.109375 62.90625 
Q 36.140625 65.921875 28.71875 65.921875 
Q 24.65625 65.921875 20.015625 65.03125 
Q 15.375 64.15625 9.8125 62.3125 
L 9.8125 71.09375 
Q 15.4375 72.65625 20.34375 73.4375 
Q 25.25 74.21875 29.59375 74.21875 
Q 40.828125 74.21875 47.359375 69.109375 
Q 53.90625 64.015625 53.90625 55.328125 
Q 53.90625 49.265625 50.4375 45.09375 
Q 46.96875 40.921875 40.578125 39.3125 
z
" id="DejaVuSans-51"/>
       </defs>
       <use xlink:href="#DejaVuSans-51"/>
       <use x="63.623047" xlink:href="#DejaVuSans-48"/>
       <use x="127.246094" xlink:href="#DejaVuSans-48"/>
       <use x="190.869141" xlink:href="#DejaVuSans-48"/>
      </g>
     </g>
    </g>
    <g id="xtick_5">
     <g id="line2d_5">
      <g>
       <use style="stroke:#000000;stroke-width:0.8;" x="290.804414" xlink:href="#mc45512a0df" y="945"/>
      </g>
     </g>
     <g id="text_5">
      <!-- 4000 -->
      <g transform="translate(278.079414 959.598438)scale(0.1 -0.1)">
       <defs>
        <path d="M 37.796875 64.3125 
L 12.890625 25.390625 
L 37.796875 25.390625 
z
M 35.203125 72.90625 
L 47.609375 72.90625 
L 47.609375 25.390625 
L 58.015625 25.390625 
L 58.015625 17.1875 
L 47.609375 17.1875 
L 47.609375 0 
L 37.796875 0 
L 37.796875 17.1875 
L 4.890625 17.1875 
L 4.890625 26.703125 
z
" id="DejaVuSans-52"/>
       </defs>
       <use xlink:href="#DejaVuSans-52"/>
       <use x="63.623047" xlink:href="#DejaVuSans-48"/>
       <use x="127.246094" xlink:href="#DejaVuSans-48"/>
       <use x="190.869141" xlink:href="#DejaVuSans-48"/>
      </g>
     </g>
    </g>
    <g id="xtick_6">
     <g id="line2d_6">
      <g>
       <use style="stroke:#000000;stroke-width:0.8;" x="350.005517" xlink:href="#mc45512a0df" y="945"/>
      </g>
     </g>
     <g id="text_6">
      <!-- 5000 -->
      <g transform="translate(337.280517 959.598438)scale(0.1 -0.1)">
       <defs>
        <path d="M 10.796875 72.90625 
L 49.515625 72.90625 
L 49.515625 64.59375 
L 19.828125 64.59375 
L 19.828125 46.734375 
Q 21.96875 47.46875 24.109375 47.828125 
Q 26.265625 48.1875 28.421875 48.1875 
Q 40.625 48.1875 47.75 41.5 
Q 54.890625 34.8125 54.890625 23.390625 
Q 54.890625 11.625 47.5625 5.09375 
Q 40.234375 -1.421875 26.90625 -1.421875 
Q 22.3125 -1.421875 17.546875 -0.640625 
Q 12.796875 0.140625 7.71875 1.703125 
L 7.71875 11.625 
Q 12.109375 9.234375 16.796875 8.0625 
Q 21.484375 6.890625 26.703125 6.890625 
Q 35.15625 6.890625 40.078125 11.328125 
Q 45.015625 15.765625 45.015625 23.390625 
Q 45.015625 31 40.078125 35.4375 
Q 35.15625 39.890625 26.703125 39.890625 
Q 22.75 39.890625 18.8125 39.015625 
Q 14.890625 38.140625 10.796875 36.28125 
z
" id="DejaVuSans-53"/>
       </defs>
       <use xlink:href="#DejaVuSans-53"/>
       <use x="63.623047" xlink:href="#DejaVuSans-48"/>
       <use x="127.246094" xlink:href="#DejaVuSans-48"/>
       <use x="190.869141" xlink:href="#DejaVuSans-48"/>
      </g>
     </g>
    </g>
   </g>
   <g id="matplotlib.axis_2">
    <g id="ytick_1">
     <g id="line2d_7">
      <defs>
       <path d="M 0 0 
L -3.5 0 
" id="m0c8603c102" style="stroke:#000000;stroke-width:0.8;"/>
      </defs>
      <g>
       <use style="stroke:#000000;stroke-width:0.8;" x="54" xlink:href="#m0c8603c102" y="938.629688"/>
      </g>
     </g>
     <g id="text_7">
      <!-- R00 -->
      <g transform="translate(27.326562 942.428906)scale(0.1 -0.1)">
       <defs>
        <path d="M 44.390625 34.1875 
Q 47.5625 33.109375 50.5625 29.59375 
Q 53.5625 26.078125 56.59375 19.921875 
L 66.609375 0 
L 56 0 
L 46.6875 18.703125 
Q 43.0625 26.03125 39.671875 28.421875 
Q 36.28125 30.8125 30.421875 30.8125 
L 19.671875 30.8125 
L 19.671875 0 
L 9.8125 0 
L 9.8125 72.90625 
L 32.078125 72.90625 
Q 44.578125 72.90625 50.734375 67.671875 
Q 56.890625 62.453125 56.890625 51.90625 
Q 56.890625 45.015625 53.6875 40.46875 
Q 50.484375 35.9375 44.390625 34.1875 
z
M 19.671875 64.796875 
L 19.671875 38.921875 
L 32.078125 38.921875 
Q 39.203125 38.921875 42.84375 42.21875 
Q 46.484375 45.515625 46.484375 51.90625 
Q 46.484375 58.296875 42.84375 61.546875 
Q 39.203125 64.796875 32.078125 64.796875 
z
" id="DejaVuSans-82"/>
       </defs>
       <use xlink:href="#DejaVuSans-82"/>
       <use x="69.482422" xlink:href="#DejaVuSans-48"/>
       <use x="133.105469" xlink:href="#DejaVuSans-48"/>
      </g>
     </g>
    </g>
    <g id="ytick_2">
     <g id="line2d_8">
      <g>
       <use style="stroke:#000000;stroke-width:0.8;" x="54" xlink:href="#m0c8603c102" y="925.889063"/>
      </g>
     </g>
     <g id="text_8">
      <!-- R01 -->
      <g transform="translate(27.326562 929.688281)scale(0.1 -0.1)">
       <use xlink:href="#DejaVuSans-82"/>
       <use x="69.482422" xlink:href="#DejaVuSans-48"/>
       <use x="133.105469" xlink:href="#DejaVuSans-49"/>
      </g>
     </g>
    </g>
    <g id="ytick_3">
     <g id="line2d_9">
      <g>
       <use style="stroke:#000000;stroke-width:0.8;" x="54" xlink:href="#m0c8603c102" y="913.148438"/>
      </g>
     </g>
     <g id="text_9">
      <!-- R02 -->
      <g transform="translate(27.326562 916.947656)scale(0.1 -0.1)">
       <use xlink:href="#DejaVuSans-82"/>
       <use x="69.482422" xlink:href="#DejaVuSans-48"/>
       <use x="133.105469" xlink:href="#DejaVuSans-50"/>
      </g>
     </g>
    </g>
    <g id="ytick_4">
     <g id="line2d_10">
      <g>
       <use style="stroke:#000000;stroke-width:0.8;" x="54" xlink:href="#m0c8603c102" y="900.407813"/>
      </g>
     </g>
     <g id="text_10">
      <!-- R03 -->
      <g transform="translate(27.326562 904.207031)scale(0.1 -0.1)">
       <use xlink:href="#DejaVuSans-82"/>
       <use x="69.482422" xlink:href="#DejaVuSans-48"/>
       <use x="133.105469" xlink:href="#DejaVuSans-51"/>
      </g>
     </g>
    </g>
    <g id="ytick_5">
     <g id="line2d_11">
      <g>
       <use style="stroke:#000000;stroke-width:0.8;" x="54" xlink:href="#m0c8603c102" y="887.667188"/>
      </g>
     </g>
     <g id="text_11">
      <!-- R04 -->
      <g transform="translate(27.326562 891.466406)scale(0.1 -0.1)">
       <use xlink:href="#DejaVuSans-82"/>
       <use x="69.482422" xlink:href="#DejaVuSans-48"/>
       <use x="133.105469" xlink:href="#DejaVuSans-52"/>
      </g>
     </g>
    </g>
    <g id="ytick_6">
     <g id="line2d_12">
      <g>
       <use style="stroke:#000000;stroke-width:0.8;" x="54" xlink:href="#m0c8603c102" y="874.926563"/>
      </g>
     </g>
     <g id="text_12">
      <!-- R05 -->
      <g transform="translate(27.326562 878.725781)scale(0.1 -0.1)">
       <use xlink:href="#DejaVuSans-82"/>
       <use x="69.482422" xlink:href="#DejaVuSans-48"/>
       <use x="133.105469" xlink:href="#DejaVuSans-53"/>
      </g>
     </g>
    </g>
    <g id="ytick_7">
     <g id="line2d_13">
      <g>
       <use style="stroke:#000000;stroke-width:0.8;" x="54" xlink:href="#m0c8603c102" y="862.185938"/>
      </g>
     </g>
     <g id="text_13">
      <!-- R06 -->
      <g transform="translate(27.326562 865.985156)scale(0.1 -0.1)">
       <defs>
        <path d="M 33.015625 40.375 
Q 26.375 40.375 22.484375 35.828125 
Q 18.609375 31.296875 18.609375 23.390625 
Q 18.609375 15.53125 22.484375 10.953125 
Q 26.375 6.390625 33.015625 6.390625 
Q 39.65625 6.390625 43.53125 10.953125 
Q 47.40625 15.53125 47.40625 23.390625 
Q 47.40625 31.296875 43.53125 35.828125 
Q 39.65625 40.375 33.015625 40.375 
z
M 52.59375 71.296875 
L 52.59375 62.3125 
Q 48.875 64.0625 45.09375 64.984375 
Q 41.3125 65.921875 37.59375 65.921875 
Q 27.828125 65.921875 22.671875 59.328125 
Q 17.53125 52.734375 16.796875 39.40625 
Q 19.671875 43.65625 24.015625 45.921875 
Q 28.375 48.1875 33.59375 48.1875 
Q 44.578125 48.1875 50.953125 41.515625 
Q 57.328125 34.859375 57.328125 23.390625 
Q 57.328125 12.15625 50.6875 5.359375 
Q 44.046875 -1.421875 33.015625 -1.421875 
Q 20.359375 -1.421875 13.671875 8.265625 
Q 6.984375 17.96875 6.984375 36.375 
Q 6.984375 53.65625 15.1875 63.9375 
Q 23.390625 74.21875 37.203125 74.21875 
Q 40.921875 74.21875 44.703125 73.484375 
Q 48.484375 72.75 52.59375 71.296875 
z
" id="DejaVuSans-54"/>
       </defs>
       <use xlink:href="#DejaVuSans-82"/>
       <use x="69.482422" xlink:href="#DejaVuSans-48"/>
       <use x="133.105469" xlink:href="#DejaVuSans-54"/>
      </g>
     </g>
    </g>
    <g id="ytick_8">
     <g id="line2d_14">
      <g>
       <use style="stroke:#000000;stroke-width:0.8;" x="54" xlink:href="#m0c8603c102" y="849.445312"/>
      </g>
     </g>
     <g id="text_14">
      <!-- R07 -->
      <g transform="translate(27.326562 853.244531)scale(0.1 -0.1)">
       <defs>
        <path d="M 8.203125 72.90625 
L 55.078125 72.90625 
L 55.078125 68.703125 
L 28.609375 0 
L 18.3125 0 
L 43.21875 64.59375 
L 8.203125 64.59375 
z
" id="DejaVuSans-55"/>
       </defs>
       <use xlink:href="#DejaVuSans-82"/>
       <use x="69.482422" xlink:href="#DejaVuSans-48"/>
       <use x="133.105469" xlink:href="#DejaVuSans-55"/>
      </g>
     </g>
    </g>
    <g id="ytick_9">
     <g id="line2d_15">
      <g>
       <use style="stroke:#000000;stroke-width:0.8;" x="54" xlink:href="#m0c8603c102" y="836.704688"/>
      </g>
     </g>
     <g id="text_15">
      <!-- R10 -->
      <g transform="translate(27.326562 840.503906)scale(0.1 -0.1)">
       <use xlink:href="#DejaVuSans-82"/>
       <use x="69.482422" xlink:href="#DejaVuSans-49"/>
       <use x="133.105469" xlink:href="#DejaVuSans-48"/>
      </g>
     </g>
    </g>
    <g id="ytick_10">
     <g id="line2d_16">
      <g>
       <use style="stroke:#000000;stroke-width:0.8;" x="54" xlink:href="#m0c8603c102" y="823.964063"/>
      </g>
     </g>
     <g id="text_16">
      <!-- R11 -->
      <g transform="translate(27.326562 827.763281)scale(0.1 -0.1)">
       <use xlink:href="#DejaVuSans-82"/>
       <use x="69.482422" xlink:href="#DejaVuSans-49"/>
       <use x="133.105469" xlink:href="#DejaVuSans-49"/>
      </g>
     </g>
    </g>
    <g id="ytick_11">
     <g id="line2d_17">
      <g>
       <use style="stroke:#000000;stroke-width:0.8;" x="54" xlink:href="#m0c8603c102" y="811.223438"/>
      </g>
     </g>
     <g id="text_17">
      <!-- R12 -->
      <g transform="translate(27.326562 815.022656)scale(0.1 -0.1)">
       <use xlink:href="#DejaVuSans-82"/>
       <use x="69.482422" xlink:href="#DejaVuSans-49"/>
       <use x="133.105469" xlink:href="#DejaVuSans-50"/>
      </g>
     </g>
    </g>
    <g id="ytick_12">
     <g id="line2d_18">
      <g>
       <use style="stroke:#000000;stroke-width:0.8;" x="54" xlink:href="#m0c8603c102" y="798.482813"/>
      </g>
     </g>
     <g id="text_18">
      <!-- R13 -->
      <g transform="translate(27.326562 802.282031)scale(0.1 -0.1)">
       <use xlink:href="#DejaVuSans-82"/>
       <use x="69.482422" xlink:href="#DejaVuSans-49"/>
       <use x="133.105469" xlink:href="#DejaVuSans-51"/>
      </g>
     </g>
    </g>
    <g id="ytick_13">
     <g id="line2d_19">
      <g>
       <use style="stroke:#000000;stroke-width:0.8;" x="54" xlink:href="#m0c8603c102" y="785.742188"/>
      </g>
     </g>
     <g id="text_19">
      <!-- R14 -->
      <g transform="translate(27.326562 789.541406)scale(0.1 -0.1)">
       <use xlink:href="#DejaVuSans-82"/>
       <use x="69.482422" xlink:href="#DejaVuSans-49"/>
       <use x="133.105469" xlink:href="#DejaVuSans-52"/>
      </g>
     </g>
    </g>
    <g id="ytick_14">
     <g id="line2d_20">
      <g>
       <use style="stroke:#000000;stroke-width:0.8;" x="54" xlink:href="#m0c8603c102" y="773.001563"/>
      </g>
     </g>
     <g id="text_20">
      <!-- R15 -->
      <g transform="translate(27.326562 776.800781)scale(0.1 -0.1)">
       <use xlink:href="#DejaVuSans-82"/>
       <use x="69.482422" xlink:href="#DejaVuSans-49"/>
       <use x="133.105469" xlink:href="#DejaVuSans-53"/>
      </g>
     </g>
    </g>
    <g id="ytick_15">
     <g id="line2d_21">
      <g>
       <use style="stroke:#000000;stroke-width:0.8;" x="54" xlink:href="#m0c8603c102" y="760.260938"/>
      </g>
     </g>
     <g id="text_21">
      <!-- R16 -->
      <g transform="translate(27.326562 764.060156)scale(0.1 -0.1)">
       <use xlink:href="#DejaVuSans-82"/>
       <use x="69.482422" xlink:href="#DejaVuSans-49"/>
       <use x="133.105469" xlink:href="#DejaVuSans-54"/>
      </g>
     </g>
    </g>
    <g id="ytick_16">
     <g id="line2d_22">
      <g>
       <use style="stroke:#000000;stroke-width:0.8;" x="54" xlink:href="#m0c8603c102" y="747.520313"/>
      </g>
     </g>
     <g id="text_22">
      <!-- R17 -->
      <g transform="translate(27.326562 751.319531)scale(0.1 -0.1)">
       <use xlink:href="#DejaVuSans-82"/>
       <use x="69.482422" xlink:href="#DejaVuSans-49"/>
       <use x="133.105469" xlink:href="#DejaVuSans-55"/>
      </g>
     </g>
    </g>
    <g id="ytick_17">
     <g id="line2d_23">
      <g>
       <use style="stroke:#000000;stroke-width:0.8;" x="54" xlink:href="#m0c8603c102" y="734.779688"/>
      </g>
     </g>
     <g id="text_23">
      <!-- R20 -->
      <g transform="translate(27.326562 738.578906)scale(0.1 -0.1)">
       <use xlink:href="#DejaVuSans-82"/>
       <use x="69.482422" xlink:href="#DejaVuSans-50"/>
       <use x="133.105469" xlink:href="#DejaVuSans-48"/>
      </g>
     </g>
    </g>
    <g id="ytick_18">
     <g id="line2d_24">
      <g>
       <use style="stroke:#000000;stroke-width:0.8;" x="54" xlink:href="#m0c8603c102" y="722.039062"/>
      </g>
     </g>
     <g id="text_24">
      <!-- R21 -->
      <g transform="translate(27.326562 725.838281)scale(0.1 -0.1)">
       <use xlink:href="#DejaVuSans-82"/>
       <use x="69.482422" xlink:href="#DejaVuSans-50"/>
       <use x="133.105469" xlink:href="#DejaVuSans-49"/>
      </g>
     </g>
    </g>
    <g id="ytick_19">
     <g id="line2d_25">
      <g>
       <use style="stroke:#000000;stroke-width:0.8;" x="54" xlink:href="#m0c8603c102" y="709.298438"/>
      </g>
     </g>
     <g id="text_25">
      <!-- R22 -->
      <g transform="translate(27.326562 713.097656)scale(0.1 -0.1)">
       <use xlink:href="#DejaVuSans-82"/>
       <use x="69.482422" xlink:href="#DejaVuSans-50"/>
       <use x="133.105469" xlink:href="#DejaVuSans-50"/>
      </g>
     </g>
    </g>
    <g id="ytick_20">
     <g id="line2d_26">
      <g>
       <use style="stroke:#000000;stroke-width:0.8;" x="54" xlink:href="#m0c8603c102" y="696.557813"/>
      </g>
     </g>
     <g id="text_26">
      <!-- R23 -->
      <g transform="translate(27.326562 700.357031)scale(0.1 -0.1)">
       <use xlink:href="#DejaVuSans-82"/>
       <use x="69.482422" xlink:href="#DejaVuSans-50"/>
       <use x="133.105469" xlink:href="#DejaVuSans-51"/>
      </g>
     </g>
    </g>
    <g id="ytick_21">
     <g id="line2d_27">
      <g>
       <use style="stroke:#000000;stroke-width:0.8;" x="54" xlink:href="#m0c8603c102" y="683.817188"/>
      </g>
     </g>
     <g id="text_27">
      <!-- R24 -->
      <g transform="translate(27.326562 687.616406)scale(0.1 -0.1)">
       <use xlink:href="#DejaVuSans-82"/>
       <use x="69.482422" xlink:href="#DejaVuSans-50"/>
       <use x="133.105469" xlink:href="#DejaVuSans-52"/>
      </g>
     </g>
    </g>
    <g id="ytick_22">
     <g id="line2d_28">
      <g>
       <use style="stroke:#000000;stroke-width:0.8;" x="54" xlink:href="#m0c8603c102" y="671.076563"/>
      </g>
     </g>
     <g id="text_28">
      <!-- R25 -->
      <g transform="translate(27.326562 674.875781)scale(0.1 -0.1)">
       <use xlink:href="#DejaVuSans-82"/>
       <use x="69.482422" xlink:href="#DejaVuSans-50"/>
       <use x="133.105469" xlink:href="#DejaVuSans-53"/>
      </g>
     </g>
    </g>
    <g id="ytick_23">
     <g id="line2d_29">
      <g>
       <use style="stroke:#000000;stroke-width:0.8;" x="54" xlink:href="#m0c8603c102" y="658.335938"/>
      </g>
     </g>
     <g id="text_29">
      <!-- R26 -->
      <g transform="translate(27.326562 662.135156)scale(0.1 -0.1)">
       <use xlink:href="#DejaVuSans-82"/>
       <use x="69.482422" xlink:href="#DejaVuSans-50"/>
       <use x="133.105469" xlink:href="#DejaVuSans-54"/>
      </g>
     </g>
    </g>
    <g id="ytick_24">
     <g id="line2d_30">
      <g>
       <use style="stroke:#000000;stroke-width:0.8;" x="54" xlink:href="#m0c8603c102" y="645.595313"/>
      </g>
     </g>
     <g id="text_30">
      <!-- R27 -->
      <g transform="translate(27.326562 649.394531)scale(0.1 -0.1)">
       <use xlink:href="#DejaVuSans-82"/>
       <use x="69.482422" xlink:href="#DejaVuSans-50"/>
       <use x="133.105469" xlink:href="#DejaVuSans-55"/>
      </g>
     </g>
    </g>
    <g id="ytick_25">
     <g id="line2d_31">
      <g>
       <use style="stroke:#000000;stroke-width:0.8;" x="54" xlink:href="#m0c8603c102" y="632.854688"/>
      </g>
     </g>
     <g id="text_31">
      <!-- R30 -->
      <g transform="translate(27.326562 636.653906)scale(0.1 -0.1)">
       <use xlink:href="#DejaVuSans-82"/>
       <use x="69.482422" xlink:href="#DejaVuSans-51"/>
       <use x="133.105469" xlink:href="#DejaVuSans-48"/>
      </g>
     </g>
    </g>
    <g id="ytick_26">
     <g id="line2d_32">
      <g>
       <use style="stroke:#000000;stroke-width:0.8;" x="54" xlink:href="#m0c8603c102" y="620.114063"/>
      </g>
     </g>
     <g id="text_32">
      <!-- R31 -->
      <g transform="translate(27.326562 623.913281)scale(0.1 -0.1)">
       <use xlink:href="#DejaVuSans-82"/>
       <use x="69.482422" xlink:href="#DejaVuSans-51"/>
       <use x="133.105469" xlink:href="#DejaVuSans-49"/>
      </g>
     </g>
    </g>
    <g id="ytick_27">
     <g id="line2d_33">
      <g>
       <use style="stroke:#000000;stroke-width:0.8;" x="54" xlink:href="#m0c8603c102" y="607.373438"/>
      </g>
     </g>
     <g id="text_33">
      <!-- R32 -->
      <g transform="translate(27.326562 611.172656)scale(0.1 -0.1)">
       <use xlink:href="#DejaVuSans-82"/>
       <use x="69.482422" xlink:href="#DejaVuSans-51"/>
       <use x="133.105469" xlink:href="#DejaVuSans-50"/>
      </g>
     </g>
    </g>
    <g id="ytick_28">
     <g id="line2d_34">
      <g>
       <use style="stroke:#000000;stroke-width:0.8;" x="54" xlink:href="#m0c8603c102" y="594.632812"/>
      </g>
     </g>
     <g id="text_34">
      <!-- R33 -->
      <g transform="translate(27.326562 598.432031)scale(0.1 -0.1)">
       <use xlink:href="#DejaVuSans-82"/>
       <use x="69.482422" xlink:href="#DejaVuSans-51"/>
       <use x="133.105469" xlink:href="#DejaVuSans-51"/>
      </g>
     </g>
    </g>
    <g id="ytick_29">
     <g id="line2d_35">
      <g>
       <use style="stroke:#000000;stroke-width:0.8;" x="54" xlink:href="#m0c8603c102" y="581.892188"/>
      </g>
     </g>
     <g id="text_35">
      <!-- R34 -->
      <g transform="translate(27.326562 585.691406)scale(0.1 -0.1)">
       <use xlink:href="#DejaVuSans-82"/>
       <use x="69.482422" xlink:href="#DejaVuSans-51"/>
       <use x="133.105469" xlink:href="#DejaVuSans-52"/>
      </g>
     </g>
    </g>
    <g id="ytick_30">
     <g id="line2d_36">
      <g>
       <use style="stroke:#000000;stroke-width:0.8;" x="54" xlink:href="#m0c8603c102" y="569.151563"/>
      </g>
     </g>
     <g id="text_36">
      <!-- R35 -->
      <g transform="translate(27.326562 572.950781)scale(0.1 -0.1)">
       <use xlink:href="#DejaVuSans-82"/>
       <use x="69.482422" xlink:href="#DejaVuSans-51"/>
       <use x="133.105469" xlink:href="#DejaVuSans-53"/>
      </g>
     </g>
    </g>
    <g id="ytick_31">
     <g id="line2d_37">
      <g>
       <use style="stroke:#000000;stroke-width:0.8;" x="54" xlink:href="#m0c8603c102" y="556.410938"/>
      </g>
     </g>
     <g id="text_37">
      <!-- R36 -->
      <g transform="translate(27.326562 560.210156)scale(0.1 -0.1)">
       <use xlink:href="#DejaVuSans-82"/>
       <use x="69.482422" xlink:href="#DejaVuSans-51"/>
       <use x="133.105469" xlink:href="#DejaVuSans-54"/>
      </g>
     </g>
    </g>
    <g id="ytick_32">
     <g id="line2d_38">
      <g>
       <use style="stroke:#000000;stroke-width:0.8;" x="54" xlink:href="#m0c8603c102" y="543.670313"/>
      </g>
     </g>
     <g id="text_38">
      <!-- R37 -->
      <g transform="translate(27.326562 547.469531)scale(0.1 -0.1)">
       <use xlink:href="#DejaVuSans-82"/>
       <use x="69.482422" xlink:href="#DejaVuSans-51"/>
       <use x="133.105469" xlink:href="#DejaVuSans-55"/>
      </g>
     </g>
    </g>
    <g id="ytick_33">
     <g id="line2d_39">
      <g>
       <use style="stroke:#000000;stroke-width:0.8;" x="54" xlink:href="#m0c8603c102" y="530.929688"/>
      </g>
     </g>
     <g id="text_39">
      <!-- R40 -->
      <g transform="translate(27.326562 534.728906)scale(0.1 -0.1)">
       <use xlink:href="#DejaVuSans-82"/>
       <use x="69.482422" xlink:href="#DejaVuSans-52"/>
       <use x="133.105469" xlink:href="#DejaVuSans-48"/>
      </g>
     </g>
    </g>
    <g id="ytick_34">
     <g id="line2d_40">
      <g>
       <use style="stroke:#000000;stroke-width:0.8;" x="54" xlink:href="#m0c8603c102" y="518.189063"/>
      </g>
     </g>
     <g id="text_40">
      <!-- R41 -->
      <g transform="translate(27.326562 521.988281)scale(0.1 -0.1)">
       <use xlink:href="#DejaVuSans-82"/>
       <use x="69.482422" xlink:href="#DejaVuSans-52"/>
       <use x="133.105469" xlink:href="#DejaVuSans-49"/>
      </g>
     </g>
    </g>
    <g id="ytick_35">
     <g id="line2d_41">
      <g>
       <use style="stroke:#000000;stroke-width:0.8;" x="54" xlink:href="#m0c8603c102" y="505.448438"/>
      </g>
     </g>
     <g id="text_41">
      <!-- R42 -->
      <g transform="translate(27.326562 509.247656)scale(0.1 -0.1)">
       <use xlink:href="#DejaVuSans-82"/>
       <use x="69.482422" xlink:href="#DejaVuSans-52"/>
       <use x="133.105469" xlink:href="#DejaVuSans-50"/>
      </g>
     </g>
    </g>
    <g id="ytick_36">
     <g id="line2d_42">
      <g>
       <use style="stroke:#000000;stroke-width:0.8;" x="54" xlink:href="#m0c8603c102" y="492.707813"/>
      </g>
     </g>
     <g id="text_42">
      <!-- R43 -->
      <g transform="translate(27.326562 496.507031)scale(0.1 -0.1)">
       <use xlink:href="#DejaVuSans-82"/>
       <use x="69.482422" xlink:href="#DejaVuSans-52"/>
       <use x="133.105469" xlink:href="#DejaVuSans-51"/>
      </g>
     </g>
    </g>
    <g id="ytick_37">
     <g id="line2d_43">
      <g>
       <use style="stroke:#000000;stroke-width:0.8;" x="54" xlink:href="#m0c8603c102" y="479.967188"/>
      </g>
     </g>
     <g id="text_43">
      <!-- R44 -->
      <g transform="translate(27.326562 483.766406)scale(0.1 -0.1)">
       <use xlink:href="#DejaVuSans-82"/>
       <use x="69.482422" xlink:href="#DejaVuSans-52"/>
       <use x="133.105469" xlink:href="#DejaVuSans-52"/>
      </g>
     </g>
    </g>
    <g id="ytick_38">
     <g id="line2d_44">
      <g>
       <use style="stroke:#000000;stroke-width:0.8;" x="54" xlink:href="#m0c8603c102" y="467.226563"/>
      </g>
     </g>
     <g id="text_44">
      <!-- R45 -->
      <g transform="translate(27.326562 471.025781)scale(0.1 -0.1)">
       <use xlink:href="#DejaVuSans-82"/>
       <use x="69.482422" xlink:href="#DejaVuSans-52"/>
       <use x="133.105469" xlink:href="#DejaVuSans-53"/>
      </g>
     </g>
    </g>
    <g id="ytick_39">
     <g id="line2d_45">
      <g>
       <use style="stroke:#000000;stroke-width:0.8;" x="54" xlink:href="#m0c8603c102" y="454.485938"/>
      </g>
     </g>
     <g id="text_45">
      <!-- R46 -->
      <g transform="translate(27.326562 458.285156)scale(0.1 -0.1)">
       <use xlink:href="#DejaVuSans-82"/>
       <use x="69.482422" xlink:href="#DejaVuSans-52"/>
       <use x="133.105469" xlink:href="#DejaVuSans-54"/>
      </g>
     </g>
    </g>
    <g id="ytick_40">
     <g id="line2d_46">
      <g>
       <use style="stroke:#000000;stroke-width:0.8;" x="54" xlink:href="#m0c8603c102" y="441.745313"/>
      </g>
     </g>
     <g id="text_46">
      <!-- R47 -->
      <g transform="translate(27.326562 445.544531)scale(0.1 -0.1)">
       <use xlink:href="#DejaVuSans-82"/>
       <use x="69.482422" xlink:href="#DejaVuSans-52"/>
       <use x="133.105469" xlink:href="#DejaVuSans-55"/>
      </g>
     </g>
    </g>
    <g id="ytick_41">
     <g id="line2d_47">
      <g>
       <use style="stroke:#000000;stroke-width:0.8;" x="54" xlink:href="#m0c8603c102" y="429.004688"/>
      </g>
     </g>
     <g id="text_47">
      <!-- R50 -->
      <g transform="translate(27.326562 432.803906)scale(0.1 -0.1)">
       <use xlink:href="#DejaVuSans-82"/>
       <use x="69.482422" xlink:href="#DejaVuSans-53"/>
       <use x="133.105469" xlink:href="#DejaVuSans-48"/>
      </g>
     </g>
    </g>
    <g id="ytick_42">
     <g id="line2d_48">
      <g>
       <use style="stroke:#000000;stroke-width:0.8;" x="54" xlink:href="#m0c8603c102" y="416.264063"/>
      </g>
     </g>
     <g id="text_48">
      <!-- R51 -->
      <g transform="translate(27.326562 420.063281)scale(0.1 -0.1)">
       <use xlink:href="#DejaVuSans-82"/>
       <use x="69.482422" xlink:href="#DejaVuSans-53"/>
       <use x="133.105469" xlink:href="#DejaVuSans-49"/>
      </g>
     </g>
    </g>
    <g id="ytick_43">
     <g id="line2d_49">
      <g>
       <use style="stroke:#000000;stroke-width:0.8;" x="54" xlink:href="#m0c8603c102" y="403.523438"/>
      </g>
     </g>
     <g id="text_49">
      <!-- R52 -->
      <g transform="translate(27.326562 407.322656)scale(0.1 -0.1)">
       <use xlink:href="#DejaVuSans-82"/>
       <use x="69.482422" xlink:href="#DejaVuSans-53"/>
       <use x="133.105469" xlink:href="#DejaVuSans-50"/>
      </g>
     </g>
    </g>
    <g id="ytick_44">
     <g id="line2d_50">
      <g>
       <use style="stroke:#000000;stroke-width:0.8;" x="54" xlink:href="#m0c8603c102" y="390.782813"/>
      </g>
     </g>
     <g id="text_50">
      <!-- R53 -->
      <g transform="translate(27.326562 394.582031)scale(0.1 -0.1)">
       <use xlink:href="#DejaVuSans-82"/>
       <use x="69.482422" xlink:href="#DejaVuSans-53"/>
       <use x="133.105469" xlink:href="#DejaVuSans-51"/>
      </g>
     </g>
    </g>
    <g id="ytick_45">
     <g id="line2d_51">
      <g>
       <use style="stroke:#000000;stroke-width:0.8;" x="54" xlink:href="#m0c8603c102" y="378.042188"/>
      </g>
     </g>
     <g id="text_51">
      <!-- R54 -->
      <g transform="translate(27.326562 381.841406)scale(0.1 -0.1)">
       <use xlink:href="#DejaVuSans-82"/>
       <use x="69.482422" xlink:href="#DejaVuSans-53"/>
       <use x="133.105469" xlink:href="#DejaVuSans-52"/>
      </g>
     </g>
    </g>
    <g id="ytick_46">
     <g id="line2d_52">
      <g>
       <use style="stroke:#000000;stroke-width:0.8;" x="54" xlink:href="#m0c8603c102" y="365.301563"/>
      </g>
     </g>
     <g id="text_52">
      <!-- R55 -->
      <g transform="translate(27.326562 369.100781)scale(0.1 -0.1)">
       <use xlink:href="#DejaVuSans-82"/>
       <use x="69.482422" xlink:href="#DejaVuSans-53"/>
       <use x="133.105469" xlink:href="#DejaVuSans-53"/>
      </g>
     </g>
    </g>
    <g id="ytick_47">
     <g id="line2d_53">
      <g>
       <use style="stroke:#000000;stroke-width:0.8;" x="54" xlink:href="#m0c8603c102" y="352.560938"/>
      </g>
     </g>
     <g id="text_53">
      <!-- R56 -->
      <g transform="translate(27.326562 356.360156)scale(0.1 -0.1)">
       <use xlink:href="#DejaVuSans-82"/>
       <use x="69.482422" xlink:href="#DejaVuSans-53"/>
       <use x="133.105469" xlink:href="#DejaVuSans-54"/>
      </g>
     </g>
    </g>
    <g id="ytick_48">
     <g id="line2d_54">
      <g>
       <use style="stroke:#000000;stroke-width:0.8;" x="54" xlink:href="#m0c8603c102" y="339.820313"/>
      </g>
     </g>
     <g id="text_54">
      <!-- R57 -->
      <g transform="translate(27.326562 343.619531)scale(0.1 -0.1)">
       <use xlink:href="#DejaVuSans-82"/>
       <use x="69.482422" xlink:href="#DejaVuSans-53"/>
       <use x="133.105469" xlink:href="#DejaVuSans-55"/>
      </g>
     </g>
    </g>
    <g id="ytick_49">
     <g id="line2d_55">
      <g>
       <use style="stroke:#000000;stroke-width:0.8;" x="54" xlink:href="#m0c8603c102" y="327.079688"/>
      </g>
     </g>
     <g id="text_55">
      <!-- R60 -->
      <g transform="translate(27.326562 330.878906)scale(0.1 -0.1)">
       <use xlink:href="#DejaVuSans-82"/>
       <use x="69.482422" xlink:href="#DejaVuSans-54"/>
       <use x="133.105469" xlink:href="#DejaVuSans-48"/>
      </g>
     </g>
    </g>
    <g id="ytick_50">
     <g id="line2d_56">
      <g>
       <use style="stroke:#000000;stroke-width:0.8;" x="54" xlink:href="#m0c8603c102" y="314.339063"/>
      </g>
     </g>
     <g id="text_56">
      <!-- R61 -->
      <g transform="translate(27.326562 318.138281)scale(0.1 -0.1)">
       <use xlink:href="#DejaVuSans-82"/>
       <use x="69.482422" xlink:href="#DejaVuSans-54"/>
       <use x="133.105469" xlink:href="#DejaVuSans-49"/>
      </g>
     </g>
    </g>
    <g id="ytick_51">
     <g id="line2d_57">
      <g>
       <use style="stroke:#000000;stroke-width:0.8;" x="54" xlink:href="#m0c8603c102" y="301.598438"/>
      </g>
     </g>
     <g id="text_57">
      <!-- R62 -->
      <g transform="translate(27.326562 305.397656)scale(0.1 -0.1)">
       <use xlink:href="#DejaVuSans-82"/>
       <use x="69.482422" xlink:href="#DejaVuSans-54"/>
       <use x="133.105469" xlink:href="#DejaVuSans-50"/>
      </g>
     </g>
    </g>
    <g id="ytick_52">
     <g id="line2d_58">
      <g>
       <use style="stroke:#000000;stroke-width:0.8;" x="54" xlink:href="#m0c8603c102" y="288.857813"/>
      </g>
     </g>
     <g id="text_58">
      <!-- R63 -->
      <g transform="translate(27.326562 292.657031)scale(0.1 -0.1)">
       <use xlink:href="#DejaVuSans-82"/>
       <use x="69.482422" xlink:href="#DejaVuSans-54"/>
       <use x="133.105469" xlink:href="#DejaVuSans-51"/>
      </g>
     </g>
    </g>
    <g id="ytick_53">
     <g id="line2d_59">
      <g>
       <use style="stroke:#000000;stroke-width:0.8;" x="54" xlink:href="#m0c8603c102" y="276.117188"/>
      </g>
     </g>
     <g id="text_59">
      <!-- R64 -->
      <g transform="translate(27.326562 279.916406)scale(0.1 -0.1)">
       <use xlink:href="#DejaVuSans-82"/>
       <use x="69.482422" xlink:href="#DejaVuSans-54"/>
       <use x="133.105469" xlink:href="#DejaVuSans-52"/>
      </g>
     </g>
    </g>
    <g id="ytick_54">
     <g id="line2d_60">
      <g>
       <use style="stroke:#000000;stroke-width:0.8;" x="54" xlink:href="#m0c8603c102" y="263.376563"/>
      </g>
     </g>
     <g id="text_60">
      <!-- R65 -->
      <g transform="translate(27.326562 267.175781)scale(0.1 -0.1)">
       <use xlink:href="#DejaVuSans-82"/>
       <use x="69.482422" xlink:href="#DejaVuSans-54"/>
       <use x="133.105469" xlink:href="#DejaVuSans-53"/>
      </g>
     </g>
    </g>
    <g id="ytick_55">
     <g id="line2d_61">
      <g>
       <use style="stroke:#000000;stroke-width:0.8;" x="54" xlink:href="#m0c8603c102" y="250.635938"/>
      </g>
     </g>
     <g id="text_61">
      <!-- R66 -->
      <g transform="translate(27.326562 254.435156)scale(0.1 -0.1)">
       <use xlink:href="#DejaVuSans-82"/>
       <use x="69.482422" xlink:href="#DejaVuSans-54"/>
       <use x="133.105469" xlink:href="#DejaVuSans-54"/>
      </g>
     </g>
    </g>
    <g id="ytick_56">
     <g id="line2d_62">
      <g>
       <use style="stroke:#000000;stroke-width:0.8;" x="54" xlink:href="#m0c8603c102" y="237.895313"/>
      </g>
     </g>
     <g id="text_62">
      <!-- R67 -->
      <g transform="translate(27.326562 241.694531)scale(0.1 -0.1)">
       <use xlink:href="#DejaVuSans-82"/>
       <use x="69.482422" xlink:href="#DejaVuSans-54"/>
       <use x="133.105469" xlink:href="#DejaVuSans-55"/>
      </g>
     </g>
    </g>
    <g id="ytick_57">
     <g id="line2d_63">
      <g>
       <use style="stroke:#000000;stroke-width:0.8;" x="54" xlink:href="#m0c8603c102" y="225.154688"/>
      </g>
     </g>
     <g id="text_63">
      <!-- R70 -->
      <g transform="translate(27.326562 228.953906)scale(0.1 -0.1)">
       <use xlink:href="#DejaVuSans-82"/>
       <use x="69.482422" xlink:href="#DejaVuSans-55"/>
       <use x="133.105469" xlink:href="#DejaVuSans-48"/>
      </g>
     </g>
    </g>
    <g id="ytick_58">
     <g id="line2d_64">
      <g>
       <use style="stroke:#000000;stroke-width:0.8;" x="54" xlink:href="#m0c8603c102" y="212.414063"/>
      </g>
     </g>
     <g id="text_64">
      <!-- R71 -->
      <g transform="translate(27.326562 216.213281)scale(0.1 -0.1)">
       <use xlink:href="#DejaVuSans-82"/>
       <use x="69.482422" xlink:href="#DejaVuSans-55"/>
       <use x="133.105469" xlink:href="#DejaVuSans-49"/>
      </g>
     </g>
    </g>
    <g id="ytick_59">
     <g id="line2d_65">
      <g>
       <use style="stroke:#000000;stroke-width:0.8;" x="54" xlink:href="#m0c8603c102" y="199.673438"/>
      </g>
     </g>
     <g id="text_65">
      <!-- R72 -->
      <g transform="translate(27.326562 203.472656)scale(0.1 -0.1)">
       <use xlink:href="#DejaVuSans-82"/>
       <use x="69.482422" xlink:href="#DejaVuSans-55"/>
       <use x="133.105469" xlink:href="#DejaVuSans-50"/>
      </g>
     </g>
    </g>
    <g id="ytick_60">
     <g id="line2d_66">
      <g>
       <use style="stroke:#000000;stroke-width:0.8;" x="54" xlink:href="#m0c8603c102" y="186.932813"/>
      </g>
     </g>
     <g id="text_66">
      <!-- R73 -->
      <g transform="translate(27.326562 190.732031)scale(0.1 -0.1)">
       <use xlink:href="#DejaVuSans-82"/>
       <use x="69.482422" xlink:href="#DejaVuSans-55"/>
       <use x="133.105469" xlink:href="#DejaVuSans-51"/>
      </g>
     </g>
    </g>
    <g id="ytick_61">
     <g id="line2d_67">
      <g>
       <use style="stroke:#000000;stroke-width:0.8;" x="54" xlink:href="#m0c8603c102" y="174.192188"/>
      </g>
     </g>
     <g id="text_67">
      <!-- R74 -->
      <g transform="translate(27.326562 177.991406)scale(0.1 -0.1)">
       <use xlink:href="#DejaVuSans-82"/>
       <use x="69.482422" xlink:href="#DejaVuSans-55"/>
       <use x="133.105469" xlink:href="#DejaVuSans-52"/>
      </g>
     </g>
    </g>
    <g id="ytick_62">
     <g id="line2d_68">
      <g>
       <use style="stroke:#000000;stroke-width:0.8;" x="54" xlink:href="#m0c8603c102" y="161.451563"/>
      </g>
     </g>
     <g id="text_68">
      <!-- R75 -->
      <g transform="translate(27.326562 165.250781)scale(0.1 -0.1)">
       <use xlink:href="#DejaVuSans-82"/>
       <use x="69.482422" xlink:href="#DejaVuSans-55"/>
       <use x="133.105469" xlink:href="#DejaVuSans-53"/>
      </g>
     </g>
    </g>
    <g id="ytick_63">
     <g id="line2d_69">
      <g>
       <use style="stroke:#000000;stroke-width:0.8;" x="54" xlink:href="#m0c8603c102" y="148.710938"/>
      </g>
     </g>
     <g id="text_69">
      <!-- R76 -->
      <g transform="translate(27.326562 152.510156)scale(0.1 -0.1)">
       <use xlink:href="#DejaVuSans-82"/>
       <use x="69.482422" xlink:href="#DejaVuSans-55"/>
       <use x="133.105469" xlink:href="#DejaVuSans-54"/>
      </g>
     </g>
    </g>
    <g id="ytick_64">
     <g id="line2d_70">
      <g>
       <use style="stroke:#000000;stroke-width:0.8;" x="54" xlink:href="#m0c8603c102" y="135.970313"/>
      </g>
     </g>
     <g id="text_70">
      <!-- R77 -->
      <g transform="translate(27.326562 139.769531)scale(0.1 -0.1)">
       <use xlink:href="#DejaVuSans-82"/>
       <use x="69.482422" xlink:href="#DejaVuSans-55"/>
       <use x="133.105469" xlink:href="#DejaVuSans-55"/>
      </g>
     </g>
    </g>
    <g id="text_71">
     <!-- Rack -->
     <g transform="translate(21.246875 549.370312)rotate(-90)scale(0.1 -0.1)">
      <defs>
       <path d="M 34.28125 27.484375 
Q 23.390625 27.484375 19.1875 25 
Q 14.984375 22.515625 14.984375 16.5 
Q 14.984375 11.71875 18.140625 8.90625 
Q 21.296875 6.109375 26.703125 6.109375 
Q 34.1875 6.109375 38.703125 11.40625 
Q 43.21875 16.703125 43.21875 25.484375 
L 43.21875 27.484375 
z
M 52.203125 31.203125 
L 52.203125 0 
L 43.21875 0 
L 43.21875 8.296875 
Q 40.140625 3.328125 35.546875 0.953125 
Q 30.953125 -1.421875 24.3125 -1.421875 
Q 15.921875 -1.421875 10.953125 3.296875 
Q 6 8.015625 6 15.921875 
Q 6 25.140625 12.171875 29.828125 
Q 18.359375 34.515625 30.609375 34.515625 
L 43.21875 34.515625 
L 43.21875 35.40625 
Q 43.21875 41.609375 39.140625 45 
Q 35.0625 48.390625 27.6875 48.390625 
Q 23 48.390625 18.546875 47.265625 
Q 14.109375 46.140625 10.015625 43.890625 
L 10.015625 52.203125 
Q 14.9375 54.109375 19.578125 55.046875 
Q 24.21875 56 28.609375 56 
Q 40.484375 56 46.34375 49.84375 
Q 52.203125 43.703125 52.203125 31.203125 
z
" id="DejaVuSans-97"/>
       <path d="M 48.78125 52.59375 
L 48.78125 44.1875 
Q 44.96875 46.296875 41.140625 47.34375 
Q 37.3125 48.390625 33.40625 48.390625 
Q 24.65625 48.390625 19.8125 42.84375 
Q 14.984375 37.3125 14.984375 27.296875 
Q 14.984375 17.28125 19.8125 11.734375 
Q 24.65625 6.203125 33.40625 6.203125 
Q 37.3125 6.203125 41.140625 7.25 
Q 44.96875 8.296875 48.78125 10.40625 
L 48.78125 2.09375 
Q 45.015625 0.34375 40.984375 -0.53125 
Q 36.96875 -1.421875 32.421875 -1.421875 
Q 20.0625 -1.421875 12.78125 6.34375 
Q 5.515625 14.109375 5.515625 27.296875 
Q 5.515625 40.671875 12.859375 48.328125 
Q 20.21875 56 33.015625 56 
Q 37.15625 56 41.109375 55.140625 
Q 45.0625 54.296875 48.78125 52.59375 
z
" id="DejaVuSans-99"/>
       <path d="M 9.078125 75.984375 
L 18.109375 75.984375 
L 18.109375 31.109375 
L 44.921875 54.6875 
L 56.390625 54.6875 
L 27.390625 29.109375 
L 57.625 0 
L 45.90625 0 
L 18.109375 26.703125 
L 18.109375 0 
L 9.078125 0 
z
" id="DejaVuSans-107"/>
      </defs>
      <use xlink:href="#DejaVuSans-82"/>
      <use x="67.232422" xlink:href="#DejaVuSans-97"/>
      <use x="128.511719" xlink:href="#DejaVuSans-99"/>
      <use x="183.492188" xlink:href="#DejaVuSans-107"/>
     </g>
    </g>
   </g>
   <g id="patch_131">
    <path d="M 54 945 
L 54 129.6 
" style="fill:none;stroke:#000000;stroke-linecap:square;stroke-linejoin:miter;stroke-width:0.8;"/>
   </g>
   <g id="patch_132">
    <path d="M 388.8 945 
L 388.8 129.6 
" style="fill:none;stroke:#000000;stroke-linecap:square;stroke-linejoin:miter;stroke-width:0.8;"/>
   </g>
   <g id="patch_133">
    <path d="M 54 945 
L 388.8 945 
" style="fill:none;stroke:#000000;stroke-linecap:square;stroke-linejoin:miter;stroke-width:0.8;"/>
   </g>
   <g id="patch_134">
    <path d="M 54 129.6 
L 388.8 129.6 
" style="fill:none;stroke:#000000;stroke-linecap:square;stroke-linejoin:miter;stroke-width:0.8;"/>
   </g>
   <g id="legend_1">
    <g id="patch_135">
     <path d="M 286.553125 181.634375 
L 381.8 181.634375 
Q 383.8 181.634375 383.8 179.634375 
L 383.8 136.6 
Q 383.8 134.6 381.8 134.6 
L 286.553125 134.6 
Q 284.553125 134.6 284.553125 136.6 
L 284.553125 179.634375 
Q 284.553125 181.634375 286.553125 181.634375 
z
" style="fill:#ffffff;opacity:0.8;stroke:#cccccc;stroke-linejoin:miter;"/>
    </g>
    <g id="text_72">
     <!-- Card type -->
     <g transform="translate(309.719531 146.198437)scale(0.1 -0.1)">
      <defs>
       <path d="M 64.40625 67.28125 
L 64.40625 56.890625 
Q 59.421875 61.53125 53.78125 63.8125 
Q 48.140625 66.109375 41.796875 66.109375 
Q 29.296875 66.109375 22.65625 58.46875 
Q 16.015625 50.828125 16.015625 36.375 
Q 16.015625 21.96875 22.65625 14.328125 
Q 29.296875 6.6875 41.796875 6.6875 
Q 48.140625 6.6875 53.78125 8.984375 
Q 59.421875 11.28125 64.40625 15.921875 
L 64.40625 5.609375 
Q 59.234375 2.09375 53.4375 0.328125 
Q 47.65625 -1.421875 41.21875 -1.421875 
Q 24.65625 -1.421875 15.125 8.703125 
Q 5.609375 18.84375 5.609375 36.375 
Q 5.609375 53.953125 15.125 64.078125 
Q 24.65625 74.21875 41.21875 74.21875 
Q 47.75 74.21875 53.53125 72.484375 
Q 59.328125 70.75 64.40625 67.28125 
z
" id="DejaVuSans-67"/>
       <path d="M 41.109375 46.296875 
Q 39.59375 47.171875 37.8125 47.578125 
Q 36.03125 48 33.890625 48 
Q 26.265625 48 22.1875 43.046875 
Q 18.109375 38.09375 18.109375 28.8125 
L 18.109375 0 
L 9.078125 0 
L 9.078125 54.6875 
L 18.109375 54.6875 
L 18.109375 46.1875 
Q 20.953125 51.171875 25.484375 53.578125 
Q 30.03125 56 36.53125 56 
Q 37.453125 56 38.578125 55.875 
Q 39.703125 55.765625 41.0625 55.515625 
z
" id="DejaVuSans-114"/>
       <path d="M 45.40625 46.390625 
L 45.40625 75.984375 
L 54.390625 75.984375 
L 54.390625 0 
L 45.40625 0 
L 45.40625 8.203125 
Q 42.578125 3.328125 38.25 0.953125 
Q 33.9375 -1.421875 27.875 -1.421875 
Q 17.96875 -1.421875 11.734375 6.484375 
Q 5.515625 14.40625 5.515625 27.296875 
Q 5.515625 40.1875 11.734375 48.09375 
Q 17.96875 56 27.875 56 
Q 33.9375 56 38.25 53.625 
Q 42.578125 51.265625 45.40625 46.390625 
z
M 14.796875 27.296875 
Q 14.796875 17.390625 18.875 11.75 
Q 22.953125 6.109375 30.078125 6.109375 
Q 37.203125 6.109375 41.296875 11.75 
Q 45.40625 17.390625 45.40625 27.296875 
Q 45.40625 37.203125 41.296875 42.84375 
Q 37.203125 48.484375 30.078125 48.484375 
Q 22.953125 48.484375 18.875 42.84375 
Q 14.796875 37.203125 14.796875 27.296875 
z
" id="DejaVuSans-100"/>
       <path id="DejaVuSans-32"/>
       <path d="M 18.3125 70.21875 
L 18.3125 54.6875 
L 36.8125 54.6875 
L 36.8125 47.703125 
L 18.3125 47.703125 
L 18.3125 18.015625 
Q 18.3125 11.328125 20.140625 9.421875 
Q 21.96875 7.515625 27.59375 7.515625 
L 36.8125 7.515625 
L 36.8125 0 
L 27.59375 0 
Q 17.1875 0 13.234375 3.875 
Q 9.28125 7.765625 9.28125 18.015625 
L 9.28125 47.703125 
L 2.6875 47.703125 
L 2.6875 54.6875 
L 9.28125 54.6875 
L 9.28125 70.21875 
z
" id="DejaVuSans-116"/>
       <path d="M 32.171875 -5.078125 
Q 28.375 -14.84375 24.75 -17.8125 
Q 21.140625 -20.796875 15.09375 -20.796875 
L 7.90625 -20.796875 
L 7.90625 -13.28125 
L 13.1875 -13.28125 
Q 16.890625 -13.28125 18.9375 -11.515625 
Q 21 -9.765625 23.484375 -3.21875 
L 25.09375 0.875 
L 2.984375 54.6875 
L 12.5 54.6875 
L 29.59375 11.921875 
L 46.6875 54.6875 
L 56.203125 54.6875 
z
" id="DejaVuSans-121"/>
       <path d="M 18.109375 8.203125 
L 18.109375 -20.796875 
L 9.078125 -20.796875 
L 9.078125 54.6875 
L 18.109375 54.6875 
L 18.109375 46.390625 
Q 20.953125 51.265625 25.265625 53.625 
Q 29.59375 56 35.59375 56 
Q 45.5625 56 51.78125 48.09375 
Q 58.015625 40.1875 58.015625 27.296875 
Q 58.015625 14.40625 51.78125 6.484375 
Q 45.5625 -1.421875 35.59375 -1.421875 
Q 29.59375 -1.421875 25.265625 0.953125 
Q 20.953125 3.328125 18.109375 8.203125 
z
M 48.6875 27.296875 
Q 48.6875 37.203125 44.609375 42.84375 
Q 40.53125 48.484375 33.40625 48.484375 
Q 26.265625 48.484375 22.1875 42.84375 
Q 18.109375 37.203125 18.109375 27.296875 
Q 18.109375 17.390625 22.1875 11.75 
Q 26.265625 6.109375 33.40625 6.109375 
Q 40.53125 6.109375 44.609375 11.75 
Q 48.6875 17.390625 48.6875 27.296875 
z
" id="DejaVuSans-112"/>
       <path d="M 56.203125 29.59375 
L 56.203125 25.203125 
L 14.890625 25.203125 
Q 15.484375 15.921875 20.484375 11.0625 
Q 25.484375 6.203125 34.421875 6.203125 
Q 39.59375 6.203125 44.453125 7.46875 
Q 49.3125 8.734375 54.109375 11.28125 
L 54.109375 2.78125 
Q 49.265625 0.734375 44.1875 -0.34375 
Q 39.109375 -1.421875 33.890625 -1.421875 
Q 20.796875 -1.421875 13.15625 6.1875 
Q 5.515625 13.8125 5.515625 26.8125 
Q 5.515625 40.234375 12.765625 48.109375 
Q 20.015625 56 32.328125 56 
Q 43.359375 56 49.78125 48.890625 
Q 56.203125 41.796875 56.203125 29.59375 
z
M 47.21875 32.234375 
Q 47.125 39.59375 43.09375 43.984375 
Q 39.0625 48.390625 32.421875 48.390625 
Q 24.90625 48.390625 20.390625 44.140625 
Q 15.875 39.890625 15.1875 32.171875 
z
" id="DejaVuSans-101"/>
      </defs>
      <use xlink:href="#DejaVuSans-67"/>
      <use x="69.824219" xlink:href="#DejaVuSans-97"/>
      <use x="131.103516" xlink:href="#DejaVuSans-114"/>
      <use x="170.466797" xlink:href="#DejaVuSans-100"/>
      <use x="233.943359" xlink:href="#DejaVuSans-32"/>
      <use x="265.730469" xlink:href="#DejaVuSans-116"/>
      <use x="304.939453" xlink:href="#DejaVuSans-121"/>
      <use x="364.119141" xlink:href="#DejaVuSans-112"/>
      <use x="427.595703" xlink:href="#DejaVuSans-101"/>
     </g>
    </g>
    <g id="patch_136">
     <path d="M 288.553125 160.876562 
L 308.553125 160.876562 
L 308.553125 153.876562 
L 288.553125 153.876562 
z
" style="fill:#1f77b4;"/>
    </g>
    <g id="text_73">
     <!-- I-O -->
     <g transform="translate(316.553125 160.876562)scale(0.1 -0.1)">
      <defs>
       <path d="M 9.8125 72.90625 
L 19.671875 72.90625 
L 19.671875 0 
L 9.8125 0 
z
" id="DejaVuSans-73"/>
       <path d="M 4.890625 31.390625 
L 31.203125 31.390625 
L 31.203125 23.390625 
L 4.890625 23.390625 
z
" id="DejaVuSans-45"/>
       <path d="M 39.40625 66.21875 
Q 28.65625 66.21875 22.328125 58.203125 
Q 16.015625 50.203125 16.015625 36.375 
Q 16.015625 22.609375 22.328125 14.59375 
Q 28.65625 6.59375 39.40625 6.59375 
Q 50.140625 6.59375 56.421875 14.59375 
Q 62.703125 22.609375 62.703125 36.375 
Q 62.703125 50.203125 56.421875 58.203125 
Q 50.140625 66.21875 39.40625 66.21875 
z
M 39.40625 74.21875 
Q 54.734375 74.21875 63.90625 63.9375 
Q 73.09375 53.65625 73.09375 36.375 
Q 73.09375 19.140625 63.90625 8.859375 
Q 54.734375 -1.421875 39.40625 -1.421875 
Q 24.03125 -1.421875 14.8125 8.828125 
Q 5.609375 19.09375 5.609375 36.375 
Q 5.609375 53.65625 14.8125 63.9375 
Q 24.03125 74.21875 39.40625 74.21875 
z
" id="DejaVuSans-79"/>
      </defs>
      <use xlink:href="#DejaVuSans-73"/>
      <use x="29.492188" xlink:href="#DejaVuSans-45"/>
      <use x="68.326172" xlink:href="#DejaVuSans-79"/>
     </g>
    </g>
    <g id="patch_137">
     <path d="M 288.553125 175.554688 
L 308.553125 175.554688 
L 308.553125 168.554688 
L 288.553125 168.554688 
z
" style="fill:#ff7f0e;"/>
    </g>
    <g id="text_74">
     <!-- computation -->
     <g transform="translate(316.553125 175.554688)scale(0.1 -0.1)">
      <defs>
       <path d="M 30.609375 48.390625 
Q 23.390625 48.390625 19.1875 42.75 
Q 14.984375 37.109375 14.984375 27.296875 
Q 14.984375 17.484375 19.15625 11.84375 
Q 23.34375 6.203125 30.609375 6.203125 
Q 37.796875 6.203125 41.984375 11.859375 
Q 46.1875 17.53125 46.1875 27.296875 
Q 46.1875 37.015625 41.984375 42.703125 
Q 37.796875 48.390625 30.609375 48.390625 
z
M 30.609375 56 
Q 42.328125 56 49.015625 48.375 
Q 55.71875 40.765625 55.71875 27.296875 
Q 55.71875 13.875 49.015625 6.21875 
Q 42.328125 -1.421875 30.609375 -1.421875 
Q 18.84375 -1.421875 12.171875 6.21875 
Q 5.515625 13.875 5.515625 27.296875 
Q 5.515625 40.765625 12.171875 48.375 
Q 18.84375 56 30.609375 56 
z
" id="DejaVuSans-111"/>
       <path d="M 52 44.1875 
Q 55.375 50.25 60.0625 53.125 
Q 64.75 56 71.09375 56 
Q 79.640625 56 84.28125 50.015625 
Q 88.921875 44.046875 88.921875 33.015625 
L 88.921875 0 
L 79.890625 0 
L 79.890625 32.71875 
Q 79.890625 40.578125 77.09375 44.375 
Q 74.3125 48.1875 68.609375 48.1875 
Q 61.625 48.1875 57.5625 43.546875 
Q 53.515625 38.921875 53.515625 30.90625 
L 53.515625 0 
L 44.484375 0 
L 44.484375 32.71875 
Q 44.484375 40.625 41.703125 44.40625 
Q 38.921875 48.1875 33.109375 48.1875 
Q 26.21875 48.1875 22.15625 43.53125 
Q 18.109375 38.875 18.109375 30.90625 
L 18.109375 0 
L 9.078125 0 
L 9.078125 54.6875 
L 18.109375 54.6875 
L 18.109375 46.1875 
Q 21.1875 51.21875 25.484375 53.609375 
Q 29.78125 56 35.6875 56 
Q 41.65625 56 45.828125 52.96875 
Q 50 49.953125 52 44.1875 
z
" id="DejaVuSans-109"/>
       <path d="M 8.5 21.578125 
L 8.5 54.6875 
L 17.484375 54.6875 
L 17.484375 21.921875 
Q 17.484375 14.15625 20.5 10.265625 
Q 23.53125 6.390625 29.59375 6.390625 
Q 36.859375 6.390625 41.078125 11.03125 
Q 45.3125 15.671875 45.3125 23.6875 
L 45.3125 54.6875 
L 54.296875 54.6875 
L 54.296875 0 
L 45.3125 0 
L 45.3125 8.40625 
Q 42.046875 3.421875 37.71875 1 
Q 33.40625 -1.421875 27.6875 -1.421875 
Q 18.265625 -1.421875 13.375 4.4375 
Q 8.5 10.296875 8.5 21.578125 
z
M 31.109375 56 
z
" id="DejaVuSans-117"/>
       <path d="M 9.421875 54.6875 
L 18.40625 54.6875 
L 18.40625 0 
L 9.421875 0 
z
M 9.421875 75.984375 
L 18.40625 75.984375 
L 18.40625 64.59375 
L 9.421875 64.59375 
z
" id="DejaVuSans-105"/>
       <path d="M 54.890625 33.015625 
L 54.890625 0 
L 45.90625 0 
L 45.90625 32.71875 
Q 45.90625 40.484375 42.875 44.328125 
Q 39.84375 48.1875 33.796875 48.1875 
Q 26.515625 48.1875 22.3125 43.546875 
Q 18.109375 38.921875 18.109375 30.90625 
L 18.109375 0 
L 9.078125 0 
L 9.078125 54.6875 
L 18.109375 54.6875 
L 18.109375 46.1875 
Q 21.34375 51.125 25.703125 53.5625 
Q 30.078125 56 35.796875 56 
Q 45.21875 56 50.046875 50.171875 
Q 54.890625 44.34375 54.890625 33.015625 
z
" id="DejaVuSans-110"/>
      </defs>
      <use xlink:href="#DejaVuSans-99"/>
      <use x="54.980469" xlink:href="#DejaVuSans-111"/>
      <use x="116.162109" xlink:href="#DejaVuSans-109"/>
      <use x="213.574219" xlink:href="#DejaVuSans-112"/>
      <use x="277.050781" xlink:href="#DejaVuSans-117"/>
      <use x="340.429688" xlink:href="#DejaVuSans-116"/>
      <use x="379.638672" xlink:href="#DejaVuSans-97"/>
      <use x="440.917969" xlink:href="#DejaVuSans-116"/>
      <use x="480.126953" xlink:href="#DejaVuSans-105"/>
      <use x="507.910156" xlink:href="#DejaVuSans-111"/>
      <use x="569.091797" xlink:href="#DejaVuSans-110"/>
     </g>
    </g>
   </g>
  </g>
 </g>
 <defs>
  <clipPath id="pd24a3e7fe2">
   <rect height="815.4" width="334.8" x="54" y="129.6"/>
  </clipPath>
 </defs>
</svg>
