<?xml version="1.0" encoding="utf-8" standalone="no"?>
<!DOCTYPE svg PUBLIC "-//W3C//DTD SVG 1.1//EN"
  "http://www.w3.org/Graphics/SVG/1.1/DTD/svg11.dtd">
<!-- Created with matplotlib (https://matplotlib.org/) -->
<svg height="353.15625pt" version="1.1" viewBox="0 0 366.59068 353.15625" width="366.59068pt" xmlns="http://www.w3.org/2000/svg" xmlns:xlink="http://www.w3.org/1999/xlink">
 <metadata>
  <rdf:RDF xmlns:cc="http://creativecommons.org/ns#" xmlns:dc="http://purl.org/dc/elements/1.1/" xmlns:rdf="http://www.w3.org/1999/02/22-rdf-syntax-ns#">
   <cc:Work>
    <dc:type rdf:resource="http://purl.org/dc/dcmitype/StillImage"/>
    <dc:date>2021-01-15T11:29:52.390342</dc:date>
    <dc:format>image/svg+xml</dc:format>
    <dc:creator>
     <cc:Agent>
      <dc:title>Matplotlib v3.3.3, https://matplotlib.org/</dc:title>
     </cc:Agent>
    </dc:creator>
   </cc:Work>
  </rdf:RDF>
 </metadata>
 <defs>
  <style type="text/css">*{stroke-linecap:butt;stroke-linejoin:round;}</style>
 </defs>
 <g id="figure_1">
  <g id="patch_1">
   <path d="M 0 353.15625 
L 366.59068 353.15625 
L 366.59068 0 
L 0 0 
z
" style="fill:none;"/>
  </g>
  <g id="axes_1">
   <g id="patch_2">
    <path d="M 40.603125 315.6 
L 354.081386 315.6 
L 354.081386 7.2 
L 40.603125 7.2 
z
" style="fill:#ffffff;"/>
   </g>
   <g id="PolyCollection_1">
    <path clip-path="url(#p2c20411176)" d="M 40.603125 189.926772 
L 40.603125 200.160929 
L 43.769414 200.160928 
L 46.935702 200.160928 
L 50.101991 200.160928 
L 53.268279 200.160928 
L 56.434567 200.160927 
L 59.600856 200.160927 
L 62.767144 200.160927 
L 65.933433 200.160927 
L 69.099721 200.160926 
L 72.26601 200.160926 
L 75.432298 200.160926 
L 78.598587 200.160926 
L 81.764875 200.160925 
L 84.931164 200.160925 
L 88.097452 200.160925 
L 91.26374 200.160925 
L 94.430029 200.160924 
L 97.596318 200.160924 
L 100.762606 200.160924 
L 103.928894 200.160924 
L 107.095183 200.160923 
L 110.261471 200.160923 
L 113.427759 200.160923 
L 116.594048 200.160923 
L 119.760337 200.160922 
L 122.926625 200.160922 
L 126.092913 200.160922 
L 129.259202 200.160922 
L 132.42549 200.160921 
L 135.591779 200.160921 
L 138.758067 200.160921 
L 141.924356 200.16092 
L 145.090644 200.16092 
L 148.256932 200.16092 
L 151.423221 200.16092 
L 154.589509 200.160919 
L 157.755798 200.160919 
L 160.922086 200.160919 
L 164.088375 200.160919 
L 167.254663 200.160918 
L 170.420952 200.160918 
L 173.58724 200.160918 
L 176.753529 200.160918 
L 179.919817 200.160917 
L 183.086105 200.160917 
L 186.252394 200.160917 
L 189.418683 200.160917 
L 192.584971 200.160916 
L 195.751259 200.160916 
L 198.917548 200.160916 
L 202.083836 200.160916 
L 205.250124 200.160915 
L 208.416413 200.160915 
L 211.582702 200.160915 
L 214.74899 200.160915 
L 217.915278 200.160914 
L 221.081567 200.160914 
L 224.247855 200.160914 
L 227.414144 200.160914 
L 230.580432 200.160913 
L 233.746721 200.160913 
L 236.913009 200.160913 
L 240.079298 200.160912 
L 243.245586 200.160912 
L 246.411875 200.160912 
L 249.578163 200.160912 
L 252.744451 200.160911 
L 255.91074 200.160911 
L 259.077028 200.160911 
L 262.243317 200.160911 
L 265.409605 200.16091 
L 268.575894 200.16091 
L 271.742182 200.16091 
L 274.90847 200.16091 
L 278.074759 200.160909 
L 281.241048 200.160909 
L 284.407336 200.160909 
L 287.573624 200.160909 
L 290.739913 200.160908 
L 293.906201 200.160908 
L 297.07249 200.160908 
L 300.238778 200.160908 
L 303.405067 200.160907 
L 306.571355 200.160907 
L 309.737644 200.160907 
L 312.903932 200.160907 
L 316.07022 200.160906 
L 319.236509 200.160906 
L 322.402797 200.160906 
L 325.569086 200.160906 
L 328.735374 200.160905 
L 331.901663 200.160905 
L 335.067951 200.160905 
L 338.23424 200.160905 
L 341.400528 200.160904 
L 344.566817 200.160904 
L 347.733105 200.160904 
L 350.899393 200.160903 
L 354.065682 200.160903 
L 354.065682 189.926744 
L 354.065682 189.926744 
L 350.899393 189.926745 
L 347.733105 189.926745 
L 344.566817 189.926745 
L 341.400528 189.926746 
L 338.23424 189.926746 
L 335.067951 189.926746 
L 331.901663 189.926746 
L 328.735374 189.926747 
L 325.569086 189.926747 
L 322.402797 189.926747 
L 319.236509 189.926747 
L 316.07022 189.926748 
L 312.903932 189.926748 
L 309.737644 189.926748 
L 306.571355 189.926749 
L 303.405067 189.926749 
L 300.238778 189.926749 
L 297.07249 189.926749 
L 293.906201 189.92675 
L 290.739913 189.92675 
L 287.573624 189.92675 
L 284.407336 189.926751 
L 281.241048 189.926751 
L 278.074759 189.926751 
L 274.90847 189.926751 
L 271.742182 189.926752 
L 268.575894 189.926752 
L 265.409605 189.926752 
L 262.243317 189.926752 
L 259.077028 189.926753 
L 255.91074 189.926753 
L 252.744451 189.926753 
L 249.578163 189.926754 
L 246.411875 189.926754 
L 243.245586 189.926754 
L 240.079298 189.926754 
L 236.913009 189.926755 
L 233.746721 189.926755 
L 230.580432 189.926755 
L 227.414144 189.926755 
L 224.247855 189.926756 
L 221.081567 189.926756 
L 217.915278 189.926756 
L 214.74899 189.926757 
L 211.582702 189.926757 
L 208.416413 189.926757 
L 205.250124 189.926757 
L 202.083836 189.926758 
L 198.917548 189.926758 
L 195.751259 189.926758 
L 192.584971 189.926759 
L 189.418683 189.926759 
L 186.252394 189.926759 
L 183.086105 189.926759 
L 179.919817 189.92676 
L 176.753529 189.92676 
L 173.58724 189.92676 
L 170.420952 189.92676 
L 167.254663 189.926761 
L 164.088375 189.926761 
L 160.922086 189.926761 
L 157.755798 189.926762 
L 154.589509 189.926762 
L 151.423221 189.926762 
L 148.256932 189.926762 
L 145.090644 189.926763 
L 141.924356 189.926763 
L 138.758067 189.926763 
L 135.591779 189.926764 
L 132.42549 189.926764 
L 129.259202 189.926764 
L 126.092913 189.926764 
L 122.926625 189.926765 
L 119.760337 189.926765 
L 116.594048 189.926765 
L 113.427759 189.926765 
L 110.261471 189.926766 
L 107.095183 189.926766 
L 103.928894 189.926766 
L 100.762606 189.926767 
L 97.596318 189.926767 
L 94.430029 189.926767 
L 91.26374 189.926767 
L 88.097452 189.926768 
L 84.931164 189.926768 
L 81.764875 189.926768 
L 78.598587 189.926768 
L 75.432298 189.926769 
L 72.26601 189.926769 
L 69.099721 189.926769 
L 65.933433 189.92677 
L 62.767144 189.92677 
L 59.600856 189.92677 
L 56.434567 189.92677 
L 53.268279 189.926771 
L 50.101991 189.926771 
L 46.935702 189.926771 
L 43.769414 189.926772 
L 40.603125 189.926772 
z
" style="fill:#1f77b4;fill-opacity:0.15;"/>
   </g>
   <g id="PolyCollection_2">
    <path clip-path="url(#p2c20411176)" d="M 40.603125 21.218241 
L 40.603125 35.017476 
L 43.769297 35.017476 
L 46.935469 35.017475 
L 50.101641 35.017475 
L 53.267814 35.017474 
L 56.433986 35.017473 
L 59.600158 35.017473 
L 62.76633 35.017472 
L 65.932502 35.017472 
L 69.098674 35.017471 
L 72.264847 35.017471 
L 75.431019 35.01747 
L 78.597191 35.017469 
L 81.763363 35.017469 
L 84.929535 35.017468 
L 88.095707 35.017468 
L 91.261879 35.017467 
L 94.428051 35.017467 
L 97.594223 35.017466 
L 100.760396 35.017465 
L 103.926568 35.017465 
L 107.09274 35.017464 
L 110.258912 35.017464 
L 113.425084 35.017463 
L 116.591256 35.017463 
L 119.757428 35.017462 
L 122.9236 35.017461 
L 126.089773 35.017461 
L 129.255944 35.01746 
L 132.422117 35.01746 
L 135.588289 35.017459 
L 138.754461 35.017459 
L 141.920633 35.017458 
L 145.086805 35.017458 
L 148.252977 35.017457 
L 151.41915 35.017456 
L 154.585322 35.017456 
L 157.751494 35.017455 
L 160.917666 35.017455 
L 164.083838 35.017454 
L 167.25001 35.017454 
L 170.416182 35.017453 
L 173.582354 35.017452 
L 176.748526 35.017452 
L 179.914699 35.017451 
L 183.080871 35.017451 
L 186.247043 35.01745 
L 189.413215 35.01745 
L 192.579387 35.017449 
L 195.745559 35.017448 
L 198.911731 35.017448 
L 202.077904 35.017447 
L 205.244076 35.017447 
L 208.410248 35.017446 
L 211.57642 35.017446 
L 214.742592 35.017445 
L 217.908764 35.017444 
L 221.074936 35.017444 
L 224.241108 35.017443 
L 227.40728 35.017443 
L 230.573452 35.017442 
L 233.739625 35.017442 
L 236.905797 35.017441 
L 240.071969 35.017441 
L 243.238141 35.01744 
L 246.404313 35.017439 
L 249.570485 35.017439 
L 252.736658 35.017438 
L 255.90283 35.017438 
L 259.069002 35.017437 
L 262.235174 35.017437 
L 265.401346 35.017436 
L 268.567518 35.017435 
L 271.73369 35.017435 
L 274.899862 35.017434 
L 278.066035 35.017434 
L 281.232207 35.017433 
L 284.398379 35.017433 
L 287.564551 35.017432 
L 290.730723 35.017431 
L 293.896895 35.017431 
L 297.063067 35.01743 
L 300.229239 35.01743 
L 303.395411 35.017429 
L 306.561584 35.017429 
L 309.727756 35.017428 
L 312.893928 35.017427 
L 316.0601 35.017427 
L 319.226272 35.017426 
L 322.392444 35.017426 
L 325.558616 35.017425 
L 328.724788 35.017425 
L 331.890961 35.017424 
L 335.057133 35.017423 
L 338.223305 35.017423 
L 341.389477 35.017422 
L 344.555649 35.017422 
L 347.721821 35.017421 
L 350.887994 35.017421 
L 354.054166 35.01742 
L 354.054166 21.218182 
L 354.054166 21.218182 
L 350.887994 21.218182 
L 347.721821 21.218183 
L 344.555649 21.218184 
L 341.389477 21.218184 
L 338.223305 21.218185 
L 335.057133 21.218185 
L 331.890961 21.218186 
L 328.724788 21.218187 
L 325.558616 21.218187 
L 322.392444 21.218188 
L 319.226272 21.218188 
L 316.0601 21.218189 
L 312.893928 21.21819 
L 309.727756 21.21819 
L 306.561584 21.218191 
L 303.395411 21.218191 
L 300.229239 21.218192 
L 297.063067 21.218193 
L 293.896895 21.218193 
L 290.730723 21.218194 
L 287.564551 21.218194 
L 284.398379 21.218195 
L 281.232207 21.218195 
L 278.066035 21.218196 
L 274.899862 21.218197 
L 271.73369 21.218197 
L 268.567518 21.218198 
L 265.401346 21.218198 
L 262.235174 21.218199 
L 259.069002 21.2182 
L 255.90283 21.2182 
L 252.736658 21.218201 
L 249.570485 21.218201 
L 246.404313 21.218202 
L 243.238141 21.218203 
L 240.071969 21.218203 
L 236.905797 21.218204 
L 233.739625 21.218204 
L 230.573452 21.218205 
L 227.40728 21.218206 
L 224.241108 21.218206 
L 221.074936 21.218207 
L 217.908764 21.218207 
L 214.742592 21.218208 
L 211.57642 21.218209 
L 208.410248 21.218209 
L 205.244076 21.21821 
L 202.077904 21.21821 
L 198.911731 21.218211 
L 195.745559 21.218211 
L 192.579387 21.218212 
L 189.413215 21.218213 
L 186.247043 21.218213 
L 183.080871 21.218214 
L 179.914699 21.218214 
L 176.748526 21.218215 
L 173.582354 21.218216 
L 170.416182 21.218216 
L 167.25001 21.218217 
L 164.083838 21.218217 
L 160.917666 21.218218 
L 157.751494 21.218219 
L 154.585322 21.218219 
L 151.41915 21.21822 
L 148.252977 21.21822 
L 145.086805 21.218221 
L 141.920633 21.218222 
L 138.754461 21.218222 
L 135.588289 21.218223 
L 132.422117 21.218223 
L 129.255944 21.218224 
L 126.089773 21.218225 
L 122.9236 21.218225 
L 119.757428 21.218226 
L 116.591256 21.218226 
L 113.425084 21.218227 
L 110.258912 21.218228 
L 107.09274 21.218228 
L 103.926568 21.218229 
L 100.760396 21.218229 
L 97.594223 21.21823 
L 94.428051 21.21823 
L 91.261879 21.218231 
L 88.095707 21.218232 
L 84.929535 21.218232 
L 81.763363 21.218233 
L 78.597191 21.218233 
L 75.431019 21.218234 
L 72.264847 21.218235 
L 69.098674 21.218235 
L 65.932502 21.218236 
L 62.76633 21.218236 
L 59.600158 21.218237 
L 56.433986 21.218238 
L 53.267814 21.218238 
L 50.101641 21.218239 
L 46.935469 21.218239 
L 43.769297 21.21824 
L 40.603125 21.218241 
z
" style="fill:#ff7f0e;fill-opacity:0.15;"/>
   </g>
   <g id="PolyCollection_3">
    <path clip-path="url(#p2c20411176)" d="M 41.042842 297.191475 
L 41.042842 301.581818 
L 44.204847 301.581818 
L 47.366853 301.581818 
L 50.528858 301.581818 
L 53.690864 301.581818 
L 56.85287 301.581818 
L 60.014875 301.581818 
L 63.176881 301.581818 
L 66.338886 301.581818 
L 69.500891 301.581818 
L 72.662897 301.581818 
L 75.824902 301.581817 
L 78.986908 301.581817 
L 82.148913 301.581817 
L 85.310919 301.581817 
L 88.472924 301.581817 
L 91.63493 301.581817 
L 94.796935 301.581817 
L 97.958941 301.581817 
L 101.120946 301.581817 
L 104.282952 301.581817 
L 107.444957 301.581817 
L 110.606963 301.581817 
L 113.768968 301.581817 
L 116.930974 301.581817 
L 120.092979 301.581817 
L 123.254985 301.581816 
L 126.41699 301.581816 
L 129.578996 301.581816 
L 132.741001 301.581816 
L 135.903007 301.581816 
L 139.065012 301.581816 
L 142.227018 301.581816 
L 145.389023 301.581816 
L 148.551029 301.581816 
L 151.713034 301.581816 
L 154.87504 301.581816 
L 158.037045 301.581816 
L 161.199051 301.581816 
L 164.361056 301.581816 
L 167.523062 301.581816 
L 170.685067 301.581815 
L 173.847073 301.581815 
L 177.009079 301.581815 
L 180.171084 301.581815 
L 183.333089 301.581815 
L 186.495095 301.581815 
L 189.6571 301.581815 
L 192.819106 301.581815 
L 195.981111 301.581815 
L 199.143117 301.581815 
L 202.305122 301.581815 
L 205.467128 301.581815 
L 208.629133 301.581815 
L 211.791139 301.581815 
L 214.953144 301.581815 
L 218.115149 301.581814 
L 221.277155 301.581814 
L 224.439161 301.581814 
L 227.601166 301.581814 
L 230.763172 301.581814 
L 233.925177 301.581814 
L 237.087183 301.581814 
L 240.249188 301.581814 
L 243.411194 301.581814 
L 246.573199 301.581814 
L 249.735205 301.581814 
L 252.89721 301.581814 
L 256.059216 301.581814 
L 259.221221 301.581814 
L 262.383227 301.581813 
L 265.545232 301.581813 
L 268.707238 301.581813 
L 271.869243 301.581813 
L 275.031249 301.581813 
L 278.193254 301.581813 
L 281.35526 301.581813 
L 284.517265 301.581813 
L 287.679271 301.581813 
L 290.841276 301.581813 
L 294.003282 301.581813 
L 297.165287 301.581813 
L 300.327292 301.581813 
L 303.489298 301.581813 
L 306.651304 301.581813 
L 309.813309 301.581812 
L 312.975315 301.581812 
L 316.13732 301.581812 
L 319.299326 301.581812 
L 322.461331 301.581812 
L 325.623337 301.581812 
L 328.785342 301.581812 
L 331.947347 301.581812 
L 335.109353 301.581812 
L 338.271358 301.581812 
L 341.433364 301.581812 
L 344.59537 301.581812 
L 347.757375 301.581812 
L 350.919381 301.581812 
L 354.081386 301.581812 
L 354.081386 297.191467 
L 354.081386 297.191467 
L 350.919381 297.191467 
L 347.757375 297.191467 
L 344.59537 297.191468 
L 341.433364 297.191468 
L 338.271358 297.191468 
L 335.109353 297.191468 
L 331.947347 297.191468 
L 328.785342 297.191468 
L 325.623337 297.191468 
L 322.461331 297.191468 
L 319.299326 297.191468 
L 316.13732 297.191468 
L 312.975315 297.191468 
L 309.813309 297.191468 
L 306.651304 297.191468 
L 303.489298 297.191469 
L 300.327292 297.191469 
L 297.165287 297.191469 
L 294.003282 297.191469 
L 290.841276 297.191469 
L 287.679271 297.191469 
L 284.517265 297.191469 
L 281.35526 297.191469 
L 278.193254 297.191469 
L 275.031249 297.191469 
L 271.869243 297.191469 
L 268.707238 297.191469 
L 265.545232 297.191469 
L 262.383227 297.19147 
L 259.221221 297.19147 
L 256.059216 297.19147 
L 252.89721 297.19147 
L 249.735205 297.19147 
L 246.573199 297.19147 
L 243.411194 297.19147 
L 240.249188 297.19147 
L 237.087183 297.19147 
L 233.925177 297.19147 
L 230.763172 297.19147 
L 227.601166 297.19147 
L 224.439161 297.19147 
L 221.277155 297.191471 
L 218.115149 297.191471 
L 214.953144 297.191471 
L 211.791139 297.191471 
L 208.629133 297.191471 
L 205.467128 297.191471 
L 202.305122 297.191471 
L 199.143117 297.191471 
L 195.981111 297.191471 
L 192.819106 297.191471 
L 189.6571 297.191471 
L 186.495095 297.191471 
L 183.333089 297.191471 
L 180.171084 297.191471 
L 177.009079 297.191472 
L 173.847073 297.191472 
L 170.685067 297.191472 
L 167.523062 297.191472 
L 164.361056 297.191472 
L 161.199051 297.191472 
L 158.037045 297.191472 
L 154.87504 297.191472 
L 151.713034 297.191472 
L 148.551029 297.191472 
L 145.389023 297.191472 
L 142.227018 297.191472 
L 139.065012 297.191472 
L 135.903007 297.191473 
L 132.741001 297.191473 
L 129.578996 297.191473 
L 126.41699 297.191473 
L 123.254985 297.191473 
L 120.092979 297.191473 
L 116.930974 297.191473 
L 113.768968 297.191473 
L 110.606963 297.191473 
L 107.444957 297.191473 
L 104.282952 297.191473 
L 101.120946 297.191473 
L 97.958941 297.191473 
L 94.796935 297.191474 
L 91.63493 297.191474 
L 88.472924 297.191474 
L 85.310919 297.191474 
L 82.148913 297.191474 
L 78.986908 297.191474 
L 75.824902 297.191474 
L 72.662897 297.191474 
L 69.500891 297.191474 
L 66.338886 297.191474 
L 63.176881 297.191474 
L 60.014875 297.191474 
L 56.85287 297.191474 
L 53.690864 297.191474 
L 50.528858 297.191475 
L 47.366853 297.191475 
L 44.204847 297.191475 
L 41.042842 297.191475 
z
" style="fill:#2ca02c;fill-opacity:0.15;"/>
   </g>
   <g id="matplotlib.axis_1">
    <g id="xtick_1">
     <g id="line2d_1">
      <defs>
       <path d="M 0 0 
L 0 3.5 
" id="mc84753b74c" style="stroke:#000000;stroke-width:0.8;"/>
      </defs>
      <g>
       <use style="stroke:#000000;stroke-width:0.8;" x="75.385767" xlink:href="#mc84753b74c" y="315.6"/>
      </g>
     </g>
     <g id="text_1">
      <!-- 2850000 -->
      <g transform="translate(53.117017 330.198437)scale(0.1 -0.1)">
       <defs>
        <path d="M 19.1875 8.296875 
L 53.609375 8.296875 
L 53.609375 0 
L 7.328125 0 
L 7.328125 8.296875 
Q 12.9375 14.109375 22.625 23.890625 
Q 32.328125 33.6875 34.8125 36.53125 
Q 39.546875 41.84375 41.421875 45.53125 
Q 43.3125 49.21875 43.3125 52.78125 
Q 43.3125 58.59375 39.234375 62.25 
Q 35.15625 65.921875 28.609375 65.921875 
Q 23.96875 65.921875 18.8125 64.3125 
Q 13.671875 62.703125 7.8125 59.421875 
L 7.8125 69.390625 
Q 13.765625 71.78125 18.9375 73 
Q 24.125 74.21875 28.421875 74.21875 
Q 39.75 74.21875 46.484375 68.546875 
Q 53.21875 62.890625 53.21875 53.421875 
Q 53.21875 48.921875 51.53125 44.890625 
Q 49.859375 40.875 45.40625 35.40625 
Q 44.1875 33.984375 37.640625 27.21875 
Q 31.109375 20.453125 19.1875 8.296875 
z
" id="DejaVuSans-50"/>
        <path d="M 31.78125 34.625 
Q 24.75 34.625 20.71875 30.859375 
Q 16.703125 27.09375 16.703125 20.515625 
Q 16.703125 13.921875 20.71875 10.15625 
Q 24.75 6.390625 31.78125 6.390625 
Q 38.8125 6.390625 42.859375 10.171875 
Q 46.921875 13.96875 46.921875 20.515625 
Q 46.921875 27.09375 42.890625 30.859375 
Q 38.875 34.625 31.78125 34.625 
z
M 21.921875 38.8125 
Q 15.578125 40.375 12.03125 44.71875 
Q 8.5 49.078125 8.5 55.328125 
Q 8.5 64.0625 14.71875 69.140625 
Q 20.953125 74.21875 31.78125 74.21875 
Q 42.671875 74.21875 48.875 69.140625 
Q 55.078125 64.0625 55.078125 55.328125 
Q 55.078125 49.078125 51.53125 44.71875 
Q 48 40.375 41.703125 38.8125 
Q 48.828125 37.15625 52.796875 32.3125 
Q 56.78125 27.484375 56.78125 20.515625 
Q 56.78125 9.90625 50.3125 4.234375 
Q 43.84375 -1.421875 31.78125 -1.421875 
Q 19.734375 -1.421875 13.25 4.234375 
Q 6.78125 9.90625 6.78125 20.515625 
Q 6.78125 27.484375 10.78125 32.3125 
Q 14.796875 37.15625 21.921875 38.8125 
z
M 18.3125 54.390625 
Q 18.3125 48.734375 21.84375 45.5625 
Q 25.390625 42.390625 31.78125 42.390625 
Q 38.140625 42.390625 41.71875 45.5625 
Q 45.3125 48.734375 45.3125 54.390625 
Q 45.3125 60.0625 41.71875 63.234375 
Q 38.140625 66.40625 31.78125 66.40625 
Q 25.390625 66.40625 21.84375 63.234375 
Q 18.3125 60.0625 18.3125 54.390625 
z
" id="DejaVuSans-56"/>
        <path d="M 10.796875 72.90625 
L 49.515625 72.90625 
L 49.515625 64.59375 
L 19.828125 64.59375 
L 19.828125 46.734375 
Q 21.96875 47.46875 24.109375 47.828125 
Q 26.265625 48.1875 28.421875 48.1875 
Q 40.625 48.1875 47.75 41.5 
Q 54.890625 34.8125 54.890625 23.390625 
Q 54.890625 11.625 47.5625 5.09375 
Q 40.234375 -1.421875 26.90625 -1.421875 
Q 22.3125 -1.421875 17.546875 -0.640625 
Q 12.796875 0.140625 7.71875 1.703125 
L 7.71875 11.625 
Q 12.109375 9.234375 16.796875 8.0625 
Q 21.484375 6.890625 26.703125 6.890625 
Q 35.15625 6.890625 40.078125 11.328125 
Q 45.015625 15.765625 45.015625 23.390625 
Q 45.015625 31 40.078125 35.4375 
Q 35.15625 39.890625 26.703125 39.890625 
Q 22.75 39.890625 18.8125 39.015625 
Q 14.890625 38.140625 10.796875 36.28125 
z
" id="DejaVuSans-53"/>
        <path d="M 31.78125 66.40625 
Q 24.171875 66.40625 20.328125 58.90625 
Q 16.5 51.421875 16.5 36.375 
Q 16.5 21.390625 20.328125 13.890625 
Q 24.171875 6.390625 31.78125 6.390625 
Q 39.453125 6.390625 43.28125 13.890625 
Q 47.125 21.390625 47.125 36.375 
Q 47.125 51.421875 43.28125 58.90625 
Q 39.453125 66.40625 31.78125 66.40625 
z
M 31.78125 74.21875 
Q 44.046875 74.21875 50.515625 64.515625 
Q 56.984375 54.828125 56.984375 36.375 
Q 56.984375 17.96875 50.515625 8.265625 
Q 44.046875 -1.421875 31.78125 -1.421875 
Q 19.53125 -1.421875 13.0625 8.265625 
Q 6.59375 17.96875 6.59375 36.375 
Q 6.59375 54.828125 13.0625 64.515625 
Q 19.53125 74.21875 31.78125 74.21875 
z
" id="DejaVuSans-48"/>
       </defs>
       <use xlink:href="#DejaVuSans-50"/>
       <use x="63.623047" xlink:href="#DejaVuSans-56"/>
       <use x="127.246094" xlink:href="#DejaVuSans-53"/>
       <use x="190.869141" xlink:href="#DejaVuSans-48"/>
       <use x="254.492188" xlink:href="#DejaVuSans-48"/>
       <use x="318.115234" xlink:href="#DejaVuSans-48"/>
       <use x="381.738281" xlink:href="#DejaVuSans-48"/>
      </g>
     </g>
    </g>
    <g id="xtick_2">
     <g id="line2d_2">
      <g>
       <use style="stroke:#000000;stroke-width:0.8;" x="127.733" xlink:href="#mc84753b74c" y="315.6"/>
      </g>
     </g>
     <g id="text_2">
      <!-- 2900000 -->
      <g transform="translate(105.46425 330.198437)scale(0.1 -0.1)">
       <defs>
        <path d="M 10.984375 1.515625 
L 10.984375 10.5 
Q 14.703125 8.734375 18.5 7.8125 
Q 22.3125 6.890625 25.984375 6.890625 
Q 35.75 6.890625 40.890625 13.453125 
Q 46.046875 20.015625 46.78125 33.40625 
Q 43.953125 29.203125 39.59375 26.953125 
Q 35.25 24.703125 29.984375 24.703125 
Q 19.046875 24.703125 12.671875 31.3125 
Q 6.296875 37.9375 6.296875 49.421875 
Q 6.296875 60.640625 12.9375 67.421875 
Q 19.578125 74.21875 30.609375 74.21875 
Q 43.265625 74.21875 49.921875 64.515625 
Q 56.59375 54.828125 56.59375 36.375 
Q 56.59375 19.140625 48.40625 8.859375 
Q 40.234375 -1.421875 26.421875 -1.421875 
Q 22.703125 -1.421875 18.890625 -0.6875 
Q 15.09375 0.046875 10.984375 1.515625 
z
M 30.609375 32.421875 
Q 37.25 32.421875 41.125 36.953125 
Q 45.015625 41.5 45.015625 49.421875 
Q 45.015625 57.28125 41.125 61.84375 
Q 37.25 66.40625 30.609375 66.40625 
Q 23.96875 66.40625 20.09375 61.84375 
Q 16.21875 57.28125 16.21875 49.421875 
Q 16.21875 41.5 20.09375 36.953125 
Q 23.96875 32.421875 30.609375 32.421875 
z
" id="DejaVuSans-57"/>
       </defs>
       <use xlink:href="#DejaVuSans-50"/>
       <use x="63.623047" xlink:href="#DejaVuSans-57"/>
       <use x="127.246094" xlink:href="#DejaVuSans-48"/>
       <use x="190.869141" xlink:href="#DejaVuSans-48"/>
       <use x="254.492188" xlink:href="#DejaVuSans-48"/>
       <use x="318.115234" xlink:href="#DejaVuSans-48"/>
       <use x="381.738281" xlink:href="#DejaVuSans-48"/>
      </g>
     </g>
    </g>
    <g id="xtick_3">
     <g id="line2d_3">
      <g>
       <use style="stroke:#000000;stroke-width:0.8;" x="180.080232" xlink:href="#mc84753b74c" y="315.6"/>
      </g>
     </g>
     <g id="text_3">
      <!-- 2950000 -->
      <g transform="translate(157.811482 330.198437)scale(0.1 -0.1)">
       <use xlink:href="#DejaVuSans-50"/>
       <use x="63.623047" xlink:href="#DejaVuSans-57"/>
       <use x="127.246094" xlink:href="#DejaVuSans-53"/>
       <use x="190.869141" xlink:href="#DejaVuSans-48"/>
       <use x="254.492188" xlink:href="#DejaVuSans-48"/>
       <use x="318.115234" xlink:href="#DejaVuSans-48"/>
       <use x="381.738281" xlink:href="#DejaVuSans-48"/>
      </g>
     </g>
    </g>
    <g id="xtick_4">
     <g id="line2d_4">
      <g>
       <use style="stroke:#000000;stroke-width:0.8;" x="232.427465" xlink:href="#mc84753b74c" y="315.6"/>
      </g>
     </g>
     <g id="text_4">
      <!-- 3000000 -->
      <g transform="translate(210.158715 330.198437)scale(0.1 -0.1)">
       <defs>
        <path d="M 40.578125 39.3125 
Q 47.65625 37.796875 51.625 33 
Q 55.609375 28.21875 55.609375 21.1875 
Q 55.609375 10.40625 48.1875 4.484375 
Q 40.765625 -1.421875 27.09375 -1.421875 
Q 22.515625 -1.421875 17.65625 -0.515625 
Q 12.796875 0.390625 7.625 2.203125 
L 7.625 11.71875 
Q 11.71875 9.328125 16.59375 8.109375 
Q 21.484375 6.890625 26.8125 6.890625 
Q 36.078125 6.890625 40.9375 10.546875 
Q 45.796875 14.203125 45.796875 21.1875 
Q 45.796875 27.640625 41.28125 31.265625 
Q 36.765625 34.90625 28.71875 34.90625 
L 20.21875 34.90625 
L 20.21875 43.015625 
L 29.109375 43.015625 
Q 36.375 43.015625 40.234375 45.921875 
Q 44.09375 48.828125 44.09375 54.296875 
Q 44.09375 59.90625 40.109375 62.90625 
Q 36.140625 65.921875 28.71875 65.921875 
Q 24.65625 65.921875 20.015625 65.03125 
Q 15.375 64.15625 9.8125 62.3125 
L 9.8125 71.09375 
Q 15.4375 72.65625 20.34375 73.4375 
Q 25.25 74.21875 29.59375 74.21875 
Q 40.828125 74.21875 47.359375 69.109375 
Q 53.90625 64.015625 53.90625 55.328125 
Q 53.90625 49.265625 50.4375 45.09375 
Q 46.96875 40.921875 40.578125 39.3125 
z
" id="DejaVuSans-51"/>
       </defs>
       <use xlink:href="#DejaVuSans-51"/>
       <use x="63.623047" xlink:href="#DejaVuSans-48"/>
       <use x="127.246094" xlink:href="#DejaVuSans-48"/>
       <use x="190.869141" xlink:href="#DejaVuSans-48"/>
       <use x="254.492188" xlink:href="#DejaVuSans-48"/>
       <use x="318.115234" xlink:href="#DejaVuSans-48"/>
       <use x="381.738281" xlink:href="#DejaVuSans-48"/>
      </g>
     </g>
    </g>
    <g id="xtick_5">
     <g id="line2d_5">
      <g>
       <use style="stroke:#000000;stroke-width:0.8;" x="284.774697" xlink:href="#mc84753b74c" y="315.6"/>
      </g>
     </g>
     <g id="text_5">
      <!-- 3050000 -->
      <g transform="translate(262.505947 330.198437)scale(0.1 -0.1)">
       <use xlink:href="#DejaVuSans-51"/>
       <use x="63.623047" xlink:href="#DejaVuSans-48"/>
       <use x="127.246094" xlink:href="#DejaVuSans-53"/>
       <use x="190.869141" xlink:href="#DejaVuSans-48"/>
       <use x="254.492188" xlink:href="#DejaVuSans-48"/>
       <use x="318.115234" xlink:href="#DejaVuSans-48"/>
       <use x="381.738281" xlink:href="#DejaVuSans-48"/>
      </g>
     </g>
    </g>
    <g id="xtick_6">
     <g id="line2d_6">
      <g>
       <use style="stroke:#000000;stroke-width:0.8;" x="337.12193" xlink:href="#mc84753b74c" y="315.6"/>
      </g>
     </g>
     <g id="text_6">
      <!-- 3100000 -->
      <g transform="translate(314.85318 330.198437)scale(0.1 -0.1)">
       <defs>
        <path d="M 12.40625 8.296875 
L 28.515625 8.296875 
L 28.515625 63.921875 
L 10.984375 60.40625 
L 10.984375 69.390625 
L 28.421875 72.90625 
L 38.28125 72.90625 
L 38.28125 8.296875 
L 54.390625 8.296875 
L 54.390625 0 
L 12.40625 0 
z
" id="DejaVuSans-49"/>
       </defs>
       <use xlink:href="#DejaVuSans-51"/>
       <use x="63.623047" xlink:href="#DejaVuSans-49"/>
       <use x="127.246094" xlink:href="#DejaVuSans-48"/>
       <use x="190.869141" xlink:href="#DejaVuSans-48"/>
       <use x="254.492188" xlink:href="#DejaVuSans-48"/>
       <use x="318.115234" xlink:href="#DejaVuSans-48"/>
       <use x="381.738281" xlink:href="#DejaVuSans-48"/>
      </g>
     </g>
    </g>
    <g id="text_7">
     <!-- timeStamp -->
     <g transform="translate(169.803193 343.876562)scale(0.1 -0.1)">
      <defs>
       <path d="M 18.3125 70.21875 
L 18.3125 54.6875 
L 36.8125 54.6875 
L 36.8125 47.703125 
L 18.3125 47.703125 
L 18.3125 18.015625 
Q 18.3125 11.328125 20.140625 9.421875 
Q 21.96875 7.515625 27.59375 7.515625 
L 36.8125 7.515625 
L 36.8125 0 
L 27.59375 0 
Q 17.1875 0 13.234375 3.875 
Q 9.28125 7.765625 9.28125 18.015625 
L 9.28125 47.703125 
L 2.6875 47.703125 
L 2.6875 54.6875 
L 9.28125 54.6875 
L 9.28125 70.21875 
z
" id="DejaVuSans-116"/>
       <path d="M 9.421875 54.6875 
L 18.40625 54.6875 
L 18.40625 0 
L 9.421875 0 
z
M 9.421875 75.984375 
L 18.40625 75.984375 
L 18.40625 64.59375 
L 9.421875 64.59375 
z
" id="DejaVuSans-105"/>
       <path d="M 52 44.1875 
Q 55.375 50.25 60.0625 53.125 
Q 64.75 56 71.09375 56 
Q 79.640625 56 84.28125 50.015625 
Q 88.921875 44.046875 88.921875 33.015625 
L 88.921875 0 
L 79.890625 0 
L 79.890625 32.71875 
Q 79.890625 40.578125 77.09375 44.375 
Q 74.3125 48.1875 68.609375 48.1875 
Q 61.625 48.1875 57.5625 43.546875 
Q 53.515625 38.921875 53.515625 30.90625 
L 53.515625 0 
L 44.484375 0 
L 44.484375 32.71875 
Q 44.484375 40.625 41.703125 44.40625 
Q 38.921875 48.1875 33.109375 48.1875 
Q 26.21875 48.1875 22.15625 43.53125 
Q 18.109375 38.875 18.109375 30.90625 
L 18.109375 0 
L 9.078125 0 
L 9.078125 54.6875 
L 18.109375 54.6875 
L 18.109375 46.1875 
Q 21.1875 51.21875 25.484375 53.609375 
Q 29.78125 56 35.6875 56 
Q 41.65625 56 45.828125 52.96875 
Q 50 49.953125 52 44.1875 
z
" id="DejaVuSans-109"/>
       <path d="M 56.203125 29.59375 
L 56.203125 25.203125 
L 14.890625 25.203125 
Q 15.484375 15.921875 20.484375 11.0625 
Q 25.484375 6.203125 34.421875 6.203125 
Q 39.59375 6.203125 44.453125 7.46875 
Q 49.3125 8.734375 54.109375 11.28125 
L 54.109375 2.78125 
Q 49.265625 0.734375 44.1875 -0.34375 
Q 39.109375 -1.421875 33.890625 -1.421875 
Q 20.796875 -1.421875 13.15625 6.1875 
Q 5.515625 13.8125 5.515625 26.8125 
Q 5.515625 40.234375 12.765625 48.109375 
Q 20.015625 56 32.328125 56 
Q 43.359375 56 49.78125 48.890625 
Q 56.203125 41.796875 56.203125 29.59375 
z
M 47.21875 32.234375 
Q 47.125 39.59375 43.09375 43.984375 
Q 39.0625 48.390625 32.421875 48.390625 
Q 24.90625 48.390625 20.390625 44.140625 
Q 15.875 39.890625 15.1875 32.171875 
z
" id="DejaVuSans-101"/>
       <path d="M 53.515625 70.515625 
L 53.515625 60.890625 
Q 47.90625 63.578125 42.921875 64.890625 
Q 37.9375 66.21875 33.296875 66.21875 
Q 25.25 66.21875 20.875 63.09375 
Q 16.5 59.96875 16.5 54.203125 
Q 16.5 49.359375 19.40625 46.890625 
Q 22.3125 44.4375 30.421875 42.921875 
L 36.375 41.703125 
Q 47.40625 39.59375 52.65625 34.296875 
Q 57.90625 29 57.90625 20.125 
Q 57.90625 9.515625 50.796875 4.046875 
Q 43.703125 -1.421875 29.984375 -1.421875 
Q 24.8125 -1.421875 18.96875 -0.25 
Q 13.140625 0.921875 6.890625 3.21875 
L 6.890625 13.375 
Q 12.890625 10.015625 18.65625 8.296875 
Q 24.421875 6.59375 29.984375 6.59375 
Q 38.421875 6.59375 43.015625 9.90625 
Q 47.609375 13.234375 47.609375 19.390625 
Q 47.609375 24.75 44.3125 27.78125 
Q 41.015625 30.8125 33.5 32.328125 
L 27.484375 33.5 
Q 16.453125 35.6875 11.515625 40.375 
Q 6.59375 45.0625 6.59375 53.421875 
Q 6.59375 63.09375 13.40625 68.65625 
Q 20.21875 74.21875 32.171875 74.21875 
Q 37.3125 74.21875 42.625 73.28125 
Q 47.953125 72.359375 53.515625 70.515625 
z
" id="DejaVuSans-83"/>
       <path d="M 34.28125 27.484375 
Q 23.390625 27.484375 19.1875 25 
Q 14.984375 22.515625 14.984375 16.5 
Q 14.984375 11.71875 18.140625 8.90625 
Q 21.296875 6.109375 26.703125 6.109375 
Q 34.1875 6.109375 38.703125 11.40625 
Q 43.21875 16.703125 43.21875 25.484375 
L 43.21875 27.484375 
z
M 52.203125 31.203125 
L 52.203125 0 
L 43.21875 0 
L 43.21875 8.296875 
Q 40.140625 3.328125 35.546875 0.953125 
Q 30.953125 -1.421875 24.3125 -1.421875 
Q 15.921875 -1.421875 10.953125 3.296875 
Q 6 8.015625 6 15.921875 
Q 6 25.140625 12.171875 29.828125 
Q 18.359375 34.515625 30.609375 34.515625 
L 43.21875 34.515625 
L 43.21875 35.40625 
Q 43.21875 41.609375 39.140625 45 
Q 35.0625 48.390625 27.6875 48.390625 
Q 23 48.390625 18.546875 47.265625 
Q 14.109375 46.140625 10.015625 43.890625 
L 10.015625 52.203125 
Q 14.9375 54.109375 19.578125 55.046875 
Q 24.21875 56 28.609375 56 
Q 40.484375 56 46.34375 49.84375 
Q 52.203125 43.703125 52.203125 31.203125 
z
" id="DejaVuSans-97"/>
       <path d="M 18.109375 8.203125 
L 18.109375 -20.796875 
L 9.078125 -20.796875 
L 9.078125 54.6875 
L 18.109375 54.6875 
L 18.109375 46.390625 
Q 20.953125 51.265625 25.265625 53.625 
Q 29.59375 56 35.59375 56 
Q 45.5625 56 51.78125 48.09375 
Q 58.015625 40.1875 58.015625 27.296875 
Q 58.015625 14.40625 51.78125 6.484375 
Q 45.5625 -1.421875 35.59375 -1.421875 
Q 29.59375 -1.421875 25.265625 0.953125 
Q 20.953125 3.328125 18.109375 8.203125 
z
M 48.6875 27.296875 
Q 48.6875 37.203125 44.609375 42.84375 
Q 40.53125 48.484375 33.40625 48.484375 
Q 26.265625 48.484375 22.1875 42.84375 
Q 18.109375 37.203125 18.109375 27.296875 
Q 18.109375 17.390625 22.1875 11.75 
Q 26.265625 6.109375 33.40625 6.109375 
Q 40.53125 6.109375 44.609375 11.75 
Q 48.6875 17.390625 48.6875 27.296875 
z
" id="DejaVuSans-112"/>
      </defs>
      <use xlink:href="#DejaVuSans-116"/>
      <use x="39.208984" xlink:href="#DejaVuSans-105"/>
      <use x="66.992188" xlink:href="#DejaVuSans-109"/>
      <use x="164.404297" xlink:href="#DejaVuSans-101"/>
      <use x="225.927734" xlink:href="#DejaVuSans-83"/>
      <use x="289.404297" xlink:href="#DejaVuSans-116"/>
      <use x="328.613281" xlink:href="#DejaVuSans-97"/>
      <use x="389.892578" xlink:href="#DejaVuSans-109"/>
      <use x="487.304688" xlink:href="#DejaVuSans-112"/>
     </g>
    </g>
    <g id="text_8">
     <!-- +1.61062e12 -->
     <g transform="translate(285.470448 342.876562)scale(0.1 -0.1)">
      <defs>
       <path d="M 46 62.703125 
L 46 35.5 
L 73.1875 35.5 
L 73.1875 27.203125 
L 46 27.203125 
L 46 0 
L 37.796875 0 
L 37.796875 27.203125 
L 10.59375 27.203125 
L 10.59375 35.5 
L 37.796875 35.5 
L 37.796875 62.703125 
z
" id="DejaVuSans-43"/>
       <path d="M 10.6875 12.40625 
L 21 12.40625 
L 21 0 
L 10.6875 0 
z
" id="DejaVuSans-46"/>
       <path d="M 33.015625 40.375 
Q 26.375 40.375 22.484375 35.828125 
Q 18.609375 31.296875 18.609375 23.390625 
Q 18.609375 15.53125 22.484375 10.953125 
Q 26.375 6.390625 33.015625 6.390625 
Q 39.65625 6.390625 43.53125 10.953125 
Q 47.40625 15.53125 47.40625 23.390625 
Q 47.40625 31.296875 43.53125 35.828125 
Q 39.65625 40.375 33.015625 40.375 
z
M 52.59375 71.296875 
L 52.59375 62.3125 
Q 48.875 64.0625 45.09375 64.984375 
Q 41.3125 65.921875 37.59375 65.921875 
Q 27.828125 65.921875 22.671875 59.328125 
Q 17.53125 52.734375 16.796875 39.40625 
Q 19.671875 43.65625 24.015625 45.921875 
Q 28.375 48.1875 33.59375 48.1875 
Q 44.578125 48.1875 50.953125 41.515625 
Q 57.328125 34.859375 57.328125 23.390625 
Q 57.328125 12.15625 50.6875 5.359375 
Q 44.046875 -1.421875 33.015625 -1.421875 
Q 20.359375 -1.421875 13.671875 8.265625 
Q 6.984375 17.96875 6.984375 36.375 
Q 6.984375 53.65625 15.1875 63.9375 
Q 23.390625 74.21875 37.203125 74.21875 
Q 40.921875 74.21875 44.703125 73.484375 
Q 48.484375 72.75 52.59375 71.296875 
z
" id="DejaVuSans-54"/>
      </defs>
      <use xlink:href="#DejaVuSans-43"/>
      <use x="83.789062" xlink:href="#DejaVuSans-49"/>
      <use x="147.412109" xlink:href="#DejaVuSans-46"/>
      <use x="179.199219" xlink:href="#DejaVuSans-54"/>
      <use x="242.822266" xlink:href="#DejaVuSans-49"/>
      <use x="306.445312" xlink:href="#DejaVuSans-48"/>
      <use x="370.068359" xlink:href="#DejaVuSans-54"/>
      <use x="433.691406" xlink:href="#DejaVuSans-50"/>
      <use x="497.314453" xlink:href="#DejaVuSans-101"/>
      <use x="558.837891" xlink:href="#DejaVuSans-49"/>
      <use x="622.460938" xlink:href="#DejaVuSans-50"/>
     </g>
    </g>
   </g>
   <g id="matplotlib.axis_2">
    <g id="ytick_1">
     <g id="line2d_7">
      <defs>
       <path d="M 0 0 
L -3.5 0 
" id="m22d66bca09" style="stroke:#000000;stroke-width:0.8;"/>
      </defs>
      <g>
       <use style="stroke:#000000;stroke-width:0.8;" x="40.603125" xlink:href="#m22d66bca09" y="296.887744"/>
      </g>
     </g>
     <g id="text_9">
      <!-- 10 -->
      <g transform="translate(20.878125 300.686963)scale(0.1 -0.1)">
       <use xlink:href="#DejaVuSans-49"/>
       <use x="63.623047" xlink:href="#DejaVuSans-48"/>
      </g>
     </g>
    </g>
    <g id="ytick_2">
     <g id="line2d_8">
      <g>
       <use style="stroke:#000000;stroke-width:0.8;" x="40.603125" xlink:href="#m22d66bca09" y="256.500391"/>
      </g>
     </g>
     <g id="text_10">
      <!-- 20 -->
      <g transform="translate(20.878125 260.299609)scale(0.1 -0.1)">
       <use xlink:href="#DejaVuSans-50"/>
       <use x="63.623047" xlink:href="#DejaVuSans-48"/>
      </g>
     </g>
    </g>
    <g id="ytick_3">
     <g id="line2d_9">
      <g>
       <use style="stroke:#000000;stroke-width:0.8;" x="40.603125" xlink:href="#m22d66bca09" y="216.113037"/>
      </g>
     </g>
     <g id="text_11">
      <!-- 30 -->
      <g transform="translate(20.878125 219.912256)scale(0.1 -0.1)">
       <use xlink:href="#DejaVuSans-51"/>
       <use x="63.623047" xlink:href="#DejaVuSans-48"/>
      </g>
     </g>
    </g>
    <g id="ytick_4">
     <g id="line2d_10">
      <g>
       <use style="stroke:#000000;stroke-width:0.8;" x="40.603125" xlink:href="#m22d66bca09" y="175.725684"/>
      </g>
     </g>
     <g id="text_12">
      <!-- 40 -->
      <g transform="translate(20.878125 179.524902)scale(0.1 -0.1)">
       <defs>
        <path d="M 37.796875 64.3125 
L 12.890625 25.390625 
L 37.796875 25.390625 
z
M 35.203125 72.90625 
L 47.609375 72.90625 
L 47.609375 25.390625 
L 58.015625 25.390625 
L 58.015625 17.1875 
L 47.609375 17.1875 
L 47.609375 0 
L 37.796875 0 
L 37.796875 17.1875 
L 4.890625 17.1875 
L 4.890625 26.703125 
z
" id="DejaVuSans-52"/>
       </defs>
       <use xlink:href="#DejaVuSans-52"/>
       <use x="63.623047" xlink:href="#DejaVuSans-48"/>
      </g>
     </g>
    </g>
    <g id="ytick_5">
     <g id="line2d_11">
      <g>
       <use style="stroke:#000000;stroke-width:0.8;" x="40.603125" xlink:href="#m22d66bca09" y="135.33833"/>
      </g>
     </g>
     <g id="text_13">
      <!-- 50 -->
      <g transform="translate(20.878125 139.137549)scale(0.1 -0.1)">
       <use xlink:href="#DejaVuSans-53"/>
       <use x="63.623047" xlink:href="#DejaVuSans-48"/>
      </g>
     </g>
    </g>
    <g id="ytick_6">
     <g id="line2d_12">
      <g>
       <use style="stroke:#000000;stroke-width:0.8;" x="40.603125" xlink:href="#m22d66bca09" y="94.950977"/>
      </g>
     </g>
     <g id="text_14">
      <!-- 60 -->
      <g transform="translate(20.878125 98.750196)scale(0.1 -0.1)">
       <use xlink:href="#DejaVuSans-54"/>
       <use x="63.623047" xlink:href="#DejaVuSans-48"/>
      </g>
     </g>
    </g>
    <g id="ytick_7">
     <g id="line2d_13">
      <g>
       <use style="stroke:#000000;stroke-width:0.8;" x="40.603125" xlink:href="#m22d66bca09" y="54.563623"/>
      </g>
     </g>
     <g id="text_15">
      <!-- 70 -->
      <g transform="translate(20.878125 58.362842)scale(0.1 -0.1)">
       <defs>
        <path d="M 8.203125 72.90625 
L 55.078125 72.90625 
L 55.078125 68.703125 
L 28.609375 0 
L 18.3125 0 
L 43.21875 64.59375 
L 8.203125 64.59375 
z
" id="DejaVuSans-55"/>
       </defs>
       <use xlink:href="#DejaVuSans-55"/>
       <use x="63.623047" xlink:href="#DejaVuSans-48"/>
      </g>
     </g>
    </g>
    <g id="ytick_8">
     <g id="line2d_14">
      <g>
       <use style="stroke:#000000;stroke-width:0.8;" x="40.603125" xlink:href="#m22d66bca09" y="14.17627"/>
      </g>
     </g>
     <g id="text_16">
      <!-- 80 -->
      <g transform="translate(20.878125 17.975489)scale(0.1 -0.1)">
       <use xlink:href="#DejaVuSans-56"/>
       <use x="63.623047" xlink:href="#DejaVuSans-48"/>
      </g>
     </g>
    </g>
    <g id="text_17">
     <!-- elapsed -->
     <g transform="translate(14.798438 180.959375)rotate(-90)scale(0.1 -0.1)">
      <defs>
       <path d="M 9.421875 75.984375 
L 18.40625 75.984375 
L 18.40625 0 
L 9.421875 0 
z
" id="DejaVuSans-108"/>
       <path d="M 44.28125 53.078125 
L 44.28125 44.578125 
Q 40.484375 46.53125 36.375 47.5 
Q 32.28125 48.484375 27.875 48.484375 
Q 21.1875 48.484375 17.84375 46.4375 
Q 14.5 44.390625 14.5 40.28125 
Q 14.5 37.15625 16.890625 35.375 
Q 19.28125 33.59375 26.515625 31.984375 
L 29.59375 31.296875 
Q 39.15625 29.25 43.1875 25.515625 
Q 47.21875 21.78125 47.21875 15.09375 
Q 47.21875 7.46875 41.1875 3.015625 
Q 35.15625 -1.421875 24.609375 -1.421875 
Q 20.21875 -1.421875 15.453125 -0.5625 
Q 10.6875 0.296875 5.421875 2 
L 5.421875 11.28125 
Q 10.40625 8.6875 15.234375 7.390625 
Q 20.0625 6.109375 24.8125 6.109375 
Q 31.15625 6.109375 34.5625 8.28125 
Q 37.984375 10.453125 37.984375 14.40625 
Q 37.984375 18.0625 35.515625 20.015625 
Q 33.0625 21.96875 24.703125 23.78125 
L 21.578125 24.515625 
Q 13.234375 26.265625 9.515625 29.90625 
Q 5.8125 33.546875 5.8125 39.890625 
Q 5.8125 47.609375 11.28125 51.796875 
Q 16.75 56 26.8125 56 
Q 31.78125 56 36.171875 55.265625 
Q 40.578125 54.546875 44.28125 53.078125 
z
" id="DejaVuSans-115"/>
       <path d="M 45.40625 46.390625 
L 45.40625 75.984375 
L 54.390625 75.984375 
L 54.390625 0 
L 45.40625 0 
L 45.40625 8.203125 
Q 42.578125 3.328125 38.25 0.953125 
Q 33.9375 -1.421875 27.875 -1.421875 
Q 17.96875 -1.421875 11.734375 6.484375 
Q 5.515625 14.40625 5.515625 27.296875 
Q 5.515625 40.1875 11.734375 48.09375 
Q 17.96875 56 27.875 56 
Q 33.9375 56 38.25 53.625 
Q 42.578125 51.265625 45.40625 46.390625 
z
M 14.796875 27.296875 
Q 14.796875 17.390625 18.875 11.75 
Q 22.953125 6.109375 30.078125 6.109375 
Q 37.203125 6.109375 41.296875 11.75 
Q 45.40625 17.390625 45.40625 27.296875 
Q 45.40625 37.203125 41.296875 42.84375 
Q 37.203125 48.484375 30.078125 48.484375 
Q 22.953125 48.484375 18.875 42.84375 
Q 14.796875 37.203125 14.796875 27.296875 
z
" id="DejaVuSans-100"/>
      </defs>
      <use xlink:href="#DejaVuSans-101"/>
      <use x="61.523438" xlink:href="#DejaVuSans-108"/>
      <use x="89.306641" xlink:href="#DejaVuSans-97"/>
      <use x="150.585938" xlink:href="#DejaVuSans-112"/>
      <use x="214.0625" xlink:href="#DejaVuSans-115"/>
      <use x="266.162109" xlink:href="#DejaVuSans-101"/>
      <use x="327.685547" xlink:href="#DejaVuSans-100"/>
     </g>
    </g>
   </g>
   <g id="line2d_15">
    <path clip-path="url(#p2c20411176)" d="M 40.603125 194.886588 
L 43.769414 194.886588 
L 46.935702 194.886588 
L 50.101991 194.886588 
L 53.268279 194.886587 
L 56.434567 194.886587 
L 59.600856 194.886587 
L 62.767144 194.886586 
L 65.933433 194.886586 
L 69.099721 194.886586 
L 72.26601 194.886586 
L 75.432298 194.886585 
L 78.598587 194.886585 
L 81.764875 194.886585 
L 84.931164 194.886585 
L 88.097452 194.886584 
L 91.26374 194.886584 
L 94.430029 194.886584 
L 97.596318 194.886584 
L 100.762606 194.886583 
L 103.928894 194.886583 
L 107.095183 194.886583 
L 110.261471 194.886582 
L 113.427759 194.886582 
L 116.594048 194.886582 
L 119.760337 194.886582 
L 122.926625 194.886581 
L 126.092913 194.886581 
L 129.259202 194.886581 
L 132.42549 194.886581 
L 135.591779 194.88658 
L 138.758067 194.88658 
L 141.924356 194.88658 
L 145.090644 194.88658 
L 148.256932 194.886579 
L 151.423221 194.886579 
L 154.589509 194.886579 
L 157.755798 194.886578 
L 160.922086 194.886578 
L 164.088375 194.886578 
L 167.254663 194.886578 
L 170.420952 194.886577 
L 173.58724 194.886577 
L 176.753529 194.886577 
L 179.919817 194.886577 
L 183.086105 194.886576 
L 186.252394 194.886576 
L 189.418683 194.886576 
L 192.584971 194.886575 
L 195.751259 194.886575 
L 198.917548 194.886575 
L 202.083836 194.886575 
L 205.250124 194.886574 
L 208.416413 194.886574 
L 211.582702 194.886574 
L 214.74899 194.886574 
L 217.915278 194.886573 
L 221.081567 194.886573 
L 224.247855 194.886573 
L 227.414144 194.886573 
L 230.580432 194.886572 
L 233.746721 194.886572 
L 236.913009 194.886572 
L 240.079298 194.886571 
L 243.245586 194.886571 
L 246.411875 194.886571 
L 249.578163 194.886571 
L 252.744451 194.88657 
L 255.91074 194.88657 
L 259.077028 194.88657 
L 262.243317 194.88657 
L 265.409605 194.886569 
L 268.575894 194.886569 
L 271.742182 194.886569 
L 274.90847 194.886569 
L 278.074759 194.886568 
L 281.241048 194.886568 
L 284.407336 194.886568 
L 287.573624 194.886567 
L 290.739913 194.886567 
L 293.906201 194.886567 
L 297.07249 194.886567 
L 300.238778 194.886566 
L 303.405067 194.886566 
L 306.571355 194.886566 
L 309.737644 194.886566 
L 312.903932 194.886565 
L 316.07022 194.886565 
L 319.236509 194.886565 
L 322.402797 194.886565 
L 325.569086 194.886564 
L 328.735374 194.886564 
L 331.901663 194.886564 
L 335.067951 194.886563 
L 338.23424 194.886563 
L 341.400528 194.886563 
L 344.566817 194.886563 
L 347.733105 194.886562 
L 350.899393 194.886562 
L 354.065682 194.886562 
" style="fill:none;stroke:#1f77b4;stroke-linecap:square;stroke-width:2.25;"/>
   </g>
   <g id="line2d_16">
    <path clip-path="url(#p2c20411176)" d="M 40.603125 28.239369 
L 43.769297 28.239369 
L 46.935469 28.239368 
L 50.101641 28.239368 
L 53.267814 28.239367 
L 56.433986 28.239366 
L 59.600158 28.239366 
L 62.76633 28.239365 
L 65.932502 28.239365 
L 69.098674 28.239364 
L 72.264847 28.239364 
L 75.431019 28.239363 
L 78.597191 28.239362 
L 81.763363 28.239362 
L 84.929535 28.239361 
L 88.095707 28.239361 
L 91.261879 28.23936 
L 94.428051 28.23936 
L 97.594223 28.239359 
L 100.760396 28.239358 
L 103.926568 28.239358 
L 107.09274 28.239357 
L 110.258912 28.239357 
L 113.425084 28.239356 
L 116.591256 28.239355 
L 119.757428 28.239355 
L 122.9236 28.239354 
L 126.089773 28.239354 
L 129.255944 28.239353 
L 132.422117 28.239353 
L 135.588289 28.239352 
L 138.754461 28.239351 
L 141.920633 28.239351 
L 145.086805 28.23935 
L 148.252977 28.23935 
L 151.41915 28.239349 
L 154.585322 28.239348 
L 157.751494 28.239348 
L 160.917666 28.239347 
L 164.083838 28.239347 
L 167.25001 28.239346 
L 170.416182 28.239346 
L 173.582354 28.239345 
L 176.748526 28.239344 
L 179.914699 28.239344 
L 183.080871 28.239343 
L 186.247043 28.239343 
L 189.413215 28.239342 
L 192.579387 28.239342 
L 195.745559 28.239341 
L 198.911731 28.23934 
L 202.077904 28.23934 
L 205.244076 28.239339 
L 208.410248 28.239339 
L 211.57642 28.239338 
L 214.742592 28.239337 
L 217.908764 28.239337 
L 221.074936 28.239336 
L 224.241108 28.239336 
L 227.40728 28.239335 
L 230.573452 28.239335 
L 233.739625 28.239334 
L 236.905797 28.239333 
L 240.071969 28.239333 
L 243.238141 28.239332 
L 246.404313 28.239332 
L 249.570485 28.239331 
L 252.736658 28.239331 
L 255.90283 28.23933 
L 259.069002 28.239329 
L 262.235174 28.239329 
L 265.401346 28.239328 
L 268.567518 28.239328 
L 271.73369 28.239327 
L 274.899862 28.239326 
L 278.066035 28.239326 
L 281.232207 28.239325 
L 284.398379 28.239325 
L 287.564551 28.239324 
L 290.730723 28.239324 
L 293.896895 28.239323 
L 297.063067 28.239322 
L 300.229239 28.239322 
L 303.395411 28.239321 
L 306.561584 28.239321 
L 309.727756 28.23932 
L 312.893928 28.239319 
L 316.0601 28.239319 
L 319.226272 28.239318 
L 322.392444 28.239318 
L 325.558616 28.239317 
L 328.724788 28.239317 
L 331.890961 28.239316 
L 335.057133 28.239315 
L 338.223305 28.239315 
L 341.389477 28.239314 
L 344.555649 28.239314 
L 347.721821 28.239313 
L 350.887994 28.239313 
L 354.054166 28.239312 
" style="fill:none;stroke:#ff7f0e;stroke-linecap:square;stroke-width:2.25;"/>
   </g>
   <g id="line2d_17">
    <path clip-path="url(#p2c20411176)" d="M 41.042842 299.419492 
L 44.204847 299.419492 
L 47.366853 299.419492 
L 50.528858 299.419492 
L 53.690864 299.419492 
L 56.85287 299.419492 
L 60.014875 299.419492 
L 63.176881 299.419492 
L 66.338886 299.419491 
L 69.500891 299.419491 
L 72.662897 299.419491 
L 75.824902 299.419491 
L 78.986908 299.419491 
L 82.148913 299.419491 
L 85.310919 299.419491 
L 88.472924 299.419491 
L 91.63493 299.419491 
L 94.796935 299.419491 
L 97.958941 299.419491 
L 101.120946 299.419491 
L 104.282952 299.419491 
L 107.444957 299.419491 
L 110.606963 299.419491 
L 113.768968 299.41949 
L 116.930974 299.41949 
L 120.092979 299.41949 
L 123.254985 299.41949 
L 126.41699 299.41949 
L 129.578996 299.41949 
L 132.741001 299.41949 
L 135.903007 299.41949 
L 139.065012 299.41949 
L 142.227018 299.41949 
L 145.389023 299.41949 
L 148.551029 299.41949 
L 151.713034 299.41949 
L 154.87504 299.41949 
L 158.037045 299.419489 
L 161.199051 299.419489 
L 164.361056 299.419489 
L 167.523062 299.419489 
L 170.685067 299.419489 
L 173.847073 299.419489 
L 177.009079 299.419489 
L 180.171084 299.419489 
L 183.333089 299.419489 
L 186.495095 299.419489 
L 189.6571 299.419489 
L 192.819106 299.419489 
L 195.981111 299.419489 
L 199.143117 299.419489 
L 202.305122 299.419488 
L 205.467128 299.419488 
L 208.629133 299.419488 
L 211.791139 299.419488 
L 214.953144 299.419488 
L 218.115149 299.419488 
L 221.277155 299.419488 
L 224.439161 299.419488 
L 227.601166 299.419488 
L 230.763172 299.419488 
L 233.925177 299.419488 
L 237.087183 299.419488 
L 240.249188 299.419488 
L 243.411194 299.419488 
L 246.573199 299.419487 
L 249.735205 299.419487 
L 252.89721 299.419487 
L 256.059216 299.419487 
L 259.221221 299.419487 
L 262.383227 299.419487 
L 265.545232 299.419487 
L 268.707238 299.419487 
L 271.869243 299.419487 
L 275.031249 299.419487 
L 278.193254 299.419487 
L 281.35526 299.419487 
L 284.517265 299.419487 
L 287.679271 299.419487 
L 290.841276 299.419486 
L 294.003282 299.419486 
L 297.165287 299.419486 
L 300.327292 299.419486 
L 303.489298 299.419486 
L 306.651304 299.419486 
L 309.813309 299.419486 
L 312.975315 299.419486 
L 316.13732 299.419486 
L 319.299326 299.419486 
L 322.461331 299.419486 
L 325.623337 299.419486 
L 328.785342 299.419486 
L 331.947347 299.419486 
L 335.109353 299.419485 
L 338.271358 299.419485 
L 341.433364 299.419485 
L 344.59537 299.419485 
L 347.757375 299.419485 
L 350.919381 299.419485 
L 354.081386 299.419485 
" style="fill:none;stroke:#2ca02c;stroke-linecap:square;stroke-width:2.25;"/>
   </g>
   <g id="patch_3">
    <path d="M 40.603125 315.6 
L 40.603125 7.2 
" style="fill:none;stroke:#000000;stroke-linecap:square;stroke-linejoin:miter;stroke-width:0.8;"/>
   </g>
   <g id="patch_4">
    <path d="M 40.603125 315.6 
L 354.081386 315.6 
" style="fill:none;stroke:#000000;stroke-linecap:square;stroke-linejoin:miter;stroke-width:0.8;"/>
   </g>
   <g id="legend_1">
    <g id="patch_5">
     <path d="M 273.982948 192.25625 
L 347.081386 192.25625 
Q 349.081386 192.25625 349.081386 190.25625 
L 349.081386 132.54375 
Q 349.081386 130.54375 347.081386 130.54375 
L 273.982948 130.54375 
Q 271.982948 130.54375 271.982948 132.54375 
L 271.982948 190.25625 
Q 271.982948 192.25625 273.982948 192.25625 
z
" style="fill:#ffffff;opacity:0.8;stroke:#cccccc;stroke-linejoin:miter;"/>
    </g>
    <g id="text_18">
     <!-- resourceType -->
     <g transform="translate(277.428261 142.142187)scale(0.1 -0.1)">
      <defs>
       <path d="M 41.109375 46.296875 
Q 39.59375 47.171875 37.8125 47.578125 
Q 36.03125 48 33.890625 48 
Q 26.265625 48 22.1875 43.046875 
Q 18.109375 38.09375 18.109375 28.8125 
L 18.109375 0 
L 9.078125 0 
L 9.078125 54.6875 
L 18.109375 54.6875 
L 18.109375 46.1875 
Q 20.953125 51.171875 25.484375 53.578125 
Q 30.03125 56 36.53125 56 
Q 37.453125 56 38.578125 55.875 
Q 39.703125 55.765625 41.0625 55.515625 
z
" id="DejaVuSans-114"/>
       <path d="M 30.609375 48.390625 
Q 23.390625 48.390625 19.1875 42.75 
Q 14.984375 37.109375 14.984375 27.296875 
Q 14.984375 17.484375 19.15625 11.84375 
Q 23.34375 6.203125 30.609375 6.203125 
Q 37.796875 6.203125 41.984375 11.859375 
Q 46.1875 17.53125 46.1875 27.296875 
Q 46.1875 37.015625 41.984375 42.703125 
Q 37.796875 48.390625 30.609375 48.390625 
z
M 30.609375 56 
Q 42.328125 56 49.015625 48.375 
Q 55.71875 40.765625 55.71875 27.296875 
Q 55.71875 13.875 49.015625 6.21875 
Q 42.328125 -1.421875 30.609375 -1.421875 
Q 18.84375 -1.421875 12.171875 6.21875 
Q 5.515625 13.875 5.515625 27.296875 
Q 5.515625 40.765625 12.171875 48.375 
Q 18.84375 56 30.609375 56 
z
" id="DejaVuSans-111"/>
       <path d="M 8.5 21.578125 
L 8.5 54.6875 
L 17.484375 54.6875 
L 17.484375 21.921875 
Q 17.484375 14.15625 20.5 10.265625 
Q 23.53125 6.390625 29.59375 6.390625 
Q 36.859375 6.390625 41.078125 11.03125 
Q 45.3125 15.671875 45.3125 23.6875 
L 45.3125 54.6875 
L 54.296875 54.6875 
L 54.296875 0 
L 45.3125 0 
L 45.3125 8.40625 
Q 42.046875 3.421875 37.71875 1 
Q 33.40625 -1.421875 27.6875 -1.421875 
Q 18.265625 -1.421875 13.375 4.4375 
Q 8.5 10.296875 8.5 21.578125 
z
M 31.109375 56 
z
" id="DejaVuSans-117"/>
       <path d="M 48.78125 52.59375 
L 48.78125 44.1875 
Q 44.96875 46.296875 41.140625 47.34375 
Q 37.3125 48.390625 33.40625 48.390625 
Q 24.65625 48.390625 19.8125 42.84375 
Q 14.984375 37.3125 14.984375 27.296875 
Q 14.984375 17.28125 19.8125 11.734375 
Q 24.65625 6.203125 33.40625 6.203125 
Q 37.3125 6.203125 41.140625 7.25 
Q 44.96875 8.296875 48.78125 10.40625 
L 48.78125 2.09375 
Q 45.015625 0.34375 40.984375 -0.53125 
Q 36.96875 -1.421875 32.421875 -1.421875 
Q 20.0625 -1.421875 12.78125 6.34375 
Q 5.515625 14.109375 5.515625 27.296875 
Q 5.515625 40.671875 12.859375 48.328125 
Q 20.21875 56 33.015625 56 
Q 37.15625 56 41.109375 55.140625 
Q 45.0625 54.296875 48.78125 52.59375 
z
" id="DejaVuSans-99"/>
       <path d="M -0.296875 72.90625 
L 61.375 72.90625 
L 61.375 64.59375 
L 35.5 64.59375 
L 35.5 0 
L 25.59375 0 
L 25.59375 64.59375 
L -0.296875 64.59375 
z
" id="DejaVuSans-84"/>
       <path d="M 32.171875 -5.078125 
Q 28.375 -14.84375 24.75 -17.8125 
Q 21.140625 -20.796875 15.09375 -20.796875 
L 7.90625 -20.796875 
L 7.90625 -13.28125 
L 13.1875 -13.28125 
Q 16.890625 -13.28125 18.9375 -11.515625 
Q 21 -9.765625 23.484375 -3.21875 
L 25.09375 0.875 
L 2.984375 54.6875 
L 12.5 54.6875 
L 29.59375 11.921875 
L 46.6875 54.6875 
L 56.203125 54.6875 
z
" id="DejaVuSans-121"/>
      </defs>
      <use xlink:href="#DejaVuSans-114"/>
      <use x="38.863281" xlink:href="#DejaVuSans-101"/>
      <use x="100.386719" xlink:href="#DejaVuSans-115"/>
      <use x="152.486328" xlink:href="#DejaVuSans-111"/>
      <use x="213.667969" xlink:href="#DejaVuSans-117"/>
      <use x="277.046875" xlink:href="#DejaVuSans-114"/>
      <use x="315.910156" xlink:href="#DejaVuSans-99"/>
      <use x="370.890625" xlink:href="#DejaVuSans-101"/>
      <use x="432.414062" xlink:href="#DejaVuSans-84"/>
      <use x="477.873047" xlink:href="#DejaVuSans-121"/>
      <use x="537.052734" xlink:href="#DejaVuSans-112"/>
      <use x="600.529297" xlink:href="#DejaVuSans-101"/>
     </g>
    </g>
    <g id="line2d_18">
     <path d="M 275.982948 153.320312 
L 295.982948 153.320312 
" style="fill:none;stroke:#1f77b4;stroke-linecap:square;stroke-width:2.25;"/>
    </g>
    <g id="line2d_19"/>
    <g id="text_19">
     <!-- medium -->
     <g transform="translate(303.982948 156.820312)scale(0.1 -0.1)">
      <use xlink:href="#DejaVuSans-109"/>
      <use x="97.412109" xlink:href="#DejaVuSans-101"/>
      <use x="158.935547" xlink:href="#DejaVuSans-100"/>
      <use x="222.412109" xlink:href="#DejaVuSans-105"/>
      <use x="250.195312" xlink:href="#DejaVuSans-117"/>
      <use x="313.574219" xlink:href="#DejaVuSans-109"/>
     </g>
    </g>
    <g id="line2d_20">
     <path d="M 275.982948 167.998437 
L 295.982948 167.998437 
" style="fill:none;stroke:#ff7f0e;stroke-linecap:square;stroke-width:2.25;"/>
    </g>
    <g id="line2d_21"/>
    <g id="text_20">
     <!-- large -->
     <g transform="translate(303.982948 171.498437)scale(0.1 -0.1)">
      <defs>
       <path d="M 45.40625 27.984375 
Q 45.40625 37.75 41.375 43.109375 
Q 37.359375 48.484375 30.078125 48.484375 
Q 22.859375 48.484375 18.828125 43.109375 
Q 14.796875 37.75 14.796875 27.984375 
Q 14.796875 18.265625 18.828125 12.890625 
Q 22.859375 7.515625 30.078125 7.515625 
Q 37.359375 7.515625 41.375 12.890625 
Q 45.40625 18.265625 45.40625 27.984375 
z
M 54.390625 6.78125 
Q 54.390625 -7.171875 48.1875 -13.984375 
Q 42 -20.796875 29.203125 -20.796875 
Q 24.46875 -20.796875 20.265625 -20.09375 
Q 16.0625 -19.390625 12.109375 -17.921875 
L 12.109375 -9.1875 
Q 16.0625 -11.328125 19.921875 -12.34375 
Q 23.78125 -13.375 27.78125 -13.375 
Q 36.625 -13.375 41.015625 -8.765625 
Q 45.40625 -4.15625 45.40625 5.171875 
L 45.40625 9.625 
Q 42.625 4.78125 38.28125 2.390625 
Q 33.9375 0 27.875 0 
Q 17.828125 0 11.671875 7.65625 
Q 5.515625 15.328125 5.515625 27.984375 
Q 5.515625 40.671875 11.671875 48.328125 
Q 17.828125 56 27.875 56 
Q 33.9375 56 38.28125 53.609375 
Q 42.625 51.21875 45.40625 46.390625 
L 45.40625 54.6875 
L 54.390625 54.6875 
z
" id="DejaVuSans-103"/>
      </defs>
      <use xlink:href="#DejaVuSans-108"/>
      <use x="27.783203" xlink:href="#DejaVuSans-97"/>
      <use x="89.0625" xlink:href="#DejaVuSans-114"/>
      <use x="128.425781" xlink:href="#DejaVuSans-103"/>
      <use x="191.902344" xlink:href="#DejaVuSans-101"/>
     </g>
    </g>
    <g id="line2d_22">
     <path d="M 275.982948 182.676562 
L 295.982948 182.676562 
" style="fill:none;stroke:#2ca02c;stroke-linecap:square;stroke-width:2.25;"/>
    </g>
    <g id="line2d_23"/>
    <g id="text_21">
     <!-- small -->
     <g transform="translate(303.982948 186.176562)scale(0.1 -0.1)">
      <use xlink:href="#DejaVuSans-115"/>
      <use x="52.099609" xlink:href="#DejaVuSans-109"/>
      <use x="149.511719" xlink:href="#DejaVuSans-97"/>
      <use x="210.791016" xlink:href="#DejaVuSans-108"/>
      <use x="238.574219" xlink:href="#DejaVuSans-108"/>
     </g>
    </g>
   </g>
  </g>
 </g>
 <defs>
  <clipPath id="p2c20411176">
   <rect height="308.4" width="313.478261" x="40.603125" y="7.2"/>
  </clipPath>
 </defs>
</svg>
