<?xml version="1.0" encoding="utf-8" standalone="no"?>
<!DOCTYPE svg PUBLIC "-//W3C//DTD SVG 1.1//EN"
  "http://www.w3.org/Graphics/SVG/1.1/DTD/svg11.dtd">
<!-- Created with matplotlib (https://matplotlib.org/) -->
<svg height="353.15625pt" version="1.1" viewBox="0 0 366.576395 353.15625" width="366.576395pt" xmlns="http://www.w3.org/2000/svg" xmlns:xlink="http://www.w3.org/1999/xlink">
 <metadata>
  <rdf:RDF xmlns:cc="http://creativecommons.org/ns#" xmlns:dc="http://purl.org/dc/elements/1.1/" xmlns:rdf="http://www.w3.org/1999/02/22-rdf-syntax-ns#">
   <cc:Work>
    <dc:type rdf:resource="http://purl.org/dc/dcmitype/StillImage"/>
    <dc:date>2021-01-18T19:23:36.336974</dc:date>
    <dc:format>image/svg+xml</dc:format>
    <dc:creator>
     <cc:Agent>
      <dc:title>Matplotlib v3.3.3, https://matplotlib.org/</dc:title>
     </cc:Agent>
    </dc:creator>
   </cc:Work>
  </rdf:RDF>
 </metadata>
 <defs>
  <style type="text/css">*{stroke-linecap:butt;stroke-linejoin:round;}</style>
 </defs>
 <g id="figure_1">
  <g id="patch_1">
   <path d="M 0 353.15625 
L 366.576395 353.15625 
L 366.576395 0 
L 0 0 
z
" style="fill:none;"/>
  </g>
  <g id="axes_1">
   <g id="patch_2">
    <path d="M 43.78125 315.6 
L 353.884511 315.6 
L 353.884511 7.2 
L 43.78125 7.2 
z
" style="fill:#ffffff;"/>
   </g>
   <g id="PolyCollection_1">
    <path clip-path="url(#pfeba8e4bb3)" d="M 43.78125 110.972685 
L 43.78125 287.148342 
L 46.913449 287.148339 
L 50.045648 287.148337 
L 53.177848 287.148335 
L 56.310047 287.148332 
L 59.442246 287.14833 
L 62.574445 287.148328 
L 65.706645 287.148325 
L 68.838844 287.148323 
L 71.971043 287.148321 
L 75.103242 287.148318 
L 78.235441 287.148316 
L 81.367641 287.148314 
L 84.49984 287.148311 
L 87.632039 287.148309 
L 90.764239 287.148307 
L 93.896438 287.148304 
L 97.028637 287.148302 
L 100.160836 287.1483 
L 103.293036 287.148297 
L 106.425235 287.148295 
L 109.557434 287.148293 
L 112.689633 287.14829 
L 115.821833 287.148288 
L 118.954032 287.148286 
L 122.086231 287.148283 
L 125.21843 287.148281 
L 128.35063 287.148278 
L 131.482829 287.148276 
L 134.615028 287.148274 
L 137.747227 287.148271 
L 140.879427 287.148269 
L 144.011626 287.148267 
L 147.143825 287.148264 
L 150.276024 287.148262 
L 153.408224 287.14826 
L 156.540423 287.148257 
L 159.672622 287.148255 
L 162.804821 287.148253 
L 165.937021 287.14825 
L 169.06922 287.148248 
L 172.201419 287.148246 
L 175.333618 287.148243 
L 178.465818 287.148241 
L 181.598017 287.148239 
L 184.730216 287.148236 
L 187.862415 287.148234 
L 190.994615 287.148232 
L 194.126814 287.148229 
L 197.259013 287.148227 
L 200.391212 287.148225 
L 203.523412 287.148222 
L 206.655611 287.14822 
L 209.78781 287.148218 
L 212.92001 287.148215 
L 216.052209 287.148213 
L 219.184408 287.148211 
L 222.316607 287.148208 
L 225.448807 287.148206 
L 228.581006 287.148203 
L 231.713205 287.148201 
L 234.845404 287.148199 
L 237.977603 287.148196 
L 241.109803 287.148194 
L 244.242002 287.148192 
L 247.374201 287.148189 
L 250.506401 287.148187 
L 253.6386 287.148185 
L 256.770799 287.148182 
L 259.902998 287.14818 
L 263.035197 287.148178 
L 266.167397 287.148175 
L 269.299596 287.148173 
L 272.431795 287.148171 
L 275.563994 287.148168 
L 278.696194 287.148166 
L 281.828393 287.148164 
L 284.960592 287.148161 
L 288.092792 287.148159 
L 291.224991 287.148157 
L 294.35719 287.148154 
L 297.489389 287.148152 
L 300.621588 287.14815 
L 303.753788 287.148147 
L 306.885987 287.148145 
L 310.018186 287.148143 
L 313.150385 287.14814 
L 316.282585 287.148138 
L 319.414784 287.148136 
L 322.546983 287.148133 
L 325.679183 287.148131 
L 328.811382 287.148129 
L 331.943581 287.148126 
L 335.07578 287.148124 
L 338.207979 287.148121 
L 341.340179 287.148119 
L 344.472378 287.148117 
L 347.604577 287.148114 
L 350.736776 287.148112 
L 353.868976 287.14811 
L 353.868976 110.972421 
L 353.868976 110.972421 
L 350.736776 110.972423 
L 347.604577 110.972426 
L 344.472378 110.972429 
L 341.340179 110.972431 
L 338.207979 110.972434 
L 335.07578 110.972437 
L 331.943581 110.972439 
L 328.811382 110.972442 
L 325.679183 110.972445 
L 322.546983 110.972447 
L 319.414784 110.97245 
L 316.282585 110.972453 
L 313.150385 110.972455 
L 310.018186 110.972458 
L 306.885987 110.972461 
L 303.753788 110.972463 
L 300.621588 110.972466 
L 297.489389 110.972469 
L 294.35719 110.972471 
L 291.224991 110.972474 
L 288.092792 110.972477 
L 284.960592 110.972479 
L 281.828393 110.972482 
L 278.696194 110.972485 
L 275.563994 110.972487 
L 272.431795 110.97249 
L 269.299596 110.972493 
L 266.167397 110.972495 
L 263.035197 110.972498 
L 259.902998 110.972501 
L 256.770799 110.972503 
L 253.6386 110.972506 
L 250.506401 110.972509 
L 247.374201 110.972511 
L 244.242002 110.972514 
L 241.109803 110.972517 
L 237.977603 110.972519 
L 234.845404 110.972522 
L 231.713205 110.972525 
L 228.581006 110.972527 
L 225.448807 110.97253 
L 222.316607 110.972533 
L 219.184408 110.972536 
L 216.052209 110.972538 
L 212.92001 110.972541 
L 209.78781 110.972544 
L 206.655611 110.972546 
L 203.523412 110.972549 
L 200.391212 110.972552 
L 197.259013 110.972554 
L 194.126814 110.972557 
L 190.994615 110.97256 
L 187.862415 110.972562 
L 184.730216 110.972565 
L 181.598017 110.972568 
L 178.465818 110.97257 
L 175.333618 110.972573 
L 172.201419 110.972576 
L 169.06922 110.972578 
L 165.937021 110.972581 
L 162.804821 110.972584 
L 159.672622 110.972586 
L 156.540423 110.972589 
L 153.408224 110.972592 
L 150.276024 110.972594 
L 147.143825 110.972597 
L 144.011626 110.9726 
L 140.879427 110.972602 
L 137.747227 110.972605 
L 134.615028 110.972608 
L 131.482829 110.97261 
L 128.35063 110.972613 
L 125.21843 110.972616 
L 122.086231 110.972618 
L 118.954032 110.972621 
L 115.821833 110.972624 
L 112.689633 110.972626 
L 109.557434 110.972629 
L 106.425235 110.972632 
L 103.293036 110.972634 
L 100.160836 110.972637 
L 97.028637 110.97264 
L 93.896438 110.972642 
L 90.764239 110.972645 
L 87.632039 110.972648 
L 84.49984 110.97265 
L 81.367641 110.972653 
L 78.235441 110.972656 
L 75.103242 110.972659 
L 71.971043 110.972661 
L 68.838844 110.972664 
L 65.706645 110.972667 
L 62.574445 110.972669 
L 59.442246 110.972672 
L 56.310047 110.972675 
L 53.177848 110.972677 
L 50.045648 110.97268 
L 46.913449 110.972683 
L 43.78125 110.972685 
z
" style="fill:#1f77b4;fill-opacity:0.15;"/>
   </g>
   <g id="PolyCollection_2">
    <path clip-path="url(#pfeba8e4bb3)" d="M 43.78125 21.218463 
L 43.78125 228.226766 
L 46.913334 228.226763 
L 50.045418 228.226761 
L 53.177502 228.226759 
L 56.309587 228.226756 
L 59.441671 228.226754 
L 62.573755 228.226751 
L 65.705839 228.226749 
L 68.837923 228.226746 
L 71.970007 228.226744 
L 75.102092 228.226741 
L 78.234176 228.226739 
L 81.36626 228.226736 
L 84.498344 228.226734 
L 87.630429 228.226732 
L 90.762512 228.226729 
L 93.894597 228.226727 
L 97.026681 228.226724 
L 100.158765 228.226722 
L 103.290849 228.226719 
L 106.422933 228.226717 
L 109.555018 228.226714 
L 112.687102 228.226712 
L 115.819186 228.226709 
L 118.95127 228.226707 
L 122.083354 228.226705 
L 125.215438 228.226702 
L 128.347523 228.2267 
L 131.479607 228.226697 
L 134.611691 228.226695 
L 137.743775 228.226692 
L 140.875859 228.22669 
L 144.007943 228.226687 
L 147.140028 228.226685 
L 150.272112 228.226683 
L 153.404196 228.22668 
L 156.53628 228.226678 
L 159.668365 228.226675 
L 162.800449 228.226673 
L 165.932533 228.22667 
L 169.064617 228.226668 
L 172.196701 228.226665 
L 175.328785 228.226663 
L 178.460869 228.22666 
L 181.592954 228.226658 
L 184.725038 228.226656 
L 187.857122 228.226653 
L 190.989206 228.226651 
L 194.12129 228.226648 
L 197.253374 228.226646 
L 200.385459 228.226643 
L 203.517543 228.226641 
L 206.649627 228.226638 
L 209.781711 228.226636 
L 212.913795 228.226633 
L 216.04588 228.226631 
L 219.177964 228.226629 
L 222.310048 228.226626 
L 225.442132 228.226624 
L 228.574216 228.226621 
L 231.7063 228.226619 
L 234.838385 228.226616 
L 237.970469 228.226614 
L 241.102553 228.226611 
L 244.234637 228.226609 
L 247.366721 228.226606 
L 250.498805 228.226604 
L 253.63089 228.226602 
L 256.762974 228.226599 
L 259.895058 228.226597 
L 263.027142 228.226594 
L 266.159226 228.226592 
L 269.291311 228.226589 
L 272.423395 228.226587 
L 275.555479 228.226584 
L 278.687563 228.226582 
L 281.819647 228.226579 
L 284.951731 228.226577 
L 288.083816 228.226575 
L 291.2159 228.226572 
L 294.347984 228.22657 
L 297.480068 228.226567 
L 300.612152 228.226565 
L 303.744236 228.226562 
L 306.876321 228.22656 
L 310.008405 228.226557 
L 313.140489 228.226555 
L 316.272573 228.226552 
L 319.404657 228.22655 
L 322.536741 228.226548 
L 325.668826 228.226545 
L 328.80091 228.226543 
L 331.932994 228.22654 
L 335.065078 228.226538 
L 338.197162 228.226535 
L 341.329247 228.226533 
L 344.461331 228.22653 
L 347.593415 228.226528 
L 350.725499 228.226525 
L 353.857583 228.226523 
L 353.857583 21.218182 
L 353.857583 21.218182 
L 350.725499 21.218185 
L 347.593415 21.218188 
L 344.461331 21.21819 
L 341.329247 21.218193 
L 338.197162 21.218196 
L 335.065078 21.218199 
L 331.932994 21.218202 
L 328.80091 21.218205 
L 325.668826 21.218207 
L 322.536741 21.21821 
L 319.404657 21.218213 
L 316.272573 21.218216 
L 313.140489 21.218219 
L 310.008405 21.218222 
L 306.876321 21.218224 
L 303.744236 21.218227 
L 300.612152 21.21823 
L 297.480068 21.218233 
L 294.347984 21.218236 
L 291.2159 21.218239 
L 288.083816 21.218242 
L 284.951731 21.218244 
L 281.819647 21.218247 
L 278.687563 21.21825 
L 275.555479 21.218253 
L 272.423395 21.218256 
L 269.291311 21.218259 
L 266.159226 21.218261 
L 263.027142 21.218264 
L 259.895058 21.218267 
L 256.762974 21.21827 
L 253.63089 21.218273 
L 250.498805 21.218276 
L 247.366721 21.218278 
L 244.234637 21.218281 
L 241.102553 21.218284 
L 237.970469 21.218287 
L 234.838385 21.21829 
L 231.7063 21.218293 
L 228.574216 21.218296 
L 225.442132 21.218298 
L 222.310048 21.218301 
L 219.177964 21.218304 
L 216.04588 21.218307 
L 212.913795 21.21831 
L 209.781711 21.218313 
L 206.649627 21.218315 
L 203.517543 21.218318 
L 200.385459 21.218321 
L 197.253374 21.218324 
L 194.12129 21.218327 
L 190.989206 21.21833 
L 187.857122 21.218332 
L 184.725038 21.218335 
L 181.592954 21.218338 
L 178.460869 21.218341 
L 175.328785 21.218344 
L 172.196701 21.218347 
L 169.064617 21.21835 
L 165.932533 21.218352 
L 162.800449 21.218355 
L 159.668365 21.218358 
L 156.53628 21.218361 
L 153.404196 21.218364 
L 150.272112 21.218367 
L 147.140028 21.218369 
L 144.007943 21.218372 
L 140.875859 21.218375 
L 137.743775 21.218378 
L 134.611691 21.218381 
L 131.479607 21.218384 
L 128.347523 21.218386 
L 125.215438 21.218389 
L 122.083354 21.218392 
L 118.95127 21.218395 
L 115.819186 21.218398 
L 112.687102 21.218401 
L 109.555018 21.218404 
L 106.422933 21.218406 
L 103.290849 21.218409 
L 100.158765 21.218412 
L 97.026681 21.218415 
L 93.894597 21.218418 
L 90.762512 21.218421 
L 87.630429 21.218423 
L 84.498344 21.218426 
L 81.36626 21.218429 
L 78.234176 21.218432 
L 75.102092 21.218435 
L 71.970007 21.218438 
L 68.837923 21.21844 
L 65.705839 21.218443 
L 62.573755 21.218446 
L 59.441671 21.218449 
L 56.309587 21.218452 
L 53.177502 21.218455 
L 50.045418 21.218458 
L 46.913334 21.21846 
L 43.78125 21.218463 
z
" style="fill:#ff7f0e;fill-opacity:0.15;"/>
   </g>
   <g id="PolyCollection_3">
    <path clip-path="url(#pfeba8e4bb3)" d="M 44.216233 108.225509 
L 44.216233 301.581818 
L 47.344195 301.581816 
L 50.472157 301.581814 
L 53.60012 301.581811 
L 56.728082 301.581809 
L 59.856045 301.581807 
L 62.984007 301.581804 
L 66.111969 301.581802 
L 69.239932 301.5818 
L 72.367894 301.581797 
L 75.495857 301.581795 
L 78.623819 301.581793 
L 81.751781 301.58179 
L 84.879744 301.581788 
L 88.007706 301.581786 
L 91.135669 301.581783 
L 94.263631 301.581781 
L 97.391593 301.581779 
L 100.519556 301.581777 
L 103.647518 301.581774 
L 106.775481 301.581772 
L 109.903443 301.58177 
L 113.031405 301.581767 
L 116.159368 301.581765 
L 119.28733 301.581763 
L 122.415293 301.58176 
L 125.543255 301.581758 
L 128.671217 301.581756 
L 131.79918 301.581753 
L 134.927142 301.581751 
L 138.055105 301.581749 
L 141.183067 301.581746 
L 144.311029 301.581744 
L 147.438992 301.581742 
L 150.566954 301.58174 
L 153.694917 301.581737 
L 156.822879 301.581735 
L 159.950841 301.581733 
L 163.078804 301.58173 
L 166.206766 301.581728 
L 169.334729 301.581726 
L 172.462691 301.581723 
L 175.590653 301.581721 
L 178.718616 301.581719 
L 181.846578 301.581716 
L 184.974541 301.581714 
L 188.102503 301.581712 
L 191.230465 301.581709 
L 194.358428 301.581707 
L 197.486391 301.581705 
L 200.614353 301.581703 
L 203.742315 301.5817 
L 206.870278 301.581698 
L 209.99824 301.581696 
L 213.126203 301.581693 
L 216.254165 301.581691 
L 219.382127 301.581689 
L 222.51009 301.581686 
L 225.638052 301.581684 
L 228.766015 301.581682 
L 231.893977 301.581679 
L 235.02194 301.581677 
L 238.149902 301.581675 
L 241.277864 301.581672 
L 244.405827 301.58167 
L 247.533789 301.581668 
L 250.661752 301.581666 
L 253.789714 301.581663 
L 256.917676 301.581661 
L 260.045639 301.581659 
L 263.173601 301.581656 
L 266.301564 301.581654 
L 269.429526 301.581652 
L 272.557488 301.581649 
L 275.685451 301.581647 
L 278.813413 301.581645 
L 281.941375 301.581642 
L 285.069338 301.58164 
L 288.1973 301.581638 
L 291.325263 301.581635 
L 294.453225 301.581633 
L 297.581187 301.581631 
L 300.70915 301.581629 
L 303.837112 301.581626 
L 306.965075 301.581624 
L 310.093037 301.581622 
L 313.220999 301.581619 
L 316.348962 301.581617 
L 319.476924 301.581615 
L 322.604887 301.581612 
L 325.732849 301.58161 
L 328.860811 301.581608 
L 331.988774 301.581605 
L 335.116736 301.581603 
L 338.244699 301.581601 
L 341.372661 301.581598 
L 344.500623 301.581596 
L 347.628586 301.581594 
L 350.756548 301.581592 
L 353.884511 301.581589 
L 353.884511 108.225245 
L 353.884511 108.225245 
L 350.756548 108.225247 
L 347.628586 108.22525 
L 344.500623 108.225253 
L 341.372661 108.225255 
L 338.244699 108.225258 
L 335.116736 108.225261 
L 331.988774 108.225263 
L 328.860811 108.225266 
L 325.732849 108.225269 
L 322.604887 108.225271 
L 319.476924 108.225274 
L 316.348962 108.225277 
L 313.220999 108.225279 
L 310.093037 108.225282 
L 306.965075 108.225285 
L 303.837112 108.225287 
L 300.70915 108.22529 
L 297.581187 108.225293 
L 294.453225 108.225295 
L 291.325263 108.225298 
L 288.1973 108.225301 
L 285.069338 108.225303 
L 281.941375 108.225306 
L 278.813413 108.225309 
L 275.685451 108.225311 
L 272.557488 108.225314 
L 269.429526 108.225317 
L 266.301564 108.225319 
L 263.173601 108.225322 
L 260.045639 108.225325 
L 256.917676 108.225327 
L 253.789714 108.22533 
L 250.661752 108.225333 
L 247.533789 108.225336 
L 244.405827 108.225338 
L 241.277864 108.225341 
L 238.149902 108.225344 
L 235.02194 108.225346 
L 231.893977 108.225349 
L 228.766015 108.225352 
L 225.638052 108.225354 
L 222.51009 108.225357 
L 219.382127 108.22536 
L 216.254165 108.225362 
L 213.126203 108.225365 
L 209.99824 108.225368 
L 206.870278 108.22537 
L 203.742315 108.225373 
L 200.614353 108.225376 
L 197.486391 108.225378 
L 194.358428 108.225381 
L 191.230465 108.225384 
L 188.102503 108.225386 
L 184.974541 108.225389 
L 181.846578 108.225392 
L 178.718616 108.225394 
L 175.590653 108.225397 
L 172.462691 108.2254 
L 169.334729 108.225402 
L 166.206766 108.225405 
L 163.078804 108.225408 
L 159.950841 108.22541 
L 156.822879 108.225413 
L 153.694917 108.225416 
L 150.566954 108.225418 
L 147.438992 108.225421 
L 144.311029 108.225424 
L 141.183067 108.225426 
L 138.055105 108.225429 
L 134.927142 108.225432 
L 131.79918 108.225435 
L 128.671217 108.225437 
L 125.543255 108.22544 
L 122.415293 108.225443 
L 119.28733 108.225445 
L 116.159368 108.225448 
L 113.031405 108.225451 
L 109.903443 108.225453 
L 106.775481 108.225456 
L 103.647518 108.225459 
L 100.519556 108.225461 
L 97.391593 108.225464 
L 94.263631 108.225467 
L 91.135669 108.225469 
L 88.007706 108.225472 
L 84.879744 108.225475 
L 81.751781 108.225477 
L 78.623819 108.22548 
L 75.495857 108.225483 
L 72.367894 108.225485 
L 69.239932 108.225488 
L 66.111969 108.225491 
L 62.984007 108.225493 
L 59.856045 108.225496 
L 56.728082 108.225499 
L 53.60012 108.225501 
L 50.472157 108.225504 
L 47.344195 108.225507 
L 44.216233 108.225509 
z
" style="fill:#2ca02c;fill-opacity:0.15;"/>
   </g>
   <g id="matplotlib.axis_1">
    <g id="xtick_1">
     <g id="line2d_1">
      <defs>
       <path d="M 0 0 
L 0 3.5 
" id="m2bfa335bac" style="stroke:#000000;stroke-width:0.8;"/>
      </defs>
      <g>
       <use style="stroke:#000000;stroke-width:0.8;" x="78.189412" xlink:href="#m2bfa335bac" y="315.6"/>
      </g>
     </g>
     <g id="text_1">
      <!-- 2850000 -->
      <g transform="translate(55.920662 330.198437)scale(0.1 -0.1)">
       <defs>
        <path d="M 19.1875 8.296875 
L 53.609375 8.296875 
L 53.609375 0 
L 7.328125 0 
L 7.328125 8.296875 
Q 12.9375 14.109375 22.625 23.890625 
Q 32.328125 33.6875 34.8125 36.53125 
Q 39.546875 41.84375 41.421875 45.53125 
Q 43.3125 49.21875 43.3125 52.78125 
Q 43.3125 58.59375 39.234375 62.25 
Q 35.15625 65.921875 28.609375 65.921875 
Q 23.96875 65.921875 18.8125 64.3125 
Q 13.671875 62.703125 7.8125 59.421875 
L 7.8125 69.390625 
Q 13.765625 71.78125 18.9375 73 
Q 24.125 74.21875 28.421875 74.21875 
Q 39.75 74.21875 46.484375 68.546875 
Q 53.21875 62.890625 53.21875 53.421875 
Q 53.21875 48.921875 51.53125 44.890625 
Q 49.859375 40.875 45.40625 35.40625 
Q 44.1875 33.984375 37.640625 27.21875 
Q 31.109375 20.453125 19.1875 8.296875 
z
" id="DejaVuSans-50"/>
        <path d="M 31.78125 34.625 
Q 24.75 34.625 20.71875 30.859375 
Q 16.703125 27.09375 16.703125 20.515625 
Q 16.703125 13.921875 20.71875 10.15625 
Q 24.75 6.390625 31.78125 6.390625 
Q 38.8125 6.390625 42.859375 10.171875 
Q 46.921875 13.96875 46.921875 20.515625 
Q 46.921875 27.09375 42.890625 30.859375 
Q 38.875 34.625 31.78125 34.625 
z
M 21.921875 38.8125 
Q 15.578125 40.375 12.03125 44.71875 
Q 8.5 49.078125 8.5 55.328125 
Q 8.5 64.0625 14.71875 69.140625 
Q 20.953125 74.21875 31.78125 74.21875 
Q 42.671875 74.21875 48.875 69.140625 
Q 55.078125 64.0625 55.078125 55.328125 
Q 55.078125 49.078125 51.53125 44.71875 
Q 48 40.375 41.703125 38.8125 
Q 48.828125 37.15625 52.796875 32.3125 
Q 56.78125 27.484375 56.78125 20.515625 
Q 56.78125 9.90625 50.3125 4.234375 
Q 43.84375 -1.421875 31.78125 -1.421875 
Q 19.734375 -1.421875 13.25 4.234375 
Q 6.78125 9.90625 6.78125 20.515625 
Q 6.78125 27.484375 10.78125 32.3125 
Q 14.796875 37.15625 21.921875 38.8125 
z
M 18.3125 54.390625 
Q 18.3125 48.734375 21.84375 45.5625 
Q 25.390625 42.390625 31.78125 42.390625 
Q 38.140625 42.390625 41.71875 45.5625 
Q 45.3125 48.734375 45.3125 54.390625 
Q 45.3125 60.0625 41.71875 63.234375 
Q 38.140625 66.40625 31.78125 66.40625 
Q 25.390625 66.40625 21.84375 63.234375 
Q 18.3125 60.0625 18.3125 54.390625 
z
" id="DejaVuSans-56"/>
        <path d="M 10.796875 72.90625 
L 49.515625 72.90625 
L 49.515625 64.59375 
L 19.828125 64.59375 
L 19.828125 46.734375 
Q 21.96875 47.46875 24.109375 47.828125 
Q 26.265625 48.1875 28.421875 48.1875 
Q 40.625 48.1875 47.75 41.5 
Q 54.890625 34.8125 54.890625 23.390625 
Q 54.890625 11.625 47.5625 5.09375 
Q 40.234375 -1.421875 26.90625 -1.421875 
Q 22.3125 -1.421875 17.546875 -0.640625 
Q 12.796875 0.140625 7.71875 1.703125 
L 7.71875 11.625 
Q 12.109375 9.234375 16.796875 8.0625 
Q 21.484375 6.890625 26.703125 6.890625 
Q 35.15625 6.890625 40.078125 11.328125 
Q 45.015625 15.765625 45.015625 23.390625 
Q 45.015625 31 40.078125 35.4375 
Q 35.15625 39.890625 26.703125 39.890625 
Q 22.75 39.890625 18.8125 39.015625 
Q 14.890625 38.140625 10.796875 36.28125 
z
" id="DejaVuSans-53"/>
        <path d="M 31.78125 66.40625 
Q 24.171875 66.40625 20.328125 58.90625 
Q 16.5 51.421875 16.5 36.375 
Q 16.5 21.390625 20.328125 13.890625 
Q 24.171875 6.390625 31.78125 6.390625 
Q 39.453125 6.390625 43.28125 13.890625 
Q 47.125 21.390625 47.125 36.375 
Q 47.125 51.421875 43.28125 58.90625 
Q 39.453125 66.40625 31.78125 66.40625 
z
M 31.78125 74.21875 
Q 44.046875 74.21875 50.515625 64.515625 
Q 56.984375 54.828125 56.984375 36.375 
Q 56.984375 17.96875 50.515625 8.265625 
Q 44.046875 -1.421875 31.78125 -1.421875 
Q 19.53125 -1.421875 13.0625 8.265625 
Q 6.59375 17.96875 6.59375 36.375 
Q 6.59375 54.828125 13.0625 64.515625 
Q 19.53125 74.21875 31.78125 74.21875 
z
" id="DejaVuSans-48"/>
       </defs>
       <use xlink:href="#DejaVuSans-50"/>
       <use x="63.623047" xlink:href="#DejaVuSans-56"/>
       <use x="127.246094" xlink:href="#DejaVuSans-53"/>
       <use x="190.869141" xlink:href="#DejaVuSans-48"/>
       <use x="254.492188" xlink:href="#DejaVuSans-48"/>
       <use x="318.115234" xlink:href="#DejaVuSans-48"/>
       <use x="381.738281" xlink:href="#DejaVuSans-48"/>
      </g>
     </g>
    </g>
    <g id="xtick_2">
     <g id="line2d_2">
      <g>
       <use style="stroke:#000000;stroke-width:0.8;" x="129.973058" xlink:href="#m2bfa335bac" y="315.6"/>
      </g>
     </g>
     <g id="text_2">
      <!-- 2900000 -->
      <g transform="translate(107.704308 330.198437)scale(0.1 -0.1)">
       <defs>
        <path d="M 10.984375 1.515625 
L 10.984375 10.5 
Q 14.703125 8.734375 18.5 7.8125 
Q 22.3125 6.890625 25.984375 6.890625 
Q 35.75 6.890625 40.890625 13.453125 
Q 46.046875 20.015625 46.78125 33.40625 
Q 43.953125 29.203125 39.59375 26.953125 
Q 35.25 24.703125 29.984375 24.703125 
Q 19.046875 24.703125 12.671875 31.3125 
Q 6.296875 37.9375 6.296875 49.421875 
Q 6.296875 60.640625 12.9375 67.421875 
Q 19.578125 74.21875 30.609375 74.21875 
Q 43.265625 74.21875 49.921875 64.515625 
Q 56.59375 54.828125 56.59375 36.375 
Q 56.59375 19.140625 48.40625 8.859375 
Q 40.234375 -1.421875 26.421875 -1.421875 
Q 22.703125 -1.421875 18.890625 -0.6875 
Q 15.09375 0.046875 10.984375 1.515625 
z
M 30.609375 32.421875 
Q 37.25 32.421875 41.125 36.953125 
Q 45.015625 41.5 45.015625 49.421875 
Q 45.015625 57.28125 41.125 61.84375 
Q 37.25 66.40625 30.609375 66.40625 
Q 23.96875 66.40625 20.09375 61.84375 
Q 16.21875 57.28125 16.21875 49.421875 
Q 16.21875 41.5 20.09375 36.953125 
Q 23.96875 32.421875 30.609375 32.421875 
z
" id="DejaVuSans-57"/>
       </defs>
       <use xlink:href="#DejaVuSans-50"/>
       <use x="63.623047" xlink:href="#DejaVuSans-57"/>
       <use x="127.246094" xlink:href="#DejaVuSans-48"/>
       <use x="190.869141" xlink:href="#DejaVuSans-48"/>
       <use x="254.492188" xlink:href="#DejaVuSans-48"/>
       <use x="318.115234" xlink:href="#DejaVuSans-48"/>
       <use x="381.738281" xlink:href="#DejaVuSans-48"/>
      </g>
     </g>
    </g>
    <g id="xtick_3">
     <g id="line2d_3">
      <g>
       <use style="stroke:#000000;stroke-width:0.8;" x="181.756705" xlink:href="#m2bfa335bac" y="315.6"/>
      </g>
     </g>
     <g id="text_3">
      <!-- 2950000 -->
      <g transform="translate(159.487955 330.198437)scale(0.1 -0.1)">
       <use xlink:href="#DejaVuSans-50"/>
       <use x="63.623047" xlink:href="#DejaVuSans-57"/>
       <use x="127.246094" xlink:href="#DejaVuSans-53"/>
       <use x="190.869141" xlink:href="#DejaVuSans-48"/>
       <use x="254.492188" xlink:href="#DejaVuSans-48"/>
       <use x="318.115234" xlink:href="#DejaVuSans-48"/>
       <use x="381.738281" xlink:href="#DejaVuSans-48"/>
      </g>
     </g>
    </g>
    <g id="xtick_4">
     <g id="line2d_4">
      <g>
       <use style="stroke:#000000;stroke-width:0.8;" x="233.540352" xlink:href="#m2bfa335bac" y="315.6"/>
      </g>
     </g>
     <g id="text_4">
      <!-- 3000000 -->
      <g transform="translate(211.271602 330.198437)scale(0.1 -0.1)">
       <defs>
        <path d="M 40.578125 39.3125 
Q 47.65625 37.796875 51.625 33 
Q 55.609375 28.21875 55.609375 21.1875 
Q 55.609375 10.40625 48.1875 4.484375 
Q 40.765625 -1.421875 27.09375 -1.421875 
Q 22.515625 -1.421875 17.65625 -0.515625 
Q 12.796875 0.390625 7.625 2.203125 
L 7.625 11.71875 
Q 11.71875 9.328125 16.59375 8.109375 
Q 21.484375 6.890625 26.8125 6.890625 
Q 36.078125 6.890625 40.9375 10.546875 
Q 45.796875 14.203125 45.796875 21.1875 
Q 45.796875 27.640625 41.28125 31.265625 
Q 36.765625 34.90625 28.71875 34.90625 
L 20.21875 34.90625 
L 20.21875 43.015625 
L 29.109375 43.015625 
Q 36.375 43.015625 40.234375 45.921875 
Q 44.09375 48.828125 44.09375 54.296875 
Q 44.09375 59.90625 40.109375 62.90625 
Q 36.140625 65.921875 28.71875 65.921875 
Q 24.65625 65.921875 20.015625 65.03125 
Q 15.375 64.15625 9.8125 62.3125 
L 9.8125 71.09375 
Q 15.4375 72.65625 20.34375 73.4375 
Q 25.25 74.21875 29.59375 74.21875 
Q 40.828125 74.21875 47.359375 69.109375 
Q 53.90625 64.015625 53.90625 55.328125 
Q 53.90625 49.265625 50.4375 45.09375 
Q 46.96875 40.921875 40.578125 39.3125 
z
" id="DejaVuSans-51"/>
       </defs>
       <use xlink:href="#DejaVuSans-51"/>
       <use x="63.623047" xlink:href="#DejaVuSans-48"/>
       <use x="127.246094" xlink:href="#DejaVuSans-48"/>
       <use x="190.869141" xlink:href="#DejaVuSans-48"/>
       <use x="254.492188" xlink:href="#DejaVuSans-48"/>
       <use x="318.115234" xlink:href="#DejaVuSans-48"/>
       <use x="381.738281" xlink:href="#DejaVuSans-48"/>
      </g>
     </g>
    </g>
    <g id="xtick_5">
     <g id="line2d_5">
      <g>
       <use style="stroke:#000000;stroke-width:0.8;" x="285.323998" xlink:href="#m2bfa335bac" y="315.6"/>
      </g>
     </g>
     <g id="text_5">
      <!-- 3050000 -->
      <g transform="translate(263.055248 330.198437)scale(0.1 -0.1)">
       <use xlink:href="#DejaVuSans-51"/>
       <use x="63.623047" xlink:href="#DejaVuSans-48"/>
       <use x="127.246094" xlink:href="#DejaVuSans-53"/>
       <use x="190.869141" xlink:href="#DejaVuSans-48"/>
       <use x="254.492188" xlink:href="#DejaVuSans-48"/>
       <use x="318.115234" xlink:href="#DejaVuSans-48"/>
       <use x="381.738281" xlink:href="#DejaVuSans-48"/>
      </g>
     </g>
    </g>
    <g id="xtick_6">
     <g id="line2d_6">
      <g>
       <use style="stroke:#000000;stroke-width:0.8;" x="337.107645" xlink:href="#m2bfa335bac" y="315.6"/>
      </g>
     </g>
     <g id="text_6">
      <!-- 3100000 -->
      <g transform="translate(314.838895 330.198437)scale(0.1 -0.1)">
       <defs>
        <path d="M 12.40625 8.296875 
L 28.515625 8.296875 
L 28.515625 63.921875 
L 10.984375 60.40625 
L 10.984375 69.390625 
L 28.421875 72.90625 
L 38.28125 72.90625 
L 38.28125 8.296875 
L 54.390625 8.296875 
L 54.390625 0 
L 12.40625 0 
z
" id="DejaVuSans-49"/>
       </defs>
       <use xlink:href="#DejaVuSans-51"/>
       <use x="63.623047" xlink:href="#DejaVuSans-49"/>
       <use x="127.246094" xlink:href="#DejaVuSans-48"/>
       <use x="190.869141" xlink:href="#DejaVuSans-48"/>
       <use x="254.492188" xlink:href="#DejaVuSans-48"/>
       <use x="318.115234" xlink:href="#DejaVuSans-48"/>
       <use x="381.738281" xlink:href="#DejaVuSans-48"/>
      </g>
     </g>
    </g>
    <g id="text_7">
     <!-- timeStamp -->
     <g transform="translate(171.293818 343.876562)scale(0.1 -0.1)">
      <defs>
       <path d="M 18.3125 70.21875 
L 18.3125 54.6875 
L 36.8125 54.6875 
L 36.8125 47.703125 
L 18.3125 47.703125 
L 18.3125 18.015625 
Q 18.3125 11.328125 20.140625 9.421875 
Q 21.96875 7.515625 27.59375 7.515625 
L 36.8125 7.515625 
L 36.8125 0 
L 27.59375 0 
Q 17.1875 0 13.234375 3.875 
Q 9.28125 7.765625 9.28125 18.015625 
L 9.28125 47.703125 
L 2.6875 47.703125 
L 2.6875 54.6875 
L 9.28125 54.6875 
L 9.28125 70.21875 
z
" id="DejaVuSans-116"/>
       <path d="M 9.421875 54.6875 
L 18.40625 54.6875 
L 18.40625 0 
L 9.421875 0 
z
M 9.421875 75.984375 
L 18.40625 75.984375 
L 18.40625 64.59375 
L 9.421875 64.59375 
z
" id="DejaVuSans-105"/>
       <path d="M 52 44.1875 
Q 55.375 50.25 60.0625 53.125 
Q 64.75 56 71.09375 56 
Q 79.640625 56 84.28125 50.015625 
Q 88.921875 44.046875 88.921875 33.015625 
L 88.921875 0 
L 79.890625 0 
L 79.890625 32.71875 
Q 79.890625 40.578125 77.09375 44.375 
Q 74.3125 48.1875 68.609375 48.1875 
Q 61.625 48.1875 57.5625 43.546875 
Q 53.515625 38.921875 53.515625 30.90625 
L 53.515625 0 
L 44.484375 0 
L 44.484375 32.71875 
Q 44.484375 40.625 41.703125 44.40625 
Q 38.921875 48.1875 33.109375 48.1875 
Q 26.21875 48.1875 22.15625 43.53125 
Q 18.109375 38.875 18.109375 30.90625 
L 18.109375 0 
L 9.078125 0 
L 9.078125 54.6875 
L 18.109375 54.6875 
L 18.109375 46.1875 
Q 21.1875 51.21875 25.484375 53.609375 
Q 29.78125 56 35.6875 56 
Q 41.65625 56 45.828125 52.96875 
Q 50 49.953125 52 44.1875 
z
" id="DejaVuSans-109"/>
       <path d="M 56.203125 29.59375 
L 56.203125 25.203125 
L 14.890625 25.203125 
Q 15.484375 15.921875 20.484375 11.0625 
Q 25.484375 6.203125 34.421875 6.203125 
Q 39.59375 6.203125 44.453125 7.46875 
Q 49.3125 8.734375 54.109375 11.28125 
L 54.109375 2.78125 
Q 49.265625 0.734375 44.1875 -0.34375 
Q 39.109375 -1.421875 33.890625 -1.421875 
Q 20.796875 -1.421875 13.15625 6.1875 
Q 5.515625 13.8125 5.515625 26.8125 
Q 5.515625 40.234375 12.765625 48.109375 
Q 20.015625 56 32.328125 56 
Q 43.359375 56 49.78125 48.890625 
Q 56.203125 41.796875 56.203125 29.59375 
z
M 47.21875 32.234375 
Q 47.125 39.59375 43.09375 43.984375 
Q 39.0625 48.390625 32.421875 48.390625 
Q 24.90625 48.390625 20.390625 44.140625 
Q 15.875 39.890625 15.1875 32.171875 
z
" id="DejaVuSans-101"/>
       <path d="M 53.515625 70.515625 
L 53.515625 60.890625 
Q 47.90625 63.578125 42.921875 64.890625 
Q 37.9375 66.21875 33.296875 66.21875 
Q 25.25 66.21875 20.875 63.09375 
Q 16.5 59.96875 16.5 54.203125 
Q 16.5 49.359375 19.40625 46.890625 
Q 22.3125 44.4375 30.421875 42.921875 
L 36.375 41.703125 
Q 47.40625 39.59375 52.65625 34.296875 
Q 57.90625 29 57.90625 20.125 
Q 57.90625 9.515625 50.796875 4.046875 
Q 43.703125 -1.421875 29.984375 -1.421875 
Q 24.8125 -1.421875 18.96875 -0.25 
Q 13.140625 0.921875 6.890625 3.21875 
L 6.890625 13.375 
Q 12.890625 10.015625 18.65625 8.296875 
Q 24.421875 6.59375 29.984375 6.59375 
Q 38.421875 6.59375 43.015625 9.90625 
Q 47.609375 13.234375 47.609375 19.390625 
Q 47.609375 24.75 44.3125 27.78125 
Q 41.015625 30.8125 33.5 32.328125 
L 27.484375 33.5 
Q 16.453125 35.6875 11.515625 40.375 
Q 6.59375 45.0625 6.59375 53.421875 
Q 6.59375 63.09375 13.40625 68.65625 
Q 20.21875 74.21875 32.171875 74.21875 
Q 37.3125 74.21875 42.625 73.28125 
Q 47.953125 72.359375 53.515625 70.515625 
z
" id="DejaVuSans-83"/>
       <path d="M 34.28125 27.484375 
Q 23.390625 27.484375 19.1875 25 
Q 14.984375 22.515625 14.984375 16.5 
Q 14.984375 11.71875 18.140625 8.90625 
Q 21.296875 6.109375 26.703125 6.109375 
Q 34.1875 6.109375 38.703125 11.40625 
Q 43.21875 16.703125 43.21875 25.484375 
L 43.21875 27.484375 
z
M 52.203125 31.203125 
L 52.203125 0 
L 43.21875 0 
L 43.21875 8.296875 
Q 40.140625 3.328125 35.546875 0.953125 
Q 30.953125 -1.421875 24.3125 -1.421875 
Q 15.921875 -1.421875 10.953125 3.296875 
Q 6 8.015625 6 15.921875 
Q 6 25.140625 12.171875 29.828125 
Q 18.359375 34.515625 30.609375 34.515625 
L 43.21875 34.515625 
L 43.21875 35.40625 
Q 43.21875 41.609375 39.140625 45 
Q 35.0625 48.390625 27.6875 48.390625 
Q 23 48.390625 18.546875 47.265625 
Q 14.109375 46.140625 10.015625 43.890625 
L 10.015625 52.203125 
Q 14.9375 54.109375 19.578125 55.046875 
Q 24.21875 56 28.609375 56 
Q 40.484375 56 46.34375 49.84375 
Q 52.203125 43.703125 52.203125 31.203125 
z
" id="DejaVuSans-97"/>
       <path d="M 18.109375 8.203125 
L 18.109375 -20.796875 
L 9.078125 -20.796875 
L 9.078125 54.6875 
L 18.109375 54.6875 
L 18.109375 46.390625 
Q 20.953125 51.265625 25.265625 53.625 
Q 29.59375 56 35.59375 56 
Q 45.5625 56 51.78125 48.09375 
Q 58.015625 40.1875 58.015625 27.296875 
Q 58.015625 14.40625 51.78125 6.484375 
Q 45.5625 -1.421875 35.59375 -1.421875 
Q 29.59375 -1.421875 25.265625 0.953125 
Q 20.953125 3.328125 18.109375 8.203125 
z
M 48.6875 27.296875 
Q 48.6875 37.203125 44.609375 42.84375 
Q 40.53125 48.484375 33.40625 48.484375 
Q 26.265625 48.484375 22.1875 42.84375 
Q 18.109375 37.203125 18.109375 27.296875 
Q 18.109375 17.390625 22.1875 11.75 
Q 26.265625 6.109375 33.40625 6.109375 
Q 40.53125 6.109375 44.609375 11.75 
Q 48.6875 17.390625 48.6875 27.296875 
z
" id="DejaVuSans-112"/>
      </defs>
      <use xlink:href="#DejaVuSans-116"/>
      <use x="39.208984" xlink:href="#DejaVuSans-105"/>
      <use x="66.992188" xlink:href="#DejaVuSans-109"/>
      <use x="164.404297" xlink:href="#DejaVuSans-101"/>
      <use x="225.927734" xlink:href="#DejaVuSans-83"/>
      <use x="289.404297" xlink:href="#DejaVuSans-116"/>
      <use x="328.613281" xlink:href="#DejaVuSans-97"/>
      <use x="389.892578" xlink:href="#DejaVuSans-109"/>
      <use x="487.304688" xlink:href="#DejaVuSans-112"/>
     </g>
    </g>
    <g id="text_8">
     <!-- +1.61062e12 -->
     <g transform="translate(285.273573 342.876562)scale(0.1 -0.1)">
      <defs>
       <path d="M 46 62.703125 
L 46 35.5 
L 73.1875 35.5 
L 73.1875 27.203125 
L 46 27.203125 
L 46 0 
L 37.796875 0 
L 37.796875 27.203125 
L 10.59375 27.203125 
L 10.59375 35.5 
L 37.796875 35.5 
L 37.796875 62.703125 
z
" id="DejaVuSans-43"/>
       <path d="M 10.6875 12.40625 
L 21 12.40625 
L 21 0 
L 10.6875 0 
z
" id="DejaVuSans-46"/>
       <path d="M 33.015625 40.375 
Q 26.375 40.375 22.484375 35.828125 
Q 18.609375 31.296875 18.609375 23.390625 
Q 18.609375 15.53125 22.484375 10.953125 
Q 26.375 6.390625 33.015625 6.390625 
Q 39.65625 6.390625 43.53125 10.953125 
Q 47.40625 15.53125 47.40625 23.390625 
Q 47.40625 31.296875 43.53125 35.828125 
Q 39.65625 40.375 33.015625 40.375 
z
M 52.59375 71.296875 
L 52.59375 62.3125 
Q 48.875 64.0625 45.09375 64.984375 
Q 41.3125 65.921875 37.59375 65.921875 
Q 27.828125 65.921875 22.671875 59.328125 
Q 17.53125 52.734375 16.796875 39.40625 
Q 19.671875 43.65625 24.015625 45.921875 
Q 28.375 48.1875 33.59375 48.1875 
Q 44.578125 48.1875 50.953125 41.515625 
Q 57.328125 34.859375 57.328125 23.390625 
Q 57.328125 12.15625 50.6875 5.359375 
Q 44.046875 -1.421875 33.015625 -1.421875 
Q 20.359375 -1.421875 13.671875 8.265625 
Q 6.984375 17.96875 6.984375 36.375 
Q 6.984375 53.65625 15.1875 63.9375 
Q 23.390625 74.21875 37.203125 74.21875 
Q 40.921875 74.21875 44.703125 73.484375 
Q 48.484375 72.75 52.59375 71.296875 
z
" id="DejaVuSans-54"/>
      </defs>
      <use xlink:href="#DejaVuSans-43"/>
      <use x="83.789062" xlink:href="#DejaVuSans-49"/>
      <use x="147.412109" xlink:href="#DejaVuSans-46"/>
      <use x="179.199219" xlink:href="#DejaVuSans-54"/>
      <use x="242.822266" xlink:href="#DejaVuSans-49"/>
      <use x="306.445312" xlink:href="#DejaVuSans-48"/>
      <use x="370.068359" xlink:href="#DejaVuSans-54"/>
      <use x="433.691406" xlink:href="#DejaVuSans-50"/>
      <use x="497.314453" xlink:href="#DejaVuSans-101"/>
      <use x="558.837891" xlink:href="#DejaVuSans-49"/>
      <use x="622.460938" xlink:href="#DejaVuSans-50"/>
     </g>
    </g>
   </g>
   <g id="matplotlib.axis_2">
    <g id="ytick_1">
     <g id="line2d_7">
      <defs>
       <path d="M 0 0 
L -3.5 0 
" id="md54d6ccac9" style="stroke:#000000;stroke-width:0.8;"/>
      </defs>
      <g>
       <use style="stroke:#000000;stroke-width:0.8;" x="43.78125" xlink:href="#md54d6ccac9" y="306.19755"/>
      </g>
     </g>
     <g id="text_9">
      <!-- 5.4 -->
      <g transform="translate(20.878125 309.996769)scale(0.1 -0.1)">
       <defs>
        <path d="M 37.796875 64.3125 
L 12.890625 25.390625 
L 37.796875 25.390625 
z
M 35.203125 72.90625 
L 47.609375 72.90625 
L 47.609375 25.390625 
L 58.015625 25.390625 
L 58.015625 17.1875 
L 47.609375 17.1875 
L 47.609375 0 
L 37.796875 0 
L 37.796875 17.1875 
L 4.890625 17.1875 
L 4.890625 26.703125 
z
" id="DejaVuSans-52"/>
       </defs>
       <use xlink:href="#DejaVuSans-53"/>
       <use x="63.623047" xlink:href="#DejaVuSans-46"/>
       <use x="95.410156" xlink:href="#DejaVuSans-52"/>
      </g>
     </g>
    </g>
    <g id="ytick_2">
     <g id="line2d_8">
      <g>
       <use style="stroke:#000000;stroke-width:0.8;" x="43.78125" xlink:href="#md54d6ccac9" y="260.687415"/>
      </g>
     </g>
     <g id="text_10">
      <!-- 5.6 -->
      <g transform="translate(20.878125 264.486634)scale(0.1 -0.1)">
       <use xlink:href="#DejaVuSans-53"/>
       <use x="63.623047" xlink:href="#DejaVuSans-46"/>
       <use x="95.410156" xlink:href="#DejaVuSans-54"/>
      </g>
     </g>
    </g>
    <g id="ytick_3">
     <g id="line2d_9">
      <g>
       <use style="stroke:#000000;stroke-width:0.8;" x="43.78125" xlink:href="#md54d6ccac9" y="215.17728"/>
      </g>
     </g>
     <g id="text_11">
      <!-- 5.8 -->
      <g transform="translate(20.878125 218.976499)scale(0.1 -0.1)">
       <use xlink:href="#DejaVuSans-53"/>
       <use x="63.623047" xlink:href="#DejaVuSans-46"/>
       <use x="95.410156" xlink:href="#DejaVuSans-56"/>
      </g>
     </g>
    </g>
    <g id="ytick_4">
     <g id="line2d_10">
      <g>
       <use style="stroke:#000000;stroke-width:0.8;" x="43.78125" xlink:href="#md54d6ccac9" y="169.667146"/>
      </g>
     </g>
     <g id="text_12">
      <!-- 6.0 -->
      <g transform="translate(20.878125 173.466364)scale(0.1 -0.1)">
       <use xlink:href="#DejaVuSans-54"/>
       <use x="63.623047" xlink:href="#DejaVuSans-46"/>
       <use x="95.410156" xlink:href="#DejaVuSans-48"/>
      </g>
     </g>
    </g>
    <g id="ytick_5">
     <g id="line2d_11">
      <g>
       <use style="stroke:#000000;stroke-width:0.8;" x="43.78125" xlink:href="#md54d6ccac9" y="124.157011"/>
      </g>
     </g>
     <g id="text_13">
      <!-- 6.2 -->
      <g transform="translate(20.878125 127.95623)scale(0.1 -0.1)">
       <use xlink:href="#DejaVuSans-54"/>
       <use x="63.623047" xlink:href="#DejaVuSans-46"/>
       <use x="95.410156" xlink:href="#DejaVuSans-50"/>
      </g>
     </g>
    </g>
    <g id="ytick_6">
     <g id="line2d_12">
      <g>
       <use style="stroke:#000000;stroke-width:0.8;" x="43.78125" xlink:href="#md54d6ccac9" y="78.646876"/>
      </g>
     </g>
     <g id="text_14">
      <!-- 6.4 -->
      <g transform="translate(20.878125 82.446095)scale(0.1 -0.1)">
       <use xlink:href="#DejaVuSans-54"/>
       <use x="63.623047" xlink:href="#DejaVuSans-46"/>
       <use x="95.410156" xlink:href="#DejaVuSans-52"/>
      </g>
     </g>
    </g>
    <g id="ytick_7">
     <g id="line2d_13">
      <g>
       <use style="stroke:#000000;stroke-width:0.8;" x="43.78125" xlink:href="#md54d6ccac9" y="33.136741"/>
      </g>
     </g>
     <g id="text_15">
      <!-- 6.6 -->
      <g transform="translate(20.878125 36.93596)scale(0.1 -0.1)">
       <use xlink:href="#DejaVuSans-54"/>
       <use x="63.623047" xlink:href="#DejaVuSans-46"/>
       <use x="95.410156" xlink:href="#DejaVuSans-54"/>
      </g>
     </g>
    </g>
    <g id="text_16">
     <!-- Latency -->
     <g transform="translate(14.798438 181.164062)rotate(-90)scale(0.1 -0.1)">
      <defs>
       <path d="M 9.8125 72.90625 
L 19.671875 72.90625 
L 19.671875 8.296875 
L 55.171875 8.296875 
L 55.171875 0 
L 9.8125 0 
z
" id="DejaVuSans-76"/>
       <path d="M 54.890625 33.015625 
L 54.890625 0 
L 45.90625 0 
L 45.90625 32.71875 
Q 45.90625 40.484375 42.875 44.328125 
Q 39.84375 48.1875 33.796875 48.1875 
Q 26.515625 48.1875 22.3125 43.546875 
Q 18.109375 38.921875 18.109375 30.90625 
L 18.109375 0 
L 9.078125 0 
L 9.078125 54.6875 
L 18.109375 54.6875 
L 18.109375 46.1875 
Q 21.34375 51.125 25.703125 53.5625 
Q 30.078125 56 35.796875 56 
Q 45.21875 56 50.046875 50.171875 
Q 54.890625 44.34375 54.890625 33.015625 
z
" id="DejaVuSans-110"/>
       <path d="M 48.78125 52.59375 
L 48.78125 44.1875 
Q 44.96875 46.296875 41.140625 47.34375 
Q 37.3125 48.390625 33.40625 48.390625 
Q 24.65625 48.390625 19.8125 42.84375 
Q 14.984375 37.3125 14.984375 27.296875 
Q 14.984375 17.28125 19.8125 11.734375 
Q 24.65625 6.203125 33.40625 6.203125 
Q 37.3125 6.203125 41.140625 7.25 
Q 44.96875 8.296875 48.78125 10.40625 
L 48.78125 2.09375 
Q 45.015625 0.34375 40.984375 -0.53125 
Q 36.96875 -1.421875 32.421875 -1.421875 
Q 20.0625 -1.421875 12.78125 6.34375 
Q 5.515625 14.109375 5.515625 27.296875 
Q 5.515625 40.671875 12.859375 48.328125 
Q 20.21875 56 33.015625 56 
Q 37.15625 56 41.109375 55.140625 
Q 45.0625 54.296875 48.78125 52.59375 
z
" id="DejaVuSans-99"/>
       <path d="M 32.171875 -5.078125 
Q 28.375 -14.84375 24.75 -17.8125 
Q 21.140625 -20.796875 15.09375 -20.796875 
L 7.90625 -20.796875 
L 7.90625 -13.28125 
L 13.1875 -13.28125 
Q 16.890625 -13.28125 18.9375 -11.515625 
Q 21 -9.765625 23.484375 -3.21875 
L 25.09375 0.875 
L 2.984375 54.6875 
L 12.5 54.6875 
L 29.59375 11.921875 
L 46.6875 54.6875 
L 56.203125 54.6875 
z
" id="DejaVuSans-121"/>
      </defs>
      <use xlink:href="#DejaVuSans-76"/>
      <use x="55.712891" xlink:href="#DejaVuSans-97"/>
      <use x="116.992188" xlink:href="#DejaVuSans-116"/>
      <use x="156.201172" xlink:href="#DejaVuSans-101"/>
      <use x="217.724609" xlink:href="#DejaVuSans-110"/>
      <use x="281.103516" xlink:href="#DejaVuSans-99"/>
      <use x="336.083984" xlink:href="#DejaVuSans-121"/>
     </g>
    </g>
   </g>
   <g id="line2d_14">
    <path clip-path="url(#pfeba8e4bb3)" d="M 43.78125 203.202671 
L 46.913449 203.202668 
L 50.045648 203.202666 
L 53.177848 203.202663 
L 56.310047 203.202661 
L 59.442246 203.202658 
L 62.574445 203.202656 
L 65.706645 203.202653 
L 68.838844 203.202651 
L 71.971043 203.202648 
L 75.103242 203.202646 
L 78.235441 203.202643 
L 81.367641 203.202641 
L 84.49984 203.202638 
L 87.632039 203.202636 
L 90.764239 203.202633 
L 93.896438 203.202631 
L 97.028637 203.202628 
L 100.160836 203.202626 
L 103.293036 203.202623 
L 106.425235 203.202621 
L 109.557434 203.202618 
L 112.689633 203.202616 
L 115.821833 203.202613 
L 118.954032 203.202611 
L 122.086231 203.202608 
L 125.21843 203.202606 
L 128.35063 203.202603 
L 131.482829 203.202601 
L 134.615028 203.202598 
L 137.747227 203.202596 
L 140.879427 203.202593 
L 144.011626 203.202591 
L 147.143825 203.202588 
L 150.276024 203.202586 
L 153.408224 203.202583 
L 156.540423 203.202581 
L 159.672622 203.202578 
L 162.804821 203.202576 
L 165.937021 203.202573 
L 169.06922 203.202571 
L 172.201419 203.202568 
L 175.333618 203.202566 
L 178.465818 203.202563 
L 181.598017 203.202561 
L 184.730216 203.202558 
L 187.862415 203.202556 
L 190.994615 203.202553 
L 194.126814 203.202551 
L 197.259013 203.202548 
L 200.391212 203.202546 
L 203.523412 203.202543 
L 206.655611 203.202541 
L 209.78781 203.202538 
L 212.92001 203.202536 
L 216.052209 203.202533 
L 219.184408 203.202531 
L 222.316607 203.202528 
L 225.448807 203.202526 
L 228.581006 203.202523 
L 231.713205 203.202521 
L 234.845404 203.202518 
L 237.977603 203.202516 
L 241.109803 203.202513 
L 244.242002 203.202511 
L 247.374201 203.202508 
L 250.506401 203.202506 
L 253.6386 203.202503 
L 256.770799 203.202501 
L 259.902998 203.202498 
L 263.035197 203.202496 
L 266.167397 203.202493 
L 269.299596 203.202491 
L 272.431795 203.202488 
L 275.563994 203.202486 
L 278.696194 203.202483 
L 281.828393 203.202481 
L 284.960592 203.202478 
L 288.092792 203.202476 
L 291.224991 203.202473 
L 294.35719 203.202471 
L 297.489389 203.202468 
L 300.621588 203.202466 
L 303.753788 203.202463 
L 306.885987 203.202461 
L 310.018186 203.202458 
L 313.150385 203.202456 
L 316.282585 203.202453 
L 319.414784 203.202451 
L 322.546983 203.202448 
L 325.679183 203.202446 
L 328.811382 203.202443 
L 331.943581 203.202441 
L 335.07578 203.202438 
L 338.207979 203.202436 
L 341.340179 203.202433 
L 344.472378 203.202431 
L 347.604577 203.202428 
L 350.736776 203.202426 
L 353.868976 203.202423 
" style="fill:none;stroke:#1f77b4;stroke-linecap:square;stroke-width:2.25;"/>
   </g>
   <g id="line2d_15">
    <path clip-path="url(#pfeba8e4bb3)" d="M 43.78125 119.587973 
L 46.913334 119.587971 
L 50.045418 119.587968 
L 53.177502 119.587965 
L 56.309587 119.587963 
L 59.441671 119.58796 
L 62.573755 119.587957 
L 65.705839 119.587955 
L 68.837923 119.587952 
L 71.970007 119.587949 
L 75.102092 119.587947 
L 78.234176 119.587944 
L 81.36626 119.587941 
L 84.498344 119.587939 
L 87.630429 119.587936 
L 90.762512 119.587933 
L 93.894597 119.587931 
L 97.026681 119.587928 
L 100.158765 119.587925 
L 103.290849 119.587923 
L 106.422933 119.58792 
L 109.555018 119.587918 
L 112.687102 119.587915 
L 115.819186 119.587912 
L 118.95127 119.58791 
L 122.083354 119.587907 
L 125.215438 119.587904 
L 128.347523 119.587902 
L 131.479607 119.587899 
L 134.611691 119.587896 
L 137.743775 119.587894 
L 140.875859 119.587891 
L 144.007943 119.587888 
L 147.140028 119.587886 
L 150.272112 119.587883 
L 153.404196 119.58788 
L 156.53628 119.587878 
L 159.668365 119.587875 
L 162.800449 119.587872 
L 165.932533 119.58787 
L 169.064617 119.587867 
L 172.196701 119.587864 
L 175.328785 119.587862 
L 178.460869 119.587859 
L 181.592954 119.587856 
L 184.725038 119.587854 
L 187.857122 119.587851 
L 190.989206 119.587848 
L 194.12129 119.587846 
L 197.253374 119.587843 
L 200.385459 119.58784 
L 203.517543 119.587838 
L 206.649627 119.587835 
L 209.781711 119.587832 
L 212.913795 119.58783 
L 216.04588 119.587827 
L 219.177964 119.587824 
L 222.310048 119.587822 
L 225.442132 119.587819 
L 228.574216 119.587817 
L 231.7063 119.587814 
L 234.838385 119.587811 
L 237.970469 119.587809 
L 241.102553 119.587806 
L 244.234637 119.587803 
L 247.366721 119.587801 
L 250.498805 119.587798 
L 253.63089 119.587795 
L 256.762974 119.587793 
L 259.895058 119.58779 
L 263.027142 119.587787 
L 266.159226 119.587785 
L 269.291311 119.587782 
L 272.423395 119.587779 
L 275.555479 119.587777 
L 278.687563 119.587774 
L 281.819647 119.587771 
L 284.951731 119.587769 
L 288.083816 119.587766 
L 291.2159 119.587763 
L 294.347984 119.587761 
L 297.480068 119.587758 
L 300.612152 119.587755 
L 303.744236 119.587753 
L 306.876321 119.58775 
L 310.008405 119.587747 
L 313.140489 119.587745 
L 316.272573 119.587742 
L 319.404657 119.587739 
L 322.536741 119.587737 
L 325.668826 119.587734 
L 328.80091 119.587731 
L 331.932994 119.587729 
L 335.065078 119.587726 
L 338.197162 119.587723 
L 341.329247 119.587721 
L 344.461331 119.587718 
L 347.593415 119.587716 
L 350.725499 119.587713 
L 353.857583 119.58771 
" style="fill:none;stroke:#ff7f0e;stroke-linecap:square;stroke-width:2.25;"/>
   </g>
   <g id="line2d_16">
    <path clip-path="url(#pfeba8e4bb3)" d="M 44.216233 212.583884 
L 47.344195 212.583881 
L 50.472157 212.583879 
L 53.60012 212.583876 
L 56.728082 212.583874 
L 59.856045 212.583871 
L 62.984007 212.583869 
L 66.111969 212.583866 
L 69.239932 212.583864 
L 72.367894 212.583861 
L 75.495857 212.583859 
L 78.623819 212.583856 
L 81.751781 212.583854 
L 84.879744 212.583851 
L 88.007706 212.583849 
L 91.135669 212.583846 
L 94.263631 212.583844 
L 97.391593 212.583841 
L 100.519556 212.583839 
L 103.647518 212.583836 
L 106.775481 212.583834 
L 109.903443 212.583832 
L 113.031405 212.583829 
L 116.159368 212.583827 
L 119.28733 212.583824 
L 122.415293 212.583822 
L 125.543255 212.583819 
L 128.671217 212.583817 
L 131.79918 212.583814 
L 134.927142 212.583812 
L 138.055105 212.583809 
L 141.183067 212.583807 
L 144.311029 212.583804 
L 147.438992 212.583802 
L 150.566954 212.583799 
L 153.694917 212.583797 
L 156.822879 212.583794 
L 159.950841 212.583792 
L 163.078804 212.583789 
L 166.206766 212.583787 
L 169.334729 212.583784 
L 172.462691 212.583782 
L 175.590653 212.583779 
L 178.718616 212.583777 
L 181.846578 212.583775 
L 184.974541 212.583772 
L 188.102503 212.58377 
L 191.230465 212.583767 
L 194.358428 212.583765 
L 197.486391 212.583762 
L 200.614353 212.58376 
L 203.742315 212.583757 
L 206.870278 212.583755 
L 209.99824 212.583752 
L 213.126203 212.58375 
L 216.254165 212.583747 
L 219.382127 212.583745 
L 222.51009 212.583742 
L 225.638052 212.58374 
L 228.766015 212.583737 
L 231.893977 212.583735 
L 235.02194 212.583732 
L 238.149902 212.58373 
L 241.277864 212.583727 
L 244.405827 212.583725 
L 247.533789 212.583722 
L 250.661752 212.58372 
L 253.789714 212.583717 
L 256.917676 212.583715 
L 260.045639 212.583713 
L 263.173601 212.58371 
L 266.301564 212.583708 
L 269.429526 212.583705 
L 272.557488 212.583703 
L 275.685451 212.5837 
L 278.813413 212.583698 
L 281.941375 212.583695 
L 285.069338 212.583693 
L 288.1973 212.58369 
L 291.325263 212.583688 
L 294.453225 212.583685 
L 297.581187 212.583683 
L 300.70915 212.58368 
L 303.837112 212.583678 
L 306.965075 212.583675 
L 310.093037 212.583673 
L 313.220999 212.58367 
L 316.348962 212.583668 
L 319.476924 212.583665 
L 322.604887 212.583663 
L 325.732849 212.58366 
L 328.860811 212.583658 
L 331.988774 212.583655 
L 335.116736 212.583653 
L 338.244699 212.583651 
L 341.372661 212.583648 
L 344.500623 212.583646 
L 347.628586 212.583643 
L 350.756548 212.583641 
L 353.884511 212.583638 
" style="fill:none;stroke:#2ca02c;stroke-linecap:square;stroke-width:2.25;"/>
   </g>
   <g id="patch_3">
    <path d="M 43.78125 315.6 
L 43.78125 7.2 
" style="fill:none;stroke:#000000;stroke-linecap:square;stroke-linejoin:miter;stroke-width:0.8;"/>
   </g>
   <g id="patch_4">
    <path d="M 43.78125 315.6 
L 353.884511 315.6 
" style="fill:none;stroke:#000000;stroke-linecap:square;stroke-linejoin:miter;stroke-width:0.8;"/>
   </g>
   <g id="legend_1">
    <g id="patch_5">
     <path d="M 273.786073 73.9125 
L 346.884511 73.9125 
Q 348.884511 73.9125 348.884511 71.9125 
L 348.884511 14.2 
Q 348.884511 12.2 346.884511 12.2 
L 273.786073 12.2 
Q 271.786073 12.2 271.786073 14.2 
L 271.786073 71.9125 
Q 271.786073 73.9125 273.786073 73.9125 
z
" style="fill:#ffffff;opacity:0.8;stroke:#cccccc;stroke-linejoin:miter;"/>
    </g>
    <g id="text_17">
     <!-- resourceType -->
     <g transform="translate(277.231386 23.798438)scale(0.1 -0.1)">
      <defs>
       <path d="M 41.109375 46.296875 
Q 39.59375 47.171875 37.8125 47.578125 
Q 36.03125 48 33.890625 48 
Q 26.265625 48 22.1875 43.046875 
Q 18.109375 38.09375 18.109375 28.8125 
L 18.109375 0 
L 9.078125 0 
L 9.078125 54.6875 
L 18.109375 54.6875 
L 18.109375 46.1875 
Q 20.953125 51.171875 25.484375 53.578125 
Q 30.03125 56 36.53125 56 
Q 37.453125 56 38.578125 55.875 
Q 39.703125 55.765625 41.0625 55.515625 
z
" id="DejaVuSans-114"/>
       <path d="M 44.28125 53.078125 
L 44.28125 44.578125 
Q 40.484375 46.53125 36.375 47.5 
Q 32.28125 48.484375 27.875 48.484375 
Q 21.1875 48.484375 17.84375 46.4375 
Q 14.5 44.390625 14.5 40.28125 
Q 14.5 37.15625 16.890625 35.375 
Q 19.28125 33.59375 26.515625 31.984375 
L 29.59375 31.296875 
Q 39.15625 29.25 43.1875 25.515625 
Q 47.21875 21.78125 47.21875 15.09375 
Q 47.21875 7.46875 41.1875 3.015625 
Q 35.15625 -1.421875 24.609375 -1.421875 
Q 20.21875 -1.421875 15.453125 -0.5625 
Q 10.6875 0.296875 5.421875 2 
L 5.421875 11.28125 
Q 10.40625 8.6875 15.234375 7.390625 
Q 20.0625 6.109375 24.8125 6.109375 
Q 31.15625 6.109375 34.5625 8.28125 
Q 37.984375 10.453125 37.984375 14.40625 
Q 37.984375 18.0625 35.515625 20.015625 
Q 33.0625 21.96875 24.703125 23.78125 
L 21.578125 24.515625 
Q 13.234375 26.265625 9.515625 29.90625 
Q 5.8125 33.546875 5.8125 39.890625 
Q 5.8125 47.609375 11.28125 51.796875 
Q 16.75 56 26.8125 56 
Q 31.78125 56 36.171875 55.265625 
Q 40.578125 54.546875 44.28125 53.078125 
z
" id="DejaVuSans-115"/>
       <path d="M 30.609375 48.390625 
Q 23.390625 48.390625 19.1875 42.75 
Q 14.984375 37.109375 14.984375 27.296875 
Q 14.984375 17.484375 19.15625 11.84375 
Q 23.34375 6.203125 30.609375 6.203125 
Q 37.796875 6.203125 41.984375 11.859375 
Q 46.1875 17.53125 46.1875 27.296875 
Q 46.1875 37.015625 41.984375 42.703125 
Q 37.796875 48.390625 30.609375 48.390625 
z
M 30.609375 56 
Q 42.328125 56 49.015625 48.375 
Q 55.71875 40.765625 55.71875 27.296875 
Q 55.71875 13.875 49.015625 6.21875 
Q 42.328125 -1.421875 30.609375 -1.421875 
Q 18.84375 -1.421875 12.171875 6.21875 
Q 5.515625 13.875 5.515625 27.296875 
Q 5.515625 40.765625 12.171875 48.375 
Q 18.84375 56 30.609375 56 
z
" id="DejaVuSans-111"/>
       <path d="M 8.5 21.578125 
L 8.5 54.6875 
L 17.484375 54.6875 
L 17.484375 21.921875 
Q 17.484375 14.15625 20.5 10.265625 
Q 23.53125 6.390625 29.59375 6.390625 
Q 36.859375 6.390625 41.078125 11.03125 
Q 45.3125 15.671875 45.3125 23.6875 
L 45.3125 54.6875 
L 54.296875 54.6875 
L 54.296875 0 
L 45.3125 0 
L 45.3125 8.40625 
Q 42.046875 3.421875 37.71875 1 
Q 33.40625 -1.421875 27.6875 -1.421875 
Q 18.265625 -1.421875 13.375 4.4375 
Q 8.5 10.296875 8.5 21.578125 
z
M 31.109375 56 
z
" id="DejaVuSans-117"/>
       <path d="M -0.296875 72.90625 
L 61.375 72.90625 
L 61.375 64.59375 
L 35.5 64.59375 
L 35.5 0 
L 25.59375 0 
L 25.59375 64.59375 
L -0.296875 64.59375 
z
" id="DejaVuSans-84"/>
      </defs>
      <use xlink:href="#DejaVuSans-114"/>
      <use x="38.863281" xlink:href="#DejaVuSans-101"/>
      <use x="100.386719" xlink:href="#DejaVuSans-115"/>
      <use x="152.486328" xlink:href="#DejaVuSans-111"/>
      <use x="213.667969" xlink:href="#DejaVuSans-117"/>
      <use x="277.046875" xlink:href="#DejaVuSans-114"/>
      <use x="315.910156" xlink:href="#DejaVuSans-99"/>
      <use x="370.890625" xlink:href="#DejaVuSans-101"/>
      <use x="432.414062" xlink:href="#DejaVuSans-84"/>
      <use x="477.873047" xlink:href="#DejaVuSans-121"/>
      <use x="537.052734" xlink:href="#DejaVuSans-112"/>
      <use x="600.529297" xlink:href="#DejaVuSans-101"/>
     </g>
    </g>
    <g id="line2d_17">
     <path d="M 275.786073 34.976563 
L 295.786073 34.976563 
" style="fill:none;stroke:#1f77b4;stroke-linecap:square;stroke-width:2.25;"/>
    </g>
    <g id="line2d_18"/>
    <g id="text_18">
     <!-- medium -->
     <g transform="translate(303.786073 38.476563)scale(0.1 -0.1)">
      <defs>
       <path d="M 45.40625 46.390625 
L 45.40625 75.984375 
L 54.390625 75.984375 
L 54.390625 0 
L 45.40625 0 
L 45.40625 8.203125 
Q 42.578125 3.328125 38.25 0.953125 
Q 33.9375 -1.421875 27.875 -1.421875 
Q 17.96875 -1.421875 11.734375 6.484375 
Q 5.515625 14.40625 5.515625 27.296875 
Q 5.515625 40.1875 11.734375 48.09375 
Q 17.96875 56 27.875 56 
Q 33.9375 56 38.25 53.625 
Q 42.578125 51.265625 45.40625 46.390625 
z
M 14.796875 27.296875 
Q 14.796875 17.390625 18.875 11.75 
Q 22.953125 6.109375 30.078125 6.109375 
Q 37.203125 6.109375 41.296875 11.75 
Q 45.40625 17.390625 45.40625 27.296875 
Q 45.40625 37.203125 41.296875 42.84375 
Q 37.203125 48.484375 30.078125 48.484375 
Q 22.953125 48.484375 18.875 42.84375 
Q 14.796875 37.203125 14.796875 27.296875 
z
" id="DejaVuSans-100"/>
      </defs>
      <use xlink:href="#DejaVuSans-109"/>
      <use x="97.412109" xlink:href="#DejaVuSans-101"/>
      <use x="158.935547" xlink:href="#DejaVuSans-100"/>
      <use x="222.412109" xlink:href="#DejaVuSans-105"/>
      <use x="250.195312" xlink:href="#DejaVuSans-117"/>
      <use x="313.574219" xlink:href="#DejaVuSans-109"/>
     </g>
    </g>
    <g id="line2d_19">
     <path d="M 275.786073 49.654688 
L 295.786073 49.654688 
" style="fill:none;stroke:#ff7f0e;stroke-linecap:square;stroke-width:2.25;"/>
    </g>
    <g id="line2d_20"/>
    <g id="text_19">
     <!-- large -->
     <g transform="translate(303.786073 53.154688)scale(0.1 -0.1)">
      <defs>
       <path d="M 9.421875 75.984375 
L 18.40625 75.984375 
L 18.40625 0 
L 9.421875 0 
z
" id="DejaVuSans-108"/>
       <path d="M 45.40625 27.984375 
Q 45.40625 37.75 41.375 43.109375 
Q 37.359375 48.484375 30.078125 48.484375 
Q 22.859375 48.484375 18.828125 43.109375 
Q 14.796875 37.75 14.796875 27.984375 
Q 14.796875 18.265625 18.828125 12.890625 
Q 22.859375 7.515625 30.078125 7.515625 
Q 37.359375 7.515625 41.375 12.890625 
Q 45.40625 18.265625 45.40625 27.984375 
z
M 54.390625 6.78125 
Q 54.390625 -7.171875 48.1875 -13.984375 
Q 42 -20.796875 29.203125 -20.796875 
Q 24.46875 -20.796875 20.265625 -20.09375 
Q 16.0625 -19.390625 12.109375 -17.921875 
L 12.109375 -9.1875 
Q 16.0625 -11.328125 19.921875 -12.34375 
Q 23.78125 -13.375 27.78125 -13.375 
Q 36.625 -13.375 41.015625 -8.765625 
Q 45.40625 -4.15625 45.40625 5.171875 
L 45.40625 9.625 
Q 42.625 4.78125 38.28125 2.390625 
Q 33.9375 0 27.875 0 
Q 17.828125 0 11.671875 7.65625 
Q 5.515625 15.328125 5.515625 27.984375 
Q 5.515625 40.671875 11.671875 48.328125 
Q 17.828125 56 27.875 56 
Q 33.9375 56 38.28125 53.609375 
Q 42.625 51.21875 45.40625 46.390625 
L 45.40625 54.6875 
L 54.390625 54.6875 
z
" id="DejaVuSans-103"/>
      </defs>
      <use xlink:href="#DejaVuSans-108"/>
      <use x="27.783203" xlink:href="#DejaVuSans-97"/>
      <use x="89.0625" xlink:href="#DejaVuSans-114"/>
      <use x="128.425781" xlink:href="#DejaVuSans-103"/>
      <use x="191.902344" xlink:href="#DejaVuSans-101"/>
     </g>
    </g>
    <g id="line2d_21">
     <path d="M 275.786073 64.332813 
L 295.786073 64.332813 
" style="fill:none;stroke:#2ca02c;stroke-linecap:square;stroke-width:2.25;"/>
    </g>
    <g id="line2d_22"/>
    <g id="text_20">
     <!-- small -->
     <g transform="translate(303.786073 67.832813)scale(0.1 -0.1)">
      <use xlink:href="#DejaVuSans-115"/>
      <use x="52.099609" xlink:href="#DejaVuSans-109"/>
      <use x="149.511719" xlink:href="#DejaVuSans-97"/>
      <use x="210.791016" xlink:href="#DejaVuSans-108"/>
      <use x="238.574219" xlink:href="#DejaVuSans-108"/>
     </g>
    </g>
   </g>
  </g>
 </g>
 <defs>
  <clipPath id="pfeba8e4bb3">
   <rect height="308.4" width="310.103261" x="43.78125" y="7.2"/>
  </clipPath>
 </defs>
</svg>
