<?xml version="1.0" encoding="utf-8" standalone="no"?>
<!DOCTYPE svg PUBLIC "-//W3C//DTD SVG 1.1//EN"
  "http://www.w3.org/Graphics/SVG/1.1/DTD/svg11.dtd">
<!-- Created with matplotlib (https://matplotlib.org/) -->
<svg height="353.15625pt" version="1.1" viewBox="0 0 366.59068 353.15625" width="366.59068pt" xmlns="http://www.w3.org/2000/svg" xmlns:xlink="http://www.w3.org/1999/xlink">
 <metadata>
  <rdf:RDF xmlns:cc="http://creativecommons.org/ns#" xmlns:dc="http://purl.org/dc/elements/1.1/" xmlns:rdf="http://www.w3.org/1999/02/22-rdf-syntax-ns#">
   <cc:Work>
    <dc:type rdf:resource="http://purl.org/dc/dcmitype/StillImage"/>
    <dc:date>2021-01-18T19:23:35.472015</dc:date>
    <dc:format>image/svg+xml</dc:format>
    <dc:creator>
     <cc:Agent>
      <dc:title>Matplotlib v3.3.3, https://matplotlib.org/</dc:title>
     </cc:Agent>
    </dc:creator>
   </cc:Work>
  </rdf:RDF>
 </metadata>
 <defs>
  <style type="text/css">*{stroke-linecap:butt;stroke-linejoin:round;}</style>
 </defs>
 <g id="figure_1">
  <g id="patch_1">
   <path d="M 0 353.15625 
L 366.59068 353.15625 
L 366.59068 0 
L 0 0 
z
" style="fill:none;"/>
  </g>
  <g id="axes_1">
   <g id="patch_2">
    <path d="M 40.603125 315.6 
L 354.081386 315.6 
L 354.081386 7.2 
L 40.603125 7.2 
z
" style="fill:#ffffff;"/>
   </g>
   <g id="PolyCollection_1">
    <path clip-path="url(#pd6c239bd61)" d="M 40.603125 190.183308 
L 40.603125 199.665907 
L 43.769414 199.665907 
L 46.935702 199.665907 
L 50.101991 199.665907 
L 53.268279 199.665906 
L 56.434567 199.665906 
L 59.600856 199.665906 
L 62.767144 199.665906 
L 65.933433 199.665905 
L 69.099721 199.665905 
L 72.26601 199.665905 
L 75.432298 199.665905 
L 78.598587 199.665904 
L 81.764875 199.665904 
L 84.931164 199.665904 
L 88.097452 199.665904 
L 91.26374 199.665903 
L 94.430029 199.665903 
L 97.596318 199.665903 
L 100.762606 199.665903 
L 103.928894 199.665902 
L 107.095183 199.665902 
L 110.261471 199.665902 
L 113.427759 199.665902 
L 116.594048 199.665901 
L 119.760337 199.665901 
L 122.926625 199.665901 
L 126.092913 199.665901 
L 129.259202 199.6659 
L 132.42549 199.6659 
L 135.591779 199.6659 
L 138.758067 199.665899 
L 141.924356 199.665899 
L 145.090644 199.665899 
L 148.256932 199.665899 
L 151.423221 199.665898 
L 154.589509 199.665898 
L 157.755798 199.665898 
L 160.922086 199.665898 
L 164.088375 199.665897 
L 167.254663 199.665897 
L 170.420952 199.665897 
L 173.58724 199.665897 
L 176.753529 199.665896 
L 179.919817 199.665896 
L 183.086105 199.665896 
L 186.252394 199.665896 
L 189.418683 199.665895 
L 192.584971 199.665895 
L 195.751259 199.665895 
L 198.917548 199.665895 
L 202.083836 199.665894 
L 205.250124 199.665894 
L 208.416413 199.665894 
L 211.582702 199.665894 
L 214.74899 199.665893 
L 217.915278 199.665893 
L 221.081567 199.665893 
L 224.247855 199.665893 
L 227.414144 199.665892 
L 230.580432 199.665892 
L 233.746721 199.665892 
L 236.913009 199.665891 
L 240.079298 199.665891 
L 243.245586 199.665891 
L 246.411875 199.665891 
L 249.578163 199.66589 
L 252.744451 199.66589 
L 255.91074 199.66589 
L 259.077028 199.66589 
L 262.243317 199.665889 
L 265.409605 199.665889 
L 268.575894 199.665889 
L 271.742182 199.665889 
L 274.90847 199.665888 
L 278.074759 199.665888 
L 281.241048 199.665888 
L 284.407336 199.665888 
L 287.573624 199.665887 
L 290.739913 199.665887 
L 293.906201 199.665887 
L 297.07249 199.665887 
L 300.238778 199.665886 
L 303.405067 199.665886 
L 306.571355 199.665886 
L 309.737644 199.665886 
L 312.903932 199.665885 
L 316.07022 199.665885 
L 319.236509 199.665885 
L 322.402797 199.665885 
L 325.569086 199.665884 
L 328.735374 199.665884 
L 331.901663 199.665884 
L 335.067951 199.665883 
L 338.23424 199.665883 
L 341.400528 199.665883 
L 344.566817 199.665883 
L 347.733105 199.665882 
L 350.899393 199.665882 
L 354.065682 199.665882 
L 354.065682 190.18328 
L 354.065682 190.18328 
L 350.899393 190.183281 
L 347.733105 190.183281 
L 344.566817 190.183281 
L 341.400528 190.183282 
L 338.23424 190.183282 
L 335.067951 190.183282 
L 331.901663 190.183282 
L 328.735374 190.183283 
L 325.569086 190.183283 
L 322.402797 190.183283 
L 319.236509 190.183283 
L 316.07022 190.183284 
L 312.903932 190.183284 
L 309.737644 190.183284 
L 306.571355 190.183285 
L 303.405067 190.183285 
L 300.238778 190.183285 
L 297.07249 190.183285 
L 293.906201 190.183286 
L 290.739913 190.183286 
L 287.573624 190.183286 
L 284.407336 190.183287 
L 281.241048 190.183287 
L 278.074759 190.183287 
L 274.90847 190.183287 
L 271.742182 190.183288 
L 268.575894 190.183288 
L 265.409605 190.183288 
L 262.243317 190.183288 
L 259.077028 190.183289 
L 255.91074 190.183289 
L 252.744451 190.183289 
L 249.578163 190.18329 
L 246.411875 190.18329 
L 243.245586 190.18329 
L 240.079298 190.18329 
L 236.913009 190.183291 
L 233.746721 190.183291 
L 230.580432 190.183291 
L 227.414144 190.183291 
L 224.247855 190.183292 
L 221.081567 190.183292 
L 217.915278 190.183292 
L 214.74899 190.183293 
L 211.582702 190.183293 
L 208.416413 190.183293 
L 205.250124 190.183293 
L 202.083836 190.183294 
L 198.917548 190.183294 
L 195.751259 190.183294 
L 192.584971 190.183295 
L 189.418683 190.183295 
L 186.252394 190.183295 
L 183.086105 190.183295 
L 179.919817 190.183296 
L 176.753529 190.183296 
L 173.58724 190.183296 
L 170.420952 190.183296 
L 167.254663 190.183297 
L 164.088375 190.183297 
L 160.922086 190.183297 
L 157.755798 190.183298 
L 154.589509 190.183298 
L 151.423221 190.183298 
L 148.256932 190.183298 
L 145.090644 190.183299 
L 141.924356 190.183299 
L 138.758067 190.183299 
L 135.591779 190.183299 
L 132.42549 190.1833 
L 129.259202 190.1833 
L 126.092913 190.1833 
L 122.926625 190.183301 
L 119.760337 190.183301 
L 116.594048 190.183301 
L 113.427759 190.183301 
L 110.261471 190.183302 
L 107.095183 190.183302 
L 103.928894 190.183302 
L 100.762606 190.183303 
L 97.596318 190.183303 
L 94.430029 190.183303 
L 91.26374 190.183303 
L 88.097452 190.183304 
L 84.931164 190.183304 
L 81.764875 190.183304 
L 78.598587 190.183304 
L 75.432298 190.183305 
L 72.26601 190.183305 
L 69.099721 190.183305 
L 65.933433 190.183306 
L 62.767144 190.183306 
L 59.600856 190.183306 
L 56.434567 190.183306 
L 53.268279 190.183307 
L 50.101991 190.183307 
L 46.935702 190.183307 
L 43.769414 190.183307 
L 40.603125 190.183308 
z
" style="fill:#1f77b4;fill-opacity:0.15;"/>
   </g>
   <g id="PolyCollection_2">
    <path clip-path="url(#pd6c239bd61)" d="M 40.603125 21.218241 
L 40.603125 35.503231 
L 43.769297 35.50323 
L 46.935469 35.503229 
L 50.101641 35.503229 
L 53.267814 35.503228 
L 56.433986 35.503228 
L 59.600158 35.503227 
L 62.76633 35.503227 
L 65.932502 35.503226 
L 69.098674 35.503226 
L 72.264847 35.503225 
L 75.431019 35.503224 
L 78.597191 35.503224 
L 81.763363 35.503223 
L 84.929535 35.503223 
L 88.095707 35.503222 
L 91.261879 35.503222 
L 94.428051 35.503221 
L 97.594223 35.50322 
L 100.760396 35.50322 
L 103.926568 35.503219 
L 107.09274 35.503219 
L 110.258912 35.503218 
L 113.425084 35.503218 
L 116.591256 35.503217 
L 119.757428 35.503216 
L 122.9236 35.503216 
L 126.089773 35.503215 
L 129.255944 35.503215 
L 132.422117 35.503214 
L 135.588289 35.503214 
L 138.754461 35.503213 
L 141.920633 35.503213 
L 145.086805 35.503212 
L 148.252977 35.503211 
L 151.41915 35.503211 
L 154.585322 35.50321 
L 157.751494 35.50321 
L 160.917666 35.503209 
L 164.083838 35.503209 
L 167.25001 35.503208 
L 170.416182 35.503207 
L 173.582354 35.503207 
L 176.748526 35.503206 
L 179.914699 35.503206 
L 183.080871 35.503205 
L 186.247043 35.503205 
L 189.413215 35.503204 
L 192.579387 35.503203 
L 195.745559 35.503203 
L 198.911731 35.503202 
L 202.077904 35.503202 
L 205.244076 35.503201 
L 208.410248 35.503201 
L 211.57642 35.5032 
L 214.742592 35.503199 
L 217.908764 35.503199 
L 221.074936 35.503198 
L 224.241108 35.503198 
L 227.40728 35.503197 
L 230.573452 35.503197 
L 233.739625 35.503196 
L 236.905797 35.503196 
L 240.071969 35.503195 
L 243.238141 35.503194 
L 246.404313 35.503194 
L 249.570485 35.503193 
L 252.736658 35.503193 
L 255.90283 35.503192 
L 259.069002 35.503192 
L 262.235174 35.503191 
L 265.401346 35.50319 
L 268.567518 35.50319 
L 271.73369 35.503189 
L 274.899862 35.503189 
L 278.066035 35.503188 
L 281.232207 35.503188 
L 284.398379 35.503187 
L 287.564551 35.503186 
L 290.730723 35.503186 
L 293.896895 35.503185 
L 297.063067 35.503185 
L 300.229239 35.503184 
L 303.395411 35.503184 
L 306.561584 35.503183 
L 309.727756 35.503182 
L 312.893928 35.503182 
L 316.0601 35.503181 
L 319.226272 35.503181 
L 322.392444 35.50318 
L 325.558616 35.50318 
L 328.724788 35.503179 
L 331.890961 35.503179 
L 335.057133 35.503178 
L 338.223305 35.503177 
L 341.389477 35.503177 
L 344.555649 35.503176 
L 347.721821 35.503176 
L 350.887994 35.503175 
L 354.054166 35.503175 
L 354.054166 21.218182 
L 354.054166 21.218182 
L 350.887994 21.218182 
L 347.721821 21.218183 
L 344.555649 21.218184 
L 341.389477 21.218184 
L 338.223305 21.218185 
L 335.057133 21.218185 
L 331.890961 21.218186 
L 328.724788 21.218187 
L 325.558616 21.218187 
L 322.392444 21.218188 
L 319.226272 21.218188 
L 316.0601 21.218189 
L 312.893928 21.21819 
L 309.727756 21.21819 
L 306.561584 21.218191 
L 303.395411 21.218191 
L 300.229239 21.218192 
L 297.063067 21.218192 
L 293.896895 21.218193 
L 290.730723 21.218194 
L 287.564551 21.218194 
L 284.398379 21.218195 
L 281.232207 21.218195 
L 278.066035 21.218196 
L 274.899862 21.218197 
L 271.73369 21.218197 
L 268.567518 21.218198 
L 265.401346 21.218198 
L 262.235174 21.218199 
L 259.069002 21.2182 
L 255.90283 21.2182 
L 252.736658 21.218201 
L 249.570485 21.218201 
L 246.404313 21.218202 
L 243.238141 21.218203 
L 240.071969 21.218203 
L 236.905797 21.218204 
L 233.739625 21.218204 
L 230.573452 21.218205 
L 227.40728 21.218206 
L 224.241108 21.218206 
L 221.074936 21.218207 
L 217.908764 21.218207 
L 214.742592 21.218208 
L 211.57642 21.218209 
L 208.410248 21.218209 
L 205.244076 21.21821 
L 202.077904 21.21821 
L 198.911731 21.218211 
L 195.745559 21.218211 
L 192.579387 21.218212 
L 189.413215 21.218213 
L 186.247043 21.218213 
L 183.080871 21.218214 
L 179.914699 21.218214 
L 176.748526 21.218215 
L 173.582354 21.218216 
L 170.416182 21.218216 
L 167.25001 21.218217 
L 164.083838 21.218217 
L 160.917666 21.218218 
L 157.751494 21.218219 
L 154.585322 21.218219 
L 151.41915 21.21822 
L 148.252977 21.21822 
L 145.086805 21.218221 
L 141.920633 21.218222 
L 138.754461 21.218222 
L 135.588289 21.218223 
L 132.422117 21.218223 
L 129.255944 21.218224 
L 126.089773 21.218225 
L 122.9236 21.218225 
L 119.757428 21.218226 
L 116.591256 21.218226 
L 113.425084 21.218227 
L 110.258912 21.218227 
L 107.09274 21.218228 
L 103.926568 21.218229 
L 100.760396 21.218229 
L 97.594223 21.21823 
L 94.428051 21.21823 
L 91.261879 21.218231 
L 88.095707 21.218232 
L 84.929535 21.218232 
L 81.763363 21.218233 
L 78.597191 21.218233 
L 75.431019 21.218234 
L 72.264847 21.218235 
L 69.098674 21.218235 
L 65.932502 21.218236 
L 62.76633 21.218236 
L 59.600158 21.218237 
L 56.433986 21.218238 
L 53.267814 21.218238 
L 50.101641 21.218239 
L 46.935469 21.218239 
L 43.769297 21.21824 
L 40.603125 21.218241 
z
" style="fill:#ff7f0e;fill-opacity:0.15;"/>
   </g>
   <g id="PolyCollection_3">
    <path clip-path="url(#pd6c239bd61)" d="M 41.042842 297.092713 
L 41.042842 301.581818 
L 44.204847 301.581818 
L 47.366853 301.581818 
L 50.528858 301.581818 
L 53.690864 301.581818 
L 56.85287 301.581818 
L 60.014875 301.581818 
L 63.176881 301.581818 
L 66.338886 301.581818 
L 69.500891 301.581818 
L 72.662897 301.581818 
L 75.824902 301.581817 
L 78.986908 301.581817 
L 82.148913 301.581817 
L 85.310919 301.581817 
L 88.472924 301.581817 
L 91.63493 301.581817 
L 94.796935 301.581817 
L 97.958941 301.581817 
L 101.120946 301.581817 
L 104.282952 301.581817 
L 107.444957 301.581817 
L 110.606963 301.581817 
L 113.768968 301.581817 
L 116.930974 301.581817 
L 120.092979 301.581817 
L 123.254985 301.581816 
L 126.41699 301.581816 
L 129.578996 301.581816 
L 132.741001 301.581816 
L 135.903007 301.581816 
L 139.065012 301.581816 
L 142.227018 301.581816 
L 145.389023 301.581816 
L 148.551029 301.581816 
L 151.713034 301.581816 
L 154.87504 301.581816 
L 158.037045 301.581816 
L 161.199051 301.581816 
L 164.361056 301.581816 
L 167.523062 301.581816 
L 170.685067 301.581815 
L 173.847073 301.581815 
L 177.009079 301.581815 
L 180.171084 301.581815 
L 183.333089 301.581815 
L 186.495095 301.581815 
L 189.6571 301.581815 
L 192.819106 301.581815 
L 195.981111 301.581815 
L 199.143117 301.581815 
L 202.305122 301.581815 
L 205.467128 301.581815 
L 208.629133 301.581815 
L 211.791139 301.581815 
L 214.953144 301.581815 
L 218.115149 301.581814 
L 221.277155 301.581814 
L 224.439161 301.581814 
L 227.601166 301.581814 
L 230.763172 301.581814 
L 233.925177 301.581814 
L 237.087183 301.581814 
L 240.249188 301.581814 
L 243.411194 301.581814 
L 246.573199 301.581814 
L 249.735205 301.581814 
L 252.89721 301.581814 
L 256.059216 301.581814 
L 259.221221 301.581814 
L 262.383227 301.581814 
L 265.545232 301.581813 
L 268.707238 301.581813 
L 271.869243 301.581813 
L 275.031249 301.581813 
L 278.193254 301.581813 
L 281.35526 301.581813 
L 284.517265 301.581813 
L 287.679271 301.581813 
L 290.841276 301.581813 
L 294.003282 301.581813 
L 297.165287 301.581813 
L 300.327292 301.581813 
L 303.489298 301.581813 
L 306.651304 301.581813 
L 309.813309 301.581813 
L 312.975315 301.581812 
L 316.13732 301.581812 
L 319.299326 301.581812 
L 322.461331 301.581812 
L 325.623337 301.581812 
L 328.785342 301.581812 
L 331.947347 301.581812 
L 335.109353 301.581812 
L 338.271358 301.581812 
L 341.433364 301.581812 
L 344.59537 301.581812 
L 347.757375 301.581812 
L 350.919381 301.581812 
L 354.081386 301.581812 
L 354.081386 297.092706 
L 354.081386 297.092706 
L 350.919381 297.092706 
L 347.757375 297.092706 
L 344.59537 297.092706 
L 341.433364 297.092706 
L 338.271358 297.092706 
L 335.109353 297.092706 
L 331.947347 297.092706 
L 328.785342 297.092706 
L 325.623337 297.092706 
L 322.461331 297.092706 
L 319.299326 297.092707 
L 316.13732 297.092707 
L 312.975315 297.092707 
L 309.813309 297.092707 
L 306.651304 297.092707 
L 303.489298 297.092707 
L 300.327292 297.092707 
L 297.165287 297.092707 
L 294.003282 297.092707 
L 290.841276 297.092707 
L 287.679271 297.092707 
L 284.517265 297.092707 
L 281.35526 297.092707 
L 278.193254 297.092707 
L 275.031249 297.092708 
L 271.869243 297.092708 
L 268.707238 297.092708 
L 265.545232 297.092708 
L 262.383227 297.092708 
L 259.221221 297.092708 
L 256.059216 297.092708 
L 252.89721 297.092708 
L 249.735205 297.092708 
L 246.573199 297.092708 
L 243.411194 297.092708 
L 240.249188 297.092708 
L 237.087183 297.092708 
L 233.925177 297.092709 
L 230.763172 297.092709 
L 227.601166 297.092709 
L 224.439161 297.092709 
L 221.277155 297.092709 
L 218.115149 297.092709 
L 214.953144 297.092709 
L 211.791139 297.092709 
L 208.629133 297.092709 
L 205.467128 297.092709 
L 202.305122 297.092709 
L 199.143117 297.092709 
L 195.981111 297.092709 
L 192.819106 297.09271 
L 189.6571 297.09271 
L 186.495095 297.09271 
L 183.333089 297.09271 
L 180.171084 297.09271 
L 177.009079 297.09271 
L 173.847073 297.09271 
L 170.685067 297.09271 
L 167.523062 297.09271 
L 164.361056 297.09271 
L 161.199051 297.09271 
L 158.037045 297.09271 
L 154.87504 297.09271 
L 151.713034 297.09271 
L 148.551029 297.092711 
L 145.389023 297.092711 
L 142.227018 297.092711 
L 139.065012 297.092711 
L 135.903007 297.092711 
L 132.741001 297.092711 
L 129.578996 297.092711 
L 126.41699 297.092711 
L 123.254985 297.092711 
L 120.092979 297.092711 
L 116.930974 297.092711 
L 113.768968 297.092711 
L 110.606963 297.092711 
L 107.444957 297.092712 
L 104.282952 297.092712 
L 101.120946 297.092712 
L 97.958941 297.092712 
L 94.796935 297.092712 
L 91.63493 297.092712 
L 88.472924 297.092712 
L 85.310919 297.092712 
L 82.148913 297.092712 
L 78.986908 297.092712 
L 75.824902 297.092712 
L 72.662897 297.092712 
L 69.500891 297.092712 
L 66.338886 297.092713 
L 63.176881 297.092713 
L 60.014875 297.092713 
L 56.85287 297.092713 
L 53.690864 297.092713 
L 50.528858 297.092713 
L 47.366853 297.092713 
L 44.204847 297.092713 
L 41.042842 297.092713 
z
" style="fill:#2ca02c;fill-opacity:0.15;"/>
   </g>
   <g id="matplotlib.axis_1">
    <g id="xtick_1">
     <g id="line2d_1">
      <defs>
       <path d="M 0 0 
L 0 3.5 
" id="m4d3aef6a0a" style="stroke:#000000;stroke-width:0.8;"/>
      </defs>
      <g>
       <use style="stroke:#000000;stroke-width:0.8;" x="75.385767" xlink:href="#m4d3aef6a0a" y="315.6"/>
      </g>
     </g>
     <g id="text_1">
      <!-- 2850000 -->
      <g transform="translate(53.117017 330.198437)scale(0.1 -0.1)">
       <defs>
        <path d="M 19.1875 8.296875 
L 53.609375 8.296875 
L 53.609375 0 
L 7.328125 0 
L 7.328125 8.296875 
Q 12.9375 14.109375 22.625 23.890625 
Q 32.328125 33.6875 34.8125 36.53125 
Q 39.546875 41.84375 41.421875 45.53125 
Q 43.3125 49.21875 43.3125 52.78125 
Q 43.3125 58.59375 39.234375 62.25 
Q 35.15625 65.921875 28.609375 65.921875 
Q 23.96875 65.921875 18.8125 64.3125 
Q 13.671875 62.703125 7.8125 59.421875 
L 7.8125 69.390625 
Q 13.765625 71.78125 18.9375 73 
Q 24.125 74.21875 28.421875 74.21875 
Q 39.75 74.21875 46.484375 68.546875 
Q 53.21875 62.890625 53.21875 53.421875 
Q 53.21875 48.921875 51.53125 44.890625 
Q 49.859375 40.875 45.40625 35.40625 
Q 44.1875 33.984375 37.640625 27.21875 
Q 31.109375 20.453125 19.1875 8.296875 
z
" id="DejaVuSans-50"/>
        <path d="M 31.78125 34.625 
Q 24.75 34.625 20.71875 30.859375 
Q 16.703125 27.09375 16.703125 20.515625 
Q 16.703125 13.921875 20.71875 10.15625 
Q 24.75 6.390625 31.78125 6.390625 
Q 38.8125 6.390625 42.859375 10.171875 
Q 46.921875 13.96875 46.921875 20.515625 
Q 46.921875 27.09375 42.890625 30.859375 
Q 38.875 34.625 31.78125 34.625 
z
M 21.921875 38.8125 
Q 15.578125 40.375 12.03125 44.71875 
Q 8.5 49.078125 8.5 55.328125 
Q 8.5 64.0625 14.71875 69.140625 
Q 20.953125 74.21875 31.78125 74.21875 
Q 42.671875 74.21875 48.875 69.140625 
Q 55.078125 64.0625 55.078125 55.328125 
Q 55.078125 49.078125 51.53125 44.71875 
Q 48 40.375 41.703125 38.8125 
Q 48.828125 37.15625 52.796875 32.3125 
Q 56.78125 27.484375 56.78125 20.515625 
Q 56.78125 9.90625 50.3125 4.234375 
Q 43.84375 -1.421875 31.78125 -1.421875 
Q 19.734375 -1.421875 13.25 4.234375 
Q 6.78125 9.90625 6.78125 20.515625 
Q 6.78125 27.484375 10.78125 32.3125 
Q 14.796875 37.15625 21.921875 38.8125 
z
M 18.3125 54.390625 
Q 18.3125 48.734375 21.84375 45.5625 
Q 25.390625 42.390625 31.78125 42.390625 
Q 38.140625 42.390625 41.71875 45.5625 
Q 45.3125 48.734375 45.3125 54.390625 
Q 45.3125 60.0625 41.71875 63.234375 
Q 38.140625 66.40625 31.78125 66.40625 
Q 25.390625 66.40625 21.84375 63.234375 
Q 18.3125 60.0625 18.3125 54.390625 
z
" id="DejaVuSans-56"/>
        <path d="M 10.796875 72.90625 
L 49.515625 72.90625 
L 49.515625 64.59375 
L 19.828125 64.59375 
L 19.828125 46.734375 
Q 21.96875 47.46875 24.109375 47.828125 
Q 26.265625 48.1875 28.421875 48.1875 
Q 40.625 48.1875 47.75 41.5 
Q 54.890625 34.8125 54.890625 23.390625 
Q 54.890625 11.625 47.5625 5.09375 
Q 40.234375 -1.421875 26.90625 -1.421875 
Q 22.3125 -1.421875 17.546875 -0.640625 
Q 12.796875 0.140625 7.71875 1.703125 
L 7.71875 11.625 
Q 12.109375 9.234375 16.796875 8.0625 
Q 21.484375 6.890625 26.703125 6.890625 
Q 35.15625 6.890625 40.078125 11.328125 
Q 45.015625 15.765625 45.015625 23.390625 
Q 45.015625 31 40.078125 35.4375 
Q 35.15625 39.890625 26.703125 39.890625 
Q 22.75 39.890625 18.8125 39.015625 
Q 14.890625 38.140625 10.796875 36.28125 
z
" id="DejaVuSans-53"/>
        <path d="M 31.78125 66.40625 
Q 24.171875 66.40625 20.328125 58.90625 
Q 16.5 51.421875 16.5 36.375 
Q 16.5 21.390625 20.328125 13.890625 
Q 24.171875 6.390625 31.78125 6.390625 
Q 39.453125 6.390625 43.28125 13.890625 
Q 47.125 21.390625 47.125 36.375 
Q 47.125 51.421875 43.28125 58.90625 
Q 39.453125 66.40625 31.78125 66.40625 
z
M 31.78125 74.21875 
Q 44.046875 74.21875 50.515625 64.515625 
Q 56.984375 54.828125 56.984375 36.375 
Q 56.984375 17.96875 50.515625 8.265625 
Q 44.046875 -1.421875 31.78125 -1.421875 
Q 19.53125 -1.421875 13.0625 8.265625 
Q 6.59375 17.96875 6.59375 36.375 
Q 6.59375 54.828125 13.0625 64.515625 
Q 19.53125 74.21875 31.78125 74.21875 
z
" id="DejaVuSans-48"/>
       </defs>
       <use xlink:href="#DejaVuSans-50"/>
       <use x="63.623047" xlink:href="#DejaVuSans-56"/>
       <use x="127.246094" xlink:href="#DejaVuSans-53"/>
       <use x="190.869141" xlink:href="#DejaVuSans-48"/>
       <use x="254.492188" xlink:href="#DejaVuSans-48"/>
       <use x="318.115234" xlink:href="#DejaVuSans-48"/>
       <use x="381.738281" xlink:href="#DejaVuSans-48"/>
      </g>
     </g>
    </g>
    <g id="xtick_2">
     <g id="line2d_2">
      <g>
       <use style="stroke:#000000;stroke-width:0.8;" x="127.733" xlink:href="#m4d3aef6a0a" y="315.6"/>
      </g>
     </g>
     <g id="text_2">
      <!-- 2900000 -->
      <g transform="translate(105.46425 330.198437)scale(0.1 -0.1)">
       <defs>
        <path d="M 10.984375 1.515625 
L 10.984375 10.5 
Q 14.703125 8.734375 18.5 7.8125 
Q 22.3125 6.890625 25.984375 6.890625 
Q 35.75 6.890625 40.890625 13.453125 
Q 46.046875 20.015625 46.78125 33.40625 
Q 43.953125 29.203125 39.59375 26.953125 
Q 35.25 24.703125 29.984375 24.703125 
Q 19.046875 24.703125 12.671875 31.3125 
Q 6.296875 37.9375 6.296875 49.421875 
Q 6.296875 60.640625 12.9375 67.421875 
Q 19.578125 74.21875 30.609375 74.21875 
Q 43.265625 74.21875 49.921875 64.515625 
Q 56.59375 54.828125 56.59375 36.375 
Q 56.59375 19.140625 48.40625 8.859375 
Q 40.234375 -1.421875 26.421875 -1.421875 
Q 22.703125 -1.421875 18.890625 -0.6875 
Q 15.09375 0.046875 10.984375 1.515625 
z
M 30.609375 32.421875 
Q 37.25 32.421875 41.125 36.953125 
Q 45.015625 41.5 45.015625 49.421875 
Q 45.015625 57.28125 41.125 61.84375 
Q 37.25 66.40625 30.609375 66.40625 
Q 23.96875 66.40625 20.09375 61.84375 
Q 16.21875 57.28125 16.21875 49.421875 
Q 16.21875 41.5 20.09375 36.953125 
Q 23.96875 32.421875 30.609375 32.421875 
z
" id="DejaVuSans-57"/>
       </defs>
       <use xlink:href="#DejaVuSans-50"/>
       <use x="63.623047" xlink:href="#DejaVuSans-57"/>
       <use x="127.246094" xlink:href="#DejaVuSans-48"/>
       <use x="190.869141" xlink:href="#DejaVuSans-48"/>
       <use x="254.492188" xlink:href="#DejaVuSans-48"/>
       <use x="318.115234" xlink:href="#DejaVuSans-48"/>
       <use x="381.738281" xlink:href="#DejaVuSans-48"/>
      </g>
     </g>
    </g>
    <g id="xtick_3">
     <g id="line2d_3">
      <g>
       <use style="stroke:#000000;stroke-width:0.8;" x="180.080232" xlink:href="#m4d3aef6a0a" y="315.6"/>
      </g>
     </g>
     <g id="text_3">
      <!-- 2950000 -->
      <g transform="translate(157.811482 330.198437)scale(0.1 -0.1)">
       <use xlink:href="#DejaVuSans-50"/>
       <use x="63.623047" xlink:href="#DejaVuSans-57"/>
       <use x="127.246094" xlink:href="#DejaVuSans-53"/>
       <use x="190.869141" xlink:href="#DejaVuSans-48"/>
       <use x="254.492188" xlink:href="#DejaVuSans-48"/>
       <use x="318.115234" xlink:href="#DejaVuSans-48"/>
       <use x="381.738281" xlink:href="#DejaVuSans-48"/>
      </g>
     </g>
    </g>
    <g id="xtick_4">
     <g id="line2d_4">
      <g>
       <use style="stroke:#000000;stroke-width:0.8;" x="232.427465" xlink:href="#m4d3aef6a0a" y="315.6"/>
      </g>
     </g>
     <g id="text_4">
      <!-- 3000000 -->
      <g transform="translate(210.158715 330.198437)scale(0.1 -0.1)">
       <defs>
        <path d="M 40.578125 39.3125 
Q 47.65625 37.796875 51.625 33 
Q 55.609375 28.21875 55.609375 21.1875 
Q 55.609375 10.40625 48.1875 4.484375 
Q 40.765625 -1.421875 27.09375 -1.421875 
Q 22.515625 -1.421875 17.65625 -0.515625 
Q 12.796875 0.390625 7.625 2.203125 
L 7.625 11.71875 
Q 11.71875 9.328125 16.59375 8.109375 
Q 21.484375 6.890625 26.8125 6.890625 
Q 36.078125 6.890625 40.9375 10.546875 
Q 45.796875 14.203125 45.796875 21.1875 
Q 45.796875 27.640625 41.28125 31.265625 
Q 36.765625 34.90625 28.71875 34.90625 
L 20.21875 34.90625 
L 20.21875 43.015625 
L 29.109375 43.015625 
Q 36.375 43.015625 40.234375 45.921875 
Q 44.09375 48.828125 44.09375 54.296875 
Q 44.09375 59.90625 40.109375 62.90625 
Q 36.140625 65.921875 28.71875 65.921875 
Q 24.65625 65.921875 20.015625 65.03125 
Q 15.375 64.15625 9.8125 62.3125 
L 9.8125 71.09375 
Q 15.4375 72.65625 20.34375 73.4375 
Q 25.25 74.21875 29.59375 74.21875 
Q 40.828125 74.21875 47.359375 69.109375 
Q 53.90625 64.015625 53.90625 55.328125 
Q 53.90625 49.265625 50.4375 45.09375 
Q 46.96875 40.921875 40.578125 39.3125 
z
" id="DejaVuSans-51"/>
       </defs>
       <use xlink:href="#DejaVuSans-51"/>
       <use x="63.623047" xlink:href="#DejaVuSans-48"/>
       <use x="127.246094" xlink:href="#DejaVuSans-48"/>
       <use x="190.869141" xlink:href="#DejaVuSans-48"/>
       <use x="254.492188" xlink:href="#DejaVuSans-48"/>
       <use x="318.115234" xlink:href="#DejaVuSans-48"/>
       <use x="381.738281" xlink:href="#DejaVuSans-48"/>
      </g>
     </g>
    </g>
    <g id="xtick_5">
     <g id="line2d_5">
      <g>
       <use style="stroke:#000000;stroke-width:0.8;" x="284.774697" xlink:href="#m4d3aef6a0a" y="315.6"/>
      </g>
     </g>
     <g id="text_5">
      <!-- 3050000 -->
      <g transform="translate(262.505947 330.198437)scale(0.1 -0.1)">
       <use xlink:href="#DejaVuSans-51"/>
       <use x="63.623047" xlink:href="#DejaVuSans-48"/>
       <use x="127.246094" xlink:href="#DejaVuSans-53"/>
       <use x="190.869141" xlink:href="#DejaVuSans-48"/>
       <use x="254.492188" xlink:href="#DejaVuSans-48"/>
       <use x="318.115234" xlink:href="#DejaVuSans-48"/>
       <use x="381.738281" xlink:href="#DejaVuSans-48"/>
      </g>
     </g>
    </g>
    <g id="xtick_6">
     <g id="line2d_6">
      <g>
       <use style="stroke:#000000;stroke-width:0.8;" x="337.12193" xlink:href="#m4d3aef6a0a" y="315.6"/>
      </g>
     </g>
     <g id="text_6">
      <!-- 3100000 -->
      <g transform="translate(314.85318 330.198437)scale(0.1 -0.1)">
       <defs>
        <path d="M 12.40625 8.296875 
L 28.515625 8.296875 
L 28.515625 63.921875 
L 10.984375 60.40625 
L 10.984375 69.390625 
L 28.421875 72.90625 
L 38.28125 72.90625 
L 38.28125 8.296875 
L 54.390625 8.296875 
L 54.390625 0 
L 12.40625 0 
z
" id="DejaVuSans-49"/>
       </defs>
       <use xlink:href="#DejaVuSans-51"/>
       <use x="63.623047" xlink:href="#DejaVuSans-49"/>
       <use x="127.246094" xlink:href="#DejaVuSans-48"/>
       <use x="190.869141" xlink:href="#DejaVuSans-48"/>
       <use x="254.492188" xlink:href="#DejaVuSans-48"/>
       <use x="318.115234" xlink:href="#DejaVuSans-48"/>
       <use x="381.738281" xlink:href="#DejaVuSans-48"/>
      </g>
     </g>
    </g>
    <g id="text_7">
     <!-- timeStamp -->
     <g transform="translate(169.803193 343.876562)scale(0.1 -0.1)">
      <defs>
       <path d="M 18.3125 70.21875 
L 18.3125 54.6875 
L 36.8125 54.6875 
L 36.8125 47.703125 
L 18.3125 47.703125 
L 18.3125 18.015625 
Q 18.3125 11.328125 20.140625 9.421875 
Q 21.96875 7.515625 27.59375 7.515625 
L 36.8125 7.515625 
L 36.8125 0 
L 27.59375 0 
Q 17.1875 0 13.234375 3.875 
Q 9.28125 7.765625 9.28125 18.015625 
L 9.28125 47.703125 
L 2.6875 47.703125 
L 2.6875 54.6875 
L 9.28125 54.6875 
L 9.28125 70.21875 
z
" id="DejaVuSans-116"/>
       <path d="M 9.421875 54.6875 
L 18.40625 54.6875 
L 18.40625 0 
L 9.421875 0 
z
M 9.421875 75.984375 
L 18.40625 75.984375 
L 18.40625 64.59375 
L 9.421875 64.59375 
z
" id="DejaVuSans-105"/>
       <path d="M 52 44.1875 
Q 55.375 50.25 60.0625 53.125 
Q 64.75 56 71.09375 56 
Q 79.640625 56 84.28125 50.015625 
Q 88.921875 44.046875 88.921875 33.015625 
L 88.921875 0 
L 79.890625 0 
L 79.890625 32.71875 
Q 79.890625 40.578125 77.09375 44.375 
Q 74.3125 48.1875 68.609375 48.1875 
Q 61.625 48.1875 57.5625 43.546875 
Q 53.515625 38.921875 53.515625 30.90625 
L 53.515625 0 
L 44.484375 0 
L 44.484375 32.71875 
Q 44.484375 40.625 41.703125 44.40625 
Q 38.921875 48.1875 33.109375 48.1875 
Q 26.21875 48.1875 22.15625 43.53125 
Q 18.109375 38.875 18.109375 30.90625 
L 18.109375 0 
L 9.078125 0 
L 9.078125 54.6875 
L 18.109375 54.6875 
L 18.109375 46.1875 
Q 21.1875 51.21875 25.484375 53.609375 
Q 29.78125 56 35.6875 56 
Q 41.65625 56 45.828125 52.96875 
Q 50 49.953125 52 44.1875 
z
" id="DejaVuSans-109"/>
       <path d="M 56.203125 29.59375 
L 56.203125 25.203125 
L 14.890625 25.203125 
Q 15.484375 15.921875 20.484375 11.0625 
Q 25.484375 6.203125 34.421875 6.203125 
Q 39.59375 6.203125 44.453125 7.46875 
Q 49.3125 8.734375 54.109375 11.28125 
L 54.109375 2.78125 
Q 49.265625 0.734375 44.1875 -0.34375 
Q 39.109375 -1.421875 33.890625 -1.421875 
Q 20.796875 -1.421875 13.15625 6.1875 
Q 5.515625 13.8125 5.515625 26.8125 
Q 5.515625 40.234375 12.765625 48.109375 
Q 20.015625 56 32.328125 56 
Q 43.359375 56 49.78125 48.890625 
Q 56.203125 41.796875 56.203125 29.59375 
z
M 47.21875 32.234375 
Q 47.125 39.59375 43.09375 43.984375 
Q 39.0625 48.390625 32.421875 48.390625 
Q 24.90625 48.390625 20.390625 44.140625 
Q 15.875 39.890625 15.1875 32.171875 
z
" id="DejaVuSans-101"/>
       <path d="M 53.515625 70.515625 
L 53.515625 60.890625 
Q 47.90625 63.578125 42.921875 64.890625 
Q 37.9375 66.21875 33.296875 66.21875 
Q 25.25 66.21875 20.875 63.09375 
Q 16.5 59.96875 16.5 54.203125 
Q 16.5 49.359375 19.40625 46.890625 
Q 22.3125 44.4375 30.421875 42.921875 
L 36.375 41.703125 
Q 47.40625 39.59375 52.65625 34.296875 
Q 57.90625 29 57.90625 20.125 
Q 57.90625 9.515625 50.796875 4.046875 
Q 43.703125 -1.421875 29.984375 -1.421875 
Q 24.8125 -1.421875 18.96875 -0.25 
Q 13.140625 0.921875 6.890625 3.21875 
L 6.890625 13.375 
Q 12.890625 10.015625 18.65625 8.296875 
Q 24.421875 6.59375 29.984375 6.59375 
Q 38.421875 6.59375 43.015625 9.90625 
Q 47.609375 13.234375 47.609375 19.390625 
Q 47.609375 24.75 44.3125 27.78125 
Q 41.015625 30.8125 33.5 32.328125 
L 27.484375 33.5 
Q 16.453125 35.6875 11.515625 40.375 
Q 6.59375 45.0625 6.59375 53.421875 
Q 6.59375 63.09375 13.40625 68.65625 
Q 20.21875 74.21875 32.171875 74.21875 
Q 37.3125 74.21875 42.625 73.28125 
Q 47.953125 72.359375 53.515625 70.515625 
z
" id="DejaVuSans-83"/>
       <path d="M 34.28125 27.484375 
Q 23.390625 27.484375 19.1875 25 
Q 14.984375 22.515625 14.984375 16.5 
Q 14.984375 11.71875 18.140625 8.90625 
Q 21.296875 6.109375 26.703125 6.109375 
Q 34.1875 6.109375 38.703125 11.40625 
Q 43.21875 16.703125 43.21875 25.484375 
L 43.21875 27.484375 
z
M 52.203125 31.203125 
L 52.203125 0 
L 43.21875 0 
L 43.21875 8.296875 
Q 40.140625 3.328125 35.546875 0.953125 
Q 30.953125 -1.421875 24.3125 -1.421875 
Q 15.921875 -1.421875 10.953125 3.296875 
Q 6 8.015625 6 15.921875 
Q 6 25.140625 12.171875 29.828125 
Q 18.359375 34.515625 30.609375 34.515625 
L 43.21875 34.515625 
L 43.21875 35.40625 
Q 43.21875 41.609375 39.140625 45 
Q 35.0625 48.390625 27.6875 48.390625 
Q 23 48.390625 18.546875 47.265625 
Q 14.109375 46.140625 10.015625 43.890625 
L 10.015625 52.203125 
Q 14.9375 54.109375 19.578125 55.046875 
Q 24.21875 56 28.609375 56 
Q 40.484375 56 46.34375 49.84375 
Q 52.203125 43.703125 52.203125 31.203125 
z
" id="DejaVuSans-97"/>
       <path d="M 18.109375 8.203125 
L 18.109375 -20.796875 
L 9.078125 -20.796875 
L 9.078125 54.6875 
L 18.109375 54.6875 
L 18.109375 46.390625 
Q 20.953125 51.265625 25.265625 53.625 
Q 29.59375 56 35.59375 56 
Q 45.5625 56 51.78125 48.09375 
Q 58.015625 40.1875 58.015625 27.296875 
Q 58.015625 14.40625 51.78125 6.484375 
Q 45.5625 -1.421875 35.59375 -1.421875 
Q 29.59375 -1.421875 25.265625 0.953125 
Q 20.953125 3.328125 18.109375 8.203125 
z
M 48.6875 27.296875 
Q 48.6875 37.203125 44.609375 42.84375 
Q 40.53125 48.484375 33.40625 48.484375 
Q 26.265625 48.484375 22.1875 42.84375 
Q 18.109375 37.203125 18.109375 27.296875 
Q 18.109375 17.390625 22.1875 11.75 
Q 26.265625 6.109375 33.40625 6.109375 
Q 40.53125 6.109375 44.609375 11.75 
Q 48.6875 17.390625 48.6875 27.296875 
z
" id="DejaVuSans-112"/>
      </defs>
      <use xlink:href="#DejaVuSans-116"/>
      <use x="39.208984" xlink:href="#DejaVuSans-105"/>
      <use x="66.992188" xlink:href="#DejaVuSans-109"/>
      <use x="164.404297" xlink:href="#DejaVuSans-101"/>
      <use x="225.927734" xlink:href="#DejaVuSans-83"/>
      <use x="289.404297" xlink:href="#DejaVuSans-116"/>
      <use x="328.613281" xlink:href="#DejaVuSans-97"/>
      <use x="389.892578" xlink:href="#DejaVuSans-109"/>
      <use x="487.304688" xlink:href="#DejaVuSans-112"/>
     </g>
    </g>
    <g id="text_8">
     <!-- +1.61062e12 -->
     <g transform="translate(285.470448 342.876562)scale(0.1 -0.1)">
      <defs>
       <path d="M 46 62.703125 
L 46 35.5 
L 73.1875 35.5 
L 73.1875 27.203125 
L 46 27.203125 
L 46 0 
L 37.796875 0 
L 37.796875 27.203125 
L 10.59375 27.203125 
L 10.59375 35.5 
L 37.796875 35.5 
L 37.796875 62.703125 
z
" id="DejaVuSans-43"/>
       <path d="M 10.6875 12.40625 
L 21 12.40625 
L 21 0 
L 10.6875 0 
z
" id="DejaVuSans-46"/>
       <path d="M 33.015625 40.375 
Q 26.375 40.375 22.484375 35.828125 
Q 18.609375 31.296875 18.609375 23.390625 
Q 18.609375 15.53125 22.484375 10.953125 
Q 26.375 6.390625 33.015625 6.390625 
Q 39.65625 6.390625 43.53125 10.953125 
Q 47.40625 15.53125 47.40625 23.390625 
Q 47.40625 31.296875 43.53125 35.828125 
Q 39.65625 40.375 33.015625 40.375 
z
M 52.59375 71.296875 
L 52.59375 62.3125 
Q 48.875 64.0625 45.09375 64.984375 
Q 41.3125 65.921875 37.59375 65.921875 
Q 27.828125 65.921875 22.671875 59.328125 
Q 17.53125 52.734375 16.796875 39.40625 
Q 19.671875 43.65625 24.015625 45.921875 
Q 28.375 48.1875 33.59375 48.1875 
Q 44.578125 48.1875 50.953125 41.515625 
Q 57.328125 34.859375 57.328125 23.390625 
Q 57.328125 12.15625 50.6875 5.359375 
Q 44.046875 -1.421875 33.015625 -1.421875 
Q 20.359375 -1.421875 13.671875 8.265625 
Q 6.984375 17.96875 6.984375 36.375 
Q 6.984375 53.65625 15.1875 63.9375 
Q 23.390625 74.21875 37.203125 74.21875 
Q 40.921875 74.21875 44.703125 73.484375 
Q 48.484375 72.75 52.59375 71.296875 
z
" id="DejaVuSans-54"/>
      </defs>
      <use xlink:href="#DejaVuSans-43"/>
      <use x="83.789062" xlink:href="#DejaVuSans-49"/>
      <use x="147.412109" xlink:href="#DejaVuSans-46"/>
      <use x="179.199219" xlink:href="#DejaVuSans-54"/>
      <use x="242.822266" xlink:href="#DejaVuSans-49"/>
      <use x="306.445312" xlink:href="#DejaVuSans-48"/>
      <use x="370.068359" xlink:href="#DejaVuSans-54"/>
      <use x="433.691406" xlink:href="#DejaVuSans-50"/>
      <use x="497.314453" xlink:href="#DejaVuSans-101"/>
      <use x="558.837891" xlink:href="#DejaVuSans-49"/>
      <use x="622.460938" xlink:href="#DejaVuSans-50"/>
     </g>
    </g>
   </g>
   <g id="matplotlib.axis_2">
    <g id="ytick_1">
     <g id="line2d_7">
      <defs>
       <path d="M 0 0 
L -3.5 0 
" id="m2592d28528" style="stroke:#000000;stroke-width:0.8;"/>
      </defs>
      <g>
       <use style="stroke:#000000;stroke-width:0.8;" x="40.603125" xlink:href="#m2592d28528" y="296.743181"/>
      </g>
     </g>
     <g id="text_9">
      <!-- 10 -->
      <g transform="translate(20.878125 300.5424)scale(0.1 -0.1)">
       <use xlink:href="#DejaVuSans-49"/>
       <use x="63.623047" xlink:href="#DejaVuSans-48"/>
      </g>
     </g>
    </g>
    <g id="ytick_2">
     <g id="line2d_8">
      <g>
       <use style="stroke:#000000;stroke-width:0.8;" x="40.603125" xlink:href="#m2592d28528" y="256.382442"/>
      </g>
     </g>
     <g id="text_10">
      <!-- 20 -->
      <g transform="translate(20.878125 260.181661)scale(0.1 -0.1)">
       <use xlink:href="#DejaVuSans-50"/>
       <use x="63.623047" xlink:href="#DejaVuSans-48"/>
      </g>
     </g>
    </g>
    <g id="ytick_3">
     <g id="line2d_9">
      <g>
       <use style="stroke:#000000;stroke-width:0.8;" x="40.603125" xlink:href="#m2592d28528" y="216.021704"/>
      </g>
     </g>
     <g id="text_11">
      <!-- 30 -->
      <g transform="translate(20.878125 219.820922)scale(0.1 -0.1)">
       <use xlink:href="#DejaVuSans-51"/>
       <use x="63.623047" xlink:href="#DejaVuSans-48"/>
      </g>
     </g>
    </g>
    <g id="ytick_4">
     <g id="line2d_10">
      <g>
       <use style="stroke:#000000;stroke-width:0.8;" x="40.603125" xlink:href="#m2592d28528" y="175.660965"/>
      </g>
     </g>
     <g id="text_12">
      <!-- 40 -->
      <g transform="translate(20.878125 179.460184)scale(0.1 -0.1)">
       <defs>
        <path d="M 37.796875 64.3125 
L 12.890625 25.390625 
L 37.796875 25.390625 
z
M 35.203125 72.90625 
L 47.609375 72.90625 
L 47.609375 25.390625 
L 58.015625 25.390625 
L 58.015625 17.1875 
L 47.609375 17.1875 
L 47.609375 0 
L 37.796875 0 
L 37.796875 17.1875 
L 4.890625 17.1875 
L 4.890625 26.703125 
z
" id="DejaVuSans-52"/>
       </defs>
       <use xlink:href="#DejaVuSans-52"/>
       <use x="63.623047" xlink:href="#DejaVuSans-48"/>
      </g>
     </g>
    </g>
    <g id="ytick_5">
     <g id="line2d_11">
      <g>
       <use style="stroke:#000000;stroke-width:0.8;" x="40.603125" xlink:href="#m2592d28528" y="135.300226"/>
      </g>
     </g>
     <g id="text_13">
      <!-- 50 -->
      <g transform="translate(20.878125 139.099445)scale(0.1 -0.1)">
       <use xlink:href="#DejaVuSans-53"/>
       <use x="63.623047" xlink:href="#DejaVuSans-48"/>
      </g>
     </g>
    </g>
    <g id="ytick_6">
     <g id="line2d_12">
      <g>
       <use style="stroke:#000000;stroke-width:0.8;" x="40.603125" xlink:href="#m2592d28528" y="94.939488"/>
      </g>
     </g>
     <g id="text_14">
      <!-- 60 -->
      <g transform="translate(20.878125 98.738706)scale(0.1 -0.1)">
       <use xlink:href="#DejaVuSans-54"/>
       <use x="63.623047" xlink:href="#DejaVuSans-48"/>
      </g>
     </g>
    </g>
    <g id="ytick_7">
     <g id="line2d_13">
      <g>
       <use style="stroke:#000000;stroke-width:0.8;" x="40.603125" xlink:href="#m2592d28528" y="54.578749"/>
      </g>
     </g>
     <g id="text_15">
      <!-- 70 -->
      <g transform="translate(20.878125 58.377968)scale(0.1 -0.1)">
       <defs>
        <path d="M 8.203125 72.90625 
L 55.078125 72.90625 
L 55.078125 68.703125 
L 28.609375 0 
L 18.3125 0 
L 43.21875 64.59375 
L 8.203125 64.59375 
z
" id="DejaVuSans-55"/>
       </defs>
       <use xlink:href="#DejaVuSans-55"/>
       <use x="63.623047" xlink:href="#DejaVuSans-48"/>
      </g>
     </g>
    </g>
    <g id="ytick_8">
     <g id="line2d_14">
      <g>
       <use style="stroke:#000000;stroke-width:0.8;" x="40.603125" xlink:href="#m2592d28528" y="14.21801"/>
      </g>
     </g>
     <g id="text_16">
      <!-- 80 -->
      <g transform="translate(20.878125 18.017229)scale(0.1 -0.1)">
       <use xlink:href="#DejaVuSans-56"/>
       <use x="63.623047" xlink:href="#DejaVuSans-48"/>
      </g>
     </g>
    </g>
    <g id="text_17">
     <!-- elapsed -->
     <g transform="translate(14.798438 180.959375)rotate(-90)scale(0.1 -0.1)">
      <defs>
       <path d="M 9.421875 75.984375 
L 18.40625 75.984375 
L 18.40625 0 
L 9.421875 0 
z
" id="DejaVuSans-108"/>
       <path d="M 44.28125 53.078125 
L 44.28125 44.578125 
Q 40.484375 46.53125 36.375 47.5 
Q 32.28125 48.484375 27.875 48.484375 
Q 21.1875 48.484375 17.84375 46.4375 
Q 14.5 44.390625 14.5 40.28125 
Q 14.5 37.15625 16.890625 35.375 
Q 19.28125 33.59375 26.515625 31.984375 
L 29.59375 31.296875 
Q 39.15625 29.25 43.1875 25.515625 
Q 47.21875 21.78125 47.21875 15.09375 
Q 47.21875 7.46875 41.1875 3.015625 
Q 35.15625 -1.421875 24.609375 -1.421875 
Q 20.21875 -1.421875 15.453125 -0.5625 
Q 10.6875 0.296875 5.421875 2 
L 5.421875 11.28125 
Q 10.40625 8.6875 15.234375 7.390625 
Q 20.0625 6.109375 24.8125 6.109375 
Q 31.15625 6.109375 34.5625 8.28125 
Q 37.984375 10.453125 37.984375 14.40625 
Q 37.984375 18.0625 35.515625 20.015625 
Q 33.0625 21.96875 24.703125 23.78125 
L 21.578125 24.515625 
Q 13.234375 26.265625 9.515625 29.90625 
Q 5.8125 33.546875 5.8125 39.890625 
Q 5.8125 47.609375 11.28125 51.796875 
Q 16.75 56 26.8125 56 
Q 31.78125 56 36.171875 55.265625 
Q 40.578125 54.546875 44.28125 53.078125 
z
" id="DejaVuSans-115"/>
       <path d="M 45.40625 46.390625 
L 45.40625 75.984375 
L 54.390625 75.984375 
L 54.390625 0 
L 45.40625 0 
L 45.40625 8.203125 
Q 42.578125 3.328125 38.25 0.953125 
Q 33.9375 -1.421875 27.875 -1.421875 
Q 17.96875 -1.421875 11.734375 6.484375 
Q 5.515625 14.40625 5.515625 27.296875 
Q 5.515625 40.1875 11.734375 48.09375 
Q 17.96875 56 27.875 56 
Q 33.9375 56 38.25 53.625 
Q 42.578125 51.265625 45.40625 46.390625 
z
M 14.796875 27.296875 
Q 14.796875 17.390625 18.875 11.75 
Q 22.953125 6.109375 30.078125 6.109375 
Q 37.203125 6.109375 41.296875 11.75 
Q 45.40625 17.390625 45.40625 27.296875 
Q 45.40625 37.203125 41.296875 42.84375 
Q 37.203125 48.484375 30.078125 48.484375 
Q 22.953125 48.484375 18.875 42.84375 
Q 14.796875 37.203125 14.796875 27.296875 
z
" id="DejaVuSans-100"/>
      </defs>
      <use xlink:href="#DejaVuSans-101"/>
      <use x="61.523438" xlink:href="#DejaVuSans-108"/>
      <use x="89.306641" xlink:href="#DejaVuSans-97"/>
      <use x="150.585938" xlink:href="#DejaVuSans-112"/>
      <use x="214.0625" xlink:href="#DejaVuSans-115"/>
      <use x="266.162109" xlink:href="#DejaVuSans-101"/>
      <use x="327.685547" xlink:href="#DejaVuSans-100"/>
     </g>
    </g>
   </g>
   <g id="line2d_15">
    <path clip-path="url(#pd6c239bd61)" d="M 40.603125 194.809243 
L 43.769414 194.809243 
L 46.935702 194.809242 
L 50.101991 194.809242 
L 53.268279 194.809242 
L 56.434567 194.809241 
L 59.600856 194.809241 
L 62.767144 194.809241 
L 65.933433 194.809241 
L 69.099721 194.80924 
L 72.26601 194.80924 
L 75.432298 194.80924 
L 78.598587 194.80924 
L 81.764875 194.809239 
L 84.931164 194.809239 
L 88.097452 194.809239 
L 91.26374 194.809239 
L 94.430029 194.809238 
L 97.596318 194.809238 
L 100.762606 194.809238 
L 103.928894 194.809237 
L 107.095183 194.809237 
L 110.261471 194.809237 
L 113.427759 194.809237 
L 116.594048 194.809236 
L 119.760337 194.809236 
L 122.926625 194.809236 
L 126.092913 194.809236 
L 129.259202 194.809235 
L 132.42549 194.809235 
L 135.591779 194.809235 
L 138.758067 194.809235 
L 141.924356 194.809234 
L 145.090644 194.809234 
L 148.256932 194.809234 
L 151.423221 194.809233 
L 154.589509 194.809233 
L 157.755798 194.809233 
L 160.922086 194.809233 
L 164.088375 194.809232 
L 167.254663 194.809232 
L 170.420952 194.809232 
L 173.58724 194.809232 
L 176.753529 194.809231 
L 179.919817 194.809231 
L 183.086105 194.809231 
L 186.252394 194.809231 
L 189.418683 194.80923 
L 192.584971 194.80923 
L 195.751259 194.80923 
L 198.917548 194.809229 
L 202.083836 194.809229 
L 205.250124 194.809229 
L 208.416413 194.809229 
L 211.582702 194.809228 
L 214.74899 194.809228 
L 217.915278 194.809228 
L 221.081567 194.809228 
L 224.247855 194.809227 
L 227.414144 194.809227 
L 230.580432 194.809227 
L 233.746721 194.809227 
L 236.913009 194.809226 
L 240.079298 194.809226 
L 243.245586 194.809226 
L 246.411875 194.809225 
L 249.578163 194.809225 
L 252.744451 194.809225 
L 255.91074 194.809225 
L 259.077028 194.809224 
L 262.243317 194.809224 
L 265.409605 194.809224 
L 268.575894 194.809224 
L 271.742182 194.809223 
L 274.90847 194.809223 
L 278.074759 194.809223 
L 281.241048 194.809223 
L 284.407336 194.809222 
L 287.573624 194.809222 
L 290.739913 194.809222 
L 293.906201 194.809221 
L 297.07249 194.809221 
L 300.238778 194.809221 
L 303.405067 194.809221 
L 306.571355 194.80922 
L 309.737644 194.80922 
L 312.903932 194.80922 
L 316.07022 194.80922 
L 319.236509 194.809219 
L 322.402797 194.809219 
L 325.569086 194.809219 
L 328.735374 194.809219 
L 331.901663 194.809218 
L 335.067951 194.809218 
L 338.23424 194.809218 
L 341.400528 194.809217 
L 344.566817 194.809217 
L 347.733105 194.809217 
L 350.899393 194.809217 
L 354.065682 194.809216 
" style="fill:none;stroke:#1f77b4;stroke-linecap:square;stroke-width:2.25;"/>
   </g>
   <g id="line2d_16">
    <path clip-path="url(#pd6c239bd61)" d="M 40.603125 28.271842 
L 43.769297 28.271842 
L 46.935469 28.271841 
L 50.101641 28.27184 
L 53.267814 28.27184 
L 56.433986 28.271839 
L 59.600158 28.271839 
L 62.76633 28.271838 
L 65.932502 28.271838 
L 69.098674 28.271837 
L 72.264847 28.271836 
L 75.431019 28.271836 
L 78.597191 28.271835 
L 81.763363 28.271835 
L 84.929535 28.271834 
L 88.095707 28.271834 
L 91.261879 28.271833 
L 94.428051 28.271832 
L 97.594223 28.271832 
L 100.760396 28.271831 
L 103.926568 28.271831 
L 107.09274 28.27183 
L 110.258912 28.271829 
L 113.425084 28.271829 
L 116.591256 28.271828 
L 119.757428 28.271828 
L 122.9236 28.271827 
L 126.089773 28.271827 
L 129.255944 28.271826 
L 132.422117 28.271825 
L 135.588289 28.271825 
L 138.754461 28.271824 
L 141.920633 28.271824 
L 145.086805 28.271823 
L 148.252977 28.271822 
L 151.41915 28.271822 
L 154.585322 28.271821 
L 157.751494 28.271821 
L 160.917666 28.27182 
L 164.083838 28.27182 
L 167.25001 28.271819 
L 170.416182 28.271818 
L 173.582354 28.271818 
L 176.748526 28.271817 
L 179.914699 28.271817 
L 183.080871 28.271816 
L 186.247043 28.271816 
L 189.413215 28.271815 
L 192.579387 28.271814 
L 195.745559 28.271814 
L 198.911731 28.271813 
L 202.077904 28.271813 
L 205.244076 28.271812 
L 208.410248 28.271811 
L 211.57642 28.271811 
L 214.742592 28.27181 
L 217.908764 28.27181 
L 221.074936 28.271809 
L 224.241108 28.271809 
L 227.40728 28.271808 
L 230.573452 28.271807 
L 233.739625 28.271807 
L 236.905797 28.271806 
L 240.071969 28.271806 
L 243.238141 28.271805 
L 246.404313 28.271805 
L 249.570485 28.271804 
L 252.736658 28.271803 
L 255.90283 28.271803 
L 259.069002 28.271802 
L 262.235174 28.271802 
L 265.401346 28.271801 
L 268.567518 28.2718 
L 271.73369 28.2718 
L 274.899862 28.271799 
L 278.066035 28.271799 
L 281.232207 28.271798 
L 284.398379 28.271798 
L 287.564551 28.271797 
L 290.730723 28.271796 
L 293.896895 28.271796 
L 297.063067 28.271795 
L 300.229239 28.271795 
L 303.395411 28.271794 
L 306.561584 28.271793 
L 309.727756 28.271793 
L 312.893928 28.271792 
L 316.0601 28.271792 
L 319.226272 28.271791 
L 322.392444 28.271791 
L 325.558616 28.27179 
L 328.724788 28.271789 
L 331.890961 28.271789 
L 335.057133 28.271788 
L 338.223305 28.271788 
L 341.389477 28.271787 
L 344.555649 28.271787 
L 347.721821 28.271786 
L 350.887994 28.271785 
L 354.054166 28.271785 
" style="fill:none;stroke:#ff7f0e;stroke-linecap:square;stroke-width:2.25;"/>
   </g>
   <g id="line2d_17">
    <path clip-path="url(#pd6c239bd61)" d="M 41.042842 299.273261 
L 44.204847 299.273261 
L 47.366853 299.273261 
L 50.528858 299.273261 
L 53.690864 299.27326 
L 56.85287 299.27326 
L 60.014875 299.27326 
L 63.176881 299.27326 
L 66.338886 299.27326 
L 69.500891 299.27326 
L 72.662897 299.27326 
L 75.824902 299.27326 
L 78.986908 299.27326 
L 82.148913 299.27326 
L 85.310919 299.27326 
L 88.472924 299.27326 
L 91.63493 299.27326 
L 94.796935 299.27326 
L 97.958941 299.273259 
L 101.120946 299.273259 
L 104.282952 299.273259 
L 107.444957 299.273259 
L 110.606963 299.273259 
L 113.768968 299.273259 
L 116.930974 299.273259 
L 120.092979 299.273259 
L 123.254985 299.273259 
L 126.41699 299.273259 
L 129.578996 299.273259 
L 132.741001 299.273259 
L 135.903007 299.273259 
L 139.065012 299.273259 
L 142.227018 299.273258 
L 145.389023 299.273258 
L 148.551029 299.273258 
L 151.713034 299.273258 
L 154.87504 299.273258 
L 158.037045 299.273258 
L 161.199051 299.273258 
L 164.361056 299.273258 
L 167.523062 299.273258 
L 170.685067 299.273258 
L 173.847073 299.273258 
L 177.009079 299.273258 
L 180.171084 299.273258 
L 183.333089 299.273258 
L 186.495095 299.273257 
L 189.6571 299.273257 
L 192.819106 299.273257 
L 195.981111 299.273257 
L 199.143117 299.273257 
L 202.305122 299.273257 
L 205.467128 299.273257 
L 208.629133 299.273257 
L 211.791139 299.273257 
L 214.953144 299.273257 
L 218.115149 299.273257 
L 221.277155 299.273257 
L 224.439161 299.273257 
L 227.601166 299.273257 
L 230.763172 299.273256 
L 233.925177 299.273256 
L 237.087183 299.273256 
L 240.249188 299.273256 
L 243.411194 299.273256 
L 246.573199 299.273256 
L 249.735205 299.273256 
L 252.89721 299.273256 
L 256.059216 299.273256 
L 259.221221 299.273256 
L 262.383227 299.273256 
L 265.545232 299.273256 
L 268.707238 299.273256 
L 271.869243 299.273256 
L 275.031249 299.273255 
L 278.193254 299.273255 
L 281.35526 299.273255 
L 284.517265 299.273255 
L 287.679271 299.273255 
L 290.841276 299.273255 
L 294.003282 299.273255 
L 297.165287 299.273255 
L 300.327292 299.273255 
L 303.489298 299.273255 
L 306.651304 299.273255 
L 309.813309 299.273255 
L 312.975315 299.273255 
L 316.13732 299.273255 
L 319.299326 299.273255 
L 322.461331 299.273254 
L 325.623337 299.273254 
L 328.785342 299.273254 
L 331.947347 299.273254 
L 335.109353 299.273254 
L 338.271358 299.273254 
L 341.433364 299.273254 
L 344.59537 299.273254 
L 347.757375 299.273254 
L 350.919381 299.273254 
L 354.081386 299.273254 
" style="fill:none;stroke:#2ca02c;stroke-linecap:square;stroke-width:2.25;"/>
   </g>
   <g id="patch_3">
    <path d="M 40.603125 315.6 
L 40.603125 7.2 
" style="fill:none;stroke:#000000;stroke-linecap:square;stroke-linejoin:miter;stroke-width:0.8;"/>
   </g>
   <g id="patch_4">
    <path d="M 40.603125 315.6 
L 354.081386 315.6 
" style="fill:none;stroke:#000000;stroke-linecap:square;stroke-linejoin:miter;stroke-width:0.8;"/>
   </g>
   <g id="legend_1">
    <g id="patch_5">
     <path d="M 273.982948 192.25625 
L 347.081386 192.25625 
Q 349.081386 192.25625 349.081386 190.25625 
L 349.081386 132.54375 
Q 349.081386 130.54375 347.081386 130.54375 
L 273.982948 130.54375 
Q 271.982948 130.54375 271.982948 132.54375 
L 271.982948 190.25625 
Q 271.982948 192.25625 273.982948 192.25625 
z
" style="fill:#ffffff;opacity:0.8;stroke:#cccccc;stroke-linejoin:miter;"/>
    </g>
    <g id="text_18">
     <!-- resourceType -->
     <g transform="translate(277.428261 142.142188)scale(0.1 -0.1)">
      <defs>
       <path d="M 41.109375 46.296875 
Q 39.59375 47.171875 37.8125 47.578125 
Q 36.03125 48 33.890625 48 
Q 26.265625 48 22.1875 43.046875 
Q 18.109375 38.09375 18.109375 28.8125 
L 18.109375 0 
L 9.078125 0 
L 9.078125 54.6875 
L 18.109375 54.6875 
L 18.109375 46.1875 
Q 20.953125 51.171875 25.484375 53.578125 
Q 30.03125 56 36.53125 56 
Q 37.453125 56 38.578125 55.875 
Q 39.703125 55.765625 41.0625 55.515625 
z
" id="DejaVuSans-114"/>
       <path d="M 30.609375 48.390625 
Q 23.390625 48.390625 19.1875 42.75 
Q 14.984375 37.109375 14.984375 27.296875 
Q 14.984375 17.484375 19.15625 11.84375 
Q 23.34375 6.203125 30.609375 6.203125 
Q 37.796875 6.203125 41.984375 11.859375 
Q 46.1875 17.53125 46.1875 27.296875 
Q 46.1875 37.015625 41.984375 42.703125 
Q 37.796875 48.390625 30.609375 48.390625 
z
M 30.609375 56 
Q 42.328125 56 49.015625 48.375 
Q 55.71875 40.765625 55.71875 27.296875 
Q 55.71875 13.875 49.015625 6.21875 
Q 42.328125 -1.421875 30.609375 -1.421875 
Q 18.84375 -1.421875 12.171875 6.21875 
Q 5.515625 13.875 5.515625 27.296875 
Q 5.515625 40.765625 12.171875 48.375 
Q 18.84375 56 30.609375 56 
z
" id="DejaVuSans-111"/>
       <path d="M 8.5 21.578125 
L 8.5 54.6875 
L 17.484375 54.6875 
L 17.484375 21.921875 
Q 17.484375 14.15625 20.5 10.265625 
Q 23.53125 6.390625 29.59375 6.390625 
Q 36.859375 6.390625 41.078125 11.03125 
Q 45.3125 15.671875 45.3125 23.6875 
L 45.3125 54.6875 
L 54.296875 54.6875 
L 54.296875 0 
L 45.3125 0 
L 45.3125 8.40625 
Q 42.046875 3.421875 37.71875 1 
Q 33.40625 -1.421875 27.6875 -1.421875 
Q 18.265625 -1.421875 13.375 4.4375 
Q 8.5 10.296875 8.5 21.578125 
z
M 31.109375 56 
z
" id="DejaVuSans-117"/>
       <path d="M 48.78125 52.59375 
L 48.78125 44.1875 
Q 44.96875 46.296875 41.140625 47.34375 
Q 37.3125 48.390625 33.40625 48.390625 
Q 24.65625 48.390625 19.8125 42.84375 
Q 14.984375 37.3125 14.984375 27.296875 
Q 14.984375 17.28125 19.8125 11.734375 
Q 24.65625 6.203125 33.40625 6.203125 
Q 37.3125 6.203125 41.140625 7.25 
Q 44.96875 8.296875 48.78125 10.40625 
L 48.78125 2.09375 
Q 45.015625 0.34375 40.984375 -0.53125 
Q 36.96875 -1.421875 32.421875 -1.421875 
Q 20.0625 -1.421875 12.78125 6.34375 
Q 5.515625 14.109375 5.515625 27.296875 
Q 5.515625 40.671875 12.859375 48.328125 
Q 20.21875 56 33.015625 56 
Q 37.15625 56 41.109375 55.140625 
Q 45.0625 54.296875 48.78125 52.59375 
z
" id="DejaVuSans-99"/>
       <path d="M -0.296875 72.90625 
L 61.375 72.90625 
L 61.375 64.59375 
L 35.5 64.59375 
L 35.5 0 
L 25.59375 0 
L 25.59375 64.59375 
L -0.296875 64.59375 
z
" id="DejaVuSans-84"/>
       <path d="M 32.171875 -5.078125 
Q 28.375 -14.84375 24.75 -17.8125 
Q 21.140625 -20.796875 15.09375 -20.796875 
L 7.90625 -20.796875 
L 7.90625 -13.28125 
L 13.1875 -13.28125 
Q 16.890625 -13.28125 18.9375 -11.515625 
Q 21 -9.765625 23.484375 -3.21875 
L 25.09375 0.875 
L 2.984375 54.6875 
L 12.5 54.6875 
L 29.59375 11.921875 
L 46.6875 54.6875 
L 56.203125 54.6875 
z
" id="DejaVuSans-121"/>
      </defs>
      <use xlink:href="#DejaVuSans-114"/>
      <use x="38.863281" xlink:href="#DejaVuSans-101"/>
      <use x="100.386719" xlink:href="#DejaVuSans-115"/>
      <use x="152.486328" xlink:href="#DejaVuSans-111"/>
      <use x="213.667969" xlink:href="#DejaVuSans-117"/>
      <use x="277.046875" xlink:href="#DejaVuSans-114"/>
      <use x="315.910156" xlink:href="#DejaVuSans-99"/>
      <use x="370.890625" xlink:href="#DejaVuSans-101"/>
      <use x="432.414062" xlink:href="#DejaVuSans-84"/>
      <use x="477.873047" xlink:href="#DejaVuSans-121"/>
      <use x="537.052734" xlink:href="#DejaVuSans-112"/>
      <use x="600.529297" xlink:href="#DejaVuSans-101"/>
     </g>
    </g>
    <g id="line2d_18">
     <path d="M 275.982948 153.320313 
L 295.982948 153.320313 
" style="fill:none;stroke:#1f77b4;stroke-linecap:square;stroke-width:2.25;"/>
    </g>
    <g id="line2d_19"/>
    <g id="text_19">
     <!-- medium -->
     <g transform="translate(303.982948 156.820313)scale(0.1 -0.1)">
      <use xlink:href="#DejaVuSans-109"/>
      <use x="97.412109" xlink:href="#DejaVuSans-101"/>
      <use x="158.935547" xlink:href="#DejaVuSans-100"/>
      <use x="222.412109" xlink:href="#DejaVuSans-105"/>
      <use x="250.195312" xlink:href="#DejaVuSans-117"/>
      <use x="313.574219" xlink:href="#DejaVuSans-109"/>
     </g>
    </g>
    <g id="line2d_20">
     <path d="M 275.982948 167.998438 
L 295.982948 167.998438 
" style="fill:none;stroke:#ff7f0e;stroke-linecap:square;stroke-width:2.25;"/>
    </g>
    <g id="line2d_21"/>
    <g id="text_20">
     <!-- large -->
     <g transform="translate(303.982948 171.498438)scale(0.1 -0.1)">
      <defs>
       <path d="M 45.40625 27.984375 
Q 45.40625 37.75 41.375 43.109375 
Q 37.359375 48.484375 30.078125 48.484375 
Q 22.859375 48.484375 18.828125 43.109375 
Q 14.796875 37.75 14.796875 27.984375 
Q 14.796875 18.265625 18.828125 12.890625 
Q 22.859375 7.515625 30.078125 7.515625 
Q 37.359375 7.515625 41.375 12.890625 
Q 45.40625 18.265625 45.40625 27.984375 
z
M 54.390625 6.78125 
Q 54.390625 -7.171875 48.1875 -13.984375 
Q 42 -20.796875 29.203125 -20.796875 
Q 24.46875 -20.796875 20.265625 -20.09375 
Q 16.0625 -19.390625 12.109375 -17.921875 
L 12.109375 -9.1875 
Q 16.0625 -11.328125 19.921875 -12.34375 
Q 23.78125 -13.375 27.78125 -13.375 
Q 36.625 -13.375 41.015625 -8.765625 
Q 45.40625 -4.15625 45.40625 5.171875 
L 45.40625 9.625 
Q 42.625 4.78125 38.28125 2.390625 
Q 33.9375 0 27.875 0 
Q 17.828125 0 11.671875 7.65625 
Q 5.515625 15.328125 5.515625 27.984375 
Q 5.515625 40.671875 11.671875 48.328125 
Q 17.828125 56 27.875 56 
Q 33.9375 56 38.28125 53.609375 
Q 42.625 51.21875 45.40625 46.390625 
L 45.40625 54.6875 
L 54.390625 54.6875 
z
" id="DejaVuSans-103"/>
      </defs>
      <use xlink:href="#DejaVuSans-108"/>
      <use x="27.783203" xlink:href="#DejaVuSans-97"/>
      <use x="89.0625" xlink:href="#DejaVuSans-114"/>
      <use x="128.425781" xlink:href="#DejaVuSans-103"/>
      <use x="191.902344" xlink:href="#DejaVuSans-101"/>
     </g>
    </g>
    <g id="line2d_22">
     <path d="M 275.982948 182.676563 
L 295.982948 182.676563 
" style="fill:none;stroke:#2ca02c;stroke-linecap:square;stroke-width:2.25;"/>
    </g>
    <g id="line2d_23"/>
    <g id="text_21">
     <!-- small -->
     <g transform="translate(303.982948 186.176563)scale(0.1 -0.1)">
      <use xlink:href="#DejaVuSans-115"/>
      <use x="52.099609" xlink:href="#DejaVuSans-109"/>
      <use x="149.511719" xlink:href="#DejaVuSans-97"/>
      <use x="210.791016" xlink:href="#DejaVuSans-108"/>
      <use x="238.574219" xlink:href="#DejaVuSans-108"/>
     </g>
    </g>
   </g>
  </g>
 </g>
 <defs>
  <clipPath id="pd6c239bd61">
   <rect height="308.4" width="313.478261" x="40.603125" y="7.2"/>
  </clipPath>
 </defs>
</svg>
