<?xml version="1.0" encoding="utf-8" standalone="no"?>
<!DOCTYPE svg PUBLIC "-//W3C//DTD SVG 1.1//EN"
  "http://www.w3.org/Graphics/SVG/1.1/DTD/svg11.dtd">
<!-- Created with matplotlib (https://matplotlib.org/) -->
<svg height="353.15625pt" version="1.1" viewBox="0 0 366.576395 353.15625" width="366.576395pt" xmlns="http://www.w3.org/2000/svg" xmlns:xlink="http://www.w3.org/1999/xlink">
 <metadata>
  <rdf:RDF xmlns:cc="http://creativecommons.org/ns#" xmlns:dc="http://purl.org/dc/elements/1.1/" xmlns:rdf="http://www.w3.org/1999/02/22-rdf-syntax-ns#">
   <cc:Work>
    <dc:type rdf:resource="http://purl.org/dc/dcmitype/StillImage"/>
    <dc:date>2021-01-15T11:29:54.135339</dc:date>
    <dc:format>image/svg+xml</dc:format>
    <dc:creator>
     <cc:Agent>
      <dc:title>Matplotlib v3.3.3, https://matplotlib.org/</dc:title>
     </cc:Agent>
    </dc:creator>
   </cc:Work>
  </rdf:RDF>
 </metadata>
 <defs>
  <style type="text/css">*{stroke-linecap:butt;stroke-linejoin:round;}</style>
 </defs>
 <g id="figure_1">
  <g id="patch_1">
   <path d="M 0 353.15625 
L 366.576395 353.15625 
L 366.576395 0 
L 0 0 
z
" style="fill:none;"/>
  </g>
  <g id="axes_1">
   <g id="patch_2">
    <path d="M 43.78125 315.6 
L 353.884511 315.6 
L 353.884511 7.2 
L 43.78125 7.2 
z
" style="fill:#ffffff;"/>
   </g>
   <g id="PolyCollection_1">
    <path clip-path="url(#p64be02ae77)" d="M 43.78125 119.20111 
L 43.78125 293.351751 
L 46.913449 293.351749 
L 50.045648 293.351746 
L 53.177848 293.351744 
L 56.310047 293.351742 
L 59.442246 293.351739 
L 62.574445 293.351737 
L 65.706645 293.351735 
L 68.838844 293.351733 
L 71.971043 293.35173 
L 75.103242 293.351728 
L 78.235441 293.351726 
L 81.367641 293.351723 
L 84.49984 293.351721 
L 87.632039 293.351719 
L 90.764239 293.351717 
L 93.896438 293.351714 
L 97.028637 293.351712 
L 100.160836 293.35171 
L 103.293036 293.351707 
L 106.425235 293.351705 
L 109.557434 293.351703 
L 112.689633 293.3517 
L 115.821833 293.351698 
L 118.954032 293.351696 
L 122.086231 293.351694 
L 125.21843 293.351691 
L 128.35063 293.351689 
L 131.482829 293.351687 
L 134.615028 293.351684 
L 137.747227 293.351682 
L 140.879427 293.35168 
L 144.011626 293.351678 
L 147.143825 293.351675 
L 150.276024 293.351673 
L 153.408224 293.351671 
L 156.540423 293.351668 
L 159.672622 293.351666 
L 162.804821 293.351664 
L 165.937021 293.351661 
L 169.06922 293.351659 
L 172.201419 293.351657 
L 175.333618 293.351655 
L 178.465818 293.351652 
L 181.598017 293.35165 
L 184.730216 293.351648 
L 187.862415 293.351645 
L 190.994615 293.351643 
L 194.126814 293.351641 
L 197.259013 293.351638 
L 200.391212 293.351636 
L 203.523412 293.351634 
L 206.655611 293.351632 
L 209.78781 293.351629 
L 212.92001 293.351627 
L 216.052209 293.351625 
L 219.184408 293.351622 
L 222.316607 293.35162 
L 225.448807 293.351618 
L 228.581006 293.351616 
L 231.713205 293.351613 
L 234.845404 293.351611 
L 237.977603 293.351609 
L 241.109803 293.351606 
L 244.242002 293.351604 
L 247.374201 293.351602 
L 250.506401 293.351599 
L 253.6386 293.351597 
L 256.770799 293.351595 
L 259.902998 293.351593 
L 263.035197 293.35159 
L 266.167397 293.351588 
L 269.299596 293.351586 
L 272.431795 293.351583 
L 275.563994 293.351581 
L 278.696194 293.351579 
L 281.828393 293.351577 
L 284.960592 293.351574 
L 288.092792 293.351572 
L 291.224991 293.35157 
L 294.35719 293.351567 
L 297.489389 293.351565 
L 300.621588 293.351563 
L 303.753788 293.35156 
L 306.885987 293.351558 
L 310.018186 293.351556 
L 313.150385 293.351554 
L 316.282585 293.351551 
L 319.414784 293.351549 
L 322.546983 293.351547 
L 325.679183 293.351544 
L 328.811382 293.351542 
L 331.943581 293.35154 
L 335.07578 293.351538 
L 338.207979 293.351535 
L 341.340179 293.351533 
L 344.472378 293.351531 
L 347.604577 293.351528 
L 350.736776 293.351526 
L 353.868976 293.351524 
L 353.868976 119.20085 
L 353.868976 119.20085 
L 350.736776 119.200853 
L 347.604577 119.200856 
L 344.472378 119.200858 
L 341.340179 119.200861 
L 338.207979 119.200864 
L 335.07578 119.200866 
L 331.943581 119.200869 
L 328.811382 119.200871 
L 325.679183 119.200874 
L 322.546983 119.200877 
L 319.414784 119.200879 
L 316.282585 119.200882 
L 313.150385 119.200884 
L 310.018186 119.200887 
L 306.885987 119.20089 
L 303.753788 119.200892 
L 300.621588 119.200895 
L 297.489389 119.200898 
L 294.35719 119.2009 
L 291.224991 119.200903 
L 288.092792 119.200905 
L 284.960592 119.200908 
L 281.828393 119.200911 
L 278.696194 119.200913 
L 275.563994 119.200916 
L 272.431795 119.200919 
L 269.299596 119.200921 
L 266.167397 119.200924 
L 263.035197 119.200926 
L 259.902998 119.200929 
L 256.770799 119.200932 
L 253.6386 119.200934 
L 250.506401 119.200937 
L 247.374201 119.20094 
L 244.242002 119.200942 
L 241.109803 119.200945 
L 237.977603 119.200947 
L 234.845404 119.20095 
L 231.713205 119.200953 
L 228.581006 119.200955 
L 225.448807 119.200958 
L 222.316607 119.200961 
L 219.184408 119.200963 
L 216.052209 119.200966 
L 212.92001 119.200968 
L 209.78781 119.200971 
L 206.655611 119.200974 
L 203.523412 119.200976 
L 200.391212 119.200979 
L 197.259013 119.200981 
L 194.126814 119.200984 
L 190.994615 119.200987 
L 187.862415 119.200989 
L 184.730216 119.200992 
L 181.598017 119.200995 
L 178.465818 119.200997 
L 175.333618 119.201 
L 172.201419 119.201002 
L 169.06922 119.201005 
L 165.937021 119.201008 
L 162.804821 119.20101 
L 159.672622 119.201013 
L 156.540423 119.201016 
L 153.408224 119.201018 
L 150.276024 119.201021 
L 147.143825 119.201023 
L 144.011626 119.201026 
L 140.879427 119.201029 
L 137.747227 119.201031 
L 134.615028 119.201034 
L 131.482829 119.201037 
L 128.35063 119.201039 
L 125.21843 119.201042 
L 122.086231 119.201044 
L 118.954032 119.201047 
L 115.821833 119.20105 
L 112.689633 119.201052 
L 109.557434 119.201055 
L 106.425235 119.201058 
L 103.293036 119.20106 
L 100.160836 119.201063 
L 97.028637 119.201065 
L 93.896438 119.201068 
L 90.764239 119.201071 
L 87.632039 119.201073 
L 84.49984 119.201076 
L 81.367641 119.201078 
L 78.235441 119.201081 
L 75.103242 119.201084 
L 71.971043 119.201086 
L 68.838844 119.201089 
L 65.706645 119.201092 
L 62.574445 119.201094 
L 59.442246 119.201097 
L 56.310047 119.201099 
L 53.177848 119.201102 
L 50.045648 119.201105 
L 46.913449 119.201107 
L 43.78125 119.20111 
z
" style="fill:#1f77b4;fill-opacity:0.15;"/>
   </g>
   <g id="PolyCollection_2">
    <path clip-path="url(#p64be02ae77)" d="M 43.78125 21.21846 
L 43.78125 232.182032 
L 46.913334 232.18203 
L 50.045418 232.182028 
L 53.177502 232.182025 
L 56.309587 232.182023 
L 59.441671 232.18202 
L 62.573755 232.182018 
L 65.705839 232.182015 
L 68.837923 232.182013 
L 71.970007 232.182011 
L 75.102092 232.182008 
L 78.234176 232.182006 
L 81.36626 232.182003 
L 84.498344 232.182001 
L 87.630429 232.181999 
L 90.762512 232.181996 
L 93.894597 232.181994 
L 97.026681 232.181991 
L 100.158765 232.181989 
L 103.290849 232.181987 
L 106.422933 232.181984 
L 109.555018 232.181982 
L 112.687102 232.181979 
L 115.819186 232.181977 
L 118.95127 232.181975 
L 122.083354 232.181972 
L 125.215438 232.18197 
L 128.347523 232.181967 
L 131.479607 232.181965 
L 134.611691 232.181962 
L 137.743775 232.18196 
L 140.875859 232.181958 
L 144.007943 232.181955 
L 147.140028 232.181953 
L 150.272112 232.18195 
L 153.404196 232.181948 
L 156.53628 232.181946 
L 159.668365 232.181943 
L 162.800449 232.181941 
L 165.932533 232.181938 
L 169.064617 232.181936 
L 172.196701 232.181934 
L 175.328785 232.181931 
L 178.460869 232.181929 
L 181.592954 232.181926 
L 184.725038 232.181924 
L 187.857122 232.181922 
L 190.989206 232.181919 
L 194.12129 232.181917 
L 197.253374 232.181914 
L 200.385459 232.181912 
L 203.517543 232.181909 
L 206.649627 232.181907 
L 209.781711 232.181905 
L 212.913795 232.181902 
L 216.04588 232.1819 
L 219.177964 232.181897 
L 222.310048 232.181895 
L 225.442132 232.181893 
L 228.574216 232.18189 
L 231.7063 232.181888 
L 234.838385 232.181885 
L 237.970469 232.181883 
L 241.102553 232.181881 
L 244.234637 232.181878 
L 247.366721 232.181876 
L 250.498805 232.181873 
L 253.63089 232.181871 
L 256.762974 232.181869 
L 259.895058 232.181866 
L 263.027142 232.181864 
L 266.159226 232.181861 
L 269.291311 232.181859 
L 272.423395 232.181856 
L 275.555479 232.181854 
L 278.687563 232.181852 
L 281.819647 232.181849 
L 284.951731 232.181847 
L 288.083816 232.181844 
L 291.2159 232.181842 
L 294.347984 232.18184 
L 297.480068 232.181837 
L 300.612152 232.181835 
L 303.744236 232.181832 
L 306.876321 232.18183 
L 310.008405 232.181828 
L 313.140489 232.181825 
L 316.272573 232.181823 
L 319.404657 232.18182 
L 322.536741 232.181818 
L 325.668826 232.181816 
L 328.80091 232.181813 
L 331.932994 232.181811 
L 335.065078 232.181808 
L 338.197162 232.181806 
L 341.329247 232.181803 
L 344.461331 232.181801 
L 347.593415 232.181799 
L 350.725499 232.181796 
L 353.857583 232.181794 
L 353.857583 21.218182 
L 353.857583 21.218182 
L 350.725499 21.218185 
L 347.593415 21.218187 
L 344.461331 21.21819 
L 341.329247 21.218193 
L 338.197162 21.218196 
L 335.065078 21.218199 
L 331.932994 21.218201 
L 328.80091 21.218204 
L 325.668826 21.218207 
L 322.536741 21.21821 
L 319.404657 21.218213 
L 316.272573 21.218215 
L 313.140489 21.218218 
L 310.008405 21.218221 
L 306.876321 21.218224 
L 303.744236 21.218227 
L 300.612152 21.21823 
L 297.480068 21.218232 
L 294.347984 21.218235 
L 291.2159 21.218238 
L 288.083816 21.218241 
L 284.951731 21.218244 
L 281.819647 21.218246 
L 278.687563 21.218249 
L 275.555479 21.218252 
L 272.423395 21.218255 
L 269.291311 21.218258 
L 266.159226 21.21826 
L 263.027142 21.218263 
L 259.895058 21.218266 
L 256.762974 21.218269 
L 253.63089 21.218272 
L 250.498805 21.218274 
L 247.366721 21.218277 
L 244.234637 21.21828 
L 241.102553 21.218283 
L 237.970469 21.218286 
L 234.838385 21.218288 
L 231.7063 21.218291 
L 228.574216 21.218294 
L 225.442132 21.218297 
L 222.310048 21.2183 
L 219.177964 21.218302 
L 216.04588 21.218305 
L 212.913795 21.218308 
L 209.781711 21.218311 
L 206.649627 21.218314 
L 203.517543 21.218316 
L 200.385459 21.218319 
L 197.253374 21.218322 
L 194.12129 21.218325 
L 190.989206 21.218328 
L 187.857122 21.21833 
L 184.725038 21.218333 
L 181.592954 21.218336 
L 178.460869 21.218339 
L 175.328785 21.218342 
L 172.196701 21.218345 
L 169.064617 21.218347 
L 165.932533 21.21835 
L 162.800449 21.218353 
L 159.668365 21.218356 
L 156.53628 21.218359 
L 153.404196 21.218361 
L 150.272112 21.218364 
L 147.140028 21.218367 
L 144.007943 21.21837 
L 140.875859 21.218373 
L 137.743775 21.218375 
L 134.611691 21.218378 
L 131.479607 21.218381 
L 128.347523 21.218384 
L 125.215438 21.218387 
L 122.083354 21.218389 
L 118.95127 21.218392 
L 115.819186 21.218395 
L 112.687102 21.218398 
L 109.555018 21.218401 
L 106.422933 21.218403 
L 103.290849 21.218406 
L 100.158765 21.218409 
L 97.026681 21.218412 
L 93.894597 21.218415 
L 90.762512 21.218417 
L 87.630429 21.21842 
L 84.498344 21.218423 
L 81.36626 21.218426 
L 78.234176 21.218429 
L 75.102092 21.218431 
L 71.970007 21.218434 
L 68.837923 21.218437 
L 65.705839 21.21844 
L 62.573755 21.218443 
L 59.441671 21.218446 
L 56.309587 21.218448 
L 53.177502 21.218451 
L 50.045418 21.218454 
L 46.913334 21.218457 
L 43.78125 21.21846 
z
" style="fill:#ff7f0e;fill-opacity:0.15;"/>
   </g>
   <g id="PolyCollection_3">
    <path clip-path="url(#p64be02ae77)" d="M 44.216233 128.400644 
L 44.216233 301.581818 
L 47.344195 301.581816 
L 50.472157 301.581814 
L 53.60012 301.581811 
L 56.728082 301.581809 
L 59.856045 301.581807 
L 62.984007 301.581805 
L 66.111969 301.581802 
L 69.239932 301.5818 
L 72.367894 301.581798 
L 75.495857 301.581795 
L 78.623819 301.581793 
L 81.751781 301.581791 
L 84.879744 301.581789 
L 88.007706 301.581786 
L 91.135669 301.581784 
L 94.263631 301.581782 
L 97.391593 301.581779 
L 100.519556 301.581777 
L 103.647518 301.581775 
L 106.775481 301.581773 
L 109.903443 301.58177 
L 113.031405 301.581768 
L 116.159368 301.581766 
L 119.28733 301.581764 
L 122.415293 301.581761 
L 125.543255 301.581759 
L 128.671217 301.581757 
L 131.79918 301.581754 
L 134.927142 301.581752 
L 138.055105 301.58175 
L 141.183067 301.581748 
L 144.311029 301.581745 
L 147.438992 301.581743 
L 150.566954 301.581741 
L 153.694917 301.581739 
L 156.822879 301.581736 
L 159.950841 301.581734 
L 163.078804 301.581732 
L 166.206766 301.581729 
L 169.334729 301.581727 
L 172.462691 301.581725 
L 175.590653 301.581723 
L 178.718616 301.58172 
L 181.846578 301.581718 
L 184.974541 301.581716 
L 188.102503 301.581713 
L 191.230465 301.581711 
L 194.358428 301.581709 
L 197.486391 301.581707 
L 200.614353 301.581704 
L 203.742315 301.581702 
L 206.870278 301.5817 
L 209.99824 301.581698 
L 213.126203 301.581695 
L 216.254165 301.581693 
L 219.382127 301.581691 
L 222.51009 301.581688 
L 225.638052 301.581686 
L 228.766015 301.581684 
L 231.893977 301.581682 
L 235.02194 301.581679 
L 238.149902 301.581677 
L 241.277864 301.581675 
L 244.405827 301.581673 
L 247.533789 301.58167 
L 250.661752 301.581668 
L 253.789714 301.581666 
L 256.917676 301.581663 
L 260.045639 301.581661 
L 263.173601 301.581659 
L 266.301564 301.581657 
L 269.429526 301.581654 
L 272.557488 301.581652 
L 275.685451 301.58165 
L 278.813413 301.581648 
L 281.941375 301.581645 
L 285.069338 301.581643 
L 288.1973 301.581641 
L 291.325263 301.581638 
L 294.453225 301.581636 
L 297.581187 301.581634 
L 300.70915 301.581632 
L 303.837112 301.581629 
L 306.965075 301.581627 
L 310.093037 301.581625 
L 313.220999 301.581622 
L 316.348962 301.58162 
L 319.476924 301.581618 
L 322.604887 301.581616 
L 325.732849 301.581613 
L 328.860811 301.581611 
L 331.988774 301.581609 
L 335.116736 301.581607 
L 338.244699 301.581604 
L 341.372661 301.581602 
L 344.500623 301.5816 
L 347.628586 301.581597 
L 350.756548 301.581595 
L 353.884511 301.581593 
L 353.884511 128.400387 
L 353.884511 128.400387 
L 350.756548 128.400389 
L 347.628586 128.400392 
L 344.500623 128.400394 
L 341.372661 128.400397 
L 338.244699 128.4004 
L 335.116736 128.400402 
L 331.988774 128.400405 
L 328.860811 128.400407 
L 325.732849 128.40041 
L 322.604887 128.400413 
L 319.476924 128.400415 
L 316.348962 128.400418 
L 313.220999 128.40042 
L 310.093037 128.400423 
L 306.965075 128.400426 
L 303.837112 128.400428 
L 300.70915 128.400431 
L 297.581187 128.400433 
L 294.453225 128.400436 
L 291.325263 128.400439 
L 288.1973 128.400441 
L 285.069338 128.400444 
L 281.941375 128.400446 
L 278.813413 128.400449 
L 275.685451 128.400452 
L 272.557488 128.400454 
L 269.429526 128.400457 
L 266.301564 128.400459 
L 263.173601 128.400462 
L 260.045639 128.400465 
L 256.917676 128.400467 
L 253.789714 128.40047 
L 250.661752 128.400472 
L 247.533789 128.400475 
L 244.405827 128.400478 
L 241.277864 128.40048 
L 238.149902 128.400483 
L 235.02194 128.400485 
L 231.893977 128.400488 
L 228.766015 128.400491 
L 225.638052 128.400493 
L 222.51009 128.400496 
L 219.382127 128.400498 
L 216.254165 128.400501 
L 213.126203 128.400504 
L 209.99824 128.400506 
L 206.870278 128.400509 
L 203.742315 128.400511 
L 200.614353 128.400514 
L 197.486391 128.400517 
L 194.358428 128.400519 
L 191.230465 128.400522 
L 188.102503 128.400524 
L 184.974541 128.400527 
L 181.846578 128.40053 
L 178.718616 128.400532 
L 175.590653 128.400535 
L 172.462691 128.400537 
L 169.334729 128.40054 
L 166.206766 128.400543 
L 163.078804 128.400545 
L 159.950841 128.400548 
L 156.822879 128.40055 
L 153.694917 128.400553 
L 150.566954 128.400556 
L 147.438992 128.400558 
L 144.311029 128.400561 
L 141.183067 128.400563 
L 138.055105 128.400566 
L 134.927142 128.400569 
L 131.79918 128.400571 
L 128.671217 128.400574 
L 125.543255 128.400576 
L 122.415293 128.400579 
L 119.28733 128.400582 
L 116.159368 128.400584 
L 113.031405 128.400587 
L 109.903443 128.400589 
L 106.775481 128.400592 
L 103.647518 128.400595 
L 100.519556 128.400597 
L 97.391593 128.4006 
L 94.263631 128.400602 
L 91.135669 128.400605 
L 88.007706 128.400608 
L 84.879744 128.40061 
L 81.751781 128.400613 
L 78.623819 128.400615 
L 75.495857 128.400618 
L 72.367894 128.400621 
L 69.239932 128.400623 
L 66.111969 128.400626 
L 62.984007 128.400628 
L 59.856045 128.400631 
L 56.728082 128.400634 
L 53.60012 128.400636 
L 50.472157 128.400639 
L 47.344195 128.400641 
L 44.216233 128.400644 
z
" style="fill:#2ca02c;fill-opacity:0.15;"/>
   </g>
   <g id="matplotlib.axis_1">
    <g id="xtick_1">
     <g id="line2d_1">
      <defs>
       <path d="M 0 0 
L 0 3.5 
" id="mbfce566067" style="stroke:#000000;stroke-width:0.8;"/>
      </defs>
      <g>
       <use style="stroke:#000000;stroke-width:0.8;" x="78.189412" xlink:href="#mbfce566067" y="315.6"/>
      </g>
     </g>
     <g id="text_1">
      <!-- 2850000 -->
      <g transform="translate(55.920662 330.198438)scale(0.1 -0.1)">
       <defs>
        <path d="M 19.1875 8.296875 
L 53.609375 8.296875 
L 53.609375 0 
L 7.328125 0 
L 7.328125 8.296875 
Q 12.9375 14.109375 22.625 23.890625 
Q 32.328125 33.6875 34.8125 36.53125 
Q 39.546875 41.84375 41.421875 45.53125 
Q 43.3125 49.21875 43.3125 52.78125 
Q 43.3125 58.59375 39.234375 62.25 
Q 35.15625 65.921875 28.609375 65.921875 
Q 23.96875 65.921875 18.8125 64.3125 
Q 13.671875 62.703125 7.8125 59.421875 
L 7.8125 69.390625 
Q 13.765625 71.78125 18.9375 73 
Q 24.125 74.21875 28.421875 74.21875 
Q 39.75 74.21875 46.484375 68.546875 
Q 53.21875 62.890625 53.21875 53.421875 
Q 53.21875 48.921875 51.53125 44.890625 
Q 49.859375 40.875 45.40625 35.40625 
Q 44.1875 33.984375 37.640625 27.21875 
Q 31.109375 20.453125 19.1875 8.296875 
z
" id="DejaVuSans-50"/>
        <path d="M 31.78125 34.625 
Q 24.75 34.625 20.71875 30.859375 
Q 16.703125 27.09375 16.703125 20.515625 
Q 16.703125 13.921875 20.71875 10.15625 
Q 24.75 6.390625 31.78125 6.390625 
Q 38.8125 6.390625 42.859375 10.171875 
Q 46.921875 13.96875 46.921875 20.515625 
Q 46.921875 27.09375 42.890625 30.859375 
Q 38.875 34.625 31.78125 34.625 
z
M 21.921875 38.8125 
Q 15.578125 40.375 12.03125 44.71875 
Q 8.5 49.078125 8.5 55.328125 
Q 8.5 64.0625 14.71875 69.140625 
Q 20.953125 74.21875 31.78125 74.21875 
Q 42.671875 74.21875 48.875 69.140625 
Q 55.078125 64.0625 55.078125 55.328125 
Q 55.078125 49.078125 51.53125 44.71875 
Q 48 40.375 41.703125 38.8125 
Q 48.828125 37.15625 52.796875 32.3125 
Q 56.78125 27.484375 56.78125 20.515625 
Q 56.78125 9.90625 50.3125 4.234375 
Q 43.84375 -1.421875 31.78125 -1.421875 
Q 19.734375 -1.421875 13.25 4.234375 
Q 6.78125 9.90625 6.78125 20.515625 
Q 6.78125 27.484375 10.78125 32.3125 
Q 14.796875 37.15625 21.921875 38.8125 
z
M 18.3125 54.390625 
Q 18.3125 48.734375 21.84375 45.5625 
Q 25.390625 42.390625 31.78125 42.390625 
Q 38.140625 42.390625 41.71875 45.5625 
Q 45.3125 48.734375 45.3125 54.390625 
Q 45.3125 60.0625 41.71875 63.234375 
Q 38.140625 66.40625 31.78125 66.40625 
Q 25.390625 66.40625 21.84375 63.234375 
Q 18.3125 60.0625 18.3125 54.390625 
z
" id="DejaVuSans-56"/>
        <path d="M 10.796875 72.90625 
L 49.515625 72.90625 
L 49.515625 64.59375 
L 19.828125 64.59375 
L 19.828125 46.734375 
Q 21.96875 47.46875 24.109375 47.828125 
Q 26.265625 48.1875 28.421875 48.1875 
Q 40.625 48.1875 47.75 41.5 
Q 54.890625 34.8125 54.890625 23.390625 
Q 54.890625 11.625 47.5625 5.09375 
Q 40.234375 -1.421875 26.90625 -1.421875 
Q 22.3125 -1.421875 17.546875 -0.640625 
Q 12.796875 0.140625 7.71875 1.703125 
L 7.71875 11.625 
Q 12.109375 9.234375 16.796875 8.0625 
Q 21.484375 6.890625 26.703125 6.890625 
Q 35.15625 6.890625 40.078125 11.328125 
Q 45.015625 15.765625 45.015625 23.390625 
Q 45.015625 31 40.078125 35.4375 
Q 35.15625 39.890625 26.703125 39.890625 
Q 22.75 39.890625 18.8125 39.015625 
Q 14.890625 38.140625 10.796875 36.28125 
z
" id="DejaVuSans-53"/>
        <path d="M 31.78125 66.40625 
Q 24.171875 66.40625 20.328125 58.90625 
Q 16.5 51.421875 16.5 36.375 
Q 16.5 21.390625 20.328125 13.890625 
Q 24.171875 6.390625 31.78125 6.390625 
Q 39.453125 6.390625 43.28125 13.890625 
Q 47.125 21.390625 47.125 36.375 
Q 47.125 51.421875 43.28125 58.90625 
Q 39.453125 66.40625 31.78125 66.40625 
z
M 31.78125 74.21875 
Q 44.046875 74.21875 50.515625 64.515625 
Q 56.984375 54.828125 56.984375 36.375 
Q 56.984375 17.96875 50.515625 8.265625 
Q 44.046875 -1.421875 31.78125 -1.421875 
Q 19.53125 -1.421875 13.0625 8.265625 
Q 6.59375 17.96875 6.59375 36.375 
Q 6.59375 54.828125 13.0625 64.515625 
Q 19.53125 74.21875 31.78125 74.21875 
z
" id="DejaVuSans-48"/>
       </defs>
       <use xlink:href="#DejaVuSans-50"/>
       <use x="63.623047" xlink:href="#DejaVuSans-56"/>
       <use x="127.246094" xlink:href="#DejaVuSans-53"/>
       <use x="190.869141" xlink:href="#DejaVuSans-48"/>
       <use x="254.492188" xlink:href="#DejaVuSans-48"/>
       <use x="318.115234" xlink:href="#DejaVuSans-48"/>
       <use x="381.738281" xlink:href="#DejaVuSans-48"/>
      </g>
     </g>
    </g>
    <g id="xtick_2">
     <g id="line2d_2">
      <g>
       <use style="stroke:#000000;stroke-width:0.8;" x="129.973058" xlink:href="#mbfce566067" y="315.6"/>
      </g>
     </g>
     <g id="text_2">
      <!-- 2900000 -->
      <g transform="translate(107.704308 330.198438)scale(0.1 -0.1)">
       <defs>
        <path d="M 10.984375 1.515625 
L 10.984375 10.5 
Q 14.703125 8.734375 18.5 7.8125 
Q 22.3125 6.890625 25.984375 6.890625 
Q 35.75 6.890625 40.890625 13.453125 
Q 46.046875 20.015625 46.78125 33.40625 
Q 43.953125 29.203125 39.59375 26.953125 
Q 35.25 24.703125 29.984375 24.703125 
Q 19.046875 24.703125 12.671875 31.3125 
Q 6.296875 37.9375 6.296875 49.421875 
Q 6.296875 60.640625 12.9375 67.421875 
Q 19.578125 74.21875 30.609375 74.21875 
Q 43.265625 74.21875 49.921875 64.515625 
Q 56.59375 54.828125 56.59375 36.375 
Q 56.59375 19.140625 48.40625 8.859375 
Q 40.234375 -1.421875 26.421875 -1.421875 
Q 22.703125 -1.421875 18.890625 -0.6875 
Q 15.09375 0.046875 10.984375 1.515625 
z
M 30.609375 32.421875 
Q 37.25 32.421875 41.125 36.953125 
Q 45.015625 41.5 45.015625 49.421875 
Q 45.015625 57.28125 41.125 61.84375 
Q 37.25 66.40625 30.609375 66.40625 
Q 23.96875 66.40625 20.09375 61.84375 
Q 16.21875 57.28125 16.21875 49.421875 
Q 16.21875 41.5 20.09375 36.953125 
Q 23.96875 32.421875 30.609375 32.421875 
z
" id="DejaVuSans-57"/>
       </defs>
       <use xlink:href="#DejaVuSans-50"/>
       <use x="63.623047" xlink:href="#DejaVuSans-57"/>
       <use x="127.246094" xlink:href="#DejaVuSans-48"/>
       <use x="190.869141" xlink:href="#DejaVuSans-48"/>
       <use x="254.492188" xlink:href="#DejaVuSans-48"/>
       <use x="318.115234" xlink:href="#DejaVuSans-48"/>
       <use x="381.738281" xlink:href="#DejaVuSans-48"/>
      </g>
     </g>
    </g>
    <g id="xtick_3">
     <g id="line2d_3">
      <g>
       <use style="stroke:#000000;stroke-width:0.8;" x="181.756705" xlink:href="#mbfce566067" y="315.6"/>
      </g>
     </g>
     <g id="text_3">
      <!-- 2950000 -->
      <g transform="translate(159.487955 330.198438)scale(0.1 -0.1)">
       <use xlink:href="#DejaVuSans-50"/>
       <use x="63.623047" xlink:href="#DejaVuSans-57"/>
       <use x="127.246094" xlink:href="#DejaVuSans-53"/>
       <use x="190.869141" xlink:href="#DejaVuSans-48"/>
       <use x="254.492188" xlink:href="#DejaVuSans-48"/>
       <use x="318.115234" xlink:href="#DejaVuSans-48"/>
       <use x="381.738281" xlink:href="#DejaVuSans-48"/>
      </g>
     </g>
    </g>
    <g id="xtick_4">
     <g id="line2d_4">
      <g>
       <use style="stroke:#000000;stroke-width:0.8;" x="233.540352" xlink:href="#mbfce566067" y="315.6"/>
      </g>
     </g>
     <g id="text_4">
      <!-- 3000000 -->
      <g transform="translate(211.271602 330.198438)scale(0.1 -0.1)">
       <defs>
        <path d="M 40.578125 39.3125 
Q 47.65625 37.796875 51.625 33 
Q 55.609375 28.21875 55.609375 21.1875 
Q 55.609375 10.40625 48.1875 4.484375 
Q 40.765625 -1.421875 27.09375 -1.421875 
Q 22.515625 -1.421875 17.65625 -0.515625 
Q 12.796875 0.390625 7.625 2.203125 
L 7.625 11.71875 
Q 11.71875 9.328125 16.59375 8.109375 
Q 21.484375 6.890625 26.8125 6.890625 
Q 36.078125 6.890625 40.9375 10.546875 
Q 45.796875 14.203125 45.796875 21.1875 
Q 45.796875 27.640625 41.28125 31.265625 
Q 36.765625 34.90625 28.71875 34.90625 
L 20.21875 34.90625 
L 20.21875 43.015625 
L 29.109375 43.015625 
Q 36.375 43.015625 40.234375 45.921875 
Q 44.09375 48.828125 44.09375 54.296875 
Q 44.09375 59.90625 40.109375 62.90625 
Q 36.140625 65.921875 28.71875 65.921875 
Q 24.65625 65.921875 20.015625 65.03125 
Q 15.375 64.15625 9.8125 62.3125 
L 9.8125 71.09375 
Q 15.4375 72.65625 20.34375 73.4375 
Q 25.25 74.21875 29.59375 74.21875 
Q 40.828125 74.21875 47.359375 69.109375 
Q 53.90625 64.015625 53.90625 55.328125 
Q 53.90625 49.265625 50.4375 45.09375 
Q 46.96875 40.921875 40.578125 39.3125 
z
" id="DejaVuSans-51"/>
       </defs>
       <use xlink:href="#DejaVuSans-51"/>
       <use x="63.623047" xlink:href="#DejaVuSans-48"/>
       <use x="127.246094" xlink:href="#DejaVuSans-48"/>
       <use x="190.869141" xlink:href="#DejaVuSans-48"/>
       <use x="254.492188" xlink:href="#DejaVuSans-48"/>
       <use x="318.115234" xlink:href="#DejaVuSans-48"/>
       <use x="381.738281" xlink:href="#DejaVuSans-48"/>
      </g>
     </g>
    </g>
    <g id="xtick_5">
     <g id="line2d_5">
      <g>
       <use style="stroke:#000000;stroke-width:0.8;" x="285.323998" xlink:href="#mbfce566067" y="315.6"/>
      </g>
     </g>
     <g id="text_5">
      <!-- 3050000 -->
      <g transform="translate(263.055248 330.198438)scale(0.1 -0.1)">
       <use xlink:href="#DejaVuSans-51"/>
       <use x="63.623047" xlink:href="#DejaVuSans-48"/>
       <use x="127.246094" xlink:href="#DejaVuSans-53"/>
       <use x="190.869141" xlink:href="#DejaVuSans-48"/>
       <use x="254.492188" xlink:href="#DejaVuSans-48"/>
       <use x="318.115234" xlink:href="#DejaVuSans-48"/>
       <use x="381.738281" xlink:href="#DejaVuSans-48"/>
      </g>
     </g>
    </g>
    <g id="xtick_6">
     <g id="line2d_6">
      <g>
       <use style="stroke:#000000;stroke-width:0.8;" x="337.107645" xlink:href="#mbfce566067" y="315.6"/>
      </g>
     </g>
     <g id="text_6">
      <!-- 3100000 -->
      <g transform="translate(314.838895 330.198438)scale(0.1 -0.1)">
       <defs>
        <path d="M 12.40625 8.296875 
L 28.515625 8.296875 
L 28.515625 63.921875 
L 10.984375 60.40625 
L 10.984375 69.390625 
L 28.421875 72.90625 
L 38.28125 72.90625 
L 38.28125 8.296875 
L 54.390625 8.296875 
L 54.390625 0 
L 12.40625 0 
z
" id="DejaVuSans-49"/>
       </defs>
       <use xlink:href="#DejaVuSans-51"/>
       <use x="63.623047" xlink:href="#DejaVuSans-49"/>
       <use x="127.246094" xlink:href="#DejaVuSans-48"/>
       <use x="190.869141" xlink:href="#DejaVuSans-48"/>
       <use x="254.492188" xlink:href="#DejaVuSans-48"/>
       <use x="318.115234" xlink:href="#DejaVuSans-48"/>
       <use x="381.738281" xlink:href="#DejaVuSans-48"/>
      </g>
     </g>
    </g>
    <g id="text_7">
     <!-- timeStamp -->
     <g transform="translate(171.293818 343.876562)scale(0.1 -0.1)">
      <defs>
       <path d="M 18.3125 70.21875 
L 18.3125 54.6875 
L 36.8125 54.6875 
L 36.8125 47.703125 
L 18.3125 47.703125 
L 18.3125 18.015625 
Q 18.3125 11.328125 20.140625 9.421875 
Q 21.96875 7.515625 27.59375 7.515625 
L 36.8125 7.515625 
L 36.8125 0 
L 27.59375 0 
Q 17.1875 0 13.234375 3.875 
Q 9.28125 7.765625 9.28125 18.015625 
L 9.28125 47.703125 
L 2.6875 47.703125 
L 2.6875 54.6875 
L 9.28125 54.6875 
L 9.28125 70.21875 
z
" id="DejaVuSans-116"/>
       <path d="M 9.421875 54.6875 
L 18.40625 54.6875 
L 18.40625 0 
L 9.421875 0 
z
M 9.421875 75.984375 
L 18.40625 75.984375 
L 18.40625 64.59375 
L 9.421875 64.59375 
z
" id="DejaVuSans-105"/>
       <path d="M 52 44.1875 
Q 55.375 50.25 60.0625 53.125 
Q 64.75 56 71.09375 56 
Q 79.640625 56 84.28125 50.015625 
Q 88.921875 44.046875 88.921875 33.015625 
L 88.921875 0 
L 79.890625 0 
L 79.890625 32.71875 
Q 79.890625 40.578125 77.09375 44.375 
Q 74.3125 48.1875 68.609375 48.1875 
Q 61.625 48.1875 57.5625 43.546875 
Q 53.515625 38.921875 53.515625 30.90625 
L 53.515625 0 
L 44.484375 0 
L 44.484375 32.71875 
Q 44.484375 40.625 41.703125 44.40625 
Q 38.921875 48.1875 33.109375 48.1875 
Q 26.21875 48.1875 22.15625 43.53125 
Q 18.109375 38.875 18.109375 30.90625 
L 18.109375 0 
L 9.078125 0 
L 9.078125 54.6875 
L 18.109375 54.6875 
L 18.109375 46.1875 
Q 21.1875 51.21875 25.484375 53.609375 
Q 29.78125 56 35.6875 56 
Q 41.65625 56 45.828125 52.96875 
Q 50 49.953125 52 44.1875 
z
" id="DejaVuSans-109"/>
       <path d="M 56.203125 29.59375 
L 56.203125 25.203125 
L 14.890625 25.203125 
Q 15.484375 15.921875 20.484375 11.0625 
Q 25.484375 6.203125 34.421875 6.203125 
Q 39.59375 6.203125 44.453125 7.46875 
Q 49.3125 8.734375 54.109375 11.28125 
L 54.109375 2.78125 
Q 49.265625 0.734375 44.1875 -0.34375 
Q 39.109375 -1.421875 33.890625 -1.421875 
Q 20.796875 -1.421875 13.15625 6.1875 
Q 5.515625 13.8125 5.515625 26.8125 
Q 5.515625 40.234375 12.765625 48.109375 
Q 20.015625 56 32.328125 56 
Q 43.359375 56 49.78125 48.890625 
Q 56.203125 41.796875 56.203125 29.59375 
z
M 47.21875 32.234375 
Q 47.125 39.59375 43.09375 43.984375 
Q 39.0625 48.390625 32.421875 48.390625 
Q 24.90625 48.390625 20.390625 44.140625 
Q 15.875 39.890625 15.1875 32.171875 
z
" id="DejaVuSans-101"/>
       <path d="M 53.515625 70.515625 
L 53.515625 60.890625 
Q 47.90625 63.578125 42.921875 64.890625 
Q 37.9375 66.21875 33.296875 66.21875 
Q 25.25 66.21875 20.875 63.09375 
Q 16.5 59.96875 16.5 54.203125 
Q 16.5 49.359375 19.40625 46.890625 
Q 22.3125 44.4375 30.421875 42.921875 
L 36.375 41.703125 
Q 47.40625 39.59375 52.65625 34.296875 
Q 57.90625 29 57.90625 20.125 
Q 57.90625 9.515625 50.796875 4.046875 
Q 43.703125 -1.421875 29.984375 -1.421875 
Q 24.8125 -1.421875 18.96875 -0.25 
Q 13.140625 0.921875 6.890625 3.21875 
L 6.890625 13.375 
Q 12.890625 10.015625 18.65625 8.296875 
Q 24.421875 6.59375 29.984375 6.59375 
Q 38.421875 6.59375 43.015625 9.90625 
Q 47.609375 13.234375 47.609375 19.390625 
Q 47.609375 24.75 44.3125 27.78125 
Q 41.015625 30.8125 33.5 32.328125 
L 27.484375 33.5 
Q 16.453125 35.6875 11.515625 40.375 
Q 6.59375 45.0625 6.59375 53.421875 
Q 6.59375 63.09375 13.40625 68.65625 
Q 20.21875 74.21875 32.171875 74.21875 
Q 37.3125 74.21875 42.625 73.28125 
Q 47.953125 72.359375 53.515625 70.515625 
z
" id="DejaVuSans-83"/>
       <path d="M 34.28125 27.484375 
Q 23.390625 27.484375 19.1875 25 
Q 14.984375 22.515625 14.984375 16.5 
Q 14.984375 11.71875 18.140625 8.90625 
Q 21.296875 6.109375 26.703125 6.109375 
Q 34.1875 6.109375 38.703125 11.40625 
Q 43.21875 16.703125 43.21875 25.484375 
L 43.21875 27.484375 
z
M 52.203125 31.203125 
L 52.203125 0 
L 43.21875 0 
L 43.21875 8.296875 
Q 40.140625 3.328125 35.546875 0.953125 
Q 30.953125 -1.421875 24.3125 -1.421875 
Q 15.921875 -1.421875 10.953125 3.296875 
Q 6 8.015625 6 15.921875 
Q 6 25.140625 12.171875 29.828125 
Q 18.359375 34.515625 30.609375 34.515625 
L 43.21875 34.515625 
L 43.21875 35.40625 
Q 43.21875 41.609375 39.140625 45 
Q 35.0625 48.390625 27.6875 48.390625 
Q 23 48.390625 18.546875 47.265625 
Q 14.109375 46.140625 10.015625 43.890625 
L 10.015625 52.203125 
Q 14.9375 54.109375 19.578125 55.046875 
Q 24.21875 56 28.609375 56 
Q 40.484375 56 46.34375 49.84375 
Q 52.203125 43.703125 52.203125 31.203125 
z
" id="DejaVuSans-97"/>
       <path d="M 18.109375 8.203125 
L 18.109375 -20.796875 
L 9.078125 -20.796875 
L 9.078125 54.6875 
L 18.109375 54.6875 
L 18.109375 46.390625 
Q 20.953125 51.265625 25.265625 53.625 
Q 29.59375 56 35.59375 56 
Q 45.5625 56 51.78125 48.09375 
Q 58.015625 40.1875 58.015625 27.296875 
Q 58.015625 14.40625 51.78125 6.484375 
Q 45.5625 -1.421875 35.59375 -1.421875 
Q 29.59375 -1.421875 25.265625 0.953125 
Q 20.953125 3.328125 18.109375 8.203125 
z
M 48.6875 27.296875 
Q 48.6875 37.203125 44.609375 42.84375 
Q 40.53125 48.484375 33.40625 48.484375 
Q 26.265625 48.484375 22.1875 42.84375 
Q 18.109375 37.203125 18.109375 27.296875 
Q 18.109375 17.390625 22.1875 11.75 
Q 26.265625 6.109375 33.40625 6.109375 
Q 40.53125 6.109375 44.609375 11.75 
Q 48.6875 17.390625 48.6875 27.296875 
z
" id="DejaVuSans-112"/>
      </defs>
      <use xlink:href="#DejaVuSans-116"/>
      <use x="39.208984" xlink:href="#DejaVuSans-105"/>
      <use x="66.992188" xlink:href="#DejaVuSans-109"/>
      <use x="164.404297" xlink:href="#DejaVuSans-101"/>
      <use x="225.927734" xlink:href="#DejaVuSans-83"/>
      <use x="289.404297" xlink:href="#DejaVuSans-116"/>
      <use x="328.613281" xlink:href="#DejaVuSans-97"/>
      <use x="389.892578" xlink:href="#DejaVuSans-109"/>
      <use x="487.304688" xlink:href="#DejaVuSans-112"/>
     </g>
    </g>
    <g id="text_8">
     <!-- +1.61062e12 -->
     <g transform="translate(285.273573 342.876562)scale(0.1 -0.1)">
      <defs>
       <path d="M 46 62.703125 
L 46 35.5 
L 73.1875 35.5 
L 73.1875 27.203125 
L 46 27.203125 
L 46 0 
L 37.796875 0 
L 37.796875 27.203125 
L 10.59375 27.203125 
L 10.59375 35.5 
L 37.796875 35.5 
L 37.796875 62.703125 
z
" id="DejaVuSans-43"/>
       <path d="M 10.6875 12.40625 
L 21 12.40625 
L 21 0 
L 10.6875 0 
z
" id="DejaVuSans-46"/>
       <path d="M 33.015625 40.375 
Q 26.375 40.375 22.484375 35.828125 
Q 18.609375 31.296875 18.609375 23.390625 
Q 18.609375 15.53125 22.484375 10.953125 
Q 26.375 6.390625 33.015625 6.390625 
Q 39.65625 6.390625 43.53125 10.953125 
Q 47.40625 15.53125 47.40625 23.390625 
Q 47.40625 31.296875 43.53125 35.828125 
Q 39.65625 40.375 33.015625 40.375 
z
M 52.59375 71.296875 
L 52.59375 62.3125 
Q 48.875 64.0625 45.09375 64.984375 
Q 41.3125 65.921875 37.59375 65.921875 
Q 27.828125 65.921875 22.671875 59.328125 
Q 17.53125 52.734375 16.796875 39.40625 
Q 19.671875 43.65625 24.015625 45.921875 
Q 28.375 48.1875 33.59375 48.1875 
Q 44.578125 48.1875 50.953125 41.515625 
Q 57.328125 34.859375 57.328125 23.390625 
Q 57.328125 12.15625 50.6875 5.359375 
Q 44.046875 -1.421875 33.015625 -1.421875 
Q 20.359375 -1.421875 13.671875 8.265625 
Q 6.984375 17.96875 6.984375 36.375 
Q 6.984375 53.65625 15.1875 63.9375 
Q 23.390625 74.21875 37.203125 74.21875 
Q 40.921875 74.21875 44.703125 73.484375 
Q 48.484375 72.75 52.59375 71.296875 
z
" id="DejaVuSans-54"/>
      </defs>
      <use xlink:href="#DejaVuSans-43"/>
      <use x="83.789062" xlink:href="#DejaVuSans-49"/>
      <use x="147.412109" xlink:href="#DejaVuSans-46"/>
      <use x="179.199219" xlink:href="#DejaVuSans-54"/>
      <use x="242.822266" xlink:href="#DejaVuSans-49"/>
      <use x="306.445312" xlink:href="#DejaVuSans-48"/>
      <use x="370.068359" xlink:href="#DejaVuSans-54"/>
      <use x="433.691406" xlink:href="#DejaVuSans-50"/>
      <use x="497.314453" xlink:href="#DejaVuSans-101"/>
      <use x="558.837891" xlink:href="#DejaVuSans-49"/>
      <use x="622.460938" xlink:href="#DejaVuSans-50"/>
     </g>
    </g>
   </g>
   <g id="matplotlib.axis_2">
    <g id="ytick_1">
     <g id="line2d_7">
      <defs>
       <path d="M 0 0 
L -3.5 0 
" id="m304a857d06" style="stroke:#000000;stroke-width:0.8;"/>
      </defs>
      <g>
       <use style="stroke:#000000;stroke-width:0.8;" x="43.78125" xlink:href="#m304a857d06" y="308.739642"/>
      </g>
     </g>
     <g id="text_9">
      <!-- 5.4 -->
      <g transform="translate(20.878125 312.53886)scale(0.1 -0.1)">
       <defs>
        <path d="M 37.796875 64.3125 
L 12.890625 25.390625 
L 37.796875 25.390625 
z
M 35.203125 72.90625 
L 47.609375 72.90625 
L 47.609375 25.390625 
L 58.015625 25.390625 
L 58.015625 17.1875 
L 47.609375 17.1875 
L 47.609375 0 
L 37.796875 0 
L 37.796875 17.1875 
L 4.890625 17.1875 
L 4.890625 26.703125 
z
" id="DejaVuSans-52"/>
       </defs>
       <use xlink:href="#DejaVuSans-53"/>
       <use x="63.623047" xlink:href="#DejaVuSans-46"/>
       <use x="95.410156" xlink:href="#DejaVuSans-52"/>
      </g>
     </g>
    </g>
    <g id="ytick_2">
     <g id="line2d_8">
      <g>
       <use style="stroke:#000000;stroke-width:0.8;" x="43.78125" xlink:href="#m304a857d06" y="264.056522"/>
      </g>
     </g>
     <g id="text_10">
      <!-- 5.6 -->
      <g transform="translate(20.878125 267.855741)scale(0.1 -0.1)">
       <use xlink:href="#DejaVuSans-53"/>
       <use x="63.623047" xlink:href="#DejaVuSans-46"/>
       <use x="95.410156" xlink:href="#DejaVuSans-54"/>
      </g>
     </g>
    </g>
    <g id="ytick_3">
     <g id="line2d_9">
      <g>
       <use style="stroke:#000000;stroke-width:0.8;" x="43.78125" xlink:href="#m304a857d06" y="219.373402"/>
      </g>
     </g>
     <g id="text_11">
      <!-- 5.8 -->
      <g transform="translate(20.878125 223.172621)scale(0.1 -0.1)">
       <use xlink:href="#DejaVuSans-53"/>
       <use x="63.623047" xlink:href="#DejaVuSans-46"/>
       <use x="95.410156" xlink:href="#DejaVuSans-56"/>
      </g>
     </g>
    </g>
    <g id="ytick_4">
     <g id="line2d_10">
      <g>
       <use style="stroke:#000000;stroke-width:0.8;" x="43.78125" xlink:href="#m304a857d06" y="174.690282"/>
      </g>
     </g>
     <g id="text_12">
      <!-- 6.0 -->
      <g transform="translate(20.878125 178.489501)scale(0.1 -0.1)">
       <use xlink:href="#DejaVuSans-54"/>
       <use x="63.623047" xlink:href="#DejaVuSans-46"/>
       <use x="95.410156" xlink:href="#DejaVuSans-48"/>
      </g>
     </g>
    </g>
    <g id="ytick_5">
     <g id="line2d_11">
      <g>
       <use style="stroke:#000000;stroke-width:0.8;" x="43.78125" xlink:href="#m304a857d06" y="130.007163"/>
      </g>
     </g>
     <g id="text_13">
      <!-- 6.2 -->
      <g transform="translate(20.878125 133.806382)scale(0.1 -0.1)">
       <use xlink:href="#DejaVuSans-54"/>
       <use x="63.623047" xlink:href="#DejaVuSans-46"/>
       <use x="95.410156" xlink:href="#DejaVuSans-50"/>
      </g>
     </g>
    </g>
    <g id="ytick_6">
     <g id="line2d_12">
      <g>
       <use style="stroke:#000000;stroke-width:0.8;" x="43.78125" xlink:href="#m304a857d06" y="85.324043"/>
      </g>
     </g>
     <g id="text_14">
      <!-- 6.4 -->
      <g transform="translate(20.878125 89.123262)scale(0.1 -0.1)">
       <use xlink:href="#DejaVuSans-54"/>
       <use x="63.623047" xlink:href="#DejaVuSans-46"/>
       <use x="95.410156" xlink:href="#DejaVuSans-52"/>
      </g>
     </g>
    </g>
    <g id="ytick_7">
     <g id="line2d_13">
      <g>
       <use style="stroke:#000000;stroke-width:0.8;" x="43.78125" xlink:href="#m304a857d06" y="40.640923"/>
      </g>
     </g>
     <g id="text_15">
      <!-- 6.6 -->
      <g transform="translate(20.878125 44.440142)scale(0.1 -0.1)">
       <use xlink:href="#DejaVuSans-54"/>
       <use x="63.623047" xlink:href="#DejaVuSans-46"/>
       <use x="95.410156" xlink:href="#DejaVuSans-54"/>
      </g>
     </g>
    </g>
    <g id="text_16">
     <!-- Latency -->
     <g transform="translate(14.798438 181.164062)rotate(-90)scale(0.1 -0.1)">
      <defs>
       <path d="M 9.8125 72.90625 
L 19.671875 72.90625 
L 19.671875 8.296875 
L 55.171875 8.296875 
L 55.171875 0 
L 9.8125 0 
z
" id="DejaVuSans-76"/>
       <path d="M 54.890625 33.015625 
L 54.890625 0 
L 45.90625 0 
L 45.90625 32.71875 
Q 45.90625 40.484375 42.875 44.328125 
Q 39.84375 48.1875 33.796875 48.1875 
Q 26.515625 48.1875 22.3125 43.546875 
Q 18.109375 38.921875 18.109375 30.90625 
L 18.109375 0 
L 9.078125 0 
L 9.078125 54.6875 
L 18.109375 54.6875 
L 18.109375 46.1875 
Q 21.34375 51.125 25.703125 53.5625 
Q 30.078125 56 35.796875 56 
Q 45.21875 56 50.046875 50.171875 
Q 54.890625 44.34375 54.890625 33.015625 
z
" id="DejaVuSans-110"/>
       <path d="M 48.78125 52.59375 
L 48.78125 44.1875 
Q 44.96875 46.296875 41.140625 47.34375 
Q 37.3125 48.390625 33.40625 48.390625 
Q 24.65625 48.390625 19.8125 42.84375 
Q 14.984375 37.3125 14.984375 27.296875 
Q 14.984375 17.28125 19.8125 11.734375 
Q 24.65625 6.203125 33.40625 6.203125 
Q 37.3125 6.203125 41.140625 7.25 
Q 44.96875 8.296875 48.78125 10.40625 
L 48.78125 2.09375 
Q 45.015625 0.34375 40.984375 -0.53125 
Q 36.96875 -1.421875 32.421875 -1.421875 
Q 20.0625 -1.421875 12.78125 6.34375 
Q 5.515625 14.109375 5.515625 27.296875 
Q 5.515625 40.671875 12.859375 48.328125 
Q 20.21875 56 33.015625 56 
Q 37.15625 56 41.109375 55.140625 
Q 45.0625 54.296875 48.78125 52.59375 
z
" id="DejaVuSans-99"/>
       <path d="M 32.171875 -5.078125 
Q 28.375 -14.84375 24.75 -17.8125 
Q 21.140625 -20.796875 15.09375 -20.796875 
L 7.90625 -20.796875 
L 7.90625 -13.28125 
L 13.1875 -13.28125 
Q 16.890625 -13.28125 18.9375 -11.515625 
Q 21 -9.765625 23.484375 -3.21875 
L 25.09375 0.875 
L 2.984375 54.6875 
L 12.5 54.6875 
L 29.59375 11.921875 
L 46.6875 54.6875 
L 56.203125 54.6875 
z
" id="DejaVuSans-121"/>
      </defs>
      <use xlink:href="#DejaVuSans-76"/>
      <use x="55.712891" xlink:href="#DejaVuSans-97"/>
      <use x="116.992188" xlink:href="#DejaVuSans-116"/>
      <use x="156.201172" xlink:href="#DejaVuSans-101"/>
      <use x="217.724609" xlink:href="#DejaVuSans-110"/>
      <use x="281.103516" xlink:href="#DejaVuSans-99"/>
      <use x="336.083984" xlink:href="#DejaVuSans-121"/>
     </g>
    </g>
   </g>
   <g id="line2d_14">
    <path clip-path="url(#p64be02ae77)" d="M 43.78125 207.616396 
L 46.913449 207.616394 
L 50.045648 207.616391 
L 53.177848 207.616389 
L 56.310047 207.616386 
L 59.442246 207.616384 
L 62.574445 207.616382 
L 65.706645 207.616379 
L 68.838844 207.616377 
L 71.971043 207.616374 
L 75.103242 207.616372 
L 78.235441 207.616369 
L 81.367641 207.616367 
L 84.49984 207.616364 
L 87.632039 207.616362 
L 90.764239 207.616359 
L 93.896438 207.616357 
L 97.028637 207.616355 
L 100.160836 207.616352 
L 103.293036 207.61635 
L 106.425235 207.616347 
L 109.557434 207.616345 
L 112.689633 207.616342 
L 115.821833 207.61634 
L 118.954032 207.616337 
L 122.086231 207.616335 
L 125.21843 207.616332 
L 128.35063 207.61633 
L 131.482829 207.616328 
L 134.615028 207.616325 
L 137.747227 207.616323 
L 140.879427 207.61632 
L 144.011626 207.616318 
L 147.143825 207.616315 
L 150.276024 207.616313 
L 153.408224 207.61631 
L 156.540423 207.616308 
L 159.672622 207.616305 
L 162.804821 207.616303 
L 165.937021 207.616301 
L 169.06922 207.616298 
L 172.201419 207.616296 
L 175.333618 207.616293 
L 178.465818 207.616291 
L 181.598017 207.616288 
L 184.730216 207.616286 
L 187.862415 207.616283 
L 190.994615 207.616281 
L 194.126814 207.616278 
L 197.259013 207.616276 
L 200.391212 207.616274 
L 203.523412 207.616271 
L 206.655611 207.616269 
L 209.78781 207.616266 
L 212.92001 207.616264 
L 216.052209 207.616261 
L 219.184408 207.616259 
L 222.316607 207.616256 
L 225.448807 207.616254 
L 228.581006 207.616251 
L 231.713205 207.616249 
L 234.845404 207.616247 
L 237.977603 207.616244 
L 241.109803 207.616242 
L 244.242002 207.616239 
L 247.374201 207.616237 
L 250.506401 207.616234 
L 253.6386 207.616232 
L 256.770799 207.616229 
L 259.902998 207.616227 
L 263.035197 207.616224 
L 266.167397 207.616222 
L 269.299596 207.61622 
L 272.431795 207.616217 
L 275.563994 207.616215 
L 278.696194 207.616212 
L 281.828393 207.61621 
L 284.960592 207.616207 
L 288.092792 207.616205 
L 291.224991 207.616202 
L 294.35719 207.6162 
L 297.489389 207.616197 
L 300.621588 207.616195 
L 303.753788 207.616193 
L 306.885987 207.61619 
L 310.018186 207.616188 
L 313.150385 207.616185 
L 316.282585 207.616183 
L 319.414784 207.61618 
L 322.546983 207.616178 
L 325.679183 207.616175 
L 328.811382 207.616173 
L 331.943581 207.61617 
L 335.07578 207.616168 
L 338.207979 207.616166 
L 341.340179 207.616163 
L 344.472378 207.616161 
L 347.604577 207.616158 
L 350.736776 207.616156 
L 353.868976 207.616153 
" style="fill:none;stroke:#1f77b4;stroke-linecap:square;stroke-width:2.25;"/>
   </g>
   <g id="line2d_15">
    <path clip-path="url(#p64be02ae77)" d="M 43.78125 125.521154 
L 46.913334 125.521152 
L 50.045418 125.521149 
L 53.177502 125.521147 
L 56.309587 125.521144 
L 59.441671 125.521141 
L 62.573755 125.521139 
L 65.705839 125.521136 
L 68.837923 125.521134 
L 71.970007 125.521131 
L 75.102092 125.521128 
L 78.234176 125.521126 
L 81.36626 125.521123 
L 84.498344 125.52112 
L 87.630429 125.521118 
L 90.762512 125.521115 
L 93.894597 125.521113 
L 97.026681 125.52111 
L 100.158765 125.521107 
L 103.290849 125.521105 
L 106.422933 125.521102 
L 109.555018 125.5211 
L 112.687102 125.521097 
L 115.819186 125.521094 
L 118.95127 125.521092 
L 122.083354 125.521089 
L 125.215438 125.521087 
L 128.347523 125.521084 
L 131.479607 125.521081 
L 134.611691 125.521079 
L 137.743775 125.521076 
L 140.875859 125.521074 
L 144.007943 125.521071 
L 147.140028 125.521068 
L 150.272112 125.521066 
L 153.404196 125.521063 
L 156.53628 125.52106 
L 159.668365 125.521058 
L 162.800449 125.521055 
L 165.932533 125.521053 
L 169.064617 125.52105 
L 172.196701 125.521047 
L 175.328785 125.521045 
L 178.460869 125.521042 
L 181.592954 125.52104 
L 184.725038 125.521037 
L 187.857122 125.521034 
L 190.989206 125.521032 
L 194.12129 125.521029 
L 197.253374 125.521027 
L 200.385459 125.521024 
L 203.517543 125.521021 
L 206.649627 125.521019 
L 209.781711 125.521016 
L 212.913795 125.521013 
L 216.04588 125.521011 
L 219.177964 125.521008 
L 222.310048 125.521006 
L 225.442132 125.521003 
L 228.574216 125.521 
L 231.7063 125.520998 
L 234.838385 125.520995 
L 237.970469 125.520993 
L 241.102553 125.52099 
L 244.234637 125.520987 
L 247.366721 125.520985 
L 250.498805 125.520982 
L 253.63089 125.52098 
L 256.762974 125.520977 
L 259.895058 125.520974 
L 263.027142 125.520972 
L 266.159226 125.520969 
L 269.291311 125.520967 
L 272.423395 125.520964 
L 275.555479 125.520961 
L 278.687563 125.520959 
L 281.819647 125.520956 
L 284.951731 125.520953 
L 288.083816 125.520951 
L 291.2159 125.520948 
L 294.347984 125.520946 
L 297.480068 125.520943 
L 300.612152 125.52094 
L 303.744236 125.520938 
L 306.876321 125.520935 
L 310.008405 125.520933 
L 313.140489 125.52093 
L 316.272573 125.520927 
L 319.404657 125.520925 
L 322.536741 125.520922 
L 325.668826 125.52092 
L 328.80091 125.520917 
L 331.932994 125.520914 
L 335.065078 125.520912 
L 338.197162 125.520909 
L 341.329247 125.520907 
L 344.461331 125.520904 
L 347.593415 125.520901 
L 350.725499 125.520899 
L 353.857583 125.520896 
" style="fill:none;stroke:#ff7f0e;stroke-linecap:square;stroke-width:2.25;"/>
   </g>
   <g id="line2d_16">
    <path clip-path="url(#p64be02ae77)" d="M 44.216233 216.827133 
L 47.344195 216.82713 
L 50.472157 216.827128 
L 53.60012 216.827125 
L 56.728082 216.827123 
L 59.856045 216.827121 
L 62.984007 216.827118 
L 66.111969 216.827116 
L 69.239932 216.827113 
L 72.367894 216.827111 
L 75.495857 216.827108 
L 78.623819 216.827106 
L 81.751781 216.827104 
L 84.879744 216.827101 
L 88.007706 216.827099 
L 91.135669 216.827096 
L 94.263631 216.827094 
L 97.391593 216.827091 
L 100.519556 216.827089 
L 103.647518 216.827087 
L 106.775481 216.827084 
L 109.903443 216.827082 
L 113.031405 216.827079 
L 116.159368 216.827077 
L 119.28733 216.827074 
L 122.415293 216.827072 
L 125.543255 216.827069 
L 128.671217 216.827067 
L 131.79918 216.827065 
L 134.927142 216.827062 
L 138.055105 216.82706 
L 141.183067 216.827057 
L 144.311029 216.827055 
L 147.438992 216.827052 
L 150.566954 216.82705 
L 153.694917 216.827048 
L 156.822879 216.827045 
L 159.950841 216.827043 
L 163.078804 216.82704 
L 166.206766 216.827038 
L 169.334729 216.827035 
L 172.462691 216.827033 
L 175.590653 216.827031 
L 178.718616 216.827028 
L 181.846578 216.827026 
L 184.974541 216.827023 
L 188.102503 216.827021 
L 191.230465 216.827018 
L 194.358428 216.827016 
L 197.486391 216.827013 
L 200.614353 216.827011 
L 203.742315 216.827009 
L 206.870278 216.827006 
L 209.99824 216.827004 
L 213.126203 216.827001 
L 216.254165 216.826999 
L 219.382127 216.826996 
L 222.51009 216.826994 
L 225.638052 216.826992 
L 228.766015 216.826989 
L 231.893977 216.826987 
L 235.02194 216.826984 
L 238.149902 216.826982 
L 241.277864 216.826979 
L 244.405827 216.826977 
L 247.533789 216.826975 
L 250.661752 216.826972 
L 253.789714 216.82697 
L 256.917676 216.826967 
L 260.045639 216.826965 
L 263.173601 216.826962 
L 266.301564 216.82696 
L 269.429526 216.826958 
L 272.557488 216.826955 
L 275.685451 216.826953 
L 278.813413 216.82695 
L 281.941375 216.826948 
L 285.069338 216.826945 
L 288.1973 216.826943 
L 291.325263 216.82694 
L 294.453225 216.826938 
L 297.581187 216.826936 
L 300.70915 216.826933 
L 303.837112 216.826931 
L 306.965075 216.826928 
L 310.093037 216.826926 
L 313.220999 216.826923 
L 316.348962 216.826921 
L 319.476924 216.826919 
L 322.604887 216.826916 
L 325.732849 216.826914 
L 328.860811 216.826911 
L 331.988774 216.826909 
L 335.116736 216.826906 
L 338.244699 216.826904 
L 341.372661 216.826902 
L 344.500623 216.826899 
L 347.628586 216.826897 
L 350.756548 216.826894 
L 353.884511 216.826892 
" style="fill:none;stroke:#2ca02c;stroke-linecap:square;stroke-width:2.25;"/>
   </g>
   <g id="patch_3">
    <path d="M 43.78125 315.6 
L 43.78125 7.2 
" style="fill:none;stroke:#000000;stroke-linecap:square;stroke-linejoin:miter;stroke-width:0.8;"/>
   </g>
   <g id="patch_4">
    <path d="M 43.78125 315.6 
L 353.884511 315.6 
" style="fill:none;stroke:#000000;stroke-linecap:square;stroke-linejoin:miter;stroke-width:0.8;"/>
   </g>
   <g id="legend_1">
    <g id="patch_5">
     <path d="M 273.786073 73.9125 
L 346.884511 73.9125 
Q 348.884511 73.9125 348.884511 71.9125 
L 348.884511 14.2 
Q 348.884511 12.2 346.884511 12.2 
L 273.786073 12.2 
Q 271.786073 12.2 271.786073 14.2 
L 271.786073 71.9125 
Q 271.786073 73.9125 273.786073 73.9125 
z
" style="fill:#ffffff;opacity:0.8;stroke:#cccccc;stroke-linejoin:miter;"/>
    </g>
    <g id="text_17">
     <!-- resourceType -->
     <g transform="translate(277.231386 23.798438)scale(0.1 -0.1)">
      <defs>
       <path d="M 41.109375 46.296875 
Q 39.59375 47.171875 37.8125 47.578125 
Q 36.03125 48 33.890625 48 
Q 26.265625 48 22.1875 43.046875 
Q 18.109375 38.09375 18.109375 28.8125 
L 18.109375 0 
L 9.078125 0 
L 9.078125 54.6875 
L 18.109375 54.6875 
L 18.109375 46.1875 
Q 20.953125 51.171875 25.484375 53.578125 
Q 30.03125 56 36.53125 56 
Q 37.453125 56 38.578125 55.875 
Q 39.703125 55.765625 41.0625 55.515625 
z
" id="DejaVuSans-114"/>
       <path d="M 44.28125 53.078125 
L 44.28125 44.578125 
Q 40.484375 46.53125 36.375 47.5 
Q 32.28125 48.484375 27.875 48.484375 
Q 21.1875 48.484375 17.84375 46.4375 
Q 14.5 44.390625 14.5 40.28125 
Q 14.5 37.15625 16.890625 35.375 
Q 19.28125 33.59375 26.515625 31.984375 
L 29.59375 31.296875 
Q 39.15625 29.25 43.1875 25.515625 
Q 47.21875 21.78125 47.21875 15.09375 
Q 47.21875 7.46875 41.1875 3.015625 
Q 35.15625 -1.421875 24.609375 -1.421875 
Q 20.21875 -1.421875 15.453125 -0.5625 
Q 10.6875 0.296875 5.421875 2 
L 5.421875 11.28125 
Q 10.40625 8.6875 15.234375 7.390625 
Q 20.0625 6.109375 24.8125 6.109375 
Q 31.15625 6.109375 34.5625 8.28125 
Q 37.984375 10.453125 37.984375 14.40625 
Q 37.984375 18.0625 35.515625 20.015625 
Q 33.0625 21.96875 24.703125 23.78125 
L 21.578125 24.515625 
Q 13.234375 26.265625 9.515625 29.90625 
Q 5.8125 33.546875 5.8125 39.890625 
Q 5.8125 47.609375 11.28125 51.796875 
Q 16.75 56 26.8125 56 
Q 31.78125 56 36.171875 55.265625 
Q 40.578125 54.546875 44.28125 53.078125 
z
" id="DejaVuSans-115"/>
       <path d="M 30.609375 48.390625 
Q 23.390625 48.390625 19.1875 42.75 
Q 14.984375 37.109375 14.984375 27.296875 
Q 14.984375 17.484375 19.15625 11.84375 
Q 23.34375 6.203125 30.609375 6.203125 
Q 37.796875 6.203125 41.984375 11.859375 
Q 46.1875 17.53125 46.1875 27.296875 
Q 46.1875 37.015625 41.984375 42.703125 
Q 37.796875 48.390625 30.609375 48.390625 
z
M 30.609375 56 
Q 42.328125 56 49.015625 48.375 
Q 55.71875 40.765625 55.71875 27.296875 
Q 55.71875 13.875 49.015625 6.21875 
Q 42.328125 -1.421875 30.609375 -1.421875 
Q 18.84375 -1.421875 12.171875 6.21875 
Q 5.515625 13.875 5.515625 27.296875 
Q 5.515625 40.765625 12.171875 48.375 
Q 18.84375 56 30.609375 56 
z
" id="DejaVuSans-111"/>
       <path d="M 8.5 21.578125 
L 8.5 54.6875 
L 17.484375 54.6875 
L 17.484375 21.921875 
Q 17.484375 14.15625 20.5 10.265625 
Q 23.53125 6.390625 29.59375 6.390625 
Q 36.859375 6.390625 41.078125 11.03125 
Q 45.3125 15.671875 45.3125 23.6875 
L 45.3125 54.6875 
L 54.296875 54.6875 
L 54.296875 0 
L 45.3125 0 
L 45.3125 8.40625 
Q 42.046875 3.421875 37.71875 1 
Q 33.40625 -1.421875 27.6875 -1.421875 
Q 18.265625 -1.421875 13.375 4.4375 
Q 8.5 10.296875 8.5 21.578125 
z
M 31.109375 56 
z
" id="DejaVuSans-117"/>
       <path d="M -0.296875 72.90625 
L 61.375 72.90625 
L 61.375 64.59375 
L 35.5 64.59375 
L 35.5 0 
L 25.59375 0 
L 25.59375 64.59375 
L -0.296875 64.59375 
z
" id="DejaVuSans-84"/>
      </defs>
      <use xlink:href="#DejaVuSans-114"/>
      <use x="38.863281" xlink:href="#DejaVuSans-101"/>
      <use x="100.386719" xlink:href="#DejaVuSans-115"/>
      <use x="152.486328" xlink:href="#DejaVuSans-111"/>
      <use x="213.667969" xlink:href="#DejaVuSans-117"/>
      <use x="277.046875" xlink:href="#DejaVuSans-114"/>
      <use x="315.910156" xlink:href="#DejaVuSans-99"/>
      <use x="370.890625" xlink:href="#DejaVuSans-101"/>
      <use x="432.414062" xlink:href="#DejaVuSans-84"/>
      <use x="477.873047" xlink:href="#DejaVuSans-121"/>
      <use x="537.052734" xlink:href="#DejaVuSans-112"/>
      <use x="600.529297" xlink:href="#DejaVuSans-101"/>
     </g>
    </g>
    <g id="line2d_17">
     <path d="M 275.786073 34.976563 
L 295.786073 34.976563 
" style="fill:none;stroke:#1f77b4;stroke-linecap:square;stroke-width:2.25;"/>
    </g>
    <g id="line2d_18"/>
    <g id="text_18">
     <!-- medium -->
     <g transform="translate(303.786073 38.476563)scale(0.1 -0.1)">
      <defs>
       <path d="M 45.40625 46.390625 
L 45.40625 75.984375 
L 54.390625 75.984375 
L 54.390625 0 
L 45.40625 0 
L 45.40625 8.203125 
Q 42.578125 3.328125 38.25 0.953125 
Q 33.9375 -1.421875 27.875 -1.421875 
Q 17.96875 -1.421875 11.734375 6.484375 
Q 5.515625 14.40625 5.515625 27.296875 
Q 5.515625 40.1875 11.734375 48.09375 
Q 17.96875 56 27.875 56 
Q 33.9375 56 38.25 53.625 
Q 42.578125 51.265625 45.40625 46.390625 
z
M 14.796875 27.296875 
Q 14.796875 17.390625 18.875 11.75 
Q 22.953125 6.109375 30.078125 6.109375 
Q 37.203125 6.109375 41.296875 11.75 
Q 45.40625 17.390625 45.40625 27.296875 
Q 45.40625 37.203125 41.296875 42.84375 
Q 37.203125 48.484375 30.078125 48.484375 
Q 22.953125 48.484375 18.875 42.84375 
Q 14.796875 37.203125 14.796875 27.296875 
z
" id="DejaVuSans-100"/>
      </defs>
      <use xlink:href="#DejaVuSans-109"/>
      <use x="97.412109" xlink:href="#DejaVuSans-101"/>
      <use x="158.935547" xlink:href="#DejaVuSans-100"/>
      <use x="222.412109" xlink:href="#DejaVuSans-105"/>
      <use x="250.195312" xlink:href="#DejaVuSans-117"/>
      <use x="313.574219" xlink:href="#DejaVuSans-109"/>
     </g>
    </g>
    <g id="line2d_19">
     <path d="M 275.786073 49.654688 
L 295.786073 49.654688 
" style="fill:none;stroke:#ff7f0e;stroke-linecap:square;stroke-width:2.25;"/>
    </g>
    <g id="line2d_20"/>
    <g id="text_19">
     <!-- large -->
     <g transform="translate(303.786073 53.154688)scale(0.1 -0.1)">
      <defs>
       <path d="M 9.421875 75.984375 
L 18.40625 75.984375 
L 18.40625 0 
L 9.421875 0 
z
" id="DejaVuSans-108"/>
       <path d="M 45.40625 27.984375 
Q 45.40625 37.75 41.375 43.109375 
Q 37.359375 48.484375 30.078125 48.484375 
Q 22.859375 48.484375 18.828125 43.109375 
Q 14.796875 37.75 14.796875 27.984375 
Q 14.796875 18.265625 18.828125 12.890625 
Q 22.859375 7.515625 30.078125 7.515625 
Q 37.359375 7.515625 41.375 12.890625 
Q 45.40625 18.265625 45.40625 27.984375 
z
M 54.390625 6.78125 
Q 54.390625 -7.171875 48.1875 -13.984375 
Q 42 -20.796875 29.203125 -20.796875 
Q 24.46875 -20.796875 20.265625 -20.09375 
Q 16.0625 -19.390625 12.109375 -17.921875 
L 12.109375 -9.1875 
Q 16.0625 -11.328125 19.921875 -12.34375 
Q 23.78125 -13.375 27.78125 -13.375 
Q 36.625 -13.375 41.015625 -8.765625 
Q 45.40625 -4.15625 45.40625 5.171875 
L 45.40625 9.625 
Q 42.625 4.78125 38.28125 2.390625 
Q 33.9375 0 27.875 0 
Q 17.828125 0 11.671875 7.65625 
Q 5.515625 15.328125 5.515625 27.984375 
Q 5.515625 40.671875 11.671875 48.328125 
Q 17.828125 56 27.875 56 
Q 33.9375 56 38.28125 53.609375 
Q 42.625 51.21875 45.40625 46.390625 
L 45.40625 54.6875 
L 54.390625 54.6875 
z
" id="DejaVuSans-103"/>
      </defs>
      <use xlink:href="#DejaVuSans-108"/>
      <use x="27.783203" xlink:href="#DejaVuSans-97"/>
      <use x="89.0625" xlink:href="#DejaVuSans-114"/>
      <use x="128.425781" xlink:href="#DejaVuSans-103"/>
      <use x="191.902344" xlink:href="#DejaVuSans-101"/>
     </g>
    </g>
    <g id="line2d_21">
     <path d="M 275.786073 64.332813 
L 295.786073 64.332813 
" style="fill:none;stroke:#2ca02c;stroke-linecap:square;stroke-width:2.25;"/>
    </g>
    <g id="line2d_22"/>
    <g id="text_20">
     <!-- small -->
     <g transform="translate(303.786073 67.832813)scale(0.1 -0.1)">
      <use xlink:href="#DejaVuSans-115"/>
      <use x="52.099609" xlink:href="#DejaVuSans-109"/>
      <use x="149.511719" xlink:href="#DejaVuSans-97"/>
      <use x="210.791016" xlink:href="#DejaVuSans-108"/>
      <use x="238.574219" xlink:href="#DejaVuSans-108"/>
     </g>
    </g>
   </g>
  </g>
 </g>
 <defs>
  <clipPath id="p64be02ae77">
   <rect height="308.4" width="310.103261" x="43.78125" y="7.2"/>
  </clipPath>
 </defs>
</svg>
